<?xml version="1.0" encoding="utf-8"?>
<!-- Generator: Adobe Illustrator 16.0.0, SVG Export Plug-In . SVG Version: 6.00 Build 0)  -->
<!DOCTYPE svg PUBLIC "-//W3C//DTD SVG 1.1//EN" "http://www.w3.org/Graphics/SVG/1.1/DTD/svg11.dtd">
<svg version="1.1" id="Capa_1" xmlns="http://www.w3.org/2000/svg" xmlns:xlink="http://www.w3.org/1999/xlink" x="0px" y="0px"
	 width="242.343px" height="178px" viewBox="0 0 242.343 178" enable-background="new 0 0 242.343 178" xml:space="preserve">
<path fill="#36A0A9" d="M9.177,5.812c0,1.859-1.507,3.365-3.365,3.365S2.446,7.671,2.446,5.812c0-1.858,1.507-3.365,3.365-3.365
	S9.177,3.954,9.177,5.812"/>
<path fill="#36A0A9" d="M19.648,5.812c0,1.859-1.509,3.365-3.365,3.365c-1.86,0-3.365-1.506-3.365-3.365
	c0-1.858,1.505-3.365,3.365-3.365C18.14,2.447,19.648,3.954,19.648,5.812"/>
<path fill="#36A0A9" d="M30.119,5.812c0,1.858-1.507,3.365-3.365,3.365S23.39,7.67,23.39,5.812c0-1.858,1.506-3.365,3.364-3.365
	S30.119,3.954,30.119,5.812"/>
<path fill="#36A0A9" d="M40.591,5.812c0,1.859-1.507,3.365-3.365,3.365S33.86,7.671,33.86,5.812c0-1.858,1.507-3.365,3.365-3.365
	S40.591,3.954,40.591,5.812"/>
<path fill="#36A0A9" d="M51.062,5.812c0,1.859-1.509,3.365-3.365,3.365c-1.86,0-3.365-1.506-3.365-3.365
	c0-1.858,1.505-3.365,3.365-3.365C49.553,2.447,51.062,3.954,51.062,5.812"/>
<path fill="#36A0A9" d="M61.533,5.812c0,1.858-1.508,3.365-3.365,3.365c-1.859,0-3.365-1.507-3.365-3.365
	c0-1.858,1.506-3.365,3.365-3.365C60.025,2.447,61.533,3.954,61.533,5.812"/>
<path fill="#36A0A9" d="M72.004,5.812c0,1.859-1.506,3.365-3.365,3.365c-1.857,0-3.365-1.506-3.365-3.365
	c0-1.858,1.508-3.365,3.365-3.365C70.498,2.447,72.004,3.954,72.004,5.812"/>
<path fill="#36A0A9" d="M82.476,5.812c0,1.859-1.509,3.365-3.365,3.365c-1.86,0-3.365-1.506-3.365-3.365
	c0-1.858,1.505-3.365,3.365-3.365C80.967,2.447,82.476,3.954,82.476,5.812"/>
<path fill="#36A0A9" d="M92.946,5.812c0,1.858-1.507,3.365-3.365,3.365s-3.364-1.507-3.364-3.365c0-1.858,1.506-3.365,3.364-3.365
	S92.946,3.954,92.946,5.812"/>
<path fill="#36A0A9" d="M103.418,5.812c0,1.859-1.508,3.365-3.365,3.365c-1.859,0-3.365-1.506-3.365-3.365
	c0-1.858,1.506-3.365,3.365-3.365C101.91,2.447,103.418,3.954,103.418,5.812"/>
<path fill="#36A0A9" d="M113.89,5.812c0,1.859-1.509,3.365-3.365,3.365c-1.86,0-3.365-1.506-3.365-3.365
	c0-1.858,1.505-3.365,3.365-3.365C112.381,2.447,113.89,3.954,113.89,5.812"/>
<path fill="#36A0A9" d="M124.361,5.812c0,1.858-1.508,3.365-3.365,3.365c-1.859,0-3.365-1.507-3.365-3.365
	c0-1.858,1.506-3.365,3.365-3.365C122.854,2.447,124.361,3.954,124.361,5.812"/>
<path fill="#36A0A9" d="M134.832,5.812c0,1.859-1.507,3.365-3.365,3.365s-3.365-1.506-3.365-3.365c0-1.858,1.507-3.365,3.365-3.365
	S134.832,3.954,134.832,5.812"/>
<path fill="#36A0A9" d="M145.304,5.812c0,1.859-1.508,3.365-3.365,3.365c-1.859,0-3.365-1.506-3.365-3.365
	c0-1.858,1.506-3.365,3.365-3.365C143.796,2.447,145.304,3.954,145.304,5.812"/>
<path fill="#36A0A9" d="M155.774,5.812c0,1.858-1.507,3.365-3.365,3.365s-3.364-1.507-3.364-3.365c0-1.858,1.506-3.365,3.364-3.365
	S155.774,3.954,155.774,5.812"/>
<path fill="#36A0A9" d="M166.246,5.812c0,1.859-1.507,3.365-3.365,3.365s-3.365-1.506-3.365-3.365c0-1.858,1.507-3.365,3.365-3.365
	S166.246,3.954,166.246,5.812"/>
<path fill="#36A0A9" d="M176.717,5.812c0,1.859-1.508,3.365-3.365,3.365c-1.859,0-3.365-1.506-3.365-3.365
	c0-1.858,1.506-3.365,3.365-3.365C175.209,2.447,176.717,3.954,176.717,5.812"/>
<path fill="#36A0A9" d="M187.188,5.812c0,1.858-1.506,3.365-3.365,3.365c-1.857,0-3.363-1.507-3.363-3.365
	c0-1.858,1.506-3.365,3.363-3.365C185.682,2.447,187.188,3.954,187.188,5.812"/>
<path fill="#36A0A9" d="M197.66,5.812c0,1.859-1.507,3.365-3.365,3.365s-3.365-1.506-3.365-3.365c0-1.858,1.507-3.365,3.365-3.365
	S197.66,3.954,197.66,5.812"/>
<path fill="#36A0A9" d="M208.131,5.812c0,1.859-1.509,3.365-3.365,3.365c-1.86,0-3.365-1.506-3.365-3.365
	c0-1.858,1.505-3.365,3.365-3.365C206.622,2.447,208.131,3.954,208.131,5.812"/>
<path fill="#36A0A9" d="M218.602,5.812c0,1.858-1.507,3.365-3.365,3.365s-3.364-1.507-3.364-3.365c0-1.858,1.506-3.365,3.364-3.365
	S218.602,3.954,218.602,5.812"/>
<path fill="#36A0A9" d="M229.073,5.812c0,1.859-1.507,3.365-3.365,3.365s-3.365-1.506-3.365-3.365c0-1.858,1.507-3.365,3.365-3.365
	S229.073,3.954,229.073,5.812"/>
<path fill="#36A0A9" d="M239.545,5.812c0,1.859-1.509,3.365-3.365,3.365c-1.86,0-3.365-1.506-3.365-3.365
	c0-1.858,1.505-3.365,3.365-3.365C238.036,2.447,239.545,3.954,239.545,5.812"/>
<path fill="#36A0A9" d="M9.177,16.312c0,1.859-1.507,3.365-3.365,3.365s-3.365-1.506-3.365-3.365c0-1.858,1.507-3.365,3.365-3.365
	S9.177,14.454,9.177,16.312"/>
<path fill="#36A0A9" d="M19.648,16.312c0,1.859-1.509,3.365-3.365,3.365c-1.86,0-3.365-1.506-3.365-3.365
	c0-1.858,1.505-3.365,3.365-3.365C18.14,12.947,19.648,14.454,19.648,16.312"/>
<path fill="#36A0A9" d="M30.119,16.312c0,1.858-1.507,3.365-3.365,3.365s-3.364-1.507-3.364-3.365c0-1.858,1.506-3.365,3.364-3.365
	S30.119,14.454,30.119,16.312"/>
<path fill="#36A0A9" d="M40.591,16.312c0,1.859-1.507,3.365-3.365,3.365s-3.365-1.506-3.365-3.365c0-1.858,1.507-3.365,3.365-3.365
	S40.591,14.454,40.591,16.312"/>
<path fill="#36A0A9" d="M51.062,16.312c0,1.859-1.509,3.365-3.365,3.365c-1.86,0-3.365-1.506-3.365-3.365
	c0-1.858,1.505-3.365,3.365-3.365C49.553,12.947,51.062,14.454,51.062,16.312"/>
<path fill="#36A0A9" d="M61.533,16.312c0,1.858-1.508,3.365-3.365,3.365c-1.859,0-3.365-1.507-3.365-3.365
	c0-1.858,1.506-3.365,3.365-3.365C60.025,12.947,61.533,14.454,61.533,16.312"/>
<path fill="#36A0A9" d="M72.004,16.312c0,1.859-1.506,3.365-3.365,3.365c-1.857,0-3.365-1.506-3.365-3.365
	c0-1.858,1.508-3.365,3.365-3.365C70.498,12.947,72.004,14.454,72.004,16.312"/>
<path fill="#36A0A9" d="M82.476,16.312c0,1.859-1.509,3.365-3.365,3.365c-1.86,0-3.365-1.506-3.365-3.365
	c0-1.858,1.505-3.365,3.365-3.365C80.967,12.947,82.476,14.454,82.476,16.312"/>
<path fill="#36A0A9" d="M92.946,16.312c0,1.858-1.507,3.365-3.365,3.365s-3.364-1.507-3.364-3.365c0-1.858,1.506-3.365,3.364-3.365
	S92.946,14.454,92.946,16.312"/>
<path fill="#36A0A9" d="M103.418,16.312c0,1.859-1.508,3.365-3.365,3.365c-1.859,0-3.365-1.506-3.365-3.365
	c0-1.858,1.506-3.365,3.365-3.365C101.91,12.947,103.418,14.454,103.418,16.312"/>
<path fill="#36A0A9" d="M113.89,16.312c0,1.859-1.509,3.365-3.365,3.365c-1.86,0-3.365-1.506-3.365-3.365
	c0-1.858,1.505-3.365,3.365-3.365C112.381,12.947,113.89,14.454,113.89,16.312"/>
<path fill="#36A0A9" d="M124.361,16.312c0,1.858-1.508,3.365-3.365,3.365c-1.859,0-3.365-1.507-3.365-3.365
	c0-1.858,1.506-3.365,3.365-3.365C122.854,12.947,124.361,14.454,124.361,16.312"/>
<path fill="#36A0A9" d="M134.832,16.312c0,1.859-1.507,3.365-3.365,3.365s-3.365-1.506-3.365-3.365c0-1.858,1.507-3.365,3.365-3.365
	S134.832,14.454,134.832,16.312"/>
<path fill="#36A0A9" d="M145.304,16.312c0,1.859-1.508,3.365-3.365,3.365c-1.859,0-3.365-1.506-3.365-3.365
	c0-1.858,1.506-3.365,3.365-3.365C143.796,12.947,145.304,14.454,145.304,16.312"/>
<path fill="#36A0A9" d="M155.774,16.312c0,1.858-1.507,3.365-3.365,3.365s-3.364-1.507-3.364-3.365c0-1.858,1.506-3.365,3.364-3.365
	S155.774,14.454,155.774,16.312"/>
<path fill="#36A0A9" d="M166.246,16.312c0,1.859-1.507,3.365-3.365,3.365s-3.365-1.506-3.365-3.365c0-1.858,1.507-3.365,3.365-3.365
	S166.246,14.454,166.246,16.312"/>
<path fill="#36A0A9" d="M176.717,16.312c0,1.859-1.508,3.365-3.365,3.365c-1.859,0-3.365-1.506-3.365-3.365
	c0-1.858,1.506-3.365,3.365-3.365C175.209,12.947,176.717,14.454,176.717,16.312"/>
<path fill="#36A0A9" d="M187.188,16.312c0,1.858-1.506,3.365-3.365,3.365c-1.857,0-3.363-1.507-3.363-3.365
	c0-1.858,1.506-3.365,3.363-3.365C185.682,12.947,187.188,14.454,187.188,16.312"/>
<path fill="#36A0A9" d="M197.66,16.312c0,1.859-1.507,3.365-3.365,3.365s-3.365-1.506-3.365-3.365c0-1.858,1.507-3.365,3.365-3.365
	S197.66,14.454,197.66,16.312"/>
<path fill="#36A0A9" d="M208.131,16.312c0,1.859-1.509,3.365-3.365,3.365c-1.86,0-3.365-1.506-3.365-3.365
	c0-1.858,1.505-3.365,3.365-3.365C206.622,12.947,208.131,14.454,208.131,16.312"/>
<path fill="#36A0A9" d="M218.602,16.312c0,1.858-1.507,3.365-3.365,3.365s-3.364-1.507-3.364-3.365c0-1.858,1.506-3.365,3.364-3.365
	S218.602,14.454,218.602,16.312"/>
<path fill="#36A0A9" d="M229.073,16.312c0,1.859-1.507,3.365-3.365,3.365s-3.365-1.506-3.365-3.365c0-1.858,1.507-3.365,3.365-3.365
	S229.073,14.454,229.073,16.312"/>
<path fill="#36A0A9" d="M239.545,16.312c0,1.859-1.509,3.365-3.365,3.365c-1.86,0-3.365-1.506-3.365-3.365
	c0-1.858,1.505-3.365,3.365-3.365C238.036,12.947,239.545,14.454,239.545,16.312"/>
<path fill="#36A0A9" d="M9.177,25.812c0,1.859-1.507,3.365-3.365,3.365s-3.365-1.506-3.365-3.365c0-1.858,1.507-3.365,3.365-3.365
	S9.177,23.954,9.177,25.812"/>
<path fill="#36A0A9" d="M19.648,25.812c0,1.859-1.509,3.365-3.365,3.365c-1.86,0-3.365-1.506-3.365-3.365
	c0-1.858,1.505-3.365,3.365-3.365C18.14,22.447,19.648,23.954,19.648,25.812"/>
<path fill="#36A0A9" d="M30.119,25.812c0,1.858-1.507,3.365-3.365,3.365s-3.364-1.507-3.364-3.365c0-1.858,1.506-3.365,3.364-3.365
	S30.119,23.954,30.119,25.812"/>
<path fill="#36A0A9" d="M40.591,25.812c0,1.859-1.507,3.365-3.365,3.365s-3.365-1.506-3.365-3.365c0-1.858,1.507-3.365,3.365-3.365
	S40.591,23.954,40.591,25.812"/>
<path fill="#36A0A9" d="M51.062,25.812c0,1.859-1.509,3.365-3.365,3.365c-1.86,0-3.365-1.506-3.365-3.365
	c0-1.858,1.505-3.365,3.365-3.365C49.553,22.447,51.062,23.954,51.062,25.812"/>
<path fill="#36A0A9" d="M61.533,25.812c0,1.858-1.508,3.365-3.365,3.365c-1.859,0-3.365-1.507-3.365-3.365
	c0-1.858,1.506-3.365,3.365-3.365C60.025,22.447,61.533,23.954,61.533,25.812"/>
<path fill="#36A0A9" d="M72.004,25.812c0,1.859-1.506,3.365-3.365,3.365c-1.857,0-3.365-1.506-3.365-3.365
	c0-1.858,1.508-3.365,3.365-3.365C70.498,22.447,72.004,23.954,72.004,25.812"/>
<path fill="#36A0A9" d="M82.476,25.812c0,1.859-1.509,3.365-3.365,3.365c-1.86,0-3.365-1.506-3.365-3.365
	c0-1.858,1.505-3.365,3.365-3.365C80.967,22.447,82.476,23.954,82.476,25.812"/>
<path fill="#36A0A9" d="M92.946,25.812c0,1.858-1.507,3.365-3.365,3.365s-3.364-1.507-3.364-3.365c0-1.858,1.506-3.365,3.364-3.365
	S92.946,23.954,92.946,25.812"/>
<path fill="#36A0A9" d="M103.418,25.812c0,1.859-1.508,3.365-3.365,3.365c-1.859,0-3.365-1.506-3.365-3.365
	c0-1.858,1.506-3.365,3.365-3.365C101.91,22.447,103.418,23.954,103.418,25.812"/>
<path fill="#36A0A9" d="M113.89,25.812c0,1.859-1.509,3.365-3.365,3.365c-1.86,0-3.365-1.506-3.365-3.365
	c0-1.858,1.505-3.365,3.365-3.365C112.381,22.447,113.89,23.954,113.89,25.812"/>
<path fill="#36A0A9" d="M124.361,25.812c0,1.858-1.508,3.365-3.365,3.365c-1.859,0-3.365-1.507-3.365-3.365
	c0-1.858,1.506-3.365,3.365-3.365C122.854,22.447,124.361,23.954,124.361,25.812"/>
<path fill="#36A0A9" d="M134.832,25.812c0,1.859-1.507,3.365-3.365,3.365s-3.365-1.506-3.365-3.365c0-1.858,1.507-3.365,3.365-3.365
	S134.832,23.954,134.832,25.812"/>
<path fill="#36A0A9" d="M145.304,25.812c0,1.859-1.508,3.365-3.365,3.365c-1.859,0-3.365-1.506-3.365-3.365
	c0-1.858,1.506-3.365,3.365-3.365C143.796,22.447,145.304,23.954,145.304,25.812"/>
<path fill="#36A0A9" d="M155.774,25.812c0,1.858-1.507,3.365-3.365,3.365s-3.364-1.507-3.364-3.365c0-1.858,1.506-3.365,3.364-3.365
	S155.774,23.954,155.774,25.812"/>
<path fill="#36A0A9" d="M166.246,25.812c0,1.859-1.507,3.365-3.365,3.365s-3.365-1.506-3.365-3.365c0-1.858,1.507-3.365,3.365-3.365
	S166.246,23.954,166.246,25.812"/>
<path fill="#36A0A9" d="M176.717,25.812c0,1.859-1.508,3.365-3.365,3.365c-1.859,0-3.365-1.506-3.365-3.365
	c0-1.858,1.506-3.365,3.365-3.365C175.209,22.447,176.717,23.954,176.717,25.812"/>
<path fill="#36A0A9" d="M187.188,25.812c0,1.858-1.506,3.365-3.365,3.365c-1.857,0-3.363-1.507-3.363-3.365
	c0-1.858,1.506-3.365,3.363-3.365C185.682,22.447,187.188,23.954,187.188,25.812"/>
<path fill="#36A0A9" d="M197.66,25.812c0,1.859-1.507,3.365-3.365,3.365s-3.365-1.506-3.365-3.365c0-1.858,1.507-3.365,3.365-3.365
	S197.66,23.954,197.66,25.812"/>
<path fill="#36A0A9" d="M208.131,25.812c0,1.859-1.509,3.365-3.365,3.365c-1.86,0-3.365-1.506-3.365-3.365
	c0-1.858,1.505-3.365,3.365-3.365C206.622,22.447,208.131,23.954,208.131,25.812"/>
<path fill="#36A0A9" d="M218.602,25.812c0,1.858-1.507,3.365-3.365,3.365s-3.364-1.507-3.364-3.365c0-1.858,1.506-3.365,3.364-3.365
	S218.602,23.954,218.602,25.812"/>
<path fill="#36A0A9" d="M229.073,25.812c0,1.859-1.507,3.365-3.365,3.365s-3.365-1.506-3.365-3.365c0-1.858,1.507-3.365,3.365-3.365
	S229.073,23.954,229.073,25.812"/>
<path fill="#36A0A9" d="M239.545,25.812c0,1.859-1.509,3.365-3.365,3.365c-1.86,0-3.365-1.506-3.365-3.365
	c0-1.858,1.505-3.365,3.365-3.365C238.036,22.447,239.545,23.954,239.545,25.812"/>
<path fill="#36A0A9" d="M9.177,35.062c0,1.859-1.507,3.365-3.365,3.365s-3.365-1.506-3.365-3.365c0-1.858,1.507-3.365,3.365-3.365
	S9.177,33.204,9.177,35.062"/>
<path fill="#36A0A9" d="M19.648,35.062c0,1.859-1.509,3.365-3.365,3.365c-1.86,0-3.365-1.506-3.365-3.365
	c0-1.858,1.505-3.365,3.365-3.365C18.14,31.697,19.648,33.204,19.648,35.062"/>
<path fill="#36A0A9" d="M30.119,35.062c0,1.858-1.507,3.365-3.365,3.365s-3.364-1.507-3.364-3.365c0-1.858,1.506-3.365,3.364-3.365
	S30.119,33.204,30.119,35.062"/>
<path fill="#36A0A9" d="M40.591,35.062c0,1.859-1.507,3.365-3.365,3.365s-3.365-1.506-3.365-3.365c0-1.858,1.507-3.365,3.365-3.365
	S40.591,33.204,40.591,35.062"/>
<path fill="#36A0A9" d="M51.062,35.062c0,1.859-1.509,3.365-3.365,3.365c-1.86,0-3.365-1.506-3.365-3.365
	c0-1.858,1.505-3.365,3.365-3.365C49.553,31.697,51.062,33.204,51.062,35.062"/>
<path fill="#36A0A9" d="M61.533,35.062c0,1.858-1.508,3.365-3.365,3.365c-1.859,0-3.365-1.507-3.365-3.365
	c0-1.858,1.506-3.365,3.365-3.365C60.025,31.697,61.533,33.204,61.533,35.062"/>
<path fill="#36A0A9" d="M72.004,35.062c0,1.859-1.506,3.365-3.365,3.365c-1.857,0-3.365-1.506-3.365-3.365
	c0-1.858,1.508-3.365,3.365-3.365C70.498,31.697,72.004,33.204,72.004,35.062"/>
<path fill="#36A0A9" d="M82.476,35.062c0,1.859-1.509,3.365-3.365,3.365c-1.86,0-3.365-1.506-3.365-3.365
	c0-1.858,1.505-3.365,3.365-3.365C80.967,31.697,82.476,33.204,82.476,35.062"/>
<path fill="#36A0A9" d="M92.946,35.062c0,1.858-1.507,3.365-3.365,3.365s-3.364-1.507-3.364-3.365c0-1.858,1.506-3.365,3.364-3.365
	S92.946,33.204,92.946,35.062"/>
<path fill="#36A0A9" d="M103.418,35.062c0,1.859-1.508,3.365-3.365,3.365c-1.859,0-3.365-1.506-3.365-3.365
	c0-1.858,1.506-3.365,3.365-3.365C101.91,31.697,103.418,33.204,103.418,35.062"/>
<path fill="#36A0A9" d="M113.89,35.062c0,1.859-1.509,3.365-3.365,3.365c-1.86,0-3.365-1.506-3.365-3.365
	c0-1.858,1.505-3.365,3.365-3.365C112.381,31.697,113.89,33.204,113.89,35.062"/>
<path fill="#36A0A9" d="M124.361,35.062c0,1.858-1.508,3.365-3.365,3.365c-1.859,0-3.365-1.507-3.365-3.365
	c0-1.858,1.506-3.365,3.365-3.365C122.854,31.697,124.361,33.204,124.361,35.062"/>
<path fill="#36A0A9" d="M134.832,35.062c0,1.859-1.507,3.365-3.365,3.365s-3.365-1.506-3.365-3.365c0-1.858,1.507-3.365,3.365-3.365
	S134.832,33.204,134.832,35.062"/>
<path fill="#36A0A9" d="M145.304,35.062c0,1.859-1.508,3.365-3.365,3.365c-1.859,0-3.365-1.506-3.365-3.365
	c0-1.858,1.506-3.365,3.365-3.365C143.796,31.697,145.304,33.204,145.304,35.062"/>
<path fill="#36A0A9" d="M155.774,35.062c0,1.858-1.507,3.365-3.365,3.365s-3.364-1.507-3.364-3.365c0-1.858,1.506-3.365,3.364-3.365
	S155.774,33.204,155.774,35.062"/>
<path fill="#36A0A9" d="M166.246,35.062c0,1.859-1.507,3.365-3.365,3.365s-3.365-1.506-3.365-3.365c0-1.858,1.507-3.365,3.365-3.365
	S166.246,33.204,166.246,35.062"/>
<path fill="#36A0A9" d="M176.717,35.062c0,1.859-1.508,3.365-3.365,3.365c-1.859,0-3.365-1.506-3.365-3.365
	c0-1.858,1.506-3.365,3.365-3.365C175.209,31.697,176.717,33.204,176.717,35.062"/>
<path fill="#36A0A9" d="M187.188,35.062c0,1.858-1.506,3.365-3.365,3.365c-1.857,0-3.363-1.507-3.363-3.365
	c0-1.858,1.506-3.365,3.363-3.365C185.682,31.697,187.188,33.204,187.188,35.062"/>
<path fill="#36A0A9" d="M197.66,35.062c0,1.859-1.507,3.365-3.365,3.365s-3.365-1.506-3.365-3.365c0-1.858,1.507-3.365,3.365-3.365
	S197.66,33.204,197.66,35.062"/>
<path fill="#36A0A9" d="M208.131,35.062c0,1.859-1.509,3.365-3.365,3.365c-1.86,0-3.365-1.506-3.365-3.365
	c0-1.858,1.505-3.365,3.365-3.365C206.622,31.697,208.131,33.204,208.131,35.062"/>
<path fill="#36A0A9" d="M218.602,35.062c0,1.858-1.507,3.365-3.365,3.365s-3.364-1.507-3.364-3.365c0-1.858,1.506-3.365,3.364-3.365
	S218.602,33.204,218.602,35.062"/>
<path fill="#36A0A9" d="M229.073,35.062c0,1.859-1.507,3.365-3.365,3.365s-3.365-1.506-3.365-3.365c0-1.858,1.507-3.365,3.365-3.365
	S229.073,33.204,229.073,35.062"/>
<path fill="#36A0A9" d="M239.545,35.062c0,1.859-1.509,3.365-3.365,3.365c-1.86,0-3.365-1.506-3.365-3.365
	c0-1.858,1.505-3.365,3.365-3.365C238.036,31.697,239.545,33.204,239.545,35.062"/>
<path fill="#36A0A9" d="M9.177,45.312c0,1.859-1.507,3.365-3.365,3.365s-3.365-1.506-3.365-3.365c0-1.858,1.507-3.365,3.365-3.365
	S9.177,43.454,9.177,45.312"/>
<path fill="#36A0A9" d="M19.648,45.312c0,1.859-1.509,3.365-3.365,3.365c-1.86,0-3.365-1.506-3.365-3.365
	c0-1.858,1.505-3.365,3.365-3.365C18.14,41.947,19.648,43.454,19.648,45.312"/>
<path fill="#36A0A9" d="M30.119,45.312c0,1.858-1.507,3.365-3.365,3.365s-3.364-1.507-3.364-3.365c0-1.858,1.506-3.365,3.364-3.365
	S30.119,43.454,30.119,45.312"/>
<path fill="#36A0A9" d="M40.591,45.312c0,1.859-1.507,3.365-3.365,3.365s-3.365-1.506-3.365-3.365c0-1.858,1.507-3.365,3.365-3.365
	S40.591,43.454,40.591,45.312"/>
<path fill="#36A0A9" d="M51.062,45.312c0,1.859-1.509,3.365-3.365,3.365c-1.86,0-3.365-1.506-3.365-3.365
	c0-1.858,1.505-3.365,3.365-3.365C49.553,41.947,51.062,43.454,51.062,45.312"/>
<path fill="#36A0A9" d="M61.533,45.312c0,1.858-1.508,3.365-3.365,3.365c-1.859,0-3.365-1.507-3.365-3.365
	c0-1.858,1.506-3.365,3.365-3.365C60.025,41.947,61.533,43.454,61.533,45.312"/>
<path fill="#36A0A9" d="M72.004,45.312c0,1.859-1.506,3.365-3.365,3.365c-1.857,0-3.365-1.506-3.365-3.365
	c0-1.858,1.508-3.365,3.365-3.365C70.498,41.947,72.004,43.454,72.004,45.312"/>
<path fill="#36A0A9" d="M82.476,45.312c0,1.859-1.509,3.365-3.365,3.365c-1.86,0-3.365-1.506-3.365-3.365
	c0-1.858,1.505-3.365,3.365-3.365C80.967,41.947,82.476,43.454,82.476,45.312"/>
<path fill="#36A0A9" d="M92.946,45.312c0,1.858-1.507,3.365-3.365,3.365s-3.364-1.507-3.364-3.365c0-1.858,1.506-3.365,3.364-3.365
	S92.946,43.454,92.946,45.312"/>
<path fill="#36A0A9" d="M103.418,45.312c0,1.859-1.508,3.365-3.365,3.365c-1.859,0-3.365-1.506-3.365-3.365
	c0-1.858,1.506-3.365,3.365-3.365C101.91,41.947,103.418,43.454,103.418,45.312"/>
<path fill="#36A0A9" d="M113.89,45.312c0,1.859-1.509,3.365-3.365,3.365c-1.86,0-3.365-1.506-3.365-3.365
	c0-1.858,1.505-3.365,3.365-3.365C112.381,41.947,113.89,43.454,113.89,45.312"/>
<path fill="#36A0A9" d="M124.361,45.312c0,1.858-1.508,3.365-3.365,3.365c-1.859,0-3.365-1.507-3.365-3.365
	c0-1.858,1.506-3.365,3.365-3.365C122.854,41.947,124.361,43.454,124.361,45.312"/>
<path fill="#36A0A9" d="M134.832,45.312c0,1.859-1.507,3.365-3.365,3.365s-3.365-1.506-3.365-3.365c0-1.858,1.507-3.365,3.365-3.365
	S134.832,43.454,134.832,45.312"/>
<path fill="#36A0A9" d="M145.304,45.312c0,1.859-1.508,3.365-3.365,3.365c-1.859,0-3.365-1.506-3.365-3.365
	c0-1.858,1.506-3.365,3.365-3.365C143.796,41.947,145.304,43.454,145.304,45.312"/>
<path fill="#36A0A9" d="M155.774,45.312c0,1.858-1.507,3.365-3.365,3.365s-3.364-1.507-3.364-3.365c0-1.858,1.506-3.365,3.364-3.365
	S155.774,43.454,155.774,45.312"/>
<path fill="#36A0A9" d="M166.246,45.312c0,1.859-1.507,3.365-3.365,3.365s-3.365-1.506-3.365-3.365c0-1.858,1.507-3.365,3.365-3.365
	S166.246,43.454,166.246,45.312"/>
<path fill="#36A0A9" d="M176.717,45.312c0,1.859-1.508,3.365-3.365,3.365c-1.859,0-3.365-1.506-3.365-3.365
	c0-1.858,1.506-3.365,3.365-3.365C175.209,41.947,176.717,43.454,176.717,45.312"/>
<path fill="#36A0A9" d="M187.188,45.312c0,1.858-1.506,3.365-3.365,3.365c-1.857,0-3.363-1.507-3.363-3.365
	c0-1.858,1.506-3.365,3.363-3.365C185.682,41.947,187.188,43.454,187.188,45.312"/>
<path fill="#36A0A9" d="M197.66,45.312c0,1.859-1.507,3.365-3.365,3.365s-3.365-1.506-3.365-3.365c0-1.858,1.507-3.365,3.365-3.365
	S197.66,43.454,197.66,45.312"/>
<path fill="#36A0A9" d="M208.131,45.312c0,1.859-1.509,3.365-3.365,3.365c-1.86,0-3.365-1.506-3.365-3.365
	c0-1.858,1.505-3.365,3.365-3.365C206.622,41.947,208.131,43.454,208.131,45.312"/>
<path fill="#36A0A9" d="M218.602,45.312c0,1.858-1.507,3.365-3.365,3.365s-3.364-1.507-3.364-3.365c0-1.858,1.506-3.365,3.364-3.365
	S218.602,43.454,218.602,45.312"/>
<path fill="#36A0A9" d="M229.073,45.312c0,1.859-1.507,3.365-3.365,3.365s-3.365-1.506-3.365-3.365c0-1.858,1.507-3.365,3.365-3.365
	S229.073,43.454,229.073,45.312"/>
<path fill="#36A0A9" d="M239.545,45.312c0,1.859-1.509,3.365-3.365,3.365c-1.86,0-3.365-1.506-3.365-3.365
	c0-1.858,1.505-3.365,3.365-3.365C238.036,41.947,239.545,43.454,239.545,45.312"/>
<path fill="#36A0A9" d="M9.177,55.812c0,1.859-1.507,3.365-3.365,3.365s-3.365-1.506-3.365-3.365c0-1.858,1.507-3.365,3.365-3.365
	S9.177,53.954,9.177,55.812"/>
<path fill="#36A0A9" d="M19.648,55.812c0,1.859-1.509,3.365-3.365,3.365c-1.86,0-3.365-1.506-3.365-3.365
	c0-1.858,1.505-3.365,3.365-3.365C18.14,52.447,19.648,53.954,19.648,55.812"/>
<path fill="#36A0A9" d="M30.119,55.812c0,1.858-1.507,3.365-3.365,3.365s-3.364-1.507-3.364-3.365c0-1.858,1.506-3.365,3.364-3.365
	S30.119,53.954,30.119,55.812"/>
<path fill="#36A0A9" d="M40.591,55.812c0,1.859-1.507,3.365-3.365,3.365s-3.365-1.506-3.365-3.365c0-1.858,1.507-3.365,3.365-3.365
	S40.591,53.954,40.591,55.812"/>
<path fill="#36A0A9" d="M51.062,55.812c0,1.859-1.509,3.365-3.365,3.365c-1.86,0-3.365-1.506-3.365-3.365
	c0-1.858,1.505-3.365,3.365-3.365C49.553,52.447,51.062,53.954,51.062,55.812"/>
<path fill="#36A0A9" d="M61.533,55.812c0,1.858-1.508,3.365-3.365,3.365c-1.859,0-3.365-1.507-3.365-3.365
	c0-1.858,1.506-3.365,3.365-3.365C60.025,52.447,61.533,53.954,61.533,55.812"/>
<path fill="#36A0A9" d="M72.004,55.812c0,1.859-1.506,3.365-3.365,3.365c-1.857,0-3.365-1.506-3.365-3.365
	c0-1.858,1.508-3.365,3.365-3.365C70.498,52.447,72.004,53.954,72.004,55.812"/>
<path fill="#36A0A9" d="M82.476,55.812c0,1.859-1.509,3.365-3.365,3.365c-1.86,0-3.365-1.506-3.365-3.365
	c0-1.858,1.505-3.365,3.365-3.365C80.967,52.447,82.476,53.954,82.476,55.812"/>
<path fill="#36A0A9" d="M92.946,55.812c0,1.858-1.507,3.365-3.365,3.365s-3.364-1.507-3.364-3.365c0-1.858,1.506-3.365,3.364-3.365
	S92.946,53.954,92.946,55.812"/>
<path fill="#36A0A9" d="M103.418,55.812c0,1.859-1.508,3.365-3.365,3.365c-1.859,0-3.365-1.506-3.365-3.365
	c0-1.858,1.506-3.365,3.365-3.365C101.91,52.447,103.418,53.954,103.418,55.812"/>
<path fill="#36A0A9" d="M113.89,55.812c0,1.859-1.509,3.365-3.365,3.365c-1.86,0-3.365-1.506-3.365-3.365
	c0-1.858,1.505-3.365,3.365-3.365C112.381,52.447,113.89,53.954,113.89,55.812"/>
<path fill="#36A0A9" d="M124.361,55.812c0,1.858-1.508,3.365-3.365,3.365c-1.859,0-3.365-1.507-3.365-3.365
	c0-1.858,1.506-3.365,3.365-3.365C122.854,52.447,124.361,53.954,124.361,55.812"/>
<path fill="#36A0A9" d="M134.832,55.812c0,1.859-1.507,3.365-3.365,3.365s-3.365-1.506-3.365-3.365c0-1.858,1.507-3.365,3.365-3.365
	S134.832,53.954,134.832,55.812"/>
<path fill="#36A0A9" d="M145.304,55.812c0,1.859-1.508,3.365-3.365,3.365c-1.859,0-3.365-1.506-3.365-3.365
	c0-1.858,1.506-3.365,3.365-3.365C143.796,52.447,145.304,53.954,145.304,55.812"/>
<path fill="#36A0A9" d="M155.774,55.812c0,1.858-1.507,3.365-3.365,3.365s-3.364-1.507-3.364-3.365c0-1.858,1.506-3.365,3.364-3.365
	S155.774,53.954,155.774,55.812"/>
<path fill="#36A0A9" d="M166.246,55.812c0,1.859-1.507,3.365-3.365,3.365s-3.365-1.506-3.365-3.365c0-1.858,1.507-3.365,3.365-3.365
	S166.246,53.954,166.246,55.812"/>
<path fill="#36A0A9" d="M176.717,55.812c0,1.859-1.508,3.365-3.365,3.365c-1.859,0-3.365-1.506-3.365-3.365
	c0-1.858,1.506-3.365,3.365-3.365C175.209,52.447,176.717,53.954,176.717,55.812"/>
<path fill="#36A0A9" d="M187.188,55.812c0,1.858-1.506,3.365-3.365,3.365c-1.857,0-3.363-1.507-3.363-3.365
	c0-1.858,1.506-3.365,3.363-3.365C185.682,52.447,187.188,53.954,187.188,55.812"/>
<path fill="#36A0A9" d="M197.66,55.812c0,1.859-1.507,3.365-3.365,3.365s-3.365-1.506-3.365-3.365c0-1.858,1.507-3.365,3.365-3.365
	S197.66,53.954,197.66,55.812"/>
<path fill="#36A0A9" d="M208.131,55.812c0,1.859-1.509,3.365-3.365,3.365c-1.86,0-3.365-1.506-3.365-3.365
	c0-1.858,1.505-3.365,3.365-3.365C206.622,52.447,208.131,53.954,208.131,55.812"/>
<path fill="#36A0A9" d="M218.602,55.812c0,1.858-1.507,3.365-3.365,3.365s-3.364-1.507-3.364-3.365c0-1.858,1.506-3.365,3.364-3.365
	S218.602,53.954,218.602,55.812"/>
<path fill="#36A0A9" d="M229.073,55.812c0,1.859-1.507,3.365-3.365,3.365s-3.365-1.506-3.365-3.365c0-1.858,1.507-3.365,3.365-3.365
	S229.073,53.954,229.073,55.812"/>
<path fill="#36A0A9" d="M239.545,55.812c0,1.859-1.509,3.365-3.365,3.365c-1.86,0-3.365-1.506-3.365-3.365
	c0-1.858,1.505-3.365,3.365-3.365C238.036,52.447,239.545,53.954,239.545,55.812"/>
<path fill="#36A0A9" d="M9.177,65.312c0,1.859-1.507,3.365-3.365,3.365s-3.365-1.506-3.365-3.365c0-1.858,1.507-3.365,3.365-3.365
	S9.177,63.454,9.177,65.312"/>
<path fill="#36A0A9" d="M19.648,65.312c0,1.859-1.509,3.365-3.365,3.365c-1.86,0-3.365-1.506-3.365-3.365
	c0-1.858,1.505-3.365,3.365-3.365C18.14,61.947,19.648,63.454,19.648,65.312"/>
<path fill="#36A0A9" d="M30.119,65.312c0,1.858-1.507,3.365-3.365,3.365s-3.364-1.507-3.364-3.365c0-1.858,1.506-3.365,3.364-3.365
	S30.119,63.454,30.119,65.312"/>
<path fill="#36A0A9" d="M40.591,65.312c0,1.859-1.507,3.365-3.365,3.365s-3.365-1.506-3.365-3.365c0-1.858,1.507-3.365,3.365-3.365
	S40.591,63.454,40.591,65.312"/>
<path fill="#36A0A9" d="M51.062,65.312c0,1.859-1.509,3.365-3.365,3.365c-1.86,0-3.365-1.506-3.365-3.365
	c0-1.858,1.505-3.365,3.365-3.365C49.553,61.947,51.062,63.454,51.062,65.312"/>
<path fill="#36A0A9" d="M61.533,65.312c0,1.858-1.508,3.365-3.365,3.365c-1.859,0-3.365-1.507-3.365-3.365
	c0-1.858,1.506-3.365,3.365-3.365C60.025,61.947,61.533,63.454,61.533,65.312"/>
<path fill="#36A0A9" d="M72.004,65.312c0,1.859-1.506,3.365-3.365,3.365c-1.857,0-3.365-1.506-3.365-3.365
	c0-1.858,1.508-3.365,3.365-3.365C70.498,61.947,72.004,63.454,72.004,65.312"/>
<path fill="#36A0A9" d="M82.476,65.312c0,1.859-1.509,3.365-3.365,3.365c-1.86,0-3.365-1.506-3.365-3.365
	c0-1.858,1.505-3.365,3.365-3.365C80.967,61.947,82.476,63.454,82.476,65.312"/>
<path fill="#36A0A9" d="M92.946,65.312c0,1.858-1.507,3.365-3.365,3.365s-3.364-1.507-3.364-3.365c0-1.858,1.506-3.365,3.364-3.365
	S92.946,63.454,92.946,65.312"/>
<path fill="#36A0A9" d="M103.418,65.312c0,1.859-1.508,3.365-3.365,3.365c-1.859,0-3.365-1.506-3.365-3.365
	c0-1.858,1.506-3.365,3.365-3.365C101.91,61.947,103.418,63.454,103.418,65.312"/>
<path fill="#36A0A9" d="M113.89,65.312c0,1.859-1.509,3.365-3.365,3.365c-1.86,0-3.365-1.506-3.365-3.365
	c0-1.858,1.505-3.365,3.365-3.365C112.381,61.947,113.89,63.454,113.89,65.312"/>
<path fill="#36A0A9" d="M124.361,65.312c0,1.858-1.508,3.365-3.365,3.365c-1.859,0-3.365-1.507-3.365-3.365
	c0-1.858,1.506-3.365,3.365-3.365C122.854,61.947,124.361,63.454,124.361,65.312"/>
<path fill="#36A0A9" d="M134.832,65.312c0,1.859-1.507,3.365-3.365,3.365s-3.365-1.506-3.365-3.365c0-1.858,1.507-3.365,3.365-3.365
	S134.832,63.454,134.832,65.312"/>
<path fill="#36A0A9" d="M145.304,65.312c0,1.859-1.508,3.365-3.365,3.365c-1.859,0-3.365-1.506-3.365-3.365
	c0-1.858,1.506-3.365,3.365-3.365C143.796,61.947,145.304,63.454,145.304,65.312"/>
<path fill="#36A0A9" d="M155.774,65.312c0,1.858-1.507,3.365-3.365,3.365s-3.364-1.507-3.364-3.365c0-1.858,1.506-3.365,3.364-3.365
	S155.774,63.454,155.774,65.312"/>
<path fill="#36A0A9" d="M166.246,65.312c0,1.859-1.507,3.365-3.365,3.365s-3.365-1.506-3.365-3.365c0-1.858,1.507-3.365,3.365-3.365
	S166.246,63.454,166.246,65.312"/>
<path fill="#36A0A9" d="M176.717,65.312c0,1.859-1.508,3.365-3.365,3.365c-1.859,0-3.365-1.506-3.365-3.365
	c0-1.858,1.506-3.365,3.365-3.365C175.209,61.947,176.717,63.454,176.717,65.312"/>
<path fill="#36A0A9" d="M187.188,65.312c0,1.858-1.506,3.365-3.365,3.365c-1.857,0-3.363-1.507-3.363-3.365
	c0-1.858,1.506-3.365,3.363-3.365C185.682,61.947,187.188,63.454,187.188,65.312"/>
<path fill="#36A0A9" d="M197.66,65.312c0,1.859-1.507,3.365-3.365,3.365s-3.365-1.506-3.365-3.365c0-1.858,1.507-3.365,3.365-3.365
	S197.66,63.454,197.66,65.312"/>
<path fill="#36A0A9" d="M208.131,65.312c0,1.859-1.509,3.365-3.365,3.365c-1.86,0-3.365-1.506-3.365-3.365
	c0-1.858,1.505-3.365,3.365-3.365C206.622,61.947,208.131,63.454,208.131,65.312"/>
<path fill="#36A0A9" d="M218.602,65.312c0,1.858-1.507,3.365-3.365,3.365s-3.364-1.507-3.364-3.365c0-1.858,1.506-3.365,3.364-3.365
	S218.602,63.454,218.602,65.312"/>
<path fill="#36A0A9" d="M229.073,65.312c0,1.859-1.507,3.365-3.365,3.365s-3.365-1.506-3.365-3.365c0-1.858,1.507-3.365,3.365-3.365
	S229.073,63.454,229.073,65.312"/>
<path fill="#36A0A9" d="M239.545,65.312c0,1.859-1.509,3.365-3.365,3.365c-1.86,0-3.365-1.506-3.365-3.365
	c0-1.858,1.505-3.365,3.365-3.365C238.036,61.947,239.545,63.454,239.545,65.312"/>
<path fill="#36A0A9" d="M9.177,74.562c0,1.859-1.507,3.365-3.365,3.365s-3.365-1.506-3.365-3.365c0-1.858,1.507-3.365,3.365-3.365
	S9.177,72.704,9.177,74.562"/>
<path fill="#36A0A9" d="M19.648,74.562c0,1.859-1.509,3.365-3.365,3.365c-1.86,0-3.365-1.506-3.365-3.365
	c0-1.858,1.505-3.365,3.365-3.365C18.14,71.197,19.648,72.704,19.648,74.562"/>
<path fill="#36A0A9" d="M30.119,74.562c0,1.858-1.507,3.365-3.365,3.365s-3.364-1.507-3.364-3.365c0-1.858,1.506-3.365,3.364-3.365
	S30.119,72.704,30.119,74.562"/>
<path fill="#36A0A9" d="M40.591,74.562c0,1.859-1.507,3.365-3.365,3.365s-3.365-1.506-3.365-3.365c0-1.858,1.507-3.365,3.365-3.365
	S40.591,72.704,40.591,74.562"/>
<path fill="#36A0A9" d="M51.062,74.562c0,1.859-1.509,3.365-3.365,3.365c-1.86,0-3.365-1.506-3.365-3.365
	c0-1.858,1.505-3.365,3.365-3.365C49.553,71.197,51.062,72.704,51.062,74.562"/>
<path fill="#36A0A9" d="M61.533,74.562c0,1.858-1.508,3.365-3.365,3.365c-1.859,0-3.365-1.507-3.365-3.365
	c0-1.858,1.506-3.365,3.365-3.365C60.025,71.197,61.533,72.704,61.533,74.562"/>
<path fill="#36A0A9" d="M72.004,74.562c0,1.859-1.506,3.365-3.365,3.365c-1.857,0-3.365-1.506-3.365-3.365
	c0-1.858,1.508-3.365,3.365-3.365C70.498,71.197,72.004,72.704,72.004,74.562"/>
<path fill="#36A0A9" d="M82.476,74.562c0,1.859-1.509,3.365-3.365,3.365c-1.86,0-3.365-1.506-3.365-3.365
	c0-1.858,1.505-3.365,3.365-3.365C80.967,71.197,82.476,72.704,82.476,74.562"/>
<path fill="#36A0A9" d="M92.946,74.562c0,1.858-1.507,3.365-3.365,3.365s-3.364-1.507-3.364-3.365c0-1.858,1.506-3.365,3.364-3.365
	S92.946,72.704,92.946,74.562"/>
<path fill="#36A0A9" d="M103.418,74.562c0,1.859-1.508,3.365-3.365,3.365c-1.859,0-3.365-1.506-3.365-3.365
	c0-1.858,1.506-3.365,3.365-3.365C101.91,71.197,103.418,72.704,103.418,74.562"/>
<path fill="#36A0A9" d="M113.89,74.562c0,1.859-1.509,3.365-3.365,3.365c-1.86,0-3.365-1.506-3.365-3.365
	c0-1.858,1.505-3.365,3.365-3.365C112.381,71.197,113.89,72.704,113.89,74.562"/>
<path fill="#36A0A9" d="M124.361,74.562c0,1.858-1.508,3.365-3.365,3.365c-1.859,0-3.365-1.507-3.365-3.365
	c0-1.858,1.506-3.365,3.365-3.365C122.854,71.197,124.361,72.704,124.361,74.562"/>
<path fill="#36A0A9" d="M134.832,74.562c0,1.859-1.507,3.365-3.365,3.365s-3.365-1.506-3.365-3.365c0-1.858,1.507-3.365,3.365-3.365
	S134.832,72.704,134.832,74.562"/>
<path fill="#36A0A9" d="M145.304,74.562c0,1.859-1.508,3.365-3.365,3.365c-1.859,0-3.365-1.506-3.365-3.365
	c0-1.858,1.506-3.365,3.365-3.365C143.796,71.197,145.304,72.704,145.304,74.562"/>
<path fill="#36A0A9" d="M155.774,74.562c0,1.858-1.507,3.365-3.365,3.365s-3.364-1.507-3.364-3.365c0-1.858,1.506-3.365,3.364-3.365
	S155.774,72.704,155.774,74.562"/>
<path fill="#36A0A9" d="M166.246,74.562c0,1.859-1.507,3.365-3.365,3.365s-3.365-1.506-3.365-3.365c0-1.858,1.507-3.365,3.365-3.365
	S166.246,72.704,166.246,74.562"/>
<path fill="#36A0A9" d="M176.717,74.562c0,1.859-1.508,3.365-3.365,3.365c-1.859,0-3.365-1.506-3.365-3.365
	c0-1.858,1.506-3.365,3.365-3.365C175.209,71.197,176.717,72.704,176.717,74.562"/>
<path fill="#36A0A9" d="M187.188,74.562c0,1.858-1.506,3.365-3.365,3.365c-1.857,0-3.363-1.507-3.363-3.365
	c0-1.858,1.506-3.365,3.363-3.365C185.682,71.197,187.188,72.704,187.188,74.562"/>
<path fill="#36A0A9" d="M197.66,74.562c0,1.859-1.507,3.365-3.365,3.365s-3.365-1.506-3.365-3.365c0-1.858,1.507-3.365,3.365-3.365
	S197.66,72.704,197.66,74.562"/>
<path fill="#36A0A9" d="M208.131,74.562c0,1.859-1.509,3.365-3.365,3.365c-1.86,0-3.365-1.506-3.365-3.365
	c0-1.858,1.505-3.365,3.365-3.365C206.622,71.197,208.131,72.704,208.131,74.562"/>
<path fill="#36A0A9" d="M218.602,74.562c0,1.858-1.507,3.365-3.365,3.365s-3.364-1.507-3.364-3.365c0-1.858,1.506-3.365,3.364-3.365
	S218.602,72.704,218.602,74.562"/>
<path fill="#36A0A9" d="M229.073,74.562c0,1.859-1.507,3.365-3.365,3.365s-3.365-1.506-3.365-3.365c0-1.858,1.507-3.365,3.365-3.365
	S229.073,72.704,229.073,74.562"/>
<path fill="#36A0A9" d="M239.545,74.562c0,1.859-1.509,3.365-3.365,3.365c-1.86,0-3.365-1.506-3.365-3.365
	c0-1.858,1.505-3.365,3.365-3.365C238.036,71.197,239.545,72.704,239.545,74.562"/>
<path fill="#36A0A9" d="M9.177,84.562c0,1.859-1.507,3.365-3.365,3.365s-3.365-1.506-3.365-3.365c0-1.858,1.507-3.365,3.365-3.365
	S9.177,82.704,9.177,84.562"/>
<path fill="#36A0A9" d="M19.648,84.562c0,1.859-1.509,3.365-3.365,3.365c-1.86,0-3.365-1.506-3.365-3.365
	c0-1.858,1.505-3.365,3.365-3.365C18.14,81.197,19.648,82.704,19.648,84.562"/>
<path fill="#36A0A9" d="M30.119,84.562c0,1.858-1.507,3.365-3.365,3.365s-3.364-1.507-3.364-3.365c0-1.858,1.506-3.365,3.364-3.365
	S30.119,82.704,30.119,84.562"/>
<path fill="#36A0A9" d="M40.591,84.562c0,1.859-1.507,3.365-3.365,3.365s-3.365-1.506-3.365-3.365c0-1.858,1.507-3.365,3.365-3.365
	S40.591,82.704,40.591,84.562"/>
<path fill="#36A0A9" d="M51.062,84.562c0,1.859-1.509,3.365-3.365,3.365c-1.86,0-3.365-1.506-3.365-3.365
	c0-1.858,1.505-3.365,3.365-3.365C49.553,81.197,51.062,82.704,51.062,84.562"/>
<path fill="#36A0A9" d="M61.533,84.562c0,1.858-1.508,3.365-3.365,3.365c-1.859,0-3.365-1.507-3.365-3.365
	c0-1.858,1.506-3.365,3.365-3.365C60.025,81.197,61.533,82.704,61.533,84.562"/>
<path fill="#36A0A9" d="M72.004,84.562c0,1.859-1.506,3.365-3.365,3.365c-1.857,0-3.365-1.506-3.365-3.365
	c0-1.858,1.508-3.365,3.365-3.365C70.498,81.197,72.004,82.704,72.004,84.562"/>
<path fill="#36A0A9" d="M82.476,84.562c0,1.859-1.509,3.365-3.365,3.365c-1.86,0-3.365-1.506-3.365-3.365
	c0-1.858,1.505-3.365,3.365-3.365C80.967,81.197,82.476,82.704,82.476,84.562"/>
<path fill="#36A0A9" d="M92.946,84.562c0,1.858-1.507,3.365-3.365,3.365s-3.364-1.507-3.364-3.365c0-1.858,1.506-3.365,3.364-3.365
	S92.946,82.704,92.946,84.562"/>
<path fill="#36A0A9" d="M103.418,84.562c0,1.859-1.508,3.365-3.365,3.365c-1.859,0-3.365-1.506-3.365-3.365
	c0-1.858,1.506-3.365,3.365-3.365C101.91,81.197,103.418,82.704,103.418,84.562"/>
<path fill="#36A0A9" d="M113.89,84.562c0,1.859-1.509,3.365-3.365,3.365c-1.86,0-3.365-1.506-3.365-3.365
	c0-1.858,1.505-3.365,3.365-3.365C112.381,81.197,113.89,82.704,113.89,84.562"/>
<path fill="#36A0A9" d="M124.361,84.562c0,1.858-1.508,3.365-3.365,3.365c-1.859,0-3.365-1.507-3.365-3.365
	c0-1.858,1.506-3.365,3.365-3.365C122.854,81.197,124.361,82.704,124.361,84.562"/>
<path fill="#36A0A9" d="M134.832,84.562c0,1.859-1.507,3.365-3.365,3.365s-3.365-1.506-3.365-3.365c0-1.858,1.507-3.365,3.365-3.365
	S134.832,82.704,134.832,84.562"/>
<path fill="#36A0A9" d="M145.304,84.562c0,1.859-1.508,3.365-3.365,3.365c-1.859,0-3.365-1.506-3.365-3.365
	c0-1.858,1.506-3.365,3.365-3.365C143.796,81.197,145.304,82.704,145.304,84.562"/>
<path fill="#36A0A9" d="M155.774,84.562c0,1.858-1.507,3.365-3.365,3.365s-3.364-1.507-3.364-3.365c0-1.858,1.506-3.365,3.364-3.365
	S155.774,82.704,155.774,84.562"/>
<path fill="#36A0A9" d="M166.246,84.562c0,1.859-1.507,3.365-3.365,3.365s-3.365-1.506-3.365-3.365c0-1.858,1.507-3.365,3.365-3.365
	S166.246,82.704,166.246,84.562"/>
<path fill="#36A0A9" d="M176.717,84.562c0,1.859-1.508,3.365-3.365,3.365c-1.859,0-3.365-1.506-3.365-3.365
	c0-1.858,1.506-3.365,3.365-3.365C175.209,81.197,176.717,82.704,176.717,84.562"/>
<path fill="#36A0A9" d="M187.188,84.562c0,1.858-1.506,3.365-3.365,3.365c-1.857,0-3.363-1.507-3.363-3.365
	c0-1.858,1.506-3.365,3.363-3.365C185.682,81.197,187.188,82.704,187.188,84.562"/>
<path fill="#36A0A9" d="M197.66,84.562c0,1.859-1.507,3.365-3.365,3.365s-3.365-1.506-3.365-3.365c0-1.858,1.507-3.365,3.365-3.365
	S197.66,82.704,197.66,84.562"/>
<path fill="#36A0A9" d="M208.131,84.562c0,1.859-1.509,3.365-3.365,3.365c-1.86,0-3.365-1.506-3.365-3.365
	c0-1.858,1.505-3.365,3.365-3.365C206.622,81.197,208.131,82.704,208.131,84.562"/>
<path fill="#36A0A9" d="M218.602,84.562c0,1.858-1.507,3.365-3.365,3.365s-3.364-1.507-3.364-3.365c0-1.858,1.506-3.365,3.364-3.365
	S218.602,82.704,218.602,84.562"/>
<path fill="#36A0A9" d="M229.073,84.562c0,1.859-1.507,3.365-3.365,3.365s-3.365-1.506-3.365-3.365c0-1.858,1.507-3.365,3.365-3.365
	S229.073,82.704,229.073,84.562"/>
<path fill="#36A0A9" d="M239.545,84.562c0,1.859-1.509,3.365-3.365,3.365c-1.86,0-3.365-1.506-3.365-3.365
	c0-1.858,1.505-3.365,3.365-3.365C238.036,81.197,239.545,82.704,239.545,84.562"/>
<path fill="#36A0A9" d="M9.177,95.062c0,1.859-1.507,3.365-3.365,3.365s-3.365-1.506-3.365-3.365c0-1.858,1.507-3.365,3.365-3.365
	S9.177,93.204,9.177,95.062"/>
<path fill="#36A0A9" d="M19.648,95.062c0,1.859-1.509,3.365-3.365,3.365c-1.86,0-3.365-1.506-3.365-3.365
	c0-1.858,1.505-3.365,3.365-3.365C18.14,91.697,19.648,93.204,19.648,95.062"/>
<path fill="#36A0A9" d="M30.119,95.062c0,1.858-1.507,3.365-3.365,3.365s-3.364-1.507-3.364-3.365c0-1.858,1.506-3.365,3.364-3.365
	S30.119,93.204,30.119,95.062"/>
<path fill="#36A0A9" d="M40.591,95.062c0,1.859-1.507,3.365-3.365,3.365s-3.365-1.506-3.365-3.365c0-1.858,1.507-3.365,3.365-3.365
	S40.591,93.204,40.591,95.062"/>
<path fill="#36A0A9" d="M51.062,95.062c0,1.859-1.509,3.365-3.365,3.365c-1.86,0-3.365-1.506-3.365-3.365
	c0-1.858,1.505-3.365,3.365-3.365C49.553,91.697,51.062,93.204,51.062,95.062"/>
<path fill="#36A0A9" d="M61.533,95.062c0,1.858-1.508,3.365-3.365,3.365c-1.859,0-3.365-1.507-3.365-3.365
	c0-1.858,1.506-3.365,3.365-3.365C60.025,91.697,61.533,93.204,61.533,95.062"/>
<path fill="#36A0A9" d="M72.004,95.062c0,1.859-1.506,3.365-3.365,3.365c-1.857,0-3.365-1.506-3.365-3.365
	c0-1.858,1.508-3.365,3.365-3.365C70.498,91.697,72.004,93.204,72.004,95.062"/>
<path fill="#36A0A9" d="M82.476,95.062c0,1.859-1.509,3.365-3.365,3.365c-1.86,0-3.365-1.506-3.365-3.365
	c0-1.858,1.505-3.365,3.365-3.365C80.967,91.697,82.476,93.204,82.476,95.062"/>
<path fill="#36A0A9" d="M92.946,95.062c0,1.858-1.507,3.365-3.365,3.365s-3.364-1.507-3.364-3.365c0-1.858,1.506-3.365,3.364-3.365
	S92.946,93.204,92.946,95.062"/>
<path fill="#36A0A9" d="M103.418,95.062c0,1.859-1.508,3.365-3.365,3.365c-1.859,0-3.365-1.506-3.365-3.365
	c0-1.858,1.506-3.365,3.365-3.365C101.91,91.697,103.418,93.204,103.418,95.062"/>
<path fill="#36A0A9" d="M113.89,95.062c0,1.859-1.509,3.365-3.365,3.365c-1.86,0-3.365-1.506-3.365-3.365
	c0-1.858,1.505-3.365,3.365-3.365C112.381,91.697,113.89,93.204,113.89,95.062"/>
<path fill="#36A0A9" d="M124.361,95.062c0,1.858-1.508,3.365-3.365,3.365c-1.859,0-3.365-1.507-3.365-3.365
	c0-1.858,1.506-3.365,3.365-3.365C122.854,91.697,124.361,93.204,124.361,95.062"/>
<path fill="#36A0A9" d="M134.832,95.062c0,1.859-1.507,3.365-3.365,3.365s-3.365-1.506-3.365-3.365c0-1.858,1.507-3.365,3.365-3.365
	S134.832,93.204,134.832,95.062"/>
<path fill="#36A0A9" d="M145.304,95.062c0,1.859-1.508,3.365-3.365,3.365c-1.859,0-3.365-1.506-3.365-3.365
	c0-1.858,1.506-3.365,3.365-3.365C143.796,91.697,145.304,93.204,145.304,95.062"/>
<path fill="#36A0A9" d="M155.774,95.062c0,1.858-1.507,3.365-3.365,3.365s-3.364-1.507-3.364-3.365c0-1.858,1.506-3.365,3.364-3.365
	S155.774,93.204,155.774,95.062"/>
<path fill="#36A0A9" d="M166.246,95.062c0,1.859-1.507,3.365-3.365,3.365s-3.365-1.506-3.365-3.365c0-1.858,1.507-3.365,3.365-3.365
	S166.246,93.204,166.246,95.062"/>
<path fill="#36A0A9" d="M176.717,95.062c0,1.859-1.508,3.365-3.365,3.365c-1.859,0-3.365-1.506-3.365-3.365
	c0-1.858,1.506-3.365,3.365-3.365C175.209,91.697,176.717,93.204,176.717,95.062"/>
<path fill="#36A0A9" d="M187.188,95.062c0,1.858-1.506,3.365-3.365,3.365c-1.857,0-3.363-1.507-3.363-3.365
	c0-1.858,1.506-3.365,3.363-3.365C185.682,91.697,187.188,93.204,187.188,95.062"/>
<path fill="#36A0A9" d="M197.66,95.062c0,1.859-1.507,3.365-3.365,3.365s-3.365-1.506-3.365-3.365c0-1.858,1.507-3.365,3.365-3.365
	S197.66,93.204,197.66,95.062"/>
<path fill="#36A0A9" d="M208.131,95.062c0,1.859-1.509,3.365-3.365,3.365c-1.86,0-3.365-1.506-3.365-3.365
	c0-1.858,1.505-3.365,3.365-3.365C206.622,91.697,208.131,93.204,208.131,95.062"/>
<path fill="#36A0A9" d="M218.602,95.062c0,1.858-1.507,3.365-3.365,3.365s-3.364-1.507-3.364-3.365c0-1.858,1.506-3.365,3.364-3.365
	S218.602,93.204,218.602,95.062"/>
<path fill="#36A0A9" d="M229.073,95.062c0,1.859-1.507,3.365-3.365,3.365s-3.365-1.506-3.365-3.365c0-1.858,1.507-3.365,3.365-3.365
	S229.073,93.204,229.073,95.062"/>
<path fill="#36A0A9" d="M239.545,95.062c0,1.859-1.509,3.365-3.365,3.365c-1.86,0-3.365-1.506-3.365-3.365
	c0-1.858,1.505-3.365,3.365-3.365C238.036,91.697,239.545,93.204,239.545,95.062"/>
<path fill="#36A0A9" d="M9.177,104.562c0,1.859-1.507,3.365-3.365,3.365s-3.365-1.506-3.365-3.365c0-1.858,1.507-3.365,3.365-3.365
	S9.177,102.704,9.177,104.562"/>
<path fill="#36A0A9" d="M19.648,104.562c0,1.859-1.509,3.365-3.365,3.365c-1.86,0-3.365-1.506-3.365-3.365
	c0-1.858,1.505-3.365,3.365-3.365C18.14,101.197,19.648,102.704,19.648,104.562"/>
<path fill="#36A0A9" d="M30.119,104.562c0,1.858-1.507,3.365-3.365,3.365s-3.364-1.507-3.364-3.365c0-1.858,1.506-3.365,3.364-3.365
	S30.119,102.704,30.119,104.562"/>
<path fill="#36A0A9" d="M40.591,104.562c0,1.859-1.507,3.365-3.365,3.365s-3.365-1.506-3.365-3.365c0-1.858,1.507-3.365,3.365-3.365
	S40.591,102.704,40.591,104.562"/>
<path fill="#36A0A9" d="M51.062,104.562c0,1.859-1.509,3.365-3.365,3.365c-1.86,0-3.365-1.506-3.365-3.365
	c0-1.858,1.505-3.365,3.365-3.365C49.553,101.197,51.062,102.704,51.062,104.562"/>
<path fill="#36A0A9" d="M61.533,104.562c0,1.858-1.508,3.365-3.365,3.365c-1.859,0-3.365-1.507-3.365-3.365
	c0-1.858,1.506-3.365,3.365-3.365C60.025,101.197,61.533,102.704,61.533,104.562"/>
<path fill="#36A0A9" d="M72.004,104.562c0,1.859-1.506,3.365-3.365,3.365c-1.857,0-3.365-1.506-3.365-3.365
	c0-1.858,1.508-3.365,3.365-3.365C70.498,101.197,72.004,102.704,72.004,104.562"/>
<path fill="#36A0A9" d="M82.476,104.562c0,1.859-1.509,3.365-3.365,3.365c-1.86,0-3.365-1.506-3.365-3.365
	c0-1.858,1.505-3.365,3.365-3.365C80.967,101.197,82.476,102.704,82.476,104.562"/>
<path fill="#36A0A9" d="M92.946,104.562c0,1.858-1.507,3.365-3.365,3.365s-3.364-1.507-3.364-3.365c0-1.858,1.506-3.365,3.364-3.365
	S92.946,102.704,92.946,104.562"/>
<path fill="#36A0A9" d="M103.418,104.562c0,1.859-1.508,3.365-3.365,3.365c-1.859,0-3.365-1.506-3.365-3.365
	c0-1.858,1.506-3.365,3.365-3.365C101.91,101.197,103.418,102.704,103.418,104.562"/>
<path fill="#36A0A9" d="M113.89,104.562c0,1.859-1.509,3.365-3.365,3.365c-1.86,0-3.365-1.506-3.365-3.365
	c0-1.858,1.505-3.365,3.365-3.365C112.381,101.197,113.89,102.704,113.89,104.562"/>
<path fill="#36A0A9" d="M124.361,104.562c0,1.858-1.508,3.365-3.365,3.365c-1.859,0-3.365-1.507-3.365-3.365
	c0-1.858,1.506-3.365,3.365-3.365C122.854,101.197,124.361,102.704,124.361,104.562"/>
<path fill="#36A0A9" d="M134.832,104.562c0,1.859-1.507,3.365-3.365,3.365s-3.365-1.506-3.365-3.365
	c0-1.858,1.507-3.365,3.365-3.365S134.832,102.704,134.832,104.562"/>
<path fill="#36A0A9" d="M145.304,104.562c0,1.859-1.508,3.365-3.365,3.365c-1.859,0-3.365-1.506-3.365-3.365
	c0-1.858,1.506-3.365,3.365-3.365C143.796,101.197,145.304,102.704,145.304,104.562"/>
<path fill="#36A0A9" d="M155.774,104.562c0,1.858-1.507,3.365-3.365,3.365s-3.364-1.507-3.364-3.365
	c0-1.858,1.506-3.365,3.364-3.365S155.774,102.704,155.774,104.562"/>
<path fill="#36A0A9" d="M166.246,104.562c0,1.859-1.507,3.365-3.365,3.365s-3.365-1.506-3.365-3.365
	c0-1.858,1.507-3.365,3.365-3.365S166.246,102.704,166.246,104.562"/>
<path fill="#36A0A9" d="M176.717,104.562c0,1.859-1.508,3.365-3.365,3.365c-1.859,0-3.365-1.506-3.365-3.365
	c0-1.858,1.506-3.365,3.365-3.365C175.209,101.197,176.717,102.704,176.717,104.562"/>
<path fill="#36A0A9" d="M187.188,104.562c0,1.858-1.506,3.365-3.365,3.365c-1.857,0-3.363-1.507-3.363-3.365
	c0-1.858,1.506-3.365,3.363-3.365C185.682,101.197,187.188,102.704,187.188,104.562"/>
<path fill="#36A0A9" d="M197.66,104.562c0,1.859-1.507,3.365-3.365,3.365s-3.365-1.506-3.365-3.365c0-1.858,1.507-3.365,3.365-3.365
	S197.66,102.704,197.66,104.562"/>
<path fill="#36A0A9" d="M208.131,104.562c0,1.859-1.509,3.365-3.365,3.365c-1.86,0-3.365-1.506-3.365-3.365
	c0-1.858,1.505-3.365,3.365-3.365C206.622,101.197,208.131,102.704,208.131,104.562"/>
<path fill="#36A0A9" d="M218.602,104.562c0,1.858-1.507,3.365-3.365,3.365s-3.364-1.507-3.364-3.365
	c0-1.858,1.506-3.365,3.364-3.365S218.602,102.704,218.602,104.562"/>
<path fill="#36A0A9" d="M229.073,104.562c0,1.859-1.507,3.365-3.365,3.365s-3.365-1.506-3.365-3.365
	c0-1.858,1.507-3.365,3.365-3.365S229.073,102.704,229.073,104.562"/>
<path fill="#36A0A9" d="M239.545,104.562c0,1.859-1.509,3.365-3.365,3.365c-1.86,0-3.365-1.506-3.365-3.365
	c0-1.858,1.505-3.365,3.365-3.365C238.036,101.197,239.545,102.704,239.545,104.562"/>
<path fill="#36A0A9" d="M9.177,113.812c0,1.859-1.507,3.365-3.365,3.365s-3.365-1.506-3.365-3.365c0-1.858,1.507-3.365,3.365-3.365
	S9.177,111.954,9.177,113.812"/>
<path fill="#36A0A9" d="M19.648,113.812c0,1.859-1.509,3.365-3.365,3.365c-1.86,0-3.365-1.506-3.365-3.365
	c0-1.858,1.505-3.365,3.365-3.365C18.14,110.447,19.648,111.954,19.648,113.812"/>
<path fill="#36A0A9" d="M30.119,113.812c0,1.858-1.507,3.365-3.365,3.365s-3.364-1.507-3.364-3.365c0-1.858,1.506-3.365,3.364-3.365
	S30.119,111.954,30.119,113.812"/>
<path fill="#36A0A9" d="M40.591,113.812c0,1.859-1.507,3.365-3.365,3.365s-3.365-1.506-3.365-3.365c0-1.858,1.507-3.365,3.365-3.365
	S40.591,111.954,40.591,113.812"/>
<path fill="#36A0A9" d="M51.062,113.812c0,1.859-1.509,3.365-3.365,3.365c-1.86,0-3.365-1.506-3.365-3.365
	c0-1.858,1.505-3.365,3.365-3.365C49.553,110.447,51.062,111.954,51.062,113.812"/>
<path fill="#36A0A9" d="M61.533,113.812c0,1.858-1.508,3.365-3.365,3.365c-1.859,0-3.365-1.507-3.365-3.365
	c0-1.858,1.506-3.365,3.365-3.365C60.025,110.447,61.533,111.954,61.533,113.812"/>
<path fill="#36A0A9" d="M72.004,113.812c0,1.859-1.506,3.365-3.365,3.365c-1.857,0-3.365-1.506-3.365-3.365
	c0-1.858,1.508-3.365,3.365-3.365C70.498,110.447,72.004,111.954,72.004,113.812"/>
<path fill="#36A0A9" d="M82.476,113.812c0,1.859-1.509,3.365-3.365,3.365c-1.86,0-3.365-1.506-3.365-3.365
	c0-1.858,1.505-3.365,3.365-3.365C80.967,110.447,82.476,111.954,82.476,113.812"/>
<path fill="#36A0A9" d="M92.946,113.812c0,1.858-1.507,3.365-3.365,3.365s-3.364-1.507-3.364-3.365c0-1.858,1.506-3.365,3.364-3.365
	S92.946,111.954,92.946,113.812"/>
<path fill="#36A0A9" d="M103.418,113.812c0,1.859-1.508,3.365-3.365,3.365c-1.859,0-3.365-1.506-3.365-3.365
	c0-1.858,1.506-3.365,3.365-3.365C101.91,110.447,103.418,111.954,103.418,113.812"/>
<path fill="#36A0A9" d="M113.89,113.812c0,1.859-1.509,3.365-3.365,3.365c-1.86,0-3.365-1.506-3.365-3.365
	c0-1.858,1.505-3.365,3.365-3.365C112.381,110.447,113.89,111.954,113.89,113.812"/>
<path fill="#36A0A9" d="M124.361,113.812c0,1.858-1.508,3.365-3.365,3.365c-1.859,0-3.365-1.507-3.365-3.365
	c0-1.858,1.506-3.365,3.365-3.365C122.854,110.447,124.361,111.954,124.361,113.812"/>
<path fill="#36A0A9" d="M134.832,113.812c0,1.859-1.507,3.365-3.365,3.365s-3.365-1.506-3.365-3.365
	c0-1.858,1.507-3.365,3.365-3.365S134.832,111.954,134.832,113.812"/>
<path fill="#36A0A9" d="M145.304,113.812c0,1.859-1.508,3.365-3.365,3.365c-1.859,0-3.365-1.506-3.365-3.365
	c0-1.858,1.506-3.365,3.365-3.365C143.796,110.447,145.304,111.954,145.304,113.812"/>
<path fill="#36A0A9" d="M155.774,113.812c0,1.858-1.507,3.365-3.365,3.365s-3.364-1.507-3.364-3.365
	c0-1.858,1.506-3.365,3.364-3.365S155.774,111.954,155.774,113.812"/>
<path fill="#36A0A9" d="M166.246,113.812c0,1.859-1.507,3.365-3.365,3.365s-3.365-1.506-3.365-3.365
	c0-1.858,1.507-3.365,3.365-3.365S166.246,111.954,166.246,113.812"/>
<path fill="#36A0A9" d="M176.717,113.812c0,1.859-1.508,3.365-3.365,3.365c-1.859,0-3.365-1.506-3.365-3.365
	c0-1.858,1.506-3.365,3.365-3.365C175.209,110.447,176.717,111.954,176.717,113.812"/>
<path fill="#36A0A9" d="M187.188,113.812c0,1.858-1.506,3.365-3.365,3.365c-1.857,0-3.363-1.507-3.363-3.365
	c0-1.858,1.506-3.365,3.363-3.365C185.682,110.447,187.188,111.954,187.188,113.812"/>
<path fill="#36A0A9" d="M197.66,113.812c0,1.859-1.507,3.365-3.365,3.365s-3.365-1.506-3.365-3.365c0-1.858,1.507-3.365,3.365-3.365
	S197.66,111.954,197.66,113.812"/>
<path fill="#36A0A9" d="M208.131,113.812c0,1.859-1.509,3.365-3.365,3.365c-1.86,0-3.365-1.506-3.365-3.365
	c0-1.858,1.505-3.365,3.365-3.365C206.622,110.447,208.131,111.954,208.131,113.812"/>
<path fill="#36A0A9" d="M218.602,113.812c0,1.858-1.507,3.365-3.365,3.365s-3.364-1.507-3.364-3.365
	c0-1.858,1.506-3.365,3.364-3.365S218.602,111.954,218.602,113.812"/>
<path fill="#36A0A9" d="M229.073,113.812c0,1.859-1.507,3.365-3.365,3.365s-3.365-1.506-3.365-3.365
	c0-1.858,1.507-3.365,3.365-3.365S229.073,111.954,229.073,113.812"/>
<path fill="#36A0A9" d="M239.545,113.812c0,1.859-1.509,3.365-3.365,3.365c-1.86,0-3.365-1.506-3.365-3.365
	c0-1.858,1.505-3.365,3.365-3.365C238.036,110.447,239.545,111.954,239.545,113.812"/>
<path fill="#36A0A9" d="M9.177,123.562c0,1.859-1.507,3.365-3.365,3.365s-3.365-1.506-3.365-3.365c0-1.858,1.507-3.365,3.365-3.365
	S9.177,121.704,9.177,123.562"/>
<path fill="#36A0A9" d="M19.648,123.562c0,1.859-1.509,3.365-3.365,3.365c-1.86,0-3.365-1.506-3.365-3.365
	c0-1.858,1.505-3.365,3.365-3.365C18.14,120.197,19.648,121.704,19.648,123.562"/>
<path fill="#36A0A9" d="M30.119,123.562c0,1.858-1.507,3.365-3.365,3.365s-3.364-1.507-3.364-3.365c0-1.858,1.506-3.365,3.364-3.365
	S30.119,121.704,30.119,123.562"/>
<path fill="#36A0A9" d="M40.591,123.562c0,1.859-1.507,3.365-3.365,3.365s-3.365-1.506-3.365-3.365c0-1.858,1.507-3.365,3.365-3.365
	S40.591,121.704,40.591,123.562"/>
<path fill="#36A0A9" d="M51.062,123.562c0,1.859-1.509,3.365-3.365,3.365c-1.86,0-3.365-1.506-3.365-3.365
	c0-1.858,1.505-3.365,3.365-3.365C49.553,120.197,51.062,121.704,51.062,123.562"/>
<path fill="#36A0A9" d="M61.533,123.562c0,1.858-1.508,3.365-3.365,3.365c-1.859,0-3.365-1.507-3.365-3.365
	c0-1.858,1.506-3.365,3.365-3.365C60.025,120.197,61.533,121.704,61.533,123.562"/>
<path fill="#36A0A9" d="M72.004,123.562c0,1.859-1.506,3.365-3.365,3.365c-1.857,0-3.365-1.506-3.365-3.365
	c0-1.858,1.508-3.365,3.365-3.365C70.498,120.197,72.004,121.704,72.004,123.562"/>
<path fill="#36A0A9" d="M82.476,123.562c0,1.859-1.509,3.365-3.365,3.365c-1.86,0-3.365-1.506-3.365-3.365
	c0-1.858,1.505-3.365,3.365-3.365C80.967,120.197,82.476,121.704,82.476,123.562"/>
<path fill="#36A0A9" d="M92.946,123.562c0,1.858-1.507,3.365-3.365,3.365s-3.364-1.507-3.364-3.365c0-1.858,1.506-3.365,3.364-3.365
	S92.946,121.704,92.946,123.562"/>
<path fill="#36A0A9" d="M103.418,123.562c0,1.859-1.508,3.365-3.365,3.365c-1.859,0-3.365-1.506-3.365-3.365
	c0-1.858,1.506-3.365,3.365-3.365C101.91,120.197,103.418,121.704,103.418,123.562"/>
<path fill="#36A0A9" d="M113.89,123.562c0,1.859-1.509,3.365-3.365,3.365c-1.86,0-3.365-1.506-3.365-3.365
	c0-1.858,1.505-3.365,3.365-3.365C112.381,120.197,113.89,121.704,113.89,123.562"/>
<path fill="#36A0A9" d="M124.361,123.562c0,1.858-1.508,3.365-3.365,3.365c-1.859,0-3.365-1.507-3.365-3.365
	c0-1.858,1.506-3.365,3.365-3.365C122.854,120.197,124.361,121.704,124.361,123.562"/>
<path fill="#36A0A9" d="M134.832,123.562c0,1.859-1.507,3.365-3.365,3.365s-3.365-1.506-3.365-3.365
	c0-1.858,1.507-3.365,3.365-3.365S134.832,121.704,134.832,123.562"/>
<path fill="#36A0A9" d="M145.304,123.562c0,1.859-1.508,3.365-3.365,3.365c-1.859,0-3.365-1.506-3.365-3.365
	c0-1.858,1.506-3.365,3.365-3.365C143.796,120.197,145.304,121.704,145.304,123.562"/>
<path fill="#36A0A9" d="M155.774,123.562c0,1.858-1.507,3.365-3.365,3.365s-3.364-1.507-3.364-3.365
	c0-1.858,1.506-3.365,3.364-3.365S155.774,121.704,155.774,123.562"/>
<path fill="#36A0A9" d="M166.246,123.562c0,1.859-1.507,3.365-3.365,3.365s-3.365-1.506-3.365-3.365
	c0-1.858,1.507-3.365,3.365-3.365S166.246,121.704,166.246,123.562"/>
<path fill="#36A0A9" d="M176.717,123.562c0,1.859-1.508,3.365-3.365,3.365c-1.859,0-3.365-1.506-3.365-3.365
	c0-1.858,1.506-3.365,3.365-3.365C175.209,120.197,176.717,121.704,176.717,123.562"/>
<path fill="#36A0A9" d="M187.188,123.562c0,1.858-1.506,3.365-3.365,3.365c-1.857,0-3.363-1.507-3.363-3.365
	c0-1.858,1.506-3.365,3.363-3.365C185.682,120.197,187.188,121.704,187.188,123.562"/>
<path fill="#36A0A9" d="M197.66,123.562c0,1.859-1.507,3.365-3.365,3.365s-3.365-1.506-3.365-3.365c0-1.858,1.507-3.365,3.365-3.365
	S197.66,121.704,197.66,123.562"/>
<path fill="#36A0A9" d="M208.131,123.562c0,1.859-1.509,3.365-3.365,3.365c-1.86,0-3.365-1.506-3.365-3.365
	c0-1.858,1.505-3.365,3.365-3.365C206.622,120.197,208.131,121.704,208.131,123.562"/>
<path fill="#36A0A9" d="M218.602,123.562c0,1.858-1.507,3.365-3.365,3.365s-3.364-1.507-3.364-3.365
	c0-1.858,1.506-3.365,3.364-3.365S218.602,121.704,218.602,123.562"/>
<path fill="#36A0A9" d="M229.073,123.562c0,1.859-1.507,3.365-3.365,3.365s-3.365-1.506-3.365-3.365
	c0-1.858,1.507-3.365,3.365-3.365S229.073,121.704,229.073,123.562"/>
<path fill="#36A0A9" d="M239.545,123.562c0,1.859-1.509,3.365-3.365,3.365c-1.86,0-3.365-1.506-3.365-3.365
	c0-1.858,1.505-3.365,3.365-3.365C238.036,120.197,239.545,121.704,239.545,123.562"/>
<path fill="#36A0A9" d="M9.177,134.062c0,1.859-1.507,3.365-3.365,3.365s-3.365-1.506-3.365-3.365c0-1.858,1.507-3.365,3.365-3.365
	S9.177,132.204,9.177,134.062"/>
<path fill="#36A0A9" d="M19.648,134.062c0,1.859-1.509,3.365-3.365,3.365c-1.86,0-3.365-1.506-3.365-3.365
	c0-1.858,1.505-3.365,3.365-3.365C18.14,130.697,19.648,132.204,19.648,134.062"/>
<path fill="#36A0A9" d="M30.119,134.062c0,1.858-1.507,3.365-3.365,3.365s-3.364-1.507-3.364-3.365c0-1.858,1.506-3.365,3.364-3.365
	S30.119,132.204,30.119,134.062"/>
<path fill="#36A0A9" d="M40.591,134.062c0,1.859-1.507,3.365-3.365,3.365s-3.365-1.506-3.365-3.365c0-1.858,1.507-3.365,3.365-3.365
	S40.591,132.204,40.591,134.062"/>
<path fill="#36A0A9" d="M51.062,134.062c0,1.859-1.509,3.365-3.365,3.365c-1.86,0-3.365-1.506-3.365-3.365
	c0-1.858,1.505-3.365,3.365-3.365C49.553,130.697,51.062,132.204,51.062,134.062"/>
<path fill="#36A0A9" d="M61.533,134.062c0,1.858-1.508,3.365-3.365,3.365c-1.859,0-3.365-1.507-3.365-3.365
	c0-1.858,1.506-3.365,3.365-3.365C60.025,130.697,61.533,132.204,61.533,134.062"/>
<path fill="#36A0A9" d="M72.004,134.062c0,1.859-1.506,3.365-3.365,3.365c-1.857,0-3.365-1.506-3.365-3.365
	c0-1.858,1.508-3.365,3.365-3.365C70.498,130.697,72.004,132.204,72.004,134.062"/>
<path fill="#36A0A9" d="M82.476,134.062c0,1.859-1.509,3.365-3.365,3.365c-1.86,0-3.365-1.506-3.365-3.365
	c0-1.858,1.505-3.365,3.365-3.365C80.967,130.697,82.476,132.204,82.476,134.062"/>
<path fill="#36A0A9" d="M92.946,134.062c0,1.858-1.507,3.365-3.365,3.365s-3.364-1.507-3.364-3.365c0-1.858,1.506-3.365,3.364-3.365
	S92.946,132.204,92.946,134.062"/>
<path fill="#36A0A9" d="M103.418,134.062c0,1.859-1.508,3.365-3.365,3.365c-1.859,0-3.365-1.506-3.365-3.365
	c0-1.858,1.506-3.365,3.365-3.365C101.91,130.697,103.418,132.204,103.418,134.062"/>
<path fill="#36A0A9" d="M113.89,134.062c0,1.859-1.509,3.365-3.365,3.365c-1.86,0-3.365-1.506-3.365-3.365
	c0-1.858,1.505-3.365,3.365-3.365C112.381,130.697,113.89,132.204,113.89,134.062"/>
<path fill="#36A0A9" d="M124.361,134.062c0,1.858-1.508,3.365-3.365,3.365c-1.859,0-3.365-1.507-3.365-3.365
	c0-1.858,1.506-3.365,3.365-3.365C122.854,130.697,124.361,132.204,124.361,134.062"/>
<path fill="#36A0A9" d="M134.832,134.062c0,1.859-1.507,3.365-3.365,3.365s-3.365-1.506-3.365-3.365
	c0-1.858,1.507-3.365,3.365-3.365S134.832,132.204,134.832,134.062"/>
<path fill="#36A0A9" d="M145.304,134.062c0,1.859-1.508,3.365-3.365,3.365c-1.859,0-3.365-1.506-3.365-3.365
	c0-1.858,1.506-3.365,3.365-3.365C143.796,130.697,145.304,132.204,145.304,134.062"/>
<path fill="#36A0A9" d="M155.774,134.062c0,1.858-1.507,3.365-3.365,3.365s-3.364-1.507-3.364-3.365
	c0-1.858,1.506-3.365,3.364-3.365S155.774,132.204,155.774,134.062"/>
<path fill="#36A0A9" d="M166.246,134.062c0,1.859-1.507,3.365-3.365,3.365s-3.365-1.506-3.365-3.365
	c0-1.858,1.507-3.365,3.365-3.365S166.246,132.204,166.246,134.062"/>
<path fill="#36A0A9" d="M176.717,134.062c0,1.859-1.508,3.365-3.365,3.365c-1.859,0-3.365-1.506-3.365-3.365
	c0-1.858,1.506-3.365,3.365-3.365C175.209,130.697,176.717,132.204,176.717,134.062"/>
<path fill="#36A0A9" d="M187.188,134.062c0,1.858-1.506,3.365-3.365,3.365c-1.857,0-3.363-1.507-3.363-3.365
	c0-1.858,1.506-3.365,3.363-3.365C185.682,130.697,187.188,132.204,187.188,134.062"/>
<path fill="#36A0A9" d="M197.66,134.062c0,1.859-1.507,3.365-3.365,3.365s-3.365-1.506-3.365-3.365c0-1.858,1.507-3.365,3.365-3.365
	S197.66,132.204,197.66,134.062"/>
<path fill="#36A0A9" d="M208.131,134.062c0,1.859-1.509,3.365-3.365,3.365c-1.86,0-3.365-1.506-3.365-3.365
	c0-1.858,1.505-3.365,3.365-3.365C206.622,130.697,208.131,132.204,208.131,134.062"/>
<path fill="#36A0A9" d="M218.602,134.062c0,1.858-1.507,3.365-3.365,3.365s-3.364-1.507-3.364-3.365
	c0-1.858,1.506-3.365,3.364-3.365S218.602,132.204,218.602,134.062"/>
<path fill="#36A0A9" d="M229.073,134.062c0,1.859-1.507,3.365-3.365,3.365s-3.365-1.506-3.365-3.365
	c0-1.858,1.507-3.365,3.365-3.365S229.073,132.204,229.073,134.062"/>
<path fill="#36A0A9" d="M239.545,134.062c0,1.859-1.509,3.365-3.365,3.365c-1.86,0-3.365-1.506-3.365-3.365
	c0-1.858,1.505-3.365,3.365-3.365C238.036,130.697,239.545,132.204,239.545,134.062"/>
<path fill="#36A0A9" d="M9.177,143.562c0,1.859-1.507,3.365-3.365,3.365s-3.365-1.506-3.365-3.365c0-1.858,1.507-3.365,3.365-3.365
	S9.177,141.704,9.177,143.562"/>
<path fill="#36A0A9" d="M19.648,143.562c0,1.859-1.509,3.365-3.365,3.365c-1.86,0-3.365-1.506-3.365-3.365
	c0-1.858,1.505-3.365,3.365-3.365C18.14,140.197,19.648,141.704,19.648,143.562"/>
<path fill="#36A0A9" d="M30.119,143.562c0,1.858-1.507,3.365-3.365,3.365s-3.364-1.507-3.364-3.365c0-1.858,1.506-3.365,3.364-3.365
	S30.119,141.704,30.119,143.562"/>
<path fill="#36A0A9" d="M40.591,143.562c0,1.859-1.507,3.365-3.365,3.365s-3.365-1.506-3.365-3.365c0-1.858,1.507-3.365,3.365-3.365
	S40.591,141.704,40.591,143.562"/>
<path fill="#36A0A9" d="M51.062,143.562c0,1.859-1.509,3.365-3.365,3.365c-1.86,0-3.365-1.506-3.365-3.365
	c0-1.858,1.505-3.365,3.365-3.365C49.553,140.197,51.062,141.704,51.062,143.562"/>
<path fill="#36A0A9" d="M61.533,143.562c0,1.858-1.508,3.365-3.365,3.365c-1.859,0-3.365-1.507-3.365-3.365
	c0-1.858,1.506-3.365,3.365-3.365C60.025,140.197,61.533,141.704,61.533,143.562"/>
<path fill="#36A0A9" d="M72.004,143.562c0,1.859-1.506,3.365-3.365,3.365c-1.857,0-3.365-1.506-3.365-3.365
	c0-1.858,1.508-3.365,3.365-3.365C70.498,140.197,72.004,141.704,72.004,143.562"/>
<path fill="#36A0A9" d="M82.476,143.562c0,1.859-1.509,3.365-3.365,3.365c-1.86,0-3.365-1.506-3.365-3.365
	c0-1.858,1.505-3.365,3.365-3.365C80.967,140.197,82.476,141.704,82.476,143.562"/>
<path fill="#36A0A9" d="M92.946,143.562c0,1.858-1.507,3.365-3.365,3.365s-3.364-1.507-3.364-3.365c0-1.858,1.506-3.365,3.364-3.365
	S92.946,141.704,92.946,143.562"/>
<path fill="#36A0A9" d="M103.418,143.562c0,1.859-1.508,3.365-3.365,3.365c-1.859,0-3.365-1.506-3.365-3.365
	c0-1.858,1.506-3.365,3.365-3.365C101.91,140.197,103.418,141.704,103.418,143.562"/>
<path fill="#36A0A9" d="M113.89,143.562c0,1.859-1.509,3.365-3.365,3.365c-1.86,0-3.365-1.506-3.365-3.365
	c0-1.858,1.505-3.365,3.365-3.365C112.381,140.197,113.89,141.704,113.89,143.562"/>
<path fill="#36A0A9" d="M124.361,143.562c0,1.858-1.508,3.365-3.365,3.365c-1.859,0-3.365-1.507-3.365-3.365
	c0-1.858,1.506-3.365,3.365-3.365C122.854,140.197,124.361,141.704,124.361,143.562"/>
<path fill="#36A0A9" d="M134.832,143.562c0,1.859-1.507,3.365-3.365,3.365s-3.365-1.506-3.365-3.365
	c0-1.858,1.507-3.365,3.365-3.365S134.832,141.704,134.832,143.562"/>
<path fill="#36A0A9" d="M145.304,143.562c0,1.859-1.508,3.365-3.365,3.365c-1.859,0-3.365-1.506-3.365-3.365
	c0-1.858,1.506-3.365,3.365-3.365C143.796,140.197,145.304,141.704,145.304,143.562"/>
<path fill="#36A0A9" d="M155.774,143.562c0,1.858-1.507,3.365-3.365,3.365s-3.364-1.507-3.364-3.365
	c0-1.858,1.506-3.365,3.364-3.365S155.774,141.704,155.774,143.562"/>
<path fill="#36A0A9" d="M166.246,143.562c0,1.859-1.507,3.365-3.365,3.365s-3.365-1.506-3.365-3.365
	c0-1.858,1.507-3.365,3.365-3.365S166.246,141.704,166.246,143.562"/>
<path fill="#36A0A9" d="M176.717,143.562c0,1.859-1.508,3.365-3.365,3.365c-1.859,0-3.365-1.506-3.365-3.365
	c0-1.858,1.506-3.365,3.365-3.365C175.209,140.197,176.717,141.704,176.717,143.562"/>
<path fill="#36A0A9" d="M187.188,143.562c0,1.858-1.506,3.365-3.365,3.365c-1.857,0-3.363-1.507-3.363-3.365
	c0-1.858,1.506-3.365,3.363-3.365C185.682,140.197,187.188,141.704,187.188,143.562"/>
<path fill="#36A0A9" d="M197.66,143.562c0,1.859-1.507,3.365-3.365,3.365s-3.365-1.506-3.365-3.365c0-1.858,1.507-3.365,3.365-3.365
	S197.66,141.704,197.66,143.562"/>
<path fill="#36A0A9" d="M208.131,143.562c0,1.859-1.509,3.365-3.365,3.365c-1.86,0-3.365-1.506-3.365-3.365
	c0-1.858,1.505-3.365,3.365-3.365C206.622,140.197,208.131,141.704,208.131,143.562"/>
<path fill="#36A0A9" d="M218.602,143.562c0,1.858-1.507,3.365-3.365,3.365s-3.364-1.507-3.364-3.365
	c0-1.858,1.506-3.365,3.364-3.365S218.602,141.704,218.602,143.562"/>
<path fill="#36A0A9" d="M229.073,143.562c0,1.859-1.507,3.365-3.365,3.365s-3.365-1.506-3.365-3.365
	c0-1.858,1.507-3.365,3.365-3.365S229.073,141.704,229.073,143.562"/>
<path fill="#36A0A9" d="M239.545,143.562c0,1.859-1.509,3.365-3.365,3.365c-1.86,0-3.365-1.506-3.365-3.365
	c0-1.858,1.505-3.365,3.365-3.365C238.036,140.197,239.545,141.704,239.545,143.562"/>
<path fill="#36A0A9" d="M9.177,152.812c0,1.859-1.507,3.365-3.365,3.365s-3.365-1.506-3.365-3.365c0-1.858,1.507-3.365,3.365-3.365
	S9.177,150.954,9.177,152.812"/>
<path fill="#36A0A9" d="M19.648,152.812c0,1.859-1.509,3.365-3.365,3.365c-1.86,0-3.365-1.506-3.365-3.365
	c0-1.858,1.505-3.365,3.365-3.365C18.14,149.447,19.648,150.954,19.648,152.812"/>
<path fill="#36A0A9" d="M30.119,152.812c0,1.858-1.507,3.365-3.365,3.365s-3.364-1.507-3.364-3.365c0-1.858,1.506-3.365,3.364-3.365
	S30.119,150.954,30.119,152.812"/>
<path fill="#36A0A9" d="M40.591,152.812c0,1.859-1.507,3.365-3.365,3.365s-3.365-1.506-3.365-3.365c0-1.858,1.507-3.365,3.365-3.365
	S40.591,150.954,40.591,152.812"/>
<path fill="#36A0A9" d="M51.062,152.812c0,1.859-1.509,3.365-3.365,3.365c-1.86,0-3.365-1.506-3.365-3.365
	c0-1.858,1.505-3.365,3.365-3.365C49.553,149.447,51.062,150.954,51.062,152.812"/>
<path fill="#36A0A9" d="M61.533,152.812c0,1.858-1.508,3.365-3.365,3.365c-1.859,0-3.365-1.507-3.365-3.365
	c0-1.858,1.506-3.365,3.365-3.365C60.025,149.447,61.533,150.954,61.533,152.812"/>
<path fill="#36A0A9" d="M72.004,152.812c0,1.859-1.506,3.365-3.365,3.365c-1.857,0-3.365-1.506-3.365-3.365
	c0-1.858,1.508-3.365,3.365-3.365C70.498,149.447,72.004,150.954,72.004,152.812"/>
<path fill="#36A0A9" d="M82.476,152.812c0,1.859-1.509,3.365-3.365,3.365c-1.86,0-3.365-1.506-3.365-3.365
	c0-1.858,1.505-3.365,3.365-3.365C80.967,149.447,82.476,150.954,82.476,152.812"/>
<path fill="#36A0A9" d="M92.946,152.812c0,1.858-1.507,3.365-3.365,3.365s-3.364-1.507-3.364-3.365c0-1.858,1.506-3.365,3.364-3.365
	S92.946,150.954,92.946,152.812"/>
<path fill="#36A0A9" d="M103.418,152.812c0,1.859-1.508,3.365-3.365,3.365c-1.859,0-3.365-1.506-3.365-3.365
	c0-1.858,1.506-3.365,3.365-3.365C101.91,149.447,103.418,150.954,103.418,152.812"/>
<path fill="#36A0A9" d="M113.89,152.812c0,1.859-1.509,3.365-3.365,3.365c-1.86,0-3.365-1.506-3.365-3.365
	c0-1.858,1.505-3.365,3.365-3.365C112.381,149.447,113.89,150.954,113.89,152.812"/>
<path fill="#36A0A9" d="M124.361,152.812c0,1.858-1.508,3.365-3.365,3.365c-1.859,0-3.365-1.507-3.365-3.365
	c0-1.858,1.506-3.365,3.365-3.365C122.854,149.447,124.361,150.954,124.361,152.812"/>
<path fill="#36A0A9" d="M134.832,152.812c0,1.859-1.507,3.365-3.365,3.365s-3.365-1.506-3.365-3.365
	c0-1.858,1.507-3.365,3.365-3.365S134.832,150.954,134.832,152.812"/>
<path fill="#36A0A9" d="M145.304,152.812c0,1.859-1.508,3.365-3.365,3.365c-1.859,0-3.365-1.506-3.365-3.365
	c0-1.858,1.506-3.365,3.365-3.365C143.796,149.447,145.304,150.954,145.304,152.812"/>
<path fill="#36A0A9" d="M155.774,152.812c0,1.858-1.507,3.365-3.365,3.365s-3.364-1.507-3.364-3.365
	c0-1.858,1.506-3.365,3.364-3.365S155.774,150.954,155.774,152.812"/>
<path fill="#36A0A9" d="M166.246,152.812c0,1.859-1.507,3.365-3.365,3.365s-3.365-1.506-3.365-3.365
	c0-1.858,1.507-3.365,3.365-3.365S166.246,150.954,166.246,152.812"/>
<path fill="#36A0A9" d="M176.717,152.812c0,1.859-1.508,3.365-3.365,3.365c-1.859,0-3.365-1.506-3.365-3.365
	c0-1.858,1.506-3.365,3.365-3.365C175.209,149.447,176.717,150.954,176.717,152.812"/>
<path fill="#36A0A9" d="M187.188,152.812c0,1.858-1.506,3.365-3.365,3.365c-1.857,0-3.363-1.507-3.363-3.365
	c0-1.858,1.506-3.365,3.363-3.365C185.682,149.447,187.188,150.954,187.188,152.812"/>
<path fill="#36A0A9" d="M197.66,152.812c0,1.859-1.507,3.365-3.365,3.365s-3.365-1.506-3.365-3.365c0-1.858,1.507-3.365,3.365-3.365
	S197.66,150.954,197.66,152.812"/>
<path fill="#36A0A9" d="M208.131,152.812c0,1.859-1.509,3.365-3.365,3.365c-1.86,0-3.365-1.506-3.365-3.365
	c0-1.858,1.505-3.365,3.365-3.365C206.622,149.447,208.131,150.954,208.131,152.812"/>
<path fill="#36A0A9" d="M218.602,152.812c0,1.858-1.507,3.365-3.365,3.365s-3.364-1.507-3.364-3.365
	c0-1.858,1.506-3.365,3.364-3.365S218.602,150.954,218.602,152.812"/>
<path fill="#36A0A9" d="M229.073,152.812c0,1.859-1.507,3.365-3.365,3.365s-3.365-1.506-3.365-3.365
	c0-1.858,1.507-3.365,3.365-3.365S229.073,150.954,229.073,152.812"/>
<path fill="#36A0A9" d="M239.545,152.812c0,1.859-1.509,3.365-3.365,3.365c-1.86,0-3.365-1.506-3.365-3.365
	c0-1.858,1.505-3.365,3.365-3.365C238.036,149.447,239.545,150.954,239.545,152.812"/>
<path fill="#36A0A9" d="M9.177,162.562c0,1.859-1.507,3.365-3.365,3.365s-3.365-1.506-3.365-3.365c0-1.858,1.507-3.365,3.365-3.365
	S9.177,160.704,9.177,162.562"/>
<path fill="#36A0A9" d="M19.648,162.562c0,1.859-1.509,3.365-3.365,3.365c-1.86,0-3.365-1.506-3.365-3.365
	c0-1.858,1.505-3.365,3.365-3.365C18.14,159.197,19.648,160.704,19.648,162.562"/>
<path fill="#36A0A9" d="M30.119,162.562c0,1.858-1.507,3.365-3.365,3.365s-3.364-1.507-3.364-3.365c0-1.858,1.506-3.365,3.364-3.365
	S30.119,160.704,30.119,162.562"/>
<path fill="#36A0A9" d="M40.591,162.562c0,1.859-1.507,3.365-3.365,3.365s-3.365-1.506-3.365-3.365c0-1.858,1.507-3.365,3.365-3.365
	S40.591,160.704,40.591,162.562"/>
<path fill="#36A0A9" d="M51.062,162.562c0,1.859-1.509,3.365-3.365,3.365c-1.86,0-3.365-1.506-3.365-3.365
	c0-1.858,1.505-3.365,3.365-3.365C49.553,159.197,51.062,160.704,51.062,162.562"/>
<path fill="#36A0A9" d="M61.533,162.562c0,1.858-1.508,3.365-3.365,3.365c-1.859,0-3.365-1.507-3.365-3.365
	c0-1.858,1.506-3.365,3.365-3.365C60.025,159.197,61.533,160.704,61.533,162.562"/>
<path fill="#36A0A9" d="M72.004,162.562c0,1.859-1.506,3.365-3.365,3.365c-1.857,0-3.365-1.506-3.365-3.365
	c0-1.858,1.508-3.365,3.365-3.365C70.498,159.197,72.004,160.704,72.004,162.562"/>
<path fill="#36A0A9" d="M82.476,162.562c0,1.859-1.509,3.365-3.365,3.365c-1.86,0-3.365-1.506-3.365-3.365
	c0-1.858,1.505-3.365,3.365-3.365C80.967,159.197,82.476,160.704,82.476,162.562"/>
<path fill="#36A0A9" d="M92.946,162.562c0,1.858-1.507,3.365-3.365,3.365s-3.364-1.507-3.364-3.365c0-1.858,1.506-3.365,3.364-3.365
	S92.946,160.704,92.946,162.562"/>
<path fill="#36A0A9" d="M103.418,162.562c0,1.859-1.508,3.365-3.365,3.365c-1.859,0-3.365-1.506-3.365-3.365
	c0-1.858,1.506-3.365,3.365-3.365C101.91,159.197,103.418,160.704,103.418,162.562"/>
<path fill="#36A0A9" d="M113.89,162.562c0,1.859-1.509,3.365-3.365,3.365c-1.86,0-3.365-1.506-3.365-3.365
	c0-1.858,1.505-3.365,3.365-3.365C112.381,159.197,113.89,160.704,113.89,162.562"/>
<path fill="#36A0A9" d="M124.361,162.562c0,1.858-1.508,3.365-3.365,3.365c-1.859,0-3.365-1.507-3.365-3.365
	c0-1.858,1.506-3.365,3.365-3.365C122.854,159.197,124.361,160.704,124.361,162.562"/>
<path fill="#36A0A9" d="M134.832,162.562c0,1.859-1.507,3.365-3.365,3.365s-3.365-1.506-3.365-3.365
	c0-1.858,1.507-3.365,3.365-3.365S134.832,160.704,134.832,162.562"/>
<path fill="#36A0A9" d="M145.304,162.562c0,1.859-1.508,3.365-3.365,3.365c-1.859,0-3.365-1.506-3.365-3.365
	c0-1.858,1.506-3.365,3.365-3.365C143.796,159.197,145.304,160.704,145.304,162.562"/>
<path fill="#36A0A9" d="M155.774,162.562c0,1.858-1.507,3.365-3.365,3.365s-3.364-1.507-3.364-3.365
	c0-1.858,1.506-3.365,3.364-3.365S155.774,160.704,155.774,162.562"/>
<path fill="#36A0A9" d="M166.246,162.562c0,1.859-1.507,3.365-3.365,3.365s-3.365-1.506-3.365-3.365
	c0-1.858,1.507-3.365,3.365-3.365S166.246,160.704,166.246,162.562"/>
<path fill="#36A0A9" d="M176.717,162.562c0,1.859-1.508,3.365-3.365,3.365c-1.859,0-3.365-1.506-3.365-3.365
	c0-1.858,1.506-3.365,3.365-3.365C175.209,159.197,176.717,160.704,176.717,162.562"/>
<path fill="#36A0A9" d="M187.188,162.562c0,1.858-1.506,3.365-3.365,3.365c-1.857,0-3.363-1.507-3.363-3.365
	c0-1.858,1.506-3.365,3.363-3.365C185.682,159.197,187.188,160.704,187.188,162.562"/>
<path fill="#36A0A9" d="M197.66,162.562c0,1.859-1.507,3.365-3.365,3.365s-3.365-1.506-3.365-3.365c0-1.858,1.507-3.365,3.365-3.365
	S197.66,160.704,197.66,162.562"/>
<path fill="#36A0A9" d="M208.131,162.562c0,1.859-1.509,3.365-3.365,3.365c-1.86,0-3.365-1.506-3.365-3.365
	c0-1.858,1.505-3.365,3.365-3.365C206.622,159.197,208.131,160.704,208.131,162.562"/>
<path fill="#36A0A9" d="M218.602,162.562c0,1.858-1.507,3.365-3.365,3.365s-3.364-1.507-3.364-3.365
	c0-1.858,1.506-3.365,3.364-3.365S218.602,160.704,218.602,162.562"/>
<path fill="#36A0A9" d="M229.073,162.562c0,1.859-1.507,3.365-3.365,3.365s-3.365-1.506-3.365-3.365
	c0-1.858,1.507-3.365,3.365-3.365S229.073,160.704,229.073,162.562"/>
<path fill="#36A0A9" d="M239.545,162.562c0,1.859-1.509,3.365-3.365,3.365c-1.86,0-3.365-1.506-3.365-3.365
	c0-1.858,1.505-3.365,3.365-3.365C238.036,159.197,239.545,160.704,239.545,162.562"/>
<path fill="#36A0A9" d="M9.177,172.635c0,1.859-1.507,3.365-3.365,3.365s-3.365-1.506-3.365-3.365c0-1.858,1.507-3.365,3.365-3.365
	S9.177,170.777,9.177,172.635"/>
<path fill="#36A0A9" d="M19.648,172.635c0,1.859-1.509,3.365-3.365,3.365c-1.86,0-3.365-1.506-3.365-3.365
	c0-1.858,1.505-3.365,3.365-3.365C18.14,169.27,19.648,170.777,19.648,172.635"/>
<path fill="#36A0A9" d="M30.119,172.635c0,1.858-1.507,3.365-3.365,3.365s-3.364-1.507-3.364-3.365c0-1.858,1.506-3.365,3.364-3.365
	S30.119,170.777,30.119,172.635"/>
<path fill="#36A0A9" d="M40.591,172.635c0,1.859-1.507,3.365-3.365,3.365s-3.365-1.506-3.365-3.365c0-1.858,1.507-3.365,3.365-3.365
	S40.591,170.777,40.591,172.635"/>
<path fill="#36A0A9" d="M51.062,172.635c0,1.859-1.509,3.365-3.365,3.365c-1.86,0-3.365-1.506-3.365-3.365
	c0-1.858,1.505-3.365,3.365-3.365C49.553,169.27,51.062,170.777,51.062,172.635"/>
<path fill="#36A0A9" d="M61.533,172.635c0,1.858-1.508,3.365-3.365,3.365c-1.859,0-3.365-1.507-3.365-3.365
	c0-1.858,1.506-3.365,3.365-3.365C60.025,169.27,61.533,170.777,61.533,172.635"/>
<path fill="#36A0A9" d="M72.004,172.635c0,1.859-1.506,3.365-3.365,3.365c-1.857,0-3.365-1.506-3.365-3.365
	c0-1.858,1.508-3.365,3.365-3.365C70.498,169.27,72.004,170.777,72.004,172.635"/>
<path fill="#36A0A9" d="M82.476,172.635c0,1.859-1.509,3.365-3.365,3.365c-1.86,0-3.365-1.506-3.365-3.365
	c0-1.858,1.505-3.365,3.365-3.365C80.967,169.27,82.476,170.777,82.476,172.635"/>
<path fill="#36A0A9" d="M92.946,172.635c0,1.858-1.507,3.365-3.365,3.365s-3.364-1.507-3.364-3.365c0-1.858,1.506-3.365,3.364-3.365
	S92.946,170.777,92.946,172.635"/>
<path fill="#36A0A9" d="M103.418,172.635c0,1.859-1.508,3.365-3.365,3.365c-1.859,0-3.365-1.506-3.365-3.365
	c0-1.858,1.506-3.365,3.365-3.365C101.91,169.27,103.418,170.777,103.418,172.635"/>
<path fill="#36A0A9" d="M113.89,172.635c0,1.859-1.509,3.365-3.365,3.365c-1.86,0-3.365-1.506-3.365-3.365
	c0-1.858,1.505-3.365,3.365-3.365C112.381,169.27,113.89,170.777,113.89,172.635"/>
<path fill="#36A0A9" d="M124.361,172.635c0,1.858-1.508,3.365-3.365,3.365c-1.859,0-3.365-1.507-3.365-3.365
	c0-1.858,1.506-3.365,3.365-3.365C122.854,169.27,124.361,170.777,124.361,172.635"/>
<path fill="#36A0A9" d="M134.832,172.635c0,1.859-1.507,3.365-3.365,3.365s-3.365-1.506-3.365-3.365
	c0-1.858,1.507-3.365,3.365-3.365S134.832,170.777,134.832,172.635"/>
<path fill="#36A0A9" d="M145.304,172.635c0,1.859-1.508,3.365-3.365,3.365c-1.859,0-3.365-1.506-3.365-3.365
	c0-1.858,1.506-3.365,3.365-3.365C143.796,169.27,145.304,170.777,145.304,172.635"/>
<path fill="#36A0A9" d="M155.774,172.635c0,1.858-1.507,3.365-3.365,3.365s-3.364-1.507-3.364-3.365
	c0-1.858,1.506-3.365,3.364-3.365S155.774,170.777,155.774,172.635"/>
<path fill="#36A0A9" d="M166.246,172.635c0,1.859-1.507,3.365-3.365,3.365s-3.365-1.506-3.365-3.365
	c0-1.858,1.507-3.365,3.365-3.365S166.246,170.777,166.246,172.635"/>
<path fill="#36A0A9" d="M176.717,172.635c0,1.859-1.508,3.365-3.365,3.365c-1.859,0-3.365-1.506-3.365-3.365
	c0-1.858,1.506-3.365,3.365-3.365C175.209,169.27,176.717,170.777,176.717,172.635"/>
<path fill="#36A0A9" d="M187.188,172.635c0,1.858-1.506,3.365-3.365,3.365c-1.857,0-3.363-1.507-3.363-3.365
	c0-1.858,1.506-3.365,3.363-3.365C185.682,169.27,187.188,170.777,187.188,172.635"/>
<path fill="#36A0A9" d="M197.66,172.635c0,1.859-1.507,3.365-3.365,3.365s-3.365-1.506-3.365-3.365c0-1.858,1.507-3.365,3.365-3.365
	S197.66,170.777,197.66,172.635"/>
<path fill="#36A0A9" d="M208.131,172.635c0,1.859-1.509,3.365-3.365,3.365c-1.86,0-3.365-1.506-3.365-3.365
	c0-1.858,1.505-3.365,3.365-3.365C206.622,169.27,208.131,170.777,208.131,172.635"/>
<path fill="#36A0A9" d="M218.602,172.635c0,1.858-1.507,3.365-3.365,3.365s-3.364-1.507-3.364-3.365
	c0-1.858,1.506-3.365,3.364-3.365S218.602,170.777,218.602,172.635"/>
<path fill="#36A0A9" d="M229.073,172.635c0,1.859-1.507,3.365-3.365,3.365s-3.365-1.506-3.365-3.365
	c0-1.858,1.507-3.365,3.365-3.365S229.073,170.777,229.073,172.635"/>
<path fill="#36A0A9" d="M239.545,172.635c0,1.859-1.509,3.365-3.365,3.365c-1.86,0-3.365-1.506-3.365-3.365
	c0-1.858,1.505-3.365,3.365-3.365C238.036,169.27,239.545,170.777,239.545,172.635"/>
</svg>
