<?xml version="1.0" encoding="utf-8"?>
<!-- Generator: Adobe Illustrator 16.0.0, SVG Export Plug-In . SVG Version: 6.00 Build 0)  -->
<!DOCTYPE svg PUBLIC "-//W3C//DTD SVG 1.1//EN" "http://www.w3.org/Graphics/SVG/1.1/DTD/svg11.dtd">
<svg version="1.1" id="Capa_1" xmlns="http://www.w3.org/2000/svg" xmlns:xlink="http://www.w3.org/1999/xlink" x="0px" y="0px"
	 width="558.673px" height="360.5px" viewBox="0 0 558.673 360.5" enable-background="new 0 0 558.673 360.5" xml:space="preserve">
<polyline fill="none" points="545.629,146.635 590.269,101.995 541.167,52.893 "/>
<polygon fill="#C4465A" points="303.204,191.808 273.653,16.85 244.095,-158.112 303.204,-158.112 362.314,-158.112 332.765,16.85 
	"/>
<polygon fill="#C4465A" points="303.204,191.808 332.765,366.769 362.314,541.727 303.204,541.727 244.095,541.727 273.653,366.769 
	"/>
<polygon fill="#C4465A" points="303.204,191.808 409.403,49.66 515.601,-92.492 556.401,-49.72 597.203,-6.945 450.203,92.43 "/>
<polygon fill="#C4465A" points="303.204,191.808 470.526,250.879 637.84,309.949 609.154,361.633 580.467,413.315 441.833,302.562 
	"/>
<polygon fill="#C4465A" points="302.535,191.396 196.337,49.248 90.141,-92.904 49.339,-50.132 8.538,-7.359 155.543,92.018 "/>
<polygon fill="#C4465A" points="302.535,191.396 135.221,250.465 -32.099,309.536 -3.413,361.219 25.274,412.902 163.907,302.148 
	"/>
</svg>
