<?xml version="1.0" encoding="utf-8"?>
<!-- Generator: Adobe Illustrator 16.0.0, SVG Export Plug-In . SVG Version: 6.00 Build 0)  -->
<!DOCTYPE svg PUBLIC "-//W3C//DTD SVG 1.1//EN" "http://www.w3.org/Graphics/SVG/1.1/DTD/svg11.dtd">
<svg version="1.1" id="Capa_1" xmlns="http://www.w3.org/2000/svg" xmlns:xlink="http://www.w3.org/1999/xlink" x="0px" y="0px"
	 width="84.001px" height="81.491px" viewBox="0 0 84.001 81.491" enable-background="new 0 0 84.001 81.491" xml:space="preserve">
<rect x="-128.834" y="-8.167" transform="matrix(0.7071 -0.7071 0.7071 0.7071 -5.1136 -1.6794)" fill="#DE9E00" width="248.5" height="27"/>
<rect x="-89.834" y="36.5" transform="matrix(0.7071 -0.7071 0.7071 0.7071 -25.2751 38.9803)" fill="#DE9E00" width="248.5" height="27"/>
<rect x="-67.083" y="59.991" transform="matrix(0.7071 -0.7071 0.7071 0.7071 -25.1392 86.2899)" fill="#DE9E00" width="317.349" height="27"/>
<rect x="-30.083" y="67.991" transform="matrix(0.7071 -0.7071 0.7071 0.7071 -19.959 114.7959)" fill="#DE9E00" width="317.349" height="27"/>
<rect x="3.917" y="102.246" transform="matrix(0.7071 -0.7071 0.7071 0.7071 -34.2225 148.8704)" fill="#DE9E00" width="317.349" height="27"/>
<rect x="37.917" y="137.246" transform="matrix(0.7071 -0.7071 0.7071 0.7071 -49.0129 183.1632)" fill="#DE9E00" width="317.349" height="27"/>
</svg>
