<?xml version="1.0" encoding="utf-8"?>
<!-- Generator: Adobe Illustrator 16.0.0, SVG Export Plug-In . SVG Version: 6.00 Build 0)  -->
<!DOCTYPE svg PUBLIC "-//W3C//DTD SVG 1.1//EN" "http://www.w3.org/Graphics/SVG/1.1/DTD/svg11.dtd">
<svg version="1.1" id="Capa_1" xmlns="http://www.w3.org/2000/svg" xmlns:xlink="http://www.w3.org/1999/xlink" x="0px" y="0px"
	 width="242.343px" height="178px" viewBox="0 0 242.343 178" enable-background="new 0 0 242.343 178" xml:space="preserve">
<polyline fill="#A13F30" points="35.693,17.473 49.838,18.158 58.422,6.893 62.141,20.557 75.506,25.24 63.659,33 63.338,47.158 
	52.297,38.29 38.732,42.358 43.753,29.117 35.693,17.473 "/>
<polygon fill="#A13F30" points="83.643,44.321 80.714,41.97 77.119,43.049 78.449,39.54 76.313,36.453 80.063,36.634 82.337,33.647 
	83.324,37.271 86.867,38.511 83.727,40.568 "/>
<polygon fill="#A13F30" points="115.248,24.318 112.319,21.967 108.725,23.046 110.055,19.536 107.918,16.449 111.668,16.631 
	113.942,13.644 114.93,17.267 118.473,18.508 115.332,20.565 "/>
<polyline fill="#A13F30" points="19.196,18.981 20.184,22.604 23.727,23.845 20.586,25.902 20.502,29.655 17.573,27.304 
	13.978,28.383 15.309,24.873 13.172,21.786 16.922,21.968 19.196,18.981 "/>
<polygon fill="#A13F30" points="20.5,75.027 17.571,72.676 13.976,73.755 15.309,70.245 13.172,67.158 16.922,67.34 19.196,64.353 
	20.182,67.976 23.726,69.217 20.586,71.274 "/>
<polygon fill="#A13F30" points="13.502,103.829 10.573,101.478 6.978,102.557 8.309,99.047 6.172,95.96 9.922,96.142 12.196,93.155 
	13.184,96.778 16.727,98.019 13.586,100.076 "/>
<polygon fill="#A13F30" points="97.264,124.567 94.335,122.216 90.74,123.295 92.07,119.785 89.934,116.698 93.684,116.88 
	95.958,113.893 96.945,117.516 100.488,118.757 97.348,120.814 "/>
<polygon fill="#A13F30" points="156.094,98.492 153.165,96.141 149.57,97.22 150.902,93.71 148.766,90.624 152.516,90.805 
	154.79,87.818 155.775,91.441 159.32,92.682 156.18,94.739 "/>
<polygon fill="#A13F30" points="120.525,89 117.597,86.649 114.001,87.728 115.332,84.218 113.195,81.131 116.945,81.313 
	119.22,78.326 120.207,81.949 123.75,83.19 120.609,85.247 "/>
<polygon fill="#A13F30" points="32.469,124.567 29.54,122.216 25.944,123.295 27.275,119.785 25.139,116.698 28.889,116.88 
	31.163,113.893 32.15,117.516 35.693,118.757 32.553,120.814 "/>
<polygon fill="#A13F30" points="58.061,95.159 47.02,86.292 33.455,90.359 38.476,77.119 30.416,65.474 44.561,66.159 
	53.145,54.895 56.863,68.558 70.229,73.241 58.382,81.001 "/>
<polygon fill="#A13F30" points="144.766,67.29 133.725,58.422 120.158,62.49 125.182,49.25 117.118,37.605 131.266,38.29 
	139.848,27.025 143.568,40.689 156.934,45.372 145.087,53.132 "/>
<polyline fill="#A13F30" points="195.266,159.495 184.225,150.627 170.66,154.695 175.681,141.454 167.621,129.81 181.766,130.495 
	190.35,119.23 194.068,132.894 207.434,137.577 195.587,145.337 195.266,159.495 "/>
<polygon fill="#A13F30" points="200.144,94.252 187.586,87.705 175.072,94.336 177.421,80.37 167.245,70.52 181.253,68.437 
	187.476,55.717 193.788,68.394 207.81,70.383 197.701,80.303 "/>
<polygon fill="#A13F30" points="213.375,49.787 202.334,40.919 188.77,44.987 193.791,31.747 185.729,20.102 199.875,20.787 
	208.459,9.522 212.178,23.186 225.543,27.869 213.696,35.629 "/>
<polyline fill="#A13F30" points="74.699,171.158 63.658,162.29 50.094,166.358 55.114,153.117 47.055,141.473 61.199,142.158 
	69.783,130.893 73.502,144.557 86.867,149.24 75.021,157 74.699,171.158 "/>
<polygon fill="#A13F30" points="20.502,159.495 17.573,157.144 13.978,158.223 15.309,154.713 13.172,151.626 16.922,151.808 
	19.196,148.821 20.184,152.444 23.727,153.685 20.586,155.742 "/>
<polygon fill="#A13F30" points="125.803,154.158 122.874,151.807 119.278,152.886 120.609,149.376 118.473,146.289 122.223,146.471 
	124.497,143.484 125.484,147.107 129.027,148.348 125.887,150.405 "/>
<polygon fill="#A13F30" points="222.318,129.904 219.39,127.553 215.794,128.632 217.125,125.122 214.988,122.035 218.738,122.217 
	221.013,119.23 222,122.853 225.543,124.094 222.402,126.151 "/>
<polygon fill="#A13F30" points="169.674,24.318 166.745,21.967 163.149,23.046 164.48,19.536 162.344,16.449 166.094,16.631 
	168.368,13.644 169.355,17.267 172.898,18.508 169.758,20.565 "/>
<polygon fill="#A13F30" points="227.596,69.69 224.667,67.339 221.071,68.418 222.402,64.908 220.266,61.821 224.016,62.003 
	226.29,59.016 227.277,62.639 230.82,63.88 227.68,65.937 "/>
</svg>
