<?xml version="1.0" encoding="utf-8"?>
<!-- Generator: Adobe Illustrator 16.0.0, SVG Export Plug-In . SVG Version: 6.00 Build 0)  -->
<!DOCTYPE svg PUBLIC "-//W3C//DTD SVG 1.1//EN" "http://www.w3.org/Graphics/SVG/1.1/DTD/svg11.dtd">
<svg version="1.1" id="Capa_1" xmlns="http://www.w3.org/2000/svg" xmlns:xlink="http://www.w3.org/1999/xlink" x="0px" y="0px"
	 width="306.914px" height="192.5px" viewBox="0 0 306.914 192.5" enable-background="new 0 0 306.914 192.5" xml:space="preserve">
<g opacity="0.75">
	<g>
		<defs>
			<rect id="SVGID_213_" x="86.955" y="117.362" width="185.519" height="49.514"/>
		</defs>
		<clipPath id="SVGID_2_">
			<use xlink:href="#SVGID_213_"  overflow="visible"/>
		</clipPath>
		
			<rect x="87.89" y="122.27" transform="matrix(0.9986 -0.0537 0.0537 0.9986 -7.3742 9.858)" clip-path="url(#SVGID_2_)" width="183.65" height="39.702"/>
	</g>
</g>
<rect x="86.656" y="121.036" transform="matrix(0.9986 -0.0537 0.0537 0.9986 -7.3097 9.79)" fill="#35205A" width="183.651" height="39.703"/>
<g opacity="0.75">
	<g>
		<defs>
			<rect id="SVGID_215_" x="125.715" y="28.312" width="117.219" height="83.369"/>
		</defs>
		<clipPath id="SVGID_4_">
			<use xlink:href="#SVGID_215_"  overflow="visible"/>
		</clipPath>
		<path clip-path="url(#SVGID_4_)" d="M136.527,70.704c-7.511,0.985-10.183-5.404-10.693-9.301l-0.048-0.36
			c-0.602-6.129,2.529-12.177,10.238-13.187c1.403-0.185,3.572,0.47,3.764,1.917c0.074,0.562-0.682,3.519-1.285,3.599
			c-0.802,0.104-1.468-0.298-2.351-0.182c-3.052,0.399-4.546,2.72-5.283,5.186c-0.487,1.576,0.129,4.721,1.286,6.079
			c0.892,1.191,2.753,1.681,4.324,1.516l0.361-0.047c1.123-0.146,2.63-0.508,3.525-1.156c0.3-0.203,1.483-1.461,1.884-1.514
			c0.644-0.085,2.104,2.338,2.214,3.18c0.254,1.928-5.251,3.874-6.775,4.075C137.29,70.604,136.89,70.656,136.527,70.704"/>
		<path clip-path="url(#SVGID_4_)" d="M146.19,65.884c-0.506-3.855,0.957-7.355,4.744-9.283c1.492-0.768,4.165-1.282,5.205-1.418
			c0.483-0.063-0.973-4.937-3.584-4.595c-2.167,0.284-3.301,2.231-4.64,3.551c0,0-3.196-1.951-3.207-2.03
			c-0.052-0.401,0.478-1.043,0.669-1.436c2.264-2.993,4.597-4.198,7.85-4.625c5.381-0.707,7.29,3.579,8.01,7.814l0.046,0.361
			c0.75,4.15,1.313,8.445,1.659,12.647c-0.067,0.419-0.61,1.265-3.145,1.883l-0.159,0.022c-1.486,0.195-0.538-1.603-1.473-1.892
			c-0.544,0.522-0.683,1.029-1.351,1.526c-1.396,1.203-3.429,1.595-5.315,1.841c-3.011,0.394-4.837-1.696-5.272-4.088L146.19,65.884
			z M157.357,63.52l-0.133-1.003c-0.179-1.367-0.497-3.489-1.181-3.399c-6.145,0.805-5.284,5.186-5.133,6.025
			C151.39,66.918,157.442,64.162,157.357,63.52"/>
		<path clip-path="url(#SVGID_4_)" d="M168.159,60.552c0.16-0.021,0.241-0.031,0.417,0.066c1.666,1.497,1.833,3.07,4.521,2.716
			c1.565-0.206,2.994-1.781,2.778-3.427c-0.396-3.012-2.386-3.241-5.049-3.3c-2.33-0.021-6.48-1.765-6.813-4.294
			c-0.584-4.456,2.841-7.93,7.057-8.482c1.928-0.252,4.111-0.415,5.647,1.015l0.046,0.038c0.277,0.248,0.425,0.432,0.467,0.754
			c0.005,0.04-0.014,0.207-0.014,0.207c-0.301,0.815-1.424,3.78-1.986,3.853l-0.281,0.039l-0.303-0.125
			c-1.078-0.429-2.759-1.107-3.924-0.953c-0.883,0.115-1.527,0.812-1.405,1.735c0.416,3.172,10.275-0.448,11.323,7.541
			c0.627,4.779-1.84,9.023-7.1,9.712c-3.133,0.411-6.314,0.134-7.86-2.93c-0.164-0.306-0.547-1.072-0.641-1.794
			C165.041,62.922,167.676,60.615,168.159,60.552"/>
		<path clip-path="url(#SVGID_4_)" d="M180.486,36.511c-0.546-4.176,4.271-6.687,5.973-2.417c0,0,0.104,0.476,0.124,0.636
			c0.238,1.808-0.32,4.087-2.368,4.354c-1.205,0.158-2.925-0.188-3.534-1.415C180.653,37.471,180.509,36.672,180.486,36.511
			 M182.942,63.023c0,0-1.695-18.525-0.933-18.625c0.161-0.02,0.247,0.01,4.151-0.422c0.362-0.048,0.449,0.309,0.475,0.511
			c0.012,0.079,0.009,0.365,0.016,0.408c0.116,1.208,0.491,6.55,0.983,19.025c0.028,0.527-0.031,0.699-0.503,0.843
			c-1.256,0.082-2.418,0.561-3.752,0.37c-0.038,0.006-0.129-0.067-0.135-0.107C183.164,64.71,182.978,63.305,182.942,63.023"/>
		<path clip-path="url(#SVGID_4_)" d="M188.585,30.059l5.299-0.696c0.174,1.325,0.498,2.549,0.673,3.875l0.052,0.4l2.703,28.401
			c-0.066,0.417-1.513,0.606-3.158,0.822l-0.402,0.053c-0.612-0.002-0.705-1.95-0.843-2.379L188.585,30.059z"/>
		<path clip-path="url(#SVGID_4_)" d="M196.615,29.006l5.302-0.695c0.171,1.324,0.498,2.548,0.672,3.873l0.052,0.401l2.701,28.402
			c-0.063,0.416-1.511,0.605-3.157,0.82l-0.402,0.054c-0.613-0.001-0.705-1.95-0.844-2.379L196.615,29.006z"/>
		<path clip-path="url(#SVGID_4_)" d="M208.387,57.728c-0.505-3.855,0.957-7.356,4.747-9.283c1.49-0.769,4.162-1.282,5.203-1.419
			c0.483-0.063-0.974-4.937-3.583-4.593c-2.168,0.284-3.302,2.23-4.64,3.551c0,0-3.197-1.951-3.209-2.031
			c-0.052-0.401,0.479-1.043,0.672-1.434c2.262-2.993,4.595-4.199,7.849-4.626c5.379-0.706,7.29,3.579,8.01,7.813l0.047,0.361
			c0.748,4.151,1.311,8.446,1.659,12.648c-0.069,0.419-0.611,1.265-3.146,1.883l-0.158,0.022c-1.486,0.195-0.539-1.605-1.473-1.892
			c-0.546,0.521-0.683,1.028-1.353,1.526c-1.396,1.202-3.428,1.593-5.315,1.84c-3.008,0.396-4.836-1.694-5.271-4.087L208.387,57.728
			z M219.555,55.364l-0.133-1.003c-0.18-1.367-0.497-3.49-1.179-3.399c-6.144,0.804-5.286,5.185-5.134,6.023
			C213.587,58.761,219.639,56.006,219.555,55.364"/>
		<path clip-path="url(#SVGID_4_)" d="M230.357,52.396c0.161-0.021,0.24-0.031,0.416,0.067c1.667,1.497,1.833,3.067,4.524,2.714
			c1.564-0.204,2.991-1.781,2.776-3.427c-0.396-3.012-2.387-3.241-5.05-3.3c-2.33-0.021-6.479-1.764-6.811-4.294
			c-0.584-4.456,2.84-7.93,7.056-8.482c1.926-0.253,4.113-0.414,5.646,1.016l0.048,0.037c0.275,0.248,0.424,0.432,0.464,0.754
			c0.005,0.04-0.011,0.206-0.011,0.206c-0.303,0.815-1.426,3.781-1.988,3.855l-0.281,0.036l-0.301-0.124
			c-1.08-0.429-2.761-1.107-3.924-0.955c-0.882,0.116-1.529,0.813-1.407,1.737c0.415,3.171,10.274-0.449,11.323,7.541
			c0.627,4.777-1.84,9.023-7.1,9.713c-3.132,0.411-6.314,0.135-7.858-2.932c-0.162-0.306-0.55-1.071-0.644-1.793
			C227.237,54.766,229.875,52.458,230.357,52.396"/>
		<path clip-path="url(#SVGID_4_)" d="M131.848,107.26c-0.505-3.855,0.954-7.355,4.744-9.283c1.493-0.769,4.163-1.282,5.205-1.418
			c0.482-0.064-0.973-4.938-3.583-4.595c-2.168,0.284-3.301,2.231-4.641,3.551c0,0-3.195-1.951-3.207-2.03
			c-0.052-0.4,0.478-1.043,0.669-1.435c2.264-2.993,4.596-4.2,7.849-4.625c5.381-0.707,7.291,3.578,8.01,7.814l0.047,0.361
			c0.748,4.149,1.313,8.445,1.659,12.647c-0.067,0.418-0.611,1.265-3.144,1.883l-0.158,0.022c-1.488,0.195-0.539-1.604-1.476-1.892
			c-0.543,0.522-0.681,1.028-1.353,1.526c-1.394,1.204-3.426,1.595-5.313,1.842c-3.012,0.394-4.838-1.696-5.273-4.088
			L131.848,107.26z M143.014,104.896l-0.131-1.005c-0.18-1.365-0.499-3.487-1.183-3.397c-6.143,0.805-5.283,5.186-5.133,6.023
			C137.048,108.294,143.1,105.538,143.014,104.896"/>
		<path clip-path="url(#SVGID_4_)" d="M149.784,73.988c0.105-0.139,0.215-0.233,5.336-0.741c0.127,0.678,0.559,2.704,1.176,16.755
			l5.588-0.367c0.609-0.037,0.822,0.344,0.875,0.745c0.199,1.525,0.041,2.2-0.158,3.778c0.02,0.161-0.227,0.154-0.388,0.174
			l-5.521,0.56c-0.488,6.559,0.695,11.223,7.165,8.538c0.126,0.963,0.526,2.462,0.68,3.627c0.08,0.602-1.245,0.776-1.81,0.849
			c-5.379,0.706-10.666,0.255-10.614-12.739c-0.202,0.025-2.182,0.203-2.348,0.182c-0.079,0.011-0.253-0.088-0.253-0.088
			l-0.633-4.817c0,0,0.148-0.101,0.229-0.113l2.059-0.188L149.784,73.988z"/>
		<path clip-path="url(#SVGID_4_)" d="M167.272,105.186c-0.254-1.925-3.211-19.511-1.313-19.963c0.242-0.031,2.318-0.387,3.76-0.616
			l0.572,3.111c1.994-2.835,4.508-4.554,8.442-5.07c0.279,0.25,0.39,0.48,1.23,4.088c-4.873,0.842-8.974,4.443-8.601,9.173
			l0.823,9.696l-0.063,0.13c-0.035,0.047-1.19,0.279-3.937,0.518C167.726,106.148,167.331,105.627,167.272,105.186"/>
		<path clip-path="url(#SVGID_4_)" d="M182.643,100.598c-0.505-3.854,0.954-7.354,4.744-9.282c1.494-0.769,4.163-1.282,5.205-1.419
			c0.483-0.063-0.973-4.936-3.582-4.593c-2.169,0.284-3.302,2.231-4.64,3.55c0,0-3.197-1.95-3.209-2.031
			c-0.052-0.4,0.478-1.043,0.669-1.435c2.264-2.993,4.596-4.199,7.849-4.625c5.383-0.706,7.293,3.579,8.012,7.814l0.048,0.361
			c0.747,4.151,1.311,8.446,1.656,12.648c-0.067,0.419-0.61,1.265-3.144,1.883l-0.158,0.022c-1.486,0.194-0.539-1.604-1.475-1.891
			c-0.544,0.521-0.681,1.028-1.351,1.526c-1.396,1.202-3.429,1.594-5.315,1.84c-3.01,0.396-4.838-1.694-5.273-4.087L182.643,100.598
			z M183.582,77.561c-0.004-0.04-0.025-0.2,0.015-0.206c0.129-0.263,0.83-1.458,1.037-1.731c0.942-1.55,1.966-3.075,2.822-4.658
			c0.402-0.666,0.572-1.547,1.377-1.652c0.924-0.121,2.69,0.914,2.832,1.998c0.033,1.794-3.019,4.685-3.893,6.434
			c-0.1,0.178-0.289,0.283-0.489,0.309C186.681,78.135,183.586,77.886,183.582,77.561 M193.809,98.235l-0.131-1.005
			c-0.18-1.365-0.499-3.488-1.181-3.398c-6.145,0.804-5.285,5.186-5.133,6.023C187.843,101.632,193.895,98.877,193.809,98.235"/>
		<path clip-path="url(#SVGID_4_)" d="M204.61,95.267c0.161-0.022,0.24-0.031,0.417,0.066c1.669,1.498,1.832,3.068,4.522,2.716
			c1.565-0.206,2.992-1.781,2.777-3.43c-0.395-3.009-2.387-3.238-5.05-3.297c-2.329-0.023-6.479-1.765-6.811-4.294
			c-0.585-4.458,2.84-7.93,7.056-8.482c1.926-0.252,4.113-0.414,5.646,1.016l0.048,0.035c0.276,0.25,0.424,0.434,0.467,0.756
			c0.005,0.04-0.014,0.206-0.014,0.206c-0.303,0.815-1.426,3.781-1.989,3.854l-0.281,0.037l-0.3-0.123
			c-1.08-0.43-2.761-1.107-3.924-0.955c-0.882,0.117-1.528,0.813-1.407,1.738c0.415,3.169,10.276-0.449,11.324,7.54
			c0.626,4.777-1.84,9.023-7.099,9.712c-3.134,0.412-6.313,0.135-7.86-2.93c-0.162-0.306-0.55-1.072-0.644-1.795
			C201.49,97.636,204.128,95.33,204.61,95.267"/>
	</g>
</g>
<path fill="#FFFFFF" d="M135.699,69.875c-7.511,0.986-10.183-5.404-10.694-9.3l-0.047-0.361
	c-0.602-6.128,2.529-12.177,10.238-13.187c1.403-0.184,3.572,0.471,3.762,1.917c0.076,0.562-0.68,3.519-1.283,3.599
	c-0.803,0.104-1.469-0.298-2.351-0.182c-3.054,0.399-4.546,2.721-5.283,5.187c-0.489,1.575,0.129,4.721,1.285,6.079
	c0.893,1.191,2.754,1.682,4.325,1.517l0.36-0.048c1.124-0.147,2.631-0.508,3.526-1.155c0.3-0.204,1.481-1.462,1.884-1.515
	c0.644-0.084,2.104,2.339,2.214,3.18c0.253,1.928-5.251,3.874-6.775,4.074C136.462,69.775,136.062,69.828,135.699,69.875"/>
<path fill="#FFFFFF" d="M145.36,65.055c-0.505-3.855,0.957-7.354,4.746-9.283c1.492-0.767,4.163-1.282,5.205-1.418
	c0.482-0.063-0.975-4.936-3.584-4.594c-2.168,0.284-3.301,2.231-4.64,3.55c0,0-3.197-1.95-3.208-2.03
	c-0.051-0.4,0.477-1.043,0.67-1.435c2.262-2.993,4.597-4.198,7.848-4.625c5.383-0.707,7.292,3.579,8.012,7.814l0.046,0.361
	c0.75,4.149,1.312,8.445,1.659,12.647c-0.067,0.418-0.611,1.266-3.146,1.883l-0.159,0.022c-1.485,0.195-0.537-1.603-1.473-1.891
	c-0.545,0.521-0.682,1.029-1.352,1.525c-1.396,1.204-3.427,1.595-5.313,1.842c-3.011,0.394-4.839-1.697-5.272-4.089L145.36,65.055z
	 M156.528,62.691l-0.132-1.003c-0.18-1.367-0.498-3.488-1.182-3.399c-6.144,0.805-5.283,5.186-5.132,6.024
	C150.561,66.089,156.614,63.333,156.528,62.691"/>
<path fill="#FFFFFF" d="M167.33,59.724c0.16-0.021,0.242-0.032,0.418,0.066c1.666,1.497,1.833,3.069,4.521,2.715
	c1.565-0.206,2.994-1.781,2.776-3.427c-0.394-3.012-2.384-3.241-5.048-3.3c-2.331-0.021-6.479-1.765-6.812-4.294
	c-0.584-4.456,2.841-7.929,7.057-8.483c1.928-0.252,4.111-0.414,5.647,1.016l0.046,0.037c0.277,0.249,0.424,0.432,0.465,0.755
	c0.007,0.04-0.012,0.206-0.012,0.206c-0.301,0.815-1.425,3.781-1.988,3.854l-0.279,0.039l-0.303-0.125
	c-1.078-0.429-2.759-1.107-3.925-0.954c-0.882,0.115-1.526,0.813-1.404,1.736c0.414,3.171,10.274-0.449,11.323,7.541
	c0.627,4.778-1.84,9.022-7.101,9.711c-3.132,0.412-6.313,0.135-7.859-2.93c-0.164-0.306-0.547-1.072-0.643-1.793
	C164.211,62.094,166.848,59.787,167.33,59.724"/>
<path fill="#FFFFFF" d="M179.656,35.683c-0.545-4.176,4.271-6.688,5.975-2.418c0,0,0.104,0.477,0.124,0.637
	c0.238,1.807-0.322,4.086-2.369,4.354c-1.204,0.158-2.925-0.188-3.535-1.415C179.825,36.642,179.68,35.844,179.656,35.683
	 M182.114,62.195c0,0-1.695-18.525-0.933-18.625c0.161-0.021,0.247,0.009,4.151-0.423c0.361-0.048,0.448,0.309,0.475,0.511
	c0.011,0.08,0.008,0.365,0.014,0.407c0.118,1.208,0.492,6.55,0.983,19.026c0.028,0.527-0.03,0.699-0.501,0.843
	c-1.256,0.083-2.418,0.562-3.752,0.371c-0.038,0.005-0.129-0.068-0.135-0.107C182.334,63.881,182.149,62.476,182.114,62.195"/>
<path fill="#FFFFFF" d="M187.757,29.23l5.299-0.695c0.174,1.324,0.498,2.548,0.673,3.874l0.052,0.401l2.702,28.401
	c-0.065,0.417-1.512,0.606-3.157,0.822l-0.402,0.053c-0.613-0.003-0.706-1.95-0.844-2.38L187.757,29.23z"/>
<path fill="#FFFFFF" d="M195.787,28.177l5.3-0.694c0.173,1.323,0.499,2.547,0.673,3.873l0.053,0.401l2.701,28.402
	c-0.065,0.416-1.512,0.605-3.157,0.821l-0.402,0.053c-0.613-0.001-0.705-1.95-0.846-2.379L195.787,28.177z"/>
<path fill="#FFFFFF" d="M207.558,56.898c-0.506-3.855,0.957-7.355,4.746-9.283c1.492-0.769,4.163-1.282,5.204-1.419
	c0.483-0.063-0.973-4.936-3.583-4.593c-2.169,0.284-3.301,2.23-4.64,3.55c0,0-3.198-1.95-3.208-2.031
	c-0.052-0.401,0.477-1.043,0.671-1.434c2.261-2.993,4.596-4.2,7.848-4.626c5.381-0.706,7.292,3.579,8.011,7.814l0.047,0.361
	c0.748,4.151,1.311,8.446,1.659,12.648c-0.068,0.418-0.61,1.266-3.146,1.883l-0.158,0.022c-1.488,0.195-0.539-1.604-1.475-1.891
	c-0.544,0.52-0.681,1.028-1.351,1.525c-1.396,1.202-3.429,1.594-5.315,1.841c-3.01,0.396-4.838-1.695-5.271-4.087L207.558,56.898z
	 M218.726,54.535l-0.132-1.003c-0.18-1.367-0.499-3.49-1.18-3.399c-6.145,0.804-5.285,5.185-5.133,6.023
	C212.757,57.932,218.811,55.177,218.726,54.535"/>
<path fill="#FFFFFF" d="M229.529,51.566c0.161-0.02,0.24-0.031,0.415,0.067c1.668,1.496,1.834,3.067,4.523,2.715
	c1.566-0.205,2.992-1.782,2.778-3.427c-0.396-3.013-2.387-3.242-5.05-3.301c-2.332-0.02-6.479-1.764-6.813-4.294
	c-0.582-4.456,2.842-7.93,7.057-8.482c1.927-0.253,4.114-0.414,5.647,1.016l0.047,0.037c0.276,0.249,0.425,0.432,0.465,0.754
	c0.005,0.041-0.012,0.207-0.012,0.207c-0.302,0.814-1.425,3.78-1.989,3.854l-0.28,0.036l-0.302-0.124
	c-1.078-0.43-2.759-1.108-3.922-0.956c-0.883,0.117-1.531,0.813-1.407,1.737c0.414,3.172,10.273-0.449,11.323,7.541
	c0.627,4.778-1.84,9.023-7.1,9.713c-3.132,0.411-6.314,0.135-7.859-2.931c-0.162-0.306-0.549-1.072-0.644-1.794
	C226.408,53.937,229.046,51.629,229.529,51.566"/>
<path fill="#FFFFFF" d="M131.019,106.431c-0.506-3.855,0.955-7.354,4.745-9.282c1.493-0.769,4.162-1.282,5.204-1.418
	c0.483-0.064-0.974-4.938-3.582-4.594c-2.169,0.284-3.301,2.231-4.641,3.55c0,0-3.197-1.95-3.208-2.03
	c-0.051-0.401,0.478-1.043,0.669-1.436c2.264-2.993,4.596-4.199,7.85-4.625c5.379-0.707,7.291,3.577,8.008,7.813l0.049,0.361
	c0.748,4.15,1.313,8.445,1.658,12.647c-0.067,0.419-0.61,1.266-3.143,1.883l-0.158,0.022c-1.488,0.195-0.539-1.604-1.478-1.891
	c-0.542,0.521-0.679,1.028-1.351,1.526c-1.394,1.204-3.427,1.595-5.313,1.842c-3.012,0.394-4.837-1.697-5.272-4.089L131.019,106.431
	z M142.186,104.067l-0.133-1.004c-0.178-1.366-0.497-3.487-1.181-3.398c-6.143,0.806-5.283,5.187-5.133,6.023
	C136.218,107.465,142.271,104.709,142.186,104.067"/>
<path fill="#FFFFFF" d="M148.956,73.159c0.104-0.139,0.213-0.233,5.335-0.741c0.128,0.678,0.56,2.704,1.176,16.755l5.589-0.366
	c0.609-0.038,0.822,0.344,0.873,0.745c0.201,1.524,0.043,2.199-0.158,3.778c0.021,0.16-0.225,0.153-0.386,0.174l-5.521,0.56
	c-0.487,6.559,0.694,11.223,7.165,8.538c0.127,0.963,0.527,2.462,0.681,3.627c0.079,0.603-1.245,0.776-1.81,0.849
	c-5.379,0.706-10.668,0.256-10.615-12.739c-0.201,0.026-2.181,0.203-2.347,0.182c-0.079,0.012-0.253-0.087-0.253-0.087l-0.635-4.817
	c0,0,0.15-0.102,0.23-0.112l2.059-0.188L148.956,73.159z"/>
<path fill="#FFFFFF" d="M166.442,104.357c-0.252-1.925-3.211-19.51-1.311-19.963c0.242-0.031,2.317-0.387,3.758-0.616l0.574,3.111
	c1.994-2.835,4.506-4.553,8.442-5.069c0.277,0.25,0.39,0.48,1.23,4.087c-4.873,0.842-8.974,4.443-8.602,9.174l0.823,9.696
	l-0.064,0.13c-0.033,0.047-1.189,0.279-3.935,0.518C166.896,105.32,166.501,104.799,166.442,104.357"/>
<path fill="#FFFFFF" d="M181.813,99.77c-0.506-3.855,0.955-7.355,4.745-9.283c1.493-0.769,4.162-1.282,5.205-1.418
	c0.482-0.063-0.973-4.937-3.584-4.593c-2.168,0.284-3.301,2.231-4.64,3.55c0,0-3.197-1.95-3.208-2.031
	c-0.051-0.401,0.478-1.043,0.67-1.434c2.263-2.993,4.595-4.2,7.849-4.626c5.382-0.706,7.293,3.579,8.011,7.814l0.047,0.361
	c0.749,4.151,1.313,8.446,1.658,12.648c-0.067,0.418-0.611,1.265-3.144,1.883l-0.158,0.022c-1.488,0.195-0.539-1.604-1.475-1.891
	c-0.544,0.521-0.681,1.028-1.353,1.525c-1.395,1.202-3.428,1.594-5.315,1.84c-3.008,0.395-4.836-1.695-5.271-4.086L181.813,99.77z
	 M182.753,76.732c-0.003-0.041-0.026-0.201,0.016-0.206c0.127-0.262,0.828-1.458,1.037-1.73c0.941-1.551,1.965-3.075,2.822-4.658
	c0.402-0.665,0.571-1.546,1.375-1.651c0.925-0.122,2.691,0.914,2.833,1.998c0.032,1.793-3.019,4.685-3.892,6.433
	c-0.101,0.178-0.289,0.283-0.49,0.309C185.853,77.306,182.758,77.058,182.753,76.732 M192.98,97.406l-0.133-1.004
	c-0.178-1.366-0.497-3.489-1.181-3.398c-6.143,0.804-5.283,5.186-5.131,6.023C187.013,100.803,193.065,98.049,192.98,97.406"/>
<path fill="#FFFFFF" d="M203.782,94.438c0.161-0.022,0.24-0.032,0.417,0.065c1.667,1.498,1.832,3.069,4.521,2.717
	c1.566-0.207,2.993-1.782,2.778-3.43c-0.395-3.01-2.387-3.239-5.05-3.298c-2.329-0.023-6.479-1.765-6.813-4.294
	c-0.583-4.458,2.842-7.93,7.057-8.482c1.927-0.253,4.114-0.415,5.647,1.016l0.047,0.035c0.277,0.25,0.425,0.434,0.466,0.756
	c0.007,0.041-0.013,0.207-0.013,0.207c-0.302,0.815-1.425,3.781-1.989,3.853l-0.28,0.038l-0.301-0.124
	c-1.079-0.43-2.76-1.107-3.924-0.955c-0.883,0.116-1.527,0.813-1.406,1.737c0.415,3.17,10.276-0.449,11.324,7.541
	c0.626,4.778-1.842,9.023-7.101,9.712c-3.132,0.412-6.313,0.135-7.86-2.929c-0.162-0.307-0.548-1.072-0.642-1.795
	C200.662,96.807,203.298,94.501,203.782,94.438"/>
<path d="M99.007,80.369l9.978-0.3l0.45,15.755L99.309,96.5v26.558l-17.781,1.35V96.875l-35.109,0.976l-0.45-15.005l34.283-64.668
	l17.932,1.05L99.007,80.369z M81.978,81.345V48.262L63.822,82.095L81.978,81.345z"/>
<line fill="none" x1="41.968" y1="17.17" x2="41.968" y2="123.402"/>
<polyline fill="none" points="45.968,124.402 109.437,124.402 109.437,18.17 "/>
<path fill="#FFFFFF" d="M98.164,79.526l9.978-0.301l0.449,15.757l-10.127,0.674v26.558l-17.781,1.35V96.03l-35.109,0.976
	l-0.45-15.004l34.284-64.668l17.932,1.049L98.164,79.526z M81.134,80.501V47.417L62.978,81.25L81.134,80.501z"/>
<g opacity="0.75">
	<g>
		<defs>
			<rect id="SVGID_217_" x="93.254" y="127.161" width="173.13" height="30.523"/>
		</defs>
		<clipPath id="SVGID_6_">
			<use xlink:href="#SVGID_217_"  overflow="visible"/>
		</clipPath>
		<path clip-path="url(#SVGID_6_)" d="M111.166,133.174c0.256-0.014,0.496,0.203,0.507,0.428l1.213,22.528
			c0.014,0.26-0.199,0.495-0.457,0.51l-4.144,0.223c-0.226,0.013-0.399-0.174-0.546-0.456l-0.399-0.821
			c-1.173,1.166-3.043,1.977-5.018,2.083c-5.115,0.275-8.747-3.292-9.05-8.925c-0.301-5.597,2.928-9.539,8.043-9.813
			c1.521-0.083,3.001,0.293,4.013,1.019l-0.322-5.989c-0.011-0.226,0.199-0.467,0.459-0.48L111.166,133.174z M106.192,148.146
			c-0.124-2.33-1.405-3.818-3.187-3.723c-1.779,0.097-2.896,1.714-2.771,4.043c0.121,2.267,1.402,3.693,3.182,3.597
			C105.197,151.968,106.315,150.414,106.192,148.146"/>
		<path clip-path="url(#SVGID_6_)" d="M131.096,153.817c0.078,0.227,0.021,0.356-0.197,0.501c-1.656,1.222-4.111,2.034-6.603,2.168
			c-5.729,0.309-9.752-3.238-10.054-8.836c-0.302-5.632,3.252-9.591,8.881-9.894c5.374-0.289,8.732,3.004,9.05,8.895
			c0.025,0.488,0.021,0.974-0.051,1.462c-0.02,0.261-0.174,0.401-0.465,0.417l-10.391,0.559c0,0,0.11,2.038,2.83,1.892
			c1.65-0.09,3.475-0.576,4.894-1.337c0.223-0.104,0.421,0.012,0.5,0.233L131.096,153.817z M125.647,145.445
			c-0.074-1.422-1-2.318-2.294-2.248c-1.456,0.079-2.377,1.074-2.302,2.495L125.647,145.445z"/>
		<path clip-path="url(#SVGID_6_)" d="M150.431,136.743c0.291-0.015,0.432,0.203,0.381,0.436l-4.82,17.2
			c-0.084,0.234-0.365,0.476-0.624,0.489l-6.538,0.352c-0.26,0.013-0.527-0.198-0.605-0.423l-6.671-16.582
			c-0.11-0.224,0.04-0.458,0.3-0.472l6.085-0.327c0.289-0.016,0.529,0.167,0.638,0.421l3.095,9.214l2.087-9.493
			c0.048-0.296,0.33-0.474,0.556-0.485L150.431,136.743z"/>
		<path clip-path="url(#SVGID_6_)" d="M168.324,135.781c0.26-0.014,0.501,0.199,0.515,0.457l0.907,16.863
			c0.011,0.229-0.206,0.466-0.464,0.479l-4.144,0.223c-0.257,0.014-0.429-0.202-0.543-0.456l-0.37-0.793
			c-1.139,1.134-2.846,1.937-4.756,2.04c-4.209,0.227-6.844-2.322-7.082-6.723l-0.576-10.716c-0.013-0.259,0.2-0.498,0.459-0.511
			l5.698-0.306c0.259-0.014,0.497,0.199,0.512,0.458l0.532,9.906c0.059,1.099,0.778,1.81,1.814,1.753
			c1.263-0.067,1.919-1.142,1.919-1.142l-0.576-10.717c-0.016-0.259,0.201-0.497,0.458-0.51L168.324,135.781z"/>
		<path clip-path="url(#SVGID_6_)" d="M187.955,150.759c0.075,0.227,0.019,0.357-0.201,0.501c-1.653,1.221-4.111,2.034-6.602,2.168
			c-5.728,0.308-9.751-3.239-10.052-8.836c-0.303-5.632,3.246-9.59,8.879-9.894c5.374-0.29,8.731,3.005,9.049,8.896
			c0.025,0.487,0.02,0.973-0.05,1.461c-0.021,0.261-0.174,0.401-0.466,0.417l-10.389,0.559c0,0,0.109,2.038,2.827,1.891
			c1.651-0.089,3.477-0.574,4.895-1.335c0.222-0.105,0.423,0.011,0.501,0.231L187.955,150.759z M182.505,142.386
			c-0.077-1.421-1.002-2.317-2.296-2.248c-1.458,0.078-2.378,1.073-2.3,2.495L182.505,142.386z"/>
		<path clip-path="url(#SVGID_6_)" d="M196.237,128.597c0.257-0.013,0.497,0.203,0.508,0.428l1.213,22.528
			c0.014,0.259-0.201,0.497-0.459,0.51l-5.7,0.306c-0.258,0.014-0.495-0.199-0.51-0.457l-1.212-22.529
			c-0.01-0.225,0.201-0.466,0.459-0.48L196.237,128.597z"/>
		<path clip-path="url(#SVGID_6_)" d="M185.808,131.58c0.041,0.155,0.013,0.311-0.047,0.325l-6.043,1.561
			c-0.069,0.012-0.168-0.105-0.209-0.261c0,0-0.407-1.422-0.34-1.442l5.558-3.874c0.058-0.017,0.157,0.102,0.194,0.258
			L185.808,131.58z"/>
		<path clip-path="url(#SVGID_6_)" d="M217.125,133.156c0.289-0.015,0.432,0.203,0.378,0.435l-4.818,17.201
			c-0.084,0.233-0.365,0.475-0.623,0.489l-6.536,0.351c-0.26,0.014-0.532-0.196-0.608-0.423l-6.67-16.582
			c-0.109-0.224,0.039-0.458,0.298-0.472l6.087-0.327c0.291-0.016,0.525,0.167,0.641,0.421l3.09,9.215l2.087-9.494
			c0.047-0.296,0.329-0.473,0.56-0.486L217.125,133.156z"/>
		<path clip-path="url(#SVGID_6_)" d="M234.521,148.254c0.074,0.227,0.019,0.357-0.201,0.501c-1.654,1.221-4.111,2.034-6.604,2.169
			c-5.727,0.308-9.748-3.239-10.049-8.837c-0.303-5.632,3.247-9.59,8.88-9.894c5.374-0.29,8.731,3.005,9.049,8.896
			c0.025,0.487,0.021,0.973-0.051,1.461c-0.021,0.261-0.173,0.401-0.467,0.417l-10.389,0.559c0,0,0.11,2.038,2.828,1.891
			c1.65-0.089,3.477-0.574,4.896-1.337c0.223-0.104,0.422,0.013,0.5,0.233L234.521,148.254z M229.071,139.881
			c-0.078-1.421-1.003-2.316-2.297-2.248c-1.456,0.079-2.375,1.073-2.299,2.495L229.071,139.881z"/>
		<path clip-path="url(#SVGID_6_)" d="M247.152,131.541c0.291-0.015,0.495,0.168,0.508,0.428l-0.185,3.156
			c-0.018,0.265-0.199,0.5-0.46,0.515l-2.071,0.11l0.713,13.239c0.014,0.259-0.201,0.496-0.461,0.509l-5.696,0.306
			c-0.259,0.016-0.498-0.197-0.512-0.457l-0.712-13.237l-1.846,0.099c-0.225,0.013-0.461-0.172-0.474-0.43l-0.169-3.141
			c-0.016-0.289,0.198-0.496,0.424-0.507l1.845-0.099l-0.188-3.527c-0.014-0.229,0.203-0.438,0.461-0.48l5.666-0.855
			c0.258-0.047,0.498,0.199,0.511,0.424l0.218,4.079L247.152,131.541z"/>
		<path clip-path="url(#SVGID_6_)" d="M265.296,146.599c0.074,0.227,0.019,0.356-0.201,0.501c-1.654,1.221-4.111,2.033-6.604,2.168
			c-5.728,0.309-9.749-3.238-10.051-8.836c-0.304-5.632,3.248-9.59,8.881-9.894c5.374-0.289,8.731,3.004,9.049,8.896
			c0.025,0.487,0.021,0.973-0.05,1.461c-0.021,0.261-0.174,0.401-0.466,0.417l-10.39,0.558c0,0,0.11,2.039,2.829,1.892
			c1.65-0.089,3.473-0.575,4.894-1.337c0.223-0.104,0.424,0.012,0.5,0.233L265.296,146.599z M259.845,138.226
			c-0.076-1.422-1-2.316-2.295-2.248c-1.455,0.079-2.375,1.074-2.299,2.496L259.845,138.226z"/>
	</g>
</g>
<path fill="#FFFFFF" d="M109.934,131.94c0.256-0.015,0.494,0.203,0.507,0.427l1.211,22.528c0.014,0.26-0.199,0.496-0.458,0.51
	l-4.143,0.224c-0.226,0.012-0.399-0.174-0.546-0.456l-0.399-0.822c-1.171,1.166-3.043,1.978-5.018,2.083
	c-5.114,0.276-8.745-3.292-9.049-8.924c-0.302-5.598,2.927-9.54,8.043-9.813c1.521-0.083,3,0.293,4.013,1.018l-0.323-5.989
	c-0.011-0.225,0.2-0.466,0.461-0.48L109.934,131.94z M104.958,146.913c-0.124-2.33-1.404-3.819-3.187-3.723
	c-1.779,0.096-2.895,1.714-2.771,4.042c0.123,2.268,1.401,3.693,3.184,3.597C103.964,150.734,105.082,149.18,104.958,146.913"/>
<path fill="#FFFFFF" d="M129.864,152.584c0.075,0.227,0.019,0.356-0.199,0.5c-1.657,1.222-4.112,2.034-6.604,2.168
	c-5.729,0.309-9.751-3.238-10.051-8.836c-0.303-5.632,3.251-9.591,8.879-9.893c5.375-0.29,8.733,3.004,9.049,8.894
	c0.027,0.489,0.021,0.974-0.051,1.463c-0.02,0.261-0.174,0.401-0.465,0.417l-10.391,0.558c0,0,0.11,2.039,2.83,1.891
	c1.65-0.089,3.475-0.575,4.895-1.336c0.223-0.104,0.422,0.012,0.499,0.233L129.864,152.584z M124.415,144.211
	c-0.078-1.422-1.002-2.318-2.295-2.248c-1.457,0.078-2.377,1.073-2.302,2.495L124.415,144.211z"/>
<path fill="#FFFFFF" d="M149.197,135.51c0.29-0.015,0.432,0.202,0.381,0.435l-4.819,17.201c-0.086,0.233-0.367,0.475-0.625,0.488
	l-6.539,0.352c-0.258,0.013-0.525-0.196-0.605-0.423l-6.67-16.582c-0.109-0.224,0.041-0.458,0.301-0.473l6.084-0.326
	c0.29-0.017,0.528,0.167,0.637,0.421l3.095,9.213l2.085-9.492c0.051-0.296,0.332-0.474,0.558-0.486L149.197,135.51z"/>
<path fill="#FFFFFF" d="M167.091,134.547c0.259-0.014,0.5,0.199,0.516,0.457l0.905,16.863c0.011,0.229-0.206,0.466-0.464,0.48
	l-4.144,0.222c-0.257,0.014-0.429-0.202-0.543-0.456l-0.368-0.793c-1.138,1.133-2.847,1.936-4.758,2.039
	c-4.208,0.227-6.843-2.321-7.081-6.723l-0.577-10.717c-0.013-0.259,0.2-0.496,0.459-0.51l5.698-0.306
	c0.26-0.014,0.499,0.199,0.512,0.458l0.534,9.906c0.059,1.099,0.777,1.81,1.813,1.754c1.264-0.067,1.92-1.142,1.92-1.142
	l-0.578-10.716c-0.014-0.26,0.202-0.497,0.461-0.511L167.091,134.547z"/>
<path fill="#FFFFFF" d="M186.721,149.525c0.076,0.226,0.019,0.357-0.2,0.501c-1.653,1.222-4.111,2.035-6.603,2.168
	c-5.729,0.309-9.75-3.239-10.052-8.836c-0.303-5.632,3.248-9.59,8.879-9.893c5.374-0.29,8.732,3.004,9.049,8.894
	c0.027,0.488,0.021,0.974-0.05,1.463c-0.02,0.26-0.175,0.402-0.465,0.417l-10.39,0.559c0,0,0.109,2.038,2.828,1.891
	c1.65-0.089,3.476-0.573,4.895-1.334c0.223-0.106,0.424,0.011,0.499,0.232L186.721,149.525z M181.271,141.152
	c-0.076-1.421-1.002-2.315-2.295-2.247c-1.458,0.078-2.377,1.073-2.301,2.494L181.271,141.152z"/>
<path fill="#FFFFFF" d="M195.004,127.363c0.256-0.013,0.496,0.203,0.51,0.428l1.208,22.528c0.017,0.259-0.199,0.497-0.455,0.511
	l-5.701,0.306c-0.258,0.013-0.496-0.199-0.51-0.457l-1.211-22.529c-0.014-0.226,0.201-0.466,0.458-0.48L195.004,127.363z"/>
<path fill="#FFFFFF" d="M184.575,130.347c0.039,0.155,0.011,0.311-0.049,0.325l-6.041,1.561c-0.07,0.012-0.169-0.106-0.209-0.261
	c0,0-0.409-1.422-0.342-1.443l5.558-3.874c0.059-0.017,0.157,0.101,0.194,0.258L184.575,130.347z"/>
<path fill="#FFFFFF" d="M215.891,131.922c0.291-0.015,0.433,0.203,0.379,0.436l-4.819,17.201c-0.083,0.233-0.364,0.475-0.621,0.488
	l-6.537,0.352c-0.261,0.013-0.532-0.196-0.609-0.423l-6.67-16.582c-0.109-0.224,0.039-0.458,0.299-0.473l6.085-0.326
	c0.292-0.017,0.528,0.167,0.642,0.422l3.092,9.213l2.086-9.493c0.048-0.296,0.329-0.474,0.559-0.485L215.891,131.922z"/>
<path fill="#FFFFFF" d="M233.287,147.021c0.075,0.227,0.019,0.357-0.201,0.501c-1.655,1.222-4.111,2.034-6.604,2.168
	c-5.728,0.309-9.748-3.239-10.048-8.836c-0.304-5.632,3.245-9.59,8.878-9.893c5.375-0.29,8.731,3.004,9.049,8.894
	c0.025,0.488,0.021,0.974-0.051,1.463c-0.02,0.261-0.173,0.4-0.465,0.417l-10.389,0.559c0,0,0.109,2.038,2.827,1.891
	c1.651-0.089,3.477-0.573,4.895-1.334c0.223-0.106,0.424,0.011,0.5,0.232L233.287,147.021z M227.837,138.647
	c-0.076-1.421-1.001-2.315-2.296-2.247c-1.455,0.078-2.375,1.073-2.3,2.495L227.837,138.647z"/>
<path fill="#FFFFFF" d="M245.92,130.307c0.289-0.016,0.493,0.169,0.507,0.428l-0.186,3.155c-0.018,0.265-0.201,0.501-0.46,0.515
	l-2.07,0.111l0.713,13.239c0.014,0.258-0.202,0.495-0.461,0.509l-5.695,0.306c-0.261,0.014-0.499-0.199-0.513-0.457l-0.713-13.237
	l-1.845,0.099c-0.226,0.012-0.462-0.171-0.476-0.43l-0.17-3.141c-0.013-0.288,0.2-0.496,0.426-0.508l1.845-0.1l-0.188-3.527
	c-0.012-0.229,0.205-0.436,0.461-0.48l5.666-0.854c0.259-0.048,0.498,0.2,0.511,0.424l0.22,4.079L245.92,130.307z"/>
<path fill="#FFFFFF" d="M264.062,145.365c0.075,0.227,0.02,0.356-0.199,0.5c-1.654,1.222-4.112,2.036-6.606,2.168
	c-5.727,0.309-9.749-3.238-10.05-8.836c-0.303-5.632,3.249-9.589,8.88-9.893c5.374-0.29,8.732,3.004,9.05,8.894
	c0.025,0.489,0.021,0.974-0.051,1.463c-0.02,0.26-0.173,0.403-0.465,0.417l-10.391,0.559c0,0,0.11,2.038,2.83,1.891
	c1.65-0.089,3.473-0.574,4.894-1.335c0.223-0.106,0.424,0.011,0.5,0.232L264.062,145.365z M258.61,136.993
	c-0.074-1.422-1-2.316-2.294-2.248c-1.456,0.078-2.376,1.073-2.3,2.495L258.61,136.993z"/>
</svg>
