<?xml version="1.0" encoding="utf-8"?>
<!-- Generator: Adobe Illustrator 16.0.0, SVG Export Plug-In . SVG Version: 6.00 Build 0)  -->
<!DOCTYPE svg PUBLIC "-//W3C//DTD SVG 1.1//EN" "http://www.w3.org/Graphics/SVG/1.1/DTD/svg11.dtd">
<svg version="1.1" id="Capa_1" xmlns="http://www.w3.org/2000/svg" xmlns:xlink="http://www.w3.org/1999/xlink" x="0px" y="0px"
	 width="306.914px" height="192.5px" viewBox="0 0 306.914 192.5" enable-background="new 0 0 306.914 192.5" xml:space="preserve">
<path fill="#98333F" d="M283.219,113.281c3.281,5.112,2.126,16.538,1.91,20.971c-0.229,4.392-5.014,35.513-18.109,39.8l-0.01-5.985
	l-0.127,0c4.311-6.3,9.614-20.39,12.459-24.953c3.848-6.132,2.053-25.873-4.945-29.707c-0.45-0.25-1.05-0.515-1.765-0.793
	c1.999-0.521,3.72-0.929,4.738-1.659c0,0-0.043-0.28-0.281-0.754C279.479,110.282,281.789,111.047,283.219,113.281"/>
<path fill="#98333F" d="M271.968,132.863l1.713-4.869c-0.308,0.14-5.141,2.442-6.029,6.513c-0.792,3.552-2.238,7.947-9.453,8.085
	c0,0,2.867-7.667-2.521-10.049c1.394-3.094,2.729-6.816,4.233-10.537c1.085-2.688,2.663-4.549,4.437-5.881
	c2.625-2.004,5.688-2.849,8.285-3.51c0.715,0.278,1.316,0.543,1.765,0.793c6.997,3.833,8.794,23.574,4.945,29.706
	c-2.845,4.564-8.147,18.655-12.459,24.954l-7.326,0.013L271.968,132.863z"/>
<path fill="#98333F" d="M277.089,110.202c0.238,0.476,0.28,0.754,0.28,0.754c-1.018,0.73-2.738,1.137-4.737,1.659
	c-0.854-0.348-1.874-0.71-3.036-1.085C271.328,110.967,274.265,110.095,277.089,110.202"/>
<path fill="#98333F" d="M277.089,110.202c-2.824-0.107-5.761,0.766-7.493,1.328c-3.202-1.029-7.47-2.197-12.045-3.35
	c-0.532-0.851-1.417-2.01-2.605-2.792c0.922-0.812,1.899-1.333,2.864-1.389c4.193-0.245,7.974,1.887,6.75-1.648
	C273.724,105.327,276.345,108.722,277.089,110.202"/>
<path fill="#98333F" d="M273.681,127.994l-1.713,4.869c-2.097,0.536-4.317,1.643-4.317,1.643
	C268.54,130.436,273.373,128.135,273.681,127.994"/>
<path fill="#98333F" d="M271.968,132.863l-12.411,35.217l-19.534,0.035l-0.525-4.446l3.188-0.383
	c5.917-5.967,4.698-23.613,4.698-23.613c1.778,0.571,3.272,0.051,4.598-1.224c-0.191,1.706,0.159,3.23,1.698,3.772
	c1.722,0.291,3.219,0.4,4.519,0.37c7.215-0.138,8.661-4.533,9.453-8.085C267.651,134.507,269.871,133.398,271.968,132.863"/>
<path fill="#98333F" d="M269.597,111.528c1.161,0.377,2.182,0.738,3.035,1.086c-2.598,0.661-5.66,1.506-8.285,3.511
	c-0.993-0.363-2.141-0.403-3.441,0.131l-0.041-0.042c2.081-2.213,4.776-3.938,8.257-4.531
	C269.261,111.643,269.429,111.585,269.597,111.528"/>
<path fill="#98333F" d="M257.551,108.18c4.575,1.154,8.843,2.32,12.046,3.349c-0.168,0.057-0.337,0.113-0.476,0.156
	c-3.48,0.593-6.176,2.318-8.257,4.531c-5.513,5.868-6.727,15.183-6.907,15.799c-0.083,0.266-0.53,1.259-0.987,2.519h-0.015
	c0.645-6.504-3.702-5.35-5.49-5.235c-1.805,0.116-2.987,3.319-2.987,3.319c-0.045-0.853-0.045-1.747-0.02-2.684
	c4.85-1.408,4.556-10.453,4.746-13.334c0.148-2.196,1.85-6.506,4.122-9.46C254.753,107.487,256.165,107.833,257.551,108.18"/>
<path fill="#98333F" d="M267.02,174.052l0.033,18.723l-2.881,0.006l-27.448,0.046l-6.028,0.011l-0.036-20.808
	c3.794,1.057,8.434-0.419,9.789-0.421l-0.17-1.371c5.509,0.214,13.354,0.074,18.4,0.345l-1.918,5.429
	c5.371,0.452,10.021-1.877,10.021-1.877C266.866,174.108,266.936,174.08,267.02,174.052"/>
<path fill="#98333F" d="M267.01,168.067l0.012,5.985c-0.086,0.028-0.155,0.056-0.239,0.084c0,0-4.652,2.329-10.023,1.876
	l1.922-5.428c1.943,0.094,3.468,0.26,4.294,0.523c1.091,0.349,2.444-0.884,3.908-3.041H267.01z"/>
<path fill="#98333F" d="M259.557,168.08l7.326-0.012c-1.464,2.155-2.817,3.389-3.908,3.041c-0.826-0.265-2.35-0.429-4.296-0.523
	L259.557,168.08z"/>
<path fill="#98333F" d="M253.305,102.483c2.57-1.389,6.177-1.787,11.255-0.132c1.224,3.535-2.556,1.403-6.752,1.648
	c-0.963,0.059-1.94,0.576-2.863,1.39c-0.727-0.488-1.567-0.822-2.531-0.849c0.097-0.42,0.25-1.049,0.416-1.804
	C252.982,102.651,253.136,102.553,253.305,102.483"/>
<path fill="#98333F" d="M260.907,116.257c1.3-0.534,2.447-0.493,3.439-0.131c-1.774,1.331-3.351,3.192-4.437,5.88
	c-1.504,3.722-2.84,7.443-4.232,10.535c-0.505-0.236-1.063-0.402-1.721-0.526c0.181-0.617,1.395-9.931,6.908-15.8L260.907,116.257z"
	/>
<path fill="#98333F" d="M259.557,168.08l-0.878,2.506c-5.047-0.272-12.893-0.133-18.4-0.346l-0.256-2.126L259.557,168.08z"/>
<path fill="#98333F" d="M250.33,104.935c-0.35,0.406-0.643,0.826-0.921,1.261c-2.196-0.514-4.364-1.014-6.463-1.486
	c1.955-1.36,3.671-3.166,4.592-5.585c1.53-4.017,0.963-8.085-0.649-10.852v-0.013l-0.024-6.111c0.141-0.028,0.279-0.042,0.419-0.042
	c16.233-0.057,17.276,20.245,17.276,20.245c-5.078-1.655-8.685-1.257-11.255,0.132c-0.099-0.294-0.17-0.614-0.212-0.952
	c0.527-2.433,1.096-5.44,0.995-6.615c-0.129-1.607-1.476,3.345-0.995,6.615c-0.084,0.435-0.181,0.84-0.263,1.204
	C251.837,103.353,251.014,104.095,250.33,104.935"/>
<path fill="#98333F" d="M255.677,132.542c5.39,2.381,2.521,10.048,2.521,10.048c-1.299,0.032-2.796-0.078-4.517-0.37
	c-1.54-0.542-1.892-2.065-1.699-3.772C253.336,137.147,254.521,135.061,255.677,132.542"/>
<path fill="#98333F" d="M254.944,105.389c1.19,0.78,2.074,1.94,2.606,2.793c-1.386-0.349-2.798-0.697-4.226-1.043
	C253.843,106.467,254.387,105.878,254.944,105.389"/>
<path fill="#98333F" d="M253.957,132.015c0.658,0.125,1.217,0.292,1.721,0.526c-1.155,2.521-2.341,4.605-3.696,5.908
	c0.109-1.314,0.542-2.742,0.986-3.916C253.427,133.272,253.874,132.28,253.957,132.015"/>
<path fill="#98333F" d="M254.088,94.917c0.101,1.174-0.468,4.181-0.995,6.616C252.612,98.261,253.96,93.308,254.088,94.917"/>
<path fill="#98333F" d="M252.413,104.54c0.965,0.025,1.805,0.359,2.532,0.848c-0.559,0.49-1.104,1.078-1.619,1.751
	c-1.301-0.32-2.616-0.626-3.915-0.945c0.276-0.434,0.569-0.854,0.919-1.26C251.071,104.625,251.771,104.513,252.413,104.54"/>
<path fill="#98333F" d="M253.305,102.483c-0.169,0.07-0.322,0.168-0.476,0.253c0.083-0.365,0.181-0.771,0.264-1.205
	C253.135,101.869,253.206,102.189,253.305,102.483"/>
<path fill="#98333F" d="M247.463,129.298c1.791-0.116,6.137-1.269,5.492,5.235h0.015c-0.446,1.175-0.877,2.601-0.988,3.916
	c-1.325,1.275-2.821,1.794-4.597,1.225c-1.931-0.611-2.746-3.408-2.907-7.057C244.478,132.617,245.661,129.414,247.463,129.298"/>
<path fill="#98333F" d="M252.83,102.735c-0.168,0.755-0.319,1.384-0.417,1.805c-0.643-0.027-1.342,0.085-2.083,0.395
	C251.014,104.095,251.838,103.353,252.83,102.735"/>
<path fill="#98333F" d="M253.325,107.139c-2.273,2.954-3.973,7.264-4.121,9.461c-0.192,2.88,0.104,11.927-4.745,13.333
	c0.026-1.58,0.147-3.244,0.328-4.909c0.618-5.859,1.907-11.749,2.546-14.015c0.419-1.483,1.059-3.219,2.076-4.815
	C250.711,106.514,252.026,106.82,253.325,107.139"/>
<path fill="#98333F" d="M242.946,104.709c2.1,0.472,4.267,0.972,6.465,1.485c-1.02,1.595-1.659,3.331-2.078,4.814
	c-0.639,2.266-1.928,8.156-2.546,14.015c0.259-2.966-0.61-4.054-3.407-4.412c-2.797-0.373-4.779,1.965-4.779,1.965
	c-0.803-4.054-0.94-9.353-0.5-14.793C238.085,107.235,240.67,106.28,242.946,104.709"/>
<path fill="#98333F" d="M246.888,88.273c1.613,2.766,2.181,6.834,0.649,10.849c-0.918,2.422-2.637,4.228-4.591,5.587
	c-2.252-0.513-4.406-0.985-6.337-1.401c0.207-1.566,0.471-3.119,0.774-4.615c0.575-0.042,1.176-0.183,1.832-0.422
	c1.748-0.647,2.976-1.348,3.826-2.063l3.876-0.006L246.888,88.273z"/>
<path fill="#98333F" d="M234.872,125.112l-2.001-16.636c0,0,1.343-0.171,3.229-0.691c-0.438,5.439-0.302,10.739,0.502,14.793
	c0.732,3.76,2.054,6.43,3.997,7.082c1.566,0.53,2.826,0.583,3.859,0.274c-0.025,0.936-0.024,1.832,0.02,2.685
	c0.159,3.649,0.976,6.443,2.906,7.056c0,0,1.22,17.646-4.698,23.613l-3.188,0.382L234.872,125.112z"/>
<path fill="#98333F" d="M246.888,88.273l0.03,7.929l-3.876,0.006c2.139-1.765,1.911-3.625,1.404-5.12
	c-0.393-1.161-1.933-2.737-3.236-3.91c0.461-0.853,0.948-1.623,1.465-2.281c1.65,0.305,3.148,1.546,4.214,3.362L246.888,88.273z"/>
<path fill="#98333F" d="M228.802,43.335c0.188-28.247,19.317-19.876,17.928-14.519c-1.389,5.373,0.068,38.986,0.068,38.986
	l0.066,14.345c-1.537,0.144-2.948,1.138-4.19,2.75c-0.81-0.153-1.65-0.082-2.502,0.255c-0.322,0.126-0.616,0.267-0.896,0.407
	c-4.217,2.174-3.359,5.724-6.433,6.833c-0.686,0.254-1.664,0.577-2.78,0.999l-0.029-16.443
	C230.034,76.949,228.626,71.596,228.802,43.335"/>
<path fill="#98333F" d="M246.865,82.148l0.022,6.11c-1.064-1.816-2.563-3.058-4.213-3.362
	C243.917,83.287,245.327,82.292,246.865,82.148"/>
<path fill="#98333F" d="M241.38,120.611c2.798,0.359,3.666,1.449,3.405,4.414c-0.179,1.665-0.302,3.329-0.327,4.909
	c-1.033,0.309-2.293,0.256-3.859-0.274c-1.944-0.653-3.263-3.321-3.997-7.082C236.602,122.577,238.583,120.238,241.38,120.611"/>
<path fill="#98333F" d="M244.446,91.088c0.507,1.496,0.733,3.354-1.404,5.12l-5.104,0.009c0.848-3.468,1.947-6.604,3.271-9.039
	C242.514,88.351,244.054,89.929,244.446,91.088"/>
<path fill="#98333F" d="M237.94,96.217l5.104-0.008c-0.852,0.714-2.08,1.416-3.828,2.062c-0.656,0.238-1.257,0.381-1.831,0.422
	C237.552,97.854,237.731,97.027,237.94,96.217"/>
<path fill="#98333F" d="M240.172,85.153c0.853-0.337,1.69-0.41,2.502-0.257c-0.516,0.659-1.004,1.429-1.464,2.282
	c-1.05-0.935-1.933-1.618-1.933-1.618C239.557,85.418,239.851,85.279,240.172,85.153"/>
<path fill="#98333F" d="M240.278,170.24l0.169,1.37c-1.355,0.002-5.994,1.479-9.786,0.422l-0.008-3.901l2.755-0.004
	c0.28,0.573,0.463,0.95,0.534,1.103C234.223,169.831,236.768,170.12,240.278,170.24"/>
<path fill="#98333F" d="M240.022,168.115l0.256,2.125c-3.511-0.119-6.056-0.409-6.337-1.01c-0.07-0.153-0.253-0.531-0.533-1.104
	L240.022,168.115z"/>
<path fill="#98333F" d="M239.497,163.669l0.526,4.445l-6.615,0.012c-1.908-3.982-8.085-17.507-9.68-34.507l-0.001-0.014h0.015
	c0.209-0.141,2.024-1.402,3.643-4.201c0,0-0.001-0.014,0.013-0.014c0.489-0.603,1.006-1.246,1.521-1.918
	c0.084-0.125,0.181-0.239,0.252-0.365c2.372-2.297,4.806-2.147,5.7-1.995L239.497,163.669z"/>
<path fill="#98333F" d="M242.946,104.709c-2.276,1.571-4.861,2.526-6.846,3.075c0.122-1.482,0.288-2.994,0.509-4.476
	C238.54,103.725,240.694,104.196,242.946,104.709"/>
<path fill="#98333F" d="M232.416,96.227l-2.349,0.005l-0.006-2.839c1.119-0.421,2.098-0.745,2.782-0.997
	c3.073-1.111,2.216-4.66,6.434-6.835c0,0,0.882,0.685,1.932,1.619c-1.322,2.435-2.423,5.57-3.271,9.038L232.416,96.227z"/>
<path fill="#98333F" d="M232.416,96.227l5.522-0.01c-0.207,0.812-0.388,1.637-0.554,2.476
	C235.021,98.906,233.426,97.595,232.416,96.227"/>
<path fill="#98333F" d="M223.729,133.619c1.595,17,7.771,30.525,9.68,34.507l-2.755,0.004l0.006,3.901
	c-1.44-0.388-2.77-1.154-3.736-2.496c-20.817-45.632-8.727-56.839-7.804-65.007c0.73-6.42,6.807-9.535,10.944-11.136l0.004,2.839
	l2.351-0.005c1.008,1.369,2.604,2.68,4.967,2.466c-0.306,1.497-0.567,3.049-0.774,4.615c-5.455-1.207-9.247-1.982-9.247-1.982
	c-3.967,11.136-4.589,22.31-3.635,32.278V133.619z"/>
<path fill="#98333F" d="M229.171,127.106c-0.601,0.589-1.201,1.331-1.773,2.283c-0.014,0-0.014,0.014-0.014,0.014
	c-1.828,2.227-3.404,3.935-3.642,4.202l-0.014,0c-0.954-9.968-0.331-21.141,3.634-32.279c0,0,3.792,0.776,9.247,1.983
	c-0.222,1.484-0.387,2.994-0.509,4.476c-1.888,0.521-3.229,0.691-3.229,0.691l2.001,16.636
	C233.977,124.958,231.543,124.81,229.171,127.106"/>
<path fill="#98333F" d="M229.171,127.106c-0.071,0.127-0.168,0.238-0.252,0.365c-0.516,0.671-1.032,1.315-1.521,1.918
	C227.97,128.438,228.57,127.695,229.171,127.106"/>
<path fill="#98333F" d="M223.742,133.604c0.236-0.267,1.813-1.975,3.643-4.201C225.767,132.203,223.951,133.465,223.742,133.604"/>
<polyline fill="none" points="148.762,110.904 248.842,210.985 339.845,119.983 "/>
<polyline fill="none" points="339.845,119.983 239.764,19.902 148.762,110.904 "/>
<polyline fill="none" points="148.762,110.904 248.842,210.985 339.845,119.983 "/>
<polyline fill="none" points="339.845,119.983 239.764,19.902 148.762,110.904 "/>
<path fill="#98333F" d="M253.942,37.255c-1.158-0.424-2.515-0.686-3.847-0.883c-2.869-0.429-6.102-0.423-8.618,0.146
	c-1.34,0.303-2.597,0.704-4.047,0.583c-1.314-0.11-2.571-0.649-3.845-0.927c-2.711-0.587-6.019-0.592-8.736-0.192
	c-1.333,0.198-2.732,0.336-3.641,1.055c0.087,0.402-0.155,0.81-0.026,1.302c0.087,0.343,0.645,0.464,0.866,0.775
	c0.534,0.757,0.536,1.925,0.776,2.833c0.228,0.865,0.518,1.927,0.908,2.71c0.855,1.72,2.407,2.576,4.558,2.875
	c0.405,0.007,0.813,0.017,1.219,0.026c3.536-0.49,5.578-2.423,6.72-5.44c0.283-0.754,0.415-2.626,1.237-2.874
	c1.295-0.387,1.499,0.636,1.686,1.635c0.711,3.795,2.934,6.361,6.78,6.999c0.002,0.015,0,0.028,0.002,0.042
	c0.403,0.01,0.81,0.018,1.215,0.029c4.08-0.145,5.136-3.05,5.984-6.424c0.161-0.641,0.33-1.347,0.67-1.751
	c0.22-0.266,0.764-0.319,0.854-0.695c0.015-0.001,0.027,0,0.043,0c0.008-0.434,0.02-0.869,0.028-1.303
	C254.51,37.505,254.251,37.368,253.942,37.255"/>
<path fill="#F1DCCD" d="M253.836,132.688c-0.504-0.236-1.063-0.402-1.722-0.528c-0.084,0.266-0.529,1.259-0.988,2.518
	c-0.446,1.176-0.875,2.605-0.983,3.919c-0.195,1.707,0.157,3.23,1.695,3.771c1.721,0.292,3.217,0.402,4.519,0.372
	C256.356,142.739,259.226,135.069,253.836,132.688"/>
<path fill="#F1DCCD" d="M245.622,129.445c1.791-0.114,6.136-1.27,5.491,5.234l0.014-0.001c-0.447,1.175-0.877,2.604-0.984,3.918
	c-1.329,1.274-2.823,1.796-4.601,1.223c-1.93-0.61-2.745-3.405-2.906-7.055C242.636,132.764,243.818,129.56,245.622,129.445"/>
<path fill="#F1DCCD" d="M239.538,120.757c2.796,0.359,3.666,1.448,3.406,4.414c-0.178,1.664-0.302,3.327-0.328,4.909
	c-1.033,0.309-2.292,0.254-3.86-0.274c-1.944-0.653-3.263-3.321-3.997-7.082C234.759,122.724,236.74,120.383,239.538,120.757"/>
<path fill="#F1DCCD" d="M242.604,91.232c-0.392-1.159-1.934-2.736-3.237-3.907c-1.049-0.95-1.933-1.619-1.933-1.619
	c-4.217,2.175-3.358,5.723-6.434,6.833c-0.685,0.239-1.66,0.564-2.78,0.999l0.005,2.84l2.348-0.007
	c1.011,1.369,2.608,2.682,4.97,2.467c0.573-0.043,1.174-0.184,1.832-0.422c1.746-0.647,2.976-1.348,3.826-2.063
	C243.339,94.589,243.111,92.728,242.604,91.232"/>
<path fill="#EED1B9" d="M283.286,134.396c0.218-4.431,1.372-15.857-1.909-20.97c-1.43-2.233-3.738-2.999-6.13-3.079
	c-0.743-1.481-3.364-4.874-12.529-7.851c0,0-1.042-20.301-17.276-20.245c-0.139,0.001-0.277,0.015-0.418,0.042l-0.068-14.346
	c0,0-1.457-33.612-0.066-38.984c1.39-5.359-17.741-13.729-17.929,14.517c-0.176,28.262,1.232,33.614,1.232,33.614l0.028,16.444
	c1.12-0.435,2.096-0.76,2.78-0.999c3.075-1.107,2.217-4.658,6.434-6.833c0,0,0.884,0.669,1.933,1.619
	c1.304,1.171,2.845,2.748,3.237,3.907c0.507,1.496,0.734,3.357-1.403,5.122c-0.851,0.714-2.079,1.415-3.826,2.063
	c-0.658,0.239-1.259,0.378-1.832,0.422c-2.361,0.214-3.959-1.099-4.97-2.467l-1.415-2.412l-0.938-0.422
	c-4.137,1.601-10.214,4.717-10.944,11.133c-0.922,8.17-13.011,19.377,7.804,65.011c0.967,1.34,2.298,2.108,3.738,2.495l0.036,20.807
	l6.027-0.009l27.45-0.048l2.879-0.005l-0.032-18.723C278.273,169.911,283.059,138.789,283.286,134.396 M238.756,129.806
	c-1.944-0.653-3.263-3.321-3.996-7.082c0,0,1.981-2.339,4.779-1.967c2.795,0.359,3.666,1.448,3.405,4.414
	c-0.178,1.664-0.301,3.328-0.328,4.909C241.583,130.389,240.323,130.334,238.756,129.806 M251.838,142.367
	c-1.538-0.541-1.891-2.064-1.695-3.771c-1.329,1.274-2.823,1.796-4.601,1.224c-1.93-0.611-2.745-3.406-2.906-7.056
	c0,0,1.183-3.206,2.986-3.319c1.791-0.114,6.136-1.27,5.491,5.234l0.013-0.002c0.459-1.258,0.904-2.252,0.988-2.518
	c0.658,0.126,1.218,0.292,1.722,0.528c5.389,2.381,2.521,10.051,2.521,10.051C255.056,142.768,253.559,142.659,251.838,142.367"/>
<path fill="#DBBEA7" d="M245.823,82.64c-0.037-7.661-0.14-15.289-0.386-22.944c-0.212-6.596-0.384-13.199-0.347-19.799
	c0.014-2.484,0.021-4.979,0.205-7.458c0.105-1.399,0.678-3.086,0.349-4.463c-1.719-7.217-12.445-5.417-15.699-0.931
	c-5.286,7.29-3.854,18.458-3.771,26.853c0.062,6.17,0.146,12.37,0.679,18.521c0.6,6.93,0.558,13.794,0.569,20.775
	c0.001,0.536,1.6,1.237,1.598,0.69c-0.026-15.753-1.312-31.357-1.274-47.126c0.016-6.814-0.225-17.678,6.772-21.643
	c3.833-2.17,9.698-0.864,9.452,4.083c-0.501,10.103-0.442,20.146-0.114,30.27c0.245,7.501,0.334,14.977,0.37,22.484
	C244.227,82.486,245.825,83.186,245.823,82.64"/>
<path fill="none" stroke="#DBBDA6" stroke-width="1.353" stroke-linecap="round" stroke-linejoin="round" stroke-miterlimit="10" d="
	M234.26,107.929c-0.438,5.444-0.302,10.743,0.499,14.795c0.734,3.761,2.053,6.429,3.997,7.082c1.569,0.529,2.827,0.583,3.86,0.274"
	/>
<path fill="#DBBDA6" d="M263.539,102.622c-0.324-5.384-2.225-11.236-5.752-15.37c-4.206-4.927-12.705-8.344-17.622-2.78
	c-0.592,0.671,0.838,1.706,1.337,1.141c6.393-7.233,15.685,1.2,18.337,7.804c1.131,2.817,1.874,5.917,2.059,8.956
	C261.942,103.122,263.6,103.61,263.539,102.622"/>
<path fill="#DBBDA6" d="M252.078,101.972c0.41-1.906,0.864-3.854,0.988-5.807c0.052-0.792-0.146-2.532-1.45-2.062
	c-0.729,0.264-0.852,1.765-0.971,2.384c-0.313,1.661-0.434,3.383-0.217,5.063c0.098,0.738,1.769,1.224,1.642,0.253
	c-0.176-1.358-0.085-2.738,0.122-4.088c0.084-0.545,0.184-1.093,0.328-1.627c0.042-0.161,0.115-0.324,0.145-0.487
	c0.042-0.215,0.277-0.31-0.01-0.201c-0.201-0.011-0.399-0.021-0.6-0.032c-1.104-0.392-0.532-0.845-0.625-0.236
	c-0.034,0.221-0.019,0.471-0.038,0.692c-0.047,0.542-0.125,1.081-0.209,1.617c-0.208,1.322-0.478,2.633-0.762,3.941
	C250.263,102.122,251.891,102.835,252.078,101.972"/>
<path fill="#DBBDA6" d="M274.948,108.97c-2.312-4.33-8.646-6.152-12.949-7.362c-6.99-1.967-13.406-0.399-16.444,6.729
	c-3.049,7.149-4.178,16.628-3.751,24.317c0.266,4.751,3.198,11.015,8.407,6.462c0.692-0.605-0.715-1.692-1.327-1.157
	c-4.953,4.328-5.479-5.362-5.434-7.596c0.053-2.521,0.31-5.033,0.65-7.531c0.628-4.614,1.204-10.195,3.346-14.416
	c3.199-6.302,8.853-7.182,15.172-5.27c3.457,1.045,8.932,2.502,10.781,5.969C273.779,109.825,275.462,109.937,274.948,108.97"/>
<path fill="#DBBDA6" d="M271.185,127.049c-1.901,0.931-3.843,2.322-5.01,4.114c-1.692,2.598-1.429,5.912-3.794,8.184
	c-3.23,3.106-12.389,4.201-11.201-2.237c0.457-2.471,1.646-4.751,2.196-7.215c1.64-7.341,5.254-15.342,12.997-17.782
	c4.881-1.54,12.181-4.081,15.261,2.395c1.485,3.129,1.322,7.452,1.295,10.823c-0.076,9.919-1.777,19.722-4.973,29.12
	c-3.866,11.375-10.373,21.083-23.582,20.608c-0.484-0.017,0.78,0.999,1.204,1.014c22.116,0.793,27.751-27.453,28.724-44.825
	c0.583-10.396,0.232-24.451-13.855-21.564c-7.982,1.635-13.4,5.135-16.623,12.878c-1.073,2.58-1.571,5.201-2.29,7.875
	c-0.644,2.384-2.016,4.671-2.12,7.197c-0.238,5.77,6.964,5.791,11.107,4.539c3.115-0.941,4.747-3.182,5.74-6.176
	c1.216-3.663,2.715-6.175,6.348-7.957C272.905,127.893,271.602,126.843,271.185,127.049"/>
<path fill="#DBBDA6" d="M245.68,88.218c-2.105-3.001-5.159-4.948-8.775-3.141c-1.925,0.962-2.749,2.309-3.892,3.998
	c-1.977,2.92-4.53,3.346-7.591,4.805c-4.712,2.244-7.817,5.348-8.968,10.486c-0.39,1.747-0.836,3.408-1.405,5.114
	c-4.859,14.535-2.505,28.846,2.406,43.16c1.141,3.328,2.405,6.615,3.747,9.867c1.171,2.833,2.08,6.609,4.483,8.673
	c3.805,3.265,8.877,1.617,13.274,1.229c1.064-0.093,0.002-1.373-0.707-1.311c-2.363,0.208-4.686,0.976-7.081,0.742
	c-6.327-0.615-8.512-9.235-10.401-14.219c-2.1-5.539-3.933-11.198-5.225-16.984c-1.689-7.575-2.473-15.478-0.951-23.149
	c0.781-3.935,2.376-7.61,3.336-11.488c1.555-6.286,4.861-9.433,10.82-11.834c1.751-0.705,3.438-0.956,4.736-2.409
	c2.847-3.191,5.967-10.242,10.93-3.167C244.876,89.245,246.353,89.177,245.68,88.218"/>
<path fill="#DBBDA6" d="M231.361,109.313c10.337-1.495,20.007-9.959,14.452-20.953c-0.353-0.697-2.022-0.856-1.53,0.117
	c5.183,10.262-4.068,18.074-13.586,19.451C229.61,108.085,230.576,109.427,231.361,109.313"/>
<path fill="#DBBDA6" d="M257.067,109.603c-0.792-1.717-2.089-3.317-3.678-4.345c-0.789-0.51-1.642-0.909-2.574-1.061
	c-0.421-0.067-0.879-0.097-1.308-0.063c-0.356,0.027-1.145,0.43-1.442,0.387c-0.938-0.133,0.322,1.049,0.817,1.119
	c0.363,0.051,1.107-0.295,1.253-0.321c1.133-0.202,2.123,0.067,3.053,0.779c0.989,0.757,1.82,1.955,2.339,3.078
	C255.741,109.636,257.362,110.239,257.067,109.603"/>
<path fill="#DBBDA6" d="M267.663,120.919c-1.647-3.536-5.294-6.471-9.294-5.042c-0.475,0.17,0.84,1.249,1.39,1.051
	c2.929-1.047,5.188,1.061,6.358,3.574C266.336,120.97,267.962,121.565,267.663,120.919"/>
<path fill="#DBBDA6" d="M266.488,135.21c1.813-0.897,4.387-2.158,6.442-1.805c1.157,0.199,0.432-1.12-0.321-1.25
	c-2.509-0.431-5.272,0.854-7.478,1.944C264.476,134.424,265.862,135.519,266.488,135.21"/>
<path fill="#DBBDA6" d="M244.722,139.514c0.481,7.361,0.577,17.696-4.652,23.471c-0.466,0.512,1.033,1.467,1.553,0.896
	c5.305-5.858,5.229-16.32,4.742-23.755C246.317,139.419,244.672,138.759,244.722,139.514"/>
<path fill="#DBBDA6" d="M257.191,142.591c1.908-4.917,0.227-9.885-5.208-11.107c-1.142-0.257-0.545,1.169,0.263,1.351
	c4.275,0.962,4.768,5.319,3.392,8.859C255.34,142.462,256.906,143.321,257.191,142.591"/>
<path fill="#DBBDA6" d="M243.412,133.211c0.269-0.712,0.635-1.417,1.097-2.021c0.719-0.936,1.483-1.042,2.556-1.202
	c0.684-0.101,1.589-0.305,2.258-0.034c1.333,0.539,1.105,2.73,1.019,3.84c-0.065,0.792,1.59,1.462,1.661,0.578
	c0.133-1.664,0.148-3.605-1.135-4.865c-0.896-0.88-2.137-1.11-3.351-1.045c-1.037,0.057-2.515,0.137-3.408,0.694
	c-1.084,0.675-1.807,1.996-2.25,3.159C241.56,133.104,243.125,133.965,243.412,133.211"/>
<path fill="#DBBDA6" d="M236.131,123.23c0.462-0.767,1.218-1.393,2.042-1.719c1.013-0.4,2.473-0.44,3.32,0.295
	c0.853,0.739,0.731,1.954,0.66,3.003c-0.031,0.458,1.55,1.185,1.58,0.72c0.194-2.856-1.108-4.589-3.941-5.166
	c-1.996-0.407-4.109,0.134-5.214,1.969C234.354,122.709,235.895,123.622,236.131,123.23"/>
<path fill="#DBBDA6" d="M228.323,93.466c1.89,5.837,7.15,7.404,12.269,4.34c6.367-3.814,1.453-9.306-2.663-12.475
	c-0.754-0.58-1.929,0.025-0.986,0.751c2.668,2.054,7.27,5.758,4.045,9.231c-1.375,1.481-3.748,2.698-5.781,2.846
	c-2.704,0.199-4.49-2.113-5.243-4.438C229.739,93.031,228.034,92.574,228.323,93.466"/>
<path fill="#DBBDA6" d="M234.942,34.914c-0.431-2.081-2.129-3.731-4.297-3.749c-0.275-0.001,0.367,0.524,0.592,0.525
	c1.636,0.013,2.608,1.384,2.916,2.865C234.204,34.805,234.978,35.086,234.942,34.914"/>
<path fill="#DBBDA6" d="M239.58,34.869c0.341-1.673,1.549-3.087,3.337-3.108c0.546-0.005,0.086-0.715-0.32-0.711
	c-2.039,0.024-3.459,1.614-3.851,3.536C238.665,34.988,239.489,35.326,239.58,34.869"/>
<path fill-rule="evenodd" clip-rule="evenodd" fill="#002E82" d="M225.845,36.775c1.25-0.04,2.502,0.031,3.778,0.167
	c1.929,0.202,3.692,0.374,4.16,1.898c0.353,1.144-0.006,2.873-0.337,3.773c-0.962,2.635-3.235,4.854-6.822,4.513
	c-2.881-0.269-4.047-1.718-4.563-4.511c-0.152-0.819-0.183-1.292-0.243-2.359c-0.036-0.661-0.13-1.818,0.137-2.35
	C222.434,36.943,224.456,36.818,225.845,36.775"/>
<path fill-rule="evenodd" clip-rule="evenodd" fill="#002E82" d="M244.284,37.181c1.104-0.027,2.371,0.018,3.482,0.203
	c1.024,0.172,2.158,0.393,2.499,1.105c0.239,0.513,0.119,1.66,0.028,2.524c-0.242,2.21-0.891,4.874-2.272,5.748
	c-0.756,0.479-1.82,0.726-2.748,0.78c-4.088,0.246-7.138-3.135-7.069-7.174c0.021-1.269,0.444-2.243,1.363-2.701
	c0.568-0.283,1.348-0.304,2.192-0.37C242.574,37.228,243.362,37.206,244.284,37.181"/>
<path fill-rule="evenodd" clip-rule="evenodd" fill="#001A5A" d="M252.881,37.917c-0.01,0.433-0.019,0.867-0.026,1.301
	c-0.016,0.001-0.028,0.001-0.043,0c-0.089,0.378-0.635,0.432-0.855,0.698c-0.339,0.402-0.509,1.107-0.671,1.747
	c-0.848,3.376-1.903,6.282-5.98,6.425c-0.408-0.01-0.813-0.018-1.22-0.028c0-0.014,0.003-0.026,0.003-0.041
	c-3.849-0.637-6.068-3.204-6.78-6.999c-0.189-1-0.394-2.025-1.688-1.637c-0.824,0.247-0.955,2.12-1.24,2.874
	c-1.14,3.017-3.18,4.95-6.716,5.44c-0.408-0.01-0.813-0.02-1.221-0.028c-2.146-0.296-3.701-1.151-4.558-2.875
	c-0.392-0.782-0.679-1.843-0.906-2.707c-0.24-0.91-0.243-2.077-0.779-2.834c-0.22-0.31-0.775-0.431-0.865-0.775
	c-0.128-0.491,0.113-0.901,0.029-1.301c0.906-0.721,2.308-0.857,3.639-1.055c2.717-0.402,6.029-0.395,8.736,0.193
	c1.273,0.278,2.532,0.817,3.845,0.926c1.447,0.119,2.704-0.281,4.047-0.583c2.519-0.568,5.748-0.574,8.616-0.147
	c1.334,0.199,2.69,0.459,3.849,0.883C252.406,37.512,252.662,37.645,252.881,37.917 M221.954,37.907
	c-0.266,0.532-0.173,1.689-0.136,2.351c0.06,1.067,0.09,1.539,0.242,2.358c0.518,2.793,1.683,4.243,4.563,4.511
	c3.587,0.341,5.863-1.877,6.822-4.513c0.33-0.901,0.689-2.63,0.337-3.773c-0.469-1.525-2.231-1.696-4.16-1.898
	c-1.277-0.135-2.528-0.207-3.778-0.167C224.457,36.819,222.434,36.942,221.954,37.907 M241.759,37.295
	c-0.842,0.067-1.623,0.087-2.192,0.37c-0.918,0.458-1.341,1.432-1.362,2.701c-0.067,4.04,2.981,7.419,7.067,7.174
	c0.932-0.052,1.994-0.3,2.752-0.779c1.38-0.873,2.03-3.538,2.269-5.749c0.094-0.862,0.213-2.01-0.026-2.522
	c-0.342-0.713-1.475-0.934-2.499-1.106c-1.111-0.185-2.377-0.229-3.482-0.203C243.361,37.205,242.574,37.229,241.759,37.295"/>
<path fill="#FFFFFF" d="M240.716,47.976c0,0-1.811,2.188-5.47,2.279c-3.655,0.192-5.707-1.846-5.707-1.846
	c-0.364-0.397-1.592-0.046-0.956,2.888c1.186,6.633,6.896,5.99,6.896,5.99s6.167,0.219,6.417-6.506
	C241.954,48.704,241.497,47.439,240.716,47.976"/>
<path fill="#626266" d="M240.38,47.782c-2.062,2.372-6.154,2.799-8.911,1.615c-0.593-0.255-1.848-1.585-2.664-1.339
	c-1.854,0.557-0.167,4.902,0.313,5.813c0.805,1.522,2.104,2.681,3.727,3.263c2.169,0.776,4.927,0.539,6.829-0.813
	c2.171-1.544,3.112-4.804,2.429-7.339c-0.223-0.831-0.738-1.643-1.686-1.237c-0.235,0.101,0.353,0.567,0.597,0.462
	c0.712-0.304,0.38,3.842,0.354,3.972c-0.281,1.298-0.889,2.513-1.909,3.384c-1.048,0.892-2.405,1.343-3.762,1.457
	c-3.602,0.305-6.081-2.101-6.752-5.6c-0.09-0.474-0.557-2.724,0.328-2.882c0.175-0.03,0.52,0.349,0.714,0.473
	c1.015,0.647,2.071,1.121,3.263,1.352c2.629,0.508,5.965-0.078,7.802-2.193C241.209,47.987,240.568,47.566,240.38,47.782"/>
<path fill="#626266" d="M230.334,54.943c0.129-1.532,0.288-3.658,1.376-4.834c0.156-0.169-0.478-0.597-0.672-0.386
	c-1.099,1.186-1.272,3.391-1.403,4.935C229.615,54.91,230.31,55.23,230.334,54.943"/>
<path fill="#626266" d="M233.672,50.041c-0.945,2.059-1,4.584-0.734,6.783c0.024,0.215,0.704,0.48,0.684,0.31
	c-0.262-2.179-0.215-4.665,0.723-6.704C234.433,50.237,233.748,49.875,233.672,50.041"/>
<path fill="#626266" d="M235.872,50.034c0.188,2.327,0.398,4.655,0.549,6.984c0.016,0.253,0.711,0.544,0.695,0.291
	c-0.15-2.331-0.359-4.659-0.548-6.986C236.549,50.07,235.852,49.783,235.872,50.034"/>
<path fill="#626266" d="M238.642,49.486c0.393,1.981,0.9,4.132,0.77,6.161c-0.016,0.24,0.678,0.559,0.695,0.291
	c0.13-2.027-0.378-4.178-0.77-6.16C239.287,49.531,238.599,49.268,238.642,49.486"/>
<path fill="#626266" d="M228.246,51.122c3.681,4.288,9.633,3.244,13.685,0.165c0.281-0.215-0.338-0.673-0.586-0.485
	c-3.638,2.766-9.159,4.107-12.552,0.156C228.572,50.699,227.916,50.737,228.246,51.122"/>
<path fill="#DBBEA7" d="M228.692,115.112c0.899,5.978-1.985,13.791-6.369,17.922c0.497,0.23,0.996,0.46,1.493,0.691
	c-0.259-4.097,6.091-5.888,8.998-7.312c0.899-0.44-0.326-1.659-1.026-1.316c-3.473,1.7-9.933,3.559-9.626,8.396
	c0.035,0.543,1.052,1.104,1.493,0.691c4.636-4.368,7.644-12.514,6.69-18.841C230.231,114.576,228.545,114.127,228.692,115.112"/>
<path fill="#DBBDA6" d="M230.158,191.85c-0.354-2.833-0.229-5.873-0.367-8.744c-0.146-3.023-0.099-6.09,0.165-9.106
	c0.071-0.805-1.587-1.471-1.667-0.572c-0.255,2.944-0.285,5.921-0.182,8.873c0.109,3.076,0.009,6.287,0.392,9.33
	C228.598,192.418,230.283,192.851,230.158,191.85"/>
<path fill="#DBBDA6" d="M263.958,173.841c-0.449,5.807,0.262,11.702,0.105,17.522c-0.016,0.545,1.584,1.262,1.6,0.683
	c0.158-5.822-0.554-11.716-0.104-17.523C265.602,173.987,264.005,173.243,263.958,173.841"/>
<path d="M46.243,67.874l-0.032-0.517l6.069-0.852c0.133-0.007,0.774-0.125,0.869,0.103c0.102,0.803,0.359,1.542,0.408,2.323
	l0.021,0.364c-0.164,0.321-3.484,0.556-4.095,0.775l0.013,0.235c0.017,0.233,0.48,6.405,1.105,6.367l3.602-0.743
	c0.022-0.003,0.102-0.036,0.127-0.036l0.744,2.716l-4.328,0.818l0.021,0.337c0.081,1.326,0.28,2.743,0.485,4.01
	c0.018,0.259,0.092,0.619,0.404,0.602c0.441-0.03,3.396-0.737,4.146-0.809c0.258-0.019,0.326,0.241,0.366,0.445
	c0.137,0.516,0.411,1.592,0.451,2.215c0.005,0.052,0.067,0.254-0.061,0.289c-1.349,0.11-2.521,0.499-6.527,1.01
	c-0.027,0.025-0.595,0.114-0.623,0.115c-0.024,0.003-0.101,0.035-0.124,0.036c-0.47,0.028-0.534-0.985-0.573-1.215L46.243,67.874z"
	/>
<path d="M55.916,70.369c-0.03-0.443-0.139-2.623-0.166-3.063c-0.003-0.028,0.086-0.242,0.137-0.27
	c0.826-0.185,1.811-0.271,2.667-0.326l0.205-0.013l0.089,0.153l0.918,14.643c0.021,0.313,0.147,1.11,0.151,1.138l0.087,0.152
	l0.311-0.022c1.195-0.073,2.478-0.441,3.6-0.799l0.129-0.008c0.729-0.044,0.681,2.145,0.708,2.561l0.023,0.365
	c-0.262,0.406-2.714,0.769-3.099,0.844c-0.23,0.067-2.191,0.426-2.449,0.493l-1.354,0.425c-0.052,0.003-0.362,0.047-0.466,0.053
	c-0.051,0.003-0.261-0.01-0.288-0.005l-0.089-0.178L55.916,70.369z"/>
<path d="M71.144,56.896c0.073-0.275,0.036-0.867,0.302-1.021l2.762-0.266c3.634-0.225,7.778,1.108,10.653,3.302
	c0.048,0.043,0.24,0.213,0.241,0.26c2.813,1.967,4.38,8.023,4.594,11.475c0.551,8.77-0.259,19.123-10.979,20.524l-6.036,0.469
	l-0.1-0.127L71.144,56.896z M78.356,86.131l0.181-0.014c5.964-0.919,6.122-7.039,5.832-11.719l-0.08-1.272
	c-0.347-5.54-1.161-9.821-5.637-12.821c-0.288-0.21-0.713-0.46-1.12-0.433l-0.274,0.017c-0.153,2.654,0.433,19.991,0.76,25.944
	C78.035,86.105,78.127,86.146,78.356,86.131"/>
<path d="M91.618,57.714l-0.058-0.909l10.624-1.486c0.225-0.017,1.352-0.225,1.516,0.176c0.178,1.404,0.627,2.697,0.711,4.059
	l0.04,0.636c-0.286,0.566-6.099,0.976-7.167,1.363l0.026,0.409c0.024,0.408,0.837,11.211,1.93,11.143l6.302-1.31
	c0.044-0.004,0.178-0.056,0.226-0.061l1.301,4.754l-7.571,1.434l0.035,0.588c0.146,2.318,0.483,4.805,0.848,7.016
	c0.032,0.457,0.162,1.084,0.706,1.049c0.771-0.048,5.941-1.283,7.251-1.412c0.458-0.029,0.577,0.42,0.645,0.78
	c0.238,0.898,0.724,2.784,0.79,3.874c0.007,0.092,0.118,0.449-0.104,0.508c-2.355,0.194-4.415,0.869-11.428,1.764
	c-0.041,0.049-1.035,0.205-1.079,0.206c-0.048,0.003-0.18,0.057-0.225,0.06c-0.817,0.051-0.929-1.721-1.002-2.127L91.618,57.714z"/>
<path d="M111.06,54.396c0.071-0.277,0.035-0.867,0.299-1.021l2.766-0.266c3.635-0.226,7.779,1.111,10.65,3.302
	c0.048,0.043,0.239,0.214,0.244,0.259c2.815,1.966,4.379,8.023,4.599,11.474c0.548,8.77-0.266,19.125-10.983,20.525l-6.035,0.47
	l-0.099-0.13L111.06,54.396z M118.271,83.631l0.181-0.013c5.963-0.918,6.127-7.042,5.833-11.718l-0.08-1.274
	c-0.347-5.542-1.162-9.821-5.637-12.825c-0.284-0.208-0.711-0.457-1.121-0.433l-0.271,0.019c-0.156,2.657,0.434,19.991,0.76,25.944
	C117.95,83.604,118.045,83.644,118.271,83.631"/>
<path d="M131.716,55.932c0.46-0.67,2.129-0.957,5.251-1.334c0.603,0.145,0.868,0.765,1.003,1.399
	c-0.163-3.276,2.34,21.327,2.931,30.776l0.04,0.637l-0.175,0.146c0.006,0.048-0.897,0.195-1.261,0.219
	c-1.214,0.304-2.505,0.063-3.718,0.367l-0.182,0.012c-1.167-3.347-3.036-20.831-3.872-29.76l-0.04-0.635
	C131.647,57.028,131.628,56.711,131.716,55.932"/>
<path d="M146.05,59.09c-0.113-0.313-0.428-0.25-0.7-0.231c-1.002,0.064-1.935,0.396-2.979,0.462
	c-0.185,0.009-0.465-0.108-0.482-0.381l-0.347-5.543l14.807-0.927l0.39,6.179l-5.135,0.32l-0.121,0.237l0.179,2.862
	c0.928,8.241,2.04,16.563,2.562,24.873c0.03,0.456-0.038,0.822-0.483,0.988l-4.451,0.28c-0.321,0.022-0.461-0.063-0.57-0.375
	C148.066,78.209,146.877,68.657,146.05,59.09"/>
<path d="M168.075,51.191c7.221-0.455,9.319,8.26,9.619,18.136c0.186,6.601,0.195,18.409-8.66,18.966
	c-4.271,0.267-8.667-3.65-9.672-8.059c-1.011-4.494-1.44-9.166-1.152-14.017c0.276-5.034,1.31-9.658,5.049-13.312
	C164.55,51.686,166.168,51.309,168.075,51.191 M167.161,82.437c2.531,1.118,4.258-1.177,4.764-3.264
	c0.113-0.416,0.451-2.307,0.646-11.53l-0.049-0.816c-1.231-19.623-9.823-11.197-8.842,4.428l0.101,1.637
	C164.057,77.295,164.346,81.198,167.161,82.437"/>
<path d="M49.531,111.363l-0.021-0.328c-0.051-0.824,1.524-1.293,2.137-1.413c0.49-0.111,1.994-0.412,2.115-0.422l0.334-0.019
	c4.314-0.271,8.142,0.931,8.469,6.148c0.107,1.727-0.155,3.477-1.436,4.75c-0.155,0.136-1.329,1.159-1.445,1.291l-0.109,0.209
	c0.998,0.146,1.82,0.095,2.787,0.364c4.023,1.026,6.203,5.551,6.458,9.618c0.106,1.686-0.197,4.057-1.523,5.292
	c-3.616,2.207-8.075,4.138-12.636,4.422c-0.081,0.005-0.41-0.013-0.493-0.009c-0.378-0.099-0.367-1.214-0.426-1.502L49.531,111.363z
	 M58.044,116.233c-0.15-2.38-0.703-3.298-3.127-3.145l-0.699,0.043c-0.08,0.046-0.199,0.095-0.273,0.223l1.021,6.372
	C57.167,120.044,58.171,118.245,58.044,116.233 M57.329,131.168c0.133,0.815,0.829,4.651,0.921,5.468l0.41-0.025
	c1.702-0.517,3.408-0.914,4.456-2.63c0.267-0.965,0.241-1.376,0.197-2.158l-0.02-0.245c-0.23-3.697-1.731-5.917-5.798-5.66
	c-0.163,0.01-0.938,0.143-1.1,0.234C56.499,127.838,57.02,129.539,57.329,131.168"/>
<path d="M70.978,141.656c0.032-2.807,0.048-5.82-0.173-22.512c-0.075-7.791,1.765-11.328,6.53-11.625
	c0.288-0.02,0.616-0.041,0.95-0.021c4.311-0.27,5.435,4.486,5.771,7.85l0.013,0.204c0.095,0.9,0.35,2.987,1.318,24.293l-0.278,0.223
	l-1.645,0.105c-0.657,0.04-1.309,0.125-2.067-0.078c-0.065-0.407-0.228-2.337-1.259-10.274l-0.288,0.019
	c-1.482,0.092-2.993,0.313-5.008,0.439c-0.046,1.856,0.113,3.745,0.914,11.285c0,0-0.104,0.296-0.188,0.299l-4.437,0.277
	c-0.164,0.012-0.139-0.237-0.142-0.278L70.978,141.656z M75.227,126.541l0.096,0.2c0.043,0.039,1.443-0.009,4.403-0.153
	c0.122-0.048,0.112-0.212,0.104-0.335l-0.013-8.085l-0.043-0.696c-0.347-5.507-4.826-6.585-4.915-0.105
	c-0.041,2.645-0.002,3.918,0.182,6.794C75.067,124.653,75.214,126.337,75.227,126.541"/>
<path d="M86.367,109.468c0.414-0.603,1.926-0.863,4.749-1.203c0.543,0.128,0.788,0.691,0.902,1.263
	c-0.142-2.964,2.118,19.292,2.654,27.841l0.035,0.572l-0.157,0.134c0.003,0.04-0.813,0.174-1.142,0.196
	c-1.098,0.274-2.267,0.059-3.363,0.335l-0.164,0.008c-1.056-3.025-2.746-18.843-3.502-26.92l-0.033-0.576
	C86.306,110.461,86.286,110.174,86.367,109.468"/>
<path d="M95.625,113.138c-0.039-0.699-0.216-4.155-0.261-4.85c-0.001-0.043,0.144-0.383,0.222-0.427
	c1.302-0.291,2.858-0.428,4.215-0.514l0.33-0.021l0.137,0.239l1.454,23.174c0.027,0.493,0.232,1.757,0.234,1.799l0.137,0.24
	l0.498-0.031c1.889-0.119,3.914-0.7,5.695-1.266l0.205-0.013c1.148-0.071,1.08,3.398,1.12,4.056l0.036,0.574
	c-0.417,0.644-4.297,1.219-4.907,1.339c-0.365,0.106-3.465,0.672-3.87,0.779l-2.144,0.669c-0.085,0.006-0.573,0.08-0.738,0.089
	c-0.081,0.006-0.413-0.017-0.455-0.013l-0.143-0.279L95.625,113.138z"/>
<path d="M112.388,139.063c0.03-2.807,0.049-5.823-0.172-22.512c-0.078-7.791,1.764-11.33,6.53-11.628
	c0.286-0.019,0.614-0.039,0.948-0.018c4.313-0.271,5.437,4.485,5.772,7.846l0.013,0.204c0.095,0.901,0.352,2.991,1.312,24.295
	l-0.271,0.225l-1.645,0.103c-0.657,0.042-1.312,0.124-2.069-0.078c-0.064-0.407-0.229-2.336-1.261-10.275l-0.286,0.019
	c-1.479,0.095-2.991,0.313-5.007,0.439c-0.048,1.858,0.114,3.748,0.915,11.285c0,0-0.106,0.297-0.186,0.298l-4.438,0.28
	c-0.167,0.009-0.138-0.239-0.142-0.28L112.388,139.063z M116.638,123.946l0.096,0.202c0.043,0.037,1.443-0.011,4.403-0.154
	c0.122-0.049,0.112-0.213,0.102-0.337l-0.01-8.083l-0.046-0.699c-0.344-5.506-4.824-6.584-4.912-0.104
	c-0.043,2.643-0.003,3.92,0.178,6.794C116.479,122.06,116.627,123.741,116.638,123.946"/>
<path d="M133.478,121.53c-0.003-0.082-0.142-0.321-0.347-0.308c-0.365,4.065,1.088,10.78,1.411,15.295
	c0.009,0.125,0.084,0.658,0.09,0.78l-4.602,0.287l-0.259-0.188c-0.005-0.04-0.146-1.025-0.172-1.435
	c-0.204-1.925-0.364-3.809-1.729-30.868l0.038-1.362c-0.033-0.535,6.319-0.52,8.011-0.501c0.166-0.011,0.291,0.023,0.372,0.016
	c3.383-0.005,5.795,2.979,6.479,5.988c0.02,0.247,0.127,1.313,0.14,1.556c0.257,4.071-1.496,5.747-5.378,6.979
	c0.209,0.688,0.503,1.416,0.625,2.066l6.142,15.082l0.058,0.864c0.005,0.122-2.887,1.333-3.257,1.358L133.478,121.53z
	 M132.94,114.924c2.795-0.175,4.771-0.918,4.563-4.165c-0.132-2.137-2.25-3.033-4.182-2.913l-0.576,0.036
	c-0.598,0.325-0.24,2.737-0.391,6.251l0.025,0.411C132.406,114.956,132.449,114.956,132.94,114.924"/>
<path d="M145.194,105.782c0.416-0.605,1.927-0.864,4.75-1.204c0.548,0.13,0.785,0.69,0.906,1.263
	c-0.145-2.963,2.116,19.295,2.65,27.84l0.037,0.576l-0.158,0.132c0.004,0.041-0.815,0.177-1.143,0.197
	c-1.096,0.275-2.265,0.06-3.36,0.333l-0.167,0.009c-1.055-3.026-2.746-18.841-3.5-26.918l-0.033-0.577
	C145.134,106.775,145.114,106.487,145.194,105.782"/>
<path d="M176.308,133.035c-1.105,0.111-2.33,0.311-3.581,0.101l-13.04-21.828c-0.041,0.001-0.117,0.089-0.114,0.131
	c0.07,1.11,0.191,0.399,3.78,22.16l0.03,0.494c-0.39,0.354-1.027,0.063-4.876,0.552l-0.127-0.114
	c-0.05-0.081-0.684-3.632-0.896-5.062l-2.864-21.97c-0.054-0.245-0.459-3.395-0.55-4.172l-0.015-0.286
	c-0.011-0.124,0.101-0.338,0.101-0.338c5.284,0.039,5.284,0.039,5.32,0.038c1.527-0.095,7.624,12.969,11.23,19.218
	c0.235-1.5-1.209-19.971,0.064-20.05c0.454-0.03,1.847-0.155,4.172,0.109c0.137,0.196,0.14,0.282,0.157,0.526l0.011,0.165
	c-0.173,2.484-0.038,4.663,1.099,24.804l0.175,2.793"/>
<path d="M147.441,100.691c-0.479-0.606-0.501-0.879-0.073-1.269c0.149-0.118,0.676-0.632,0.993-0.787
	c1.613-1.427,7.042-5.586,9.292-7.269c0.312-0.1,0.463,0.025,0.755,0.334l1.275,1.488c0.121,0.149,0.435,0.488,0.312,0.637
	c-0.035,0.079-0.316,0.347-0.428,0.389c-2.339,2-5.677,4.159-10.562,8.324C148.396,101.896,147.913,101.347,147.441,100.691"/>
<polyline fill="none" points="214.794,94.551 116.902,-3.34 13.21,100.353 111.101,198.242 214.794,94.551 "/>
<path fill="#FFFFFF" d="M46.243,69.048l-0.032-0.518l6.071-0.852c0.131-0.009,0.774-0.126,0.867,0.102
	c0.102,0.803,0.359,1.542,0.408,2.322l0.02,0.364c-0.163,0.321-3.483,0.558-4.094,0.777l0.013,0.234
	c0.017,0.233,0.48,6.406,1.105,6.367l3.602-0.743c0.024-0.003,0.102-0.035,0.127-0.038l0.744,2.717L50.746,80.6l0.022,0.335
	c0.079,1.329,0.278,2.746,0.485,4.013c0.016,0.257,0.09,0.618,0.402,0.6c0.441-0.029,3.396-0.736,4.146-0.809
	c0.258-0.018,0.324,0.239,0.366,0.446c0.137,0.516,0.411,1.591,0.451,2.214c0.005,0.052,0.068,0.255-0.061,0.289
	c-1.35,0.113-2.521,0.499-6.53,1.01c-0.025,0.025-0.592,0.114-0.62,0.116c-0.024,0.003-0.101,0.033-0.126,0.034
	c-0.468,0.028-0.532-0.982-0.571-1.213L46.243,69.048z"/>
<path fill="#FFFFFF" d="M55.916,71.544c-0.029-0.442-0.14-2.623-0.167-3.064c-0.002-0.027,0.087-0.24,0.138-0.269
	c0.824-0.185,1.811-0.272,2.667-0.326l0.207-0.014l0.087,0.153l0.92,14.643c0.019,0.312,0.146,1.113,0.149,1.139l0.086,0.151
	l0.312-0.021c1.195-0.074,2.479-0.441,3.6-0.8l0.129-0.007c0.729-0.045,0.681,2.146,0.708,2.562l0.022,0.363
	c-0.261,0.408-2.713,0.771-3.098,0.847c-0.23,0.067-2.191,0.425-2.447,0.49l-1.354,0.426c-0.054,0.003-0.366,0.047-0.469,0.052
	c-0.05,0.004-0.26-0.009-0.285-0.005l-0.091-0.177L55.916,71.544z"/>
<path fill="#FFFFFF" d="M71.144,58.07c0.073-0.277,0.036-0.868,0.3-1.021l2.764-0.266c3.634-0.227,7.776,1.107,10.653,3.301
	c0.048,0.042,0.24,0.214,0.241,0.258c2.813,1.968,4.38,8.024,4.594,11.477c0.551,8.769-0.259,19.122-10.977,20.522l-6.038,0.471
	l-0.1-0.13L71.144,58.07z M78.356,87.304l0.181-0.011c5.964-0.919,6.124-7.04,5.83-11.72l-0.078-1.272
	c-0.347-5.54-1.164-9.821-5.639-12.825c-0.286-0.206-0.709-0.457-1.119-0.432l-0.272,0.019c-0.154,2.655,0.432,19.991,0.759,25.945
	C78.035,87.28,78.127,87.319,78.356,87.304"/>
<path fill="#FFFFFF" d="M91.618,58.885l-0.058-0.906l10.624-1.487c0.227-0.014,1.352-0.224,1.516,0.177
	c0.178,1.402,0.627,2.695,0.711,4.058l0.04,0.638c-0.285,0.566-6.099,0.976-7.169,1.361l0.028,0.411
	c0.024,0.408,0.839,11.21,1.926,11.141l6.306-1.308c0.048-0.004,0.178-0.057,0.226-0.06l1.301,4.751l-7.571,1.435l0.035,0.59
	c0.146,2.318,0.483,4.802,0.85,7.014c0.03,0.458,0.16,1.086,0.704,1.052c0.771-0.05,5.941-1.284,7.255-1.412
	c0.454-0.03,0.573,0.419,0.641,0.78c0.238,0.897,0.722,2.782,0.79,3.873c0.007,0.092,0.119,0.448-0.104,0.509
	c-2.357,0.192-4.415,0.867-11.428,1.763c-0.041,0.049-1.036,0.203-1.079,0.205c-0.05,0.003-0.18,0.057-0.226,0.059
	c-0.817,0.051-0.929-1.72-0.999-2.125L91.618,58.885z"/>
<path fill="#FFFFFF" d="M111.06,55.57c0.071-0.278,0.036-0.87,0.299-1.022l2.766-0.264c3.635-0.228,7.779,1.106,10.649,3.3
	c0.048,0.042,0.243,0.213,0.245,0.26c2.815,1.965,4.381,8.021,4.597,11.474c0.546,8.767-0.264,19.124-10.983,20.524l-6.033,0.468
	l-0.102-0.129L111.06,55.57z M118.271,84.804l0.181-0.011c5.963-0.921,6.127-7.041,5.833-11.719l-0.08-1.273
	c-0.347-5.543-1.162-9.823-5.637-12.826c-0.284-0.208-0.711-0.457-1.121-0.433l-0.271,0.018c-0.154,2.657,0.434,19.991,0.76,25.945
	C117.95,84.777,118.045,84.817,118.271,84.804"/>
<path fill="#FFFFFF" d="M131.716,57.104c0.46-0.67,2.131-0.957,5.254-1.332c0.6,0.143,0.868,0.763,1,1.397
	c-0.163-3.276,2.335,21.327,2.931,30.776l0.038,0.636l-0.172,0.146c0.005,0.048-0.898,0.196-1.262,0.219
	c-1.214,0.303-2.505,0.064-3.718,0.367l-0.182,0.012c-1.167-3.346-3.036-20.831-3.872-29.761l-0.04-0.635
	C131.647,58.201,131.628,57.884,131.716,57.104"/>
<path fill="#FFFFFF" d="M146.05,60.264c-0.113-0.313-0.428-0.248-0.7-0.231c-1.002,0.063-1.935,0.397-2.979,0.462
	c-0.183,0.009-0.465-0.106-0.48-0.381l-0.349-5.542l14.807-0.927l0.39,6.178l-5.135,0.32l-0.121,0.235l0.179,2.864
	c0.928,8.242,2.04,16.563,2.563,24.872c0.029,0.456-0.039,0.824-0.484,0.99l-4.451,0.278c-0.319,0.021-0.463-0.063-0.57-0.375
	C148.067,79.38,146.877,69.831,146.05,60.264"/>
<path fill="#FFFFFF" d="M168.073,52.365c7.223-0.455,9.321,8.261,9.621,18.137c0.186,6.6,0.195,18.409-8.66,18.965
	c-4.271,0.268-8.667-3.651-9.672-8.059c-1.013-4.495-1.44-9.167-1.151-14.018c0.275-5.032,1.309-9.657,5.048-13.311
	C164.55,52.858,166.168,52.482,168.073,52.365 M167.161,83.61c2.531,1.116,4.258-1.177,4.764-3.264
	c0.114-0.416,0.451-2.308,0.646-11.531l-0.051-0.818c-1.229-19.621-9.821-11.196-8.84,4.43l0.099,1.636
	C164.057,78.47,164.346,82.372,167.161,83.61"/>
<path fill="#FFFFFF" d="M49.529,112.536l-0.019-0.326c-0.053-0.823,1.526-1.295,2.137-1.413c0.49-0.112,1.994-0.412,2.12-0.423
	l0.327-0.02c4.313-0.268,8.144,0.932,8.471,6.148c0.107,1.729-0.155,3.478-1.433,4.753c-0.158,0.135-1.334,1.155-1.446,1.288
	l-0.111,0.211c0.998,0.145,1.82,0.096,2.785,0.362c4.025,1.027,6.205,5.552,6.458,9.616c0.108,1.687-0.198,4.057-1.521,5.293
	c-3.614,2.208-8.075,4.138-12.636,4.422c-0.081,0.006-0.412-0.015-0.493-0.008c-0.378-0.102-0.367-1.215-0.426-1.503L49.529,112.536
	z M58.044,117.407c-0.15-2.381-0.703-3.298-3.127-3.146l-0.699,0.043c-0.08,0.048-0.199,0.094-0.273,0.224l1.021,6.369
	C57.167,121.216,58.171,119.419,58.044,117.407 M57.329,132.342c0.133,0.816,0.829,4.652,0.92,5.471l0.411-0.026
	c1.702-0.517,3.408-0.915,4.454-2.632c0.269-0.964,0.243-1.375,0.199-2.156l-0.02-0.246c-0.231-3.698-1.731-5.916-5.798-5.661
	c-0.163,0.012-0.939,0.144-1.1,0.237C56.499,129.012,57.02,130.712,57.329,132.342"/>
<path fill="#FFFFFF" d="M70.978,142.831c0.032-2.808,0.048-5.822-0.172-22.514c-0.076-7.79,1.766-11.327,6.529-11.625
	c0.288-0.02,0.616-0.039,0.95-0.02c4.313-0.271,5.435,4.485,5.771,7.848l0.013,0.204c0.095,0.902,0.35,2.989,1.318,24.295
	l-0.278,0.223l-1.645,0.105c-0.657,0.042-1.309,0.125-2.065-0.078c-0.067-0.408-0.229-2.336-1.261-10.274l-0.288,0.019
	c-1.482,0.092-2.994,0.312-5.008,0.439c-0.048,1.855,0.113,3.745,0.914,11.282c0,0-0.106,0.297-0.186,0.301l-4.439,0.278
	c-0.164,0.011-0.141-0.239-0.142-0.28L70.978,142.831z M75.227,127.714l0.096,0.203c0.046,0.038,1.443-0.011,4.403-0.155
	c0.122-0.048,0.112-0.212,0.104-0.335l-0.013-8.086l-0.043-0.696c-0.347-5.507-4.826-6.585-4.917-0.104
	c-0.041,2.642-0.001,3.917,0.182,6.792C75.067,125.829,75.216,127.51,75.227,127.714"/>
<path fill="#FFFFFF" d="M86.367,110.643c0.414-0.604,1.923-0.865,4.747-1.206c0.545,0.131,0.789,0.692,0.906,1.264
	c-0.144-2.963,2.116,19.293,2.654,27.841l0.033,0.573l-0.157,0.134c0.003,0.041-0.813,0.176-1.142,0.196
	c-1.098,0.273-2.267,0.059-3.363,0.335l-0.164,0.008c-1.056-3.027-2.746-18.844-3.502-26.922l-0.033-0.575
	C86.303,111.635,86.285,111.348,86.367,110.643"/>
<path fill="#FFFFFF" d="M95.625,114.312c-0.039-0.699-0.216-4.155-0.261-4.851c-0.001-0.043,0.144-0.382,0.222-0.426
	c1.302-0.29,2.858-0.429,4.217-0.515l0.328-0.021l0.137,0.24l1.454,23.172c0.029,0.494,0.232,1.758,0.232,1.798l0.142,0.24
	l0.495-0.031c1.889-0.119,3.914-0.701,5.695-1.266l0.205-0.012c1.146-0.073,1.08,3.396,1.12,4.055l0.036,0.576
	c-0.417,0.642-4.297,1.219-4.907,1.338c-0.367,0.104-3.465,0.673-3.87,0.778l-2.144,0.669c-0.085,0.006-0.573,0.08-0.738,0.086
	c-0.079,0.008-0.413-0.015-0.455-0.01l-0.143-0.281L95.625,114.312z"/>
<path fill="#FFFFFF" d="M112.389,140.234c0.029-2.805,0.048-5.819-0.175-22.511c-0.074-7.791,1.766-11.329,6.532-11.627
	c0.286-0.02,0.614-0.039,0.948-0.019c4.313-0.271,5.437,4.486,5.772,7.847l0.013,0.204c0.097,0.902,0.352,2.992,1.312,24.296
	l-0.271,0.224l-1.645,0.104c-0.657,0.042-1.312,0.123-2.069-0.078c-0.064-0.407-0.227-2.337-1.261-10.273l-0.286,0.018
	c-1.479,0.095-2.992,0.313-5.009,0.438c-0.046,1.859,0.116,3.746,0.916,11.285c0,0-0.105,0.296-0.185,0.3l-4.438,0.279
	c-0.167,0.01-0.138-0.239-0.143-0.281L112.389,140.234z M116.638,125.12l0.096,0.203c0.04,0.035,1.443-0.012,4.403-0.154
	c0.121-0.05,0.112-0.216,0.102-0.338l-0.011-8.084l-0.045-0.699c-0.344-5.504-4.824-6.584-4.912-0.106
	c-0.041,2.645-0.003,3.923,0.178,6.797C116.479,123.234,116.625,124.914,116.638,125.12"/>
<path fill="#FFFFFF" d="M133.477,122.706c-0.004-0.085-0.142-0.323-0.346-0.309c-0.365,4.066,1.088,10.779,1.411,15.295
	c0.008,0.122,0.082,0.654,0.09,0.779l-4.602,0.288l-0.259-0.188c-0.007-0.043-0.146-1.026-0.172-1.437
	c-0.204-1.925-0.366-3.809-1.728-30.868l0.038-1.362c-0.034-0.535,6.319-0.52,8.009-0.501c0.167-0.011,0.291,0.023,0.373,0.016
	c3.383-0.004,5.795,2.979,6.479,5.987c0.02,0.248,0.126,1.313,0.14,1.558c0.257,4.07-1.496,5.747-5.378,6.979
	c0.209,0.689,0.501,1.415,0.625,2.066l6.142,15.082l0.058,0.864c0.005,0.122-2.887,1.333-3.259,1.356L133.477,122.706z
	 M132.94,116.097c2.795-0.175,4.769-0.916,4.565-4.165c-0.134-2.135-2.252-3.032-4.184-2.911l-0.574,0.034
	c-0.6,0.325-0.242,2.736-0.393,6.251l0.025,0.414C132.406,116.13,132.447,116.127,132.94,116.097"/>
<path fill="#FFFFFF" d="M145.194,106.956c0.416-0.604,1.927-0.864,4.75-1.203c0.548,0.128,0.785,0.69,0.906,1.262
	c-0.145-2.963,2.116,19.293,2.65,27.842l0.035,0.573l-0.154,0.133c0.002,0.041-0.817,0.174-1.145,0.196
	c-1.096,0.275-2.265,0.058-3.36,0.334l-0.167,0.009c-1.055-3.027-2.746-18.843-3.502-26.921l-0.031-0.577
	C145.132,107.948,145.114,107.663,145.194,106.956"/>
<path fill="#FFFFFF" d="M176.308,134.209c-1.104,0.111-2.33,0.312-3.581,0.101l-13.04-21.826c-0.041,0-0.117,0.088-0.114,0.129
	c0.07,1.111,0.191,0.399,3.781,22.16l0.029,0.494c-0.39,0.356-1.026,0.065-4.874,0.554l-0.129-0.115
	c-0.048-0.079-0.684-3.632-0.897-5.062l-2.858-21.97c-0.056-0.245-0.461-3.394-0.551-4.171l-0.018-0.288
	c-0.011-0.122,0.101-0.335,0.101-0.335c5.284,0.038,5.284,0.038,5.322,0.035c1.521-0.094,7.622,12.971,11.229,19.22
	c0.238-1.499-1.209-19.971,0.064-20.049c0.454-0.03,1.847-0.154,4.172,0.11c0.137,0.195,0.14,0.28,0.157,0.525l0.011,0.162
	c-0.173,2.486-0.038,4.665,1.099,24.805l0.174,2.793"/>
<path fill="#FFFFFF" d="M147.441,101.865c-0.479-0.604-0.5-0.88-0.073-1.27c0.15-0.117,0.676-0.631,0.993-0.786
	c1.613-1.428,7.042-5.586,9.292-7.269c0.312-0.1,0.463,0.024,0.755,0.334l1.275,1.488c0.122,0.148,0.435,0.488,0.312,0.637
	c-0.035,0.08-0.316,0.346-0.429,0.392c-2.338,1.995-5.676,4.156-10.563,8.32C148.396,103.068,147.912,102.521,147.441,101.865"/>
</svg>
