<?xml version="1.0" encoding="utf-8"?>
<!-- Generator: Adobe Illustrator 16.0.0, SVG Export Plug-In . SVG Version: 6.00 Build 0)  -->
<!DOCTYPE svg PUBLIC "-//W3C//DTD SVG 1.1//EN" "http://www.w3.org/Graphics/SVG/1.1/DTD/svg11.dtd">
<svg version="1.1" id="Capa_1" xmlns="http://www.w3.org/2000/svg" xmlns:xlink="http://www.w3.org/1999/xlink" x="0px" y="0px"
	 width="259px" height="180.805px" viewBox="0 0 259 180.805" enable-background="new 0 0 259 180.805" xml:space="preserve">
<path fill="#289EDA" d="M88.692,15.084c3.159,0.926,6.497,2.021,9.946,3.32c19.949,7.508,32.623,17.608,32.623,17.608
	l-39.199,68.109c-2.532,4.4-24.614-2.836-24.614-2.836s-21.373-9.117-20.377-14.097l2.957-14.769l1.707-8.523l10.766-53.762
	c0,0,3.354,0.159,8.894,1.039c2.621,0.417,5.732,0.996,9.209,1.797"/>
<path fill="#2783C3" d="M87.964,15.835c12.813,3.833,25.016,9.337,36.274,16.562c2.032,1.303,4.03,2.674,5.94,4.149
	c-0.006-0.005,0.153-1.046-0.259-0.331c-0.309,0.538-0.616,1.075-0.928,1.613c-6.651,11.56-13.306,23.12-19.959,34.68
	c-5.937,10.315-11.875,20.633-17.812,30.949c-2.33,4.049-15.988-0.844-19.373-1.808c-4.804-1.365-9.168-3.552-13.563-5.933
	c-2.336-1.266-10.685-5.162-9.983-8.67c0.86-4.299,1.723-8.598,2.582-12.897c0.998-4.982,1.995-9.965,2.993-14.947
	c3.279-16.376,6.56-32.753,9.839-49.129c-0.558,0.293-1.113,0.585-1.668,0.878c6.092,0.331,12.159,1.505,18.102,2.836
	c1.121,0.251,2.496-1.277,0.908-1.633c-5.942-1.331-12.008-2.505-18.103-2.836c-0.603-0.033-1.524,0.161-1.668,0.877
	c-4.203,20.991-8.408,41.983-12.61,62.974c-0.664,3.321-1.33,6.642-1.994,9.964c-0.332,1.655-1.408,4.238-0.521,5.896
	c3.028,5.656,11.567,8.819,17.062,11.424c4.065,1.928,8.272,3.108,12.66,4.15c4.024,0.957,13.905,4.18,17.161-0.126
	c2.248-2.972,3.873-6.666,5.728-9.887c4.509-7.835,9.019-15.669,13.527-23.504c6.698-11.64,13.397-23.28,20.098-34.92
	c0.17-0.295,0.07-0.59-0.182-0.789c-12.404-9.805-27.773-16.548-42.798-21.043C88.453,14.045,86.539,15.409,87.964,15.835"/>
<path fill="#70B7E7" d="M115.726,32.716c-4.808-2.831-11.294-6.198-19.044-9.115c-17.344-6.527-31.418-7.189-31.418-7.189
	L53.603,78.739c-0.865,4.33,17.719,12.256,17.719,12.256s19.197,6.293,21.401,2.467l32.326-54.552c0,0-1.053-0.837-3.019-2.19"/>
<path fill="#D7C924" d="M107.28,70.421c4.053-6.84,8.106-13.679,12.159-20.519c0.168-0.283,0.123-0.672-0.116-0.902
	c-2.733-2.615-5.162-3.795-8.113-0.895c-7.088,6.967-10.569-3.034-15.312-6.349c-7.151-5.002-8.707,6.227-14.724,6.954
	c-5.37,0.649-6.239-8.198-9.737-10.522c-3.155-2.096-6.426,0.184-8.89,2.372c-4.229,3.75-4.396,9.634-5.356,14.774
	c-1.35,7.213-2.698,14.426-4.047,21.64c-0.847,4.522,0.563,6.203,4.531,8.923c4.145,2.841,9.108,5.592,13.942,7.103
	c5.803,1.814,13.01,4.362,19.144,3.171c3.166-0.614,5.205-6.659,6.577-8.973c1.728-2.919,5.998-7.62,6.134-11.176
	c0.01-0.249-0.144-0.529-0.367-0.644c-0.215-0.11-0.43-0.221-0.644-0.331c-0.854-0.438-1.608,0.847-0.752,1.286
	c0.396,0.204-8.058,14.161-8.793,15.404c-1.612,2.72-2.623,3.324-6.031,3.135c-4.235-0.234-8.497-1.465-12.557-2.618
	c-4.965-1.409-9.69-3.878-14.274-6.609c-1.908-1.137-6.379-3.445-5.869-6.17c0.49-2.62,0.981-5.24,1.472-7.86
	c1.366-7.309,2.733-14.618,4.102-21.927c0.542-2.903,1.142-4.826,3.103-7.307c2.916-3.685,7.638-3.78,10.146,0.466
	c1.25,2.117,2.369,4.149,4.173,5.843c5.723,5.371,9.924-3.854,13.776-6.394c3.869-2.551,8.547,6.212,11.16,8.035
	c3.114,2.175,6.252,2.183,9.202-0.228c1.412-1.155,8.24-3.322,6.597-0.549c-0.433,0.729-0.864,1.457-1.295,2.186
	c-1.349,2.272-2.694,4.544-4.039,6.816c-2.195,3.704-4.392,7.409-6.586,11.113C105.503,70.497,106.792,71.246,107.28,70.421"/>
<path fill="#D7C924" d="M79.013,44.326c0.76-2.014,1.102-4.438,0.733-6.562c-0.504-2.925-2.763-6.219-5.99-6.503
	c-2.721-0.239-3.491,1.955-2.553,4.175c0.752,1.779,2.428,3.31,3.703,4.711c0.639,0.702,1.252,1.415,1.762,2.218
	c0.478,0.748,0.207,1.387,0.388,2.16c0.077,0.338,0.395,0.524,0.717,0.547c0.5,0.035,0.687-0.084,1.049-0.417
	c0.709-0.652-0.348-1.703-1.053-1.053c0.002-0.007,0.004-0.013,0.004-0.019c0.24,0.182,0.478,0.364,0.719,0.547
	c-0.139-0.598,0.08-1.164-0.186-1.792c-0.388-0.913-0.988-1.668-1.619-2.424c-0.797-0.953-6.746-7.067-3.33-7.199
	c3.3-0.128,4.971,4.061,5.028,6.705c0.035,1.505-0.274,3.1-0.808,4.51C77.237,44.83,78.678,45.216,79.013,44.326"/>
<path fill="#CBA921" d="M77.272,43.149c0,0,1.012-2.62-0.386-4.202c-1.399-1.584-3.235-1.077-2.235,0.571
	c0.866,1.426,2.713,2.657,2.375,3.604C76.963,43.289,77.217,43.293,77.272,43.149"/>
<path fill="#D7C924" d="M78.417,46.244c0.579-1.543,2.405-3.558,4.34-2.541c0.56,0.294-0.248,0.47-0.565,0.561
	c-0.74,0.213-1.529,0.255-2.291,0.346c-0.527,0.064-1.052,0.139-1.552,0.326c-0.233,0.087-0.457,0.203-0.646,0.368
	c-0.043,0.036-0.485,0.505-0.254,0.338h0.752c-0.037-0.028-0.071-0.056-0.108-0.083c0.123,0.214,0.246,0.428,0.369,0.642
	c-0.007-0.051-0.013-0.103-0.019-0.155c-0.103-0.944-1.593-0.954-1.488,0c0.046,0.429,0.152,0.621,0.494,0.881
	c0.192,0.145,0.562,0.139,0.752,0c0.222-0.158,0.338-0.412,0.552-0.549c0.379-0.242,0.985-0.259,1.416-0.311
	c0.987-0.118,1.989-0.193,2.934-0.534c1.359-0.493,1.902-2.118,0.564-3.01c-2.759-1.842-5.734,0.793-6.686,3.325
	C76.644,46.749,78.082,47.135,78.417,46.244"/>
<path fill="#CBA921" d="M78.431,46.912c0,0,0.465-1.27,1.473-1.4c1.011-0.129,1.513,0.638,0.629,0.917
	c-0.766,0.241-1.827,0.1-2.006,0.552C78.496,47.06,78.403,46.981,78.431,46.912"/>
<path fill="#CBA921" d="M67.067,81.182c-0.935,2.481-3.533,3.797-5.806,2.942s-3.358-3.558-2.424-6.039
	c0.932-2.48,3.53-3.796,5.803-2.941S68.001,78.702,67.067,81.182"/>
<path fill="#CBA921" d="M73.886,71.504c-0.429,1.135-1.619,1.74-2.66,1.349c-1.041-0.393-1.539-1.633-1.112-2.77
	c0.428-1.137,1.62-1.741,2.661-1.349C73.817,69.127,74.315,70.368,73.886,71.504"/>
<path fill="#CBA921" d="M80.733,86.326c-0.429,1.136-1.619,1.741-2.662,1.348c-1.041-0.392-1.539-1.631-1.111-2.768
	c0.427-1.137,1.619-1.742,2.662-1.35C80.663,83.949,81.161,85.188,80.733,86.326"/>
<path fill="#CBA921" d="M85.905,74.464c-0.253,0.673-0.962,1.031-1.578,0.8c-0.619-0.234-0.914-0.969-0.66-1.643
	c0.254-0.675,0.961-1.033,1.58-0.801C85.864,73.053,86.161,73.789,85.905,74.464"/>
<path fill="#CBA921" d="M90.483,83.188c-0.25,0.667-0.951,1.023-1.564,0.792c-0.612-0.23-0.905-0.959-0.653-1.627
	c0.252-0.669,0.951-1.023,1.563-0.792C90.442,81.792,90.737,82.519,90.483,83.188"/>
<path fill="#CBA921" d="M109.636,56.335c-0.252,0.667-0.953,1.024-1.566,0.792c-0.612-0.23-0.905-0.96-0.653-1.627
	c0.25-0.668,0.951-1.023,1.565-0.792C109.595,54.938,109.886,55.667,109.636,56.335"/>
<path fill="#CBA921" d="M99.182,68.946c-0.239,0.639-0.909,0.978-1.495,0.758c-0.587-0.221-0.865-0.918-0.625-1.557
	c0.239-0.638,0.909-0.979,1.493-0.758C99.141,67.61,99.422,68.306,99.182,68.946"/>
<path fill="#CBA921" d="M95.498,52.015c-0.239,0.638-0.909,0.979-1.498,0.758c-0.584-0.22-0.864-0.918-0.625-1.556
	c0.242-0.64,0.912-0.979,1.496-0.759C95.46,50.679,95.738,51.375,95.498,52.015"/>
<path fill="#CBA921" d="M87.156,61.513c-0.237,0.638-0.909,0.978-1.495,0.757c-0.587-0.22-0.865-0.918-0.625-1.555
	c0.239-0.64,0.909-0.979,1.495-0.758C87.118,60.177,87.396,60.874,87.156,61.513"/>
<path fill="#CBA921" d="M71.075,52.001c-0.24,0.639-0.91,0.978-1.494,0.758c-0.588-0.22-0.867-0.917-0.627-1.556
	c0.239-0.639,0.909-0.979,1.496-0.758C71.036,50.665,71.316,51.362,71.075,52.001"/>
<path fill="#CBA921" d="M65.142,59.691c-0.179,0.477-0.679,0.73-1.113,0.566c-0.438-0.165-0.646-0.684-0.467-1.16
	c0.18-0.476,0.68-0.728,1.114-0.564C65.112,58.697,65.321,59.217,65.142,59.691"/>
<path fill="#EED1B9" d="M57.067,52.354c0,0,15.352-0.753,14.213-11.619c-1.142-10.863-14.345-6.744-20.484-1.269
	c-4.948,4.412-16.985,26.271-2.079,36l1.282-12.271c0,0,1.127-6.541,2.506-8.574C53.995,52.422,57.067,52.354,57.067,52.354"/>
<path fill="#E1C2AA" d="M56.701,52.722c4.776-0.274,10.846-1.86,13.816-5.899c2.417-3.285,2.4-8.948-0.913-11.683
	c-2.398-1.978-5.898-1.782-8.75-1.156C44.382,37.598,31.968,64.539,47.91,75.765c0.351,0.246,1.614-0.047,1.664-0.529
	C50.064,70.546,49.805,53.172,56.701,52.722c0.485-0.032,1.859-0.811,0.731-0.737c-9.838,0.642-8.837,16.663-9.573,23.71
	c0.556-0.176,1.109-0.352,1.664-0.529c-11.707-8.243-7.334-27.099,2.052-35.751c3.402-3.137,9.599-6.298,14.276-4.795
	c3.796,1.22,5.251,5.655,4.439,9.316c-1.232,5.562-7.779,7.757-12.858,8.049C56.945,52.013,55.571,52.787,56.701,52.722"/>
<path fill="#EED1B9" d="M100.606,51.853c3.211-0.899,13.038,0.787,16.653,11s-3.61,16.497-6.283,13.041
	C108.305,72.437,80.62,61.794,100.606,51.853"/>
<path fill="#E1C2AA" d="M100.738,52.347c6.86-1.538,13.561,4.858,15.664,10.736c1.15,3.212,2.039,9.799-1.443,12.082
	c-2.262,1.483-3.551-0.125-5.402-1.378c-3.841-2.598-8.021-4.68-11.466-7.836c-1.559-1.427-3.349-3.289-3.719-5.465
	c-0.696-4.092,3.515-6.605,6.589-8.218c1.044-0.547,0.094-1.253-0.711-0.831c-6.303,3.306-10.459,8.326-4.622,14.382
	c2.568,2.664,5.828,4.663,8.946,6.601c2.091,1.3,4.538,3.776,6.732,4.704c1.979,0.837,4.086-0.395,5.396-1.833
	c3.229-3.545,2.785-9.194,1.163-13.31c-2.595-6.583-9.996-12.28-17.392-10.622C99.417,51.595,99.689,52.582,100.738,52.347"/>
<path fill="#EED1B9" d="M89.626,71.102c0,0-0.472-18.239,13.672-8.497c14.14,9.743,9.271,18.856,8.642,21.37
	c-0.63,2.515-5.877,6.6-5.877,6.6S88.636,77.7,89.626,71.102"/>
<path fill="#E1C2AA" d="M90.491,71.023c-0.066-3.599,0.677-10.09,5.13-10.685c5.367-0.718,12.149,6.222,14.629,10.247
	c1.972,3.202,2.549,6.784,1.726,10.433c-0.72,3.193-2.291,5.531-4.733,7.74c-0.457,0.412-2.171,1.311-1.073,1.331
	c0.769,0.014,0.506-0.084,0.157-0.29c-0.872-0.513-1.676-1.301-2.457-1.935C99.467,84.288,90.068,77.494,90.491,71.023
	c0.054-0.831-1.685-0.555-1.731,0.157c-0.311,4.757,4.448,9.125,7.54,12.127c2.851,2.767,5.906,5.367,9.095,7.737
	c0.32,0.238,0.942,0.104,1.226-0.121c3.92-3.106,6.637-6.395,7.346-11.405c1.116-7.889-4.873-14.324-11.177-18.151
	c-8.644-5.245-14.192,0.919-14.029,9.813C88.776,72.024,90.504,71.725,90.491,71.023"/>
<path fill="#EED1B9" d="M92.771,69.396c0,0,9.557,5.755,12.411,11.773c2.856,6.018,0.916,14.938-1.414,19.327
	c-3.372,6.351-14.182,11.253-14.182,11.253H58.581l0.878-14.415c0,0,22.225,11.604,34.584,5.715
	c6.989-3.329-10.406-20.78-10.947-23.765C82.555,76.298,86.641,67.679,92.771,69.396"/>
<path fill="#E1C2AA" d="M92.086,69.805c4.066,2.486,8.292,5.649,11.039,9.592c4.093,5.875,3.163,15-0.154,21.087
	c-2.466,4.526-8.423,9.133-13.382,10.765c-0.086,0.028,0.436-0.074-0.849,0.024c-1.394,0.106-2.838,0-4.235,0
	c-7.858,0-15.887-0.494-23.729,0c-1.066,0.067-1.746-0.392-1.333,0.279c-0.447-0.729,0.212-3.476,0.26-4.246
	c0.204-3.361,0.409-6.722,0.614-10.083c-0.514,0.174-1.027,0.347-1.541,0.52c5.123,2.65,10.68,4.699,16.277,6.071
	c5.24,1.283,15.889,3.371,20.396-1.112c3.64-3.62-2.306-10.708-4.434-13.661c-1.971-2.735-4.297-5.296-6.08-8.158
	c-2.693-4.321,1.857-12.022,7.309-11.03c0.532,0.098,2.015-0.74,1.055-0.914c-5.344-0.973-11.049,3.891-11.078,9.468
	c-0.01,1.973,1.236,3.341,2.377,4.885c2.093,2.833,4.319,5.568,6.284,8.496c1.403,2.09,4.778,6.444,3.905,9.319
	c-1.493,4.91-12.657,3.046-16.288,2.325c-6.318-1.254-12.625-3.544-18.354-6.507c-0.342-0.177-1.51,0.005-1.541,0.52
	c-0.293,4.805-0.586,9.61-0.879,14.415c-0.017,0.286,0.281,0.365,0.52,0.365h18.941c4.229,0,9.681,1.022,13.668-0.585
	c9.126-3.678,15.606-11.149,16.499-21.016c0.922-10.192-5.748-16.655-13.896-21.637C92.989,68.703,91.403,69.388,92.086,69.805"/>
<polygon fill="#310000" points="45.88,145.244 50.289,136.919 25.541,138.386 "/>
<path fill="#4D031E" d="M46.731,146.113c1.469-2.774,2.938-5.549,4.409-8.324c0.134-0.25-0.389-0.286-0.498-0.28
	c-8.25,0.489-16.498,0.977-24.748,1.466c-0.19,0.011-1.741,0.548-1.049,0.782c6.779,2.286,13.56,4.572,20.338,6.858
	c0.445,0.15,2-0.536,1.39-0.742c-6.779-2.286-13.56-4.572-20.338-6.857c-0.351,0.261-0.699,0.521-1.047,0.782
	c6.301-0.374,12.602-0.746,18.901-1.12c1.397-0.083,2.793-0.165,4.19-0.248c0.403-0.024,0.81-0.048,1.217-0.072
	c0.746-0.044-0.036-0.351-0.274,0.098c-1.397,2.64-2.797,5.28-4.194,7.92C44.834,146.738,46.477,146.591,46.731,146.113"/>
<polygon fill="#9F231D" points="51.938,181.104 75.733,136.382 50.29,137.919 27.663,181.104 "/>
<path fill="#77201A" d="M51.331,182.32c7.932-14.907,15.862-29.814,23.795-44.721c0.252-0.475-0.367-0.579-0.699-0.559
	c-7.094,0.429-14.19,0.858-21.284,1.286c-0.847,0.052-4.505-0.351-5.07,0.729c-0.804,1.535-1.608,3.069-2.412,4.604
	c-6.737,12.86-13.476,25.72-20.215,38.58c-0.183,0.349,0.155,0.566,0.481,0.566h24.276c0.691,0,1.808-1.051,0.647-1.051H32.576
	h-4.295c-1.791,0-0.912-0.034-1.215,0.543c0.703-1.343,1.409-2.686,2.112-4.029c6.459-12.326,12.918-24.652,19.375-36.979
	c0.312-0.595,0.625-1.192,0.937-1.787c0.466-0.887-1.28,0.146-0.291,0.086c2.97-0.179,5.938-0.359,8.904-0.538
	c3.728-0.225,7.454-0.451,11.18-0.676c1.263-0.076,2.524-0.152,3.783-0.228c1.715-0.104,0.308-0.363,0.34-0.425
	c-6.153,11.57-12.31,23.14-18.467,34.709c-1.74,3.27-3.478,6.54-5.218,9.809C49.313,183.006,51.044,182.862,51.331,182.32"/>
<path fill="#601911" d="M96.45,111.338l-12.791,24.748c0,0-57.41,3.3-58.117,3.3s11.076-25.219,16.026-28.048
	C46.518,108.509,96.45,111.338,96.45,111.338"/>
<path fill="#260000" d="M95.604,111.49c-2.734,5.289-5.468,10.578-8.201,15.867c-1.363,2.637-2.726,5.275-4.088,7.913
	c-0.679,1.309-0.541,0.548,0.627,0.48c-0.541,0.032-1.084,0.063-1.627,0.094c-13.968,0.802-27.935,1.603-41.902,2.396
	c-4.743,0.269-9.485,0.556-14.229,0.794c0.369-0.019,1.775-3.927,2.205-4.867c1.819-3.976,3.826-7.871,5.938-11.699
	c1.877-3.405,3.863-6.883,6.433-9.821c1.905-2.177,5.217-1.907,7.894-2.048c8.226-0.432,16.514-0.137,24.739,0.114
	c7.502,0.229,15.005,0.548,22.498,0.971c0.359,0.02,1.966-0.645,1.115-0.692c-12.586-0.71-25.201-1.214-37.808-1.257
	c-5.336-0.018-11.336-0.424-16.558,0.942c-4.678,1.223-7.317,7.38-9.481,11.162c-2.062,3.602-3.933,7.314-5.724,11.056
	c-0.903,1.89-2.573,4.413-2.771,6.554c-0.049,0.532,7.343-0.096,7.892-0.126c14.789-0.831,29.578-1.683,44.367-2.532
	c4.274-0.245,6.789,0.674,8.797-3.21c3.858-7.465,7.715-14.93,11.574-22.396C97.419,110.947,95.827,111.059,95.604,111.49"/>
<path fill="#EECA49" d="M43.847,124.106c-1.158,2.626-3.347,4.204-4.882,3.525c-1.539-0.677-1.844-3.357-0.685-5.983
	c1.16-2.626,3.345-4.205,4.882-3.525C44.7,118.801,45.006,121.481,43.847,124.106"/>
<path fill="#8E782B" d="M43.044,124.068c-0.548,1.132-2.24,4.25-3.906,2.77c-1.217-1.083-0.649-3.383-0.239-4.682
	c0.45-1.422,3.006-5.41,4.469-2.669c0.759,1.42,0.168,3.341-0.381,4.716c-0.244,0.608,1.481,0.405,1.721-0.195
	c0.759-1.898,1.49-6.131-1.559-6.518c-2.646-0.335-4.634,1.97-5.671,4.12c-1.01,2.091-1.426,5.725,1.308,6.626
	c2.567,0.845,4.945-2.187,5.865-4.093C45.029,123.359,43.306,123.522,43.044,124.068"/>
<polygon fill="#2783C3" points="47.608,78.034 52.048,58.867 52.048,68.45 49.088,82.344 "/>
<g opacity="0.75">
	<g>
		<defs>
			<rect id="SVGID_213_" x="114.367" y="94.691" width="137.098" height="70.724"/>
		</defs>
		<clipPath id="SVGID_2_">
			<use xlink:href="#SVGID_213_"  overflow="visible"/>
		</clipPath>
		<path clip-path="url(#SVGID_2_)" d="M114.744,97.262c0.023-0.236,0.119-0.872,0.519-0.872c0.848,0.283,1.838,0.283,2.733,0.283
			l0.069,0.094c0,0,0.024,0.189,0.024,0.259c0,0.095-0.024,0.354-0.024,0.399c-0.42,2.877-0.823,7.637-0.233,11.666
			c0.188,1.201,0.754,2.66,2.236,2.66c0.402,0,0.802,0,1.109-0.304c0.965-0.967,1.178-3.11,1.178-4.336
			c0-1.58-0.049-3.299-0.096-4.879c-0.023-1.365-0.211-2.709-0.211-4.052c0-0.116,0.094-0.376,0.235-0.399l2.144-0.283
			c0.024-0.024,0.164-0.073,0.213-0.073c0.164,0,0.354,0.12,0.377,0.285c0-0.047,0.023-0.071,0.023-0.071
			c0.143,0,1.203,8.906-0.637,14.185c-0.704,2.002-1.98,2.804-4.098,2.804h-0.33c-2.734,0-4.572-0.826-5.092-3.771
			c-0.377-2.051-0.516-4.029-0.516-6.104C114.603,98.203,114.698,97.498,114.744,97.262"/>
		<path clip-path="url(#SVGID_2_)" d="M126.697,102.587c0-0.188,0.213-0.33,0.4-0.33h2.12c0.495,0,0.259,2.238,0.378,2.591
			c2.379-2.284,4.123-2.449,5.019-2.449c2.026,0,3.062,1.884,3.204,3.746l0.447,8.271c0,0.024-0.049,0.071-0.071,0.071l-2.521,0.092
			c-0.047-0.024-0.143-0.07-0.143-0.092l-0.447-6.152c-0.776-5.936-5.653-1.483-5.653,2.733c0,1.321,0.165,2.641,0.165,3.961v0.234
			c-0.73,0.071-1.343,0.071-2.074,0.071h-0.66l-0.142-0.165c0,0-0.022-0.14-0.022-0.213V102.587z"/>
		<path clip-path="url(#SVGID_2_)" d="M148.738,111.187c0.092,0,0.141,0,0.234,0.071c0.848,0.99,0.824,1.908,2.404,1.908
			c0.92,0,1.862-0.8,1.862-1.767c0-1.768-1.132-2.051-2.661-2.285c-1.345-0.188-3.606-1.508-3.606-2.994
			c0-2.614,2.237-4.357,4.71-4.357c1.132,0,2.406,0.07,3.181,1.012l0.024,0.023c0.141,0.165,0.213,0.285,0.213,0.472
			c0,0.023-0.024,0.117-0.024,0.117c-0.235,0.449-1.106,2.073-1.437,2.073h-0.166l-0.164-0.092c-0.59-0.33-1.506-0.849-2.191-0.849
			c-0.518,0-0.943,0.354-0.943,0.896c0,1.861,5.965,0.519,5.965,5.206c0,2.804-1.746,5.067-4.833,5.067
			c-1.839,0-3.653-0.401-4.312-2.287c-0.07-0.189-0.235-0.658-0.235-1.082C146.759,112.318,148.455,111.187,148.738,111.187"/>
		<path clip-path="url(#SVGID_2_)" d="M157.318,114.249c-0.141-5.983-0.117-12.064-0.519-18.024v-0.307h2.617
			c0.046,0,0.094,0.048,0.094,0.071c0.14,0.495,0.05,0.66,0.071,1.202c0.234,3.441,0.165,4.759,0.33,8.177
			c0.023,0.092,0.068,0.092,0.117,0.092c0.022,0,0.07-0.021,0.07-0.021c1.133-0.356,3.653-0.849,4.831-0.849
			c1.271,0,1.955,0.849,1.955,2.096l0.071,6.786c0,0.118,0.045,0.566,0.068,0.684v0.118c0,0.471-2.072,0.471-2.686,0.471h-0.258
			l-0.072-0.071c-0.117-1.154-0.211-4.405-0.447-5.959c-0.023-0.191-0.048-0.896-0.33-0.896c-0.683,0-2.684,0.094-3.133,0.636
			c-0.023,0.165,0,3.016,0,3.158v3.18l-0.048,0.071c-0.424,0.024-2.049,0.283-2.661,0
			C157.391,114.768,157.318,114.343,157.318,114.249"/>
		<path clip-path="url(#SVGID_2_)" d="M176.857,102.656c2.453,1.532,3.369,4.1,3.369,6.574c0,2.263-1.437,4.501-3.889,5.467
			c-1.27,0.495-2.92,0.377-4.263-0.071c-2.687-1.061-3.63-3.959-3.63-6.22C168.445,104.496,172.309,100.561,176.857,102.656
			 M172.309,110.691c0.379,0.92,1.203,1.509,2.311,1.509c1.955,0,2.568-1.863,2.568-3.228c0-4.925-5.49-5.892-5.49-0.636
			C171.697,109.136,171.979,109.938,172.309,110.691"/>
		<path clip-path="url(#SVGID_2_)" d="M182.309,94.764c0.068-0.07,0.141-0.118,3.133-0.023c0.023,0.4,0.117,1.604-0.589,9.754
			l3.252,0.212c0.353,0.024,0.446,0.259,0.446,0.495c0,0.896-0.142,1.271-0.375,2.169c0,0.093-0.143,0.071-0.236,0.071l-3.229-0.097
			c-0.777,3.749-0.447,6.528,3.487,5.468c0,0.565,0.117,1.462,0.117,2.143c0,0.354-0.777,0.354-1.106,0.354
			c-3.158,0-6.172-0.658-5.162-8.151c-0.116,0-1.271-0.047-1.365-0.073c-0.046,0-0.141-0.071-0.141-0.071v-2.826
			c0,0,0.095-0.048,0.141-0.048l1.201,0.048L182.309,94.764z"/>
		<path clip-path="url(#SVGID_2_)" d="M197.041,112.6c0-2.261,1.108-4.17,3.439-4.994c0.919-0.33,2.498-0.427,3.111-0.427
			c0.283,0-0.189-2.919-1.721-2.919c-1.271,0-2.074,1.035-2.944,1.695c0,0-1.694-1.365-1.694-1.414c0-0.236,0.352-0.564,0.495-0.776
			c1.528-1.556,2.966-2.075,4.875-2.075c3.157,0,3.935,2.615,4.028,5.112v0.212c0.117,2.452,0.117,4.973,0,7.425
			c-0.07,0.233-0.447,0.681-1.955,0.846h-0.096c-0.871,0-0.188-0.964-0.705-1.2c-0.354,0.257-0.473,0.54-0.896,0.778
			c-0.895,0.587-2.098,0.658-3.204,0.658c-1.767,0-2.663-1.344-2.733-2.756V112.6z M203.662,112.081v-0.589
			c0-0.802-0.023-2.049-0.425-2.049c-3.604,0-3.44,2.591-3.415,3.086C199.963,113.59,203.662,112.458,203.662,112.081"/>
		<path clip-path="url(#SVGID_2_)" d="M116.135,116.374c0.07-0.07,0.141-0.118,3.134-0.024c0.022,0.401,0.116,1.604-0.589,9.755
			l3.25,0.212c0.354,0.024,0.449,0.259,0.449,0.495c0,0.896-0.143,1.271-0.377,2.169c0,0.093-0.142,0.071-0.236,0.071l-3.229-0.097
			c-0.777,3.749-0.447,6.529,3.488,5.467c0,0.566,0.117,1.462,0.117,2.144c0,0.354-0.777,0.354-1.107,0.354
			c-3.158,0-6.172-0.658-5.16-8.15c-0.117,0-1.272-0.047-1.367-0.073c-0.045,0-0.139-0.071-0.139-0.071v-2.826
			c0,0,0.094-0.048,0.139-0.048l1.201,0.048L116.135,116.374z"/>
		<path clip-path="url(#SVGID_2_)" d="M124.268,124.479l0.071-0.094h2.828c0.142,0,0.094,0.212,0.094,0.236
			c0,1.815-0.259,3.581-0.259,5.373c0,1.789,0.541,2.756,2.521,2.756h0.094c1.955,0,2.355-1.084,2.355-3.086
			c0-1.344-0.141-2.688-0.141-4.053c0-0.519,1.931-0.849,2.332-0.849h0.259c0.353,0.425,0.472,3.393,0.472,3.935v0.849
			c0,2.261-0.143,3.841-1.98,5.395c-1.789,1.013-4.074,0.919-6.125,0.377c-2.757-0.755-2.991-2.403-2.991-5.067
			C123.867,128.343,124.268,125.54,124.268,124.479"/>
		<path clip-path="url(#SVGID_2_)" d="M148.854,136.26c-4.406,0-5.468-3.888-5.468-6.175v-0.21c0.119-3.582,2.381-6.834,6.905-6.834
			c0.822,0,2.025,0.542,2.025,1.391c0,0.33-0.66,1.981-1.013,1.981c-0.47,0-0.825-0.284-1.343-0.284
			c-1.791,0-2.828,1.224-3.438,2.592c-0.403,0.87-0.286,2.732,0.28,3.604c0.424,0.754,1.46,1.179,2.381,1.2h0.211
			c0.66,0,1.555-0.092,2.122-0.398c0.188-0.095,0.965-0.73,1.2-0.73c0.377,0,1.037,1.506,1.037,2.001c0,1.132-3.323,1.84-4.217,1.84
			C149.303,136.26,149.064,136.26,148.854,136.26"/>
		<path clip-path="url(#SVGID_2_)" d="M162.667,124.267c2.452,1.532,3.368,4.1,3.368,6.574c0,2.263-1.437,4.501-3.887,5.467
			c-1.273,0.495-2.922,0.377-4.265-0.071c-2.688-1.061-3.628-3.959-3.628-6.22C154.256,126.105,158.12,122.171,162.667,124.267
			 M158.12,132.301c0.376,0.92,1.2,1.509,2.308,1.509c1.955,0,2.568-1.863,2.568-3.229c0-4.925-5.488-5.892-5.488-0.636
			C157.508,130.745,157.79,131.547,158.12,132.301"/>
		<path clip-path="url(#SVGID_2_)" d="M167.103,127.73c0-2.851,1.745-3.416,3.016-3.416h0.165c1.297,0.047,2.711,2.379,3.16,3.982
			l0.068-0.071l0.19-0.377c0.848-1.837,1.907-4.171,4.194-4.171c2.99,0,3.297,2.122,3.627,4.477c0.26,5.113,0.071,5.633,0.071,7.941
			c0,0.142,0,0.307-0.235,0.307h-1.955c-0.049,0-0.19-0.094-0.19-0.142l-0.353-5.75c-0.071-1.106,0.213-2.992-1.414-2.992
			c-1.577,0-2.191,3.841-2.356,4.076l-3.274,0.542c-0.282-0.896-0.401-3.77-1.579-3.77c-0.259,0-0.376,0.259-0.447,1.202
			c0,2.379,0.401,4.805,0.401,7.043v0.425c-0.049,0.188-0.143,0.282-0.307,0.308c-0.707,0.022-1.531,0.165-2.287,0.165
			c-0.023,0-0.188,0.022-0.209-0.096L167.103,127.73z"/>
		<path clip-path="url(#SVGID_2_)" d="M183.039,124.904c-0.024-0.071-0.024-0.26,0.141-0.26l2.357-0.189
			c0.023,0,0.143,0.024,0.163,0.048c0.024,0,0.097,0.069,0.097,0.069l0.094,1.39c0.66-1.035,2.521-1.742,3.815-1.837
			c0.119,0,0.236-0.023,0.354-0.023c2.615,0,4.194,2.261,4.405,4.97c0.023,0.191,0.023,0.356,0.023,0.52
			c0,4.406-4.004,6.292-8.317,4.17c0.308,2.994,0.33,3.463,0.566,6.479c0.023,0.424,0.094,1.627,0.094,1.698l-0.07,0.094
			c0,0-1.107,0.118-1.555,0.165l-0.896,0.094l-0.095-0.071c0-0.022-0.142-1.249-0.283-2.85
			C183.039,125.138,183.039,125.046,183.039,124.904 M186.949,131.194c1.439,1.979,4.336,0.896,4.336-1.532
			c0-0.094-0.023-0.187-0.023-0.283c-0.119-1.342-0.235-2.285-1.742-2.285c-0.096,0-0.213,0.023-0.332,0.023
			C187.609,127.235,185.537,129.216,186.949,131.194"/>
		<path clip-path="url(#SVGID_2_)" d="M195.345,134.21c0-2.261,1.108-4.171,3.44-4.994c0.918-0.33,2.498-0.427,3.111-0.427
			c0.281,0-0.189-2.919-1.721-2.919c-1.272,0-2.074,1.035-2.945,1.695c0,0-1.693-1.365-1.693-1.414c0-0.236,0.351-0.563,0.494-0.776
			c1.529-1.556,2.967-2.075,4.875-2.075c3.158,0,3.936,2.615,4.029,5.112v0.212c0.117,2.452,0.117,4.973,0,7.424
			c-0.071,0.234-0.447,0.682-1.955,0.847h-0.096c-0.871,0-0.188-0.964-0.707-1.2c-0.353,0.257-0.471,0.54-0.895,0.778
			c-0.895,0.587-2.098,0.658-3.205,0.658c-1.767,0-2.662-1.344-2.733-2.756V134.21z M201.965,133.691v-0.589
			c0-0.802-0.022-2.049-0.424-2.049c-3.604,0-3.439,2.591-3.414,3.085C198.267,135.2,201.965,134.068,201.965,133.691"/>
		<path clip-path="url(#SVGID_2_)" d="M206.449,124.196c0-0.188,0.215-0.33,0.4-0.33h2.122c0.493,0,0.259,2.237,0.376,2.593
			c2.379-2.287,4.123-2.452,5.02-2.452c2.025,0,3.062,1.886,3.203,3.746l0.449,8.272c0,0.022-0.048,0.07-0.07,0.07l-2.521,0.095
			c-0.049-0.024-0.143-0.071-0.143-0.095l-0.447-6.149c-0.778-5.938-5.654-1.485-5.654,2.733c0,1.318,0.164,2.638,0.164,3.959v0.233
			c-0.73,0.073-1.343,0.073-2.074,0.073h-0.66l-0.139-0.165c0,0-0.025-0.141-0.025-0.212V124.196z M208.264,120.615
			c0.59-0.967,1.32-1.391,2.544-1.391c1.392,0,1.579,1.462,2.853,1.462c0.612,0,0.399-1.462,0.849-1.462c0.282,0,0.519,0,1.79,0.377
			c0,1.674-1.178,3.089-2.898,3.089c-0.541,0-1.131-0.212-1.625-0.474c-0.354-0.21-0.638-0.658-1.084-0.658
			c-1.037,0-0.803,1.2-1.392,1.2c-0.163,0-1.343-0.328-1.437-0.469C207.863,121.393,207.982,121.11,208.264,120.615"/>
		<path clip-path="url(#SVGID_2_)" d="M218.992,132.019c-0.449-3.181,0.706-7.303,4.829-7.893c4.005-0.565,4.876,0.826,5.349,4.219
			l0.143,0.94l-6.928,1.579c-0.023,0-0.166,0.142-0.188,0.212c-0.048,0.142-0.142,0.543,0.116,2.568
			c0.143,0.967,1.107,1.32,2.026,1.202c1.132-0.165,2.404-1.532,3.347-1.532c0.4,0,1.273,0.967,1.319,1.32v0.118
			c-1.603,2.167-3.274,2.521-5.864,2.379C220.193,136.99,219.32,134.281,218.992,132.019 M222.855,127.095
			c-0.307,0.283-0.778,1.132-0.778,1.627v0.092l0.213-0.045c0.022,0,0.071-0.025,0.095-0.025c0.637-0.093,1.297-0.166,4.051-0.776
			c0,0,0-0.023-0.022-0.094c-0.046-0.283-0.236-1.037-0.236-1.061c-0.211-0.707-0.706-0.683-1.366-0.589
			S223.305,126.6,222.855,127.095"/>
		<path clip-path="url(#SVGID_2_)" d="M230.306,135.694c0-1.132-0.376-11.499,0.754-11.617c0.142,0,1.368-0.047,2.216-0.071
			l0.094,1.84c1.366-1.486,2.945-2.287,5.255-2.287c0.14,0.165,0.188,0.306,0.397,2.452c-2.872,0.117-5.51,1.884-5.652,4.642
			l-0.259,5.654l-0.048,0.071c-0.023,0.024-0.706,0.07-2.307,0C230.496,136.283,230.306,135.953,230.306,135.694"/>
		<path clip-path="url(#SVGID_2_)" d="M246.664,124.267c2.453,1.532,3.369,4.1,3.369,6.574c0,2.263-1.437,4.501-3.887,5.467
			c-1.273,0.495-2.922,0.377-4.265-0.071c-2.687-1.061-3.63-3.959-3.63-6.22C238.252,126.105,242.117,122.171,246.664,124.267
			 M242.117,132.301c0.377,0.92,1.201,1.509,2.309,1.509c1.955,0,2.568-1.863,2.568-3.229c0-4.925-5.488-5.892-5.488-0.636
			C241.506,130.745,241.788,131.547,242.117,132.301"/>
		<path clip-path="url(#SVGID_2_)" d="M122.19,157.588c-1.673,0.683-2.333,1.153-4.125,1.153c-2.095,0-3.676-1.625-3.676-3.676
			c-0.022-0.141-0.022-0.282-0.022-0.447c0-3.792,4.122-6.268,7.658-5.584l0.094-9.471c0.023-0.165,0.165-0.235,3.016-0.097
			c0.094,0.118,0.071,0.238,0.071,0.356c0,3.862-0.261,7.703-0.261,11.543c0,2.426,0.096,4.854,0.096,7.328V159
			c-0.167,0.26-1.719,0.307-2.121,0.307c-0.047,0-0.283-0.023-0.354-0.023c-0.211-0.071-0.211-0.472-0.211-0.59
			C122.355,158.388,122.566,157.659,122.19,157.588 M121.883,155.136v-0.566c-0.022-0.752-0.117-3.086-0.142-3.086
			c-0.211-0.024-0.446-0.024-0.637-0.024c-3.626,0-3.699,2.167-3.699,3.488v0.212C117.405,156.857,120.894,155.608,121.883,155.136"
			/>
		<path clip-path="url(#SVGID_2_)" d="M126.744,153.628c-0.448-3.181,0.709-7.303,4.83-7.893c4.006-0.564,4.88,0.826,5.348,4.219
			l0.143,0.941l-6.928,1.579c-0.023,0-0.165,0.142-0.188,0.212c-0.049,0.142-0.143,0.543,0.117,2.568
			c0.141,0.967,1.106,1.321,2.027,1.202c1.13-0.165,2.404-1.532,3.346-1.532c0.398,0,1.27,0.967,1.318,1.32v0.118
			c-1.603,2.167-3.275,2.521-5.865,2.379C127.947,158.6,127.074,155.892,126.744,153.628 M130.608,148.705
			c-0.307,0.283-0.776,1.132-0.776,1.627v0.092l0.211-0.045c0.023,0,0.07-0.025,0.094-0.025c0.637-0.093,1.297-0.166,4.052-0.777
			c0,0,0-0.022-0.021-0.094c-0.049-0.283-0.236-1.037-0.236-1.061c-0.213-0.707-0.708-0.684-1.368-0.589
			C131.904,147.927,131.058,148.209,130.608,148.705"/>
		<path clip-path="url(#SVGID_2_)" d="M145.65,138.361h3.111c0,0.778,0.094,1.509,0.094,2.285v0.236l-0.589,16.588
			c-0.071,0.236-0.919,0.236-1.884,0.236h-0.238c-0.354-0.047-0.257-1.179-0.305-1.438L145.65,138.361z"/>
		<path clip-path="url(#SVGID_2_)" d="M150.271,155.82c0-2.261,1.107-4.171,3.439-4.994c0.92-0.33,2.498-0.427,3.11-0.427
			c0.282,0-0.188-2.919-1.722-2.919c-1.27,0-2.071,1.035-2.942,1.695c0,0-1.698-1.365-1.698-1.414c0-0.236,0.355-0.564,0.497-0.776
			c1.531-1.556,2.966-2.075,4.877-2.075c3.156,0,3.933,2.615,4.028,5.112v0.212c0.117,2.452,0.117,4.973,0,7.425
			c-0.07,0.234-0.448,0.681-1.954,0.846h-0.097c-0.873,0-0.189-0.964-0.707-1.2c-0.354,0.257-0.471,0.54-0.895,0.778
			c-0.896,0.587-2.097,0.658-3.203,0.658c-1.77,0-2.664-1.344-2.734-2.756V155.82z M156.893,155.301v-0.589
			c0-0.802-0.023-2.049-0.424-2.049c-3.605,0-3.44,2.591-3.418,3.086C153.193,156.811,156.893,155.678,156.893,155.301"/>
		<path clip-path="url(#SVGID_2_)" d="M168.445,156.951c0,0,0.426-10.814,0.873-10.814c0.094,0,0.141,0.024,2.427,0.071
			c0.211,0,0.233,0.212,0.233,0.33c0,0.047-0.022,0.212-0.022,0.236c-0.022,0.707-0.211,3.817-0.87,11.051
			c-0.023,0.304-0.072,0.399-0.354,0.445c-0.73-0.046-1.439,0.144-2.191-0.068c-0.023,0-0.072-0.049-0.072-0.073
			C168.445,157.939,168.445,157.116,168.445,156.951 M169.036,141.471c0-2.45,2.968-3.534,3.628-0.941c0,0,0.023,0.281,0.023,0.375
			c0,1.061-0.495,2.332-1.696,2.332c-0.708,0-1.673-0.33-1.933-1.082C169.059,142.037,169.036,141.565,169.036,141.471"/>
		<path clip-path="url(#SVGID_2_)" d="M173.35,155.961c5.584-6.997,5.82-7.374,5.82-8.011c0-0.401-4.785,0.236-6.339,0.283
			c-0.188-0.895-0.308-1.884-0.095-2.78c2.191-0.259,6.832-0.33,9.825-0.377c0.308,0.896,0.308,1.58,0.284,2.308
			c-0.52,2.357-3.322,4.384-4.831,7.26c2.026-0.212,3.369-0.073,5.136-0.073h0.26c0.377,0.589,0.307,1.415,0.142,2.853h-0.282
			c-2.427,0-4.76-0.094-9.449,0.542h-0.096c-0.211,0-0.445-1.531-0.445-1.792C173.279,156.079,173.279,156.055,173.35,155.961"/>
		<path clip-path="url(#SVGID_2_)" d="M190.485,163.125h-2.287l-0.14-3.063l2.473-0.189l-0.188-4.807
			c-2.311,0.99-6.692-0.095-7.094-2.662c-0.965-3.982,3.112-8.13,7.235-7.045c0.165,0,0.448,0.142,0.589,0.282
			c0.376,0-0.048-0.848,0.895-0.848c0.448,0,1.319-0.118,1.58,0.33c0,0.094,0.023,0.613,0.023,0.707
			c0,0.163-0.023,1.177-0.26,13.382c0.047,0.401,0,0.542,0.377,0.542c0.52,0,1.013-0.094,1.508-0.094
			c0.188,0,0.236,0.236,0.236,0.375c0,1.016-0.072,1.91-0.072,2.924c0,0.07-0.776,0.047-1.979,0.353l-0.069,0.071l0.069,1.884
			l-2.661,0.142L190.485,163.125z M190.155,152.215l-0.071-4.312h-0.281c-1.933,0-3.582,0.519-3.582,2.992
			c0,0.118,0.022,0.259,0.022,0.401C186.362,152.97,188.906,152.569,190.155,152.215"/>
		<path clip-path="url(#SVGID_2_)" d="M195.58,146.089l0.072-0.094h2.827c0.14,0,0.095,0.212,0.095,0.236
			c0,1.815-0.26,3.581-0.26,5.373c0,1.789,0.541,2.756,2.521,2.756h0.094c1.955,0,2.355-1.084,2.355-3.086
			c0-1.344-0.142-2.688-0.142-4.053c0-0.519,1.932-0.849,2.333-0.849h0.259c0.354,0.425,0.472,3.393,0.472,3.935v0.849
			c0,2.261-0.142,3.841-1.979,5.395c-1.79,1.013-4.075,0.919-6.126,0.377c-2.757-0.755-2.992-2.403-2.992-5.067
			C195.18,149.953,195.58,147.149,195.58,146.089"/>
		<path clip-path="url(#SVGID_2_)" d="M207.627,156.951c0,0,0.424-10.814,0.875-10.814c0.092,0,0.141,0.024,2.425,0.071
			c0.211,0,0.235,0.212,0.235,0.33c0,0.047-0.024,0.212-0.024,0.236c-0.022,0.707-0.211,3.817-0.871,11.051
			c-0.022,0.304-0.071,0.399-0.353,0.445c-0.73-0.046-1.438,0.144-2.191-0.068c-0.025,0-0.07-0.049-0.07-0.073
			C207.627,157.939,207.627,157.116,207.627,156.951 M208.216,141.471c0-2.45,2.97-3.534,3.63-0.941c0,0,0.023,0.281,0.023,0.375
			c0,1.061-0.495,2.332-1.696,2.332c-0.708,0-1.671-0.33-1.933-1.082C208.24,142.037,208.216,141.565,208.216,141.471"/>
		<path clip-path="url(#SVGID_2_)" d="M212.461,153.628c-0.448-3.181,0.707-7.303,4.83-7.893c4.006-0.564,4.877,0.826,5.348,4.219
			l0.143,0.941l-6.928,1.579c-0.023,0-0.165,0.142-0.188,0.212c-0.049,0.142-0.143,0.543,0.117,2.568
			c0.141,0.967,1.106,1.321,2.025,1.202c1.132-0.165,2.404-1.532,3.346-1.532c0.4,0,1.273,0.967,1.32,1.32v0.118
			c-1.602,2.167-3.275,2.521-5.865,2.379C213.662,158.6,212.789,155.892,212.461,153.628 M216.326,148.705
			c-0.308,0.283-0.779,1.132-0.779,1.627v0.092l0.213-0.045c0.023,0,0.07-0.025,0.094-0.025c0.637-0.093,1.297-0.166,4.052-0.777
			c0,0,0-0.022-0.022-0.094c-0.047-0.283-0.236-1.037-0.236-1.061c-0.211-0.707-0.706-0.684-1.366-0.589
			C217.621,147.927,216.774,148.209,216.326,148.705"/>
		<path clip-path="url(#SVGID_2_)" d="M223.775,157.304c0-1.132-0.377-11.499,0.754-11.617c0.142,0,1.367-0.047,2.215-0.071
			l0.095,1.84c1.366-1.486,2.944-2.287,5.255-2.287c0.141,0.165,0.188,0.306,0.396,2.452c-2.871,0.117-5.51,1.884-5.651,4.642
			l-0.259,5.653l-0.049,0.071c-0.022,0.024-0.705,0.07-2.305,0C223.965,157.894,223.775,157.563,223.775,157.304"/>
		<path clip-path="url(#SVGID_2_)" d="M237.327,157.588c-1.673,0.683-2.333,1.153-4.122,1.153c-2.098,0-3.674-1.625-3.674-3.676
			c-0.027-0.141-0.027-0.282-0.027-0.447c0-3.792,4.125-6.268,7.658-5.584l0.094-9.471c0.023-0.165,0.166-0.235,3.017-0.097
			c0.094,0.118,0.071,0.238,0.071,0.356c0,3.862-0.258,7.703-0.258,11.543c0,2.426,0.092,4.854,0.092,7.328V159
			c-0.164,0.26-1.721,0.307-2.119,0.307c-0.049,0-0.284-0.023-0.355-0.023c-0.211-0.071-0.211-0.472-0.211-0.59
			C237.492,158.388,237.703,157.659,237.327,157.588 M237.021,155.136v-0.566c-0.022-0.752-0.117-3.086-0.142-3.086
			c-0.211-0.024-0.447-0.024-0.636-0.024c-3.628,0-3.698,2.167-3.698,3.488v0.212C232.545,156.857,236.03,155.608,237.021,155.136"
			/>
		<path clip-path="url(#SVGID_2_)" d="M241.786,155.82c0-2.261,1.108-4.171,3.441-4.994c0.919-0.33,2.496-0.427,3.11-0.427
			c0.281,0-0.19-2.919-1.721-2.919c-1.272,0-2.074,1.035-2.945,1.695c0,0-1.694-1.365-1.694-1.414c0-0.236,0.352-0.564,0.495-0.776
			c1.529-1.556,2.967-2.075,4.875-2.075c3.156,0,3.936,2.615,4.029,5.112v0.212c0.117,2.452,0.117,4.973,0,7.425
			c-0.069,0.234-0.447,0.681-1.953,0.846h-0.098c-0.871,0-0.188-0.964-0.707-1.2c-0.353,0.257-0.472,0.54-0.896,0.778
			c-0.894,0.587-2.097,0.658-3.204,0.658c-1.767,0-2.662-1.344-2.733-2.756V155.82z M248.406,155.301v-0.589
			c0-0.802-0.022-2.049-0.424-2.049c-3.604,0-3.439,2.591-3.414,3.086C244.708,156.811,248.406,155.678,248.406,155.301"/>
	</g>
</g>
<path fill="#FFFFFF" d="M113.632,96.148c0.022-0.236,0.117-0.872,0.519-0.872c0.846,0.283,1.836,0.283,2.731,0.283l0.069,0.094
	c0,0,0.024,0.188,0.024,0.259c0,0.095-0.024,0.354-0.024,0.399c-0.42,2.875-0.823,7.636-0.234,11.665
	c0.189,1.2,0.756,2.66,2.238,2.66c0.403,0,0.801,0,1.107-0.304c0.967-0.967,1.18-3.11,1.18-4.335c0-1.58-0.048-3.299-0.098-4.878
	c-0.023-1.366-0.209-2.71-0.209-4.054c0-0.115,0.094-0.375,0.236-0.398l2.143-0.283c0.023-0.023,0.165-0.072,0.213-0.072
	c0.165,0,0.355,0.12,0.376,0.284c0-0.047,0.022-0.07,0.022-0.07c0.143,0,1.203,8.905-0.635,14.184
	c-0.705,2.002-1.981,2.803-4.098,2.803h-0.332c-2.733,0-4.569-0.825-5.092-3.77c-0.373-2.051-0.516-4.029-0.516-6.104
	C113.49,97.089,113.584,96.384,113.632,96.148"/>
<path fill="#FFFFFF" d="M125.584,101.473c0-0.188,0.211-0.33,0.398-0.33h2.121c0.494,0,0.258,2.238,0.379,2.591
	c2.379-2.285,4.121-2.45,5.018-2.45c2.027,0,3.063,1.884,3.203,3.747l0.449,8.271c0,0.023-0.05,0.07-0.07,0.07l-2.523,0.093
	c-0.044-0.023-0.142-0.071-0.142-0.093l-0.445-6.15c-0.778-5.938-5.653-1.484-5.653,2.732c0,1.32,0.164,2.641,0.164,3.96v0.234
	c-0.73,0.07-1.344,0.07-2.073,0.07h-0.66l-0.142-0.165c0,0-0.023-0.14-0.023-0.212V101.473z"/>
<path fill="#FFFFFF" d="M147.626,110.072c0.092,0,0.138,0,0.231,0.071c0.851,0.99,0.825,1.907,2.406,1.907
	c0.919,0,1.861-0.799,1.861-1.766c0-1.768-1.131-2.051-2.661-2.284c-1.343-0.189-3.606-1.51-3.606-2.995
	c0-2.615,2.236-4.357,4.709-4.357c1.133,0,2.408,0.071,3.182,1.011l0.026,0.023c0.138,0.165,0.211,0.285,0.211,0.472
	c0,0.023-0.022,0.118-0.022,0.118c-0.238,0.447-1.109,2.072-1.439,2.072h-0.164l-0.166-0.092c-0.589-0.33-1.506-0.849-2.188-0.849
	c-0.521,0-0.946,0.354-0.946,0.896c0,1.86,5.965,0.519,5.965,5.206c0,2.804-1.744,5.066-4.83,5.066c-1.84,0-3.655-0.401-4.313-2.287
	c-0.071-0.188-0.235-0.658-0.235-1.082C145.645,111.205,147.34,110.072,147.626,110.072"/>
<path fill="#FFFFFF" d="M156.205,113.136c-0.14-5.984-0.119-12.064-0.52-18.024v-0.307h2.617c0.047,0,0.094,0.047,0.094,0.071
	c0.14,0.495,0.05,0.66,0.07,1.202c0.234,3.44,0.166,4.758,0.33,8.177c0.025,0.092,0.069,0.092,0.119,0.092
	c0.023,0,0.071-0.021,0.071-0.021c1.13-0.356,3.651-0.849,4.831-0.849c1.268,0,1.955,0.849,1.955,2.096l0.068,6.786
	c0,0.118,0.049,0.566,0.069,0.684v0.118c0,0.471-2.07,0.471-2.687,0.471h-0.256l-0.074-0.07c-0.115-1.156-0.209-4.407-0.444-5.961
	c-0.022-0.191-0.05-0.896-0.33-0.896c-0.683,0-2.687,0.094-3.133,0.637c-0.024,0.165,0,3.015,0,3.157v3.18l-0.048,0.071
	c-0.424,0.024-2.049,0.283-2.663,0C156.276,113.654,156.205,113.23,156.205,113.136"/>
<path fill="#FFFFFF" d="M175.743,101.543c2.452,1.532,3.369,4.1,3.369,6.573c0,2.264-1.435,4.5-3.887,5.468
	c-1.272,0.495-2.922,0.377-4.263-0.071c-2.687-1.062-3.633-3.958-3.633-6.22C167.33,103.382,171.196,99.446,175.743,101.543
	 M171.196,109.578c0.376,0.919,1.201,1.509,2.31,1.509c1.955,0,2.567-1.862,2.567-3.228c0-4.925-5.491-5.892-5.491-0.637
	C170.582,108.021,170.865,108.824,171.196,109.578"/>
<path fill="#FFFFFF" d="M181.195,93.65c0.067-0.071,0.139-0.118,3.133-0.023c0.021,0.4,0.115,1.603-0.588,9.754l3.25,0.212
	c0.354,0.024,0.448,0.26,0.448,0.495c0,0.896-0.144,1.271-0.378,2.169c0,0.092-0.143,0.071-0.236,0.071l-3.227-0.096
	c-0.779,3.748-0.447,6.528,3.488,5.467c0,0.566,0.117,1.462,0.117,2.145c0,0.353-0.779,0.353-1.109,0.353
	c-3.156,0-6.172-0.658-5.16-8.15c-0.115,0-1.271-0.047-1.365-0.073c-0.047,0-0.142-0.07-0.142-0.07v-2.828
	c0,0,0.095-0.047,0.142-0.047l1.199,0.047L181.195,93.65z"/>
<path fill="#FFFFFF" d="M195.928,111.486c0-2.262,1.107-4.171,3.439-4.994c0.92-0.33,2.496-0.427,3.112-0.427
	c0.28,0-0.192-2.919-1.721-2.919c-1.274,0-2.075,1.035-2.944,1.696c0,0-1.697-1.366-1.697-1.415c0-0.236,0.352-0.564,0.496-0.776
	c1.531-1.556,2.965-2.075,4.877-2.075c3.155,0,3.934,2.615,4.028,5.111v0.212c0.115,2.452,0.115,4.973,0,7.424
	c-0.071,0.233-0.448,0.682-1.955,0.847h-0.096c-0.873,0-0.19-0.965-0.708-1.201c-0.352,0.257-0.473,0.54-0.896,0.778
	c-0.894,0.588-2.095,0.658-3.203,0.658c-1.768,0-2.663-1.344-2.732-2.756V111.486z M202.549,110.968v-0.589
	c0-0.802-0.025-2.049-0.426-2.049c-3.605,0-3.439,2.591-3.413,3.086C198.848,112.477,202.549,111.345,202.549,110.968"/>
<path fill="#FFFFFF" d="M115.022,115.26c0.067-0.071,0.138-0.118,3.134-0.023c0.021,0.4,0.114,1.603-0.59,9.754l3.248,0.212
	c0.357,0.023,0.451,0.26,0.451,0.495c0,0.896-0.145,1.271-0.378,2.169c0,0.092-0.142,0.071-0.236,0.071l-3.227-0.096
	c-0.778,3.748-0.449,6.527,3.485,5.467c0,0.566,0.119,1.462,0.119,2.144c0,0.354-0.779,0.354-1.109,0.354
	c-3.155,0-6.171-0.658-5.16-8.151c-0.115,0-1.27-0.047-1.363-0.073c-0.049,0-0.143-0.07-0.143-0.07v-2.828
	c0,0,0.094-0.047,0.143-0.047l1.198,0.047L115.022,115.26z"/>
<path fill="#FFFFFF" d="M123.155,123.365l0.069-0.094h2.83c0.142,0,0.092,0.212,0.092,0.235c0,1.816-0.258,3.582-0.258,5.374
	c0,1.79,0.541,2.756,2.521,2.756h0.094c1.955,0,2.355-1.084,2.355-3.086c0-1.344-0.14-2.688-0.14-4.053
	c0-0.519,1.929-0.849,2.329-0.849h0.262c0.353,0.424,0.469,3.393,0.469,3.935v0.849c0,2.261-0.14,3.841-1.979,5.395
	c-1.79,1.014-4.075,0.919-6.126,0.377c-2.754-0.754-2.988-2.403-2.988-5.067C122.754,127.229,123.155,124.426,123.155,123.365"/>
<path fill="#FFFFFF" d="M147.74,135.146c-4.406,0-5.467-3.888-5.467-6.175v-0.21c0.117-3.581,2.381-6.835,6.902-6.835
	c0.823,0,2.027,0.543,2.027,1.391c0,0.33-0.659,1.98-1.012,1.98c-0.471,0-0.828-0.282-1.346-0.282c-1.789,0-2.826,1.224-3.438,2.591
	c-0.403,0.87-0.284,2.733,0.281,3.605c0.424,0.755,1.459,1.179,2.381,1.2h0.209c0.66,0,1.555-0.092,2.123-0.399
	c0.188-0.094,0.967-0.73,1.202-0.73c0.374,0,1.034,1.507,1.034,2.002c0,1.131-3.32,1.838-4.215,1.838
	C148.188,135.146,147.95,135.146,147.74,135.146"/>
<path fill="#FFFFFF" d="M161.553,123.153c2.451,1.532,3.368,4.1,3.368,6.573c0,2.264-1.435,4.501-3.885,5.468
	c-1.276,0.495-2.924,0.377-4.265-0.071c-2.688-1.061-3.63-3.958-3.63-6.22C153.142,124.992,157.008,121.056,161.553,123.153
	 M157.008,131.188c0.373,0.919,1.199,1.509,2.308,1.509c1.954,0,2.567-1.861,2.567-3.228c0-4.925-5.489-5.892-5.489-0.637
	C156.394,129.632,156.678,130.434,157.008,131.188"/>
<path fill="#FFFFFF" d="M165.988,126.617c0-2.85,1.747-3.416,3.016-3.416h0.164c1.297,0.047,2.711,2.379,3.16,3.981l0.071-0.071
	l0.188-0.377c0.848-1.837,1.906-4.171,4.193-4.171c2.992,0,3.3,2.122,3.63,4.478c0.259,5.11,0.069,5.632,0.069,7.94
	c0,0.141,0,0.306-0.234,0.306h-1.955c-0.05,0-0.191-0.094-0.191-0.141l-0.354-5.751c-0.07-1.105,0.215-2.992-1.412-2.992
	c-1.576,0-2.192,3.841-2.357,4.077l-3.275,0.542c-0.279-0.896-0.4-3.77-1.576-3.77c-0.26,0-0.379,0.259-0.449,1.202
	c0,2.379,0.4,4.806,0.4,7.042v0.424c-0.046,0.188-0.142,0.284-0.307,0.309c-0.704,0.021-1.529,0.165-2.287,0.165
	c-0.023,0-0.188,0.021-0.209-0.096L165.988,126.617z"/>
<path fill="#FFFFFF" d="M181.927,123.79c-0.026-0.07-0.026-0.259,0.138-0.259l2.358-0.188c0.024,0,0.142,0.023,0.163,0.047
	c0.027,0,0.096,0.07,0.096,0.07l0.096,1.389c0.66-1.035,2.52-1.742,3.814-1.836c0.121,0,0.236-0.023,0.356-0.023
	c2.613,0,4.194,2.261,4.403,4.97c0.025,0.19,0.025,0.355,0.025,0.519c0,4.406-4.004,6.293-8.319,4.171
	c0.31,2.994,0.33,3.464,0.567,6.479c0.021,0.425,0.093,1.626,0.093,1.698l-0.071,0.094c0,0-1.105,0.118-1.554,0.165l-0.896,0.094
	l-0.095-0.07c0-0.024-0.142-1.25-0.282-2.851C181.927,124.024,181.927,123.932,181.927,123.79 M185.836,130.081
	c1.438,1.978,4.336,0.896,4.336-1.532c0-0.095-0.024-0.188-0.024-0.283c-0.117-1.342-0.235-2.285-1.742-2.285
	c-0.094,0-0.213,0.023-0.329,0.023C186.496,126.123,184.423,128.103,185.836,130.081"/>
<path fill="#FFFFFF" d="M194.232,133.097c0-2.262,1.106-4.171,3.439-4.994c0.919-0.33,2.496-0.427,3.111-0.427
	c0.281,0-0.191-2.919-1.721-2.919c-1.273,0-2.076,1.035-2.945,1.696c0,0-1.695-1.366-1.695-1.415c0-0.236,0.352-0.564,0.495-0.776
	c1.53-1.556,2.966-2.075,4.877-2.075c3.155,0,3.935,2.615,4.028,5.112v0.212c0.115,2.452,0.115,4.973,0,7.425
	c-0.07,0.233-0.449,0.682-1.955,0.847h-0.096c-0.873,0-0.189-0.965-0.707-1.201c-0.352,0.257-0.473,0.54-0.896,0.778
	c-0.895,0.588-2.096,0.658-3.204,0.658c-1.767,0-2.663-1.344-2.731-2.756V133.097z M200.853,132.578v-0.589
	c0-0.802-0.024-2.049-0.426-2.049c-3.604,0-3.44,2.591-3.413,3.086C197.152,134.086,200.853,132.955,200.853,132.578"/>
<path fill="#FFFFFF" d="M205.334,123.083c0-0.189,0.215-0.331,0.401-0.331h2.122c0.492,0,0.259,2.238,0.378,2.594
	c2.379-2.287,4.12-2.452,5.017-2.452c2.027,0,3.063,1.886,3.204,3.747l0.45,8.271c0,0.023-0.049,0.07-0.07,0.07l-2.523,0.095
	c-0.047-0.023-0.142-0.071-0.142-0.095l-0.444-6.148c-0.781-5.939-5.656-1.485-5.656,2.732c0,1.318,0.165,2.638,0.165,3.958v0.234
	c-0.731,0.072-1.345,0.072-2.076,0.072H205.5l-0.139-0.165c0,0-0.027-0.142-0.027-0.212V123.083z M207.151,119.501
	c0.589-0.966,1.319-1.391,2.544-1.391c1.391,0,1.578,1.462,2.851,1.462c0.614,0,0.399-1.462,0.851-1.462
	c0.279,0,0.516,0,1.789,0.377c0,1.674-1.18,3.089-2.9,3.089c-0.539,0-1.13-0.212-1.625-0.474c-0.354-0.21-0.635-0.658-1.084-0.658
	c-1.036,0-0.802,1.201-1.391,1.201c-0.164,0-1.342-0.328-1.436-0.47C206.75,120.279,206.867,119.996,207.151,119.501"/>
<path fill="#FFFFFF" d="M217.877,130.904c-0.446-3.18,0.709-7.302,4.83-7.891c4.006-0.565,4.878,0.825,5.35,4.218l0.141,0.941
	l-6.926,1.579c-0.023,0-0.165,0.142-0.189,0.213c-0.047,0.141-0.141,0.542,0.118,2.566c0.142,0.967,1.105,1.32,2.026,1.203
	c1.13-0.165,2.404-1.533,3.344-1.533c0.4,0,1.273,0.967,1.322,1.32v0.118c-1.604,2.167-3.275,2.521-5.867,2.379
	C219.08,135.876,218.205,133.167,217.877,130.904 M221.743,125.98c-0.307,0.283-0.778,1.132-0.778,1.627v0.092l0.213-0.045
	c0.022,0,0.07-0.026,0.094-0.026c0.637-0.092,1.297-0.165,4.05-0.775c0,0,0-0.023-0.021-0.095c-0.049-0.283-0.238-1.037-0.238-1.061
	c-0.211-0.707-0.706-0.684-1.366-0.589C223.037,125.203,222.19,125.486,221.743,125.98"/>
<path fill="#FFFFFF" d="M229.193,134.581c0-1.131-0.377-11.499,0.754-11.617c0.142,0,1.365-0.047,2.215-0.07l0.095,1.838
	c1.366-1.485,2.944-2.286,5.253-2.286c0.142,0.165,0.188,0.306,0.398,2.451c-2.871,0.119-5.51,1.884-5.651,4.643l-0.259,5.654
	l-0.051,0.071c-0.021,0.023-0.703,0.071-2.306,0C229.383,135.17,229.193,134.841,229.193,134.581"/>
<path fill="#FFFFFF" d="M245.55,123.153c2.452,1.532,3.369,4.1,3.369,6.573c0,2.264-1.435,4.501-3.885,5.468
	c-1.276,0.495-2.924,0.377-4.265-0.071c-2.687-1.061-3.633-3.958-3.633-6.22C237.137,124.992,241.005,121.056,245.55,123.153
	 M241.005,131.188c0.374,0.919,1.199,1.509,2.308,1.509c1.955,0,2.567-1.861,2.567-3.228c0-4.925-5.489-5.892-5.489-0.637
	C240.391,129.632,240.676,130.434,241.005,131.188"/>
<path fill="#FFFFFF" d="M121.076,156.475c-1.672,0.682-2.332,1.153-4.123,1.153c-2.098,0-3.676-1.624-3.676-3.675
	c-0.023-0.142-0.023-0.284-0.023-0.449c0-3.791,4.123-6.267,7.656-5.583l0.096-9.471c0.023-0.166,0.166-0.236,3.015-0.097
	c0.094,0.118,0.071,0.237,0.071,0.355c0,3.862-0.26,7.703-0.26,11.544c0,2.426,0.094,4.854,0.094,7.328v0.307
	c-0.164,0.259-1.719,0.306-2.121,0.306c-0.045,0-0.28-0.024-0.352-0.024c-0.213-0.07-0.213-0.471-0.213-0.589
	C121.24,157.273,121.453,156.545,121.076,156.475 M120.771,154.022v-0.565c-0.024-0.752-0.119-3.086-0.142-3.086
	c-0.213-0.024-0.449-0.024-0.637-0.024c-3.627,0-3.699,2.167-3.699,3.487v0.213C116.293,155.744,119.779,154.495,120.771,154.022"/>
<path fill="#FFFFFF" d="M125.63,152.514c-0.446-3.18,0.708-7.302,4.829-7.891c4.006-0.566,4.881,0.825,5.351,4.218l0.14,0.941
	l-6.926,1.579c-0.022,0-0.164,0.143-0.189,0.213c-0.046,0.141-0.141,0.542,0.119,2.567c0.142,0.967,1.105,1.32,2.027,1.203
	c1.131-0.165,2.402-1.533,3.346-1.533c0.397,0,1.269,0.967,1.318,1.32v0.118c-1.604,2.167-3.275,2.521-5.867,2.379
	C126.833,157.486,125.96,154.777,125.63,152.514 M129.496,147.591c-0.307,0.283-0.779,1.132-0.779,1.627v0.092l0.213-0.045
	c0.023,0,0.071-0.026,0.094-0.026c0.637-0.092,1.297-0.165,4.051-0.775c0,0,0-0.024-0.021-0.095
	c-0.048-0.283-0.236-1.037-0.236-1.062c-0.211-0.707-0.705-0.684-1.365-0.589C130.789,146.813,129.943,147.096,129.496,147.591"/>
<path fill="#FFFFFF" d="M144.537,137.247h3.111c0,0.778,0.094,1.509,0.094,2.285v0.236l-0.59,16.588
	c-0.069,0.236-0.92,0.236-1.885,0.236h-0.236c-0.354-0.047-0.258-1.179-0.305-1.438L144.537,137.247z"/>
<path fill="#FFFFFF" d="M149.158,154.707c0-2.262,1.105-4.171,3.44-4.994c0.919-0.33,2.496-0.427,3.11-0.427
	c0.279,0-0.19-2.919-1.722-2.919c-1.272,0-2.073,1.035-2.942,1.695c0,0-1.698-1.366-1.698-1.415c0-0.236,0.353-0.564,0.495-0.776
	c1.533-1.556,2.966-2.075,4.879-2.075c3.154,0,3.933,2.615,4.028,5.112v0.212c0.115,2.452,0.115,4.973,0,7.424
	c-0.073,0.233-0.45,0.682-1.956,0.847h-0.095c-0.874,0-0.192-0.965-0.71-1.201c-0.352,0.257-0.47,0.54-0.894,0.778
	c-0.896,0.588-2.095,0.658-3.204,0.658c-1.77,0-2.661-1.344-2.732-2.756V154.707z M155.779,154.188v-0.589
	c0-0.802-0.025-2.049-0.426-2.049c-3.605,0-3.439,2.591-3.415,3.086C152.078,155.696,155.779,154.564,155.779,154.188"/>
<path fill="#FFFFFF" d="M167.33,155.838c0,0,0.427-10.815,0.875-10.815c0.093,0,0.141,0.024,2.428,0.071
	c0.209,0,0.232,0.212,0.232,0.33c0,0.047-0.023,0.212-0.023,0.236c-0.021,0.707-0.209,3.816-0.869,11.05
	c-0.025,0.304-0.071,0.398-0.355,0.446c-0.73-0.048-1.437,0.144-2.19-0.069c-0.022,0-0.071-0.049-0.071-0.073
	C167.33,156.826,167.33,156.003,167.33,155.838 M167.924,140.357c0-2.45,2.968-3.534,3.627-0.941c0,0,0.021,0.281,0.021,0.375
	c0,1.061-0.494,2.332-1.695,2.332c-0.707,0-1.672-0.33-1.93-1.082C167.947,140.923,167.924,140.452,167.924,140.357"/>
<path fill="#FFFFFF" d="M172.236,154.848c5.585-6.998,5.82-7.375,5.82-8.011c0-0.401-4.786,0.235-6.34,0.282
	c-0.187-0.896-0.307-1.884-0.094-2.78c2.192-0.259,6.831-0.33,9.824-0.377c0.309,0.896,0.309,1.58,0.285,2.309
	c-0.521,2.357-3.322,4.383-4.83,7.258c2.023-0.212,3.369-0.072,5.134-0.072h0.259c0.378,0.59,0.307,1.415,0.143,2.853h-0.281
	c-2.428,0-4.76-0.095-9.449,0.542h-0.097c-0.209,0-0.442-1.532-0.442-1.792C172.168,154.966,172.168,154.942,172.236,154.848"/>
<path fill="#FFFFFF" d="M189.373,162.011h-2.287l-0.141-3.063l2.471-0.188l-0.186-4.807c-2.311,0.99-6.693-0.094-7.095-2.662
	c-0.965-3.982,3.112-8.13,7.237-7.046c0.164,0,0.446,0.142,0.588,0.284c0.375,0-0.049-0.849,0.895-0.849
	c0.447,0,1.32-0.118,1.579,0.33c0,0.094,0.022,0.613,0.022,0.707c0,0.163-0.022,1.177-0.259,13.383c0.048,0.401,0,0.542,0.378,0.542
	c0.518,0,1.012-0.094,1.506-0.094c0.188,0,0.238,0.236,0.238,0.375c0,1.016-0.072,1.909-0.072,2.923c0,0.07-0.775,0.047-1.979,0.353
	l-0.071,0.071l0.071,1.884l-2.663,0.141L189.373,162.011z M189.043,151.102l-0.072-4.312h-0.283c-1.93,0-3.582,0.519-3.582,2.992
	c0,0.118,0.025,0.259,0.025,0.401C185.248,151.855,187.791,151.456,189.043,151.102"/>
<path fill="#FFFFFF" d="M194.468,144.975l0.069-0.094h2.83c0.14,0,0.092,0.212,0.092,0.235c0,1.815-0.258,3.582-0.258,5.374
	c0,1.79,0.541,2.756,2.521,2.756h0.094c1.955,0,2.356-1.084,2.356-3.086c0-1.344-0.142-2.688-0.142-4.053
	c0-0.519,1.932-0.849,2.33-0.849h0.262c0.354,0.424,0.47,3.393,0.47,3.935v0.849c0,2.261-0.14,3.841-1.979,5.395
	c-1.791,1.014-4.076,0.919-6.127,0.377c-2.754-0.754-2.99-2.403-2.99-5.066C194.066,148.84,194.468,146.036,194.468,144.975"/>
<path fill="#FFFFFF" d="M206.512,155.838c0,0,0.426-10.815,0.875-10.815c0.092,0,0.143,0.024,2.428,0.071
	c0.209,0,0.235,0.212,0.235,0.33c0,0.047-0.026,0.212-0.026,0.236c-0.021,0.707-0.209,3.816-0.869,11.05
	c-0.025,0.304-0.071,0.398-0.355,0.446c-0.73-0.048-1.435,0.144-2.188-0.069c-0.026,0-0.071-0.049-0.071-0.073
	C206.512,156.826,206.512,156.003,206.512,155.838 M207.104,140.357c0-2.45,2.97-3.534,3.629-0.941c0,0,0.021,0.281,0.021,0.375
	c0,1.061-0.494,2.332-1.695,2.332c-0.707,0-1.672-0.33-1.931-1.082C207.128,140.923,207.104,140.452,207.104,140.357"/>
<path fill="#FFFFFF" d="M211.348,152.514c-0.447-3.18,0.707-7.302,4.828-7.891c4.006-0.566,4.879,0.825,5.351,4.218l0.14,0.941
	l-6.926,1.579c-0.022,0-0.164,0.143-0.189,0.213c-0.046,0.141-0.141,0.542,0.119,2.567c0.142,0.967,1.105,1.32,2.025,1.203
	c1.131-0.165,2.404-1.533,3.344-1.533c0.401,0,1.274,0.967,1.322,1.32v0.118c-1.604,2.167-3.275,2.521-5.867,2.379
	C212.55,157.486,211.675,154.777,211.348,152.514 M215.213,147.591c-0.307,0.283-0.779,1.132-0.779,1.627v0.092l0.213-0.045
	c0.023,0,0.071-0.026,0.094-0.026c0.638-0.092,1.297-0.165,4.051-0.775c0,0,0-0.024-0.021-0.095
	c-0.048-0.283-0.238-1.037-0.238-1.062c-0.211-0.707-0.705-0.684-1.365-0.589C216.506,146.813,215.66,147.096,215.213,147.591"/>
<path fill="#FFFFFF" d="M222.662,156.19c0-1.131-0.376-11.499,0.754-11.616c0.143,0,1.366-0.047,2.217-0.07l0.094,1.838
	c1.365-1.485,2.944-2.286,5.252-2.286c0.143,0.165,0.188,0.307,0.399,2.451c-2.872,0.119-5.51,1.884-5.651,4.643l-0.26,5.654
	l-0.049,0.071c-0.021,0.023-0.705,0.071-2.307,0C222.852,156.78,222.662,156.45,222.662,156.19"/>
<path fill="#FFFFFF" d="M236.213,156.475c-1.672,0.682-2.331,1.153-4.121,1.153c-2.1,0-3.676-1.624-3.676-3.675
	c-0.025-0.142-0.025-0.284-0.025-0.449c0-3.791,4.123-6.267,7.657-5.583l0.094-9.471c0.024-0.166,0.165-0.236,3.017-0.097
	c0.094,0.118,0.07,0.237,0.07,0.355c0,3.862-0.257,7.703-0.257,11.544c0,2.426,0.092,4.854,0.092,7.328v0.307
	c-0.165,0.259-1.721,0.306-2.12,0.306c-0.046,0-0.281-0.024-0.353-0.024c-0.214-0.07-0.214-0.471-0.214-0.589
	C236.377,157.273,236.591,156.545,236.213,156.475 M235.908,154.022v-0.565c-0.025-0.752-0.119-3.086-0.143-3.086
	c-0.213-0.024-0.449-0.024-0.637-0.024c-3.626,0-3.697,2.167-3.697,3.487v0.213C231.432,155.744,234.916,154.495,235.908,154.022"/>
<path fill="#FFFFFF" d="M240.674,154.707c0-2.262,1.106-4.171,3.441-4.994c0.917-0.33,2.494-0.427,3.109-0.427
	c0.28,0-0.191-2.919-1.721-2.919c-1.273,0-2.076,1.035-2.945,1.695c0,0-1.695-1.366-1.695-1.415c0-0.236,0.352-0.564,0.494-0.776
	c1.531-1.556,2.967-2.075,4.877-2.075c3.154,0,3.936,2.615,4.029,5.112v0.212c0.115,2.452,0.115,4.973,0,7.424
	c-0.07,0.233-0.449,0.682-1.955,0.847h-0.096c-0.873,0-0.189-0.965-0.708-1.201c-0.351,0.257-0.472,0.54-0.896,0.778
	c-0.895,0.588-2.096,0.658-3.204,0.658c-1.767,0-2.661-1.344-2.731-2.756V154.707z M247.294,154.188v-0.589
	c0-0.802-0.024-2.049-0.426-2.049c-3.604,0-3.44,2.591-3.413,3.086C243.594,155.696,247.294,154.564,247.294,154.188"/>
</svg>
