<?xml version="1.0" encoding="utf-8"?>
<!-- Generator: Adobe Illustrator 16.0.0, SVG Export Plug-In . SVG Version: 6.00 Build 0)  -->
<!DOCTYPE svg PUBLIC "-//W3C//DTD SVG 1.1//EN" "http://www.w3.org/Graphics/SVG/1.1/DTD/svg11.dtd">
<svg version="1.1" id="Capa_1" xmlns="http://www.w3.org/2000/svg" xmlns:xlink="http://www.w3.org/1999/xlink" x="0px" y="0px"
	 width="306.914px" height="192.5px" viewBox="0 0 306.914 192.5" enable-background="new 0 0 306.914 192.5" xml:space="preserve">
<g opacity="0.75">
	<g>
		<defs>
			<rect id="SVGID_219_" x="23.007" y="12.371" width="101.737" height="56.512"/>
		</defs>
		<clipPath id="SVGID_2_">
			<use xlink:href="#SVGID_219_"  overflow="visible"/>
		</clipPath>
		<path clip-path="url(#SVGID_2_)" d="M31.844,66.521c-0.063,0.204-0.179,1.021-0.175,1.154c-0.441,1.364-5.59,1.014-8.02,1.208
			c-0.068,0.002-0.476-0.124-0.546-0.19c-0.003-0.135-0.085-0.74-0.089-0.876c-0.136-5.61,1.488-11.196,3.323-41.606
			c0.403-0.078,2.158-0.256,2.767-0.271c1.014-0.024,2.906-0.07,2.938,1.215C32.36,40.336,32.068,53.395,31.844,66.521
			 M28.643,23.652c-2.095,0.051-3.556-1.604-3.605-3.7c-0.058-2.366,1.151-5.507,4.059-5.577c2.23-0.054,3.683,1.265,3.736,3.563
			C32.898,20.641,31.686,23.579,28.643,23.652"/>
		<path clip-path="url(#SVGID_2_)" d="M55.286,12.391c0.066-0.001,0.206,0.13,0.208,0.197c0.069,0.135,0.218,0.605,0.219,0.672
			l0.167,6.894l-0.198,0.207l-9.315,0.699c-0.068,0.001-0.815-0.115-0.808,0.223l-0.16,1.762l0.326,13.519
			c0.007,0.271,0.165,1.212,0.236,1.346c0.005,0.203,0.349,0.465,0.417,0.464l8.923-0.216c0.743-0.018,0.629,0.864,0.64,1.338
			c0.026,1.08-0.069,2.706-0.043,3.788c-0.058,0.406-0.164,1.559-0.163,1.626l-0.466,0.351c0,0-1.551,0.172-9.924,0.713l-0.33,0.345
			l0.399,16.493c0.171,1.484,0.265,2.564,0.298,3.915l0.016,0.677l-0.463,0.484c-0.608-0.053-5.206,0.057-5.812,0.14
			c-0.136,0.003-1.078,0.161-1.214,0.165c0,0-0.269,0.073-1.135-55.363C39.059,12.58,42.502,12.294,55.286,12.391"/>
		<path clip-path="url(#SVGID_2_)" d="M59.836,16.069l-0.032-1.353l15.854-1.601c0.338-0.007,2.023-0.252,2.24,0.352
			c0.187,2.093,0.774,4.039,0.823,6.067l0.023,0.947c-0.453,0.823-9.104,1.099-10.715,1.611l0.015,0.609
			c0.015,0.608,0.605,16.69,2.228,16.651l9.431-1.58c0.067-0.002,0.269-0.076,0.336-0.077l1.661,7.129l-11.321,1.695l0.02,0.878
			c0.084,3.447,0.445,7.158,0.863,10.463c0.015,0.675,0.175,1.618,0.985,1.598c1.148-0.027,8.889-1.566,10.848-1.682
			c0.676-0.017,0.827,0.657,0.908,1.196c0.303,1.345,0.913,4.17,0.952,5.793c0.003,0.135,0.15,0.673-0.186,0.748
			c-3.513,0.152-6.603,1.039-17.063,1.968c-0.066,0.069-1.549,0.24-1.617,0.242c-0.067,0.001-0.271,0.074-0.337,0.076
			c-1.217,0.029-1.28-2.607-1.362-3.214L59.836,16.069z"/>
		<path clip-path="url(#SVGID_2_)" d="M88.078,23.434c-0.027-1.148-0.098-6.829-0.125-7.977c-0.002-0.067,0.256-0.615,0.39-0.686
			c2.154-0.39,4.721-0.52,6.952-0.574l0.54-0.013l0.212,0.401l0.922,38.122c0.02,0.811,0.273,2.902,0.274,2.969l0.213,0.402
			l0.811-0.02c3.109-0.075,6.472-0.901,9.427-1.717l0.339-0.009c1.893-0.045,1.558,5.644,1.584,6.726l0.022,0.946
			c-0.72,1.032-7.127,1.728-8.139,1.887c-0.606,0.151-5.728,0.884-6.4,1.034l-3.562,0.966c-0.135,0.003-0.944,0.09-1.215,0.097
			c-0.135,0.003-0.677-0.051-0.744-0.049l-0.214-0.469L88.078,23.434z"/>
		<path clip-path="url(#SVGID_2_)" d="M112.849,15.869c0.721-0.964,3.215-1.295,7.872-1.678c0.886,0.249,1.246,1.187,1.405,2.13
			c-0.051-4.868,2.256,31.8,2.596,45.859l0.022,0.946l-0.266,0.21c0.002,0.067-1.347,0.235-1.887,0.249
			c-1.818,0.382-3.722-0.046-5.539,0.336l-0.27,0.007c-1.542-5.035-3.322-31.099-4.05-44.405l-0.022-0.945
			C112.685,17.496,112.674,17.023,112.849,15.869"/>
	</g>
</g>
<path fill="#FFFFFF" d="M31.003,65.681c-0.062,0.204-0.178,1.02-0.175,1.154c-0.44,1.364-5.589,1.014-8.019,1.208
	c-0.068,0.002-0.477-0.124-0.546-0.19c-0.003-0.135-0.085-0.74-0.089-0.876c-0.137-5.61,1.487-11.196,3.322-41.606
	c0.404-0.078,2.159-0.256,2.768-0.271c1.014-0.024,2.905-0.07,2.937,1.215C31.521,39.496,31.229,52.555,31.003,65.681
	 M27.803,22.812c-2.096,0.051-3.557-1.604-3.605-3.7c-0.058-2.366,1.151-5.507,4.058-5.577c2.231-0.054,3.684,1.265,3.737,3.563
	C32.059,19.801,30.846,22.739,27.803,22.812"/>
<path fill="#FFFFFF" d="M54.446,11.551c0.066-0.001,0.205,0.13,0.207,0.197c0.07,0.135,0.219,0.605,0.22,0.672l0.167,6.894
	l-0.198,0.207l-9.316,0.699c-0.067,0.001-0.814-0.115-0.807,0.223l-0.161,1.762l0.327,13.519c0.006,0.271,0.165,1.212,0.236,1.346
	c0.005,0.203,0.349,0.465,0.417,0.464l8.923-0.216c0.743-0.018,0.629,0.864,0.639,1.338c0.027,1.08-0.068,2.706-0.043,3.788
	C55,42.85,54.893,44.003,54.894,44.07l-0.465,0.351c0,0-1.551,0.172-9.924,0.713l-0.33,0.345l0.399,16.493
	c0.171,1.484,0.265,2.564,0.298,3.915l0.016,0.677l-0.463,0.484c-0.609-0.053-5.206,0.057-5.812,0.14
	c-0.137,0.003-1.078,0.161-1.215,0.165c0,0-0.268,0.073-1.135-55.363C38.219,11.74,41.662,11.454,54.446,11.551"/>
<path fill="#FFFFFF" d="M58.996,15.229l-0.032-1.353l15.854-1.601c0.338-0.007,2.024-0.252,2.241,0.352
	c0.187,2.093,0.774,4.039,0.823,6.067l0.022,0.947c-0.452,0.823-9.103,1.099-10.715,1.611l0.016,0.609
	c0.015,0.608,0.605,16.69,2.228,16.651l9.43-1.58c0.068-0.002,0.27-0.076,0.336-0.077l1.661,7.129l-11.32,1.695l0.02,0.878
	c0.084,3.447,0.445,7.158,0.863,10.463c0.015,0.675,0.175,1.618,0.984,1.598c1.149-0.027,8.89-1.566,10.849-1.682
	c0.676-0.017,0.827,0.657,0.908,1.196c0.303,1.345,0.912,4.17,0.951,5.793c0.003,0.135,0.151,0.673-0.185,0.748
	c-3.513,0.152-6.603,1.039-17.063,1.968c-0.065,0.069-1.549,0.24-1.616,0.242c-0.067,0.001-0.271,0.074-0.337,0.076
	c-1.218,0.029-1.28-2.607-1.362-3.214L58.996,15.229z"/>
<path fill="#FFFFFF" d="M87.238,22.593c-0.027-1.148-0.099-6.829-0.125-7.977c-0.003-0.067,0.256-0.615,0.39-0.686
	c2.154-0.39,4.72-0.52,6.952-0.574l0.54-0.013l0.212,0.401l0.922,38.122c0.019,0.811,0.272,2.902,0.274,2.969l0.213,0.402
	l0.811-0.02c3.109-0.075,6.471-0.901,9.426-1.717l0.339-0.009c1.894-0.045,1.559,5.644,1.584,6.726l0.023,0.946
	c-0.72,1.032-7.127,1.728-8.139,1.887c-0.606,0.151-5.729,0.884-6.4,1.034l-3.562,0.966c-0.136,0.003-0.944,0.09-1.216,0.097
	c-0.135,0.003-0.677-0.051-0.743-0.049l-0.215-0.469L87.238,22.593z"/>
<path fill="#FFFFFF" d="M112.009,15.029c0.721-0.964,3.215-1.295,7.871-1.678c0.887,0.249,1.246,1.187,1.405,2.13
	c-0.05-4.868,2.256,31.8,2.597,45.859l0.022,0.946l-0.266,0.21c0.002,0.067-1.348,0.235-1.888,0.249
	c-1.817,0.382-3.721-0.046-5.539,0.336l-0.269,0.007c-1.542-5.035-3.323-31.099-4.05-44.405l-0.023-0.945
	C111.845,16.656,111.833,16.183,112.009,15.029"/>
<g opacity="0.75">
	<g>
		<defs>
			<rect id="SVGID_221_" x="22.828" y="71.046" width="102.822" height="64.607"/>
		</defs>
		<clipPath id="SVGID_4_">
			<use xlink:href="#SVGID_221_"  overflow="visible"/>
		</clipPath>
		<path clip-path="url(#SVGID_4_)" d="M41.325,73.869c1.701-0.041,3.499,0.612,5.14,1.271c0.079,0.075,0.394,0.222,0.394,0.222
			l0.185,7.659l-1.47,0.036c-15.242,0.369-15.418,34.745-1.518,39.75c2.655,0.944,5.436,0.644,8.372,0.417l0.192,7.969
			c0,0-0.534,0.322-0.842,0.408c-1.915,0.821-3.844,1.177-5.933,1.228C15.285,133.567,16.58,75.01,41.325,73.869"/>
		<path clip-path="url(#SVGID_4_)" d="M53.792,77.207c0.826-1.104,3.681-1.48,9.013-1.921c1.013,0.286,1.425,1.359,1.606,2.438
			c-0.057-5.572,2.583,36.4,2.973,52.493l0.025,1.085l-0.305,0.238c0.002,0.078-1.542,0.271-2.16,0.285
			c-2.079,0.438-4.259-0.052-6.339,0.386l-0.31,0.008c-1.765-5.764-3.802-35.597-4.634-50.826l-0.026-1.084
			C53.604,79.07,53.593,78.528,53.792,77.207"/>
		<path clip-path="url(#SVGID_4_)" d="M77.943,83.513c-0.168-0.538-0.708-0.447-1.171-0.436c-1.703,0.041-3.316,0.544-5.096,0.587
			c-0.31,0.008-0.78-0.213-0.791-0.677l-0.229-9.438l25.223-0.61l0.255,10.522l-8.743,0.212l-0.223,0.392l0.118,4.875
			c1.036,14.063,2.385,28.275,2.729,42.435c0.019,0.774-0.121,1.397-0.889,1.648l-7.583,0.183c-0.541,0.013-0.777-0.136-0.944-0.673
			C80.126,116.13,78.725,99.829,77.943,83.513"/>
		<path clip-path="url(#SVGID_4_)" d="M98.457,134.73c0.26-5.271,0.51-10.928,1.3-42.3c0.422-14.641,4.133-21.156,13.109-21.373
			c0.542-0.013,1.16-0.028,1.781,0.034c8.124-0.196,9.89,8.819,10.275,15.157l0.008,0.387c0.119,1.701,0.447,5.641,0.72,45.735
			l-0.532,0.399l-3.096,0.075c-1.237,0.029-2.474,0.137-3.876-0.294c-0.097-0.771-0.262-4.405-1.632-19.391l-0.542,0.012
			c-2.784,0.068-5.641,0.369-9.432,0.461c-0.227,3.489-0.063,7.046,0.9,21.268c0,0-0.22,0.548-0.373,0.552l-8.357,0.202
			c-0.309,0.007-0.243-0.459-0.245-0.537L98.457,134.73z M107.533,106.641l0.163,0.384c0.079,0.076,2.712,0.09,8.284,0.032
			c0.23-0.083,0.223-0.393,0.218-0.625l0.562-15.187l-0.031-1.315c-0.251-10.368-8.592-12.721-9.227-0.551
			c-0.267,4.961-0.286,7.361-0.155,12.778C107.369,103.084,107.523,106.254,107.533,106.641"/>
	</g>
</g>
<path fill="#FFFFFF" d="M40.485,73.029c1.7-0.041,3.498,0.612,5.14,1.271c0.079,0.075,0.393,0.222,0.393,0.222l0.186,7.659
	l-1.47,0.036c-15.242,0.369-15.419,34.745-1.518,39.75c2.655,0.944,5.436,0.645,8.372,0.417l0.192,7.97c0,0-0.534,0.321-0.843,0.408
	c-1.915,0.82-3.844,1.177-5.932,1.228C14.445,132.727,15.74,74.17,40.485,73.029"/>
<path fill="#FFFFFF" d="M52.952,76.367c0.825-1.104,3.681-1.481,9.013-1.921c1.012,0.286,1.425,1.359,1.605,2.438
	c-0.056-5.572,2.583,36.4,2.974,52.493l0.024,1.084l-0.304,0.239c0.002,0.078-1.542,0.27-2.161,0.285
	c-2.079,0.437-4.258-0.052-6.338,0.386l-0.31,0.007c-1.766-5.763-3.803-35.596-4.635-50.826l-0.025-1.084
	C52.765,78.229,52.753,77.688,52.952,76.367"/>
<path fill="#FFFFFF" d="M77.103,82.672c-0.168-0.538-0.707-0.447-1.171-0.436c-1.702,0.041-3.315,0.544-5.096,0.587
	c-0.309,0.008-0.78-0.213-0.791-0.677l-0.228-9.438l25.223-0.61l0.254,10.522l-8.743,0.212l-0.222,0.392l0.118,4.874
	c1.036,14.064,2.385,28.276,2.728,42.436c0.02,0.773-0.121,1.396-0.888,1.647l-7.583,0.184c-0.541,0.013-0.778-0.137-0.945-0.674
	C79.286,115.291,77.884,98.989,77.103,82.672"/>
<path fill="#FFFFFF" d="M97.617,133.89c0.26-5.271,0.51-10.928,1.3-42.3c0.422-14.641,4.133-21.156,13.109-21.373
	c0.542-0.013,1.159-0.028,1.78,0.034c8.124-0.196,9.891,8.819,10.276,15.157l0.008,0.387c0.119,1.701,0.447,5.64,0.719,45.734
	l-0.531,0.4l-3.097,0.075c-1.236,0.029-2.473,0.137-3.876-0.294c-0.096-0.771-0.261-4.405-1.631-19.392l-0.542,0.013
	c-2.785,0.067-5.641,0.369-9.432,0.461c-0.228,3.489-0.063,7.046,0.899,21.267c0,0-0.219,0.548-0.373,0.552l-8.356,0.202
	c-0.31,0.007-0.243-0.459-0.245-0.537L97.617,133.89z M106.693,105.801l0.162,0.383c0.079,0.077,2.713,0.09,8.284,0.033
	c0.231-0.083,0.224-0.394,0.219-0.625l0.562-15.188l-0.032-1.314c-0.251-10.368-8.591-12.721-9.226-0.551
	c-0.268,4.961-0.286,7.36-0.155,12.777C106.529,102.245,106.683,105.415,106.693,105.801"/>
<g opacity="0.75">
	<g>
		<defs>
			<rect id="SVGID_223_" x="21.143" y="136.121" width="101.846" height="33.076"/>
		</defs>
		<clipPath id="SVGID_6_">
			<use xlink:href="#SVGID_223_"  overflow="visible"/>
		</clipPath>
		<path clip-path="url(#SVGID_6_)" d="M30.376,138.542c0.85-0.021,1.746,0.307,2.564,0.635c0.04,0.036,0.197,0.109,0.197,0.109
			l0.092,3.824l-0.733,0.018c-7.608,0.185-7.696,17.346-0.757,19.845c1.324,0.469,2.713,0.32,4.179,0.208l0.097,3.978
			c0,0-0.267,0.161-0.42,0.203c-0.957,0.41-1.919,0.588-2.961,0.614C17.377,168.344,18.022,139.111,30.376,138.542"/>
		<path clip-path="url(#SVGID_6_)" d="M36.603,140.208c0.412-0.551,1.838-0.739,4.499-0.958c0.506,0.143,0.712,0.679,0.802,1.218
			c-0.029-2.782,1.289,18.172,1.483,26.204l0.014,0.541l-0.152,0.119c0,0.039-0.77,0.136-1.079,0.144
			c-1.037,0.218-2.127-0.027-3.164,0.191l-0.154,0.004c-0.881-2.878-1.897-17.771-2.313-25.374l-0.013-0.541
			C36.51,141.139,36.502,140.868,36.603,140.208"/>
		<path clip-path="url(#SVGID_6_)" d="M54.513,137.688c6.142-0.148,7.637,7.313,7.568,15.702
			c-0.058,5.604-0.435,15.624-7.967,15.805c-3.63,0.088-7.23-3.381-7.94-7.151c-0.711-3.848-0.923-7.821-0.52-11.929
			c0.399-4.261,1.425-8.15,4.716-11.128C51.506,137.993,52.891,137.728,54.513,137.688 M52.719,164.166
			c2.11,1.031,3.648-0.859,4.147-2.611c0.109-0.352,0.456-1.944,0.925-9.762l-0.017-0.695c-0.404-16.687-7.967-9.817-7.646,3.47
			l0.032,1.391C50.253,159.704,50.372,163.024,52.719,164.166"/>
		<path clip-path="url(#SVGID_6_)" d="M64.43,141.7c-0.044-0.229-0.311-3.199-0.365-3.934l-0.007-0.271
			c-0.003-0.114,0.108-0.312,0.108-0.312c4.951,0.229,4.951,0.229,4.991,0.228c1.43-0.034,6.678,12.438,9.836,18.429
			c0.276-1.398-0.414-18.772,0.783-18.802c0.424-0.01,1.736-0.079,3.909,0.255c0.12,0.189,0.122,0.267,0.128,0.499l0.003,0.154
			c-0.252,2.324-0.202,4.371,0.138,23.301l0.064,2.627c-0.021,0.694-0.058,2.435-0.058,2.435l-0.112,0.12
			c-1.042,0.063-2.198,0.208-3.363-0.036l-11.443-20.94c-0.038,0.001-0.113,0.08-0.112,0.118c0.024,1.044,0.163,0.383,2.746,20.919
			l0.012,0.464c-0.379,0.318-0.966,0.023-4.591,0.344l-0.118-0.114c-0.041-0.076-0.509-3.426-0.657-4.776L64.43,141.7z"/>
		<path clip-path="url(#SVGID_6_)" d="M86.15,138.392l-0.02-0.771l9.061-0.915c0.192-0.004,1.156-0.145,1.28,0.201
			c0.106,1.194,0.442,2.308,0.47,3.466l0.014,0.541c-0.26,0.47-5.202,0.628-6.122,0.921l0.007,0.348
			c0.01,0.349,0.348,9.537,1.275,9.516l5.388-0.903c0.038-0.001,0.153-0.043,0.192-0.044l0.949,4.074l-6.47,0.967l0.012,0.503
			c0.048,1.97,0.254,4.09,0.491,5.978c0.01,0.388,0.101,0.927,0.563,0.914c0.657-0.016,5.081-0.896,6.199-0.961
			c0.387-0.009,0.474,0.375,0.52,0.685c0.172,0.767,0.521,2.382,0.544,3.31c0.001,0.077,0.085,0.384-0.106,0.427
			c-2.007,0.088-3.772,0.595-9.75,1.125c-0.038,0.039-0.886,0.138-0.924,0.139c-0.039,0.001-0.154,0.043-0.192,0.044
			c-0.694,0.016-0.731-1.49-0.778-1.837L86.15,138.392z"/>
		<path clip-path="url(#SVGID_6_)" d="M102.375,158.792c0.114-0.041,1.54-0.229,2.08-0.281l0.153-0.003
			c0.117-0.004,0.231-0.046,0.274,0.107c0.181,1.117,0.783,3.615,2.405,3.575c1.507-0.036,3.286-1.547,3.25-3.053
			c-0.178-7.339-10.168-8.143-10.331-14.901c-0.085-3.514,2.567-7.25,6.778-7.352c0.31-0.008,0.62,0.101,0.933,0.171
			c2.216,0.564,3.075,0.93,4.132,3.068c0.287,0.729,0.406,0.879,0.419,1.382l-2.519,2.921c0,0-0.115,0.041-0.192,0.043
			c-1.042,0.024-1.631-3.517-3.91-3.462c-1.042,0.025-1.487,0.771-1.463,1.813c0.13,5.369,9.624,6.415,10.445,14.821
			c0.413,4.278-2.842,8.724-7.518,8.837c-3.167,0.077-4.825-1.467-5.934-4.146l-0.083-0.19c-0.287-0.689-0.575-1.454-0.593-2.189
			C100.685,159.182,101.721,158.886,102.375,158.792"/>
		<path clip-path="url(#SVGID_6_)" d="M119.768,161.965c1.197-0.028,2.032,0.917,2.062,2.115c0.032,1.352-0.66,3.146-2.32,3.186
			c-1.273,0.031-2.104-0.722-2.136-2.034C117.335,163.687,118.03,162.007,119.768,161.965 M117.939,137.469
			c0.035-0.116,0.103-0.582,0.101-0.659c0.251-0.778,3.192-0.579,4.582-0.69c0.038-0.001,0.271,0.071,0.311,0.108
			c0.002,0.077,0.05,0.425,0.052,0.502c0.077,3.205-0.85,6.396-1.899,23.774c-0.23,0.044-1.232,0.146-1.58,0.153
			c-0.579,0.015-1.661,0.041-1.68-0.693C117.644,152.433,117.812,144.969,117.939,137.469"/>
	</g>
</g>
<path fill="#FFFFFF" d="M29.536,137.703c0.85-0.021,1.746,0.306,2.564,0.634c0.04,0.037,0.197,0.11,0.197,0.11l0.092,3.824
	l-0.734,0.018c-7.607,0.184-7.695,17.345-0.757,19.844c1.325,0.47,2.713,0.321,4.18,0.208l0.097,3.979c0,0-0.268,0.161-0.42,0.203
	c-0.957,0.409-1.919,0.588-2.961,0.613C16.537,167.503,17.183,138.271,29.536,137.703"/>
<path fill="#FFFFFF" d="M35.763,139.368c0.411-0.551,1.838-0.74,4.498-0.958c0.507,0.142,0.713,0.678,0.803,1.217
	c-0.029-2.782,1.289,18.172,1.482,26.205l0.015,0.541l-0.152,0.119c0,0.039-0.77,0.135-1.079,0.143
	c-1.038,0.219-2.127-0.026-3.164,0.192l-0.154,0.004c-0.882-2.878-1.897-17.771-2.313-25.374l-0.013-0.541
	C35.669,140.298,35.662,140.028,35.763,139.368"/>
<path fill="#FFFFFF" d="M53.673,136.847c6.142-0.147,7.637,7.314,7.567,15.702c-0.057,5.605-0.434,15.624-7.966,15.806
	c-3.63,0.088-7.231-3.381-7.941-7.151c-0.711-3.848-0.923-7.822-0.519-11.929c0.399-4.262,1.425-8.15,4.716-11.128
	C50.665,137.153,52.051,136.887,53.673,136.847 M51.878,163.326c2.111,1.031,3.649-0.86,4.148-2.612
	c0.109-0.351,0.456-1.943,0.924-9.761l-0.016-0.696c-0.404-16.686-7.967-9.816-7.646,3.471l0.033,1.391
	C49.412,158.864,49.531,162.184,51.878,163.326"/>
<path fill="#FFFFFF" d="M63.59,140.86c-0.044-0.23-0.311-3.2-0.365-3.934l-0.007-0.271c-0.003-0.115,0.107-0.312,0.107-0.312
	c4.952,0.229,4.952,0.229,4.992,0.228c1.429-0.035,6.677,12.438,9.836,18.428c0.276-1.397-0.415-18.771,0.783-18.801
	c0.424-0.01,1.736-0.08,3.909,0.254c0.12,0.19,0.122,0.268,0.128,0.499l0.003,0.155c-0.252,2.324-0.202,4.371,0.138,23.3
	l0.064,2.627c-0.022,0.695-0.059,2.436-0.059,2.436l-0.111,0.119c-1.042,0.063-2.198,0.208-3.363-0.035l-11.444-20.94
	c-0.038,0.001-0.112,0.08-0.111,0.118c0.024,1.044,0.162,0.383,2.745,20.919l0.013,0.464c-0.379,0.318-0.966,0.023-4.591,0.343
	l-0.118-0.113c-0.041-0.076-0.509-3.427-0.657-4.776L63.59,140.86z"/>
<path fill="#FFFFFF" d="M85.311,137.552l-0.02-0.772l9.06-0.915c0.193-0.004,1.156-0.144,1.28,0.201
	c0.107,1.195,0.443,2.309,0.47,3.467l0.015,0.541c-0.26,0.47-5.202,0.628-6.122,0.921L90,141.342
	c0.009,0.348,0.347,9.537,1.275,9.515l5.388-0.902c0.038-0.001,0.153-0.043,0.192-0.044l0.948,4.073l-6.47,0.968l0.012,0.503
	c0.049,1.97,0.255,4.09,0.491,5.978c0.01,0.387,0.102,0.926,0.564,0.914c0.656-0.016,5.081-0.896,6.199-0.961
	c0.387-0.009,0.474,0.375,0.52,0.684c0.172,0.768,0.521,2.383,0.544,3.311c0.001,0.077,0.085,0.384-0.107,0.427
	c-2.007,0.087-3.771,0.594-9.75,1.125c-0.037,0.039-0.886,0.137-0.924,0.138c-0.039,0.001-0.153,0.043-0.191,0.044
	c-0.694,0.017-0.731-1.489-0.778-1.837L85.311,137.552z"/>
<path fill="#FFFFFF" d="M101.535,157.952c0.113-0.041,1.54-0.23,2.079-0.282l0.154-0.003c0.117-0.003,0.231-0.045,0.274,0.108
	c0.181,1.117,0.782,3.615,2.404,3.574c1.508-0.035,3.286-1.547,3.25-3.053c-0.178-7.339-10.168-8.142-10.331-14.9
	c-0.085-3.515,2.568-7.25,6.778-7.353c0.311-0.007,0.621,0.102,0.934,0.171c2.216,0.565,3.074,0.931,4.132,3.069
	c0.287,0.728,0.406,0.879,0.419,1.382l-2.52,2.92c0,0-0.114,0.041-0.191,0.043c-1.042,0.025-1.631-3.516-3.91-3.461
	c-1.042,0.025-1.488,0.771-1.463,1.813c0.13,5.368,9.624,6.415,10.444,14.82c0.413,4.279-2.842,8.725-7.517,8.837
	c-3.167,0.077-4.826-1.467-5.934-4.146l-0.083-0.191c-0.287-0.688-0.575-1.454-0.594-2.188
	C99.845,158.341,100.881,158.045,101.535,157.952"/>
<path fill="#FFFFFF" d="M118.927,161.125c1.197-0.028,2.032,0.917,2.063,2.115c0.032,1.352-0.66,3.146-2.321,3.186
	c-1.272,0.031-2.103-0.722-2.135-2.035C116.495,162.846,117.19,161.167,118.927,161.125 M117.099,136.629
	c0.035-0.116,0.104-0.582,0.102-0.659c0.251-0.779,3.191-0.58,4.582-0.691c0.038,0,0.27,0.071,0.31,0.109
	c0.002,0.077,0.05,0.424,0.053,0.501c0.076,3.206-0.851,6.397-1.899,23.775c-0.231,0.044-1.233,0.146-1.581,0.152
	c-0.579,0.016-1.661,0.041-1.679-0.692C116.803,151.593,116.971,144.129,117.099,136.629"/>
<g opacity="0.75">
	<g>
		<defs>
			
				<rect id="SVGID_225_" x="207.256" y="-42.068" transform="matrix(-0.0885 -0.9961 0.9961 -0.0885 201.8681 261.1739)" width="26.363" height="160.574"/>
		</defs>
		<clipPath id="SVGID_8_">
			<use xlink:href="#SVGID_225_"  overflow="visible"/>
		</clipPath>
		<path clip-path="url(#SVGID_8_)" d="M139.494,32.536l-0.004-0.361l4.244-0.354c0.09,0,0.542-0.057,0.598,0.104
			c0.039,0.56,0.188,1.082,0.191,1.625l0.001,0.253c-0.125,0.218-2.438,0.251-2.869,0.381l0.001,0.162
			c-0.001,0.163,0.084,4.463,0.517,4.46l2.528-0.378c0.018,0,0.07-0.018,0.09-0.019l0.41,1.911l-3.033,0.4l0.002,0.235
			c0.007,0.921,0.086,1.914,0.182,2.799c0.002,0.18,0.038,0.433,0.255,0.432c0.309-0.002,2.384-0.377,2.907-0.399
			c0.181-0.001,0.218,0.181,0.236,0.324c0.076,0.361,0.226,1.119,0.228,1.551c0,0.038,0.036,0.182-0.052,0.201
			c-0.94,0.024-1.771,0.248-4.568,0.447c-0.018,0.019-0.416,0.058-0.435,0.057c-0.018,0-0.071,0.019-0.09,0.019
			c-0.325,0.002-0.329-0.703-0.349-0.865L139.494,32.536z"/>
		<path clip-path="url(#SVGID_8_)" d="M147.133,45.186c-0.006-0.867-0.348-8.815,0.519-8.911c0.109,0,1.048-0.044,1.698-0.065
			l0.081,1.409c1.04-1.146,2.247-1.768,4.016-1.779c0.111,0.125,0.146,0.233,0.321,1.876c-2.204,0.104-4.218,1.474-4.313,3.588
			l-0.17,4.336l-0.035,0.055c-0.017,0.018-0.541,0.059-1.77,0.012C147.28,45.636,147.134,45.384,147.133,45.186"/>
		<path clip-path="url(#SVGID_8_)" d="M153.547,42.323c-0.358-2.437,0.504-5.604,3.664-6.077c3.067-0.454,3.743,0.608,4.122,3.207
			l0.113,0.723l-5.304,1.244c-0.018,0.001-0.125,0.11-0.143,0.165c-0.037,0.106-0.106,0.415,0.104,1.968
			c0.113,0.74,0.855,1.007,1.559,0.912c0.867-0.133,1.836-1.188,2.559-1.192c0.307-0.002,0.98,0.734,1.018,1.003l0.002,0.092
			c-1.219,1.671-2.498,1.951-4.486,1.854C154.495,46.129,153.813,44.057,153.547,42.323 M156.485,38.528
			c-0.233,0.219-0.591,0.87-0.588,1.25l0.001,0.073l0.162-0.038c0.018,0,0.054-0.02,0.071-0.019
			c0.486-0.076,0.993-0.133,3.104-0.616c0,0-0.001-0.019-0.02-0.074c-0.039-0.215-0.186-0.792-0.186-0.811
			c-0.168-0.542-0.545-0.521-1.052-0.445C157.475,37.924,156.826,38.145,156.485,38.528"/>
		<path clip-path="url(#SVGID_8_)" d="M163.799,42.85c0.07,0,0.106,0,0.181,0.053c0.655,0.754,0.642,1.459,1.853,1.451
			c0.705-0.004,1.422-0.624,1.418-1.365c-0.01-1.354-0.879-1.564-2.055-1.738c-1.029-0.138-2.771-1.137-2.778-2.276
			c-0.013-2.006,1.692-3.354,3.591-3.368c0.866-0.004,1.843,0.043,2.443,0.762l0.019,0.018c0.108,0.126,0.163,0.217,0.164,0.361
			c0,0.018-0.017,0.09-0.017,0.09c-0.178,0.345-0.84,1.595-1.091,1.597l-0.127,0l-0.128-0.07c-0.452-0.25-1.158-0.644-1.684-0.64
			c-0.397,0.002-0.722,0.276-0.717,0.692c0.009,1.428,4.571,0.366,4.596,3.961c0.017,2.149-1.311,3.893-3.677,3.909
			c-1.41,0.009-2.803-0.29-3.318-1.731c-0.055-0.143-0.183-0.505-0.186-0.83C162.286,43.728,163.58,42.851,163.799,42.85"/>
		<path clip-path="url(#SVGID_8_)" d="M176.298,36.389l0.053-0.073l2.168-0.016c0.107,0,0.073,0.163,0.072,0.181
			c0.01,1.392-0.18,2.746-0.17,4.12c0.01,1.373,0.43,2.111,1.948,2.1l0.071,0c1.499-0.01,1.801-0.843,1.79-2.377
			c-0.008-1.031-0.121-2.06-0.128-3.107c-0.004-0.399,1.476-0.661,1.784-0.663l0.197,0c0.273,0.321,0.381,2.598,0.382,3.014
			l0.005,0.651c0.012,1.734-0.088,2.945-1.49,4.148c-1.366,0.785-3.12,0.723-4.694,0.32c-2.117-0.563-2.308-1.828-2.322-3.869
			C176.009,39.354,176.303,37.201,176.298,36.389"/>
		<path clip-path="url(#SVGID_8_)" d="M185.531,36.11c-0.002-0.146,0.16-0.256,0.305-0.256l1.625-0.011
			c0.379-0.003,0.211,1.715,0.302,1.986c1.815-1.766,3.15-1.901,3.837-1.905c1.553-0.01,2.357,1.43,2.476,2.857l0.387,6.337
			c0.001,0.019-0.035,0.054-0.054,0.056l-1.934,0.084c-0.037-0.017-0.107-0.053-0.107-0.072l-0.375-4.712
			c-0.629-4.549-4.345-1.109-4.322,2.125c0.008,1.011,0.141,2.023,0.146,3.034l0.002,0.18c-0.561,0.058-1.029,0.061-1.59,0.065
			l-0.507,0.003l-0.108-0.126c0,0-0.019-0.107-0.019-0.162L185.531,36.11z"/>
		<path clip-path="url(#SVGID_8_)" d="M201.646,46.264l0.108-0.056l3.16-0.347c0.702-0.132,1.116-0.442,1.242-3.064
			c-0.668,0.025-1.409,0.119-2.094,0.125c-4.806,0.033-3.808-7.328,1.285-7.362l0.093,0c0.27-0.003,0.576-0.004,0.885,0.122
			c0.343-0.113-0.293-0.776,1.115-0.785c0.344-0.002,0.523,0.013,0.886,0.047h0.071c0.344,0.051,0.277,0.757,0.278,0.973
			l0.003,0.452c-0.055,2.675-0.055,5.33-0.127,7.987c-0.04,2.041-1.729,3.373-3.68,3.476l-2.8,0.127
			c-0.379,0.001-0.441-1.154-0.442-1.388C201.629,46.48,201.628,46.281,201.646,46.264 M204.664,40.896
			c0.217-0.001,0.794-0.097,1.046-0.152c0.018,0,0.037-0.019,0.054-0.018l0.055-0.055l-0.073-2.854l-0.055-0.054l-0.236,0.002
			c-1.426,0.009-2.343,0.684-2.332,2.219C203.126,40.761,204.103,40.899,204.664,40.896"/>
		<path clip-path="url(#SVGID_8_)" d="M209.896,44.762c-0.008-0.867-0.349-8.815,0.518-8.911c0.108-0.001,1.047-0.044,1.698-0.065
			l0.081,1.408c1.04-1.146,2.247-1.767,4.017-1.779c0.11,0.126,0.146,0.233,0.32,1.876c-2.204,0.105-4.218,1.474-4.313,3.588
			l-0.169,4.336l-0.036,0.055c-0.018,0.018-0.541,0.059-1.77,0.012C210.042,45.212,209.896,44.96,209.896,44.762"/>
		<path clip-path="url(#SVGID_8_)" d="M216.953,43.576c-0.01-1.733,0.829-3.202,2.613-3.848c0.701-0.257,1.912-0.337,2.382-0.341
			c0.217-0.002-0.159-2.239-1.334-2.231c-0.976,0.007-1.583,0.805-2.249,1.314c0,0-1.308-1.038-1.309-1.074
			c-0.002-0.181,0.268-0.437,0.376-0.601c1.166-1.198,2.267-1.604,3.729-1.614c2.421-0.017,3.03,1.985,3.115,3.9l0.002,0.162
			c0.103,1.878,0.116,3.811,0.038,5.691c-0.053,0.18-0.34,0.525-1.496,0.659l-0.071,0.001c-0.668,0.004-0.149-0.74-0.549-0.916
			c-0.269,0.199-0.357,0.417-0.681,0.601c-0.684,0.455-1.606,0.516-2.455,0.522c-1.354,0.008-2.048-1.017-2.11-2.1L216.953,43.576z
			 M222.028,43.144l-0.003-0.453c-0.004-0.613-0.029-1.571-0.335-1.568c-2.766,0.018-2.625,2.005-2.604,2.384
			C219.198,44.319,222.03,43.433,222.028,43.144"/>
		<path clip-path="url(#SVGID_8_)" d="M225.414,35.841c0-0.146,0.162-0.254,0.306-0.256l1.626-0.01
			c0.379-0.003,0.21,1.715,0.302,1.986c1.813-1.766,3.148-1.9,3.837-1.906c1.553-0.01,2.357,1.429,2.475,2.857l0.388,6.337
			c0,0.019-0.036,0.055-0.055,0.055l-1.933,0.085c-0.036-0.018-0.109-0.053-0.108-0.072l-0.375-4.712
			c-0.627-4.549-4.345-1.109-4.321,2.125c0.006,1.011,0.139,2.023,0.146,3.033v0.182c-0.56,0.058-1.027,0.061-1.589,0.064
			l-0.506,0.004l-0.109-0.126c0,0-0.019-0.107-0.019-0.162L225.414,35.841z"/>
		<path clip-path="url(#SVGID_8_)" d="M241.079,46.051l-0.02-0.289c-0.338-4.588,0.101-9.18-0.292-13.766
			c0-0.145,0.015-0.542,0.032-0.543l0.107-0.054l2.097-0.177l0.051,7.714c0.699-0.854,1.853-1.188,2.918-1.267
			c1.933-0.013,2.773,1.337,2.787,3.324c0.015,2.186-0.965,4.126-3.205,4.303c-0.994,0.007-1.627-0.062-2.479-0.579
			c0.002,0.399,0.023,0.94-0.027,1.355c0,0.09-0.127,0.055-0.181,0.056c-0.505,0.058-1.03-0.03-1.535-0.027l-0.127,0L241.079,46.051
			z M245.411,40.06c-0.091,0.001-0.163,0.019-0.254,0.02c-0.486,0.04-1.768,0.211-1.761,1.35l0.011,1.518
			C246.438,44.84,248.536,40.039,245.411,40.06"/>
		<path clip-path="url(#SVGID_8_)" d="M249.653,41.674c-0.359-2.437,0.503-5.604,3.662-6.076c3.068-0.454,3.744,0.607,4.122,3.207
			l0.114,0.722l-5.304,1.246c-0.018,0-0.125,0.109-0.143,0.165c-0.036,0.106-0.106,0.415,0.104,1.967
			c0.113,0.74,0.855,1.006,1.56,0.912c0.866-0.133,1.834-1.187,2.558-1.192c0.307-0.001,0.98,0.734,1.019,1.003l0.001,0.092
			c-1.219,1.67-2.498,1.951-4.486,1.853C250.6,45.48,249.918,43.407,249.653,41.674 M252.59,37.879
			c-0.232,0.219-0.591,0.87-0.587,1.251l0.001,0.073l0.162-0.038c0.018,0,0.054-0.02,0.071-0.019
			c0.486-0.075,0.992-0.133,3.104-0.616c0,0-0.001-0.019-0.02-0.072c-0.037-0.217-0.186-0.794-0.186-0.813
			c-0.167-0.541-0.545-0.52-1.052-0.443C253.58,37.275,252.931,37.497,252.59,37.879"/>
		<path clip-path="url(#SVGID_8_)" d="M258.519,45.934l-0.02-0.289c-0.338-4.587,0.101-9.179-0.292-13.765
			c0-0.145,0.015-0.542,0.032-0.543l0.108-0.054l2.096-0.179l0.051,7.715c0.699-0.854,1.854-1.187,2.919-1.267
			c1.933-0.013,2.772,1.336,2.786,3.323c0.015,2.186-0.965,4.126-3.204,4.303c-0.994,0.008-1.627-0.061-2.479-0.579
			c0.002,0.398,0.023,0.939-0.028,1.355c0.001,0.09-0.126,0.055-0.18,0.055c-0.506,0.058-1.03-0.03-1.536-0.026l-0.127,0
			L258.519,45.934z M262.851,39.942c-0.09,0-0.163,0.018-0.252,0.019c-0.489,0.041-1.77,0.21-1.762,1.349l0.01,1.518
			C263.877,44.723,265.977,39.92,262.851,39.942"/>
		<path clip-path="url(#SVGID_8_)" d="M267.092,41.557c-0.359-2.437,0.505-5.604,3.664-6.076c3.068-0.454,3.744,0.607,4.122,3.206
			l0.112,0.723l-5.303,1.245c-0.018,0-0.125,0.109-0.144,0.164c-0.035,0.106-0.105,0.415,0.104,1.968
			c0.113,0.74,0.855,1.006,1.56,0.912c0.866-0.133,1.835-1.188,2.558-1.192c0.307-0.003,0.979,0.733,1.019,1.002v0.092
			c-1.217,1.671-2.497,1.95-4.487,1.854C268.04,45.363,267.356,43.29,267.092,41.557 M270.029,37.761
			c-0.233,0.219-0.59,0.87-0.587,1.251l0.001,0.072l0.161-0.039c0.019,0,0.054-0.019,0.071-0.019
			c0.488-0.075,0.994-0.133,3.104-0.615c0,0,0.001-0.019-0.019-0.073c-0.038-0.216-0.186-0.793-0.187-0.812
			c-0.167-0.542-0.545-0.52-1.05-0.445C271.02,37.158,270.37,37.379,270.029,37.761"/>
		<path clip-path="url(#SVGID_8_)" d="M281.262,44.498c-1.279,0.532-1.783,0.896-3.156,0.906c-1.609,0.011-2.827-1.228-2.838-2.799
			c-0.019-0.108-0.02-0.217-0.02-0.344c-0.021-2.908,3.128-4.827,5.842-4.322l0.023-7.263c0.018-0.125,0.124-0.181,2.312-0.088
			c0.073,0.091,0.057,0.18,0.057,0.271c0.02,2.962-0.159,5.909-0.14,8.854c0.014,1.861,0.099,3.721,0.111,5.618v0.235
			c-0.124,0.199-1.316,0.243-1.623,0.245c-0.036,0-0.218-0.016-0.271-0.016c-0.163-0.053-0.166-0.359-0.165-0.451
			C281.391,45.109,281.55,44.549,281.262,44.498 M281.013,42.62l-0.002-0.433c-0.021-0.578-0.106-2.366-0.125-2.367
			c-0.163-0.016-0.344-0.016-0.487-0.014c-2.782,0.02-2.825,1.681-2.818,2.693v0.162C277.59,43.962,280.258,42.986,281.013,42.62"/>
		<path clip-path="url(#SVGID_8_)" d="M290.869,35.453c1.887,1.162,2.604,3.125,2.617,5.021c0.012,1.733-1.079,3.459-2.952,4.212
			c-0.973,0.387-2.238,0.304-3.271-0.032c-2.065-0.799-2.803-3.016-2.815-4.75C284.429,36.904,287.371,33.867,290.869,35.453
			 M287.424,41.638c0.293,0.702,0.93,1.149,1.778,1.144c1.5-0.01,1.96-1.44,1.952-2.489c-0.025-3.776-4.239-4.487-4.212-0.458
			C286.945,40.446,287.167,41.061,287.424,41.638"/>
		<path clip-path="url(#SVGID_8_)" d="M294.273,44.193c-0.006-0.867-0.349-8.815,0.518-8.912c0.108-0.001,1.048-0.043,1.698-0.064
			l0.082,1.408c1.039-1.146,2.246-1.767,4.017-1.779c0.109,0.126,0.146,0.233,0.319,1.875c-2.203,0.106-4.218,1.475-4.311,3.589
			l-0.171,4.337l-0.036,0.055c-0.018,0.017-0.541,0.059-1.77,0.012C294.42,44.643,294.274,44.391,294.273,44.193"/>
	</g>
</g>
<path fill="#FFFFFF" d="M140.256,31.624l-0.002-0.361l4.243-0.354c0.09,0,0.542-0.057,0.597,0.104
	c0.04,0.562,0.188,1.083,0.191,1.625l0.002,0.252c-0.125,0.218-2.438,0.251-2.87,0.381l0.001,0.162
	c0.001,0.163,0.085,4.463,0.518,4.46l2.527-0.378c0.018-0.001,0.072-0.019,0.091-0.019l0.409,1.912l-3.031,0.401l0.001,0.234
	c0.006,0.921,0.085,1.914,0.182,2.801c0.001,0.179,0.038,0.432,0.255,0.431c0.308-0.002,2.384-0.377,2.907-0.4
	c0.18,0,0.218,0.181,0.236,0.324c0.075,0.361,0.225,1.12,0.227,1.551c0.001,0.039,0.038,0.181-0.052,0.201
	c-0.939,0.022-1.769,0.247-4.568,0.446c-0.018,0.018-0.415,0.057-0.433,0.057c-0.019,0-0.073,0.019-0.091,0.019
	c-0.325,0.003-0.33-0.702-0.35-0.864L140.256,31.624z"/>
<path fill="#FFFFFF" d="M147.896,44.275c-0.005-0.867-0.349-8.815,0.519-8.911c0.108-0.001,1.048-0.044,1.698-0.065l0.081,1.407
	c1.04-1.146,2.247-1.766,4.017-1.778c0.11,0.126,0.146,0.232,0.321,1.876c-2.205,0.104-4.219,1.473-4.313,3.588l-0.17,4.337
	l-0.035,0.054c-0.019,0.019-0.541,0.059-1.771,0.013C148.043,44.725,147.897,44.472,147.896,44.275"/>
<path fill="#FFFFFF" d="M154.311,41.412c-0.36-2.437,0.504-5.604,3.663-6.076c3.068-0.455,3.743,0.607,4.122,3.207l0.113,0.721
	l-5.304,1.246c-0.018,0-0.126,0.109-0.144,0.165c-0.035,0.106-0.105,0.414,0.104,1.968c0.113,0.74,0.856,1.006,1.56,0.912
	c0.866-0.133,1.835-1.188,2.557-1.192c0.308-0.004,0.98,0.732,1.02,1.002v0.091c-1.217,1.672-2.498,1.952-4.486,1.855
	C155.258,45.218,154.574,43.146,154.311,41.412 M157.248,37.617c-0.234,0.218-0.591,0.87-0.589,1.25l0.001,0.074l0.162-0.039
	c0.019,0,0.055-0.019,0.072-0.018c0.487-0.077,0.993-0.133,3.104-0.616c0,0,0-0.019-0.019-0.074
	c-0.038-0.215-0.187-0.792-0.187-0.812c-0.166-0.541-0.545-0.519-1.051-0.444C158.237,37.013,157.588,37.234,157.248,37.617"/>
<path fill="#FFFFFF" d="M164.561,41.939c0.072,0,0.108,0,0.182,0.053c0.655,0.754,0.643,1.458,1.854,1.452
	c0.703-0.005,1.422-0.625,1.417-1.366c-0.01-1.354-0.878-1.564-2.054-1.738c-1.029-0.137-2.771-1.138-2.779-2.275
	c-0.014-2.005,1.693-3.354,3.59-3.368c0.867-0.004,1.843,0.043,2.444,0.761l0.02,0.018c0.107,0.125,0.163,0.217,0.164,0.361
	c-0.001,0.017-0.018,0.09-0.018,0.09c-0.178,0.345-0.839,1.594-1.091,1.597l-0.126,0l-0.128-0.07c-0.453-0.25-1.16-0.643-1.685-0.64
	c-0.397,0.002-0.722,0.277-0.718,0.692c0.009,1.427,4.572,0.364,4.597,3.96c0.016,2.151-1.31,3.895-3.677,3.91
	c-1.409,0.009-2.803-0.289-3.317-1.73c-0.056-0.144-0.185-0.506-0.187-0.831C163.049,42.815,164.344,41.94,164.561,41.939"/>
<path fill="#FFFFFF" d="M177.06,35.479l0.054-0.073l2.167-0.016c0.108-0.001,0.074,0.162,0.074,0.181
	c0.01,1.392-0.181,2.747-0.171,4.12c0.01,1.373,0.43,2.11,1.947,2.1l0.073,0c1.499-0.009,1.8-0.842,1.788-2.377
	c-0.007-1.03-0.121-2.059-0.127-3.106c-0.004-0.398,1.477-0.66,1.784-0.662l0.197-0.001c0.274,0.321,0.38,2.599,0.383,3.014
	l0.004,0.649c0.012,1.735-0.089,2.946-1.489,4.148c-1.368,0.785-3.12,0.725-4.695,0.321c-2.117-0.564-2.307-1.829-2.321-3.869
	C176.772,38.443,177.065,36.291,177.06,35.479"/>
<path fill="#FFFFFF" d="M186.293,35.199c-0.001-0.146,0.16-0.255,0.305-0.256l1.627-0.011c0.379-0.002,0.21,1.716,0.302,1.986
	c1.813-1.765,3.148-1.9,3.837-1.905c1.553-0.01,2.357,1.429,2.475,2.857l0.387,6.337c0,0.018-0.034,0.054-0.054,0.055l-1.933,0.085
	c-0.037-0.018-0.109-0.054-0.108-0.072l-0.376-4.711c-0.627-4.549-4.344-1.109-4.322,2.124c0.008,1.011,0.141,2.024,0.148,3.034
	v0.181c-0.56,0.059-1.028,0.062-1.589,0.065l-0.506,0.003l-0.11-0.126c0,0-0.019-0.106-0.019-0.162L186.293,35.199z"/>
<path fill="#FFFFFF" d="M202.408,45.352l0.109-0.056l3.159-0.345c0.703-0.132,1.116-0.443,1.243-3.064
	c-0.668,0.024-1.408,0.12-2.094,0.125c-4.807,0.031-3.809-7.329,1.286-7.363l0.091,0c0.271-0.003,0.578-0.004,0.887,0.121
	c0.342-0.113-0.294-0.776,1.114-0.785c0.343-0.002,0.523,0.012,0.886,0.048l0.071,0c0.344,0.051,0.277,0.757,0.278,0.974
	l0.003,0.451c-0.055,2.675-0.055,5.33-0.127,7.986c-0.04,2.042-1.729,3.372-3.681,3.477l-2.799,0.127
	c-0.38,0.001-0.442-1.155-0.443-1.388C202.393,45.569,202.391,45.37,202.408,45.352 M205.426,39.984
	c0.217,0,0.795-0.096,1.047-0.152c0.019,0,0.036-0.018,0.054-0.018l0.054-0.055l-0.072-2.855l-0.055-0.053l-0.235,0.001
	c-1.426,0.009-2.345,0.685-2.334,2.219C203.89,39.85,204.865,39.987,205.426,39.984"/>
<path fill="#FFFFFF" d="M210.658,43.852c-0.006-0.867-0.348-8.815,0.518-8.911c0.109,0,1.048-0.044,1.698-0.065l0.081,1.409
	c1.041-1.147,2.248-1.767,4.018-1.78c0.109,0.126,0.146,0.233,0.32,1.877c-2.204,0.104-4.217,1.473-4.313,3.588l-0.169,4.337
	l-0.036,0.054c-0.018,0.02-0.542,0.059-1.771,0.013C210.806,44.301,210.659,44.048,210.658,43.852"/>
<path fill="#FFFFFF" d="M217.716,42.665c-0.011-1.733,0.829-3.203,2.612-3.848c0.703-0.258,1.914-0.338,2.383-0.341
	c0.217-0.001-0.159-2.239-1.333-2.231c-0.977,0.006-1.585,0.804-2.25,1.315c0,0-1.309-1.039-1.309-1.074
	c-0.001-0.183,0.269-0.437,0.376-0.602c1.165-1.197,2.266-1.605,3.729-1.615c2.42-0.016,3.031,1.986,3.116,3.901l0.001,0.163
	c0.103,1.878,0.115,3.811,0.038,5.691c-0.054,0.18-0.34,0.526-1.495,0.66l-0.072,0c-0.669,0.003-0.149-0.74-0.549-0.916
	c-0.27,0.199-0.357,0.417-0.682,0.6c-0.684,0.456-1.605,0.517-2.455,0.523c-1.354,0.009-2.047-1.017-2.109-2.1L217.716,42.665z
	 M222.791,42.232l-0.003-0.452c-0.005-0.613-0.029-1.571-0.336-1.569c-2.765,0.019-2.625,2.007-2.604,2.385
	C219.962,43.409,222.793,42.521,222.791,42.232"/>
<path fill="#FFFFFF" d="M226.178,34.93c-0.002-0.146,0.16-0.254,0.306-0.256l1.624-0.011c0.381-0.002,0.211,1.715,0.302,1.986
	c1.815-1.765,3.15-1.899,3.837-1.904c1.553-0.011,2.358,1.429,2.476,2.855l0.388,6.338c-0.001,0.018-0.037,0.054-0.055,0.055
	l-1.934,0.085c-0.034-0.018-0.107-0.054-0.108-0.071l-0.374-4.712c-0.627-4.551-4.345-1.109-4.322,2.124
	c0.007,1.011,0.14,2.023,0.146,3.034l0.002,0.18c-0.561,0.059-1.029,0.062-1.59,0.066l-0.505,0.003l-0.11-0.127
	c0,0-0.019-0.106-0.019-0.162L226.178,34.93z"/>
<path fill="#FFFFFF" d="M241.842,45.14l-0.02-0.289c-0.339-4.588,0.101-9.181-0.292-13.765c-0.001-0.146,0.014-0.542,0.032-0.543
	l0.107-0.053l2.096-0.178l0.052,7.715c0.698-0.854,1.854-1.188,2.918-1.267c1.932-0.014,2.773,1.336,2.787,3.324
	c0.015,2.185-0.966,4.126-3.205,4.302c-0.994,0.007-1.627-0.062-2.479-0.579c0.002,0.399,0.024,0.939-0.027,1.354
	c-0.001,0.09-0.127,0.056-0.181,0.057c-0.505,0.059-1.029-0.03-1.536-0.027l-0.126,0.001L241.842,45.14z M246.174,39.148
	c-0.09,0-0.163,0.019-0.253,0.019c-0.487,0.041-1.769,0.212-1.761,1.351l0.01,1.517C247.199,43.929,249.3,39.128,246.174,39.148"/>
<path fill="#FFFFFF" d="M250.416,40.763c-0.36-2.437,0.503-5.604,3.662-6.076c3.068-0.455,3.744,0.608,4.123,3.207l0.113,0.721
	l-5.303,1.247c-0.019,0-0.127,0.108-0.144,0.165c-0.035,0.106-0.106,0.415,0.103,1.968c0.113,0.74,0.856,1.006,1.561,0.911
	c0.865-0.133,1.835-1.188,2.557-1.191c0.307-0.003,0.981,0.734,1.019,1.003l0.001,0.091c-1.218,1.671-2.498,1.951-4.486,1.854
	C251.362,44.569,250.68,42.497,250.416,40.763 M253.353,36.968c-0.232,0.218-0.59,0.87-0.588,1.25l0.001,0.073l0.162-0.039
	c0.018-0.001,0.055-0.019,0.073-0.019c0.485-0.075,0.992-0.133,3.103-0.616c0,0,0-0.02-0.019-0.073
	c-0.038-0.216-0.187-0.793-0.187-0.813c-0.166-0.54-0.545-0.519-1.051-0.444C254.344,36.363,253.693,36.585,253.353,36.968"/>
<path fill="#FFFFFF" d="M259.281,45.023l-0.02-0.29c-0.338-4.588,0.1-9.18-0.291-13.765c-0.002-0.146,0.014-0.542,0.031-0.543
	l0.108-0.054l2.095-0.179l0.052,7.715c0.699-0.854,1.854-1.188,2.918-1.266c1.934-0.014,2.773,1.335,2.788,3.323
	c0.014,2.185-0.967,4.126-3.205,4.303c-0.995,0.007-1.628-0.062-2.479-0.579c0.002,0.399,0.024,0.938-0.027,1.354
	c0.001,0.09-0.127,0.056-0.18,0.055c-0.506,0.059-1.031-0.03-1.537-0.026l-0.126,0L259.281,45.023z M263.613,39.031
	c-0.09-0.001-0.162,0.019-0.252,0.019c-0.488,0.04-1.77,0.211-1.762,1.35l0.011,1.517C264.64,43.812,266.738,39.01,263.613,39.031"
	/>
<path fill="#FFFFFF" d="M267.854,40.646c-0.359-2.437,0.504-5.604,3.663-6.076c3.068-0.455,3.744,0.608,4.123,3.207l0.113,0.721
	l-5.305,1.247c-0.018,0-0.124,0.108-0.142,0.164c-0.036,0.106-0.106,0.415,0.103,1.969c0.114,0.74,0.856,1.006,1.56,0.911
	c0.867-0.133,1.836-1.188,2.559-1.192c0.306-0.002,0.98,0.734,1.019,1.003v0.091c-1.218,1.672-2.498,1.951-4.486,1.855
	C268.802,44.452,268.119,42.379,267.854,40.646 M270.793,36.851c-0.233,0.218-0.591,0.87-0.588,1.25v0.074l0.162-0.04
	c0.018,0,0.054-0.017,0.072-0.018c0.486-0.076,0.993-0.132,3.104-0.615c0,0,0-0.02-0.019-0.074
	c-0.039-0.215-0.187-0.792-0.187-0.812c-0.167-0.541-0.545-0.519-1.051-0.444C271.782,36.246,271.133,36.468,270.793,36.851"/>
<path fill="#FFFFFF" d="M282.024,43.586c-1.28,0.533-1.784,0.897-3.157,0.906c-1.607,0.012-2.826-1.229-2.838-2.799
	c-0.018-0.109-0.019-0.217-0.019-0.343c-0.021-2.909,3.129-4.827,5.841-4.322l0.023-7.264c0.018-0.125,0.126-0.181,2.313-0.086
	c0.072,0.089,0.056,0.179,0.057,0.271c0.02,2.961-0.16,5.909-0.139,8.854c0.013,1.859,0.097,3.72,0.109,5.618l0.002,0.234
	c-0.126,0.2-1.317,0.242-1.625,0.245c-0.035,0-0.217-0.015-0.271-0.015c-0.164-0.053-0.165-0.359-0.166-0.452
	C282.153,44.199,282.313,43.639,282.024,43.586 M281.776,41.708l-0.003-0.433c-0.022-0.577-0.106-2.366-0.124-2.366
	c-0.163-0.015-0.345-0.016-0.489-0.014c-2.782,0.019-2.825,1.68-2.818,2.692l0.002,0.162
	C278.353,43.05,281.02,42.076,281.776,41.708"/>
<path fill="#FFFFFF" d="M291.632,34.542c1.886,1.162,2.604,3.125,2.618,5.021c0.011,1.733-1.079,3.459-2.954,4.212
	c-0.973,0.385-2.237,0.304-3.271-0.033c-2.064-0.798-2.802-3.016-2.813-4.749C285.192,35.993,288.134,32.957,291.632,34.542
	 M288.187,40.727c0.294,0.702,0.929,1.15,1.778,1.144c1.5-0.01,1.96-1.442,1.952-2.49c-0.024-3.775-4.24-4.486-4.212-0.458
	C287.708,39.536,287.929,40.149,288.187,40.727"/>
<path fill="#FFFFFF" d="M295.036,43.282c-0.006-0.867-0.348-8.815,0.519-8.912c0.107-0.001,1.048-0.043,1.696-0.064l0.082,1.408
	c1.041-1.147,2.247-1.767,4.017-1.78c0.109,0.126,0.146,0.233,0.32,1.876c-2.203,0.105-4.217,1.474-4.312,3.589l-0.17,4.336
	l-0.036,0.054c-0.018,0.019-0.541,0.059-1.771,0.013C295.184,43.731,295.037,43.479,295.036,43.282"/>
</svg>
