<?xml version="1.0" encoding="utf-8"?>
<!-- Generator: Adobe Illustrator 16.0.0, SVG Export Plug-In . SVG Version: 6.00 Build 0)  -->
<!DOCTYPE svg PUBLIC "-//W3C//DTD SVG 1.1//EN" "http://www.w3.org/Graphics/SVG/1.1/DTD/svg11.dtd">
<svg version="1.1" id="Capa_1" xmlns="http://www.w3.org/2000/svg" xmlns:xlink="http://www.w3.org/1999/xlink" x="0px" y="0px"
	 width="242.343px" height="152px" viewBox="0 0 242.343 152" enable-background="new 0 0 242.343 152" xml:space="preserve">
<g opacity="0.75">
	<g>
		<defs>
			<rect id="SVGID_213_" x="102.729" y="106.344" width="131.137" height="28.359"/>
		</defs>
		<clipPath id="SVGID_2_">
			<use xlink:href="#SVGID_213_"  overflow="visible"/>
		</clipPath>
		<rect x="102.729" y="106.351" clip-path="url(#SVGID_2_)" width="131.137" height="28.35"/>
	</g>
</g>
<rect x="101.848" y="107.23" fill="#35205A" width="131.139" height="28.35"/>
<g opacity="0.75">
	<g>
		<defs>
			<rect id="SVGID_215_" x="105.834" y="21.344" width="124.934" height="79.173"/>
		</defs>
		<clipPath id="SVGID_4_">
			<use xlink:href="#SVGID_215_"  overflow="visible"/>
		</clipPath>
		<path clip-path="url(#SVGID_4_)" d="M115.822,56.995c-8.052,0-9.989-7.105-9.989-11.281v-0.387
			c0.217-6.547,4.349-12.488,12.616-12.488c1.507,0,3.703,0.989,3.703,2.541c0,0.604-1.203,3.616-1.85,3.616
			c-0.862,0-1.509-0.517-2.454-0.517c-3.274,0-5.167,2.238-6.287,4.736c-0.733,1.594-0.517,4.996,0.518,6.588
			c0.773,1.378,2.669,2.153,4.349,2.197h0.387c1.204,0,2.843-0.173,3.876-0.733c0.345-0.171,1.765-1.334,2.196-1.334
			c0.688,0,1.894,2.755,1.894,3.662c0,2.067-6.073,3.356-7.707,3.356C116.641,56.995,116.211,56.995,115.822,56.995"/>
		<path clip-path="url(#SVGID_4_)" d="M126.67,53.248c0-4.134,2.025-7.621,6.288-9.128c1.681-0.603,4.563-0.775,5.682-0.775
			c0.518,0-0.343-5.338-3.142-5.338c-2.326,0-3.79,1.895-5.382,3.1c0,0-3.101-2.498-3.101-2.584c0-0.431,0.646-1.034,0.904-1.421
			c2.799-2.842,5.426-3.789,8.914-3.789c5.77,0,7.189,4.779,7.361,9.344v0.388c0.217,4.478,0.217,9.085,0,13.563
			c-0.129,0.431-0.816,1.249-3.574,1.549h-0.172c-1.592,0-0.345-1.765-1.292-2.196c-0.646,0.474-0.86,0.991-1.636,1.422
			c-1.636,1.076-3.833,1.205-5.854,1.205c-3.229,0-4.866-2.454-4.997-5.038V53.248z M138.771,52.301v-1.076
			c0-1.465-0.043-3.747-0.775-3.747c-6.586,0-6.287,4.738-6.245,5.641C132.01,55.057,138.771,52.99,138.771,52.301"/>
		<path clip-path="url(#SVGID_4_)" d="M150.564,50.665c0.172,0,0.258,0,0.431,0.129c1.55,1.809,1.507,3.489,4.394,3.489
			c1.678,0,3.4-1.464,3.4-3.231c0-3.229-2.066-3.745-4.866-4.176c-2.454-0.344-6.586-2.756-6.586-5.469
			c0-4.779,4.089-7.966,8.611-7.966c2.067,0,4.391,0.129,5.811,1.852l0.044,0.042c0.258,0.302,0.387,0.518,0.387,0.862
			c0,0.043-0.042,0.216-0.042,0.216c-0.43,0.818-2.024,3.789-2.625,3.789h-0.304l-0.302-0.173c-1.075-0.601-2.755-1.55-4.002-1.55
			c-0.95,0-1.724,0.646-1.724,1.636c0,3.402,10.895,0.947,10.895,9.516c0,5.125-3.188,9.259-8.826,9.259
			c-3.361,0-6.676-0.733-7.882-4.178c-0.13-0.345-0.43-1.205-0.43-1.98C146.948,52.732,150.049,50.665,150.564,50.665"/>
		<path clip-path="url(#SVGID_4_)" d="M165.803,55.315c0,0,0.775-19.764,1.592-19.764c0.174,0,0.259,0.044,4.438,0.131
			c0.387,0,0.432,0.387,0.432,0.603c0,0.086-0.045,0.387-0.045,0.429c-0.043,1.293-0.387,6.976-1.595,20.195
			c-0.041,0.56-0.129,0.733-0.645,0.819c-1.334-0.086-2.626,0.258-4.003-0.13c-0.045,0-0.131-0.085-0.131-0.129
			C165.803,57.124,165.803,55.617,165.803,55.315 M166.879,27.025c0-4.478,5.426-6.458,6.632-1.722c0,0,0.044,0.519,0.044,0.689
			c0,1.938-0.904,4.263-3.101,4.263c-1.293,0-3.06-0.603-3.532-1.98C166.922,28.059,166.879,27.199,166.879,27.025"/>
		<path clip-path="url(#SVGID_4_)" d="M176.308,21.343h5.683c0,1.42,0.175,2.756,0.175,4.178v0.429l-1.079,30.314
			c-0.129,0.429-1.678,0.429-3.444,0.429h-0.43c-0.646-0.085-0.474-2.152-0.559-2.624L176.308,21.343z"/>
		<path clip-path="url(#SVGID_4_)" d="M184.916,21.343h5.684c0,1.42,0.174,2.756,0.174,4.178v0.429l-1.078,30.314
			c-0.129,0.429-1.679,0.429-3.445,0.429h-0.43c-0.646-0.085-0.475-2.152-0.559-2.624L184.916,21.343z"/>
		<path clip-path="url(#SVGID_4_)" d="M193.355,53.248c0-4.134,2.023-7.621,6.287-9.128c1.68-0.603,4.563-0.775,5.683-0.775
			c0.516,0-0.346-5.338-3.143-5.338c-2.327,0-3.791,1.895-5.383,3.1c0,0-3.101-2.498-3.101-2.584c0-0.431,0.646-1.034,0.904-1.421
			c2.797-2.842,5.426-3.789,8.913-3.789c5.771,0,7.189,4.779,7.362,9.344v0.388c0.216,4.478,0.216,9.085,0,13.563
			c-0.129,0.431-0.816,1.249-3.573,1.549h-0.173c-1.592,0-0.345-1.765-1.292-2.196c-0.646,0.474-0.861,0.991-1.636,1.422
			c-1.635,1.076-3.833,1.205-5.854,1.205c-3.229,0-4.868-2.454-4.995-5.038V53.248z M205.454,52.301v-1.076
			c0-1.465-0.042-3.747-0.775-3.747c-6.587,0-6.287,4.738-6.243,5.641C198.693,55.057,205.454,52.99,205.454,52.301"/>
		<path clip-path="url(#SVGID_4_)" d="M217.248,50.665c0.172,0,0.258,0,0.43,0.129c1.551,1.809,1.508,3.489,4.395,3.489
			c1.679,0,3.399-1.464,3.399-3.231c0-3.229-2.065-3.745-4.865-4.176c-2.454-0.344-6.586-2.756-6.586-5.469
			c0-4.779,4.09-7.966,8.612-7.966c2.064,0,4.39,0.129,5.811,1.852l0.043,0.042c0.259,0.302,0.388,0.518,0.388,0.862
			c0,0.043-0.043,0.216-0.043,0.216c-0.429,0.818-2.024,3.789-2.625,3.789h-0.304l-0.301-0.173c-1.075-0.601-2.754-1.55-4.003-1.55
			c-0.95,0-1.724,0.646-1.724,1.636c0,3.402,10.893,0.947,10.893,9.516c0,5.125-3.186,9.259-8.824,9.259
			c-3.361,0-6.674-0.733-7.882-4.178c-0.129-0.345-0.43-1.205-0.43-1.98C213.632,52.732,216.73,50.665,217.248,50.665"/>
		<path clip-path="url(#SVGID_4_)" d="M105.834,94.876c0-4.134,2.024-7.623,6.287-9.129c1.68-0.603,4.563-0.775,5.685-0.775
			c0.515,0-0.347-5.339-3.144-5.339c-2.326,0-3.791,1.894-5.383,3.101c0,0-3.101-2.498-3.101-2.584c0-0.429,0.646-1.033,0.904-1.42
			c2.797-2.842,5.425-3.789,8.914-3.789c5.77,0,7.19,4.78,7.361,9.343v0.388c0.217,4.479,0.217,9.086,0,13.563
			c-0.129,0.43-0.816,1.249-3.573,1.551h-0.174c-1.592,0-0.344-1.766-1.291-2.198c-0.646,0.474-0.861,0.991-1.636,1.424
			c-1.634,1.074-3.833,1.203-5.854,1.203c-3.229,0-4.867-2.454-4.996-5.038V94.876z M117.936,93.928v-1.074
			c0-1.466-0.045-3.748-0.776-3.748c-6.589,0-6.288,4.736-6.244,5.641C111.173,96.684,117.936,94.617,117.936,93.928"/>
		<path clip-path="url(#SVGID_4_)" d="M129.339,62.28c0.129-0.13,0.26-0.215,5.729-0.044c0.044,0.733,0.214,2.929-1.077,17.826
			l5.942,0.389c0.646,0.042,0.819,0.474,0.819,0.904c0,1.636-0.26,2.325-0.69,3.961c0,0.174-0.259,0.129-0.431,0.129l-5.898-0.172
			c-1.422,6.847-0.818,11.928,6.373,9.99c0,1.035,0.215,2.669,0.215,3.918c0,0.646-1.421,0.646-2.023,0.646
			c-5.77,0-11.281-1.207-9.432-14.899c-0.214,0-2.324-0.085-2.494-0.129c-0.088,0-0.26-0.129-0.26-0.129v-5.167
			c0,0,0.172-0.086,0.26-0.086l2.195,0.086L129.339,62.28z"/>
		<path clip-path="url(#SVGID_4_)" d="M143.459,97.588c0-2.066-0.688-21.011,1.379-21.228c0.259,0,2.496-0.085,4.047-0.129
			l0.173,3.358c2.498-2.712,5.381-4.178,9.601-4.178c0.259,0.304,0.347,0.562,0.733,4.48c-5.255,0.215-10.076,3.445-10.334,8.483
			l-0.474,10.334l-0.088,0.129c-0.041,0.043-1.291,0.129-4.221,0C143.804,98.664,143.459,98.062,143.459,97.588"/>
		<path clip-path="url(#SVGID_4_)" d="M160.293,94.876c0-4.134,2.023-7.623,6.285-9.129c1.681-0.603,4.566-0.775,5.686-0.775
			c0.518,0-0.345-5.339-3.145-5.339c-2.325,0-3.788,1.894-5.383,3.101c0,0-3.101-2.498-3.101-2.584c0-0.429,0.646-1.033,0.905-1.42
			c2.799-2.842,5.425-3.789,8.915-3.789c5.768,0,7.189,4.78,7.362,9.343v0.388c0.216,4.479,0.216,9.086,0,13.563
			c-0.129,0.43-0.819,1.249-3.574,1.55h-0.172c-1.595,0-0.346-1.765-1.291-2.196c-0.646,0.474-0.862,0.991-1.637,1.422
			c-1.639,1.076-3.834,1.205-5.857,1.205c-3.229,0-4.865-2.454-4.994-5.038V94.876z M172.394,93.928v-1.076
			c0-1.464-0.046-3.747-0.775-3.747c-6.589,0-6.287,4.736-6.246,5.641C165.632,96.684,172.394,94.617,172.394,93.928
			 M164.469,70.719c0-0.042,0-0.215,0.043-0.215c0.173-0.258,1.078-1.42,1.337-1.679c1.203-1.505,2.495-2.971,3.616-4.522
			c0.518-0.645,0.816-1.549,1.68-1.549c0.99,0,2.711,1.334,2.711,2.498c-0.216,1.894-3.832,4.521-4.994,6.243
			c-0.129,0.171-0.345,0.258-0.559,0.258C167.656,71.753,164.427,71.063,164.469,70.719"/>
		<path clip-path="url(#SVGID_4_)" d="M184.187,92.292c0.171,0,0.258,0,0.431,0.129c1.55,1.809,1.507,3.487,4.394,3.487
			c1.678,0,3.4-1.463,3.4-3.229c0-3.229-2.067-3.746-4.866-4.175c-2.454-0.346-6.586-2.757-6.586-5.47
			c0-4.779,4.09-7.966,8.611-7.966c2.066,0,4.391,0.129,5.811,1.852l0.044,0.044c0.258,0.3,0.388,0.516,0.388,0.86
			c0,0.042-0.043,0.216-0.043,0.216c-0.43,0.816-2.024,3.79-2.625,3.79h-0.304l-0.302-0.174c-1.074-0.603-2.755-1.55-4.002-1.55
			c-0.95,0-1.725,0.645-1.725,1.636c0,3.402,10.895,0.947,10.895,9.517c0,5.125-3.187,9.258-8.826,9.258
			c-3.36,0-6.675-0.733-7.881-4.179c-0.129-0.343-0.43-1.203-0.43-1.979C180.57,94.359,183.67,92.292,184.187,92.292"/>
	</g>
</g>
<path fill="#FFFFFF" d="M114.942,57.875c-8.052,0-9.989-7.104-9.989-11.281v-0.387c0.215-6.547,4.349-12.487,12.614-12.487
	c1.509,0,3.704,0.99,3.704,2.542c0,0.603-1.204,3.616-1.851,3.616c-0.86,0-1.507-0.516-2.454-0.516
	c-3.273,0-5.167,2.237-6.287,4.736c-0.731,1.592-0.516,4.996,0.518,6.587c0.773,1.378,2.669,2.153,4.35,2.196h0.387
	c1.205,0,2.842-0.171,3.875-0.733c0.345-0.17,1.766-1.333,2.196-1.333c0.688,0,1.894,2.754,1.894,3.66
	c0,2.067-6.072,3.358-7.707,3.358C115.76,57.875,115.331,57.875,114.942,57.875"/>
<path fill="#FFFFFF" d="M125.789,54.128c0-4.134,2.025-7.62,6.287-9.128c1.681-0.601,4.565-0.775,5.684-0.775
	c0.518,0-0.343-5.337-3.142-5.337c-2.326,0-3.79,1.895-5.384,3.101c0,0-3.099-2.499-3.099-2.584c0-0.433,0.645-1.034,0.903-1.421
	c2.799-2.842,5.425-3.791,8.913-3.791c5.77,0,7.19,4.779,7.363,9.345v0.388c0.216,4.479,0.216,9.086,0,13.563
	c-0.129,0.433-0.818,1.249-3.574,1.551h-0.173c-1.594,0-0.344-1.765-1.291-2.197c-0.646,0.474-0.86,0.991-1.636,1.422
	c-1.638,1.077-3.835,1.206-5.856,1.206c-3.229,0-4.867-2.454-4.996-5.038V54.128z M137.891,53.183v-1.076
	c0-1.466-0.045-3.748-0.775-3.748c-6.588,0-6.287,4.738-6.245,5.64C131.13,55.938,137.891,53.87,137.891,53.183"/>
<path fill="#FFFFFF" d="M149.685,51.547c0.171,0,0.258,0,0.431,0.128c1.549,1.809,1.507,3.488,4.392,3.488
	c1.679,0,3.401-1.463,3.401-3.23c0-3.228-2.067-3.744-4.865-4.175c-2.454-0.345-6.588-2.757-6.588-5.469
	c0-4.779,4.09-7.966,8.611-7.966c2.067,0,4.393,0.128,5.813,1.85l0.044,0.044c0.258,0.3,0.386,0.517,0.386,0.86
	c0,0.044-0.041,0.215-0.041,0.215c-0.432,0.818-2.024,3.791-2.627,3.791h-0.302l-0.302-0.175c-1.076-0.601-2.756-1.549-4.004-1.549
	c-0.949,0-1.724,0.646-1.724,1.637c0,3.401,10.896,0.946,10.896,9.517c0,5.125-3.187,9.258-8.826,9.258
	c-3.361,0-6.677-0.734-7.881-4.179c-0.13-0.343-0.432-1.205-0.432-1.979C146.066,53.614,149.167,51.547,149.685,51.547"/>
<path fill="#FFFFFF" d="M164.922,56.197c0,0,0.775-19.766,1.593-19.766c0.173,0,0.259,0.045,4.437,0.13
	c0.387,0,0.431,0.387,0.431,0.603c0,0.088-0.044,0.389-0.044,0.43c-0.043,1.293-0.387,6.978-1.594,20.195
	c-0.043,0.562-0.129,0.733-0.645,0.821c-1.336-0.088-2.627,0.258-4.005-0.13c-0.044,0-0.129-0.086-0.129-0.129
	C164.922,58.004,164.922,56.497,164.922,56.197 M165.999,27.907c0-4.479,5.425-6.458,6.63-1.722c0,0,0.044,0.517,0.044,0.689
	c0,1.938-0.904,4.261-3.101,4.261c-1.293,0-3.058-0.602-3.531-1.979C166.041,28.939,165.999,28.079,165.999,27.907"/>
<path fill="#FFFFFF" d="M175.428,22.223h5.683c0,1.42,0.173,2.756,0.173,4.178v0.431l-1.077,30.314
	c-0.129,0.429-1.679,0.429-3.444,0.429h-0.43c-0.646-0.086-0.474-2.154-0.561-2.625L175.428,22.223z"/>
<path fill="#FFFFFF" d="M184.036,22.223h5.683c0,1.42,0.174,2.756,0.174,4.178v0.431l-1.078,30.314
	c-0.129,0.429-1.678,0.429-3.444,0.429h-0.43c-0.646-0.086-0.475-2.154-0.56-2.625L184.036,22.223z"/>
<path fill="#FFFFFF" d="M192.474,54.128c0-4.134,2.024-7.62,6.287-9.128c1.68-0.601,4.564-0.775,5.685-0.775
	c0.516,0-0.346-5.337-3.145-5.337c-2.326,0-3.789,1.895-5.383,3.101c0,0-3.1-2.499-3.1-2.584c0-0.433,0.646-1.034,0.904-1.421
	c2.798-2.842,5.425-3.791,8.914-3.791c5.77,0,7.189,4.779,7.362,9.345v0.388c0.216,4.479,0.216,9.086,0,13.563
	c-0.129,0.433-0.817,1.249-3.575,1.551h-0.172c-1.593,0-0.344-1.765-1.291-2.197c-0.646,0.474-0.861,0.991-1.636,1.422
	c-1.636,1.077-3.835,1.206-5.856,1.206c-3.229,0-4.866-2.454-4.995-5.038V54.128z M204.574,53.183v-1.076
	c0-1.466-0.044-3.748-0.775-3.748c-6.59,0-6.287,4.738-6.243,5.64C197.813,55.938,204.574,53.87,204.574,53.183"/>
<path fill="#FFFFFF" d="M216.368,51.547c0.171,0,0.258,0,0.43,0.128c1.551,1.809,1.508,3.488,4.393,3.488
	c1.679,0,3.401-1.463,3.401-3.23c0-3.228-2.067-3.744-4.865-4.175c-2.454-0.345-6.588-2.757-6.588-5.469
	c0-4.779,4.09-7.966,8.612-7.966c2.066,0,4.392,0.128,5.812,1.85l0.044,0.044c0.257,0.3,0.388,0.517,0.388,0.86
	c0,0.044-0.043,0.215-0.043,0.215c-0.431,0.818-2.024,3.791-2.627,3.791h-0.302l-0.301-0.175c-1.077-0.601-2.756-1.549-4.005-1.549
	c-0.948,0-1.722,0.646-1.722,1.637c0,3.401,10.893,0.946,10.893,9.517c0,5.125-3.186,9.258-8.826,9.258
	c-3.359,0-6.674-0.734-7.88-4.179c-0.129-0.343-0.432-1.205-0.432-1.979C212.75,53.614,215.851,51.547,216.368,51.547"/>
<path fill="#FFFFFF" d="M104.953,95.757c0-4.134,2.023-7.623,6.287-9.13c1.68-0.601,4.564-0.775,5.684-0.775
	c0.517,0-0.346-5.337-3.144-5.337c-2.325,0-3.79,1.894-5.383,3.101c0,0-3.101-2.5-3.101-2.584c0-0.431,0.646-1.034,0.904-1.42
	c2.799-2.842,5.426-3.791,8.914-3.791c5.77,0,7.19,4.78,7.363,9.345v0.389c0.215,4.479,0.215,9.085,0,13.562
	c-0.129,0.431-0.818,1.249-3.574,1.551h-0.173c-1.593,0-0.345-1.765-1.291-2.197c-0.646,0.473-0.862,0.99-1.636,1.423
	c-1.637,1.076-3.835,1.205-5.856,1.205c-3.229,0-4.866-2.454-4.995-5.038V95.757z M117.053,94.808v-1.074
	c0-1.466-0.043-3.749-0.775-3.749c-6.589,0-6.287,4.736-6.242,5.641C110.293,97.564,117.053,95.497,117.053,94.808"/>
<path fill="#FFFFFF" d="M128.459,63.162c0.129-0.131,0.26-0.217,5.727-0.044c0.045,0.731,0.216,2.927-1.075,17.824l5.942,0.389
	c0.645,0.044,0.818,0.475,0.818,0.904c0,1.636-0.26,2.325-0.689,3.961c0,0.175-0.26,0.129-0.432,0.129l-5.898-0.17
	c-1.422,6.846-0.818,11.928,6.373,9.99c0,1.034,0.215,2.667,0.215,3.917c0,0.646-1.42,0.646-2.024,0.646
	c-5.77,0-11.281-1.205-9.43-14.898c-0.216,0-2.325-0.085-2.496-0.129c-0.087,0-0.26-0.129-0.26-0.129v-5.166
	c0,0,0.173-0.088,0.26-0.088l2.196,0.088L128.459,63.162z"/>
<path fill="#FFFFFF" d="M142.578,98.469c0-2.065-0.689-21.012,1.377-21.228c0.26,0,2.498-0.086,4.049-0.129l0.172,3.358
	c2.498-2.712,5.383-4.178,9.603-4.178c0.259,0.304,0.345,0.562,0.731,4.479c-5.254,0.215-10.076,3.444-10.334,8.482l-0.474,10.336
	l-0.086,0.129c-0.043,0.042-1.292,0.129-4.221,0C142.922,99.544,142.578,98.943,142.578,98.469"/>
<path fill="#FFFFFF" d="M159.411,95.758c0-4.133,2.024-7.622,6.286-9.129c1.68-0.604,4.566-0.775,5.685-0.775
	c0.517,0-0.343-5.34-3.144-5.34c-2.324,0-3.789,1.894-5.382,3.1c0,0-3.101-2.496-3.101-2.584c0-0.428,0.646-1.033,0.904-1.42
	c2.8-2.842,5.424-3.788,8.914-3.788c5.768,0,7.189,4.78,7.363,9.343v0.389c0.215,4.477,0.215,9.084,0,13.562
	c-0.129,0.429-0.82,1.25-3.574,1.551h-0.173c-1.593,0-0.345-1.767-1.292-2.197c-0.646,0.475-0.859,0.992-1.635,1.423
	c-1.638,1.075-3.834,1.204-5.856,1.204c-3.229,0-4.866-2.454-4.996-5.038V95.758z M171.512,94.81v-1.077
	c0-1.463-0.044-3.747-0.775-3.747c-6.587,0-6.287,4.738-6.244,5.643C164.752,97.565,171.512,95.499,171.512,94.81 M163.589,71.6
	c0-0.041,0-0.216,0.043-0.216c0.171-0.258,1.075-1.42,1.335-1.678c1.205-1.505,2.496-2.971,3.616-4.522
	c0.518-0.644,0.818-1.548,1.681-1.548c0.989,0,2.711,1.332,2.711,2.496c-0.215,1.894-3.831,4.522-4.994,6.245
	c-0.129,0.17-0.346,0.258-0.56,0.258C166.774,72.634,163.545,71.945,163.589,71.6"/>
<path fill="#FFFFFF" d="M183.307,93.172c0.171,0,0.258,0,0.431,0.13c1.549,1.809,1.507,3.486,4.392,3.486
	c1.678,0,3.4-1.461,3.4-3.228c0-3.229-2.066-3.745-4.865-4.176c-2.453-0.345-6.587-2.756-6.587-5.469
	c0-4.779,4.089-7.967,8.611-7.967c2.067,0,4.392,0.131,5.813,1.852l0.044,0.046c0.258,0.3,0.385,0.516,0.385,0.858
	c0,0.044-0.041,0.216-0.041,0.216c-0.431,0.818-2.023,3.791-2.626,3.791h-0.302l-0.303-0.175c-1.076-0.601-2.756-1.549-4.003-1.549
	c-0.95,0-1.724,0.645-1.724,1.637c0,3.401,10.896,0.945,10.896,9.517c0,5.124-3.187,9.258-8.826,9.258
	c-3.36,0-6.677-0.734-7.882-4.179c-0.129-0.343-0.431-1.204-0.431-1.98C179.688,95.239,182.789,93.172,183.307,93.172"/>
<g opacity="0.75">
	<g>
		<defs>
			<rect id="SVGID_217_" x="13.355" y="23.958" width="61.479" height="111.37"/>
		</defs>
		<clipPath id="SVGID_6_">
			<use xlink:href="#SVGID_217_"  overflow="visible"/>
		</clipPath>
		<path clip-path="url(#SVGID_6_)" d="M36.695,24.038c0.572-0.051,1.146-0.077,1.721-0.077h1.726c8.716,0,15.556,1.594,20.519,4.777
			c5.688,3.707,9.344,10.076,10.964,19.108c0.364,1.985,0.626,3.915,0.781,5.795c0.157,1.878,0.236,3.733,0.236,5.56
			c0,5.064-0.628,9.815-1.88,14.252c-2.299,7.988-8.484,14.958-18.561,20.91c-10.024,5.952-15.586,13.263-16.682,21.928l38.139-0.86
			l1.177,18.717l-60.382,1.174l-0.548-10.887c0.573-11.641,3.026-20.334,7.36-26.078c5.797-7.413,12.4-13.26,19.813-17.542
			c7.569-4.279,11.565-11.59,11.982-21.928v-1.487c0-9.345-3.472-14.201-10.416-14.567H42.02c-9.555,0-16.994,2.585-22.32,7.753
			l-6.344-17.775C18.578,27.433,26.357,24.509,36.695,24.038"/>
	</g>
</g>
<path fill="#FFFFFF" d="M35.813,24.92c0.573-0.052,1.147-0.079,1.723-0.079h1.724c8.718,0,15.558,1.593,20.519,4.777
	c5.688,3.708,9.346,10.078,10.964,19.108c0.364,1.986,0.627,3.917,0.783,5.797c0.156,1.879,0.234,3.731,0.234,5.561
	c0,5.063-0.626,9.813-1.88,14.252c-2.298,7.987-8.484,14.958-18.559,20.91c-10.024,5.951-15.587,13.263-16.683,21.926l38.14-0.86
	l1.175,18.717l-60.382,1.175l-0.548-10.887c0.575-11.641,3.027-20.334,7.361-26.079c5.796-7.411,12.4-13.258,19.814-17.542
	c7.569-4.279,11.563-11.591,11.982-21.927v-1.487c0-9.346-3.474-14.202-10.416-14.566h-0.627c-9.555,0-16.993,2.584-22.32,7.753
	l-6.343-17.777C17.696,28.314,25.477,25.391,35.813,24.92"/>
<g opacity="0.75">
	<g>
		<defs>
			<rect id="SVGID_219_" x="106.409" y="110.57" width="123.778" height="18.072"/>
		</defs>
		<clipPath id="SVGID_8_">
			<use xlink:href="#SVGID_219_"  overflow="visible"/>
		</clipPath>
		<path clip-path="url(#SVGID_8_)" d="M119.764,111.516c0.186,0,0.346,0.164,0.346,0.325v16.11c0,0.185-0.16,0.346-0.346,0.346
			H116.8c-0.159,0-0.276-0.14-0.368-0.346l-0.254-0.601c-0.882,0.786-2.246,1.294-3.658,1.294c-3.656,0-6.11-2.685-6.11-6.712
			c0-4.003,2.454-6.689,6.11-6.689c1.089,0,2.129,0.324,2.823,0.88v-4.282c0-0.161,0.159-0.325,0.345-0.325H119.764z
			 M115.644,122.002c0-1.666-0.856-2.777-2.128-2.777c-1.273,0-2.13,1.111-2.13,2.777c0,1.621,0.856,2.688,2.13,2.688
			C114.787,124.689,115.644,123.623,115.644,122.002"/>
		<path clip-path="url(#SVGID_8_)" d="M133.183,127c0.048,0.164,0,0.256-0.161,0.349c-1.227,0.809-3.007,1.293-4.79,1.293
			c-4.096,0-6.827-2.682-6.827-6.686c0-4.026,2.684-6.713,6.71-6.713c3.844,0,6.112,2.477,6.112,6.689
			c0,0.349-0.023,0.695-0.094,1.041c-0.022,0.185-0.14,0.279-0.346,0.279h-7.432c0,0,0,1.457,1.944,1.457
			c1.181,0,2.502-0.276,3.543-0.765c0.161-0.067,0.299,0.024,0.347,0.185L133.183,127z M129.62,120.821
			c0-1.015-0.624-1.69-1.548-1.69c-1.045,0-1.738,0.675-1.738,1.69H129.62z"/>
		<path clip-path="url(#SVGID_8_)" d="M147.623,115.567c0.21,0,0.301,0.161,0.256,0.325l-4.096,12.079
			c-0.07,0.164-0.278,0.325-0.465,0.325h-4.674c-0.186,0-0.37-0.161-0.418-0.325l-4.118-12.079c-0.069-0.164,0.046-0.325,0.23-0.325
			h4.353c0.208,0,0.369,0.14,0.438,0.325l1.854,6.69l1.852-6.69c0.046-0.209,0.254-0.325,0.416-0.325H147.623z"/>
		<path clip-path="url(#SVGID_8_)" d="M160.419,115.567c0.186,0,0.351,0.161,0.351,0.348v12.057c0,0.164-0.165,0.325-0.351,0.325
			h-2.96c-0.186,0-0.301-0.161-0.372-0.344l-0.232-0.58c-0.856,0.764-2.104,1.271-3.469,1.271c-3.011,0-4.791-1.917-4.791-5.065
			v-7.662c0-0.187,0.159-0.348,0.345-0.348h4.074c0.187,0,0.348,0.161,0.348,0.348v7.082c0,0.786,0.487,1.32,1.227,1.32
			c0.902,0,1.41-0.74,1.41-0.74v-7.662c0-0.187,0.166-0.348,0.35-0.348H160.419z"/>
		<path clip-path="url(#SVGID_8_)" d="M173.842,127c0.045,0.164,0,0.256-0.161,0.349c-1.228,0.809-3.009,1.293-4.791,1.293
			c-4.096,0-6.829-2.682-6.829-6.686c0-4.026,2.686-6.713,6.711-6.713c3.842,0,6.112,2.477,6.112,6.689
			c0,0.349-0.024,0.695-0.094,1.041c-0.022,0.185-0.138,0.279-0.347,0.279h-7.431c0,0,0,1.457,1.944,1.457
			c1.18,0,2.502-0.276,3.543-0.765c0.161-0.067,0.299,0.024,0.346,0.185L173.842,127z M170.277,120.821
			c0-1.015-0.624-1.69-1.552-1.69c-1.042,0-1.734,0.675-1.734,1.69H170.277z"/>
		<path clip-path="url(#SVGID_8_)" d="M180.598,111.516c0.184,0,0.348,0.164,0.348,0.325v16.11c0,0.185-0.164,0.346-0.348,0.346
			h-4.076c-0.184,0-0.346-0.161-0.346-0.346v-16.11c0-0.161,0.162-0.325,0.346-0.325H180.598z"/>
		<path clip-path="url(#SVGID_8_)" d="M173.048,113.243c0.022,0.112-0.003,0.223-0.046,0.231l-4.37,0.88
			c-0.049,0.008-0.114-0.082-0.138-0.194c0,0-0.235-1.027-0.188-1.041l4.112-2.549c0.041-0.009,0.106,0.079,0.129,0.191
			L173.048,113.243z"/>
		<path clip-path="url(#SVGID_8_)" d="M195.315,115.567c0.21,0,0.301,0.161,0.254,0.325l-4.096,12.079
			c-0.068,0.164-0.276,0.325-0.463,0.325h-4.673c-0.187,0-0.373-0.161-0.419-0.325l-4.118-12.079
			c-0.07-0.164,0.044-0.325,0.229-0.325h4.354c0.208,0,0.367,0.14,0.438,0.325l1.853,6.69l1.852-6.69
			c0.044-0.209,0.252-0.325,0.417-0.325H195.315z"/>
		<path clip-path="url(#SVGID_8_)" d="M207.141,127c0.045,0.164,0,0.256-0.161,0.349c-1.228,0.809-3.011,1.293-4.792,1.293
			c-4.096,0-6.826-2.682-6.826-6.686c0-4.026,2.683-6.713,6.709-6.713c3.844,0,6.112,2.477,6.112,6.689
			c0,0.349-0.024,0.695-0.094,1.041c-0.023,0.185-0.139,0.279-0.347,0.279h-7.43c0,0,0,1.457,1.942,1.457
			c1.181,0,2.503-0.276,3.544-0.765c0.16-0.067,0.299,0.024,0.346,0.185L207.141,127z M203.575,120.821
			c0-1.015-0.624-1.69-1.551-1.69c-1.041,0-1.733,0.675-1.733,1.69H203.575z"/>
		<path clip-path="url(#SVGID_8_)" d="M216.788,115.567c0.21,0,0.348,0.14,0.348,0.325l-0.253,2.243
			c-0.023,0.188-0.164,0.349-0.348,0.349h-1.481v9.468c0,0.184-0.164,0.344-0.349,0.344h-4.073c-0.184,0-0.348-0.161-0.348-0.344
			v-9.468h-1.318c-0.163,0-0.321-0.14-0.321-0.325v-2.245c0-0.208,0.158-0.348,0.321-0.348h1.318v-2.522
			c0-0.164,0.164-0.302,0.348-0.325l4.073-0.392c0.185-0.024,0.349,0.161,0.349,0.322v2.917H216.788z"/>
		<path clip-path="url(#SVGID_8_)" d="M229.146,127c0.046,0.164,0,0.256-0.16,0.349c-1.228,0.809-3.011,1.293-4.793,1.293
			c-4.096,0-6.828-2.682-6.828-6.686c0-4.026,2.686-6.713,6.712-6.713c3.844,0,6.112,2.477,6.112,6.689
			c0,0.349-0.024,0.695-0.094,1.041c-0.023,0.185-0.139,0.279-0.346,0.279h-7.432c0,0,0,1.457,1.945,1.457
			c1.18,0,2.499-0.276,3.542-0.765c0.161-0.067,0.299,0.024,0.346,0.185L229.146,127z M225.582,120.821
			c0-1.015-0.623-1.69-1.551-1.69c-1.041,0-1.732,0.675-1.732,1.69H225.582z"/>
	</g>
</g>
<path fill="#FFFFFF" d="M118.882,112.396c0.185,0,0.346,0.166,0.346,0.325v16.11c0,0.185-0.161,0.346-0.346,0.346h-2.964
	c-0.159,0-0.277-0.14-0.369-0.346l-0.253-0.601c-0.882,0.786-2.246,1.295-3.659,1.295c-3.655,0-6.109-2.685-6.109-6.712
	c0-4.003,2.454-6.689,6.109-6.689c1.09,0,2.13,0.325,2.824,0.88v-4.282c0-0.159,0.16-0.325,0.345-0.325H118.882z M114.762,122.882
	c0-1.666-0.855-2.777-2.129-2.777c-1.271,0-2.129,1.111-2.129,2.777c0,1.621,0.857,2.688,2.129,2.688
	C113.906,125.569,114.762,124.503,114.762,122.882"/>
<path fill="#FFFFFF" d="M132.303,127.881c0.045,0.164,0,0.256-0.162,0.349c-1.229,0.809-3.008,1.293-4.791,1.293
	c-4.096,0-6.827-2.681-6.827-6.686c0-4.026,2.685-6.713,6.71-6.713c3.844,0,6.113,2.477,6.113,6.689
	c0,0.349-0.024,0.695-0.095,1.041c-0.022,0.185-0.14,0.279-0.346,0.279h-7.432c0,0,0,1.457,1.944,1.457
	c1.181,0,2.502-0.276,3.543-0.765c0.161-0.066,0.299,0.024,0.346,0.186L132.303,127.881z M128.738,121.701
	c0-1.015-0.624-1.69-1.548-1.69c-1.044,0-1.737,0.675-1.737,1.69H128.738z"/>
<path fill="#FFFFFF" d="M146.742,116.448c0.209,0,0.3,0.161,0.255,0.325l-4.097,12.08c-0.069,0.164-0.277,0.325-0.462,0.325h-4.676
	c-0.185,0-0.37-0.161-0.417-0.325l-4.119-12.08c-0.069-0.164,0.046-0.325,0.23-0.325h4.352c0.209,0,0.37,0.14,0.438,0.325
	l1.854,6.691l1.85-6.691c0.047-0.209,0.255-0.325,0.417-0.325H146.742z"/>
<path fill="#FFFFFF" d="M159.537,116.448c0.186,0,0.351,0.161,0.351,0.348v12.057c0,0.164-0.165,0.325-0.351,0.325h-2.961
	c-0.185,0-0.3-0.161-0.371-0.345l-0.232-0.58c-0.855,0.763-2.104,1.27-3.469,1.27c-3.011,0-4.791-1.917-4.791-5.065v-7.662
	c0-0.187,0.159-0.348,0.345-0.348h4.074c0.187,0,0.348,0.161,0.348,0.348v7.082c0,0.786,0.487,1.32,1.226,1.32
	c0.903,0,1.412-0.741,1.412-0.741v-7.662c0-0.187,0.165-0.348,0.349-0.348H159.537z"/>
<path fill="#FFFFFF" d="M172.96,127.881c0.046,0.164,0,0.256-0.161,0.349c-1.228,0.809-3.011,1.293-4.791,1.293
	c-4.096,0-6.827-2.681-6.827-6.686c0-4.026,2.683-6.713,6.709-6.713c3.844,0,6.112,2.477,6.112,6.689
	c0,0.349-0.023,0.695-0.094,1.041c-0.022,0.185-0.139,0.279-0.346,0.279h-7.432c0,0,0,1.457,1.944,1.457
	c1.181,0,2.502-0.276,3.543-0.765c0.161-0.066,0.299,0.024,0.347,0.186L172.96,127.881z M169.396,121.701
	c0-1.015-0.624-1.69-1.552-1.69c-1.042,0-1.734,0.675-1.734,1.69H169.396z"/>
<path fill="#FFFFFF" d="M179.716,112.396c0.184,0,0.348,0.164,0.348,0.325v16.11c0,0.185-0.164,0.346-0.348,0.346h-4.076
	c-0.184,0-0.346-0.161-0.346-0.346v-16.11c0-0.161,0.162-0.325,0.346-0.325H179.716z"/>
<path fill="#FFFFFF" d="M172.164,114.123c0.025,0.112-0.002,0.223-0.043,0.23l-4.371,0.88c-0.05,0.007-0.113-0.082-0.138-0.194
	c0,0-0.237-1.027-0.188-1.041l4.112-2.549c0.041-0.009,0.106,0.079,0.129,0.191L172.164,114.123z"/>
<path fill="#FFFFFF" d="M194.434,116.448c0.21,0,0.301,0.161,0.254,0.325l-4.096,12.08c-0.068,0.164-0.276,0.325-0.461,0.325h-4.674
	c-0.186,0-0.374-0.161-0.42-0.325l-4.118-12.08c-0.069-0.164,0.044-0.325,0.229-0.325h4.352c0.21,0,0.369,0.14,0.44,0.325
	l1.853,6.691l1.851-6.691c0.045-0.209,0.253-0.325,0.419-0.325H194.434z"/>
<path fill="#FFFFFF" d="M206.26,127.881c0.044,0.164,0,0.256-0.164,0.349c-1.226,0.809-3.008,1.293-4.792,1.293
	c-4.095,0-6.824-2.681-6.824-6.686c0-4.026,2.682-6.713,6.709-6.713c3.844,0,6.112,2.477,6.112,6.689
	c0,0.349-0.024,0.695-0.094,1.041c-0.023,0.185-0.139,0.279-0.346,0.279h-7.432c0,0,0,1.457,1.943,1.457
	c1.182,0,2.503-0.276,3.544-0.765c0.161-0.066,0.299,0.024,0.346,0.186L206.26,127.881z M202.693,121.701
	c0-1.015-0.623-1.69-1.549-1.69c-1.043,0-1.734,0.675-1.734,1.69H202.693z"/>
<path fill="#FFFFFF" d="M215.906,116.448c0.21,0,0.348,0.14,0.348,0.325l-0.253,2.243c-0.022,0.188-0.164,0.349-0.348,0.349h-1.481
	v9.468c0,0.184-0.164,0.345-0.349,0.345h-4.073c-0.185,0-0.348-0.161-0.348-0.345v-9.468h-1.318c-0.162,0-0.322-0.14-0.322-0.325
	v-2.244c0-0.208,0.16-0.348,0.322-0.348h1.318v-2.522c0-0.164,0.163-0.302,0.348-0.325l4.073-0.392
	c0.185-0.024,0.349,0.161,0.349,0.322v2.917H215.906z"/>
<path fill="#FFFFFF" d="M228.267,127.881c0.044,0.164,0,0.256-0.163,0.349c-1.227,0.809-3.008,1.293-4.793,1.293
	c-4.094,0-6.826-2.681-6.826-6.686c0-4.026,2.684-6.713,6.711-6.713c3.844,0,6.112,2.477,6.112,6.689
	c0,0.349-0.024,0.695-0.094,1.041c-0.022,0.185-0.138,0.279-0.347,0.279h-7.431c0,0,0,1.457,1.945,1.457
	c1.179,0,2.499-0.276,3.542-0.765c0.161-0.066,0.299,0.024,0.346,0.186L228.267,127.881z M224.701,121.701
	c0-1.015-0.624-1.69-1.551-1.69c-1.041,0-1.733,0.675-1.733,1.69H224.701z"/>
</svg>
