<?xml version="1.0" encoding="utf-8"?>
<!-- Generator: Adobe Illustrator 16.0.0, SVG Export Plug-In . SVG Version: 6.00 Build 0)  -->
<!DOCTYPE svg PUBLIC "-//W3C//DTD SVG 1.1//EN" "http://www.w3.org/Graphics/SVG/1.1/DTD/svg11.dtd">
<svg version="1.1" id="Capa_1" xmlns="http://www.w3.org/2000/svg" xmlns:xlink="http://www.w3.org/1999/xlink" x="0px" y="0px"
	 width="554px" height="2728px" viewBox="0 0 554 2728" enable-background="new 0 0 554 2728" xml:space="preserve">
<polygon fill="#0098CB" points="0.137,439.358 0.137,207.32 554.867,207.32 554.867,439.358 277.502,449.713 "/>
<polygon fill="#98333F" points="-0.732,209.155 -0.28,-0.553 555.736,0.649 555.283,210.356 272.66,224.312 "/>
<path fill="#FFFFFF" d="M178.195,98.781c0.223-0.074,2.951-0.369,3.984-0.443h0.295c0.221,0,0.443-0.074,0.516,0.221
	c0.297,2.14,1.328,6.935,4.429,6.935c2.877,0,6.343-2.803,6.343-5.68c0-14.018-19.033-16.01-19.033-28.921
	c0-6.713,5.238-13.722,13.28-13.722c0.589,0,1.179,0.221,1.771,0.369c4.205,1.18,5.828,1.918,7.746,6.05
	c0.517,1.401,0.737,1.696,0.737,2.655l-4.942,5.46c0,0-0.223,0.074-0.369,0.074c-1.991,0-2.95-6.788-7.305-6.788
	c-1.992,0-2.877,1.402-2.877,3.394c0,10.255,18.075,12.689,19.256,28.773c0.59,8.189-5.828,16.525-14.756,16.525
	c-6.049,0-9.147-3.024-11.139-8.189l-0.148-0.368c-0.516-1.328-1.033-2.804-1.033-4.206
	C174.949,99.445,176.941,98.928,178.195,98.781"/>
<path fill="#FFFFFF" d="M205.494,116.119c0.367-5.018,0.736-10.403,2.213-40.283c0.738-13.943,4.427-20.067,12.984-20.067
	c0.516,0,1.107,0,1.697,0.074c7.747,0,9.223,8.632,9.443,14.682v0.368c0.074,1.624,0.295,5.386-0.369,43.603l-0.516,0.368h-2.951
	c-1.182,0-2.361,0.074-3.689-0.368c-0.074-0.738-0.148-4.206-1.107-18.519h-0.516c-2.656,0-5.386,0.222-9,0.222
	c-0.296,3.319-0.223,6.714,0.368,20.288c0,0-0.222,0.517-0.368,0.517h-7.968c-0.296,0-0.222-0.443-0.222-0.517V116.119z
	 M214.789,89.559l0.147,0.369c0.074,0.073,2.582,0.147,7.894,0.221c0.223-0.074,0.223-0.369,0.223-0.59l0.885-14.46v-1.254
	c0-9.887-7.895-12.321-8.779-0.738c-0.369,4.722-0.442,7.009-0.442,12.173C214.716,86.165,214.789,89.19,214.789,89.559"/>
<path fill="#FFFFFF" d="M236.406,67.868c0-1.254,0.074-7.451,0.074-8.706c0-0.073,0.295-0.664,0.442-0.737
	c2.36-0.369,5.165-0.443,7.599-0.443h0.59l0.223,0.443v41.61c0,0.885,0.22,3.172,0.22,3.246l0.222,0.442h0.885
	c3.395,0,7.084-0.811,10.33-1.623h0.369c2.065,0,1.549,6.198,1.549,7.378v1.033c-0.813,1.107-7.82,1.697-8.928,1.844
	c-0.664,0.148-6.27,0.813-7.009,0.959l-3.909,0.959c-0.147,0-1.033,0.074-1.328,0.074c-0.147,0-0.737-0.074-0.812-0.074
	l-0.222-0.516L236.406,67.868z"/>
<path fill="#FFFFFF" d="M261.713,58.277c0.074-0.738,0.369-2.729,1.623-2.729c2.655,0.885,5.754,0.885,8.559,0.885l0.22,0.295
	c0,0,0.075,0.59,0.075,0.811c0,0.296-0.075,1.107-0.075,1.255c-1.327,9-2.582,23.903-0.737,36.519c0.59,3.762,2.36,8.337,7.01,8.337
	c1.254,0,2.508,0,3.467-0.959c3.025-3.025,3.689-9.739,3.689-13.576c0-4.942-0.147-10.328-0.295-15.271
	c-0.074-4.279-0.664-8.484-0.664-12.69c0-0.369,0.295-1.18,0.736-1.254l6.714-0.885c0.074-0.074,0.517-0.221,0.664-0.221
	c0.517,0,1.107,0.368,1.181,0.885c0-0.148,0.074-0.221,0.074-0.221c0.442,0,3.762,27.887-1.992,44.413
	c-2.213,6.271-6.197,8.779-12.838,8.779h-1.031c-8.56,0-14.314-2.582-15.938-11.804c-1.179-6.419-1.623-12.616-1.623-19.108
	C261.271,61.229,261.565,59.015,261.713,58.277"/>
<path fill="#FFFFFF" d="M300.299,55.696c0.146-0.443,0.146-1.402,0.591-1.623l4.5-0.148c5.901,0,12.468,2.582,16.894,6.419
	c0.075,0.073,0.369,0.368,0.369,0.442c4.354,3.468,6.271,13.427,6.271,19.034c0,14.239-2.36,30.913-19.846,32.093l-9.812,0.147
	l-0.149-0.221L300.299,55.696z M309.004,103.724h0.295c9.738-0.885,10.625-10.771,10.625-18.371v-2.065
	c0-9.001-0.887-16.009-7.82-21.321c-0.444-0.369-1.107-0.812-1.771-0.812h-0.442c-0.517,4.279-1.328,32.388-1.402,42.052
	C308.487,103.65,308.635,103.724,309.004,103.724"/>
<path fill="#FFFFFF" d="M338.071,105.642c2.287,0,3.837,1.844,3.837,4.131c0,2.583-1.402,5.976-4.574,5.976
	c-2.435,0-3.983-1.476-3.983-3.984C333.351,108.814,334.752,105.642,338.071,105.642 M335.711,58.794
	c0.073-0.222,0.223-1.107,0.223-1.254c0.515-1.476,6.123-0.959,8.779-1.107c0.072,0,0.516,0.148,0.59,0.221
	c0,0.148,0.074,0.813,0.074,0.959c0,6.124-1.92,12.174-4.723,45.299c-0.443,0.074-2.361,0.221-3.025,0.221
	c-1.105,0-3.172,0-3.172-1.401C334.457,87.345,335.121,73.107,335.711,58.794"/>
<path fill="#FFFFFF" d="M172.473,146.844c-6.821,0-8.463-6.02-8.463-9.559v-0.328c0.183-5.546,3.685-10.58,10.689-10.58
	c1.275,0,3.137,0.839,3.137,2.152c0,0.511-1.021,3.065-1.568,3.065c-0.73,0-1.276-0.438-2.079-0.438
	c-2.774,0-4.378,1.897-5.326,4.013c-0.621,1.35-0.438,4.233,0.437,5.582c0.656,1.168,2.262,1.824,3.686,1.861h0.329
	c1.021,0,2.407-0.146,3.282-0.62c0.291-0.146,1.496-1.131,1.86-1.131c0.584,0,1.606,2.335,1.606,3.101
	c0,1.751-5.146,2.845-6.53,2.845C173.166,146.844,172.801,146.844,172.473,146.844"/>
<path fill="#FFFFFF" d="M193.85,128.273c3.795,2.372,5.218,6.348,5.218,10.179c0,3.503-2.226,6.969-6.021,8.465
	c-1.969,0.766-4.523,0.583-6.603-0.11c-4.159-1.642-5.618-6.129-5.618-9.632C180.826,131.12,186.809,125.026,193.85,128.273
	 M186.809,140.714c0.584,1.423,1.86,2.335,3.576,2.335c3.028,0,3.977-2.882,3.977-4.998c0-7.625-8.501-9.121-8.501-0.985
	C185.86,138.306,186.297,139.547,186.809,140.714"/>
<path fill="#FFFFFF" d="M200.705,133.637c0-4.415,2.699-5.29,4.67-5.29h0.256c2.007,0.073,4.195,3.685,4.889,6.165l0.11-0.109
	l0.291-0.583c1.313-2.847,2.954-6.458,6.493-6.458c4.635,0,5.107,3.283,5.619,6.932c0.401,7.917,0.109,8.719,0.109,12.295
	c0,0.218,0,0.474-0.365,0.474h-3.027c-0.073,0-0.293-0.146-0.293-0.219l-0.547-8.902c-0.108-1.715,0.328-4.634-2.188-4.634
	c-2.444,0-3.394,5.948-3.649,6.312l-5.07,0.839c-0.438-1.386-0.62-5.837-2.444-5.837c-0.401,0-0.584,0.401-0.694,1.861
	c0,3.685,0.621,7.443,0.621,10.908v0.657c-0.072,0.292-0.218,0.438-0.474,0.474c-1.095,0.037-2.371,0.256-3.539,0.256
	c-0.037,0-0.291,0.036-0.329-0.146L200.705,133.637z"/>
<path fill="#FFFFFF" d="M225.474,140.277c-0.694-4.925,1.093-11.31,7.478-12.222c6.203-0.876,7.554,1.277,8.282,6.531l0.22,1.459
	l-10.727,2.444c-0.037,0-0.255,0.219-0.292,0.329c-0.073,0.218-0.219,0.839,0.183,3.976c0.219,1.496,1.715,2.044,3.138,1.861
	c1.752-0.255,3.722-2.372,5.18-2.372c0.621,0,1.972,1.496,2.043,2.044v0.182c-2.479,3.356-5.069,3.904-9.084,3.685
	C227.334,147.975,225.983,143.779,225.474,140.277 M231.455,132.652c-0.474,0.437-1.203,1.751-1.203,2.517v0.146l0.328-0.073
	c0.037,0,0.109-0.036,0.146-0.036c0.984-0.146,2.006-0.256,6.275-1.204c0,0,0-0.037-0.036-0.146
	c-0.073-0.438-0.365-1.605-0.365-1.642c-0.329-1.095-1.094-1.058-2.117-0.912C233.464,131.448,232.148,131.885,231.455,132.652"/>
<path fill="#FFFFFF" d="M243.639,128.164c0-0.292,0.328-0.511,0.619-0.511h3.283c0.768,0,0.402,3.466,0.584,4.013
	c3.686-3.539,6.385-3.794,7.772-3.794c3.137,0,4.741,2.919,4.961,5.801l0.692,12.806c0,0.037-0.072,0.109-0.108,0.109l-3.904,0.146
	c-0.073-0.036-0.218-0.109-0.218-0.146l-0.694-9.522c-1.204-9.194-8.757-2.298-8.757,4.232c0,2.043,0.256,4.086,0.256,6.13v0.364
	c-1.131,0.11-2.078,0.11-3.211,0.11h-1.021l-0.219-0.256c0,0-0.035-0.218-0.035-0.328V128.164z"/>
<path fill="#FFFFFF" d="M263.701,143.889c8.646-10.836,9.012-11.419,9.012-12.404c0-0.621-7.407,0.364-9.815,0.437
	c-0.292-1.386-0.474-2.918-0.145-4.305c3.392-0.401,10.579-0.511,15.213-0.583c0.474,1.386,0.474,2.444,0.438,3.575
	c-0.804,3.648-5.145,6.786-7.479,11.237c3.137-0.329,5.216-0.109,7.953-0.109h0.401c0.584,0.911,0.475,2.189,0.219,4.414h-0.438
	c-3.757,0-7.368-0.146-14.63,0.839h-0.145c-0.33,0-0.693-2.372-0.693-2.773C263.592,144.072,263.592,144.035,263.701,143.889"/>
<path fill="#FFFFFF" d="M280.918,140.277c-0.693-4.925,1.094-11.31,7.479-12.222c6.203-0.876,7.553,1.277,8.281,6.531l0.221,1.459
	l-10.727,2.444c-0.037,0-0.256,0.219-0.292,0.329c-0.074,0.218-0.219,0.839,0.183,3.976c0.219,1.496,1.715,2.044,3.137,1.861
	c1.752-0.255,3.722-2.372,5.181-2.372c0.621,0,1.97,1.496,2.043,2.044v0.182c-2.479,3.356-5.071,3.904-9.085,3.685
	C282.779,147.975,281.428,143.779,280.918,140.277 M286.9,132.652c-0.475,0.437-1.203,1.751-1.203,2.517v0.146l0.328-0.073
	c0.037,0,0.109-0.036,0.146-0.036c0.984-0.146,2.006-0.256,6.275-1.204c0,0,0-0.037-0.037-0.146
	c-0.072-0.438-0.364-1.605-0.364-1.642c-0.329-1.095-1.095-1.058-2.117-0.912C288.908,131.448,287.594,131.885,286.9,132.652"/>
<path fill="#FFFFFF" d="M298.535,133.637c0-4.415,2.701-5.29,4.67-5.29h0.257c2.006,0.073,4.194,3.685,4.888,6.165l0.11-0.109
	l0.292-0.583c1.313-2.847,2.955-6.458,6.494-6.458c4.633,0,5.106,3.283,5.617,6.932c0.401,7.917,0.109,8.719,0.109,12.295
	c0,0.218,0,0.474-0.363,0.474h-3.029c-0.072,0-0.291-0.146-0.291-0.219l-0.549-8.902c-0.108-1.715,0.33-4.634-2.188-4.634
	c-2.445,0-3.395,5.948-3.648,6.312l-5.071,0.839c-0.438-1.386-0.62-5.837-2.444-5.837c-0.402,0-0.584,0.401-0.693,1.861
	c0,3.685,0.619,7.443,0.619,10.908v0.657c-0.072,0.292-0.218,0.438-0.473,0.474c-1.096,0.037-2.372,0.256-3.539,0.256
	c-0.038,0-0.292,0.036-0.33-0.146L298.535,133.637z"/>
<path fill="#FFFFFF" d="M336.182,128.273c3.795,2.372,5.218,6.348,5.218,10.179c0,3.503-2.226,6.969-6.021,8.465
	c-1.969,0.766-4.523,0.583-6.603-0.11c-4.159-1.642-5.618-6.129-5.618-9.632C323.158,131.12,329.141,125.026,336.182,128.273
	 M329.141,140.714c0.584,1.423,1.86,2.335,3.576,2.335c3.028,0,3.977-2.882,3.977-4.998c0-7.625-8.501-9.121-8.501-0.985
	C328.192,138.306,328.63,139.547,329.141,140.714"/>
<path fill="#FFFFFF" d="M344.643,141.481c0.146,0,0.22,0,0.365,0.109c1.314,1.533,1.277,2.955,3.721,2.955
	c1.424,0,2.884-1.24,2.884-2.736c0-2.736-1.752-3.174-4.123-3.539c-2.079-0.292-5.582-2.335-5.582-4.633
	c0-4.05,3.465-6.75,7.297-6.75c1.751,0,3.722,0.11,4.924,1.569l0.037,0.037c0.22,0.255,0.329,0.437,0.329,0.729
	c0,0.037-0.037,0.183-0.037,0.183c-0.365,0.693-1.714,3.21-2.225,3.21h-0.256l-0.256-0.146c-0.912-0.51-2.334-1.313-3.393-1.313
	c-0.803,0-1.459,0.547-1.459,1.386c0,2.882,9.23,0.803,9.23,8.063c0,4.342-2.701,7.844-7.479,7.844c-2.847,0-5.656-0.62-6.677-3.539
	c-0.11-0.292-0.364-1.021-0.364-1.678C341.579,143.232,344.206,141.481,344.643,141.481"/>
<path fill-rule="evenodd" clip-rule="evenodd" fill="#0082AA" d="M50.313,397.009c-1.211-6.406-2.364-15.341-2.537-18.435
	c-0.174-3.092,0.359-12.1-1.19-16.482c-1.547-4.384-10.116-11.1-10.116-11.1l-3.927-18.787l1.111-0.628l-0.38-3.609
	c-0.379-3.609-7-2.153-7-2.153s-6.778,0.023-6.362,3.628l0.418,3.604l1.219,0.37l0.263,19.193c0,0-6.896,8.422-7.453,13.037
	c-0.557,4.615,1.929,13.29,2.435,16.346c0.505,3.059,1.328,12.028,1.541,18.545s-1.151,12.604,4.736,11.954
	c5.887-0.648,12.614-1.392,12.614-1.392s6.729-0.742,12.615-1.391C54.184,409.06,51.528,403.417,50.313,397.009"/>
<path fill="#0082AA" d="M70.662,294.572c-9.199-2.965-16.548-2.957-16.548-2.957l-5.306,35.23c-0.342,2.277,9.535,5.94,9.535,5.94
	s10.158,2.795,11.209,0.746l16.265-31.698C85.817,301.834,79.86,297.536,70.662,294.572"/>
<path fill="#0082AA" d="M28.896,251.251c-5.672,1.57-9.405,4.034-9.405,4.034l9.09,19.697c0.588,1.272,6.838-0.17,6.838-0.17
	s6.103-1.978,5.953-3.371l-2.334-21.568C39.037,249.873,34.568,249.68,28.896,251.251"/>
<path fill="#0082AA" d="M145.286,271.933l-4.054,21.626c0,0,14.233,2.902,10.81,17.182c-3.422,14.279-7.233,28.938-7.233,28.938
	s-8.041,3.876-21.052,0.613c-12.258-3.071-12.604-5.493-12.604-5.493s-1.922-27.376,3.233-36.373
	c5.154-8.998,9.48-8.528,14.125-9.461l3.882-16.846c0,0-4.039-6.008,6.461-5.075C144.099,267.604,145.977,268.087,145.286,271.933"
	/>
<path fill="#0082AA" d="M129.548,374.559l-0.511-1.87l-0.004,0.001c-0.084-0.164-1.272-0.008-3.153,0.381l0.099-5.073
	c0,0-3.148-0.625-5.406,1.483l1.01,4.587c-1.209,0.304-2.512,0.645-3.87,1.017c-6.104,1.674-10.979,3.328-10.957,3.714l-0.004,0.001
	l0.514,1.868c-0.147,1.649-0.479,4.209-1.147,4.862l10.16,33.052c0,0,1.539,0.909,3.43,1.227c1.736,1.24,6.033,1.311,10.742,0.02
	c4.138-1.135,7.467-3.012,8.797-4.776c0.119-0.057,0.23-0.113,0.332-0.166c2.228-1.179,3.597-3.681,3.597-3.681l-10.16-33.052
	C132.107,377.934,130.515,375.9,129.548,374.559 M121.85,369.875c0.829-0.653,2.967-0.813,2.967-0.813v0.002
	c-0.011,0.001-2.138,0.162-2.965,0.814L121.85,369.875z M121.852,369.879c0.936-0.529,2.739-0.666,2.739-0.666l-0.138,2.872
	l-1.858,0.509L121.852,369.879z"/>
<path fill-rule="evenodd" clip-rule="evenodd" fill="#0082AA" d="M86.222,258.799c-0.507,0.633-1.375,0.495-2.188,0.771
	c-2.951,1-6.093,3.233-8.402,4.376c-1.739-1.281-2.909-4.113-4.396-6.088c-0.95-2.073-1.987-4.089-2.575-6.083
	c-1.108-3.763-1.149-8.564,0.933-11.345c3.893-5.198,10.316,0.011,12.916,4.325C85.44,249.623,86.502,254.679,86.222,258.799"/>
<path fill-rule="evenodd" clip-rule="evenodd" fill="#0082AA" d="M108.581,248.688c-2.306,0.991-5.884,1.892-8.672,3.531
	c-0.742,0.436-1.462,1.373-2.205,1.263c-0.484-0.072-1.65-1.474-2.394-2.287c-2.306-2.523-4.429-5.569-5.767-9.575
	c-1.31-3.915-1.961-10.687,2.735-12.422c0.599-0.221,1.531-0.37,2.274-0.326c3.3,0.198,7.093,3.208,9.207,6.528
	C106.335,239.448,108.157,244.639,108.581,248.688"/>
<path fill-rule="evenodd" clip-rule="evenodd" fill="#0082AA" d="M88.841,263.406c1.565,2.041,3.196,4.237,4.037,6.62
	c1.389,3.949-1.578,7.74-6.095,7.792c-3.056-0.769-5.892-4.313-7.326-8.49c-0.103-0.48,0.937-0.541,1.306-0.847
	C83.334,266.746,85.863,264.993,88.841,263.406"/>
<path fill-rule="evenodd" clip-rule="evenodd" fill="#0082AA" d="M99.624,258.413c3.309-1.284,7.168-2.377,10.586-3.326
	c1.295,2.097,2.305,5.089,2.392,7.259c0.063,1.595-0.222,2.515-0.658,3.821c-3.041,3.314-7.58,3.335-9.789-0.195
	c-1.416-2.262-1.95-4.931-2.392-7.26C99.718,258.612,99.671,258.513,99.624,258.413"/>
<path fill-rule="evenodd" clip-rule="evenodd" fill="#0082AA" d="M78.905,389.202c-1.318-0.859-3.033-2.414-4.857-3.3
	c-0.487-0.236-1.225-0.285-1.426-0.712c-0.131-0.278,0.195-1.373,0.361-2.044c0.518-2.081,1.366-4.249,2.993-6.34
	c1.591-2.043,4.899-4.738,7.438-2.889c0.322,0.235,0.724,0.671,0.959,1.074c1.045,1.792,0.791,4.818-0.207,7.076
	C82.948,384.818,80.872,387.573,78.905,389.202"/>
<path fill-rule="evenodd" clip-rule="evenodd" fill="#0082AA" d="M64.36,384.013c-0.521,1.527-1.103,3.142-2.055,4.408
	c-1.577,2.098-4.587,1.867-6.186-0.472c-0.66-1.863,0.203-4.576,1.887-6.777c0.214-0.221,0.605,0.301,0.896,0.388
	C60.702,382.3,62.495,383.01,64.36,384.013"/>
<path fill-rule="evenodd" clip-rule="evenodd" fill="#0082AA" d="M70.716,387.907c1.817,1.28,3.731,2.916,5.414,4.37
	c-0.644,1.405-1.855,2.972-2.957,3.773c-0.812,0.587-1.392,0.758-2.224,0.984c-2.789-0.436-4.377-2.798-3.302-5.178
	c0.689-1.526,1.896-2.733,2.959-3.773C70.644,388.025,70.679,387.966,70.716,387.907"/>
<path fill-rule="evenodd" clip-rule="evenodd" fill="#0082AA" d="M198.581,385.598c-1.211-6.406-2.364-15.341-2.537-18.435
	c-0.174-3.092,0.359-12.1-1.19-16.482c-1.547-4.384-10.116-11.1-10.116-11.1l-3.927-18.787l1.111-0.628l-0.38-3.609
	c-0.379-3.609-7-2.153-7-2.153s-6.778,0.023-6.362,3.628l0.418,3.604l1.219,0.37l0.263,19.193c0,0-6.896,8.422-7.453,13.037
	c-0.557,4.615,1.929,13.29,2.435,16.346c0.505,3.059,1.328,12.028,1.541,18.545s-1.151,12.604,4.736,11.954
	c5.887-0.648,12.614-1.392,12.614-1.392s6.729-0.742,12.615-1.391C202.452,397.648,199.797,392.005,198.581,385.598"/>
<path fill="#0082AA" d="M305.245,258.195c-9.199-2.965-16.548-2.957-16.548-2.957l-5.306,35.23c-0.342,2.277,9.535,5.94,9.535,5.94
	s10.158,2.795,11.209,0.746l16.265-31.698C320.4,265.458,314.443,261.16,305.245,258.195"/>
<path fill="#0082AA" d="M170.497,277.958c-5.672,1.57-9.405,4.034-9.405,4.034l9.09,19.697c0.588,1.272,6.838-0.17,6.838-0.17
	s6.103-1.978,5.953-3.371l-2.334-21.568C180.639,276.58,176.17,276.387,170.497,277.958"/>
<path fill="#0082AA" d="M362.438,352.132l-4.054,21.626c0,0,14.233,2.902,10.81,17.182c-3.422,14.279-7.233,28.938-7.233,28.938
	s-8.041,3.876-21.052,0.613c-12.258-3.071-12.604-5.493-12.604-5.493s-1.922-27.376,3.233-36.373
	c5.154-8.998,9.48-8.528,14.125-9.461l3.882-16.846c0,0-4.039-6.008,6.461-5.075C361.25,347.803,363.128,348.286,362.438,352.132"/>
<path fill="#0082AA" d="M276.043,368.126l-0.511-1.87l-0.004,0.001c-0.084-0.164-1.272-0.008-3.153,0.381l0.099-5.073
	c0,0-3.148-0.625-5.406,1.483l1.01,4.587c-1.209,0.304-2.512,0.645-3.87,1.017c-6.104,1.674-10.979,3.328-10.957,3.714l-0.004,0.001
	l0.514,1.868c-0.147,1.649-0.479,4.209-1.147,4.862l10.16,33.052c0,0,1.539,0.909,3.43,1.227c1.736,1.24,6.033,1.311,10.742,0.02
	c4.138-1.135,7.467-3.012,8.797-4.776c0.119-0.057,0.23-0.113,0.332-0.166c2.228-1.179,3.597-3.681,3.597-3.681l-10.16-33.052
	C278.603,371.501,277.01,369.468,276.043,368.126 M268.345,363.442c0.829-0.653,2.967-0.813,2.967-0.813v0.002
	c-0.011,0.001-2.138,0.162-2.965,0.814L268.345,363.442z M268.347,363.447c0.936-0.529,2.739-0.666,2.739-0.666l-0.138,2.872
	l-1.858,0.509L268.347,363.447z"/>
<path fill-rule="evenodd" clip-rule="evenodd" fill="#0082AA" d="M227.823,285.506c-0.507,0.633-1.375,0.495-2.188,0.771
	c-2.951,1-6.093,3.233-8.402,4.376c-1.739-1.281-2.909-4.113-4.396-6.088c-0.95-2.073-1.987-4.089-2.575-6.083
	c-1.108-3.763-1.149-8.564,0.933-11.345c3.893-5.198,10.316,0.011,12.916,4.325C227.042,276.33,228.104,281.386,227.823,285.506"/>
<path fill-rule="evenodd" clip-rule="evenodd" fill="#0082AA" d="M250.183,275.395c-2.306,0.991-5.884,1.892-8.672,3.531
	c-0.742,0.436-1.462,1.373-2.205,1.263c-0.484-0.072-1.65-1.474-2.394-2.287c-2.306-2.523-4.429-5.569-5.767-9.575
	c-1.31-3.915-1.961-10.687,2.735-12.422c0.599-0.221,1.531-0.37,2.274-0.326c3.3,0.198,7.093,3.208,9.207,6.528
	C247.937,266.155,249.759,271.346,250.183,275.395"/>
<path fill-rule="evenodd" clip-rule="evenodd" fill="#0082AA" d="M230.442,290.113c1.565,2.041,3.196,4.237,4.037,6.62
	c1.389,3.949-1.578,7.74-6.095,7.792c-3.056-0.769-5.892-4.313-7.326-8.49c-0.103-0.48,0.937-0.541,1.306-0.847
	C224.936,293.453,227.465,291.7,230.442,290.113"/>
<path fill-rule="evenodd" clip-rule="evenodd" fill="#0082AA" d="M241.226,285.12c3.309-1.284,7.168-2.377,10.586-3.326
	c1.295,2.097,2.305,5.089,2.392,7.259c0.063,1.595-0.222,2.515-0.658,3.821c-3.041,3.314-7.58,3.335-9.789-0.195
	c-1.416-2.262-1.95-4.931-2.392-7.26C241.319,285.319,241.272,285.22,241.226,285.12"/>
<path fill-rule="evenodd" clip-rule="evenodd" fill="#0082AA" d="M220.507,415.909c-1.318-0.859-3.033-2.414-4.857-3.3
	c-0.487-0.236-1.225-0.285-1.426-0.712c-0.131-0.278,0.195-1.373,0.361-2.044c0.518-2.081,1.366-4.249,2.993-6.34
	c1.591-2.043,4.899-4.738,7.438-2.889c0.322,0.235,0.724,0.671,0.959,1.074c1.045,1.792,0.791,4.818-0.207,7.076
	C224.55,411.525,222.474,414.28,220.507,415.909"/>
<path fill-rule="evenodd" clip-rule="evenodd" fill="#0082AA" d="M205.962,410.72c-0.521,1.527-1.103,3.142-2.055,4.408
	c-1.577,2.098-4.587,1.867-6.186-0.472c-0.66-1.863,0.203-4.576,1.887-6.777c0.214-0.221,0.605,0.301,0.896,0.388
	C202.304,409.007,204.097,409.717,205.962,410.72"/>
<path fill-rule="evenodd" clip-rule="evenodd" fill="#0082AA" d="M212.317,414.614c1.817,1.28,3.731,2.916,5.414,4.37
	c-0.644,1.405-1.855,2.972-2.957,3.773c-0.812,0.587-1.392,0.758-2.224,0.984c-2.789-0.436-4.377-2.798-3.302-5.178
	c0.689-1.526,1.896-2.733,2.959-3.773C212.245,414.732,212.28,414.673,212.317,414.614"/>
<path fill-rule="evenodd" clip-rule="evenodd" fill="#0082AA" d="M395.438,343.913c-1.211-6.406-2.364-15.341-2.537-18.435
	c-0.174-3.092,0.359-12.1-1.19-16.482c-1.547-4.384-10.116-11.1-10.116-11.1l-3.927-18.787l1.111-0.628l-0.38-3.609
	c-0.379-3.609-7-2.153-7-2.153s-6.778,0.023-6.362,3.628l0.418,3.604l1.219,0.37l0.263,19.193c0,0-6.896,8.422-7.453,13.037
	c-0.557,4.615,1.929,13.29,2.435,16.346c0.505,3.059,1.328,12.028,1.541,18.545s-1.151,12.604,4.736,11.954
	c5.887-0.648,12.614-1.392,12.614-1.392s6.729-0.742,12.615-1.391C399.309,355.963,396.653,350.32,395.438,343.913"/>
<path fill="#0082AA" d="M450.268,295.789c-9.199-2.965-16.548-2.957-16.548-2.957l-5.306,35.23c-0.342,2.277,9.535,5.94,9.535,5.94
	s10.158,2.795,11.209,0.746l16.265-31.698C465.423,303.051,459.466,298.753,450.268,295.789"/>
<path fill="#0082AA" d="M395.563,245.862c-5.672,1.57-9.405,4.034-9.405,4.034l9.09,19.697c0.588,1.272,6.838-0.17,6.838-0.17
	s6.103-1.978,5.953-3.371l-2.334-21.568C405.704,244.484,401.235,244.292,395.563,245.862"/>
<path fill="#0082AA" d="M521.203,272.186l-4.054,21.626c0,0,14.233,2.902,10.81,17.182c-3.422,14.279-7.233,28.938-7.233,28.938
	s-8.041,3.876-21.052,0.613c-12.258-3.071-12.604-5.493-12.604-5.493s-1.922-27.376,3.233-36.373
	c5.154-8.998,9.48-8.528,14.125-9.461l3.882-16.846c0,0-4.039-6.008,6.461-5.075C520.016,267.857,521.894,268.34,521.203,272.186"/>
<path fill="#0082AA" d="M489.722,367.301l-0.511-1.87l-0.004,0.001c-0.084-0.164-1.272-0.008-3.153,0.381l0.099-5.073
	c0,0-3.148-0.625-5.406,1.483l1.01,4.587c-1.209,0.304-2.512,0.645-3.87,1.017c-6.104,1.674-10.979,3.328-10.957,3.714l-0.004,0.001
	l0.514,1.868c-0.147,1.649-0.479,4.209-1.147,4.862l10.16,33.052c0,0,1.539,0.909,3.43,1.227c1.736,1.24,6.033,1.311,10.742,0.02
	c4.138-1.135,7.467-3.012,8.797-4.776c0.119-0.057,0.23-0.113,0.332-0.166c2.228-1.179,3.597-3.681,3.597-3.681l-10.16-33.052
	C492.281,370.676,490.688,368.643,489.722,367.301 M482.023,362.617c0.829-0.653,2.967-0.813,2.967-0.813v0.002
	c-0.011,0.001-2.138,0.162-2.965,0.814L482.023,362.617z M482.025,362.622c0.936-0.529,2.739-0.666,2.739-0.666l-0.138,2.872
	l-1.858,0.509L482.025,362.622z"/>
<path fill-rule="evenodd" clip-rule="evenodd" fill="#0082AA" d="M452.889,253.41c-0.507,0.633-1.375,0.495-2.188,0.771
	c-2.951,1-6.093,3.233-8.402,4.376c-1.739-1.281-2.909-4.113-4.396-6.088c-0.95-2.073-1.987-4.089-2.575-6.083
	c-1.108-3.763-1.149-8.564,0.933-11.345c3.893-5.198,10.316,0.011,12.916,4.325C452.107,244.234,453.169,249.291,452.889,253.41"/>
<path fill-rule="evenodd" clip-rule="evenodd" fill="#0082AA" d="M475.248,243.299c-2.306,0.991-5.884,1.892-8.672,3.531
	c-0.742,0.436-1.462,1.373-2.205,1.263c-0.484-0.072-1.65-1.474-2.394-2.287c-2.306-2.523-4.429-5.569-5.767-9.575
	c-1.31-3.915-1.961-10.687,2.735-12.422c0.599-0.221,1.531-0.37,2.274-0.326c3.3,0.198,7.093,3.208,9.207,6.528
	C473.002,234.059,474.824,239.25,475.248,243.299"/>
<path fill-rule="evenodd" clip-rule="evenodd" fill="#0082AA" d="M455.508,258.017c1.565,2.041,3.196,4.237,4.037,6.62
	c1.389,3.949-1.578,7.74-6.095,7.792c-3.056-0.769-5.892-4.313-7.326-8.49c-0.103-0.48,0.937-0.541,1.306-0.847
	C450.001,261.357,452.53,259.604,455.508,258.017"/>
<path fill-rule="evenodd" clip-rule="evenodd" fill="#0082AA" d="M466.291,253.024c3.309-1.284,7.168-2.377,10.586-3.326
	c1.295,2.097,2.305,5.089,2.392,7.259c0.063,1.595-0.222,2.515-0.658,3.821c-3.041,3.314-7.58,3.335-9.789-0.195
	c-1.416-2.262-1.95-4.931-2.392-7.26C466.385,253.224,466.338,253.125,466.291,253.024"/>
<path fill-rule="evenodd" clip-rule="evenodd" fill="#0082AA" d="M445.572,383.813c-1.318-0.859-3.033-2.414-4.857-3.3
	c-0.487-0.236-1.225-0.285-1.426-0.712c-0.131-0.278,0.195-1.373,0.361-2.044c0.518-2.081,1.366-4.249,2.993-6.34
	c1.591-2.043,4.899-4.738,7.438-2.889c0.322,0.235,0.724,0.671,0.959,1.074c1.045,1.792,0.791,4.818-0.207,7.076
	C449.615,379.43,447.539,382.185,445.572,383.813"/>
<path fill-rule="evenodd" clip-rule="evenodd" fill="#0082AA" d="M431.027,378.625c-0.521,1.527-1.103,3.142-2.055,4.408
	c-1.577,2.098-4.587,1.867-6.186-0.472c-0.66-1.863,0.203-4.576,1.887-6.777c0.214-0.221,0.605,0.301,0.896,0.388
	C427.369,376.912,429.162,377.622,431.027,378.625"/>
<path fill-rule="evenodd" clip-rule="evenodd" fill="#0082AA" d="M437.383,382.519c1.817,1.28,3.731,2.916,5.414,4.37
	c-0.644,1.405-1.855,2.972-2.957,3.773c-0.812,0.587-1.392,0.758-2.224,0.984c-2.789-0.436-4.377-2.798-3.302-5.178
	c0.689-1.526,1.896-2.733,2.959-3.773C437.311,382.637,437.346,382.578,437.383,382.519"/>
<g>
	<path fill="#FFFFFF" d="M204.506,319.995c-0.105-0.375-0.483-0.322-0.807-0.322c-1.184,0-2.311,0.322-3.551,0.322
		c-0.214,0-0.535-0.16-0.535-0.483v-6.562h17.534v7.316h-6.079l-0.16,0.268v3.39c0.482,9.789,1.184,19.687,1.184,29.53
		c0,0.538-0.108,0.968-0.646,1.128h-5.272c-0.374,0-0.535-0.107-0.645-0.483C205.476,342.694,204.778,331.345,204.506,319.995"/>
	<path fill="#FFFFFF" d="M233.388,326.073c5.596,3.498,7.691,9.36,7.691,15.008c0,5.165-3.279,10.274-8.875,12.48
		c-2.902,1.129-6.669,0.859-9.735-0.163c-6.131-2.42-8.282-9.037-8.282-14.201C214.187,330.269,223.007,321.286,233.388,326.073
		 M223.007,344.416c0.861,2.098,2.743,3.442,5.271,3.442c4.466,0,5.864-4.249,5.864-7.369c0-11.242-12.535-13.447-12.535-1.452
		C221.607,340.865,222.253,342.695,223.007,344.416"/>
	<path fill="#FFFFFF" d="M243.495,333.98c0-6.509,3.981-7.799,6.887-7.799h0.377c2.958,0.108,6.185,5.433,7.207,9.089l0.162-0.161
		l0.431-0.859c1.935-4.198,4.356-9.521,9.575-9.521c6.83,0,7.528,4.841,8.281,10.22c0.592,11.672,0.161,12.855,0.161,18.127
		c0,0.321,0,0.699-0.537,0.699h-4.463c-0.108,0-0.431-0.216-0.431-0.323l-0.81-13.125c-0.159-2.528,0.485-6.833-3.225-6.833
		c-3.605,0-5.005,8.77-5.381,9.306l-7.476,1.237c-0.646-2.043-0.914-8.605-3.604-8.605c-0.594,0-0.861,0.591-1.023,2.744
		c0,5.432,0.914,10.973,0.914,16.082v0.969c-0.106,0.431-0.321,0.646-0.697,0.699c-1.613,0.055-3.497,0.377-5.219,0.377
		c-0.054,0-0.43,0.053-0.485-0.215L243.495,333.98z"/>
	<path fill="#FFFFFF" d="M279.799,348.774c0-5.165,2.528-9.521,7.851-11.405c2.098-0.753,5.702-0.968,7.103-0.968
		c0.644,0-0.431-6.67-3.928-6.67c-2.903,0-4.732,2.368-6.722,3.873c0,0-3.873-3.12-3.873-3.228c0-0.538,0.806-1.29,1.129-1.775
		c3.497-3.55,6.775-4.732,11.133-4.732c7.208,0,8.983,5.97,9.199,11.672v0.483c0.268,5.595,0.268,11.35,0,16.944
		c-0.162,0.539-1.023,1.562-4.466,1.937h-0.213c-1.993,0-0.431-2.205-1.616-2.743c-0.806,0.591-1.074,1.237-2.044,1.775
		c-2.042,1.345-4.788,1.506-7.315,1.506c-4.033,0-6.078-3.067-6.237-6.294V348.774z M294.913,347.589v-1.345
		c0-1.829-0.055-4.679-0.969-4.679c-8.229,0-7.853,5.917-7.799,7.045C286.466,351.032,294.913,348.449,294.913,347.589"/>
	<path fill="#FFFFFF" d="M321.69,351.946c0-10.058,12.963-28.132,12.963-29.639c0-2.096-2.529-2.312-4.197-2.312
		c-1.074,0-2.958,0.591-3.818,1.237c-0.161,0.053-1.828,1.56-1.883,1.56c-0.376,0-3.549-3.658-3.442-3.82
		c4.089-6.132,21.356-6.992,21.356,0.916c0,4.464-3.39,7.1-5.758,11.08c-0.966,1.667-10.273,18.29-7.691,18.29
		c1.184,0,10.438-2.474,11.029-1.722c0.213,0.43,1.344,4.571,1.344,4.949c0,0.16,0,0.322-0.16,0.375
		c-4.682,0.701-11.136,1.399-15.333,2.368c-0.753,0.161-1.558,0.431-2.365,0.431c-0.698,0-1.184-0.592-1.612-1.076l-0.108-0.162
		C321.743,353.346,321.69,352.915,321.69,351.946"/>
</g>
<path fill-rule="evenodd" clip-rule="evenodd" fill="#0082AA" d="M66.04,381.847c-0.507-0.044-0.736-0.546-1.164-0.875
	c-1.547-1.192-3.804-2.057-5.205-2.865c0.065-1.354,1.137-2.949,1.65-4.411c0.753-1.217,1.445-2.459,2.28-3.459
	c1.579-1.887,4.071-3.578,6.247-3.458c4.066,0.226,3.582,5.39,2.232,8.247C70.56,378.25,68.288,380.562,66.04,381.847"/>
<path fill-rule="evenodd" clip-rule="evenodd" fill="#0082AA" d="M208.06,407.543c-0.507-0.044-0.736-0.546-1.164-0.875
	c-1.547-1.192-3.804-2.057-5.205-2.865c0.065-1.354,1.137-2.949,1.65-4.411c0.753-1.217,1.445-2.459,2.28-3.459
	c1.579-1.887,4.071-3.578,6.247-3.458c4.066,0.226,3.582,5.39,2.232,8.247C212.579,403.946,210.308,406.258,208.06,407.543"/>
<path fill-rule="evenodd" clip-rule="evenodd" fill="#0082AA" d="M432.707,375.569c-0.507-0.044-0.736-0.546-1.164-0.875
	c-1.547-1.192-3.804-2.057-5.205-2.865c0.065-1.354,1.137-2.949,1.65-4.411c0.753-1.217,1.445-2.459,2.28-3.459
	c1.579-1.887,4.071-3.578,6.247-3.458c4.066,0.226,3.582,5.39,2.232,8.247C437.227,371.972,434.955,374.284,432.707,375.569"/>
</svg>
