<?xml version="1.0" encoding="utf-8"?>
<!-- Generator: Adobe Illustrator 16.0.0, SVG Export Plug-In . SVG Version: 6.00 Build 0)  -->
<!DOCTYPE svg PUBLIC "-//W3C//DTD SVG 1.1//EN" "http://www.w3.org/Graphics/SVG/1.1/DTD/svg11.dtd">
<svg version="1.1" id="Capa_1" xmlns="http://www.w3.org/2000/svg" xmlns:xlink="http://www.w3.org/1999/xlink" x="0px" y="0px"
	 width="157.779px" height="141px" viewBox="0 0 157.779 141" enable-background="new 0 0 157.779 141" xml:space="preserve">
<path fill-rule="evenodd" clip-rule="evenodd" fill="#0C366C" d="M139.072,130.938c0,3.546-15.771,6.421-35.223,6.421
	c-19.453,0-35.224-2.875-35.224-6.421c0-3.543,15.771-6.415,35.224-6.415C123.302,124.523,139.072,127.396,139.072,130.938"/>
<path fill-rule="evenodd" clip-rule="evenodd" fill="#001B42" d="M121.212,130.823c0,0.449-4.922,0.812-10.993,0.812
	s-10.993-0.362-10.993-0.812c0-0.446,4.922-0.811,10.993-0.811S121.212,130.377,121.212,130.823"/>
<path fill="#371C4E" d="M107.266,93.599c6.053,6.435,1.228,20.067-2.205,26.513c-0.385,0.723,0.59,2.287,1.07,1.386
	c3.861-7.25,8.793-21.895,2.007-29.109C107.302,91.5,106.619,92.912,107.266,93.599"/>
<path fill="#371C4E" d="M49.477,88.275c-8.34-2.85-18.576-5.188-24.17,3.524c-0.299,0.466,0.43,2.039,0.651,1.693
	c5.532-8.618,15.573-6.237,23.802-3.427C50.209,90.221,49.993,88.452,49.477,88.275"/>
<polygon fill="#FFFFFF" points="121.212,96.851 114.489,96.851 108.012,96.851 54.735,96.851 54.735,30.374 121.212,30.374 "/>
<path fill="#3E1253" d="M121.018,96.127H54.542c0.177,0.342,0.354,0.684,0.531,1.025V38.913c0-1.448-0.905-6.849,0-8.062
	c-0.141,0.189,0.063,0.324,0.788,0.247c1.449-0.154,3.013,0,4.468,0h33.794h27.282c-0.177-0.342-0.354-0.684-0.53-1.025V96.55
	c0,0.451,0.674,1.567,0.674,0.603V30.676c0-0.275-0.154-1.026-0.531-1.026H54.542c-0.152,0-0.144,0.347-0.144,0.424V96.55
	c0,0.275,0.155,1.026,0.532,1.026h66.475C121.721,97.576,121.49,96.127,121.018,96.127"/>
<polyline fill="#FFFFFF" points="26.606,73.415 26.606,7.133 54.736,30.375 54.736,96.852 38.446,83.28 36.015,81.254 "/>
<path fill="#3E1253" d="M27.037,73.692V34.125V11.696c0-0.605-0.451-3.759,0-4.238c-0.768,0.816,3.171,3.35,4.082,4.104
	c6.54,5.402,13.079,10.806,19.618,16.209c0.922,0.762,1.848,1.775,2.881,2.38c1.016,0.595,1.004,1.333,0.687,0.026
	c0.32,1.318,0,3.14,0,4.482v49.596v9.678c0,0.506,0.247,1.885,0,2.331c-0.313,0.57,0.494-0.116,0.411-0.129
	c-0.272-0.041-0.851-0.657-1.021-0.852c-2.956-3.375-7.322-6.101-10.77-8.972c-2.295-1.911-4.59-3.823-6.884-5.735
	c-0.504-0.42-0.434,1.038-0.054,1.354c6.24,5.2,12.48,10.399,18.722,15.599c0.271,0.225,0.458-0.195,0.458-0.401v-45.91V38.551
	c0-2.27,0.408-4.97,0-7.211c-0.644-3.532-5.843-6.137-8.507-8.338C39.985,17.486,33.31,11.97,26.633,6.455
	c-0.271-0.224-0.458,0.193-0.458,0.401v66.282C26.175,73.71,27.037,74.668,27.037,73.692"/>
<polyline fill="#FFFFFF" points="86.404,7.132 93.378,7.132 121.212,30.374 54.735,30.374 26.606,7.132 72.119,7.132 "/>
<path fill="#3E1253" d="M86.49,7.858c2.66,0,5.563-0.596,7.784,0.721c3.303,1.956,6.303,5.263,9.243,7.718
	c5.89,4.918,11.78,9.836,17.67,14.754c-0.021-0.467-0.041-0.935-0.062-1.401H78.05c-7.178,0-14.361,0.082-21.538,0
	c-4.032-0.047-7.791-4.943-10.922-7.529c-6.319-5.222-12.64-10.443-18.958-15.665c0.02,0.468,0.04,0.935,0.061,1.403h45.513
	c0.623,0,0.327-1.451-0.172-1.451H26.521c-0.679,0-0.215,1.174,0.062,1.402c5.451,4.505,10.903,9.01,16.356,13.515
	c3.18,2.628,6.36,5.255,9.541,7.883c0.964,0.797,1.694,1.591,2.824,1.894c1.85,0.494,4.529,0,6.432,0h11.816h29.467h18.279
	c0.681,0,0.213-1.175-0.062-1.403c-6.133-5.121-12.265-10.241-18.397-15.362c-2.755-2.301-5.649-5.582-8.788-7.338
	c-2.183-1.222-5.189-0.59-7.732-0.59C85.695,6.407,85.991,7.858,86.49,7.858"/>
<g>
	<path fill="#CDCED3" d="M55.259,13.019c0,2.085-3.229,3.775-7.21,3.775s-7.209-1.69-7.209-3.775c0-2.086,3.228-3.776,7.209-3.776
		S55.259,10.933,55.259,13.019"/>
	<path fill="#3B1D52" d="M55.259,12.267c0,2.087-3.229,3.777-7.21,3.777s-7.209-1.69-7.209-3.777c0-2.086,3.228-3.774,7.209-3.774
		S55.259,10.181,55.259,12.267"/>
</g>
<g>
	<path fill="#CDCED3" d="M101.97,74.185c-2.449,0.307-3.635,5.329-6.638,6.45c-3.004,1.121-7.965,2.53-16.318-5.663
		c-8.352-8.195-12.264,5.48-3.509,11.685c0.92,0.656,1.825,1.38,2.727,2.119c-1.354,2.974-2.783,7.243,2.848,10.029
		c6.753,3.338,7.853-0.652,8.812-3.355c0.083-0.236,0.141-0.527,0.18-0.86c3.611-0.419,7.716-3.366,12.745-11.032
		C108.833,74.909,104.42,73.876,101.97,74.185"/>
	<path fill="#4F101D" d="M101.859,73.119c-2.449,0.309-3.636,5.331-6.64,6.452c-3.003,1.121-7.963,2.528-16.315-5.665
		c-8.353-8.193-12.264,5.483-3.51,11.686c7.83,5.577,14.634,16.224,27.311-3.101C108.724,73.844,104.309,72.811,101.859,73.119"/>
	<path fill="#3B1D52" d="M101.657,72.483c-3.559,0.987-4.122,5.852-8.021,6.911c-4.78,1.297-9.114-1.215-12.682-4.231
		c-2.138-1.807-5.394-5.906-8.685-3.972c-2.168,1.274-2.433,4.404-2.121,6.619c0.493,3.498,2.517,6.262,5.24,8.389
		c2.503,1.956,4.91,4.138,7.581,5.865c7.136,4.611,13.163,0.264,17.762-5.77c2.1-2.755,6.33-7.482,5.283-11.393
		C105.467,72.858,103.579,72.296,101.657,72.483c-0.467,0.045-0.133,1.325,0.404,1.272c7.022-0.682-0.291,9.249-1.91,11.372
		c-2.486,3.265-5.819,7.125-10.146,7.73c-3.337,0.468-6.292-1.367-8.831-3.301c-2.628-2.001-6.13-4.251-8.15-6.836
		C71.085,80.241,68.946,71,75.041,72.093c2.632,0.471,4.626,3.313,6.616,4.894c1.738,1.381,3.625,2.628,5.728,3.381
		c2.38,0.851,4.879,0.928,7.279,0.107c3.432-1.173,4.173-5.826,7.397-6.721C102.551,73.619,102.16,72.343,101.657,72.483"/>
	<path fill="#BA302E" d="M88.52,81.729c0,0,2.218,9.95,1.259,12.654c-0.957,2.702-2.057,6.694-8.811,3.355
		c-6.751-3.342-3.354-8.814-2.103-11.63c1.253-2.816,1.629-7.563,1.611-7.955C80.459,77.761,88.52,81.729,88.52,81.729"/>
	<path fill="#943132" d="M80.895,91.655c0.626,0.76,2.516,3.333,1.782,4.549c-0.559,0.714-1.943,0.581-2.66,0.022
		c-1.93-1.292-1.088-6.65,0.583-4.558"/>
	<path fill="#943132" d="M87.015,83.309c0,0-1.362,0.345-1.341,1.035c0.066,2.09,0.153,6.415-0.255,7.248
		c-0.429,0.88-0.001-3.99-0.395-7.044c-0.102-0.793-1.784-2.151-2.027-2.566L87.015,83.309z"/>
	<path fill="#F1F2F3" d="M99.408,76.311l-0.646,5.302c0,0-6.673,7.101-20.075-1.651l-1.28-6.505c0,0,5.932,6.972,12.546,7.491
		C93.132,81.197,95.972,81.642,99.408,76.311"/>
	
		<path fill="none" stroke="#F1F2F3" stroke-width="1.403" stroke-linecap="round" stroke-linejoin="round" stroke-miterlimit="10" d="
		M99.408,76.311l-0.646,5.302c0,0-6.673,7.101-20.075-1.651l-1.28-6.505c0,0,5.932,6.972,12.546,7.491
		C93.132,81.197,95.972,81.642,99.408,76.311z"/>
</g>
<path fill-rule="evenodd" clip-rule="evenodd" fill="#3B1D52" d="M139.984,40.774c0.583-0.883,1.167-1.819,1.764-2.801
	c0.337-0.554,0.595-1.334,1.472-0.92c0.49,0.235,0.549,0.908,0.315,1.594c-0.365,1.08-1.4,2.168-1.729,3.078
	c0.36-0.144,0.687-0.603,1.098-1.045c0.568-0.606,1.142-1.347,2.067-0.603c0.136,0.365,0.117,0.687-0.042,1.133
	c-0.493,1.384-1.762,1.982-2.523,3.154c-0.416,0.639-0.567,1.459-0.902,2.17c-0.317,0.674-0.792,1.142-1.302,1.467
	c-0.88,0.556-2.187,0.919-3.614,0.46c-1.737-0.56-2.518-2.189-3.206-3.546c-0.349-0.688-0.717-1.379-1.151-2.034
	c-0.297-0.445-1.069-1.498-0.757-2.271c0.183-0.455,0.799-0.697,1.394-0.47c1.001,0.388,1.387,1.733,1.947,2.363
	c0.532-0.209,0.774-0.546,0.921-1.423c0.253-1.53-0.489-3.312-0.253-4.743c0.12-0.728,0.539-1.38,1.224-1.148
	c0.703,0.238,0.862,1.492,0.947,2.187c0.107,0.896,0.13,1.761,0.321,2.535c0.57-1.573,0.548-4.172,1.842-4.633
	c0.175-0.063,0.524,0.096,0.676,0.266C141.388,36.57,139.779,39.283,139.984,40.774"/>
<path fill="#371C4E" d="M136.605,47.943c0.438,3.752-0.431,7.748-2.622,10.865c-2.747,3.909-7.484,5.009-12.026,5.118
	c-0.893,0.021-0.576,1.84,0.164,1.822c4.932-0.117,9.907-1.303,12.854-5.533c2.413-3.466,3.34-7.931,2.855-12.086
	C137.718,47.163,136.462,46.706,136.605,47.943"/>
<path fill-rule="evenodd" clip-rule="evenodd" fill="#3B1D52" d="M52.46,74.851c0.196-0.036,0.441-0.235,0.438-0.399
	c-0.021-1.2-2.325-2.342-3.545-3.483c0.742,0.197,1.514,0.569,2.339,0.886c0.638,0.243,1.794,0.682,2.216,0.247
	c0.41-0.422-0.04-1.034-0.648-1.452c-1.195-0.822-2.991-1.045-4.269-1.923c-0.731-0.506-0.957-0.844-0.983-1.346
	c0.725-0.147,2.031,0.157,2.673-0.44c0.38-0.356,0.351-0.937,0.004-1.279c-0.59-0.586-1.753-0.463-2.236-0.435
	c-0.708,0.044-1.43,0.019-2.142-0.021c-1.407-0.079-3.08-0.206-4.097,0.88c-0.834,0.894-0.903,2.06-0.674,2.985
	c0.133,0.535,0.405,1.108,0.905,1.653c0.528,0.576,1.207,1.058,1.649,1.662c0.808,1.11,0.956,2.351,2.031,3.347
	c0.348,0.321,0.626,0.479,0.99,0.539c0.937-0.38,0.452-1.149,0.084-1.857c-0.266-0.514-0.574-0.969-0.594-1.311
	c0.705,0.659,1.356,1.94,2.204,2.702c0.536,0.486,1.148,0.742,1.503,0.47c0.628-0.488,0.015-1.035-0.373-1.541
	c-0.688-0.897-1.342-1.765-1.947-2.606C49.369,72.636,51.285,75.083,52.46,74.851"/>
<path fill="#371C4E" d="M37.665,51.719c-1.955,2.166-3.911,4.636-2.925,7.698c1.117,3.459,5.172,6.921,8.04,8.935
	c0.946,0.664,1.278-1.023,0.57-1.521c-2.096-1.473-3.953-3.311-5.593-5.277c-1.232-1.478-2.418-2.698-1.61-4.952
	c0.472-1.316,1.669-2.481,2.586-3.497C39.294,52.483,38.377,50.93,37.665,51.719"/>
<path fill="#364D18" d="M143.391,52.698c-5.909,0.017-6.343-1.043-6.343-1.043s-4.014-12.187-2.71-16.856
	c1.303-4.672,3.317-4.955,5.315-5.911l-0.173-8.082c0,0-2.521-2.259,2.345-3.043c2.442-0.347,3.35-0.343,3.478,1.479"/>
<path fill="#364D18" d="M145.303,19.241l0.645,10.269c0,0,6.785-0.319,6.873,6.548c0.086,6.866,0.043,13.948,0.043,13.948"/>
<path fill="#5F7F34" d="M143.976,51.83c-2.78-0.174-5.562-0.955-5.562-0.955s-2.346-1.348-3.172-13.905
	c-0.608-5.301,5.563-7.517,6.302-8.472c0.738-0.957,0.043-3.506,0.043-3.506l3.432,0.94l-0.086,1.756c0,0-0.122,2.214,1.095,2.646
	c1.216,0.436,5.596,1.073,5.771,3.68c0.174,2.608,0,15.817,0,15.817"/>
<path fill="#CED443" d="M138.698,31.726c0,0,2.172,2.941,7.474-0.709c0.435-0.26-1.043-0.174-1.043-1.737
	c0-1.565-0.366-9.03-0.521-10.254c-0.155-1.228-3.534-0.363-4.403-0.19c-0.869,0.174-0.55,1.666-0.29,1.754
	c0.262,0.086,0.696,9.313,0.696,9.313S139.219,30.423,138.698,31.726"/>
<path fill="#EAF0CC" d="M150.17,45.79c0,0-9.777,1.392-10.517,0.955c-0.737-0.433-2.824-5.56-1.434-9.037"/>
<path fill="#EAF0CC" d="M138.22,37.708c0,0,9.082,0.652,10.994-0.694c1.912-1.349,0.956,8.776,0.956,8.776"/>
<path fill="#D5D848" d="M138.911,38.198c0,0,8.01,0.574,9.696-0.612c1.687-1.188,0.844,7.742,0.844,7.742s-8.624,1.225-9.275,0.842
	C139.525,45.787,137.685,41.265,138.911,38.198"/>
<path fill="#EAF0CC" d="M148.402,32.847c0,0,2.26-0.049,2.55,3.08c0.289,3.13-0.174,0.115-0.667-0.957
	C149.793,33.9,149.012,33.186,148.402,32.847"/>
<path fill="#EAF0CC" d="M139.072,32.847c0,0-2.26-0.049-2.549,3.08c-0.29,3.13,0.174-0.231,0.666-1.305
	C137.683,33.552,138.464,33.186,139.072,32.847"/>
<path fill="#364D18" d="M140.827,19.284c0,0,2.25-0.606,2.711-0.305C143.999,19.284,140.697,21.284,140.827,19.284"/>
<path fill-rule="evenodd" clip-rule="evenodd" fill="#3B1D52" d="M152.78,36.825c0,0-2.578-0.487-2.676,0
	c-0.098,0.49-0.39,2.197,0.536,2.052c0.927-0.147,2.218-0.196,2.218-0.196"/>
<path fill-rule="evenodd" clip-rule="evenodd" fill="#3B1D52" d="M152.78,39.558c0,0-2.578-0.489-2.676,0
	c-0.098,0.488-0.39,2.195,0.536,2.05c0.927-0.146,2.218-0.194,2.218-0.194"/>
<path fill-rule="evenodd" clip-rule="evenodd" fill="#3B1D52" d="M152.819,42.673c0,0-3.131-0.481-3.229,0.007
	c-0.098,0.489-0.39,2.196,0.537,2.051c0.926-0.147,2.77-0.202,2.77-0.202"/>
<path fill-rule="evenodd" clip-rule="evenodd" fill="#3B1D52" d="M104.889,119.226c1-2.391,1.266-0.715,5.397,1.015
	c4.133,1.728,10.319,5.82,9.319,8.211c-1,2.39-8.808,2.175-12.94,0.447S103.889,121.619,104.889,119.226"/>
<path fill-rule="evenodd" clip-rule="evenodd" fill="#3B1D52" d="M10.453,86.472c1-2.391,7.059-1.68,11.191,0.05
	c4.133,1.728,6.495,3.733,5.494,6.125c-0.999,2.392-4.983,4.264-9.116,2.535C13.891,93.452,9.453,88.865,10.453,86.472"/>
<path fill-rule="evenodd" clip-rule="evenodd" fill="#3B1D52" d="M22.4,97.014c1.079,0.174,2.634-2.313,3.231-3.177"/>
<path fill-rule="evenodd" clip-rule="evenodd" fill="#3B1D52" d="M23.169,93.841c-0.457,0.523-2.928,2.828-0.769,3.173"/>
<path fill-rule="evenodd" clip-rule="evenodd" fill="#3B1D52" d="M104.225,125.456c0,0.695-0.348,6.488,1.506,5.33
	c0.927-0.58,0.464-3.475,0.348-4.518"/>
<g>
	<path fill="#CDCED3" d="M99.547,44.372c-4.561-0.914-9.023,1.008-11.528,4.541c-1.257-2.671-3.732-4.738-6.87-5.37
		c-5.23-1.049-10.312,2.294-11.35,7.465c-1.037,5.173,2.36,10.214,7.59,11.263c3.558,0.715,7.044-0.604,9.238-3.147
		c1.3,3.609,4.425,6.481,8.494,7.298c6.157,1.236,12.139-2.699,13.36-8.788C109.703,51.546,105.704,45.607,99.547,44.372"/>
	<path fill="#F1F2F3" d="M99.928,42.47c-4.561-0.915-9.022,1.008-11.527,4.541c-1.257-2.67-3.733-4.74-6.872-5.37
		c-5.229-1.049-10.311,2.293-11.347,7.463c-1.037,5.173,2.36,10.215,7.589,11.266c3.557,0.714,7.044-0.604,9.237-3.148
		c1.302,3.611,4.426,6.48,8.494,7.3c6.158,1.234,12.141-2.699,13.362-8.788C110.086,49.644,106.085,43.706,99.928,42.47"/>
	<path fill="#3E1253" d="M99.938,41.847c-1.897-0.285-3.755-0.282-5.604,0.266c-1.023,0.304-2.027,0.764-2.925,1.344
		c-0.521,0.337-2.172,2.131-2.503,2.164c-1.354,0.135-2.124-1.865-3.137-2.661c-1.674-1.317-3.772-2.067-5.899-2.116
		c-7.176-0.162-12.046,7.308-9.516,13.889c1.16,3.018,3.734,5.317,6.862,6.119c2.077,0.534,4.304,0.399,6.289-0.432
		c0.728-0.304,1.325-0.821,2.024-1.15c1.565-0.736,1.104-0.796,2.261,0.507c2.802,3.154,5.44,5.604,9.996,5.595
		c3.796-0.007,7.431-1.954,9.571-5.079C112.24,53.167,107.959,43.877,99.938,41.847c-0.399-0.102-0.494,1.127-0.02,1.249
		c9.009,2.28,12.263,14.277,3.568,19.451c-6.125,3.643-13.572,0.591-16.234-5.761c-0.072-0.174-0.269-0.246-0.406-0.104
		c-6.174,6.362-19.374,1.803-16.096-8.335c2.658-8.227,13.641-7.839,17.406-0.896c0.079,0.144,0.272,0.273,0.407,0.104
		c2.84-3.622,6.816-5.139,11.354-4.458C100.352,43.16,100.416,41.917,99.938,41.847"/>
	<path fill="#2D2B2B" d="M103.769,54.709c-0.664,3.306-3.912,5.441-7.254,4.771c-3.343-0.67-5.514-3.894-4.851-7.201
		c0.662-3.304,3.911-5.44,7.253-4.769C102.261,48.181,104.432,51.405,103.769,54.709"/>
	<path fill="#2D2B2B" d="M83.11,52.703c-0.436,2.169-2.567,3.571-4.761,3.131c-2.193-0.441-3.619-2.556-3.185-4.726
		c0.436-2.169,2.567-3.571,4.761-3.131C82.12,48.418,83.545,50.536,83.11,52.703"/>
	<path fill="#FFFFFF" d="M83.523,50.646c-0.122,0.602-0.712,0.992-1.322,0.869c-0.608-0.122-1.004-0.708-0.883-1.311
		c0.119-0.602,0.713-0.992,1.321-0.869C83.248,49.458,83.644,50.044,83.523,50.646"/>
	<path fill="#FFFFFF" d="M104.132,49.69c-0.188,0.938-1.11,1.544-2.06,1.353c-0.946-0.19-1.564-1.103-1.376-2.042
		c0.188-0.936,1.11-1.543,2.06-1.353C103.704,47.838,104.321,48.753,104.132,49.69"/>
	<path fill="#2D2B2B" d="M73.104,40.342c0,0,3.787-1.453,5.777-1.374c1.99,0.079,0.355-2.559-0.553-2.426
		C77.422,36.675,74.315,38.45,73.104,40.342"/>
	<path fill="#2D2B2B" d="M108.342,45.824c0,0-2.888-2.602-4.695-3.215c-1.808-0.613,0.562-2.41,1.326-1.979
		C105.737,41.06,107.907,43.715,108.342,45.824"/>
</g>
<g>
	<path fill="#CDCED3" d="M94.759,12.769c0,2.085-3.229,3.775-7.21,3.775s-7.209-1.69-7.209-3.775c0-2.086,3.228-3.776,7.209-3.776
		S94.759,10.683,94.759,12.769"/>
	<path fill="#3B1D52" d="M94.759,12.017c0,2.087-3.229,3.777-7.21,3.777s-7.209-1.69-7.209-3.777c0-2.086,3.228-3.774,7.209-3.774
		S94.759,9.931,94.759,12.017"/>
</g>
<g>
	<path fill="#CDCED3" d="M68.384,25.019c0,2.085-3.229,3.775-7.21,3.775s-7.209-1.69-7.209-3.775c0-2.086,3.228-3.776,7.209-3.776
		S68.384,22.933,68.384,25.019"/>
	<path fill="#3B1D52" d="M68.384,24.267c0,2.087-3.229,3.777-7.21,3.777s-7.209-1.69-7.209-3.777c0-2.086,3.228-3.774,7.209-3.774
		S68.384,22.181,68.384,24.267"/>
</g>
<g>
	<path fill="#CDCED3" d="M106.884,24.019c0,2.085-3.229,3.775-7.21,3.775s-7.209-1.69-7.209-3.775c0-2.086,3.228-3.776,7.209-3.776
		S106.884,21.933,106.884,24.019"/>
	<path fill="#3B1D52" d="M106.884,23.267c0,2.087-3.229,3.777-7.21,3.777s-7.209-1.69-7.209-3.777c0-2.086,3.228-3.774,7.209-3.774
		S106.884,21.181,106.884,23.267"/>
</g>
<g>
	<path fill="#CDCED3" d="M76.509,13.269c0,2.085-3.229,3.775-7.21,3.775s-7.209-1.69-7.209-3.775c0-2.086,3.228-3.776,7.209-3.776
		S76.509,11.183,76.509,13.269"/>
	<path fill="#3B1D52" d="M76.509,12.517c0,2.087-3.229,3.777-7.21,3.777s-7.209-1.69-7.209-3.777c0-2.086,3.228-3.774,7.209-3.774
		S76.509,10.431,76.509,12.517"/>
</g>
<g>
	<path fill="#CDCED3" d="M86.384,23.394c0,2.085-3.229,3.775-7.21,3.775s-7.209-1.69-7.209-3.775c0-2.086,3.228-3.776,7.209-3.776
		S86.384,21.308,86.384,23.394"/>
	<path fill="#3B1D52" d="M86.384,22.642c0,2.087-3.229,3.777-7.21,3.777s-7.209-1.69-7.209-3.777c0-2.086,3.228-3.774,7.209-3.774
		S86.384,20.556,86.384,22.642"/>
</g>
</svg>
