<?xml version="1.0" encoding="utf-8"?>
<!-- Generator: Adobe Illustrator 16.0.0, SVG Export Plug-In . SVG Version: 6.00 Build 0)  -->
<!DOCTYPE svg PUBLIC "-//W3C//DTD SVG 1.1//EN" "http://www.w3.org/Graphics/SVG/1.1/DTD/svg11.dtd">
<svg version="1.1" id="Capa_1" xmlns="http://www.w3.org/2000/svg" xmlns:xlink="http://www.w3.org/1999/xlink" x="0px" y="0px"
	 width="306.914px" height="192.5px" viewBox="0 0 306.914 192.5" enable-background="new 0 0 306.914 192.5" xml:space="preserve">
<polygon fill="#C4465A" points="140.54,113.968 122.542,7.419 104.542,-99.132 140.54,-99.132 176.538,-99.132 158.54,7.419 "/>
<polygon fill="#C4465A" points="140.54,113.968 158.54,220.519 176.538,327.068 140.54,327.068 104.542,327.068 122.542,220.519 "/>
<polygon fill="#C4465A" points="140.54,113.968 242.437,149.942 344.332,185.915 326.861,217.391 309.392,248.864 224.964,181.416 
	"/>
<polygon fill="#C4465A" points="140.132,113.716 75.457,27.149 10.783,-59.421 -14.064,-33.374 -38.913,-7.326 50.613,53.196 "/>
<polygon fill="#C4465A" points="140.132,113.716 38.237,149.688 -63.659,185.664 -46.189,217.138 -28.72,248.613 55.707,181.164 "/>
<polygon fill="#C4465A" points="140.537,113.892 227.648,49.952 314.76,-13.99 330.93,18.173 347.098,50.335 243.815,82.115 "/>
</svg>
