<?xml version="1.0" encoding="utf-8"?>
<!-- Generator: Adobe Illustrator 16.0.0, SVG Export Plug-In . SVG Version: 6.00 Build 0)  -->
<!DOCTYPE svg PUBLIC "-//W3C//DTD SVG 1.1//EN" "http://www.w3.org/Graphics/SVG/1.1/DTD/svg11.dtd">
<svg version="1.1" id="Capa_1" xmlns="http://www.w3.org/2000/svg" xmlns:xlink="http://www.w3.org/1999/xlink" x="0px" y="0px"
	 width="242.343px" height="152px" viewBox="0 0 242.343 152" enable-background="new 0 0 242.343 152" xml:space="preserve">
<polygon fill="#1473B6" points="188.949,42.772 172.211,46.414 160.687,33.739 165.901,17.422 182.64,13.78 194.164,26.456 "/>
<polyline fill="#1473B6" points="135.306,140.118 123.781,127.443 128.996,111.126 145.734,107.484 157.258,120.16 152.043,136.476 
	135.306,140.118 "/>
<polygon fill="#1473B6" points="144.068,53.506 136.498,55.152 131.289,49.421 133.646,42.043 141.214,40.396 146.425,46.128 "/>
<polygon fill="#1473B6" points="131.805,24.641 124.234,26.288 119.025,20.557 121.383,13.178 128.951,11.531 134.162,17.263 "/>
<polygon fill="#1473B6" points="226.069,28.451 218.499,30.097 213.29,24.366 215.646,16.988 223.215,15.341 228.426,21.073 "/>
<polygon fill="#1473B6" points="170.037,86.797 162.467,88.443 157.258,82.712 159.614,75.334 167.183,73.687 172.395,79.419 "/>
<polygon fill="#1473B6" points="99.943,127.833 92.373,129.48 87.164,123.75 89.521,116.371 97.089,114.724 102.301,120.456 "/>
<polygon fill="#1473B6" points="96.01,71.858 88.439,73.504 83.23,67.774 85.587,60.396 93.155,58.749 98.366,64.48 "/>
<polygon fill="#1473B6" points="50.618,46.128 43.048,47.774 37.839,42.044 40.195,34.665 47.764,33.018 52.975,38.75 "/>
<polygon fill="#1473B6" points="29.979,19.512 22.408,21.158 17.199,15.427 19.556,8.049 27.124,6.402 32.335,12.134 "/>
<polygon fill="#1473B6" points="25.346,122.155 17.775,123.801 12.566,118.07 14.923,110.692 22.491,109.045 27.703,114.777 "/>
<polygon fill="#1473B6" points="61.854,127.834 54.283,129.48 49.074,123.75 51.431,116.371 58.999,114.724 64.21,120.456 "/>
<polygon fill="#1473B6" points="23.422,63.733 15.854,65.379 10.643,59.648 13.002,52.27 20.569,50.623 25.78,56.355 "/>
<polyline fill="#1473B6" points="88.876,11.531 100.398,24.206 95.184,40.522 78.445,44.165 66.921,31.49 72.138,15.173 
	88.876,11.531 "/>
<polygon fill="#1473B6" points="53.03,101.118 36.292,104.76 24.768,92.085 29.985,75.768 46.723,72.126 58.245,84.802 "/>
<polygon fill="#1473B6" points="128.661,95.118 111.923,98.76 100.398,86.085 105.613,69.769 122.352,66.126 133.876,78.802 "/>
<polyline fill="#1473B6" points="208.076,138.419 196.552,125.744 201.767,109.427 218.505,105.785 230.028,118.461 
	224.813,134.777 208.076,138.419 "/>
<polygon fill="#1473B6" points="221.371,74.534 213.801,76.18 208.592,70.449 210.948,63.071 218.517,61.424 223.729,67.156 "/>
</svg>
