<?xml version="1.0" encoding="utf-8"?>
<!-- Generator: Adobe Illustrator 16.0.0, SVG Export Plug-In . SVG Version: 6.00 Build 0)  -->
<!DOCTYPE svg PUBLIC "-//W3C//DTD SVG 1.1//EN" "http://www.w3.org/Graphics/SVG/1.1/DTD/svg11.dtd">
<svg version="1.1" id="Capa_1" xmlns="http://www.w3.org/2000/svg" xmlns:xlink="http://www.w3.org/1999/xlink" x="0px" y="0px"
	 width="239.5px" height="101px" viewBox="0 0 239.5 101" enable-background="new 0 0 239.5 101" xml:space="preserve">
<g>
	<path fill-rule="evenodd" clip-rule="evenodd" fill="#0082AA" d="M20.139,82.982c-0.55-2.909-1.073-6.966-1.152-8.371
		c-0.078-1.404,0.164-5.494-0.54-7.484c-0.702-1.99-4.593-5.04-4.593-5.04l-1.783-8.53l0.504-0.285l-0.172-1.639
		c-0.172-1.639-3.179-0.978-3.179-0.978s-3.077,0.011-2.889,1.647l0.189,1.636l0.554,0.168l0.119,8.714c0,0-3.131,3.824-3.384,5.919
		s0.876,6.035,1.105,7.422c0.229,1.389,0.603,5.462,0.699,8.421s-0.522,5.723,2.15,5.428s5.728-0.632,5.728-0.632
		s3.056-0.337,5.729-0.632C21.896,88.454,20.691,85.892,20.139,82.982"/>
	<path fill="#0082AA" d="M29.379,36.47c-4.177-1.346-7.514-1.342-7.514-1.342l-2.409,15.997c-0.155,1.034,4.329,2.697,4.329,2.697
		s4.613,1.269,5.09,0.339l7.385-14.393C36.26,39.768,33.555,37.816,29.379,36.47"/>
	<path fill="#0082AA" d="M10.414,16.8c-2.575,0.713-4.271,1.832-4.271,1.832l4.128,8.943c0.267,0.578,3.104-0.077,3.104-0.077
		s2.771-0.898,2.703-1.531l-1.06-9.793C15.02,16.174,12.99,16.087,10.414,16.8"/>
	<path fill="#0082AA" d="M63.262,26.19l-1.84,9.82c0,0,6.463,1.317,4.908,7.801c-1.554,6.483-3.285,13.14-3.285,13.14
		s-3.65,1.76-9.559,0.278c-5.565-1.395-5.723-2.494-5.723-2.494s-0.873-12.43,1.468-16.516s4.305-3.872,6.414-4.296l1.763-7.649
		c0,0-1.834-2.728,2.934-2.304C62.723,24.225,63.576,24.444,63.262,26.19"/>
	<path fill="#0082AA" d="M56.116,72.789l-0.231-0.849h-0.002c-0.038-0.074-0.578-0.003-1.432,0.173l0.044-2.303
		c0,0-1.429-0.284-2.454,0.673l0.458,2.083c-0.549,0.138-1.141,0.293-1.757,0.462c-2.771,0.76-4.985,1.511-4.976,1.687h-0.001
		l0.232,0.849c-0.066,0.749-0.218,1.911-0.521,2.207l4.613,15.008c0,0,0.698,0.413,1.558,0.557c0.788,0.563,2.738,0.595,4.877,0.009
		c1.879-0.516,3.391-1.368,3.994-2.169c0.055-0.025,0.104-0.051,0.15-0.075c1.012-0.535,1.634-1.671,1.634-1.671L57.69,74.421
		C57.278,74.321,56.555,73.397,56.116,72.789 M52.621,70.662c0.376-0.296,1.347-0.369,1.347-0.369v0.001
		c-0.005,0-0.971,0.074-1.347,0.37V70.662z M52.621,70.664c0.426-0.24,1.244-0.303,1.244-0.303l-0.063,1.304l-0.844,0.231
		L52.621,70.664z"/>
	<path fill-rule="evenodd" clip-rule="evenodd" fill="#0082AA" d="M36.443,20.227c-0.229,0.288-0.624,0.225-0.993,0.35
		c-1.34,0.454-2.767,1.468-3.815,1.987c-0.79-0.582-1.32-1.868-1.996-2.764c-0.432-0.941-0.902-1.856-1.169-2.762
		c-0.503-1.708-0.522-3.888,0.424-5.151c1.767-2.36,4.684,0.005,5.864,1.964C36.089,16.061,36.571,18.356,36.443,20.227"/>
	<path fill-rule="evenodd" clip-rule="evenodd" fill="#0082AA" d="M46.596,15.636c-1.047,0.45-2.671,0.859-3.938,1.604
		c-0.337,0.198-0.663,0.624-1.001,0.573c-0.22-0.032-0.749-0.669-1.087-1.038c-1.047-1.146-2.011-2.529-2.618-4.348
		c-0.595-1.778-0.891-4.853,1.242-5.641c0.271-0.1,0.695-0.168,1.032-0.147c1.498,0.09,3.221,1.456,4.181,2.964
		C45.576,11.44,46.403,13.797,46.596,15.636"/>
	<path fill-rule="evenodd" clip-rule="evenodd" fill="#0082AA" d="M37.633,22.319c0.711,0.927,1.451,1.924,1.833,3.006
		c0.631,1.793-0.717,3.515-2.768,3.538c-1.387-0.349-2.675-1.958-3.326-3.855c-0.047-0.218,0.425-0.246,0.593-0.385
		C35.133,23.835,36.281,23.039,37.633,22.319"/>
	<path fill-rule="evenodd" clip-rule="evenodd" fill="#0082AA" d="M42.529,20.052c1.502-0.583,3.254-1.079,4.807-1.51
		c0.588,0.952,1.046,2.311,1.086,3.296c0.028,0.724-0.101,1.142-0.299,1.735c-1.381,1.505-3.442,1.514-4.445-0.088
		c-0.643-1.027-0.885-2.239-1.086-3.297C42.571,20.143,42.551,20.097,42.529,20.052"/>
	<path fill-rule="evenodd" clip-rule="evenodd" fill="#0082AA" d="M33.121,79.438c-0.598-0.39-1.377-1.096-2.205-1.498
		c-0.221-0.107-0.556-0.13-0.647-0.323c-0.06-0.126,0.089-0.624,0.164-0.929c0.235-0.944,0.62-1.929,1.359-2.878
		c0.722-0.928,2.225-2.151,3.377-1.312c0.146,0.107,0.329,0.305,0.436,0.488c0.475,0.814,0.359,2.188-0.094,3.213
		C34.957,77.447,34.015,78.698,33.121,79.438"/>
	<path fill-rule="evenodd" clip-rule="evenodd" fill="#0082AA" d="M26.518,77.081c-0.237,0.694-0.501,1.427-0.934,2.002
		c-0.716,0.953-2.082,0.848-2.809-0.214c-0.299-0.846,0.093-2.078,0.857-3.077c0.097-0.1,0.274,0.136,0.406,0.176
		C24.856,76.304,25.67,76.626,26.518,77.081"/>
	<path fill-rule="evenodd" clip-rule="evenodd" fill="#0082AA" d="M29.403,78.85c0.825,0.581,1.694,1.324,2.458,1.984
		c-0.292,0.638-0.843,1.35-1.343,1.713c-0.368,0.267-0.632,0.344-1.01,0.447c-1.267-0.198-1.987-1.271-1.499-2.352
		c0.313-0.693,0.861-1.241,1.344-1.713C29.37,78.903,29.387,78.876,29.403,78.85"/>
	<path fill-rule="evenodd" clip-rule="evenodd" fill="#0082AA" d="M91.345,70.525c-0.55-2.908-1.073-6.965-1.152-8.37
		c-0.079-1.404,0.163-5.494-0.54-7.484c-0.703-1.991-4.594-5.04-4.594-5.04l-1.783-8.53l0.505-0.285l-0.173-1.638
		C83.436,37.539,80.43,38.2,80.43,38.2s-3.078,0.01-2.889,1.647l0.189,1.637l0.553,0.168l0.12,8.715c0,0-3.131,3.824-3.385,5.919
		c-0.253,2.096,0.876,6.035,1.105,7.422c0.229,1.389,0.604,5.461,0.7,8.42c0.097,2.959-0.523,5.723,2.15,5.428
		c2.673-0.294,5.728-0.632,5.728-0.632s3.056-0.337,5.728-0.632C93.103,75.997,91.896,73.435,91.345,70.525"/>
	<path fill="#0082AA" d="M139.486,14.682c-4.178-1.346-7.514-1.342-7.514-1.342l-2.409,15.997c-0.155,1.034,4.329,2.697,4.329,2.697
		s4.612,1.27,5.09,0.339l7.385-14.393C146.367,17.979,143.662,16.028,139.486,14.682"/>
	<path fill="#0082AA" d="M74.709,11.54c-2.575,0.713-4.271,1.832-4.271,1.832l4.127,8.944c0.268,0.578,3.105-0.077,3.105-0.077
		s2.771-0.898,2.702-1.531l-1.06-9.793C79.313,10.914,77.285,10.826,74.709,11.54"/>
	<path fill="#0082AA" d="M161.861,62.605l-1.841,9.819c0,0,6.463,1.318,4.908,7.802c-1.554,6.483-3.284,13.14-3.284,13.14
		s-3.651,1.76-9.559,0.278c-5.566-1.395-5.724-2.494-5.724-2.494s-0.872-12.431,1.468-16.516c2.341-4.085,4.305-3.872,6.414-4.296
		l1.763-7.649c0,0-1.834-2.728,2.934-2.304C161.322,60.64,162.175,60.859,161.861,62.605"/>
	<path fill="#0082AA" d="M128.191,74.012l-0.231-0.849l-0.002,0c-0.038-0.075-0.577-0.003-1.432,0.173l0.045-2.303
		c0,0-1.43-0.284-2.455,0.673l0.459,2.083c-0.55,0.138-1.141,0.293-1.758,0.462c-2.771,0.76-4.985,1.511-4.975,1.687l-0.002,0
		l0.233,0.848c-0.067,0.749-0.218,1.911-0.521,2.208l4.613,15.007c0,0,0.699,0.413,1.558,0.558c0.788,0.563,2.739,0.595,4.878,0.009
		c1.878-0.516,3.39-1.368,3.994-2.168c0.054-0.026,0.104-0.051,0.15-0.076c1.012-0.535,1.633-1.671,1.633-1.671l-4.613-15.008
		C129.354,75.545,128.631,74.622,128.191,74.012 M124.696,71.886c0.377-0.297,1.347-0.369,1.347-0.369v0
		C126.039,71.518,125.073,71.591,124.696,71.886L124.696,71.886z M124.697,71.888c0.425-0.24,1.244-0.302,1.244-0.302l-0.063,1.304
		l-0.844,0.231L124.697,71.888z"/>
	<path fill-rule="evenodd" clip-rule="evenodd" fill="#0082AA" d="M100.738,32.354c-0.229,0.288-0.624,0.225-0.993,0.35
		c-1.34,0.454-2.767,1.468-3.815,1.987c-0.789-0.582-1.32-1.867-1.996-2.764c-0.431-0.941-0.902-1.856-1.169-2.762
		c-0.503-1.708-0.521-3.889,0.424-5.151c1.768-2.36,4.685,0.005,5.864,1.963C100.384,28.188,100.866,30.483,100.738,32.354"/>
	<path fill-rule="evenodd" clip-rule="evenodd" fill="#0082AA" d="M110.891,27.763c-1.047,0.45-2.671,0.859-3.938,1.603
		c-0.336,0.198-0.663,0.624-1.001,0.574c-0.22-0.033-0.749-0.669-1.087-1.039c-1.047-1.146-2.011-2.529-2.618-4.348
		c-0.595-1.778-0.89-4.853,1.242-5.64c0.271-0.101,0.695-0.168,1.032-0.148c1.499,0.09,3.221,1.457,4.181,2.964
		C109.871,23.567,110.699,25.924,110.891,27.763"/>
	<path fill-rule="evenodd" clip-rule="evenodd" fill="#0082AA" d="M101.928,34.445c0.711,0.927,1.451,1.924,1.833,3.006
		c0.631,1.793-0.716,3.515-2.767,3.538c-1.388-0.349-2.676-1.958-3.327-3.855c-0.046-0.218,0.426-0.246,0.593-0.384
		C99.428,35.962,100.576,35.166,101.928,34.445"/>
	<path fill-rule="evenodd" clip-rule="evenodd" fill="#0082AA" d="M106.824,32.178c1.502-0.583,3.255-1.079,4.807-1.51
		c0.588,0.952,1.047,2.311,1.086,3.296c0.028,0.725-0.101,1.143-0.299,1.735c-1.381,1.505-3.441,1.515-4.445-0.089
		c-0.643-1.027-0.885-2.238-1.086-3.296C106.867,32.269,106.846,32.224,106.824,32.178"/>
	<path fill-rule="evenodd" clip-rule="evenodd" fill="#0082AA" d="M97.417,91.564c-0.599-0.39-1.378-1.096-2.206-1.499
		c-0.221-0.107-0.556-0.129-0.647-0.323c-0.06-0.126,0.089-0.623,0.164-0.928c0.235-0.945,0.62-1.93,1.359-2.879
		c0.723-0.928,2.225-2.151,3.378-1.312c0.146,0.106,0.328,0.305,0.435,0.487c0.475,0.813,0.359,2.188-0.094,3.213
		C99.252,89.573,98.31,90.824,97.417,91.564"/>
	<path fill-rule="evenodd" clip-rule="evenodd" fill="#0082AA" d="M90.813,89.208c-0.236,0.693-0.501,1.427-0.933,2.001
		c-0.717,0.953-2.083,0.848-2.809-0.214c-0.3-0.846,0.092-2.078,0.856-3.077c0.097-0.1,0.274,0.137,0.406,0.176
		C89.151,88.43,89.966,88.752,90.813,89.208"/>
	<path fill-rule="evenodd" clip-rule="evenodd" fill="#0082AA" d="M93.698,90.976c0.825,0.582,1.694,1.324,2.458,1.984
		c-0.292,0.638-0.842,1.35-1.343,1.713c-0.368,0.267-0.632,0.344-1.009,0.447c-1.267-0.197-1.988-1.271-1.5-2.351
		c0.313-0.693,0.861-1.241,1.344-1.713C93.665,91.029,93.682,91.003,93.698,90.976"/>
	<path fill-rule="evenodd" clip-rule="evenodd" fill="#0082AA" d="M176.845,57.518c-0.55-2.909-1.073-6.966-1.151-8.371
		c-0.079-1.403,0.163-5.494-0.541-7.483c-0.702-1.991-4.593-5.04-4.593-5.04l-1.783-8.53l0.505-0.285l-0.173-1.639
		c-0.172-1.639-3.179-0.978-3.179-0.978s-3.077,0.01-2.889,1.647l0.189,1.637l0.554,0.168l0.119,8.714c0,0-3.131,3.824-3.384,5.92
		s0.876,6.034,1.105,7.422c0.229,1.389,0.603,5.461,0.699,8.42c0.097,2.959-0.522,5.723,2.15,5.428
		c2.674-0.294,5.729-0.632,5.729-0.632s3.055-0.337,5.728-0.631C178.603,62.989,177.396,60.427,176.845,57.518"/>
	<path fill="#0082AA" d="M201.741,37.022c-4.177-1.346-7.514-1.343-7.514-1.343l-2.409,15.997c-0.155,1.034,4.329,2.697,4.329,2.697
		s4.612,1.269,5.09,0.339l7.385-14.393C208.622,40.32,205.918,38.368,201.741,37.022"/>
	<path fill="#0082AA" d="M176.902,14.353c-2.576,0.713-4.271,1.832-4.271,1.832l4.128,8.944c0.267,0.578,3.104-0.077,3.104-0.077
		s2.771-0.898,2.703-1.531l-1.06-9.793C181.507,13.728,179.478,13.64,176.902,14.353"/>
	<path fill="#0082AA" d="M233.949,26.305l-1.84,9.82c0,0,6.463,1.317,4.908,7.801s-3.285,13.14-3.285,13.14s-3.65,1.76-9.559,0.278
		c-5.565-1.395-5.723-2.494-5.723-2.494s-0.873-12.43,1.468-16.515c2.341-4.086,4.305-3.872,6.414-4.296l1.763-7.649
		c0,0-1.834-2.728,2.934-2.304C233.41,24.34,234.264,24.559,233.949,26.305"/>
	<path fill="#0082AA" d="M219.655,69.493l-0.231-0.849l-0.002,0c-0.038-0.074-0.578-0.003-1.432,0.173l0.045-2.303
		c0,0-1.43-0.284-2.455,0.673l0.459,2.083c-0.55,0.138-1.141,0.292-1.758,0.461c-2.771,0.76-4.985,1.511-4.975,1.687l-0.002,0
		l0.232,0.848c-0.066,0.749-0.217,1.911-0.521,2.208l4.613,15.008c0,0,0.698,0.413,1.558,0.557c0.788,0.563,2.739,0.596,4.877,0.009
		c1.879-0.515,3.391-1.368,3.994-2.168c0.055-0.026,0.105-0.052,0.151-0.075c1.011-0.536,1.633-1.672,1.633-1.672l-4.613-15.007
		C220.817,71.025,220.094,70.103,219.655,69.493 M216.16,67.366c0.376-0.296,1.347-0.369,1.347-0.369v0.001
		c-0.005,0-0.971,0.074-1.347,0.37V67.366z M216.16,67.369c0.426-0.24,1.244-0.302,1.244-0.302l-0.063,1.304l-0.844,0.231
		L216.16,67.369z"/>
	<path fill-rule="evenodd" clip-rule="evenodd" fill="#0082AA" d="M202.932,17.78c-0.23,0.288-0.625,0.225-0.994,0.35
		c-1.34,0.454-2.767,1.468-3.815,1.987c-0.79-0.582-1.321-1.867-1.995-2.764c-0.432-0.941-0.902-1.856-1.17-2.762
		c-0.503-1.708-0.521-3.889,0.424-5.151c1.768-2.36,4.684,0.005,5.864,1.963C202.576,13.614,203.059,15.91,202.932,17.78"/>
	<path fill-rule="evenodd" clip-rule="evenodd" fill="#0082AA" d="M213.084,13.189c-1.047,0.45-2.672,0.859-3.938,1.603
		c-0.338,0.198-0.664,0.624-1.002,0.574c-0.22-0.033-0.749-0.669-1.086-1.039c-1.047-1.146-2.012-2.529-2.619-4.348
		c-0.595-1.778-0.891-4.853,1.242-5.64c0.271-0.101,0.695-0.168,1.033-0.148c1.498,0.09,3.22,1.457,4.18,2.964
		C212.063,8.994,212.891,11.351,213.084,13.189"/>
	<path fill-rule="evenodd" clip-rule="evenodd" fill="#0082AA" d="M204.12,19.872c0.711,0.927,1.452,1.924,1.833,3.006
		c0.631,1.793-0.717,3.515-2.768,3.538c-1.387-0.349-2.675-1.958-3.326-3.855c-0.047-0.218,0.426-0.246,0.593-0.384
		C201.62,21.389,202.769,20.593,204.12,19.872"/>
	<path fill-rule="evenodd" clip-rule="evenodd" fill="#0082AA" d="M209.017,17.605c1.502-0.583,3.255-1.079,4.807-1.51
		c0.588,0.952,1.046,2.311,1.086,3.296c0.028,0.725-0.101,1.143-0.299,1.735c-1.381,1.505-3.442,1.514-4.444-0.089
		c-0.644-1.027-0.887-2.238-1.086-3.296C209.059,17.695,209.038,17.65,209.017,17.605"/>
	<path fill-rule="evenodd" clip-rule="evenodd" fill="#0082AA" d="M199.609,76.991c-0.6-0.39-1.377-1.096-2.206-1.499
		c-0.222-0.107-0.556-0.129-0.647-0.323c-0.059-0.126,0.089-0.623,0.164-0.928c0.235-0.945,0.621-1.93,1.359-2.879
		c0.723-0.928,2.225-2.151,3.377-1.312c0.146,0.106,0.329,0.305,0.436,0.487c0.475,0.813,0.359,2.188-0.094,3.213
		C201.445,75,200.502,76.251,199.609,76.991"/>
	<path fill-rule="evenodd" clip-rule="evenodd" fill="#0082AA" d="M193.005,74.635c-0.237,0.693-0.501,1.427-0.933,2.001
		c-0.717,0.953-2.083,0.848-2.809-0.214c-0.301-0.846,0.092-2.078,0.856-3.077c0.097-0.1,0.274,0.137,0.406,0.176
		C191.344,73.857,192.158,74.179,193.005,74.635"/>
	<path fill-rule="evenodd" clip-rule="evenodd" fill="#0082AA" d="M195.891,76.403c0.825,0.581,1.694,1.324,2.458,1.984
		c-0.292,0.638-0.843,1.35-1.343,1.713c-0.368,0.267-0.632,0.344-1.01,0.447c-1.266-0.197-1.986-1.271-1.499-2.351
		c0.313-0.693,0.86-1.241,1.344-1.713C195.857,76.456,195.873,76.43,195.891,76.403"/>
	<path fill-rule="evenodd" clip-rule="evenodd" fill="#0082AA" d="M27.28,76.098c-0.23-0.02-0.335-0.248-0.528-0.397
		c-0.703-0.542-1.728-0.934-2.363-1.301c0.029-0.615,0.516-1.339,0.749-2.003c0.342-0.552,0.656-1.117,1.035-1.571
		c0.717-0.856,1.849-1.625,2.837-1.57c1.846,0.103,1.626,2.447,1.014,3.745C29.332,74.464,28.301,75.514,27.28,76.098"/>
	<path fill-rule="evenodd" clip-rule="evenodd" fill="#0082AA" d="M91.765,87.766c-0.229-0.02-0.334-0.248-0.528-0.397
		c-0.702-0.541-1.727-0.934-2.363-1.301c0.029-0.615,0.516-1.339,0.749-2.003c0.342-0.553,0.656-1.116,1.036-1.57
		c0.717-0.857,1.848-1.625,2.836-1.57c1.847,0.103,1.627,2.447,1.014,3.745C93.817,86.132,92.785,87.182,91.765,87.766"/>
	<path fill-rule="evenodd" clip-rule="evenodd" fill="#0082AA" d="M193.768,73.247c-0.23-0.02-0.334-0.248-0.529-0.397
		c-0.701-0.542-1.727-0.934-2.363-1.301c0.03-0.615,0.517-1.339,0.75-2.003c0.342-0.552,0.656-1.117,1.035-1.571
		c0.717-0.856,1.849-1.625,2.837-1.57c1.847,0.103,1.626,2.447,1.014,3.745C195.819,71.614,194.788,72.664,193.768,73.247"/>
</g>
</svg>
