<?xml version="1.0" encoding="utf-8"?>
<!-- Generator: Adobe Illustrator 16.0.0, SVG Export Plug-In . SVG Version: 6.00 Build 0)  -->
<!DOCTYPE svg PUBLIC "-//W3C//DTD SVG 1.1//EN" "http://www.w3.org/Graphics/SVG/1.1/DTD/svg11.dtd">
<svg version="1.1" id="Capa_1" xmlns="http://www.w3.org/2000/svg" xmlns:xlink="http://www.w3.org/1999/xlink" x="0px" y="0px"
	 width="259px" height="134.5px" viewBox="0 0 259 134.5" enable-background="new 0 0 259 134.5" xml:space="preserve">
<path fill="#0084BA" d="M24.667-0.482c0,13.624-11.043,24.667-24.666,24.667S-24.667,13.142-24.667-0.482
	c0-13.623,11.045-24.667,24.668-24.667S24.667-14.105,24.667-0.482"/>
<path fill="#0084BA" d="M69.55,67.25c0,13.624-11.043,24.667-24.666,24.667S20.218,80.874,20.218,67.25
	c0-13.623,11.043-24.667,24.666-24.667S69.55,53.627,69.55,67.25"/>
<path fill="#0084BA" d="M111,0.482c0,13.624-11.043,24.667-24.666,24.667S61.666,14.106,61.666,0.482
	c0-13.623,11.045-24.667,24.668-24.667S111-13.141,111,0.482"/>
<path fill="#0084BA" d="M283.667-0.482c0,13.624-11.043,24.667-24.666,24.667s-24.668-11.043-24.668-24.667
	c0-13.623,11.045-24.667,24.668-24.667S283.667-14.105,283.667-0.482"/>
<path fill="#0084BA" d="M152.357,67.25c0,13.624-11.043,24.667-24.666,24.667s-24.666-11.043-24.666-24.667
	c0-13.623,11.043-24.667,24.666-24.667S152.357,53.627,152.357,67.25"/>
<path fill="#0084BA" d="M197.334,0.482c0,13.624-11.044,24.667-24.666,24.667c-13.623,0-24.669-11.043-24.669-24.667
	c0-13.623,11.046-24.667,24.669-24.667C186.29-24.185,197.334-13.141,197.334,0.482"/>
<path fill="#0084BA" d="M235.166,67.25c0,13.624-11.043,24.667-24.666,24.667s-24.666-11.043-24.666-24.667
	c0-13.623,11.043-24.667,24.666-24.667S235.166,53.627,235.166,67.25"/>
<path fill="#0084BA" d="M24.667,134.018c0,13.624-11.043,24.667-24.666,24.667s-24.668-11.043-24.668-24.667
	c0-13.623,11.045-24.667,24.668-24.667S24.667,120.395,24.667,134.018"/>
<path fill="#0084BA" d="M111,134.982c0,13.624-11.043,24.667-24.666,24.667s-24.668-11.043-24.668-24.667
	c0-13.623,11.045-24.667,24.668-24.667S111,121.359,111,134.982"/>
<path fill="#0084BA" d="M283.667,134.018c0,13.624-11.043,24.667-24.666,24.667s-24.668-11.043-24.668-24.667
	c0-13.623,11.045-24.667,24.668-24.667S283.667,120.395,283.667,134.018"/>
<path fill="#0084BA" d="M197.334,134.982c0,13.624-11.044,24.667-24.666,24.667c-13.623,0-24.669-11.043-24.669-24.667
	c0-13.623,11.046-24.667,24.669-24.667C186.29,110.315,197.334,121.359,197.334,134.982"/>
</svg>
