<?xml version="1.0" encoding="utf-8"?>
<!-- Generator: Adobe Illustrator 16.0.0, SVG Export Plug-In . SVG Version: 6.00 Build 0)  -->
<!DOCTYPE svg PUBLIC "-//W3C//DTD SVG 1.1//EN" "http://www.w3.org/Graphics/SVG/1.1/DTD/svg11.dtd">
<svg version="1.1" id="Capa_1" xmlns="http://www.w3.org/2000/svg" xmlns:xlink="http://www.w3.org/1999/xlink" x="0px" y="0px"
	 width="259px" height="134.5px" viewBox="0 0 259 134.5" enable-background="new 0 0 259 134.5" xml:space="preserve">
<g opacity="0.75">
	<g>
		<defs>
			
				<rect id="SVGID_213_" x="4.646" y="-13.235" transform="matrix(-0.7071 0.7071 -0.7071 -0.7071 137.4847 30.7019)" width="115.475" height="114.12"/>
		</defs>
		<clipPath id="SVGID_2_">
			<use xlink:href="#SVGID_213_"  overflow="visible"/>
		</clipPath>
		<path clip-path="url(#SVGID_2_)" d="M10.608,21.069c-0.084-1.508-0.377-2.956-0.371-4.434c0.001-0.18,0.034-0.965,0.035-1.114
			c0.155-0.904,1.362-1.17,2.146-1.167c4.762,0.021,5.932,1.204,6.771,2.171c1.141,1.301,1.436,2.63,1.429,4.287
			c-0.01,1.93-0.921,3.042-2.521,3.938c-0.063,0.03-0.635,0.358-3.531,0.646l0.783,13.48l-0.004,0.813
			c-0.572-0.063-2.896,0.62-3.68,0.345C11.214,33.733,10.882,27.401,10.608,21.069 M14.704,22.083
			c1.688,0.009,2.266-0.892,2.272-2.431c0.006-1.116-1.591-1.876-2.585-1.881c-0.271-0.001-0.301,0.18-0.303,0.422
			c-0.005,1.204,0.199,2.683,0.255,3.768C14.371,22.142,14.673,22.084,14.704,22.083"/>
		<path clip-path="url(#SVGID_2_)" d="M19.844,38.657c0.006-1.446-0.416-14.712,1.032-14.858c0.181,0.002,1.749-0.053,2.834-0.078
			l0.109,2.352c1.759-1.89,3.782-2.907,6.736-2.893c0.18,0.211,0.24,0.393,0.497,3.137c-3.678,0.134-7.064,2.38-7.263,5.907
			l-0.361,7.232l-0.063,0.091c-0.028,0.029-0.903,0.084-2.954-0.015C20.081,39.413,19.843,38.988,19.844,38.657"/>
		<path clip-path="url(#SVGID_2_)" d="M33.055,24.368l0.092-0.12l3.616,0.015c0.18,0.002,0.12,0.273,0.119,0.305
			c-0.01,2.32-0.353,4.58-0.363,6.871c-0.01,2.291,0.678,3.53,3.209,3.541l0.123,0.001c2.5,0.011,3.019-1.373,3.03-3.936
			c0.008-1.718-0.163-3.437-0.156-5.186c0.003-0.664,2.476-1.075,2.988-1.073l0.333,0.002c0.448,0.544,0.583,4.345,0.58,5.037
			l-0.006,1.086c-0.014,2.893-0.203,4.913-2.563,6.891c-2.299,1.287-5.223,1.153-7.842,0.447c-3.521-0.98-3.815-3.093-3.799-6.5
			C32.519,29.31,33.046,25.725,33.055,24.368"/>
		<path clip-path="url(#SVGID_2_)" d="M47.9,34.083c-0.553-4.072,0.948-9.341,6.227-10.071c5.128-0.7,6.235,1.083,6.819,5.428
			l0.175,1.207l-8.872,1.979c-0.03,0-0.213,0.18-0.242,0.27c-0.061,0.18-0.184,0.692,0.135,3.286
			c0.176,1.237,1.408,1.695,2.585,1.55c1.45-0.204,3.086-1.945,4.291-1.939c0.514,0.001,1.623,1.241,1.679,1.695l-0.001,0.151
			c-2.06,2.763-4.203,3.206-7.52,3.01C49.41,40.45,48.31,36.979,47.9,34.083 M52.874,27.805c-0.394,0.36-1.002,1.442-1.004,2.076
			L51.868,30l0.272-0.059c0.029,0,0.089-0.029,0.121-0.031c0.813-0.116,1.66-0.203,5.188-0.971c0,0,0.002-0.03-0.029-0.121
			c-0.059-0.362-0.296-1.328-0.296-1.357c-0.265-0.905-0.898-0.878-1.745-0.762C54.536,26.817,53.45,27.174,52.874,27.805"/>
		<path clip-path="url(#SVGID_2_)" d="M62.61,41.354l-0.028-0.482c-0.479-7.659,0.341-15.313-0.227-22.973
			c0.001-0.243,0.034-0.905,0.065-0.905l0.181-0.089L66.1,16.65l-0.06,12.872c1.184-1.411,3.113-1.945,4.895-2.058
			c3.227,0.015,4.602,2.283,4.587,5.599c-0.019,3.647-1.69,6.866-5.43,7.12c-1.659-0.007-2.714-0.133-4.127-1.014
			c-0.002,0.663,0.024,1.567-0.071,2.262c0,0.15-0.209,0.088-0.299,0.086c-0.845,0.088-1.718-0.067-2.564-0.071l-0.21-0.001
			L62.61,41.354z M69.951,31.439c-0.151-0.001-0.271,0.03-0.423,0.028c-0.814,0.056-2.957,0.319-2.965,2.218l-0.012,2.531
			C71.571,39.437,75.165,31.464,69.951,31.439"/>
		<path clip-path="url(#SVGID_2_)" d="M76.406,37.018c0.015-2.896,1.443-5.331,4.432-6.372c1.176-0.415,3.197-0.527,3.98-0.525
			c0.362,0.002-0.224-3.738-2.184-3.748c-1.626-0.009-2.658,1.314-3.778,2.153c0,0-2.162-1.758-2.16-1.818
			c0.001-0.303,0.453-0.723,0.637-0.992c1.969-1.98,3.811-2.636,6.253-2.625c4.04,0.019,5.02,3.369,5.126,6.564l-0.003,0.271
			c0.137,3.135,0.122,6.362-0.044,9.497c-0.092,0.301-0.576,0.873-2.506,1.075l-0.121-0.002c-1.115-0.005-0.236-1.237-0.896-1.541
			c-0.455,0.329-0.607,0.691-1.15,0.989c-1.149,0.748-2.687,0.833-4.104,0.827c-2.261-0.011-3.398-1.735-3.481-3.544V37.018z
			 M84.881,36.392l0.004-0.754c0.005-1.024-0.02-2.622-0.532-2.625c-4.61-0.022-4.415,3.295-4.388,3.929
			C80.138,38.299,84.88,36.873,84.881,36.392"/>
		<path clip-path="url(#SVGID_2_)" d="M102.015,14.312c0.092-0.089,0.182-0.148,4.009-0.011c0.03,0.512,0.141,2.052-0.809,12.478
			l4.157,0.291c0.451,0.032,0.572,0.333,0.571,0.634c-0.007,1.146-0.188,1.628-0.497,2.772c0,0.121-0.181,0.088-0.301,0.088
			l-4.129-0.139c-1.02,4.79-0.612,8.349,4.429,7.014c-0.002,0.723,0.144,1.871,0.139,2.744c-0.003,0.453-0.997,0.448-1.42,0.446
			c-4.04-0.018-7.895-0.88-6.554-10.46c-0.151,0-1.628-0.067-1.746-0.098c-0.063-0.001-0.181-0.093-0.181-0.093l0.015-3.617
			c0,0,0.12-0.06,0.182-0.058l1.537,0.066L102.015,14.312z"/>
		<path clip-path="url(#SVGID_2_)" d="M112.368,24.729l0.09-0.12l3.618,0.017c0.181,0.001,0.118,0.271,0.118,0.302
			c-0.011,2.321-0.352,4.582-0.363,6.871c-0.011,2.291,0.678,3.531,3.21,3.543h0.122c2.502,0.011,3.019-1.373,3.03-3.935
			c0.009-1.719-0.164-3.439-0.157-5.187c0.006-0.664,2.478-1.075,2.991-1.072l0.331,0.001c0.45,0.544,0.583,4.344,0.581,5.036
			l-0.005,1.086c-0.014,2.894-0.204,4.913-2.564,6.892c-2.297,1.285-5.222,1.152-7.841,0.446c-3.523-0.98-3.814-3.092-3.799-6.499
			C111.832,29.672,112.36,26.088,112.368,24.729"/>
		<path clip-path="url(#SVGID_2_)" d="M10.104,52.44c-0.03-0.091-0.029-0.332,0.181-0.332l3.018-0.228
			c0.029,0,0.181,0.033,0.209,0.061c0.03,0.001,0.121,0.092,0.121,0.092l0.112,1.78c0.851-1.324,3.235-2.217,4.895-2.329
			c0.15,0,0.302-0.029,0.453-0.029c3.346,0.016,5.354,2.919,5.607,6.387c0.028,0.241,0.028,0.452,0.027,0.663
			c-0.026,5.637-5.162,8.025-10.667,5.288c0.376,3.829,0.403,4.432,0.686,8.293c0.027,0.542,0.111,2.08,0.111,2.17l-0.091,0.121
			c0,0-1.419,0.145-1.99,0.202l-1.146,0.115l-0.12-0.091c0-0.03-0.173-1.599-0.345-3.649C10.102,52.741,10.102,52.621,10.104,52.44
			 M15.07,60.512c1.827,2.541,5.544,1.171,5.558-1.934c0.001-0.121-0.029-0.241-0.029-0.362c-0.144-1.719-0.288-2.926-2.217-2.934
			c-0.121-0.001-0.274,0.029-0.424,0.028C15.938,55.45,13.274,57.972,15.07,60.512"/>
		<path clip-path="url(#SVGID_2_)" d="M27.169,51.976l0.092-0.121l3.616,0.018c0.181,0,0.12,0.271,0.118,0.302
			c-0.01,2.32-0.351,4.58-0.36,6.871c-0.011,2.292,0.675,3.532,3.208,3.542h0.121c2.501,0.012,3.021-1.373,3.031-3.935
			c0.01-1.719-0.165-3.437-0.158-5.186c0.004-0.664,2.479-1.074,2.99-1.072l0.334,0.002c0.448,0.543,0.583,4.343,0.58,5.036
			l-0.005,1.086c-0.013,2.894-0.204,4.913-2.565,6.891c-2.298,1.288-5.221,1.153-7.839,0.447c-3.524-0.981-3.815-3.092-3.8-6.498
			C26.634,56.917,27.163,53.333,27.169,51.976"/>
		<path clip-path="url(#SVGID_2_)" d="M42.575,51.684c0.002-0.241,0.273-0.419,0.514-0.419l2.715,0.012
			c0.631,0.003,0.317,2.866,0.465,3.319c3.059-2.91,5.291-3.11,6.436-3.106c2.595,0.012,3.907,2.431,4.078,4.812l0.523,10.584
			c0.002,0.03-0.06,0.091-0.09,0.089l-3.226,0.107c-0.062-0.03-0.181-0.093-0.181-0.122l-0.538-7.871
			c-0.959-7.603-7.224-1.933-7.248,3.464c-0.009,1.688,0.193,3.377,0.186,5.064l-0.002,0.302c-0.935,0.086-1.718,0.082-2.651,0.079
			l-0.845-0.004l-0.181-0.211c0,0-0.028-0.182-0.028-0.271L42.575,51.684z"/>
		<path clip-path="url(#SVGID_2_)" d="M60.771,41.758c0.089-0.09,0.18-0.148,4.009-0.011c0.028,0.512,0.14,2.05-0.81,12.477
			l4.157,0.29c0.452,0.033,0.572,0.334,0.571,0.636c-0.007,1.147-0.188,1.629-0.496,2.771c0,0.121-0.182,0.09-0.302,0.089
			l-4.129-0.14c-1.019,4.789-0.612,8.348,4.429,7.015c-0.002,0.723,0.142,1.87,0.139,2.743c-0.002,0.453-0.997,0.449-1.419,0.446
			c-4.04-0.017-7.896-0.879-6.555-10.459c-0.15-0.001-1.628-0.069-1.746-0.099c-0.063,0-0.183-0.092-0.183-0.092l0.018-3.618
			c0,0,0.121-0.059,0.182-0.057l1.536,0.066L60.771,41.758z"/>
		<path clip-path="url(#SVGID_2_)" d="M69.661,61.817c-0.554-4.073,0.947-9.342,6.227-10.071c5.127-0.7,6.236,1.083,6.818,5.428
			l0.176,1.206l-8.873,1.979c-0.03,0-0.211,0.181-0.24,0.271c-0.063,0.18-0.186,0.692,0.133,3.288
			c0.178,1.235,1.411,1.692,2.586,1.548c1.45-0.204,3.084-1.945,4.29-1.94c0.513,0.002,1.623,1.244,1.681,1.696v0.15
			c-2.062,2.765-4.205,3.206-7.521,3.011C71.17,68.186,70.071,64.713,69.661,61.817 M74.635,55.538
			c-0.394,0.36-1.003,1.443-1.005,2.077l-0.001,0.121l0.272-0.059c0.029,0,0.09-0.031,0.121-0.031
			c0.814-0.116,1.658-0.203,5.19-0.97c0,0-0.001-0.03-0.03-0.12c-0.06-0.362-0.297-1.328-0.297-1.358
			c-0.266-0.905-0.899-0.878-1.744-0.762C76.297,54.551,75.21,54.908,74.635,55.538"/>
		<path clip-path="url(#SVGID_2_)" d="M84.112,66.585c0.004-1.445-0.418-14.713,1.031-14.857c0.183,0,1.748-0.054,2.834-0.078
			l0.11,2.351c1.756-1.89,3.78-2.906,6.734-2.893c0.181,0.211,0.241,0.392,0.498,3.138c-3.679,0.134-7.063,2.379-7.262,5.905
			l-0.364,7.235l-0.062,0.09c-0.029,0.029-0.904,0.085-2.954-0.015C84.348,67.34,84.109,66.917,84.112,66.585"/>
		<path clip-path="url(#SVGID_2_)" d="M95.901,66.187c0,0,0.604-13.834,1.177-13.83c0.121-0.002,0.181,0.029,3.105,0.104
			c0.271-0.001,0.3,0.271,0.299,0.422c0.001,0.06-0.032,0.271-0.03,0.303c-0.035,0.902-0.294,4.881-1.181,14.131
			c-0.032,0.393-0.093,0.512-0.456,0.572c-0.933-0.065-1.839,0.174-2.803-0.103c-0.03,0-0.09-0.062-0.09-0.093
			C95.896,67.453,95.901,66.397,95.901,66.187"/>
		<path clip-path="url(#SVGID_2_)" d="M101.725,64.766c0.013-2.894,1.441-5.329,4.43-6.37c1.179-0.417,3.197-0.527,3.981-0.524
			c0.362,0-0.223-3.741-2.182-3.75c-1.629-0.006-2.661,1.316-3.779,2.154c0,0-2.163-1.756-2.163-1.818
			c0.001-0.301,0.456-0.722,0.64-0.992c1.967-1.98,3.81-2.636,6.251-2.624c4.041,0.017,5.019,3.369,5.124,6.564l-0.001,0.272
			c0.138,3.135,0.122,6.36-0.042,9.495c-0.092,0.3-0.578,0.874-2.507,1.074h-0.12c-1.117-0.006-0.237-1.236-0.898-1.542
			c-0.455,0.329-0.606,0.69-1.149,0.989c-1.149,0.749-2.688,0.832-4.104,0.825c-2.261-0.011-3.397-1.735-3.48-3.542L101.725,64.766z
			 M110.198,64.142l0.004-0.754c0.004-1.024-0.021-2.621-0.531-2.624c-4.611-0.021-4.417,3.295-4.389,3.928
			C105.457,66.05,110.196,64.624,110.198,64.142"/>
		<path clip-path="url(#SVGID_2_)" d="M117.854,64.57c0.934,0.002,1.563,0.759,1.559,1.694c-0.004,1.054-0.585,2.439-1.88,2.434
			c-0.996-0.004-1.625-0.61-1.62-1.636C115.918,65.856,116.498,64.563,117.854,64.57 M116.978,45.421
			c0.029-0.089,0.092-0.451,0.092-0.511c0.213-0.601,2.504-0.38,3.589-0.436c0.031,0,0.211,0.062,0.241,0.092
			c0,0.06,0.029,0.333,0.029,0.391c-0.011,2.503-0.809,4.971-2.015,18.5c-0.181,0.03-0.966,0.087-1.236,0.084
			c-0.452-0.001-1.295-0.005-1.294-0.577C116.412,57.086,116.708,51.27,116.978,45.421"/>
		<path clip-path="url(#SVGID_2_)" d="M98.495,49.916c-0.345-0.494-0.349-0.711,0.005-0.995c0.122-0.086,0.559-0.464,0.814-0.57
			c1.333-1.04,5.786-4.038,7.624-5.25c0.25-0.063,0.36,0.044,0.575,0.3l0.929,1.226c0.089,0.123,0.318,0.403,0.212,0.514
			c-0.032,0.059-0.263,0.256-0.354,0.283c-1.924,1.455-4.644,2.986-8.669,6.014C99.187,50.904,98.833,50.453,98.495,49.916"/>
	</g>
</g>
<path fill="#FFFFFF" d="M9.121,21.069c-0.085-1.508-0.378-2.957-0.372-4.434c0-0.18,0.033-0.965,0.034-1.114
	c0.157-0.905,1.364-1.171,2.147-1.167c4.764,0.021,5.932,1.203,6.773,2.17c1.14,1.302,1.434,2.631,1.428,4.288
	c-0.01,1.929-0.92,3.041-2.521,3.939c-0.061,0.028-0.633,0.357-3.53,0.646l0.783,13.48l-0.005,0.813
	c-0.57-0.063-2.895,0.62-3.679,0.346C9.725,33.733,9.395,27.401,9.121,21.069 M13.217,22.083c1.688,0.009,2.265-0.892,2.271-2.431
	c0.005-1.115-1.589-1.876-2.585-1.881c-0.271-0.001-0.301,0.18-0.302,0.42c-0.006,1.207,0.197,2.685,0.255,3.771
	C12.884,22.143,13.185,22.083,13.217,22.083"/>
<path fill="#FFFFFF" d="M18.354,38.658c0.008-1.447-0.414-14.713,1.034-14.859c0.18,0.002,1.749-0.051,2.832-0.077l0.112,2.351
	c1.756-1.889,3.781-2.907,6.734-2.892c0.179,0.212,0.241,0.393,0.499,3.136c-3.681,0.135-7.065,2.38-7.263,5.908l-0.364,7.232
	l-0.063,0.091c-0.028,0.029-0.903,0.084-2.952-0.015C18.593,39.413,18.355,38.988,18.354,38.658"/>
<path fill="#FFFFFF" d="M31.566,24.367l0.091-0.119l3.617,0.016c0.18,0.001,0.119,0.273,0.119,0.302
	c-0.01,2.322-0.352,4.582-0.362,6.872c-0.012,2.292,0.677,3.53,3.209,3.543h0.122c2.502,0.011,3.019-1.372,3.029-3.936
	c0.01-1.719-0.162-3.438-0.156-5.184c0.004-0.664,2.478-1.075,2.989-1.074l0.333,0.001c0.449,0.544,0.583,4.344,0.58,5.037
	l-0.004,1.086c-0.016,2.893-0.205,4.914-2.564,6.891c-2.297,1.286-5.222,1.153-7.841,0.447c-3.522-0.98-3.815-3.092-3.798-6.5
	C31.031,29.31,31.56,25.725,31.566,24.367"/>
<path fill="#FFFFFF" d="M46.412,34.082c-0.553-4.072,0.949-9.34,6.229-10.071c5.126-0.7,6.235,1.084,6.817,5.428l0.176,1.208
	l-8.871,1.979c-0.032,0.001-0.215,0.182-0.242,0.271c-0.063,0.182-0.184,0.692,0.135,3.286c0.176,1.237,1.408,1.696,2.583,1.55
	c1.449-0.204,3.085-1.945,4.29-1.94c0.514,0.003,1.624,1.242,1.68,1.697v0.151c-2.06,2.763-4.203,3.206-7.519,3.011
	C47.922,40.451,46.82,36.979,46.412,34.082 M51.386,27.805c-0.395,0.361-1.002,1.441-1.005,2.074V30l0.271-0.059
	c0.03,0,0.091-0.029,0.121-0.031c0.814-0.115,1.66-0.203,5.188-0.969c0,0,0.002-0.032-0.029-0.121
	c-0.059-0.363-0.294-1.328-0.294-1.358c-0.269-0.906-0.901-0.879-1.747-0.761C53.049,26.817,51.963,27.174,51.386,27.805"/>
<path fill="#FFFFFF" d="M61.123,41.354l-0.029-0.482c-0.477-7.659,0.341-15.313-0.226-22.974c0.001-0.241,0.035-0.903,0.064-0.903
	l0.181-0.089l3.499-0.255l-0.061,12.872c1.184-1.411,3.115-1.945,4.895-2.058c3.227,0.015,4.602,2.284,4.587,5.599
	c-0.019,3.648-1.688,6.865-5.43,7.118c-1.658-0.006-2.712-0.132-4.125-1.012c-0.003,0.663,0.022,1.567-0.071,2.261
	c0,0.151-0.21,0.09-0.301,0.088c-0.845,0.088-1.719-0.066-2.563-0.071l-0.213,0L61.123,41.354z M68.463,31.439
	c-0.151,0-0.272,0.03-0.423,0.03c-0.813,0.055-2.955,0.318-2.965,2.215l-0.01,2.532C70.084,39.437,73.678,31.464,68.463,31.439"/>
<path fill="#FFFFFF" d="M74.919,37.017c0.014-2.895,1.442-5.33,4.43-6.37c1.179-0.417,3.198-0.528,3.983-0.526
	c0.36,0.002-0.226-3.739-2.184-3.748c-1.628-0.009-2.658,1.313-3.779,2.154c0,0-2.162-1.759-2.161-1.82
	c0.002-0.302,0.455-0.722,0.639-0.992c1.966-1.979,3.809-2.635,6.252-2.623c4.04,0.017,5.019,3.367,5.125,6.563l-0.001,0.271
	c0.134,3.136,0.12,6.362-0.044,9.497c-0.094,0.301-0.577,0.872-2.508,1.075l-0.121-0.001c-1.115-0.005-0.235-1.237-0.897-1.541
	c-0.454,0.328-0.605,0.69-1.149,0.989c-1.149,0.748-2.686,0.832-4.104,0.826c-2.261-0.011-3.397-1.735-3.48-3.543V37.017z
	 M83.393,36.392l0.005-0.754c0.004-1.025-0.021-2.623-0.533-2.624c-4.61-0.022-4.413,3.295-4.388,3.93
	C78.65,38.3,83.392,36.873,83.393,36.392"/>
<path fill="#FFFFFF" d="M100.526,14.313c0.093-0.09,0.182-0.149,4.009-0.012c0.029,0.512,0.142,2.052-0.807,12.478l4.155,0.291
	c0.451,0.032,0.574,0.333,0.571,0.634c-0.005,1.146-0.188,1.626-0.496,2.772c0,0.12-0.181,0.088-0.301,0.088l-4.129-0.139
	c-1.019,4.789-0.612,8.35,4.429,7.014c-0.003,0.723,0.142,1.87,0.138,2.745c-0.003,0.452-0.995,0.446-1.418,0.445
	c-4.04-0.02-7.896-0.88-6.556-10.46c-0.15-0.001-1.627-0.068-1.745-0.099c-0.062-0.001-0.183-0.091-0.183-0.091l0.018-3.618
	c0,0,0.119-0.06,0.181-0.058l1.538,0.066L100.526,14.313z"/>
<path fill="#FFFFFF" d="M110.881,24.729l0.089-0.12l3.619,0.017c0.18,0,0.117,0.271,0.117,0.301
	c-0.011,2.322-0.351,4.582-0.361,6.873c-0.011,2.292,0.678,3.531,3.208,3.542h0.122c2.502,0.011,3.02-1.372,3.031-3.935
	c0.008-1.719-0.164-3.439-0.157-5.186c0.003-0.665,2.477-1.075,2.989-1.072l0.334,0.001c0.448,0.544,0.582,4.343,0.579,5.037
	l-0.005,1.084c-0.014,2.895-0.204,4.915-2.563,6.893c-2.297,1.285-5.223,1.152-7.843,0.446c-3.521-0.98-3.813-3.091-3.797-6.5
	C110.345,29.672,110.872,26.087,110.881,24.729"/>
<path fill="#FFFFFF" d="M8.614,52.441c-0.029-0.092-0.026-0.333,0.184-0.331l3.016-0.228c0.031,0,0.181,0.032,0.21,0.061
	c0.032,0,0.122,0.091,0.122,0.091l0.113,1.78c0.85-1.324,3.233-2.217,4.893-2.33c0.149,0.001,0.303-0.028,0.455-0.028
	c3.345,0.016,5.353,2.918,5.607,6.387c0.026,0.242,0.026,0.452,0.025,0.663c-0.025,5.638-5.161,8.025-10.667,5.288
	c0.376,3.83,0.403,4.432,0.687,8.293c0.027,0.542,0.111,2.081,0.111,2.17l-0.091,0.121c0,0-1.42,0.145-1.989,0.202l-1.149,0.116
	l-0.12-0.09c0.003-0.031-0.174-1.599-0.344-3.65C8.613,52.742,8.613,52.621,8.614,52.441 M13.582,60.512
	c1.828,2.541,5.544,1.17,5.558-1.935c0.001-0.12-0.029-0.241-0.029-0.36c-0.143-1.721-0.286-2.926-2.217-2.934
	c-0.12-0.003-0.273,0.028-0.424,0.026C14.452,55.45,11.788,57.972,13.582,60.512"/>
<path fill="#FFFFFF" d="M25.681,51.976l0.091-0.121l3.617,0.019c0.183-0.001,0.119,0.271,0.119,0.3
	c-0.01,2.323-0.351,4.58-0.36,6.872c-0.012,2.291,0.676,3.532,3.208,3.543l0.121-0.001c2.501,0.011,3.02-1.372,3.03-3.935
	c0.01-1.719-0.165-3.438-0.157-5.185c0.003-0.663,2.479-1.075,2.99-1.072l0.333,0.001c0.449,0.544,0.584,4.343,0.58,5.037
	l-0.004,1.086c-0.014,2.894-0.205,4.914-2.564,6.891c-2.299,1.288-5.222,1.153-7.842,0.448c-3.521-0.982-3.813-3.091-3.798-6.5
	C25.146,56.917,25.675,53.333,25.681,51.976"/>
<path fill="#FFFFFF" d="M41.087,51.684c0.002-0.241,0.273-0.421,0.514-0.419l2.715,0.012c0.631,0.003,0.318,2.866,0.466,3.319
	c3.06-2.91,5.29-3.11,6.435-3.106c2.595,0.013,3.908,2.432,4.079,4.812l0.524,10.584c0,0.03-0.06,0.09-0.09,0.089l-3.227,0.107
	c-0.061-0.03-0.182-0.093-0.181-0.122l-0.538-7.87c-0.958-7.602-7.226-1.933-7.249,3.463c-0.009,1.688,0.194,3.377,0.188,5.064
	l-0.003,0.302c-0.934,0.086-1.719,0.083-2.651,0.079l-0.845-0.004l-0.18-0.211c0,0-0.028-0.182-0.028-0.271L41.087,51.684z"/>
<path fill="#FFFFFF" d="M59.282,41.759c0.09-0.091,0.182-0.15,4.01-0.012c0.027,0.513,0.14,2.05-0.811,12.476l4.157,0.291
	c0.452,0.033,0.573,0.334,0.571,0.637c-0.005,1.145-0.188,1.626-0.495,2.771c0,0.12-0.183,0.089-0.301,0.088l-4.129-0.14
	c-1.021,4.789-0.614,8.349,4.429,7.015c-0.004,0.724,0.141,1.871,0.137,2.744c-0.003,0.452-0.996,0.448-1.419,0.445
	c-4.039-0.018-7.896-0.879-6.554-10.459c-0.151-0.001-1.628-0.069-1.746-0.1c-0.062,0.001-0.183-0.091-0.183-0.091l0.019-3.618
	c0,0,0.118-0.059,0.18-0.058l1.538,0.066L59.282,41.759z"/>
<path fill="#FFFFFF" d="M68.175,61.815c-0.555-4.072,0.946-9.34,6.226-10.07c5.126-0.701,6.236,1.083,6.818,5.428l0.177,1.207
	l-8.873,1.979c-0.033,0.001-0.213,0.181-0.242,0.271c-0.062,0.18-0.185,0.692,0.133,3.287c0.179,1.235,1.411,1.694,2.588,1.548
	c1.447-0.204,3.082-1.945,4.287-1.939c0.516,0.002,1.624,1.243,1.682,1.696v0.15c-2.062,2.764-4.203,3.206-7.52,3.009
	C69.683,68.185,68.583,64.713,68.175,61.815 M73.147,55.538c-0.395,0.361-1.003,1.444-1.006,2.077v0.121l0.271-0.06
	c0.031,0,0.091-0.029,0.121-0.031c0.813-0.116,1.659-0.203,5.19-0.969c0,0,0-0.031-0.03-0.121c-0.058-0.363-0.296-1.328-0.296-1.359
	c-0.267-0.905-0.899-0.878-1.745-0.762C74.809,54.552,73.722,54.908,73.147,55.538"/>
<path fill="#FFFFFF" d="M82.624,66.585c0.006-1.445-0.417-14.712,1.031-14.858c0.183,0.002,1.748-0.053,2.834-0.077l0.112,2.351
	c1.754-1.89,3.778-2.907,6.734-2.892c0.18,0.21,0.239,0.392,0.496,3.136c-3.677,0.133-7.063,2.379-7.261,5.906l-0.365,7.234
	l-0.061,0.089c-0.031,0.03-0.904,0.085-2.954-0.013C82.86,67.341,82.622,66.917,82.624,66.585"/>
<path fill="#FFFFFF" d="M94.413,66.187c0,0,0.604-13.834,1.178-13.831c0.121-0.001,0.182,0.029,3.106,0.104
	c0.268,0.001,0.3,0.272,0.298,0.423c-0.001,0.06-0.031,0.271-0.033,0.303c-0.031,0.901-0.292,4.881-1.178,14.13
	c-0.032,0.394-0.094,0.512-0.455,0.572c-0.935-0.065-1.839,0.174-2.804-0.103c-0.029,0-0.091-0.062-0.091-0.092
	C94.407,67.453,94.413,66.397,94.413,66.187"/>
<path fill="#FFFFFF" d="M100.236,64.767c0.014-2.895,1.441-5.33,4.431-6.371c1.178-0.417,3.197-0.528,3.981-0.525
	c0.362,0.002-0.223-3.739-2.182-3.749c-1.63-0.007-2.66,1.314-3.78,2.154c0,0-2.162-1.758-2.162-1.819
	c0.002-0.301,0.455-0.723,0.639-0.992c1.969-1.98,3.81-2.636,6.252-2.624c4.041,0.017,5.019,3.369,5.124,6.564v0.272
	c0.137,3.136,0.12,6.36-0.044,9.494c-0.094,0.302-0.576,0.873-2.507,1.075l-0.12,0c-1.117-0.005-0.236-1.237-0.898-1.542
	c-0.453,0.328-0.606,0.69-1.15,0.989c-1.148,0.749-2.686,0.832-4.104,0.827c-2.26-0.012-3.396-1.736-3.48-3.543L100.236,64.767z
	 M108.711,64.141l0.005-0.753c0.004-1.025-0.021-2.621-0.533-2.625c-4.611-0.021-4.416,3.296-4.389,3.931
	C103.968,66.051,108.71,64.623,108.711,64.141"/>
<path fill="#FFFFFF" d="M116.367,64.569c0.933,0.004,1.563,0.76,1.559,1.695c-0.004,1.054-0.585,2.439-1.88,2.434
	c-0.996-0.005-1.624-0.61-1.621-1.636C114.431,65.856,115.009,64.564,116.367,64.569 M115.489,45.422
	c0.029-0.09,0.092-0.452,0.092-0.513c0.215-0.602,2.504-0.381,3.59-0.435c0.03-0.001,0.21,0.063,0.24,0.092
	c0,0.061,0.029,0.333,0.028,0.393c-0.01,2.501-0.807,4.969-2.014,18.5c-0.181,0.029-0.965,0.084-1.236,0.084
	c-0.452-0.001-1.294-0.006-1.293-0.578C114.926,57.086,115.219,51.27,115.489,45.422"/>
<path fill="#FFFFFF" d="M97.009,49.916c-0.346-0.494-0.35-0.71,0.004-0.996c0.123-0.085,0.559-0.464,0.814-0.569
	c1.333-1.041,5.786-4.038,7.624-5.249c0.251-0.064,0.36,0.042,0.575,0.299l0.93,1.225c0.087,0.124,0.318,0.404,0.212,0.515
	c-0.033,0.059-0.263,0.256-0.354,0.284c-1.924,1.452-4.643,2.983-8.668,6.014C97.698,50.904,97.346,50.452,97.009,49.916"/>
<path fill="#00779B" d="M144.675,120.409c0-3.326,10.747-6.022,24.006-6.022c13.258,0,24.007,2.695,24.005,6.022
	c0.001,3.327-10.746,6.022-24.004,6.022C155.423,126.431,144.675,123.736,144.675,120.409"/>
<path fill="#D7C924" d="M191.042,111.431c3.774-0.236,7.313-2.123,11.322-2.596c4.482-0.235,13.919-1.887,17.692,0.708
	c2.831,2.124,0.944,5.427,2.831,7.549c1.415,1.652,16.04-0.708,13.682,4.247c-0.943,1.886-16.041,1.414-18.872,1.887
	c-6.841,0.708-12.503-2.596-18.872-3.774c-2.829-0.709-6.841,0.235-9.435-0.709c-2.595-0.943-5.662-6.604-1.416-6.604"/>
<path fill="#E9D247" d="M221.79,118.171c-1.273-1.434,0-3.663-1.91-5.098c-2.548-1.751-8.918-0.636-11.943-0.477
	c-0.303,0.035-0.602,0.084-0.898,0.142c-0.045,1.836,2.396,2.398,3.816,2.78c1.43,0.383,3.596,0.737,4.271,2.272
	c0.023,0.054,0.021,0.131-0.042,0.16c-0.837,0.395-1.821,0.308-2.722,0.339c-0.936,0.032-2.211,0.147-2.121,1.389
	c0.045,0.611,0.251,1.105,0.551,1.534c2.395,0.738,4.813,1.376,7.495,1.099c1.913-0.319,12.104-0.001,12.741-1.274
	C232.62,117.693,222.747,119.285,221.79,118.171"/>
<path fill="#8D8E91" d="M136.592,102.45c0.001-6.873,2.076-12.443,4.638-12.445c2.561,0,4.636,5.572,4.635,12.443
	c0.001,6.873-2.074,12.443-4.635,12.443"/>
<path fill="#66696B" d="M141.106,115.162c3.552-0.481,4.472-6.524,4.729-9.214c0.34-3.544,0.993-15.47-4.484-16.212
	c-3.373-0.457-4.556,7.392-4.729,9.216"/>
<path fill="#66696B" d="M136.979,105.949c-0.492-3.616-0.834-14.999,4.127-15.674c5.992-0.813,6.688,23.476,0.245,24.348"/>
<path fill="#D5DADC" d="M137.464,102.45c0.001-6.873,2.076-12.443,4.637-12.444c2.561,0,4.635,5.572,4.635,12.444
	c0,6.873-2.074,12.443-4.635,12.443"/>
<path fill="#75787A" d="M141.99,115.17c3.995-0.541,4.58-7.408,4.861-10.342c0.335-3.501,0.478-14.404-4.642-15.099
	c-3.79-0.514-4.672,8.37-4.861,10.342"/>
<path fill="#75787A" d="M137.877,105.963c-0.451-3.31-0.876-15.002,4.114-15.68c5.82-0.789,6.835,23.438,0.219,24.332"/>
<path fill="#442180" d="M143.159,119.191h44.19c0.786-1.415,6.604-3.303,6.604-3.303"/>
<path fill="#442180" d="M193.954,115.888l0.001-25.478c0,0-5.819-1.885-6.605-3.302l-44.19,0c0,0-2.359,2.28-2.988,5.111
	c-0.631,2.83-0.944,10.93-0.944,10.93"/>
<path fill="#52398A" d="M185.353,91.771c0.074-0.775,0.187-1.543,0.516-2.257c0.253-0.55,0.584-1.052,0.938-1.54l-42.704-0.001
	c0,0-2.359,2.282-2.988,5.112c-0.096,0.43-0.185,0.984-0.265,1.611l44.406,0C185.247,93.72,185.261,92.743,185.353,91.771"/>
<path fill="#2F2162" d="M145.688,115.762c6.645,0,13.289-0.001,19.932-0.001c6.475,0,12.949,0.001,19.424,0.001
	c0.423,0,1.974,0.273,2.293-0.098c1.386-1.608,3.926-2.3,5.879-2.999c1.1-0.392,0.571,2.626,0.571,3.43
	c-0.001,0.161,0.337-0.281,0.338-0.416"/>
<path fill="#2F2162" d="M143.058,119.458c5.24,0,10.479-0.001,15.719-0.001c7.597,0,15.194,0,22.793,0c1.846,0,3.69,0,5.536,0
	c0.422,0,1.121-0.89,1.138-0.903c1.562-1.148,3.751-1.792,5.583-2.399c0.159-0.052,0.312-0.552,0.257-0.533
	c-1.921,0.637-4.958,1.355-6.343,2.963c-0.691,0.803-3.021,0.34-4.009,0.341c-6.938-0.001-13.878-0.001-20.816-0.001
	c-6.096,0-12.189,0.001-18.283,0"/>
<path fill="#2F2162" d="M194.125,115.68v-3.696c-0.001-0.023-0.001-0.073-0.042-0.059c-3.46,1.147-5.745,3.302-9.264,3.303
	c-6.314,0-12.628-0.001-18.942-0.001c-6.28,0-12.563,0.001-18.846,0.001"/>
<path fill="#979898" d="M194.613,116.439c-0.439,0-0.796-5.949-0.796-13.289s0.355-13.288,0.796-13.288
	c0.439,0,0.796,5.949,0.798,13.288C195.409,110.491,195.053,116.439,194.613,116.439"/>
<rect x="192.383" y="89.861" fill="#D5DADC" width="2.24" height="26.577"/>
<path fill="#9C9EA1" d="M194.442,90.061c0,4.837,0,9.673,0,14.509c0,3.066,0,6.133-0.001,9.202c0.002,0.787,0.001,1.576,0.002,2.364
	c-0.001,0.157-0.001,0.314-0.001,0.47c0-0.788-0.95-0.438-1.705-0.438c-0.359-0.001-0.175-13.243-0.174-14.438
	c0-3.066-0.002-6.133,0-9.201c-0.002-0.86-0.001-1.72,0-2.583c-0.002,0.065,0.883,0.185,1.938,0.185
	c0.168-0.001,0.402-0.541,0.244-0.541c-0.748,0.001-1.494,0-2.242,0.001c-0.163,0-0.301,0.342-0.302,0.472
	c-0.001,8.858,0.001,17.717,0.001,26.576c0,0.041,0.018,0.069,0.06,0.07c0.745,0.001,1.492,0.001,2.239,0
	c0.164,0.001,0.303-0.342,0.303-0.471c0-8.859,0-17.719,0-26.578C194.804,89.461,194.441,89.91,194.442,90.061"/>
<path fill="#52398A" d="M187.153,88.21c0,0-0.785,17.613,0,22.882C187.153,111.092,184.244,90.883,187.153,88.21"/>
<path fill="#B9BDC1" d="M200.757,108.026l-6.144-0.315l0.01,4.955l6.134,1.807C200.757,114.472,202.407,111.171,200.757,108.026
	 M196.688,111.799v-2.477l3.242,0.001c0.473,1.119,0.001,3.537,0.001,3.537L196.688,111.799z"/>
<path fill="#9C9EA1" d="M200.857,107.744c-2.048-0.104-4.095-0.21-6.144-0.314c-0.202-0.011-0.334,0.22-0.333,0.397
	c0.003,1.652,0.007,3.303,0.01,4.954c0.001,0.087,0.053,0.144,0.132,0.167c2.044,0.604,4.089,1.206,6.134,1.809
	c0.102,0.029,0.237-0.101,0.276-0.182c1.021-2.107,1.047-4.618,0.045-6.726c-0.144-0.302-0.551,0.125-0.442,0.355
	c0.621,1.303,0.847,2.66,0.64,4.095c-0.063,0.429-0.182,1.765-0.589,2.061c0.477-0.347-0.643-0.438-1.024-0.55
	c-0.816-0.241-1.631-0.481-2.446-0.721c-0.643-0.19-1.427-0.302-2.027-0.598c-0.393-0.194-0.294,0.098-0.233-0.65
	c0.111-1.395-0.006-2.844-0.008-4.245c-0.111,0.132-0.223,0.266-0.334,0.399c2.048,0.105,4.096,0.21,6.143,0.315
	C200.915,108.322,201.146,107.758,200.857,107.744"/>
<path fill="#9C9EA1" d="M196.921,111.684c0-0.826,0-1.651,0-2.477c-0.11,0.133-0.222,0.266-0.332,0.398c0.416,0,0.832,0,1.249,0.001
	c0.499-0.001,1.252-0.145,1.73,0c0.315,0.095,0.123-0.125,0.244,0.242c0.132,0.405,0.106,0.9,0.09,1.32
	c-0.021,0.581-0.091,1.167-0.2,1.739c0.109-0.11,0.221-0.22,0.331-0.33c-1.083-0.353-2.163-0.706-3.244-1.061
	c-0.24-0.08-0.491,0.471-0.201,0.564c1.081,0.354,2.161,0.708,3.243,1.062c0.165,0.055,0.307-0.213,0.33-0.328
	c0.22-1.161,0.4-2.536-0.011-3.669c-0.017-0.046-0.064-0.104-0.119-0.105c-1.081,0-2.161,0-3.241-0.001
	c-0.204,0-0.334,0.213-0.333,0.398c0,0.826-0.001,1.651-0.001,2.477C196.456,112.282,196.921,111.94,196.921,111.684"/>
<path fill="#8D8E91" d="M199.927,109.324l-0.001-0.002c0.303,1.201-0.096,3.244-0.096,3.244l-3.146-1.029l0.001,0.263l3.241,1.063
	C199.927,112.862,200.4,110.443,199.927,109.324"/>
<path fill="#DA9BA5" d="M158.992,106.865c-2.358,0-6.723,3.066-4.364,5.663c1.889,2.004,4.838-0.709,6.605-1.416"/>
<path fill="#2D215E" d="M159.112,106.593c-2.109,0.078-5.448,2.045-5.348,4.5c0.061,1.485,1.264,2.513,2.724,2.414
	c1.71-0.116,3.149-1.48,4.667-2.134c0.151-0.066,0.368-0.612,0.157-0.521c-1.86,0.802-4.266,3.138-6.308,1.622
	c-2.96-2.191,1.72-5.257,3.869-5.336C159.055,107.129,159.286,106.586,159.112,106.593"/>
<path fill="#2D215E" d="M159.979,108.414c-0.787,0.742-1.814,1.141-2.772,1.614c-0.23,0.113-0.301,0.681,0.032,0.517
	c0.998-0.492,2.067-0.915,2.89-1.689C160.331,108.665,160.271,108.14,159.979,108.414"/>
<path fill="#2D215E" d="M158.958,91.916c1.933,1.054,2.191,3.524,2.34,5.502c0.21,2.753-1.732,4.424-2.553,6.761
	c-0.397,1.13-0.346,1.958,0.052,3.054c0.118,0.325,1.892,2.647,1.695,2.369c1.063,1.489,0.721,3.552,0.567,5.252
	c-0.016,0.169,0.336-0.265,0.35-0.407c0.217-2.399,0.287-4.121-1.158-6.144c-2.285-3.193-0.073-5.828,1.156-8.85
	c0.952-2.337,0.122-6.833-2.143-8.069C159.137,91.315,158.836,91.848,158.958,91.916"/>
<path fill="#2D215E" d="M175.121,95.27c-0.532,2.212-3.704,3.563-5.403,4.803c-0.166,0.121-0.293,0.697-0.013,0.493
	c1.952-1.425,5.198-2.836,5.819-5.419C175.619,94.757,175.177,95.038,175.121,95.27"/>
<path fill="#2D215E" d="M175.577,99.353c-1.646-1.338-3.762-2.125-5.112-3.808c-0.047-0.058-0.418,0.392-0.308,0.531
	c1.353,1.682,3.467,2.47,5.112,3.807C175.356,99.953,175.698,99.452,175.577,99.353"/>
<path fill="#2D215E" d="M176.624,103.157c-0.801,3.331-5.539,5.379-8.09,7.242c-0.232,0.169-0.178,0.679,0.146,0.442
	c2.804-2.047,7.508-4.068,8.4-7.778C177.173,102.675,176.688,102.888,176.624,103.157"/>
<path fill="#2D215E" d="M177.153,109.324c-2.4-1.952-5.496-3.102-7.467-5.555c-0.196-0.246-0.566,0.235-0.395,0.452
	c1.998,2.489,5.123,3.653,7.555,5.632C177.065,110.031,177.381,109.509,177.153,109.324"/>
<path fill="#D7C924" d="M236.458,114.39c0.078-0.866,1.337-1.416,1.965-0.866c0.393,0.315,0.156,0.945,0.394,1.258
	c0.473,0.63,0.865,0.55,1.651,0.944c2.908,1.336-1.416,2.203-2.438,0.787c-1.729,1.179-2.122-0.709-1.649-1.966"/>
<path fill="#E9D247" d="M236.688,114.519c0.047-0.524,0.813-0.86,1.195-0.525c0.238,0.191,0.097,0.574,0.24,0.765
	c0.285,0.383,0.525,0.334,1.002,0.575c1.769,0.812-0.86,1.337-1.48,0.477c-1.051,0.717-1.291-0.43-1.006-1.194"/>
<path fill="#D7C924" d="M228.706,113.475c0.235-1.335,1.574-0.785,2.202-0.313c0.472,0.393,0.628,0.866,1.179,1.1
	c0.473,0.158,1.337-0.157,1.73,0.079c2.279,1.416-1.416,1.966-2.359,2.123c-1.101,0.158-4.402,0.55-5.347-0.394
	c-1.101-1.022-0.156-0.944,0.629-1.179C227.762,114.578,227.998,114.263,228.706,113.475"/>
<path fill="#E9D247" d="M229.692,113.978c0.161-0.914,1.073-0.537,1.504-0.215c0.321,0.27,0.43,0.591,0.804,0.752
	c0.321,0.107,0.912-0.107,1.182,0.052c1.556,0.968-0.966,1.343-1.61,1.451c-0.752,0.108-3.006,0.376-3.65-0.268
	c-0.751-0.698-0.106-0.645,0.431-0.806C229.049,114.729,229.209,114.515,229.692,113.978"/>
<path fill="#00779B" d="M188.524,70.989c0.002-3.129,9.184-5.664,20.514-5.665c11.327,0,20.512,2.536,20.511,5.664
	c-0.001,3.129-9.184,5.666-20.513,5.666C197.708,76.653,188.524,74.118,188.524,70.989"/>
<path fill="#8D8E91" d="M221.626,70.296c0,2.589-5.634,4.688-12.583,4.688c-6.946-0.002-12.579-2.099-12.581-4.687
	c0.001-2.591,5.635-4.689,12.582-4.688C215.993,65.61,221.626,67.707,221.626,70.296"/>
<path fill="#66696B" d="M221.412,70.33c-0.614,4.532-10.479,4.438-13.569,4.378c-3.473-0.063-8.085-0.615-10.641-3.216
	c-2.885-2.938,4.834-4.846,5.814-5.067c2.354-0.531,4.83-0.587,7.229-0.541c2.932,0.056,10.635,0.585,11.166,4.509
	c0.044,0.332,0.463,0.057,0.428-0.191c-0.617-4.57-9.581-4.901-12.764-4.842c-3.256,0.062-12.184,0.234-12.826,4.971
	c-0.603,4.44,10.588,4.945,12.765,4.902c3.253-0.061,12.185-0.234,12.826-4.97C221.886,69.915,221.447,70.064,221.412,70.33"/>
<path fill="#D5DADC" d="M221.625,69.416c0.001,2.588-5.632,4.688-12.582,4.687c-6.948,0-12.58-2.098-12.581-4.687
	c0.001-2.59,5.634-4.689,12.582-4.687C215.992,64.728,221.626,66.826,221.625,69.416"/>
<path fill="#75787A" d="M221.427,69.458c-0.611,4.522-10.682,4.427-13.58,4.372c-3.491-0.066-8.076-0.604-10.648-3.224
	c-2.847-2.896,4.79-4.838,5.808-5.068c2.36-0.535,4.829-0.585,7.234-0.539c2.923,0.054,10.649,0.571,11.185,4.52
	c0.044,0.322,0.432,0.015,0.402-0.207c-0.672-4.966-10.639-4.871-13.979-4.808c-3.094,0.058-10.995,0.623-11.583,4.954
	c-0.652,4.808,11.719,4.91,13.977,4.867c3.091-0.058,10.996-0.622,11.582-4.953C221.87,69.023,221.46,69.215,221.427,69.458"/>
<path fill="#116235" d="M222.632,16.986l-25.76,0c0,0-1.906,5.882-3.34,6.678v44.681c0,0,2.307,2.386,5.168,3.021
	c2.862,0.636,11.053,0.953,11.053,0.953s8.188-0.317,11.051-0.954s5.168-3.021,5.168-3.021V23.664
	C224.54,22.869,222.632,16.986,222.632,16.986"/>
<path fill="#116235" d="M222.726,16.74c-8.586,0.001-17.174,0.001-25.76,0.001c-0.121,0-0.227,0.125-0.26,0.23
	c-0.548,1.65-1.19,3.258-1.956,4.821c0.916-1.872-1.409,1.529-1.408,1.98c-0.001,1.425,0,2.85,0,4.274
	c-0.001,7.331,0,14.66,0.001,21.991c-0.001,5.909-0.002,11.818,0,17.728c0,4.96,12.154,4.599,15.174,4.749
	c5.72,0.287,13.175,0.241,17.504-3.983c1.213-1.183,0.144-8.07,0.143-9.617c0-7.826,0-15.654,0-23.481
	c0-2.917-0.001-5.832-0.001-8.748c0.001-0.644,0.369-2.656-0.024-3.223c-1.461-2.1-2.507-4.185-3.322-6.637
	c-0.085-0.259-0.43,0.136-0.367,0.321c0.447,1.355,0.973,2.678,1.544,3.985c0.194,0.442,1.788,2.355,1.787,2.671
	c0.001,1.623,0.001,3.249,0.001,4.872c0,7.444,0,14.888,0,22.332c0.001,5.666,0,11.334,0,17.002c0,4.775-15.799,4.105-19.84,3.864
	c-2.139-0.129-4.275-0.305-6.396-0.611c-0.858-0.122-5.82-1.711-5.82-3.139c0.002-1.816,0.001-3.634,0.002-5.45
	c0-7.543,0-15.086,0-22.63c0-5.411-0.002-10.822-0.002-16.233c0.002-0.938,2.412-4.314,2.866-5.519
	c0.679-1.802,2.831-1.061,5.182-1.061c6.921,0.001,13.844,0.001,20.768,0C222.744,17.231,222.952,16.74,222.726,16.74"/>
<path fill="#166D3A" d="M198.247,25.684c-0.782-0.075-1.561-0.187-2.281-0.52c-0.558-0.258-1.063-0.591-1.558-0.949l0.002,43.175
	c0,0,2.303,2.387,5.165,3.023c0.437,0.095,0.997,0.184,1.63,0.268l0.001-44.901C200.219,25.791,199.23,25.776,198.247,25.684"/>
<path fill="#074E29" d="M222.726,16.741c-1.246,0-2.491,0-3.736,0c-0.166,0-0.329,0.251-0.278,0.407
	c0.618,1.866,1.388,5.024,2.947,6.369c0.77,0.663,0.385,2.398,0.386,3.386c0,6.076,0,12.15-0.001,18.227
	c0.001,6.351,0.001,12.7,0.001,19.051c0,1.387,0,2.773,0,4.16c0,3.438-11.618,3.513-14.065,3.647
	c-0.188,0.011-0.428,0.479-0.188,0.491c4.142,0.2,16.414,0.931,18.346-4.119c0.329-0.858,0.025-2.36,0.026-3.254
	c0-3.516-0.002-7.03-0.001-10.547c0-8.249-0.001-16.498,0.001-24.748c-0.001-2,0-4.002-0.001-6.003
	c-0.001-0.719-0.237-0.416-0.923-1.347c-1.167-1.586-1.805-3.768-2.424-5.636c-0.085-0.259-0.428,0.137-0.367,0.322
	c0.449,1.356,0.973,2.677,1.545,3.985c0.193,0.443,1.788,2.356,1.787,2.672c0.001,1.624,0,3.248,0.002,4.872
	c-0.002,7.444-0.002,14.888,0,22.332c0,5.666-0.001,11.334-0.001,17.002c0,3.229-8.54,3.613-10.923,3.79
	c-1.623,0.121-3.248,0.2-4.874,0.27c-0.384,0.018-0.794,0.333-0.975,0.343c1.911-0.105,3.816-0.263,5.722-0.458
	c4.049-0.415,7.694-1.728,7.694-5.859c-0.002-6.732-0.001-13.465-0.001-20.2c0-6.732-0.001-13.465,0-20.199
	c0-0.354,0.258-1.994-0.056-2.264c-1.686-1.453-2.354-3.958-3.08-5.989c-0.23-0.646,2.024-0.211,3.249-0.212
	C222.743,17.23,222.949,16.741,222.726,16.741"/>
<path fill="#979898" d="M223.188,16.321c0.002,0.442-6.015,0.805-13.437,0.805c-7.419,0-13.434-0.361-13.435-0.805
	c0-0.445,6.016-0.804,13.435-0.804C217.172,15.515,223.188,15.875,223.188,16.321"/>
<rect x="196.316" y="16.311" fill="#D5DADC" width="26.872" height="2.266"/>
<path fill="#9C9EA1" d="M196.229,16.559l14.668,0.001c3.101-0.001,6.203-0.002,9.303,0c2.463-0.001,2.778-0.627,2.779,1.879
	c0-0.195-0.018-0.111-0.816-0.111c-1.186-0.001-2.372,0-3.56,0c-3.331-0.002-6.665,0-9.997-0.001c-3.1,0-6.201,0-9.303-0.001
	c-2.632,0.001-2.777,0.578-2.779-2.115c0.001-0.327-0.418-0.036-0.418,0.197c0,0.755,0,1.512,0.001,2.267
	c-0.001,0.063,0.052,0.149,0.123,0.15c8.957,0,17.913,0.002,26.87,0.001c0.185-0.001,0.297-0.179,0.297-0.349
	c0.001-0.756,0-1.511,0-2.266c0-0.062-0.051-0.151-0.122-0.151c-8.957,0-17.915,0-26.872,0.001
	C196.165,16.06,195.97,16.559,196.229,16.559"/>
<path fill="#166D3A" d="M194.647,23.863c0,0,17.808,0.796,23.133,0.001C217.78,23.864,197.35,26.805,194.647,23.863"/>
<path fill="#B9BDC1" d="M214.681,10.11l-0.315,6.21l5.008-0.011l1.828-6.2C221.201,10.109,217.861,8.439,214.681,10.11
	 M218.498,14.223l-2.504-0.001v-3.278c1.133-0.478,3.576,0.001,3.576,0.001L218.498,14.223z"/>
<path fill="#9C9EA1" d="M214.525,10.287c-0.105,2.07-0.212,4.14-0.317,6.21c-0.001,0.034,0.014,0.059,0.048,0.058
	c1.67-0.002,3.34-0.006,5.009-0.01c0.107,0,0.223-0.237,0.244-0.314c0.609-2.066,1.219-4.133,1.828-6.201
	c0.01-0.03,0.047-0.131-0.001-0.154c-2.063-0.998-4.529-0.964-6.579,0.01c-0.115,0.055-0.309,0.522-0.152,0.448
	c1.703-0.81,3.532-0.92,5.34-0.402c0.207,0.059,0.893,0.176,1.035,0.369c0.059,0.079,0.002-0.091-0.051,0.351
	c-0.136,1.144-0.703,2.381-1.028,3.487c-0.144,0.489-0.288,0.979-0.433,1.466c-0.051,0.178-0.084,0.404-0.168,0.571
	c-0.202,0.398,0.165-0.107,0.148-0.102c-0.796,0.245-4.717,0.213-4.916-0.16c-0.326-0.609,0.129-2.539,0.164-3.234
	c0.047-0.916,0.094-1.832,0.141-2.747C214.845,9.775,214.531,10.155,214.525,10.287"/>
<path fill="#9C9EA1" d="M218.606,13.986c-0.479,0-0.959,0.001-1.438,0c-0.251,0.001-0.672,0.079-0.913,0.001
	c-0.227-0.074-0.018,0.135-0.105-0.105c-0.164-0.458,0-1.276,0-1.758c0-0.453-0.001-0.905,0-1.357
	c-0.088,0.139-0.177,0.276-0.264,0.415c0.771-0.278,1.627-0.237,2.434-0.16c0.306,0.029,0.765,0.016,1.048,0.143
	c0.04,0.018,0.108-0.251-0.013,0.103c-0.344,1.006-0.662,2.022-0.991,3.033c-0.107,0.326,0.226-0.017,0.271-0.156
	c0.358-1.093,0.715-2.186,1.072-3.278c0.006-0.019,0.048-0.145-0.001-0.154c-1.144-0.218-2.487-0.407-3.603-0.003
	c-0.14,0.05-0.265,0.269-0.264,0.415c-0.001,1.093,0,2.186,0,3.279c0,0.033,0.011,0.058,0.047,0.058c0.835,0.001,1.67,0,2.504,0
	C218.53,14.459,218.733,13.986,218.606,13.986"/>
<path fill="#8D8E91" d="M215.993,10.947v0.002c1.213-0.306,3.28,0.096,3.28,0.096l-1.041,3.181l0.265,0.001l1.073-3.28
	C219.57,10.947,217.127,10.469,215.993,10.947"/>
<path fill="#FFFFFF" d="M208.704,37.955c0.001,3.699-2.999,6.698-6.698,6.698c-3.7,0-6.698-2.999-6.698-6.698
	c0-3.699,3-6.698,6.697-6.698C205.704,31.257,208.703,34.256,208.704,37.955"/>
<path fill="#074E29" d="M208.556,38.138c-0.186,4.62-4.412,7.132-8.533,5.94c-2.771-0.8-4.456-3.544-4.567-6.304
	c-0.19-4.696,4.632-7.071,8.533-5.943C206.759,32.631,208.444,35.375,208.556,38.138c0.006,0.144,0.301-0.249,0.296-0.365
	c-0.179-4.408-4.001-7.444-8.343-6.555c-3.201,0.654-5.225,3.834-5.35,6.919c-0.181,4.452,4.267,7.389,8.344,6.554
	c3.201-0.655,5.224-3.833,5.349-6.919C208.856,37.636,208.562,38.019,208.556,38.138"/>
<path fill="#074E29" d="M206.386,39.052c-0.002,1.431-1.16,2.589-2.59,2.59c-1.432,0-2.59-1.158-2.59-2.59
	c0-1.429,1.159-2.588,2.59-2.59C205.226,36.464,206.385,37.624,206.386,39.052"/>
<path fill="#FFFFFF" d="M223.259,38.194c0.001,3.698-2.999,6.697-6.698,6.698c-3.699-0.001-6.698-3-6.698-6.699
	c0-3.699,2.999-6.7,6.697-6.698C220.259,31.496,223.258,34.495,223.259,38.194"/>
<path fill="#074E29" d="M223.107,38.375c-0.186,4.595-4.396,7.138-8.529,5.942c-2.772-0.802-4.454-3.541-4.565-6.304
	c-0.189-4.664,4.619-7.077,8.531-5.944C221.316,32.871,222.996,35.612,223.107,38.375c0.007,0.154,0.308-0.241,0.303-0.362
	c-0.179-4.412-4.007-7.446-8.349-6.557c-3.206,0.654-5.225,3.829-5.351,6.918c-0.18,4.458,4.272,7.391,8.348,6.559
	c3.206-0.655,5.226-3.829,5.352-6.92C223.415,37.867,223.113,38.251,223.107,38.375"/>
<path fill="#074E29" d="M216.75,40.723c0,1.712-1.39,3.101-3.103,3.102c-1.711-0.001-3.101-1.389-3.1-3.101
	c-0.001-1.713,1.389-3.103,3.1-3.101C215.362,37.622,216.751,39.01,216.75,40.723"/>
<path fill="#115F33" d="M221.414,45.129c0,0-4.412-3.994-11.075,0.238"/>
<path fill="#074E29" d="M221.548,44.897c-3.167-2.813-7.967-1.734-11.208,0.254c-0.161,0.098-0.27,0.599-0.003,0.437
	c3.173-1.948,7.848-2.974,10.942-0.225C221.423,45.49,221.712,45.042,221.548,44.897"/>
<path fill="#074E29" d="M199.042,51.018c-0.764,3.153,3.115,2.204,5.063,2.202c2.833-0.001,5.667,0.031,8.499,0.077
	c0.222,0.003,0.424-0.49,0.18-0.494c-2.067-0.033-4.137-0.055-6.205-0.07c-1.295-0.008-7.807,0.933-7.145-1.802
	C199.518,50.588,199.097,50.789,199.042,51.018"/>
<path fill="#074E29" d="M219.567,51.128c0.495,2.041-2.009,1.612-3.022,1.601c-1.471-0.015-2.94-0.004-4.409,0.005
	c-1.912,0.013-3.825,0.035-5.737,0.065c-0.239,0.004-0.434,0.502-0.173,0.499c3.117-0.049,6.235-0.084,9.353-0.074
	c2.007,0.005,5.136,0.7,4.386-2.403C219.896,50.537,219.515,50.903,219.567,51.128"/>
<path fill="#00779B" d="M128.552,78.575c0-3.407,10.006-6.171,22.348-6.17c12.342-0.001,22.346,2.763,22.348,6.171
	c0,3.407-10.006,6.171-22.348,6.171C138.558,84.747,128.552,81.984,128.552,78.575"/>
<path fill="#8D8E91" d="M164.152,77.99c-0.001,2.822-6.138,5.107-13.707,5.107c-7.571,0-13.708-2.285-13.707-5.107
	c-0.003-2.819,6.135-5.105,13.706-5.106C158.015,72.884,164.15,75.17,164.152,77.99"/>
<path fill="#66696B" d="M163.972,78.202c-0.64,4.706-11.637,4.717-14.799,4.592c-2.574-0.102-13.797-1.105-11.532-5.753
	c2.05-4.206,10.809-4.045,14.757-3.813c2.999,0.175,11.004,0.796,11.579,5.014c0.01,0.067,0.377-0.32,0.353-0.501
	c-0.366-2.685-3.848-3.687-6.063-4.257c-4.186-1.079-8.775-1.146-13.028-0.475c-2.361,0.373-8.806,1.566-8.678,5.213
	c0.208,5.912,14.354,5.328,17.832,4.925c3.17-0.368,9.384-1.264,9.941-5.367C164.354,77.618,163.993,78.052,163.972,78.202"/>
<path fill="#D5DADC" d="M164.151,77.031c0.001,2.821-6.137,5.107-13.705,5.106c-7.572,0.001-13.709-2.287-13.709-5.106
	s6.137-5.106,13.708-5.106C158.015,71.924,164.151,74.21,164.151,77.031"/>
<path fill="#75787A" d="M163.928,77.085c-0.658,4.854-11.566,4.854-14.775,4.735c-2.099-0.077-4.226-0.32-6.264-0.846
	c-2.378-0.611-5.436-1.407-5.175-4.188c0.442-4.71,10.582-4.675,14.024-4.547c3.177,0.117,11.599,0.6,12.183,4.916
	c0.051,0.374,0.495-0.004,0.461-0.251c-0.779-5.748-12.77-5.46-16.592-5.167c-2.752,0.209-11.239,1.032-11.28,5.382
	c-0.051,5.327,12.222,5.395,15.229,5.28c3.453-0.131,11.989-0.645,12.637-5.424C164.432,76.565,163.965,76.811,163.928,77.085"/>
<path fill="#B32224" d="M165.247,19.912h-28.063c0,0-2.079,6.409-3.638,7.274v48.678c0,0,2.512,2.599,5.631,3.293
	c3.117,0.692,12.038,1.04,12.038,1.04s8.923-0.348,12.041-1.039c3.119-0.695,5.63-3.293,5.63-3.293V27.187
	C167.327,26.32,165.247,19.912,165.247,19.912"/>
<path fill="#C3373A" d="M138.681,29.386c-0.853-0.082-1.698-0.205-2.485-0.567c-0.607-0.279-1.157-0.645-1.696-1.033l-0.001,47.04
	c0,0,2.514,2.598,5.632,3.291c0.473,0.107,1.083,0.204,1.774,0.293V29.493C140.828,29.503,139.752,29.488,138.681,29.386"/>
<path fill="#7A1F1D" d="M165.359,19.624c-1.356-0.001-2.713-0.001-4.07-0.001c-0.188,0-0.384,0.304-0.325,0.479
	c0.83,2.51,2.297,4.626,3.256,6.994c0.43,1.061,0.374,2.283,0.375,3.647c0,6.642,0,13.285,0,19.928v20.757
	c-0.001,1.164,0.422,3.285-0.001,4.399c-1.551,4.092-11.479,3.777-15.301,3.984c-0.213,0.012-0.496,0.562-0.224,0.576
	c4.697,0.229,17.785,1.037,20.027-4.586c0.469-1.176,0.008-3.416,0.009-4.637c-0.001-3.688-0.001-7.378,0-11.066
	c0-8.839,0-17.678,0.001-26.518c0-1.885,0.504-4.47-0.001-6.292c-0.668-2.414-2.776-4.946-3.645-7.57
	c-0.097-0.293-0.496,0.174-0.428,0.385c1.107,3.345,3.633,6.048,3.633,9.42c0,5.262,0,10.525,0,15.787l-0.001,20.336
	c0,2.567,1.051,7.894,0,10.322c-1.441,3.335-9.094,3.453-12.486,3.68c-1.434,0.095-2.922,0.066-4.348,0.239
	c-0.193,0.023-0.589-0.035-0.784,0.009c-2.388,0.536,1.454,0.286,1.854,0.257c3.495-0.259,10.612-0.474,12.134-4.525
	c1.063-2.833-0.001-8.093,0-11.079c0-6.659-0.001-13.319,0-19.979c0-3.425-0.001-6.851-0.002-10.275
	c0.002-1.958,0.434-4.421,0.002-6.332c-0.334-1.47-0.982-2.064-1.809-3.587c-0.457-0.842-1.615-4.488-1.936-4.178
	c0.453-0.438,3.156,0,3.846,0C165.367,20.199,165.612,19.624,165.359,19.624"/>
<path fill="#979898" d="M165.854,19.184c-0.001,0.486-6.555,0.879-14.639,0.879c-8.084-0.001-14.638-0.394-14.638-0.878
	c-0.001-0.485,6.554-0.876,14.638-0.877C159.3,18.309,165.854,18.7,165.854,19.184"/>
<rect x="136.577" y="19.174" fill="#D5DADC" width="29.277" height="2.468"/>
<path fill="#9C9EA1" d="M136.471,19.465c5.327,0,10.654-0.001,15.98,0c3.378,0,6.758,0,10.136,0c0.457,0,2.438-0.317,2.844,0
	c0.215,0.166,0.354,1.952,0.341,1.965c-0.14,0.159-4.505-0.079-5.257-0.078l-10.98,0c-3.323,0-6.646-0.001-9.971,0
	c-2.754,0-2.752,0.563-2.752-2.302c0-0.375-0.468-0.005-0.469,0.247c0,0.823,0,1.646,0,2.469c0,0.069,0.044,0.167,0.128,0.167
	c9.758,0.001,19.518,0.001,29.276,0c0.203,0.001,0.34-0.229,0.34-0.413c0-0.823,0.001-1.646,0-2.469
	c0.002-0.071-0.043-0.168-0.127-0.168c-9.759,0.001-19.517,0-29.276,0C136.427,18.884,136.188,19.465,136.471,19.465"/>
<path fill="#C3373A" d="M134.759,27.403c0,0,19.402,0.865,25.206,0C159.965,27.403,137.704,30.607,134.759,27.403"/>
<path fill="#B9BDC1" d="M156.586,12.417l-0.346,6.768l5.456-0.01l1.992-6.757C163.688,12.418,160.052,10.599,156.586,12.417
	 M160.744,16.9l-2.729,0.001v-3.573c1.234-0.521,3.898,0,3.898,0L160.744,16.9z"/>
<path fill="#9C9EA1" d="M156.343,12.461c-0.115,2.256-0.23,4.512-0.346,6.767c-0.005,0.087,0.018,0.25,0.141,0.25
	c1.819-0.003,3.639-0.006,5.457-0.01c0.15,0,0.284-0.115,0.326-0.26c0.664-2.252,1.328-4.505,1.992-6.757
	c0.027-0.092,0.043-0.253-0.066-0.307c-2.285-1.107-5.01-1.078-7.283,0.003c-0.253,0.121-0.305,0.708,0.045,0.542
	c1.783-0.848,3.704-0.979,5.604-0.468c0.34,0.091,1.028,0.197,1.292,0.459c-0.233-0.232-0.023-0.177-0.222,0.313
	c-0.472,1.174-0.731,2.484-1.091,3.697c-0.174,0.591-0.447,1.23-0.541,1.841c-0.097,0.625-0.319,0.433,0.06,0.349
	c-1.023,0.228-2.366,0.004-3.408,0.006c-0.537,0.001-1.123,0.066-1.657,0.002c-0.443-0.051-0.077,0.448-0.144-0.089
	c-0.249-2.031,0.224-4.375,0.328-6.426C156.851,11.961,156.358,12.152,156.343,12.461"/>
<path fill="#9C9EA1" d="M160.847,16.607c-0.523,0-1.046,0-1.568,0c-0.326,0-0.67-0.03-0.994,0c-0.197,0.019-0.064,0.251-0.022-0.002
	c0.181-1.067,0-2.308-0.001-3.394c-0.074,0.13-0.148,0.259-0.224,0.388c1.157-0.417,2.588-0.203,3.774,0.021
	c-0.041-0.108-0.082-0.218-0.123-0.326c-0.39,1.191-0.78,2.382-1.17,3.573c-0.129,0.396,0.342,0.396,0.451,0.066
	c0.39-1.192,0.779-2.382,1.169-3.574c0.039-0.12,0.03-0.297-0.122-0.325c-1.283-0.245-2.771-0.429-4.024,0.022
	c-0.147,0.053-0.224,0.245-0.223,0.388c-0.001,1.191-0.001,2.382,0,3.573c0.001,0.072,0.06,0.176,0.144,0.176
	c0.91,0,1.818,0,2.729,0.001C160.92,17.194,161.151,16.606,160.847,16.607"/>
<path fill="#8D8E91" d="M158.015,13.332v0.002c1.322-0.333,3.573,0.105,3.573,0.105l-1.134,3.464l0.289,0.001l1.17-3.574
	C161.913,13.331,159.25,12.811,158.015,13.332"/>
<path fill="#FFFFFF" d="M151.751,51.173c0.002,3.424-2.774,6.199-6.199,6.2c-3.425-0.001-6.199-2.776-6.199-6.199
	c0-3.426,2.776-6.201,6.199-6.201S151.753,47.75,151.751,51.173"/>
<path fill="#74211D" d="M151.569,51.384c-0.322,8.033-12.043,6.951-12.035-0.422c0.004-4.012,4.158-6.634,7.817-5.398
	C149.897,46.422,151.464,48.743,151.569,51.384c0.009,0.188,0.369-0.269,0.363-0.421c-0.16-3.979-3.729-7.061-7.741-6.088
	c-2.897,0.703-5.032,3.545-5.021,6.509c0.016,3.99,3.84,7.049,7.742,6.086c2.997-0.739,4.899-3.519,5.02-6.507
	C151.939,50.784,151.577,51.23,151.569,51.384"/>
<path fill="#7A1F1D" d="M149.604,52.19c0,1.323-1.072,2.396-2.396,2.396c-1.322,0-2.396-1.071-2.396-2.396
	c-0.001-1.324,1.073-2.396,2.396-2.396C148.531,49.794,149.604,50.867,149.604,52.19"/>
<path fill="#FFFFFF" d="M165.222,51.394c0.001,3.423-2.773,6.2-6.199,6.2c-3.424,0-6.199-2.777-6.199-6.2
	c0-3.425,2.775-6.2,6.199-6.199C162.447,45.193,165.224,47.969,165.222,51.394"/>
<path fill="#74211D" d="M165.034,51.601c-0.321,7.997-12.041,6.978-12.023-0.414c0.01-3.995,4.146-6.638,7.813-5.403
	C163.375,46.644,164.929,48.958,165.034,51.601c0.009,0.21,0.384-0.249,0.377-0.414c-0.16-3.972-3.74-7.075-7.752-6.093
	c-2.915,0.714-5.032,3.524-5.024,6.506c0.009,4.001,3.854,7.048,7.753,6.093c3.012-0.739,4.902-3.508,5.023-6.507
	C165.42,50.988,165.04,51.438,165.034,51.601"/>
<path fill="#7A1F1D" d="M160.886,49.708c0,1.583-1.285,2.871-2.87,2.87s-2.87-1.286-2.87-2.87c0-1.585,1.285-2.871,2.869-2.87
	C159.6,46.838,160.885,48.124,160.886,49.708"/>
<path fill="#DA9BA5" d="M153.976,63.679c0.001,2.811,3.654,8.011,6.747,5.199c2.39-2.25-0.844-5.763-1.688-7.87"/>
<path fill="#74211D" d="M153.726,63.793c0.1,2.653,2.851,7.271,6.055,5.979c4.313-1.738,0.576-6.422-0.51-8.944
	c-0.142-0.327-0.582,0.103-0.47,0.36c0.533,1.237,1.337,2.335,1.907,3.555c0.793,1.695,0.981,4.255-1.475,4.618
	c-2.76,0.409-4.922-3.486-5.008-5.796C154.211,63.179,153.716,63.508,153.726,63.793"/>
<path fill="#74211D" d="M155.886,62.652c0.904,0.961,1.392,2.207,1.969,3.372c0.12,0.244,0.51-0.245,0.397-0.476
	c-0.577-1.164-1.066-2.413-1.97-3.372C156.077,61.958,155.712,62.467,155.886,62.652"/>
<path fill="#74211D" d="M135.921,63.58c1.219-2.236,4.999-2.7,7.261-2.601c2.729,0.118,4.388,1.833,6.772,2.841
	c1.442,0.61,2.597,0.78,4.073,0.148c1.444-0.618,2.344-1.992,3.892-2.544c1.619-0.577,3.543-0.289,5.175-0.142
	c0.177,0.016,0.362-0.543,0.316-0.548c-2.817-0.255-4.918-0.139-7.33,1.39c-2.266,1.436-3.737,2.087-6.363,0.898
	c-1.718-0.778-3.021-2.059-4.933-2.442c-2.994-0.6-7.423,0.002-9.011,2.915C135.601,63.813,135.742,63.907,135.921,63.58"/>
</svg>
