<?xml version="1.0" encoding="utf-8"?>
<!-- Generator: Adobe Illustrator 16.0.0, SVG Export Plug-In . SVG Version: 6.00 Build 0)  -->
<!DOCTYPE svg PUBLIC "-//W3C//DTD SVG 1.1//EN" "http://www.w3.org/Graphics/SVG/1.1/DTD/svg11.dtd">
<svg version="1.1" id="Capa_1" xmlns="http://www.w3.org/2000/svg" xmlns:xlink="http://www.w3.org/1999/xlink" x="0px" y="0px"
	 width="306.914px" height="192.5px" viewBox="0 0 306.914 192.5" enable-background="new 0 0 306.914 192.5" xml:space="preserve">
<path fill="#289EDA" d="M245.918,25.369c3.182,0.739,6.548,1.634,10.037,2.724c20.175,6.305,33.293,15.584,33.293,15.584
	l-34.949,69.649c-2.259,4.5-24.532-1.414-24.532-1.414s-21.675-7.815-20.971-12.801l2.091-14.79l1.208-8.536l7.613-53.834
	c0,0,3.331-0.031,8.864,0.525c2.618,0.263,5.733,0.662,9.219,1.258"/>
<path fill="#2783C3" d="M246.133,26.271c13.453,3.202,26.403,8.296,38.329,15.313c1.172,0.69,2.326,1.415,3.466,2.16
	c1.234,0.804,0.043-0.26,0.175-0.525c-0.563,1.12-1.123,2.241-1.688,3.362c-6.271,12.5-12.544,24.999-18.817,37.498
	c-4.781,9.532-9.566,19.064-14.348,28.597c-2.185,4.352-17.11-0.107-20.712-0.931c-5.065-1.163-9.87-3.426-14.503-5.736
	c-2.62-1.307-5.407-2.761-7.425-4.923c-1.187-1.27-0.421-3.365-0.209-4.865c0.565-3.996,1.131-7.992,1.695-11.987
	c0.894-6.321,1.787-12.642,2.683-18.963c1.545-10.942,3.095-21.881,4.642-32.824c0.45-3.182,0.9-6.365,1.349-9.549
	c0.026-0.178,0.052-0.359,0.078-0.539c-0.679,0.417-0.734,0.586-0.166,0.506c1.117,0.006,2.232,0.071,3.349,0.129
	c4.685,0.248,9.349,0.879,13.976,1.642c1.595,0.262,0.668-1.622-0.428-1.803c-6.053-0.998-12.215-1.811-18.362-1.795
	c-0.315,0.002-0.604,0.209-0.649,0.528c-2.973,21.019-5.945,42.039-8.918,63.059c-0.471,3.326-0.941,6.651-1.412,9.977
	c-0.271,1.932-0.981,4.058-0.188,5.923c2.245,5.287,11.804,8.225,16.581,10.233c4.108,1.726,8.028,2.776,12.402,3.667
	c3.61,0.734,15.336,3.985,18.105-0.148c2.096-3.126,3.525-6.908,5.212-10.263c4.021-8.012,8.039-16.024,12.06-24.035
	c5.975-11.905,11.946-23.807,17.919-35.711c0.197-0.393-0.101-0.88-0.423-1.106c-13.059-9.157-28.805-15.03-44.201-18.695
	C244.14,24.095,245.074,26.018,246.133,26.271"/>
<path fill="#70B7E7" d="M273.679,41.292c-4.917-2.529-11.528-5.495-19.367-7.944c-17.54-5.478-31.514-5.337-31.514-5.337
	l-8.014,62.365c-0.611,4.336,18.236,11.13,18.236,11.13s19.363,5.143,21.328,1.231l28.913-55.837c0,0-1.088-0.771-3.112-1.998"/>
<path fill="#D7C924" d="M267.458,79.093c3.627-7.001,7.251-14.002,10.878-21.004c0.149-0.288,0.072-0.664-0.172-0.877
	c-2.184-1.917-4.474-3.405-7.082-1.493c-0.658,0.484-1.341,1.45-1.882,2.056c-2.903,3.259-6.126,1.414-8.46-0.502
	c-2.162-1.773-3.805-4.072-6.02-5.799c-7.614-5.936-9.477,9.953-16.75,7.062c-4.474-1.777-4.693-8.775-9.549-10.05
	c-2.873-0.756-6.153,2.587-7.73,4.516c-3.362,4.111-3.154,9.916-3.795,14.897c-0.912,7.099-1.824,14.198-2.737,21.294
	c-0.586,4.565,1.947,6.259,5.89,8.511c4.249,2.429,9.07,4.71,13.853,5.886c5.574,1.373,13.533,3.877,19.17,1.746
	c2.711-1.026,4.337-6.836,5.495-9.071c1.546-2.986,5.503-7.876,5.438-11.404c-0.005-0.252-0.179-0.517-0.409-0.619
	c-0.221-0.099-0.438-0.196-0.658-0.294c-0.865-0.384-1.526,0.938-0.654,1.326c0.389,0.173-7.189,14.486-7.845,15.752
	c-1.432,2.767-2.409,3.432-5.789,3.438c-4.209,0.009-8.5-0.97-12.59-1.883c-4.994-1.114-9.812-3.294-14.503-5.736
	c-1.957-1.019-6.505-3.035-6.151-5.782c0.336-2.622,0.674-5.243,1.012-7.865c0.94-7.313,1.879-14.628,2.819-21.941
	c0.364-2.84,0.824-4.752,2.56-7.271c2.054-2.983,5.951-5.74,9.106-1.787c1.81,2.269,3.049,4.81,5.18,6.829
	c7.567,7.174,10.566-9.528,16.9-6.901c4.02,1.667,5.697,6.939,9.984,8.32c1.815,0.586,3.141,0.526,4.95,0.03
	c3.245-0.89,4.353-5.946,8.44-2.886c0.521,0.389,0.806-0.443,0.281,0.565c-0.441,0.854-0.884,1.708-1.324,2.561
	c-1.248,2.408-2.494,4.814-3.741,7.22c-1.811,3.5-3.625,7.001-5.438,10.501C265.696,79.283,267.021,79.939,267.458,79.093"/>
<path fill="#D7C924" d="M237.994,54.858c1.502-4.784,0.117-12.175-6.003-12.627c-2.72-0.2-3.233,2.284-2.229,4.292
	c0.86,1.717,2.581,3.122,3.927,4.44c0.67,0.657,1.315,1.326,1.866,2.089c0.504,0.701,0.287,1.361,0.506,2.116
	c0.097,0.334,0.417,0.503,0.744,0.509c0.495,0.007,0.676-0.122,1.016-0.472c0.663-0.687-0.442-1.667-1.103-0.984
	c0-0.007,0.003-0.011,0.005-0.019c0.246,0.171,0.495,0.341,0.743,0.511c-0.173-0.591,0.021-1.146-0.284-1.766
	c-0.514-1.042-1.314-1.874-2.119-2.697c-0.848-0.866-6.962-6.837-2.976-6.542c3.165,0.234,4.815,3.677,5.009,6.418
	c0.106,1.467-0.111,3.036-0.551,4.44C236.26,55.473,237.71,55.759,237.994,54.858"/>
<path fill="#CBA921" d="M236.201,53.8c0,0,0.854-2.649-0.619-4.137c-1.477-1.491-3.266-0.883-2.182,0.69
	c0.939,1.363,2.838,2.477,2.556,3.434C235.905,53.955,236.156,53.947,236.201,53.8"/>
<path fill="#D7C924" d="M237.512,56.791c0.029-0.088-0.089,0.254,0.006-0.013c0.063-0.171,0.136-0.337,0.209-0.502
	c0.204-0.455,0.462-0.876,0.771-1.268c0.699-0.884,2.264-1.667,3.312-0.875c0.308,0.232-0.761,0.518-0.93,0.569
	c-0.646,0.195-1.327,0.278-1.992,0.396c-0.517,0.092-1.027,0.196-1.511,0.408c-0.229,0.1-0.446,0.225-0.626,0.404
	c-0.043,0.042-0.483,0.554-0.226,0.34c0.243-0.012,0.487-0.025,0.729-0.039c-0.037-0.026-0.074-0.052-0.112-0.077
	c0.138,0.206,0.273,0.414,0.41,0.621c-0.009-0.05-0.017-0.101-0.025-0.153c-0.155-0.931-1.63-0.855-1.474,0.084
	c0.069,0.426,0.189,0.608,0.547,0.848c0.19,0.128,0.554,0.101,0.729-0.04c0.209-0.17,0.313-0.431,0.516-0.576
	c0.286-0.208,0.726-0.261,1.063-0.332c0.989-0.215,1.987-0.312,2.948-0.651c1.354-0.475,2.128-2.007,0.799-3.012
	c-1.345-1.017-3.4-0.555-4.6,0.445c-0.954,0.793-1.622,1.952-1.988,3.128C235.783,57.406,237.23,57.693,237.512,56.791"/>
<path fill="#CBA921" d="M237.464,55.771c0,0,0.391-1.284,1.38-1.469c0.993-0.186,1.535,0.545,0.672,0.872
	c-0.743,0.281-1.798,0.203-1.951,0.66C237.539,55.914,237.443,55.841,237.464,55.771"/>
<path fill="#CBA921" d="M228.252,92.032c-0.782,2.51-3.283,3.959-5.58,3.242c-2.297-0.72-3.527-3.334-2.741-5.841
	c0.782-2.508,3.279-3.96,5.578-3.241C227.807,86.908,229.036,89.523,228.252,92.032"/>
<path fill="#CBA921" d="M234.455,82.064c-0.358,1.147-1.505,1.815-2.559,1.486c-1.054-0.329-1.616-1.528-1.257-2.679
	s1.506-1.816,2.559-1.486C234.252,79.716,234.814,80.916,234.455,82.064"/>
<path fill="#CBA921" d="M242.074,96.351c-0.361,1.147-1.506,1.815-2.56,1.487c-1.054-0.332-1.615-1.529-1.257-2.68
	c0.358-1.149,1.504-1.814,2.558-1.485C241.87,94,242.433,95.199,242.074,96.351"/>
<path fill="#CBA921" d="M246.427,82.626c-0.214,0.681-0.895,1.074-1.519,0.881c-0.626-0.196-0.96-0.908-0.746-1.591
	c0.213-0.681,0.892-1.075,1.518-0.88C246.305,81.231,246.639,81.942,246.427,82.626"/>
<path fill="#CBA921" d="M251.452,91.004c-0.208,0.673-0.884,1.064-1.504,0.872c-0.619-0.195-0.949-0.899-0.739-1.574
	c0.212-0.677,0.884-1.067,1.505-0.873C251.332,89.622,251.665,90.326,251.452,91.004"/>
<path fill="#CBA921" d="M268.948,64.323c-0.21,0.675-0.884,1.067-1.505,0.873c-0.619-0.194-0.948-0.897-0.737-1.574
	c0.21-0.674,0.883-1.065,1.504-0.871C268.828,62.943,269.158,63.648,268.948,64.323"/>
<path fill="#CBA921" d="M259.258,76.411c-0.203,0.646-0.847,1.02-1.438,0.833c-0.592-0.186-0.909-0.857-0.707-1.506
	c0.201-0.646,0.846-1.019,1.437-0.834C259.142,75.088,259.46,75.763,259.258,76.411"/>
<path fill="#CBA921" d="M254.65,59.856c-0.2,0.648-0.845,1.021-1.438,0.837c-0.593-0.186-0.909-0.861-0.706-1.508
	c0.2-0.646,0.845-1.02,1.437-0.834C254.536,58.536,254.854,59.211,254.65,59.856"/>
<path fill="#CBA921" d="M246.931,69.733c-0.2,0.645-0.845,1.021-1.438,0.836c-0.592-0.186-0.907-0.861-0.707-1.507
	c0.203-0.648,0.846-1.021,1.438-0.834C246.815,68.413,247.134,69.088,246.931,69.733"/>
<path fill="#CBA921" d="M230.568,62.915c-0.201,0.647-0.847,1.021-1.438,0.835c-0.593-0.185-0.911-0.859-0.708-1.505
	c0.202-0.645,0.846-1.02,1.438-0.834C230.453,61.595,230.771,62.27,230.568,62.915"/>
<path fill="#CBA921" d="M225.129,70.866c-0.15,0.482-0.63,0.759-1.07,0.621c-0.441-0.135-0.677-0.64-0.527-1.121
	c0.15-0.481,0.632-0.758,1.072-0.621C225.042,69.882,225.28,70.385,225.129,70.866"/>
<path fill="#EED1B9" d="M216.72,64.059c0,0,15.156-1.616,13.414-12.31c-1.745-10.691-14.584-5.864-20.353-0.098
	c-4.648,4.65-15.328,26.973-0.02,35.761l0.574-12.221c0,0,0.746-6.54,1.995-8.631C213.684,64.3,216.72,64.059,216.72,64.059"/>
<path fill="#E1C2AA" d="M217.33,64.536c7.025-0.822,15.836-5.334,13.309-13.784c-2.42-8.086-12.012-6.113-17.515-2.715
	c-12.559,7.758-17.664,30.922-3.7,39.529c0.155,0.096,1.114,0.6,1.133,0.157C210.833,81.846,209.282,65.524,217.33,64.536
	c0.553-0.068-0.79-1.009-1.223-0.956c-8.522,1.047-6.849,17.337-7.139,23.521c0.378,0.053,0.757,0.106,1.134,0.158
	c-11.8-7.274-7.927-25.101-0.362-34.272c2.076-2.518,5.04-4.452,8.033-5.71c1.781-0.749,3.932-1.506,5.896-1.393
	c4.783,0.276,6.509,5.167,5.6,9.068c-1.292,5.551-8.091,8.036-13.162,8.627C215.557,63.645,216.897,64.586,217.33,64.536"/>
<path fill="#EED1B9" d="M259.699,59.407c3.127-1.071,12.953,0.039,17.111,9.948c4.158,9.906-2.642,16.537-5.483,13.266
	C268.488,79.349,240.474,70.381,259.699,59.407"/>
<path fill="#E1C2AA" d="M260.264,59.978c9.874-2.67,20.367,10.201,16.211,19.438c-2.334,5.184-5.592,2.029-9.012,0.164
	c-3.933-2.144-8.335-4.179-11.429-7.512c-4.68-5.044-0.361-9.341,4.363-12.158c0.607-0.362-0.82-1.347-1.396-1.005
	c-5.91,3.525-9.253,8.529-3.679,14.025c4.364,4.302,10.386,6.538,15.409,9.883c5.968,3.97,8.828-4.567,7.998-9.493
	c-1.43-8.512-10.483-16.949-19.595-14.483C258.316,59.059,259.653,60.142,260.264,59.978"/>
<path fill="#EED1B9" d="M249.919,79.086c0,0-1.498-18.03,13.053-9.186c14.553,8.845,10.248,18.143,9.767,20.666
	c-0.481,2.527-5.444,6.867-5.444,6.867S249.312,85.673,249.919,79.086"/>
<path fill="#E1C2AA" d="M250.744,79.337c-0.342-4.551,0.638-11.813,6.699-11.16c5.701,0.614,12.554,6.745,14.586,11.998
	c0.991,2.559,0.998,5.223,0.45,7.871c-0.655,3.174-2.363,4.948-4.363,7.449c-0.908,1.138-1.888,1.126-0.554,1.45
	c-0.727-0.176-1.752-1.202-2.33-1.613C260.545,91.986,250.674,85.856,250.744,79.337c0.009-0.712-1.64-1.304-1.649-0.502
	c-0.049,4.643,4.745,8.673,7.894,11.45c3.095,2.727,6.409,5.251,9.857,7.52c0.29,0.19,0.825,0.422,1.141,0.143
	c8.335-7.404,8.557-17.899-0.22-25.316c-3.608-3.048-11.397-8.644-16.012-4.224c-2.575,2.467-2.911,7.079-2.66,10.428
	C249.148,79.544,250.803,80.11,250.744,79.337"/>
<path fill="#EED1B9" d="M253.031,78.908c0,0,9.788,5.155,12.953,10.952c3.169,5.796,1.756,14.738-0.303,19.215
	c-2.98,6.478-13.404,11.943-13.404,11.943l-30.697,1.756l0.057-14.32c0,0,22.658,10.229,34.561,3.698
	c6.73-3.69-11.479-19.984-12.185-22.908C243.311,86.32,246.866,77.555,253.031,78.908"/>
<path fill="#E1C2AA" d="M252.84,79.291c3.383,1.811,6.734,4.069,9.46,6.773c4.906,4.865,5.502,11.752,4.029,18.225
	c-1.166,5.13-4.049,8.743-8.172,11.948c-1.695,1.319-4.924,3.831-6.561,4.245c-4.895,1.238-11.041,0.631-16.065,0.919
	c-4.791,0.274-9.581,0.548-14.371,0.823c0.41,0.276,0.82,0.553,1.23,0.83c0.019-4.773,0.036-9.547,0.055-14.321
	c-0.334,0.035-0.668,0.069-1.001,0.103c4.898,2.192,10.125,3.834,15.374,4.928c5.11,1.064,17.111,3.212,21.01-1.879
	c3.059-3.994-4.132-11.403-6.347-14.075c-1.914-2.311-4.608-4.615-6.052-7.262c-2.481-4.552,2.804-11.731,7.833-11.109
	c1.139,0.14,0.177-0.982-0.462-1.061c-5.327-0.658-11.378,5.644-9.398,11.119c0.719,1.99,2.971,3.915,4.306,5.478
	c2.413,2.825,4.914,5.647,6.91,8.793c1.66,2.618,3.693,6.056,0.427,8.124c-4.062,2.572-10.31,2.108-14.824,1.489
	c-6.274-0.859-12.604-2.722-18.393-5.31c-0.197-0.088-1.001-0.38-1.002,0.102c-0.019,4.774-0.037,9.547-0.055,14.32
	c-0.002,0.474,0.842,0.853,1.229,0.831c6.251-0.356,12.502-0.714,18.752-1.072c4.239-0.243,9.745,0.503,13.58-1.511
	c9.364-4.922,15.099-13.271,14.249-24.039c-0.695-8.814-8.098-14.29-15.357-18.176C252.294,78.028,251.907,78.792,252.84,79.291"/>
<polygon fill="#310000" points="210.961,157.644 214.855,149.154 190.437,152.007 "/>
<path fill="#4D031E" d="M211.746,158.041c1.299-2.831,2.597-5.661,3.896-8.49c0.227-0.494-1.067-0.932-1.387-0.895
	c-8.139,0.95-16.279,1.899-24.419,2.852c-0.722,0.084,0.681,0.92,0.861,0.97c6.841,1.88,13.681,3.758,20.521,5.637
	c1.1,0.302-0.014-0.802-0.521-0.94c-6.84-1.88-13.681-3.758-20.523-5.638c0.288,0.324,0.572,0.646,0.861,0.97
	c8.139-0.95,16.279-1.9,24.419-2.851c-0.464-0.299-0.925-0.599-1.386-0.896c-1.299,2.83-2.599,5.659-3.896,8.49
	C209.961,157.715,211.544,158.484,211.746,158.041"/>
<polygon fill="#9F231D" points="218.934,191.814 239.958,146.191 214.855,149.155 194.9,193.189 "/>
<path fill="#77201A" d="M219.721,192.21c7.007-15.209,14.016-30.415,21.022-45.623c0.25-0.539-0.785-1.03-1.187-0.984
	c-7,0.827-13.999,1.655-20.998,2.479c-0.597,0.071-4.181-0.007-4.499,0.701c-0.796,1.753-1.591,3.506-2.385,5.261
	c-5.854,12.917-11.708,25.832-17.561,38.749c-0.253,0.556,0.788,1.006,1.188,0.981c8.011-0.458,16.022-0.915,24.033-1.375
	c1.019-0.058-0.188-1.208-0.802-1.174c-8.012,0.459-16.023,0.917-24.035,1.375c0.395,0.328,0.792,0.655,1.188,0.983
	c5.662-12.495,11.325-24.991,16.988-37.485c0.934-2.059,1.866-4.119,2.8-6.177c0.252-0.56-0.468-0.151,0.521-0.267
	c1.375-0.163,2.751-0.325,4.125-0.488c6.746-0.796,13.493-1.592,20.239-2.388c-0.396-0.329-0.793-0.656-1.188-0.984
	c-7.007,15.208-14.016,30.416-21.022,45.623C217.861,192.035,219.44,192.814,219.721,192.21"/>
<path fill="#601911" d="M259.051,120.224l-11.262,25.226c0,0-56.652,6.518-57.353,6.558c-0.7,0.039,9.538-25.596,14.279-28.675
	C209.456,120.25,259.051,120.224,259.051,120.224"/>
<path fill="#260000" d="M258.264,119.828c-2.405,5.391-4.814,10.781-7.222,16.172c-1.35,3.027-2.34,8.811-5.566,9.181
	c-13.783,1.584-27.565,3.17-41.349,4.746c-4.68,0.534-9.358,1.086-14.041,1.59c0.551-0.059,0.976,0.972,1.46-0.531
	c0.402-1.255,0.896-2.484,1.374-3.714c1.574-4.039,3.341-8.008,5.215-11.918c2.418-5.049,4.701-11.47,10.723-12.549
	c7.307-1.31,14.941-1.356,22.339-1.621c9.486-0.341,18.983-0.49,28.472-0.499c0.481,0-0.832-0.926-1.236-0.924
	c-12.5,0.009-25.021,0.225-37.502,0.897c-5.25,0.281-11.473,0.091-16.476,1.99c-1.913,0.726-3.177,3.288-4.167,4.899
	c-2.314,3.762-4.167,7.835-5.97,11.86c-0.667,1.486-6.105,11.557-4.205,12.723c2.036,1.247,6.784-0.315,8.927-0.561
	c14.576-1.659,29.147-3.336,43.718-5.012c1.854-0.211,3.706-0.425,5.561-0.639c0.841-0.094,1.871-3.688,2.169-4.36
	c3.118-6.98,6.234-13.96,9.35-20.94C260.002,120.247,258.415,119.49,258.264,119.828"/>
<path fill="#EECA49" d="M207.751,136.833c-0.999,2.667-3.074,4.353-4.632,3.767c-1.562-0.583-2.017-3.22-1.019-5.886
	c1.001-2.665,3.076-4.352,4.636-3.766C208.296,131.531,208.751,134.169,207.751,136.833"/>
<path fill="#8E782B" d="M206.966,136.437c-0.632,1.518-1.683,3.436-3.501,3.692c-1.853,0.261-0.757-4.488-0.579-5.02
	c0.516-1.53,1.767-3.447,3.504-3.692C208.241,131.157,207.145,135.904,206.966,136.437c-0.222,0.654,1.37,1.387,1.572,0.792
	c0.683-2.027,1.112-5.385-1.269-6.554c-2.81-1.379-4.961,1.259-5.955,3.643c-0.819,1.966-1.023,5.431,1.271,6.555
	c2.809,1.378,4.959-1.258,5.953-3.644C208.799,136.601,207.215,135.837,206.966,136.437"/>
<polygon fill="#2783C3" points="208.809,90.017 212.12,70.791 212.661,80.277 210.518,94.202 "/>
<path d="M32.798,38.313c0.035-0.289,0.163-1.058,0.65-1.047c1.029,0.363,2.233,0.387,3.322,0.409l0.087,0.114
	c0,0,0.023,0.234,0.021,0.317c-0.003,0.116-0.039,0.43-0.039,0.488c-0.589,3.489-1.194,9.271-0.573,14.194
	c0.2,1.469,0.851,3.261,2.657,3.296c0.492,0.008,0.979,0.021,1.357-0.344c1.197-1.154,1.51-3.76,1.543-5.25
	c0.038-1.923,0.022-4.018,0.002-5.939c0.007-1.667-0.189-3.305-0.156-4.94c0.004-0.144,0.123-0.458,0.294-0.481l2.62-0.295
	c0.023-0.026,0.201-0.079,0.256-0.078c0.205,0.005,0.433,0.151,0.453,0.354c0.001-0.06,0.036-0.086,0.036-0.086
	c0.167,0.003,1.24,10.871-1.128,17.254c-0.91,2.42-2.479,3.365-5.062,3.312l-0.404-0.009c-3.324-0.066-5.542-1.115-6.096-4.714
	c-0.409-2.505-0.536-4.918-0.488-7.44C32.6,39.458,32.734,38.597,32.798,38.313"/>
<path d="M47.212,45.09c0.003-0.229,0.267-0.398,0.495-0.392l2.583,0.049c0.603,0.012,0.262,2.736,0.393,3.167
	c2.956-2.724,5.082-2.882,6.173-2.862c2.467,0.051,3.682,2.373,3.806,4.638l0.346,10.083c-0.001,0.03-0.062,0.087-0.087,0.085
	l-3.076,0.054c-0.056-0.031-0.167-0.094-0.167-0.122l-0.394-7.499c-0.801-7.247-6.847-1.943-6.952,3.189
	c-0.035,1.61,0.134,3.22,0.104,4.824l-0.007,0.288c-0.893,0.069-1.636,0.052-2.526,0.036l-0.804-0.017l-0.17-0.205
	c0,0-0.024-0.172-0.022-0.257L47.212,45.09z"/>
<path d="M73.822,56.1c0.11,0.004,0.173,0.003,0.284,0.092c1.009,1.224,0.958,2.346,2.879,2.384c1.121,0.021,2.289-0.928,2.313-2.105
	c0.043-2.152-1.327-2.524-3.187-2.849c-1.631-0.26-4.351-1.926-4.315-3.732c0.066-3.186,2.833-5.252,5.845-5.192
	c1.374,0.03,2.922,0.147,3.846,1.313l0.03,0.029c0.167,0.205,0.255,0.349,0.247,0.579c0,0.026-0.03,0.142-0.03,0.142
	c-0.3,0.542-1.398,2.499-1.802,2.489l-0.203-0.002l-0.195-0.121c-0.713-0.415-1.817-1.069-2.653-1.085
	c-0.627-0.013-1.153,0.408-1.166,1.069c-0.044,2.265,7.245,0.775,7.13,6.485c-0.068,3.413-2.246,6.123-6.005,6.045
	c-2.236-0.045-4.434-0.575-5.194-2.884c-0.079-0.231-0.271-0.813-0.261-1.329C71.384,57.428,73.475,56.092,73.822,56.1"/>
<path d="M84.187,60.042C84.165,52.752,84.342,45.35,84,38.081l0.009-0.374l3.185,0.066c0.055,0.002,0.113,0.062,0.115,0.088
	c0.161,0.608,0.036,0.808,0.053,1.466c0.207,4.194,0.085,5.798,0.2,9.961c0.03,0.117,0.084,0.117,0.143,0.119
	c0.029,0.001,0.086-0.026,0.086-0.026c1.385-0.401,4.469-0.944,5.905-0.913c1.55,0.028,2.356,1.078,2.328,2.597l-0.082,8.266
	c-0.001,0.143,0.044,0.692,0.067,0.833l-0.003,0.141c-0.009,0.577-2.535,0.527-3.278,0.51l-0.317-0.002l-0.084-0.09
	c-0.115-1.409-0.148-5.369-0.4-7.271c-0.023-0.227-0.034-1.093-0.377-1.103c-0.832-0.016-3.274,0.052-3.832,0.702
	c-0.033,0.202-0.074,3.673-0.078,3.845l-0.077,3.874l-0.059,0.085c-0.518,0.017-2.505,0.294-3.244-0.067
	C84.263,60.673,84.188,60.156,84.187,60.042"/>
<path d="M108.258,46.411c2.946,1.921,4.001,5.071,3.937,8.083c-0.054,2.756-1.859,5.443-4.865,6.557
	c-1.561,0.573-3.564,0.392-5.19-0.188c-3.243-1.356-4.32-4.911-4.259-7.66C97.971,48.44,102.771,43.742,108.258,46.411
	 M102.523,56.08c0.436,1.128,1.424,1.864,2.775,1.89c2.38,0.05,3.17-2.205,3.203-3.868c0.12-5.994-6.537-7.306-6.667-0.908
	C101.812,54.17,102.141,55.147,102.523,56.08"/>
<path d="M115.077,36.933c0.086-0.087,0.175-0.144,3.816,0.046c0.019,0.49,0.106,1.953-0.957,11.863l3.954,0.339
	c0.426,0.035,0.536,0.325,0.529,0.612c-0.021,1.092-0.204,1.545-0.507,2.627c-0.005,0.115-0.176,0.086-0.288,0.084l-3.932-0.193
	c-1.041,4.539-0.706,7.935,4.112,6.738c-0.012,0.692,0.104,1.781,0.089,2.619c-0.006,0.427-0.955,0.407-1.351,0.4
	c-3.848-0.077-7.503-0.955-6.088-10.053c-0.145-0.004-1.546-0.09-1.665-0.118c-0.054-0.003-0.166-0.094-0.166-0.094l0.071-3.439
	c0,0,0.114-0.059,0.171-0.056l1.465,0.087L115.077,36.933z"/>
<path d="M31.429,83.273c0.06-2.754,1.454-5.047,4.311-5.995c1.131-0.379,3.058-0.456,3.8-0.438c0.347,0.004-0.158-3.565-2.022-3.603
	c-1.55-0.032-2.546,1.211-3.625,1.991c0,0-2.033-1.704-2.034-1.759c0.007-0.288,0.446-0.684,0.623-0.936
	c1.903-1.855,3.664-2.45,5.989-2.404c3.845,0.077,4.722,3.281,4.782,6.323l-0.005,0.26c0.083,2.988,0.019,6.057-0.187,9.034
	c-0.09,0.287-0.563,0.822-2.402,0.986l-0.115-0.002c-1.06-0.021-0.205-1.18-0.827-1.479c-0.439,0.306-0.59,0.652-1.11,0.923
	c-1.104,0.697-2.571,0.755-3.92,0.727c-2.146-0.042-3.205-1.702-3.259-3.425L31.429,83.273z M39.502,82.807l0.015-0.716
	c0.022-0.975,0.025-2.495-0.465-2.509c-4.389-0.086-4.248,3.075-4.234,3.677C34.962,84.55,39.495,83.267,39.502,82.807"/>
<path d="M56.138,62.048c0.089-0.082,0.177-0.142,3.819,0.049c0.015,0.489,0.102,1.953-0.956,11.864l3.948,0.335
	c0.434,0.041,0.544,0.328,0.537,0.613c-0.026,1.092-0.208,1.549-0.514,2.627c-0.002,0.117-0.175,0.086-0.287,0.084l-3.93-0.193
	c-1.04,4.54-0.708,7.932,4.113,6.741c-0.02,0.688,0.105,1.78,0.088,2.611c-0.009,0.433-0.955,0.413-1.357,0.403
	c-3.844-0.078-7.499-0.953-6.078-10.054c-0.149-0.003-1.551-0.087-1.667-0.117c-0.055,0-0.167-0.091-0.167-0.091l0.07-3.439
	c0,0,0.115-0.059,0.177-0.058l1.458,0.088L56.138,62.048z"/>
<path d="M65.834,72.116l0.087-0.109l3.445,0.07c0.173,0.001,0.11,0.258,0.109,0.287c-0.046,2.208-0.401,4.354-0.446,6.533
	c-0.043,2.18,0.593,3.371,3.001,3.422l0.114-0.002c2.384,0.049,2.895-1.262,2.947-3.7c0.029-1.634-0.106-3.272-0.071-4.938
	c0.012-0.632,2.368-0.984,2.854-0.973l0.319,0.007c0.422,0.524,0.49,4.142,0.476,4.801l-0.021,1.032
	c-0.055,2.754-0.269,4.675-2.543,6.521c-2.202,1.189-4.982,1.024-7.468,0.309c-3.335-0.984-3.581-3-3.517-6.242
	C65.253,76.812,65.81,73.407,65.834,72.116"/>
<path d="M37.502,112.203c-5.361-0.108-6.553-4.871-6.5-7.649l0.003-0.255c0.231-4.358,3.068-8.265,8.576-8.152
	c1,0.021,2.453,0.711,2.428,1.745c-0.003,0.403-0.847,2.392-1.278,2.381c-0.575-0.013-0.998-0.364-1.627-0.376
	c-2.181-0.045-3.475,1.422-4.254,3.069c-0.508,1.053-0.407,3.32,0.256,4.396c0.499,0.93,1.75,1.473,2.867,1.522l0.264,0.006
	c0.796,0.015,1.895-0.076,2.586-0.438c0.232-0.109,1.195-0.865,1.485-0.858c0.458,0.012,1.221,1.862,1.209,2.465
	c-0.023,1.376-4.091,2.156-5.179,2.135C38.049,112.212,37.765,112.209,37.502,112.203"/>
<path d="M54.609,97.943c2.947,1.919,4.004,5.073,3.942,8.083c-0.058,2.755-1.862,5.445-4.866,6.559
	c-1.562,0.573-3.568,0.391-5.193-0.188c-3.244-1.357-4.32-4.911-4.263-7.663C44.326,99.973,49.125,95.276,54.609,97.943
	 M48.88,107.611c0.432,1.13,1.425,1.867,2.774,1.894c2.379,0.047,3.173-2.205,3.203-3.868c0.122-5.997-6.537-7.306-6.667-0.912
	C48.172,105.702,48.494,106.683,48.88,107.611"/>
<path d="M59.92,102.266c0.068-3.471,2.206-4.117,3.755-4.087l0.203,0.009c1.573,0.085,3.239,2.961,3.748,4.923l0.083-0.085
	l0.239-0.453c1.077-2.218,2.428-5.029,5.208-4.976c3.645,0.075,3.963,2.665,4.312,5.54c0.185,6.231-0.056,6.858-0.113,9.667
	c-0.002,0.177-0.006,0.374-0.295,0.369l-2.38-0.047c-0.059-0.001-0.227-0.123-0.226-0.178l-0.286-7.007
	c-0.059-1.35,0.33-3.637-1.652-3.679c-1.921-0.039-2.758,4.621-2.966,4.904l-4,0.583c-0.325-1.098-0.399-4.599-1.83-4.629
	c-0.318-0.006-0.467,0.304-0.576,1.449c-0.056,2.897,0.37,5.863,0.315,8.589l-0.01,0.518c-0.06,0.227-0.179,0.338-0.378,0.362
	c-0.86,0.012-1.871,0.163-2.79,0.144c-0.027,0.001-0.228,0.023-0.252-0.118L59.92,102.266z"/>
<path d="M79.381,99.215c-0.026-0.088-0.017-0.317,0.178-0.312l2.875-0.17c0.028,0,0.17,0.031,0.198,0.061
	c0.028,0,0.116,0.087,0.116,0.087l0.079,1.699c0.828-1.249,3.112-2.065,4.693-2.147c0.142,0.004,0.284-0.02,0.429-0.017
	c3.183,0.062,5.054,2.855,5.243,6.161c0.025,0.231,0.023,0.428,0.017,0.629c-0.104,5.365-5.031,7.56-10.229,4.876
	c0.303,3.649,0.315,4.222,0.529,7.901c0.018,0.515,0.075,1.979,0.073,2.069l-0.088,0.115c0,0-1.353,0.113-1.897,0.16l-1.095,0.092
	l-0.113-0.088c0-0.029-0.141-1.523-0.273-3.477C79.374,99.502,79.381,99.387,79.381,99.215 M83.988,106.97
	c1.701,2.447,5.257,1.196,5.317-1.756c0.005-0.116-0.021-0.231-0.025-0.344c-0.104-1.634-0.229-2.793-2.063-2.83
	c-0.117-0.001-0.259,0.025-0.401,0.025C84.889,102.167,82.316,104.529,83.988,106.97"/>
<path d="M94.129,110.848c0.057-2.755,1.452-5.05,4.31-5.995c1.128-0.383,3.053-0.456,3.796-0.442
	c0.346,0.006-0.154-3.562-2.019-3.602c-1.55-0.029-2.552,1.212-3.629,1.997c0,0-2.031-1.706-2.034-1.762
	c0.01-0.288,0.447-0.684,0.625-0.935c1.905-1.858,3.664-2.452,5.99-2.409c3.844,0.08,4.727,3.284,4.781,6.324l-0.008,0.26
	c0.083,2.986,0.021,6.056-0.182,9.035c-0.093,0.285-0.562,0.823-2.402,0.986l-0.113-0.002c-1.062-0.021-0.205-1.179-0.835-1.482
	c-0.431,0.307-0.589,0.651-1.105,0.927c-1.104,0.694-2.571,0.753-3.921,0.724c-2.148-0.044-3.206-1.7-3.256-3.423L94.129,110.848z
	 M102.201,110.383l0.012-0.717c0.025-0.976,0.027-2.494-0.462-2.507c-4.39-0.086-4.252,3.072-4.235,3.674
	C97.662,112.127,102.197,110.842,102.201,110.383"/>
<path d="M107.888,98.929c0.006-0.229,0.267-0.396,0.493-0.391l2.582,0.053c0.606,0.012,0.265,2.731,0.396,3.167
	c2.952-2.728,5.078-2.886,6.169-2.862c2.47,0.051,3.684,2.371,3.813,4.64l0.339,10.081c0.002,0.027-0.061,0.085-0.088,0.083
	l-3.069,0.054c-0.056-0.028-0.175-0.088-0.171-0.116l-0.393-7.501c-0.805-7.246-6.849-1.947-6.955,3.19
	c-0.026,1.607,0.137,3.22,0.105,4.826l-0.008,0.284c-0.89,0.07-1.635,0.056-2.525,0.038l-0.802-0.017l-0.172-0.205
	c0,0-0.021-0.176-0.019-0.259L107.888,98.929z M110.183,94.614c0.74-1.16,1.641-1.663,3.134-1.63
	c1.691,0.032,1.887,1.815,3.437,1.847c0.742,0.019,0.521-1.767,1.066-1.755c0.345,0.005,0.633,0.012,2.173,0.506
	c-0.041,2.033-1.513,3.727-3.607,3.687c-0.661-0.015-1.368-0.29-1.965-0.616c-0.425-0.268-0.76-0.82-1.307-0.831
	c-1.264-0.024-1.004,1.445-1.72,1.428c-0.2-0.002-1.63-0.434-1.743-0.608C109.675,95.551,109.824,95.211,110.183,94.614"/>
<path d="M122.957,108.762c-0.468-3.88,1.042-8.876,6.07-9.494c4.893-0.588,5.922,1.127,6.41,5.27l0.151,1.152l-8.47,1.745
	c-0.035,0.003-0.207,0.173-0.236,0.258c-0.063,0.173-0.188,0.654,0.08,3.13c0.147,1.178,1.316,1.633,2.433,1.513
	c1.384-0.175,2.966-1.808,4.112-1.783c0.486,0.009,1.527,1.206,1.573,1.638l-0.004,0.145c-2,2.6-4.044,2.99-7.198,2.752
	C124.298,114.846,123.302,111.522,122.957,108.762 M127.783,102.862c-0.382,0.334-0.971,1.357-0.986,1.96l-0.006,0.116l0.264-0.053
	c0.026-0.003,0.08-0.028,0.114-0.029c0.776-0.098,1.579-0.167,4.952-0.845c0,0,0.002-0.03-0.026-0.113
	c-0.05-0.348-0.263-1.271-0.26-1.303c-0.239-0.862-0.843-0.849-1.648-0.747C129.381,101.945,128.338,102.271,127.783,102.862"/>
<path d="M136.636,113.514c0.028-1.375-0.179-14.007,1.202-14.124c0.173,0.003,1.666-0.021,2.699-0.031l0.071,2.24
	c1.698-1.773,3.643-2.713,6.452-2.656c0.17,0.206,0.224,0.378,0.424,2.997c-3.496,0.07-6.755,2.157-6.995,5.512l-0.451,6.876
	l-0.063,0.088c-0.03,0.025-0.864,0.069-2.812-0.059C136.853,114.233,136.63,113.829,136.636,113.514"/>
<path d="M156.824,100.002c2.951,1.924,4.004,5.078,3.944,8.085c-0.06,2.759-1.862,5.446-4.866,6.561
	c-1.564,0.574-3.57,0.393-5.197-0.188c-3.24-1.356-4.315-4.91-4.263-7.666C146.541,102.035,151.343,97.34,156.824,100.002
	 M151.091,109.674c0.437,1.13,1.428,1.869,2.778,1.894c2.379,0.049,3.171-2.206,3.205-3.869c0.117-5.998-6.538-7.305-6.671-0.912
	C150.385,107.763,150.708,108.747,151.091,109.674"/>
<path d="M39.85,138.214c-2.057,0.792-2.869,1.345-5.046,1.302c-2.556-0.052-4.438-2.069-4.39-4.565
	c-0.022-0.171-0.021-0.342-0.014-0.545c0.094-4.618,5.172-7.527,9.458-6.61l0.35-11.53c0.033-0.199,0.204-0.282,3.675-0.038
	c0.112,0.147,0.079,0.286,0.078,0.427c-0.098,4.711-0.503,9.374-0.602,14.056c-0.061,2.957-0.002,5.905-0.065,8.922l-0.009,0.373
	c-0.208,0.311-2.1,0.33-2.585,0.318c-0.063,0-0.349-0.032-0.433-0.035c-0.254-0.092-0.25-0.58-0.248-0.724
	C40.028,139.191,40.308,138.311,39.85,138.214 M39.54,135.222l0.014-0.689c-0.012-0.919-0.07-3.761-0.1-3.762
	c-0.256-0.034-0.544-0.039-0.771-0.043c-4.421-0.089-4.563,2.549-4.59,4.156l-0.008,0.256
	C34.044,137.207,38.317,135.771,39.54,135.222"/>
<path d="M45.482,133.506c-0.464-3.881,1.041-8.877,6.072-9.489c4.894-0.595,5.922,1.122,6.411,5.264l0.152,1.15l-8.477,1.749
	c-0.031,0.004-0.2,0.169-0.23,0.256c-0.064,0.172-0.186,0.658,0.079,3.131c0.148,1.177,1.314,1.633,2.437,1.515
	c1.382-0.175,2.964-1.81,4.112-1.78c0.484,0.008,1.523,1.204,1.571,1.635l-0.001,0.146c-2.003,2.597-4.05,2.986-7.203,2.751
	C46.823,139.588,45.829,136.266,45.482,133.506 M50.307,127.604c-0.374,0.339-0.971,1.357-0.98,1.96l-0.007,0.116l0.262-0.052
	c0.03-0.001,0.083-0.028,0.116-0.028c0.777-0.098,1.581-0.168,4.953-0.845c0,0,0.001-0.029-0.028-0.115
	c-0.054-0.347-0.258-1.27-0.257-1.297c-0.246-0.867-0.847-0.851-1.654-0.752C51.904,126.691,50.867,127.016,50.307,127.604"/>
<path d="M68.868,115.381l3.784,0.079c-0.016,0.944,0.08,1.835,0.063,2.784l-0.012,0.285l-1.122,20.181
	c-0.09,0.286-1.124,0.265-2.299,0.242l-0.287-0.006c-0.431-0.067-0.288-1.44-0.341-1.755L68.868,115.381z"/>
<path d="M74.061,136.754c0.06-2.755,1.45-5.051,4.309-5.999c1.13-0.379,3.054-0.454,3.8-0.44c0.341,0.007-0.155-3.562-2.024-3.599
	c-1.545-0.031-2.549,1.209-3.628,1.99c0,0-2.029-1.705-2.029-1.762c0.008-0.285,0.443-0.681,0.62-0.932
	c1.905-1.86,3.665-2.453,5.989-2.408c3.846,0.077,4.728,3.28,4.782,6.324l-0.005,0.261c0.083,2.983,0.021,6.054-0.182,9.036
	c-0.091,0.283-0.566,0.82-2.404,0.982l-0.111-0.003c-1.064-0.021-0.208-1.176-0.837-1.481c-0.432,0.31-0.586,0.654-1.104,0.929
	c-1.106,0.693-2.569,0.75-3.919,0.722c-2.151-0.045-3.207-1.697-3.258-3.423L74.061,136.754z M82.132,136.285l0.018-0.719
	c0.021-0.975,0.02-2.494-0.471-2.503c-4.386-0.091-4.249,3.069-4.231,3.671C77.594,138.029,82.127,136.744,82.132,136.285"/>
<path d="M105.66,139.54c-2.056,0.794-2.87,1.349-5.051,1.306c-2.549-0.051-4.432-2.072-4.385-4.566
	c-0.024-0.17-0.02-0.341-0.015-0.544c0.09-4.617,5.17-7.529,9.458-6.612l0.349-11.529c0.034-0.202,0.206-0.281,3.672-0.04
	c0.111,0.148,0.082,0.288,0.079,0.428c-0.094,4.708-0.504,9.377-0.602,14.055c-0.06,2.955-0.001,5.908-0.064,8.924l-0.009,0.373
	c-0.204,0.311-2.099,0.33-2.584,0.32c-0.063,0-0.347-0.033-0.434-0.037c-0.256-0.091-0.246-0.58-0.241-0.722
	C105.84,140.521,106.116,139.639,105.66,139.54 M105.345,136.551l0.019-0.69c-0.013-0.919-0.07-3.759-0.1-3.761
	c-0.256-0.035-0.539-0.038-0.771-0.044c-4.423-0.089-4.561,2.55-4.592,4.156l-0.001,0.256
	C99.855,138.534,104.13,137.101,105.345,136.551"/>
<path d="M111.292,134.834c-0.469-3.882,1.043-8.876,6.073-9.488c4.891-0.596,5.921,1.121,6.412,5.265l0.147,1.151l-8.473,1.748
	c-0.03,0-0.201,0.167-0.236,0.255c-0.063,0.173-0.183,0.656,0.083,3.129c0.147,1.178,1.313,1.636,2.437,1.515
	c1.382-0.173,2.965-1.807,4.11-1.782c0.489,0.011,1.524,1.207,1.573,1.638l-0.005,0.146c-2,2.596-4.047,2.987-7.197,2.751
	C112.631,140.919,111.638,137.596,111.292,134.834 M116.117,128.934c-0.379,0.336-0.971,1.358-0.983,1.96l-0.003,0.117l0.26-0.055
	c0.025,0,0.082-0.026,0.116-0.026c0.774-0.098,1.579-0.167,4.947-0.845c0,0,0.002-0.029-0.026-0.115
	c-0.048-0.347-0.257-1.27-0.256-1.299c-0.24-0.863-0.848-0.85-1.652-0.75C117.717,128.017,116.673,128.345,116.117,128.934"/>
<path d="M124.972,139.587c0.024-1.375-0.178-14.007,1.204-14.122c0.174,0.004,1.664-0.022,2.697-0.03l0.068,2.237
	c1.701-1.772,3.644-2.711,6.451-2.655c0.174,0.204,0.228,0.38,0.432,2.992c-3.503,0.074-6.756,2.162-7,5.516l-0.451,6.875
	l-0.062,0.086c-0.03,0.031-0.861,0.068-2.811-0.055C125.188,140.309,124.967,139.903,124.972,139.587"/>
<path d="M135.278,135.319c-0.47-3.882,1.036-8.877,6.071-9.491c4.894-0.593,5.919,1.122,6.409,5.266l0.151,1.15l-8.474,1.751
	c-0.03,0-0.205,0.167-0.235,0.252c-0.062,0.177-0.188,0.661,0.078,3.133c0.15,1.179,1.318,1.635,2.438,1.514
	c1.381-0.172,2.967-1.807,4.116-1.784c0.483,0.013,1.522,1.209,1.569,1.64l-0.002,0.144c-2,2.596-4.05,2.987-7.201,2.75
	C136.617,141.401,135.623,138.082,135.278,135.319 M140.103,129.417c-0.382,0.339-0.979,1.356-0.987,1.962l-0.006,0.112l0.264-0.053
	c0.027,0.001,0.083-0.025,0.117-0.024c0.772-0.098,1.578-0.17,4.951-0.846c0,0-0.002-0.028-0.026-0.116
	c-0.053-0.345-0.26-1.271-0.264-1.298c-0.24-0.864-0.841-0.849-1.646-0.75C141.699,128.501,140.659,128.828,140.103,129.417"/>
<path d="M155.226,140.887c-5.363-0.109-6.559-4.869-6.503-7.65l0.002-0.257c0.231-4.356,3.071-8.262,8.579-8.15
	c1.001,0.02,2.449,0.71,2.43,1.742c-0.011,0.402-0.854,2.395-1.284,2.386c-0.572-0.012-0.994-0.363-1.627-0.376
	c-2.179-0.046-3.471,1.422-4.252,3.07c-0.51,1.047-0.41,3.318,0.257,4.394c0.498,0.93,1.749,1.471,2.867,1.523l0.257,0.004
	c0.805,0.017,1.896-0.078,2.593-0.437c0.23-0.106,1.196-0.863,1.483-0.858c0.456,0.009,1.223,1.862,1.211,2.465
	c-0.028,1.374-4.089,2.159-5.18,2.134C155.769,140.898,155.483,140.893,155.226,140.887"/>
<path d="M162.636,140.55c-0.025-7.293,0.155-14.689-0.186-21.958l0.006-0.373l3.184,0.062c0.058,0.002,0.113,0.061,0.114,0.089
	c0.157,0.606,0.041,0.805,0.053,1.465c0.203,4.196,0.086,5.796,0.205,9.964c0.026,0.112,0.08,0.115,0.139,0.115
	c0.031,0.002,0.088-0.024,0.088-0.024c1.383-0.403,4.463-0.942,5.899-0.915c1.55,0.03,2.362,1.08,2.329,2.6l-0.078,8.265
	c-0.001,0.143,0.041,0.689,0.065,0.833l-0.001,0.144c-0.007,0.571-2.533,0.523-3.279,0.508l-0.316-0.005l-0.086-0.089
	c-0.114-1.408-0.147-5.368-0.396-7.27c-0.026-0.228-0.037-1.09-0.38-1.1c-0.834-0.018-3.274,0.05-3.829,0.7
	c-0.035,0.201-0.077,3.672-0.081,3.845l-0.078,3.874l-0.058,0.083c-0.518,0.018-2.507,0.292-3.243-0.066
	C162.71,141.183,162.634,140.662,162.636,140.55"/>
<path d="M176.216,138.814c0.058-2.755,1.455-5.05,4.312-5.995c1.127-0.381,3.053-0.458,3.797-0.441
	c0.347,0.006-0.156-3.562-2.021-3.6c-1.549-0.033-2.547,1.209-3.629,1.993c0,0-2.028-1.707-2.026-1.764
	c0.003-0.287,0.442-0.681,0.617-0.933c1.904-1.856,3.667-2.453,5.993-2.407c3.842,0.079,4.726,3.281,4.779,6.325l-0.007,0.261
	c0.084,2.983,0.021,6.052-0.18,9.034c-0.093,0.283-0.565,0.819-2.404,0.981l-0.115-0.003c-1.06-0.021-0.206-1.176-0.835-1.479
	c-0.43,0.307-0.585,0.654-1.104,0.927c-1.107,0.696-2.574,0.752-3.922,0.723c-2.146-0.042-3.206-1.696-3.255-3.423V138.814z
	 M184.291,138.345l0.014-0.72c0.021-0.974,0.02-2.492-0.47-2.503c-4.383-0.086-4.245,3.073-4.23,3.674
	C179.747,140.091,184.281,138.804,184.291,138.345"/>
<line fill="none" x1="109.768" y1="217.895" x2="204.863" y2="124.715"/>
<polyline fill="none" points="204.863,124.715 77.1,-5.674 -17.994,87.507 "/>
<path fill="#FFFFFF" d="M32.779,40.084c0.035-0.286,0.165-1.054,0.649-1.046c1.031,0.366,2.233,0.387,3.329,0.411l0.081,0.115
	c0,0,0.022,0.232,0.021,0.317c-0.001,0.117-0.035,0.43-0.038,0.485c-0.589,3.492-1.192,9.274-0.572,14.193
	c0.198,1.472,0.854,3.264,2.659,3.299c0.488,0.009,0.975,0.019,1.352-0.347c1.205-1.15,1.514-3.756,1.543-5.249
	c0.042-1.919,0.025-4.016,0.006-5.938c0.008-1.665-0.19-3.307-0.157-4.941c0.003-0.142,0.122-0.458,0.296-0.481l2.615-0.293
	c0.027-0.028,0.202-0.081,0.261-0.08c0.203,0.005,0.43,0.152,0.453,0.356c-0.003-0.061,0.031-0.09,0.031-0.09
	c0.173,0.003,1.245,10.873-1.126,17.256c-0.909,2.42-2.478,3.366-5.058,3.313l-0.402-0.008c-3.327-0.067-5.547-1.115-6.103-4.714
	c-0.409-2.506-0.534-4.919-0.482-7.443C32.587,41.233,32.716,40.369,32.779,40.084"/>
<path fill="#FFFFFF" d="M47.195,46.865c0.006-0.23,0.266-0.4,0.493-0.396l2.581,0.051c0.605,0.015,0.261,2.735,0.398,3.168
	c2.951-2.725,5.079-2.883,6.171-2.859c2.467,0.047,3.683,2.371,3.806,4.637l0.342,10.079c0.002,0.032-0.056,0.087-0.085,0.086
	l-3.076,0.051c-0.055-0.029-0.168-0.091-0.166-0.118l-0.395-7.497c-0.802-7.249-6.849-1.946-6.95,3.188
	c-0.033,1.608,0.135,3.22,0.104,4.825l-0.008,0.285c-0.891,0.068-1.636,0.053-2.527,0.034l-0.803-0.012l-0.168-0.208
	c0,0-0.024-0.169-0.019-0.254L47.195,46.865z"/>
<path fill="#FFFFFF" d="M73.803,57.874c0.116,0.005,0.174,0.005,0.285,0.09c1.01,1.227,0.959,2.349,2.88,2.386
	c1.12,0.023,2.29-0.93,2.31-2.107c0.046-2.15-1.324-2.524-3.183-2.845c-1.635-0.262-4.349-1.927-4.319-3.733
	c0.067-3.185,2.838-5.251,5.85-5.191c1.376,0.028,2.92,0.146,3.846,1.314l0.028,0.027c0.17,0.205,0.252,0.35,0.245,0.578
	c0.001,0.029-0.028,0.142-0.028,0.142c-0.299,0.54-1.402,2.499-1.798,2.491l-0.205-0.005l-0.199-0.12
	c-0.712-0.416-1.816-1.067-2.647-1.085c-0.634-0.012-1.153,0.41-1.168,1.068c-0.046,2.27,7.246,0.778,7.126,6.484
	c-0.069,3.413-2.245,6.125-6.005,6.048c-2.237-0.045-4.436-0.577-5.192-2.884c-0.08-0.233-0.272-0.813-0.262-1.331
	C71.365,59.2,73.458,57.867,73.803,57.874"/>
<path fill="#FFFFFF" d="M84.173,61.815c-0.024-7.288,0.153-14.693-0.188-21.959l0.005-0.375l3.186,0.067
	c0.054,0,0.112,0.058,0.111,0.087c0.162,0.606,0.043,0.806,0.055,1.463c0.207,4.192,0.087,5.8,0.203,9.963
	c0.025,0.116,0.084,0.115,0.143,0.119c0.028,0,0.084-0.027,0.084-0.027c1.386-0.4,4.47-0.941,5.903-0.912
	c1.552,0.029,2.359,1.076,2.328,2.598l-0.082,8.266c-0.001,0.141,0.046,0.691,0.072,0.831l-0.005,0.141
	c-0.009,0.579-2.535,0.527-3.283,0.51l-0.313-0.003l-0.086-0.088c-0.113-1.411-0.147-5.369-0.398-7.271
	c-0.023-0.228-0.033-1.092-0.379-1.1c-0.831-0.016-3.273,0.049-3.832,0.698c-0.028,0.204-0.074,3.674-0.08,3.847l-0.072,3.874
	l-0.061,0.085c-0.519,0.018-2.502,0.292-3.242-0.07C84.248,62.447,84.17,61.929,84.173,61.815"/>
<path fill="#FFFFFF" d="M108.238,48.183c2.947,1.924,4,5.075,3.941,8.087c-0.057,2.752-1.862,5.441-4.869,6.557
	c-1.561,0.57-3.565,0.388-5.191-0.19c-3.242-1.354-4.316-4.91-4.263-7.661C97.958,50.214,102.754,45.516,108.238,48.183
	 M102.504,57.851c0.438,1.129,1.427,1.87,2.776,1.895c2.382,0.048,3.17-2.208,3.204-3.869c0.12-5.994-6.541-7.307-6.669-0.909
	C101.794,55.941,102.119,56.925,102.504,57.851"/>
<path fill="#FFFFFF" d="M115.061,38.705c0.087-0.084,0.174-0.143,3.816,0.048c0.021,0.489,0.104,1.955-0.958,11.862l3.951,0.334
	c0.432,0.041,0.538,0.33,0.533,0.619c-0.022,1.087-0.204,1.54-0.511,2.626c-0.004,0.115-0.173,0.087-0.284,0.084l-3.933-0.192
	c-1.041,4.537-0.704,7.933,4.111,6.737c-0.012,0.688,0.108,1.78,0.091,2.614c-0.011,0.43-0.955,0.413-1.353,0.403
	c-3.847-0.077-7.504-0.956-6.087-10.054c-0.144-0.002-1.544-0.09-1.663-0.12c-0.057,0-0.169-0.091-0.169-0.091l0.071-3.439
	c0,0,0.112-0.056,0.171-0.055l1.466,0.088L115.061,38.705z"/>
<path fill="#FFFFFF" d="M31.415,85.049c0.055-2.755,1.452-5.051,4.309-5.998c1.128-0.377,3.052-0.454,3.796-0.438
	c0.348,0.006-0.154-3.563-2.023-3.603c-1.545-0.032-2.544,1.212-3.626,1.993c0,0-2.029-1.701-2.032-1.763
	c0.009-0.286,0.445-0.679,0.627-0.933c1.897-1.856,3.663-2.451,5.989-2.404c3.839,0.075,4.725,3.278,4.775,6.322l-0.003,0.259
	c0.085,2.987,0.021,6.057-0.185,9.034c-0.089,0.287-0.56,0.823-2.4,0.988l-0.114-0.001c-1.061-0.023-0.208-1.185-0.83-1.483
	c-0.441,0.305-0.589,0.652-1.108,0.924c-1.104,0.696-2.573,0.752-3.918,0.726c-2.153-0.042-3.211-1.703-3.265-3.425L31.415,85.049z
	 M39.486,84.582l0.014-0.72c0.019-0.972,0.023-2.493-0.465-2.505c-4.389-0.09-4.249,3.072-4.237,3.675
	C34.945,86.324,39.477,85.041,39.486,84.582"/>
<path fill="#FFFFFF" d="M56.124,63.821c0.087-0.079,0.171-0.138,3.814,0.05c0.018,0.489,0.104,1.953-0.958,11.865l3.95,0.333
	c0.433,0.041,0.541,0.331,0.536,0.616c-0.021,1.088-0.203,1.546-0.511,2.63c-0.005,0.113-0.177,0.084-0.291,0.08l-3.928-0.192
	c-1.034,4.541-0.705,7.934,4.112,6.74c-0.019,0.686,0.109,1.78,0.092,2.61c-0.011,0.43-0.956,0.415-1.359,0.404
	c-3.845-0.076-7.502-0.956-6.08-10.054c-0.144-0.002-1.548-0.087-1.664-0.117c-0.057,0-0.169-0.091-0.169-0.091l0.067-3.44
	c0,0,0.115-0.06,0.178-0.058l1.459,0.091L56.124,63.821z"/>
<path fill="#FFFFFF" d="M65.819,73.887l0.083-0.109l3.445,0.07c0.173,0.001,0.111,0.262,0.109,0.287
	c-0.045,2.211-0.401,4.357-0.447,6.536c-0.043,2.181,0.594,3.371,3.003,3.423l0.112-0.004c2.384,0.051,2.898-1.261,2.949-3.698
	c0.032-1.634-0.106-3.273-0.076-4.938c0.015-0.631,2.374-0.982,2.859-0.972l0.313,0.006c0.428,0.523,0.492,4.141,0.479,4.803
	l-0.02,1.03c-0.055,2.756-0.266,4.673-2.54,6.521c-2.206,1.188-4.984,1.021-7.471,0.309c-3.335-0.985-3.582-3.001-3.517-6.243
	C65.235,78.586,65.795,75.178,65.819,73.887"/>
<path fill="#FFFFFF" d="M37.487,113.975c-5.365-0.104-6.558-4.866-6.506-7.648l0.007-0.256c0.229-4.356,3.066-8.263,8.577-8.151
	c1.003,0.021,2.451,0.71,2.427,1.746c-0.006,0.402-0.851,2.39-1.279,2.381c-0.574-0.015-0.998-0.366-1.626-0.379
	c-2.185-0.044-3.476,1.425-4.254,3.072c-0.513,1.049-0.407,3.319,0.255,4.397c0.496,0.927,1.746,1.471,2.867,1.519l0.261,0.006
	c0.804,0.016,1.894-0.077,2.588-0.436c0.235-0.11,1.198-0.866,1.485-0.861c0.458,0.012,1.222,1.864,1.211,2.466
	c-0.028,1.376-4.089,2.156-5.183,2.135C38.033,113.988,37.747,113.983,37.487,113.975"/>
<path fill="#FFFFFF" d="M54.59,99.713c2.946,1.922,4.004,5.077,3.945,8.088c-0.058,2.756-1.863,5.444-4.869,6.558
	c-1.563,0.571-3.564,0.389-5.188-0.188c-3.245-1.358-4.32-4.909-4.265-7.665C44.308,101.746,49.109,97.05,54.59,99.713
	 M48.859,109.386c0.436,1.13,1.428,1.868,2.775,1.892c2.381,0.049,3.171-2.205,3.206-3.866c0.121-5.999-6.539-7.307-6.669-0.912
	C48.152,107.477,48.476,108.457,48.859,109.386"/>
<path fill="#FFFFFF" d="M59.902,104.041c0.069-3.472,2.204-4.119,3.753-4.088l0.201,0.009c1.578,0.086,3.244,2.962,3.749,4.924
	l0.088-0.087l0.24-0.454c1.075-2.216,2.422-5.03,5.205-4.973c3.646,0.072,3.963,2.665,4.31,5.54
	c0.186,6.229-0.055,6.855-0.108,9.667c-0.006,0.173-0.009,0.375-0.299,0.365l-2.38-0.045c-0.059-0.001-0.228-0.123-0.227-0.175
	l-0.286-7.012c-0.06-1.349,0.331-3.637-1.65-3.677c-1.919-0.039-2.761,4.623-2.965,4.906l-4.003,0.581
	c-0.321-1.098-0.395-4.601-1.827-4.63c-0.318-0.005-0.466,0.307-0.578,1.454c-0.055,2.896,0.371,5.858,0.317,8.586l-0.012,0.517
	c-0.061,0.229-0.181,0.339-0.38,0.364c-0.86,0.01-1.866,0.165-2.786,0.146c-0.03-0.001-0.232,0.024-0.256-0.121L59.902,104.041z"/>
<path fill="#FFFFFF" d="M79.364,100.987c-0.023-0.086-0.021-0.313,0.179-0.313l2.873-0.167c0.027-0.001,0.17,0.031,0.197,0.062
	c0.029-0.001,0.118,0.085,0.118,0.085l0.076,1.698c0.827-1.247,3.114-2.062,4.692-2.147c0.141,0.003,0.289-0.022,0.431-0.019
	c3.186,0.065,5.054,2.859,5.244,6.163c0.024,0.23,0.019,0.429,0.019,0.63c-0.109,5.366-5.036,7.558-10.229,4.875
	c0.296,3.65,0.312,4.221,0.521,7.9c0.023,0.516,0.078,1.981,0.08,2.07l-0.092,0.113c0,0-1.351,0.115-1.895,0.162l-1.099,0.09
	l-0.109-0.087c0.003-0.028-0.139-1.521-0.271-3.476C79.358,101.275,79.362,101.161,79.364,100.987 M83.972,108.743
	c1.698,2.445,5.258,1.199,5.315-1.755c0.001-0.117-0.023-0.231-0.022-0.347c-0.107-1.635-0.232-2.791-2.065-2.825
	c-0.114,0-0.26,0.023-0.403,0.023C84.872,103.941,82.3,106.301,83.972,108.743"/>
<path fill="#FFFFFF" d="M94.111,112.622c0.057-2.752,1.45-5.047,4.309-5.996c1.127-0.38,3.057-0.455,3.801-0.44
	c0.34,0.007-0.16-3.563-2.026-3.602c-1.548-0.032-2.549,1.211-3.626,1.995c0,0-2.031-1.704-2.031-1.763
	c0.004-0.286,0.444-0.682,0.623-0.935c1.902-1.856,3.666-2.451,5.988-2.403c3.844,0.075,4.729,3.28,4.782,6.321l-0.007,0.262
	c0.082,2.981,0.02,6.055-0.181,9.031c-0.093,0.284-0.565,0.822-2.403,0.99l-0.117-0.003c-1.057-0.022-0.204-1.184-0.831-1.484
	c-0.434,0.306-0.585,0.651-1.105,0.928c-1.104,0.692-2.569,0.75-3.918,0.724c-2.15-0.045-3.212-1.704-3.261-3.425L94.111,112.622z
	 M102.183,112.155l0.013-0.719c0.025-0.971,0.025-2.494-0.464-2.506c-4.39-0.088-4.249,3.072-4.233,3.676
	C97.644,113.9,102.177,112.616,102.183,112.155"/>
<path fill="#FFFFFF" d="M107.869,100.705c0.006-0.23,0.266-0.397,0.493-0.394l2.583,0.052c0.605,0.015,0.261,2.732,0.398,3.169
	c2.949-2.729,5.078-2.885,6.17-2.863c2.468,0.053,3.682,2.372,3.809,4.639l0.342,10.081c0.001,0.028-0.063,0.084-0.091,0.085
	l-3.07,0.051c-0.058-0.026-0.173-0.088-0.168-0.115l-0.394-7.5c-0.803-7.247-6.85-1.946-6.954,3.191
	c-0.03,1.607,0.136,3.22,0.105,4.823l-0.007,0.286c-0.893,0.072-1.639,0.056-2.527,0.035l-0.8-0.016l-0.172-0.207
	c0,0-0.022-0.169-0.022-0.255L107.869,100.705z M110.165,96.386c0.739-1.161,1.641-1.66,3.135-1.628
	c1.69,0.035,1.884,1.816,3.432,1.848c0.749,0.017,0.521-1.771,1.068-1.757c0.345,0.006,0.634,0.011,2.172,0.504
	c-0.041,2.035-1.511,3.728-3.606,3.686c-0.658-0.015-1.369-0.286-1.966-0.615c-0.424-0.268-0.755-0.819-1.305-0.828
	c-1.261-0.026-1.005,1.443-1.721,1.428c-0.199-0.004-1.624-0.435-1.738-0.608C109.659,97.324,109.808,96.982,110.165,96.386"/>
<path fill="#FFFFFF" d="M122.941,110.536c-0.469-3.882,1.04-8.876,6.069-9.494c4.894-0.588,5.92,1.128,6.413,5.271l0.145,1.15
	l-8.469,1.75c-0.029,0-0.203,0.169-0.239,0.253c-0.058,0.172-0.184,0.655,0.083,3.13c0.146,1.178,1.317,1.632,2.434,1.513
	c1.385-0.175,2.969-1.806,4.114-1.782c0.489,0.008,1.526,1.205,1.572,1.636l-0.004,0.146c-2.002,2.602-4.046,2.991-7.199,2.751
	C124.282,116.621,123.287,113.296,122.941,110.536 M127.765,104.633c-0.38,0.336-0.974,1.361-0.986,1.962l-0.006,0.115l0.263-0.051
	c0.029-0.003,0.083-0.031,0.111-0.032c0.781-0.096,1.585-0.166,4.952-0.845c0,0,0.004-0.026-0.021-0.113
	c-0.05-0.349-0.261-1.27-0.261-1.3c-0.237-0.86-0.846-0.85-1.648-0.748C129.362,103.721,128.32,104.044,127.765,104.633"/>
<path fill="#FFFFFF" d="M136.619,115.288c0.028-1.376-0.178-14.007,1.199-14.125c0.175,0.004,1.667-0.021,2.7-0.028l0.071,2.237
	c1.697-1.772,3.643-2.708,6.454-2.652c0.167,0.205,0.219,0.375,0.424,2.991c-3.498,0.073-6.754,2.164-6.996,5.514l-0.454,6.879
	l-0.056,0.085c-0.031,0.027-0.865,0.07-2.815-0.059C136.835,116.011,136.613,115.602,136.619,115.288"/>
<path fill="#FFFFFF" d="M156.811,101.776c2.943,1.922,4.001,5.078,3.939,8.088c-0.058,2.753-1.862,5.444-4.867,6.556
	c-1.564,0.576-3.567,0.393-5.19-0.188c-3.245-1.357-4.317-4.908-4.268-7.664C146.523,103.809,151.324,99.112,156.811,101.776
	 M151.072,111.447c0.436,1.131,1.43,1.869,2.777,1.895c2.379,0.051,3.171-2.205,3.206-3.869c0.119-5.998-6.541-7.306-6.666-0.91
	C150.363,109.54,150.689,110.521,151.072,111.447"/>
<path fill="#FFFFFF" d="M39.832,139.987c-2.053,0.793-2.869,1.349-5.047,1.302c-2.555-0.053-4.441-2.069-4.39-4.563
	c-0.02-0.17-0.02-0.346-0.014-0.544c0.094-4.618,5.175-7.529,9.459-6.611l0.348-11.528c0.033-0.204,0.206-0.287,3.674-0.043
	c0.111,0.148,0.079,0.289,0.077,0.43c-0.093,4.708-0.5,9.374-0.597,14.055c-0.061,2.954-0.003,5.908-0.067,8.924l-0.005,0.369
	c-0.209,0.313-2.103,0.332-2.59,0.322c-0.062-0.002-0.346-0.034-0.432-0.037c-0.255-0.093-0.25-0.582-0.244-0.724
	C40.011,140.965,40.289,140.083,39.832,139.987 M39.521,136.995l0.014-0.688c-0.016-0.919-0.068-3.76-0.096-3.761
	c-0.26-0.035-0.548-0.039-0.775-0.047c-4.416-0.084-4.561,2.549-4.59,4.161l-0.005,0.253
	C34.023,138.98,38.305,137.545,39.521,136.995"/>
<path fill="#FFFFFF" d="M45.469,135.279c-0.47-3.883,1.039-8.876,6.07-9.491c4.892-0.59,5.919,1.124,6.414,5.266l0.147,1.154
	l-8.477,1.747c-0.028,0.001-0.204,0.169-0.234,0.257c-0.06,0.171-0.182,0.656,0.083,3.13c0.146,1.178,1.313,1.632,2.436,1.51
	c1.38-0.171,2.964-1.803,4.113-1.778c0.483,0.007,1.525,1.206,1.571,1.636l-0.001,0.146c-2.005,2.597-4.05,2.985-7.202,2.751
	C46.806,141.363,45.815,138.042,45.469,135.279 M50.294,129.379c-0.38,0.333-0.976,1.357-0.988,1.956l-0.004,0.117l0.263-0.051
	c0.024,0,0.083-0.025,0.112-0.028c0.778-0.097,1.584-0.17,4.953-0.847c0,0,0.001-0.028-0.028-0.114
	c-0.051-0.348-0.256-1.265-0.258-1.296c-0.241-0.864-0.846-0.85-1.65-0.75C51.892,128.464,50.849,128.788,50.294,129.379"/>
<path fill="#FFFFFF" d="M68.848,117.155l3.792,0.078c-0.023,0.944,0.074,1.837,0.057,2.786l-0.011,0.283l-1.123,20.182
	c-0.089,0.288-1.123,0.265-2.302,0.242l-0.284-0.005c-0.432-0.07-0.289-1.442-0.342-1.757L68.848,117.155z"/>
<path fill="#FFFFFF" d="M74.042,138.527c0.056-2.753,1.45-5.05,4.313-6c1.127-0.377,3.052-0.453,3.796-0.438
	c0.341,0.006-0.155-3.559-2.024-3.601c-1.547-0.03-2.548,1.211-3.627,1.993c0,0-2.028-1.703-2.029-1.763
	c0.01-0.287,0.44-0.681,0.621-0.93c1.905-1.86,3.664-2.453,5.989-2.407c3.842,0.075,4.729,3.279,4.781,6.324l-0.006,0.26
	c0.083,2.981,0.02,6.056-0.182,9.033c-0.094,0.287-0.563,0.821-2.401,0.985l-0.117-0.002c-1.06-0.021-0.206-1.18-0.833-1.482
	c-0.434,0.309-0.584,0.652-1.105,0.927c-1.107,0.693-2.568,0.749-3.916,0.723c-2.156-0.042-3.213-1.699-3.263-3.422L74.042,138.527z
	 M82.112,138.056l0.019-0.718c0.021-0.972,0.021-2.492-0.469-2.504c-4.392-0.089-4.251,3.071-4.233,3.675
	C77.576,139.804,82.108,138.519,82.112,138.056"/>
<path fill="#FFFFFF" d="M105.643,141.313c-2.053,0.795-2.87,1.35-5.049,1.308c-2.553-0.054-4.436-2.073-4.389-4.566
	c-0.02-0.17-0.019-0.344-0.017-0.543c0.097-4.619,5.177-7.531,9.462-6.616l0.349-11.525c0.029-0.205,0.206-0.284,3.674-0.042
	c0.111,0.146,0.077,0.287,0.076,0.428c-0.094,4.71-0.505,9.378-0.603,14.054c-0.059,2.955,0,5.91-0.063,8.923l-0.007,0.371
	c-0.206,0.314-2.099,0.334-2.585,0.324c-0.062-0.001-0.347-0.035-0.438-0.038c-0.248-0.089-0.242-0.58-0.239-0.722
	C105.824,142.295,106.094,141.411,105.643,141.313 M105.327,138.323l0.017-0.689c-0.014-0.918-0.069-3.758-0.099-3.76
	c-0.257-0.034-0.542-0.038-0.774-0.047c-4.416-0.085-4.556,2.55-4.593,4.158l-0.001,0.254
	C99.836,140.309,104.111,138.875,105.327,138.323"/>
<path fill="#FFFFFF" d="M111.274,136.607c-0.47-3.883,1.042-8.875,6.073-9.49c4.892-0.589,5.92,1.125,6.412,5.266l0.147,1.153
	l-8.475,1.748c-0.029,0-0.199,0.169-0.237,0.254c-0.056,0.171-0.18,0.656,0.086,3.132c0.146,1.175,1.315,1.632,2.438,1.51
	c1.381-0.174,2.964-1.802,4.112-1.78c0.485,0.009,1.525,1.207,1.571,1.636l-0.007,0.146c-2,2.598-4.044,2.988-7.195,2.753
	C112.615,142.691,111.622,139.371,111.274,136.607 M116.101,130.707c-0.382,0.337-0.972,1.357-0.987,1.959l-0.003,0.117l0.261-0.054
	c0.029,0.002,0.081-0.027,0.115-0.026c0.777-0.098,1.583-0.168,4.95-0.846c0,0,0.001-0.027-0.026-0.115
	c-0.048-0.345-0.258-1.269-0.258-1.297c-0.24-0.862-0.847-0.852-1.65-0.75C117.695,129.791,116.653,130.117,116.101,130.707"/>
<path fill="#FFFFFF" d="M124.952,141.358c0.029-1.373-0.171-14.006,1.205-14.121c0.172,0.003,1.668-0.022,2.698-0.03l0.067,2.238
	c1.701-1.775,3.644-2.71,6.456-2.654c0.169,0.205,0.221,0.378,0.429,2.988c-3.505,0.078-6.759,2.165-6.999,5.518l-0.452,6.878
	l-0.063,0.086c-0.026,0.03-0.86,0.067-2.814-0.059C125.172,142.083,124.951,141.676,124.952,141.358"/>
<path fill="#FFFFFF" d="M135.26,137.092c-0.467-3.882,1.038-8.875,6.071-9.491c4.892-0.592,5.923,1.125,6.414,5.266l0.148,1.151
	l-8.478,1.753c-0.027-0.003-0.202,0.167-0.234,0.253c-0.062,0.173-0.183,0.656,0.08,3.131c0.152,1.176,1.315,1.631,2.438,1.509
	c1.379-0.17,2.966-1.803,4.111-1.778c0.487,0.007,1.522,1.205,1.573,1.635l-0.001,0.146c-2.003,2.596-4.048,2.988-7.203,2.751
	C136.601,143.176,135.606,139.855,135.26,137.092 M140.082,131.191c-0.376,0.337-0.975,1.357-0.987,1.959v0.115l0.26-0.051
	c0.029,0,0.084-0.029,0.116-0.026c0.773-0.097,1.58-0.172,4.95-0.848c0,0,0.001-0.028-0.025-0.115
	c-0.05-0.346-0.258-1.27-0.259-1.297c-0.244-0.864-0.845-0.849-1.648-0.749C141.68,130.274,140.641,130.6,140.082,131.191"/>
<path fill="#FFFFFF" d="M155.203,142.662c-5.36-0.108-6.555-4.871-6.498-7.651l0.006-0.257c0.229-4.358,3.063-8.262,8.572-8.151
	c1.004,0.021,2.452,0.71,2.432,1.744c-0.008,0.4-0.853,2.393-1.281,2.384c-0.576-0.012-0.996-0.366-1.629-0.378
	c-2.181-0.046-3.472,1.425-4.252,3.07c-0.509,1.05-0.412,3.322,0.257,4.4c0.497,0.927,1.75,1.468,2.865,1.518l0.258,0.005
	c0.802,0.016,1.896-0.078,2.596-0.435c0.23-0.109,1.192-0.866,1.479-0.861c0.462,0.01,1.225,1.863,1.214,2.465
	c-0.031,1.377-4.09,2.158-5.179,2.135C155.752,142.673,155.465,142.667,155.203,142.662"/>
<path fill="#FFFFFF" d="M162.618,142.32c-0.028-7.289,0.157-14.688-0.187-21.955l0.004-0.375l3.186,0.065
	c0.056,0,0.114,0.058,0.112,0.086c0.159,0.608,0.043,0.806,0.058,1.465c0.201,4.198,0.085,5.798,0.206,9.964
	c0.023,0.115,0.075,0.116,0.137,0.117c0.027,0,0.088-0.026,0.088-0.026c1.385-0.4,4.466-0.94,5.897-0.911
	c1.552,0.031,2.363,1.076,2.332,2.599l-0.08,8.264c-0.007,0.145,0.045,0.692,0.066,0.832l-0.004,0.146
	c-0.008,0.572-2.534,0.521-3.278,0.506l-0.311-0.006l-0.091-0.088c-0.112-1.409-0.146-5.368-0.397-7.271
	c-0.027-0.227-0.037-1.091-0.381-1.099c-0.833-0.017-3.272,0.048-3.83,0.7c-0.032,0.201-0.073,3.672-0.077,3.845l-0.075,3.875
	l-0.063,0.083c-0.516,0.018-2.501,0.291-3.237-0.066C162.692,142.955,162.616,142.436,162.618,142.32"/>
<path fill="#FFFFFF" d="M176.201,140.588c0.054-2.755,1.447-5.049,4.307-5.997c1.131-0.378,3.056-0.455,3.8-0.44
	c0.343,0.008-0.158-3.56-2.021-3.599c-1.554-0.034-2.554,1.21-3.629,1.992c0,0-2.033-1.706-2.028-1.766
	c0.003-0.284,0.44-0.678,0.62-0.931c1.904-1.857,3.662-2.453,5.986-2.406c3.844,0.078,4.728,3.281,4.783,6.327l-0.007,0.259
	c0.082,2.983,0.023,6.056-0.181,9.035c-0.094,0.286-0.567,0.818-2.403,0.983l-0.116-0.002c-1.061-0.023-0.205-1.181-0.832-1.479
	c-0.436,0.304-0.583,0.65-1.108,0.924c-1.105,0.696-2.572,0.75-3.915,0.725c-2.151-0.044-3.209-1.701-3.262-3.425L176.201,140.588z
	 M184.273,140.118l0.016-0.718c0.021-0.974,0.02-2.492-0.473-2.503c-4.386-0.088-4.247,3.072-4.23,3.673
	C179.729,141.861,184.265,140.578,184.273,140.118"/>
</svg>
