<?xml version="1.0" encoding="utf-8"?>
<!-- Generator: Adobe Illustrator 16.0.0, SVG Export Plug-In . SVG Version: 6.00 Build 0)  -->
<!DOCTYPE svg PUBLIC "-//W3C//DTD SVG 1.1//EN" "http://www.w3.org/Graphics/SVG/1.1/DTD/svg11.dtd">
<svg version="1.1" id="Capa_1" xmlns="http://www.w3.org/2000/svg" xmlns:xlink="http://www.w3.org/1999/xlink" x="0px" y="0px"
	 width="306.914px" height="192.5px" viewBox="0 0 306.914 192.5" enable-background="new 0 0 306.914 192.5" xml:space="preserve">
<path d="M85.524,156.261c0-20.404-0.084-38.484-0.255-54.243s-0.4-29.366-0.686-40.819l-14.107,5.984L70.049,44.87l15.392-9.32
	l20.261,0.003c0.002,20.973,0.096,41.561,0.298,61.764s0.499,40.022,0.897,59.457L85.524,156.261z"/>
<polyline fill="none" points="166.911,96.76 92.535,22.384 22.09,92.83 "/>
<path fill="#FFFFFF" d="M86.885,156.262c0-20.405-0.085-38.486-0.254-54.244c-0.172-15.761-0.402-29.367-0.688-40.82l-14.106,5.985
	L71.411,44.87L86.8,35.549l20.261,0.002c0,20.974,0.097,41.563,0.299,61.766c0.2,20.204,0.498,40.021,0.897,59.458L86.885,156.262z"
	/>
<g>
	<rect x="140.731" y="115.115" width="113.551" height="24.549"/>
	<line fill="none" x1="197.507" y1="196.44" x2="266.557" y2="127.389"/>
	<line fill="none" x1="197.507" y1="58.34" x2="128.457" y2="127.39"/>
	<rect x="141.812" y="115.115" fill="#35205A" width="113.55" height="24.549"/>
	<path d="M153.518,65.844c-8.096-0.001-10.044-7.145-10.044-11.345v-0.39c0.217-6.582,4.373-12.555,12.687-12.555
		c1.514-0.001,3.724,0.994,3.726,2.552c-0.002,0.606-1.215,3.636-1.863,3.638c-0.866,0-1.517-0.519-2.468-0.518
		c-3.292-0.001-5.197,2.25-6.323,4.761c-0.735,1.602-0.519,5.024,0.519,6.625c0.781,1.386,2.687,2.165,4.376,2.208l0.389-0.001
		c1.213,0.002,2.857-0.172,3.897-0.734c0.345-0.174,1.772-1.342,2.209-1.343c0.691,0,1.904,2.771,1.904,3.683
		c0,2.076-6.105,3.374-7.75,3.374C154.342,65.843,153.908,65.844,153.518,65.844"/>
	<path d="M164.434,62.078c0-4.158,2.038-7.665,6.321-9.183c1.689-0.604,4.591-0.778,5.717-0.779
		c0.519,0.001-0.347-5.368-3.161-5.369c-2.338,0.001-3.811,1.907-5.411,3.118c0,0-3.119-2.511-3.119-2.598
		c0-0.433,0.65-1.039,0.91-1.429c2.813-2.857,5.456-3.81,8.963-3.81c5.802,0,7.229,4.807,7.406,9.397l-0.002,0.39
		c0.219,4.502,0.216,9.137,0,13.64c-0.13,0.431-0.822,1.254-3.594,1.557l-0.173,0.001c-1.603,0-0.349-1.775-1.3-2.21
		c-0.649,0.477-0.866,0.996-1.644,1.431c-1.648,1.081-3.855,1.212-5.891,1.21c-3.247,0-4.894-2.467-5.023-5.065V62.078z
		 M176.601,61.124v-1.082c0.002-1.474-0.044-3.767-0.779-3.767c-6.621,0-6.32,4.763-6.279,5.673
		C169.804,63.895,176.603,61.816,176.601,61.124"/>
	<path d="M188.469,59.478c0.174-0.002,0.261,0,0.433,0.129c1.56,1.82,1.518,3.51,4.416,3.509c1.69,0,3.423-1.473,3.422-3.247
		c0-3.248-2.079-3.768-4.895-4.201c-2.467-0.347-6.624-2.771-6.624-5.499c0-4.806,4.115-8.009,8.661-8.01
		c2.078-0.001,4.416,0.131,5.846,1.863l0.042,0.043c0.262,0.303,0.392,0.518,0.391,0.866c0.001,0.042-0.044,0.218-0.044,0.218
		c-0.434,0.821-2.036,3.809-2.641,3.809l-0.303,0l-0.305-0.173c-1.081-0.606-2.771-1.558-4.026-1.559
		c-0.952,0-1.731,0.65-1.731,1.646c0.001,3.42,10.955,0.952,10.955,9.569c-0.002,5.153-3.205,9.311-8.877,9.308
		c-3.378,0.001-6.712-0.735-7.925-4.198c-0.128-0.348-0.434-1.213-0.432-1.993C184.832,61.557,187.95,59.479,188.469,59.478"/>
	<path d="M204.882,35.707c-0.001-4.504,5.456-6.496,6.669-1.733c0,0,0.045,0.521,0.043,0.693c0,1.949-0.91,4.288-3.118,4.287
		c-1.298-0.001-3.074-0.606-3.55-1.991C204.926,36.744,204.884,35.88,204.882,35.707 M203.8,64.154c0,0,0.78-19.873,1.602-19.873
		c0.175,0,0.26,0.042,4.461,0.129c0.391,0,0.433,0.389,0.434,0.605c0.001,0.086-0.045,0.389-0.043,0.432
		c-0.045,1.3-0.39,7.015-1.603,20.308c-0.044,0.565-0.131,0.738-0.65,0.824c-1.343-0.085-2.643,0.26-4.025-0.129
		c-0.045,0.002-0.133-0.086-0.131-0.13C203.8,65.973,203.801,64.458,203.8,64.154"/>
	<path d="M214.367,29.991h5.716c-0.002,1.43,0.172,2.771,0.175,4.199l-0.003,0.434l-1.083,30.483
		c-0.129,0.436-1.688,0.433-3.464,0.436l-0.431-0.003c-0.65-0.085-0.479-2.165-0.563-2.64L214.367,29.991z"/>
	<path d="M223.028,29.99l5.715,0c0,1.431,0.175,2.773,0.174,4.201l0.001,0.435l-1.084,30.483c-0.13,0.433-1.688,0.434-3.464,0.433
		l-0.433,0c-0.65-0.089-0.476-2.167-0.563-2.642L223.028,29.99z"/>
	<path d="M231.515,62.074c0.001-4.155,2.036-7.662,6.321-9.178c1.691-0.606,4.592-0.778,5.718-0.78c0.519,0-0.346-5.369-3.162-5.368
		c-2.337-0.001-3.811,1.906-5.412,3.116c0,0-3.118-2.511-3.118-2.596c0-0.434,0.649-1.04,0.909-1.43
		c2.814-2.857,5.456-3.81,8.964-3.81c5.802,0,7.23,4.807,7.405,9.396v0.39c0.217,4.502,0.215,9.138-0.002,13.64
		c-0.129,0.432-0.821,1.255-3.592,1.558l-0.174,0c-1.602,0-0.346-1.776-1.3-2.209c-0.649,0.477-0.866,0.996-1.645,1.43
		c-1.646,1.081-3.854,1.21-5.89,1.212c-3.247,0-4.893-2.468-5.022-5.066L231.515,62.074z M243.685,61.123l-0.001-1.081
		c0-1.473-0.042-3.767-0.778-3.767c-6.628,0-6.324,4.763-6.28,5.673C236.886,63.895,243.684,61.817,243.685,61.123"/>
	<path d="M143.472,103.953c0-4.157,2.036-7.664,6.323-9.182c1.688-0.604,4.59-0.777,5.716-0.777c0.52,0.001-0.346-5.37-3.161-5.369
		c-2.338-0.001-3.811,1.906-5.414,3.117c0,0-3.118-2.512-3.116-2.598c0.001-0.433,0.648-1.038,0.909-1.428
		c2.814-2.858,5.456-3.813,8.965-3.813c5.802-0.001,7.23,4.807,7.403,9.399l-0.001,0.39c0.217,4.501,0.217,9.136,0.001,13.637
		c-0.131,0.434-0.821,1.256-3.595,1.56l-0.172,0c-1.603,0-0.348-1.774-1.3-2.208c-0.649,0.476-0.865,0.995-1.646,1.431
		c-1.644,1.082-3.853,1.212-5.888,1.212c-3.249,0-4.894-2.468-5.024-5.067V103.953z M155.642,103l-0.002-1.081
		c0.002-1.472-0.043-3.767-0.777-3.768c-6.627,0-6.324,4.764-6.28,5.674C148.844,105.77,155.642,103.695,155.642,103"/>
	<path d="M167.118,71.174c0.13-0.13,0.261-0.218,5.759-0.043c0.045,0.736,0.216,2.944-1.083,17.924l5.977,0.392
		c0.649,0.043,0.822,0.476,0.821,0.909c0.001,1.644-0.259,2.339-0.692,3.984c0,0.174-0.261,0.129-0.433,0.13l-5.933-0.173
		c-1.429,6.885-0.821,11.994,6.409,10.044c0,1.041,0.215,2.686,0.216,3.942c0,0.648-1.428,0.65-2.034,0.65
		c-5.803-0.001-11.347-1.213-9.484-14.982c-0.216-0.002-2.338-0.087-2.513-0.131c-0.085,0-0.257-0.129-0.257-0.129l-0.003-5.197
		c0,0,0.176-0.086,0.262-0.086l2.209,0.086L167.118,71.174z"/>
	<path d="M181.323,106.679c0-2.077-0.693-21.129,1.385-21.344c0.261-0.001,2.512-0.088,4.07-0.132l0.174,3.378
		c2.512-2.729,5.413-4.2,9.656-4.2c0.26,0.302,0.347,0.562,0.735,4.502c-5.282,0.217-10.131,3.463-10.392,8.529l-0.477,10.393
		l-0.085,0.13c-0.044,0.042-1.3,0.128-4.246,0C181.669,107.763,181.323,107.156,181.323,106.679"/>
	<path d="M202.457,79.662c0.001-0.044,0-0.216,0.043-0.217c0.174-0.26,1.083-1.429,1.343-1.69c1.212-1.515,2.51-2.987,3.638-4.545
		c0.52-0.651,0.821-1.56,1.688-1.56c0.995-0.002,2.728,1.344,2.728,2.511c-0.217,1.907-3.853,4.547-5.023,6.281
		c-0.129,0.172-0.347,0.26-0.562,0.259C205.66,80.702,202.413,80.008,202.457,79.662 M198.256,103.954
		c0-4.157,2.036-7.666,6.321-9.182c1.691-0.606,4.592-0.778,5.718-0.78c0.519,0.002-0.348-5.368-3.162-5.367
		c-2.336-0.001-3.811,1.906-5.411,3.117c0,0-3.118-2.512-3.119-2.598c0-0.433,0.65-1.039,0.911-1.429
		c2.812-2.857,5.454-3.811,8.962-3.811c5.802-0.001,7.23,4.808,7.406,9.398l-0.001,0.389c0.218,4.503,0.215,9.138,0,13.64
		c-0.131,0.432-0.823,1.255-3.594,1.558h-0.175c-1.603,0-0.346-1.773-1.297-2.208c-0.651,0.476-0.868,0.996-1.646,1.43
		c-1.647,1.082-3.855,1.212-5.89,1.211c-3.248,0.001-4.895-2.467-5.024-5.065V103.954z M210.424,103v-1.082
		c0.001-1.475-0.044-3.768-0.778-3.769c-6.625,0.001-6.321,4.765-6.281,5.675C203.627,105.77,210.425,103.693,210.424,103"/>
	<path d="M222.291,101.354c0.174-0.001,0.261,0,0.435,0.128c1.558,1.82,1.515,3.509,4.416,3.509c1.688,0,3.422-1.472,3.42-3.249
		c0-3.248-2.078-3.765-4.895-4.199c-2.466-0.347-6.624-2.772-6.624-5.5c0-4.805,4.114-8.011,8.661-8.01
		c2.078-0.001,4.415,0.13,5.847,1.861l0.041,0.044c0.263,0.303,0.392,0.518,0.391,0.866c0.001,0.043-0.044,0.216-0.044,0.216
		c-0.434,0.823-2.035,3.811-2.641,3.811h-0.303l-0.303-0.173c-1.082-0.607-2.773-1.557-4.026-1.558
		c-0.954,0-1.734,0.648-1.732,1.645c0,3.419,10.954,0.952,10.954,9.57c0,5.153-3.205,9.308-8.876,9.308
		c-3.379,0-6.712-0.736-7.925-4.198c-0.129-0.348-0.434-1.214-0.433-1.993C218.654,103.433,221.771,101.354,222.291,101.354"/>
	<polyline fill="none" points="271.643,68.851 197.459,-5.333 114.582,77.543 	"/>
	<polyline fill="none" points="114.582,77.543 188.766,151.728 271.643,68.851 	"/>
	<path fill="#FFFFFF" d="M154.772,65.842c-8.098,0-10.046-7.145-10.046-11.344v-0.39c0.218-6.582,4.375-12.557,12.688-12.555
		c1.514,0,3.723,0.996,3.724,2.554c-0.001,0.606-1.214,3.636-1.863,3.638c-0.866,0-1.515-0.52-2.467-0.52
		c-3.291-0.002-5.198,2.25-6.322,4.762c-0.737,1.603-0.52,5.024,0.519,6.626c0.78,1.384,2.686,2.164,4.373,2.209l0.391-0.001
		c1.215,0,2.857-0.173,3.898-0.736c0.346-0.175,1.773-1.343,2.207-1.341c0.694-0.002,1.906,2.771,1.907,3.681
		c-0.001,2.078-6.107,3.376-7.752,3.375C155.595,65.842,155.161,65.842,154.772,65.842"/>
	<path fill="#FFFFFF" d="M165.688,62.076c0-4.157,2.033-7.662,6.321-9.182c1.688-0.604,4.59-0.777,5.715-0.778
		c0.519,0.001-0.346-5.368-3.162-5.368c-2.336-0.001-3.809,1.905-5.409,3.117c0,0-3.12-2.511-3.12-2.598
		c0-0.434,0.649-1.038,0.91-1.428c2.814-2.859,5.458-3.812,8.963-3.81c5.802-0.001,7.23,4.805,7.405,9.397l-0.001,0.39
		c0.218,4.502,0.217,9.136,0.002,13.638c-0.133,0.432-0.825,1.255-3.596,1.558l-0.174,0.001c-1.602,0-0.346-1.776-1.298-2.21
		c-0.65,0.477-0.866,0.997-1.646,1.432c-1.646,1.08-3.854,1.211-5.891,1.21c-3.247,0.001-4.893-2.468-5.022-5.066L165.688,62.076z
		 M177.855,61.122l-0.001-1.081c0-1.474-0.043-3.768-0.778-3.769c-6.625,0.003-6.322,4.765-6.28,5.674
		C171.057,63.893,177.854,61.816,177.855,61.122"/>
	<path fill="#FFFFFF" d="M189.724,59.476c0.171,0,0.261,0,0.43,0.131c1.56,1.82,1.518,3.51,4.419,3.507
		c1.688,0.001,3.421-1.471,3.421-3.248c0-3.248-2.079-3.766-4.894-4.2c-2.469-0.345-6.627-2.77-6.625-5.499
		c-0.002-4.805,4.115-8.009,8.659-8.009c2.078-0.001,4.418,0.13,5.847,1.861l0.044,0.043c0.259,0.305,0.391,0.52,0.391,0.866
		c0,0.044-0.045,0.219-0.045,0.219c-0.434,0.822-2.035,3.808-2.642,3.808l-0.302,0.002l-0.305-0.174
		c-1.083-0.605-2.771-1.558-4.026-1.558c-0.953,0-1.732,0.649-1.73,1.643c-0.002,3.422,10.953,0.952,10.952,9.571
		c0,5.152-3.204,9.31-8.875,9.309c-3.38,0.001-6.713-0.735-7.925-4.2c-0.127-0.348-0.433-1.213-0.434-1.991
		C186.084,61.557,189.205,59.477,189.724,59.476"/>
	<path fill="#FFFFFF" d="M206.136,35.706c0-4.505,5.456-6.497,6.667-1.732c0,0,0.045,0.521,0.045,0.691
		c0,1.95-0.909,4.288-3.118,4.288c-1.298,0-3.074-0.606-3.549-1.991C206.178,36.744,206.136,35.88,206.136,35.706 M205.053,64.154
		c0,0,0.779-19.873,1.604-19.875c0.172,0.001,0.258,0.043,4.46,0.13c0.39,0,0.434,0.389,0.434,0.606
		c0,0.087-0.045,0.389-0.044,0.432c-0.044,1.299-0.39,7.016-1.603,20.308c-0.044,0.563-0.129,0.737-0.649,0.824
		c-1.343-0.086-2.644,0.259-4.026-0.13c-0.044,0.001-0.131-0.086-0.13-0.13C205.053,65.972,205.055,64.457,205.053,64.154"/>
	<path fill="#FFFFFF" d="M215.62,29.989h5.716c0,1.43,0.174,2.771,0.174,4.202v0.431l-1.084,30.484
		c-0.129,0.435-1.688,0.434-3.463,0.435l-0.434-0.001c-0.648-0.086-0.477-2.167-0.563-2.641L215.62,29.989z"/>
	<path fill="#FFFFFF" d="M224.281,29.99l5.716,0c0,1.431,0.173,2.773,0.175,4.2l-0.002,0.436l-1.082,30.482
		c-0.132,0.434-1.688,0.433-3.466,0.434l-0.43-0.001c-0.651-0.086-0.478-2.165-0.563-2.641L224.281,29.99z"/>
	<path fill="#FFFFFF" d="M232.767,62.075c0.003-4.155,2.037-7.662,6.324-9.181c1.688-0.604,4.59-0.777,5.715-0.777
		c0.519,0-0.345-5.37-3.16-5.369c-2.338-0.001-3.81,1.905-5.412,3.117c0,0-3.118-2.512-3.117-2.598
		c-0.001-0.433,0.649-1.04,0.909-1.43c2.813-2.856,5.456-3.81,8.964-3.81c5.802,0,7.23,4.807,7.403,9.396v0.39
		c0.216,4.505,0.217,9.139,0,13.64c-0.131,0.434-0.822,1.255-3.595,1.56l-0.171-0.001c-1.604,0-0.349-1.774-1.301-2.208
		c-0.649,0.477-0.865,0.995-1.646,1.43c-1.645,1.081-3.854,1.211-5.89,1.212c-3.245,0-4.892-2.468-5.021-5.066L232.767,62.075z
		 M244.938,61.123l-0.002-1.081c0-1.473-0.042-3.767-0.777-3.767c-6.627,0-6.323,4.763-6.28,5.672
		C238.14,63.893,244.936,61.817,244.938,61.123"/>
	<path fill="#FFFFFF" d="M144.726,103.952c0.001-4.158,2.037-7.665,6.323-9.18c1.689-0.606,4.589-0.779,5.716-0.78
		c0.521,0.001-0.347-5.369-3.161-5.369c-2.338,0-3.811,1.907-5.413,3.117c0,0-3.119-2.511-3.119-2.597
		c0.001-0.432,0.65-1.039,0.91-1.43c2.813-2.855,5.456-3.81,8.965-3.811c5.801,0.001,7.229,4.808,7.404,9.398v0.389
		c0.217,4.501,0.216,9.138-0.001,13.639c-0.129,0.432-0.821,1.256-3.593,1.559l-0.174,0c-1.603,0-0.347-1.776-1.3-2.209
		c-0.65,0.477-0.865,0.996-1.646,1.43c-1.643,1.083-3.854,1.214-5.888,1.213c-3.248,0-4.895-2.469-5.024-5.067V103.952z
		 M156.894,103v-1.082c0.001-1.474-0.042-3.768-0.776-3.769c-6.628,0-6.324,4.763-6.281,5.674
		C150.098,105.77,156.895,103.692,156.894,103"/>
	<path fill="#FFFFFF" d="M168.373,71.173c0.128-0.13,0.26-0.216,5.758-0.043c0.044,0.736,0.215,2.945-1.084,17.926l5.977,0.392
		c0.648,0.043,0.821,0.476,0.821,0.909c0,1.645-0.259,2.337-0.692,3.983c0,0.175-0.26,0.128-0.434,0.131l-5.93-0.175
		c-1.429,6.885-0.822,11.996,6.407,10.046c0,1.041,0.217,2.685,0.217,3.94c-0.002,0.649-1.429,0.649-2.034,0.649
		c-5.804,0.001-11.347-1.212-9.484-14.982c-0.217,0-2.338-0.087-2.512-0.131c-0.086,0.001-0.259-0.127-0.259-0.127l-0.001-5.198
		c0,0,0.175-0.086,0.262-0.086l2.207,0.087L168.373,71.173z"/>
	<path fill="#FFFFFF" d="M182.575,106.68c0-2.078-0.692-21.131,1.387-21.347c0.262-0.001,2.511-0.088,4.069-0.13l0.175,3.376
		c2.511-2.728,5.412-4.198,9.655-4.2c0.261,0.302,0.347,0.563,0.736,4.504c-5.282,0.215-10.133,3.464-10.392,8.53l-0.477,10.391
		l-0.086,0.13c-0.045,0.044-1.301,0.13-4.244,0.001C182.923,107.762,182.577,107.156,182.575,106.68"/>
	<path fill="#FFFFFF" d="M203.712,79.659c0-0.042-0.002-0.214,0.042-0.214c0.172-0.26,1.082-1.429,1.341-1.69
		c1.213-1.516,2.512-2.987,3.639-4.545c0.521-0.651,0.82-1.561,1.688-1.561c0.995,0,2.729,1.343,2.727,2.512
		c-0.215,1.907-3.852,4.547-5.021,6.281c-0.129,0.172-0.346,0.259-0.562,0.259C206.915,80.7,203.667,80.006,203.712,79.659
		 M199.511,103.952c0-4.158,2.034-7.664,6.321-9.182c1.688-0.604,4.59-0.777,5.715-0.778c0.519,0.001-0.346-5.37-3.16-5.368
		c-2.338,0-3.811,1.906-5.411,3.118c0,0-3.119-2.512-3.119-2.599c0-0.434,0.648-1.038,0.909-1.428
		c2.814-2.859,5.457-3.813,8.964-3.813c5.803,0,7.231,4.807,7.404,9.4l-0.001,0.389c0.218,4.503,0.217,9.137,0.003,13.638
		c-0.132,0.433-0.825,1.256-3.597,1.559l-0.172-0.002c-1.604,0.001-0.348-1.774-1.3-2.208c-0.65,0.478-0.866,0.998-1.646,1.432
		c-1.646,1.08-3.854,1.212-5.89,1.211c-3.248,0.001-4.893-2.468-5.023-5.066L199.511,103.952z M211.679,102.998l-0.002-1.08
		c0-1.474-0.043-3.768-0.777-3.769c-6.627,0-6.323,4.765-6.281,5.674C204.88,105.77,211.677,103.692,211.679,102.998"/>
	<path fill="#FFFFFF" d="M223.546,101.353c0.171,0,0.261,0,0.432,0.13c1.559,1.82,1.515,3.509,4.418,3.507
		c1.687,0.002,3.42-1.47,3.42-3.247c0-3.248-2.079-3.765-4.894-4.201c-2.469-0.344-6.624-2.772-6.625-5.499
		c-0.001-4.805,4.114-8.011,8.66-8.01c2.078,0,4.417,0.129,5.847,1.862l0.043,0.042c0.261,0.305,0.391,0.52,0.391,0.866
		c0,0.045-0.045,0.218-0.045,0.218c-0.433,0.822-2.035,3.809-2.642,3.809l-0.302,0.002l-0.305-0.173
		c-1.082-0.607-2.771-1.559-4.026-1.558c-0.952-0.001-1.731,0.647-1.73,1.643c-0.001,3.42,10.953,0.952,10.952,9.57
		c0,5.153-3.203,9.309-8.875,9.309c-3.379,0-6.712-0.736-7.925-4.2c-0.127-0.348-0.432-1.213-0.434-1.991
		C219.906,103.433,223.026,101.353,223.546,101.353"/>
	<polyline fill="none" points="147.436,-27.927 206.433,31.069 262.313,-24.81 	"/>
	<path d="M155.482,119.587c0.157,0.001,0.3,0.144,0.3,0.283l-0.002,13.948c0,0.16-0.139,0.299-0.3,0.299h-2.565
		c-0.139,0.001-0.241-0.12-0.318-0.298l-0.222-0.521c-0.762,0.683-1.946,1.12-3.165,1.12c-3.165,0.001-5.292-2.323-5.294-5.811
		c0.002-3.466,2.126-5.79,5.293-5.79c0.941-0.002,1.843,0.278,2.442,0.759l0.002-3.707c-0.002-0.14,0.139-0.281,0.3-0.281
		L155.482,119.587z M151.913,128.667c0-1.443-0.741-2.403-1.844-2.404c-1.101,0.001-1.845,0.963-1.843,2.407
		c0,1.403,0.742,2.326,1.845,2.323C151.175,130.993,151.913,130.072,151.913,128.667"/>
	<path d="M167.102,132.995c0.04,0.144-0.001,0.222-0.141,0.303c-1.063,0.7-2.605,1.12-4.147,1.12c-3.55,0-5.913-2.323-5.912-5.788
		c-0.001-3.488,2.324-5.814,5.811-5.815c3.327,0,5.291,2.144,5.291,5.792c0.002,0.302-0.018,0.602-0.08,0.901
		c-0.022,0.16-0.12,0.242-0.299,0.243h-6.434c0,0,0,1.26,1.682,1.261c1.022,0,2.167-0.24,3.067-0.663
		c0.141-0.057,0.26,0.021,0.301,0.16L167.102,132.995z M164.016,127.646c0-0.881-0.542-1.463-1.341-1.464
		c-0.903,0-1.506,0.583-1.506,1.464H164.016z"/>
	<path d="M179.604,123.097c0.182,0,0.261,0.139,0.221,0.282l-3.545,10.458c-0.062,0.144-0.243,0.281-0.402,0.281h-4.05
		c-0.16,0-0.319-0.138-0.359-0.28l-3.566-10.461c-0.061-0.142,0.038-0.28,0.199-0.28l3.769,0c0.179,0,0.321,0.12,0.38,0.28
		l1.604,5.792l1.604-5.792c0.039-0.182,0.219-0.281,0.358-0.28H179.604z"/>
	<path d="M190.686,123.096c0.159,0,0.301,0.14,0.301,0.301v10.441c0,0.141-0.142,0.281-0.302,0.28h-2.565
		c-0.158,0-0.257-0.139-0.32-0.299l-0.201-0.501c-0.739,0.661-1.821,1.1-3.005,1.101c-2.605,0-4.148-1.661-4.148-4.386l0.001-6.637
		c0-0.16,0.14-0.299,0.299-0.299h3.528c0.16,0,0.301,0.138,0.302,0.299l-0.003,6.134c0.002,0.682,0.424,1.143,1.063,1.144
		c0.783,0,1.222-0.643,1.222-0.643v-6.634c0-0.161,0.144-0.3,0.301-0.301H190.686z"/>
	<path d="M202.307,132.997c0.04,0.14,0.001,0.22-0.141,0.301c-1.062,0.7-2.604,1.119-4.146,1.119
		c-3.548,0.002-5.913-2.323-5.913-5.79c0-3.487,2.323-5.813,5.811-5.812c3.328-0.002,5.291,2.143,5.291,5.792
		c0,0.303-0.02,0.603-0.08,0.901c-0.02,0.161-0.121,0.242-0.301,0.242h-6.434c0,0,0,1.262,1.684,1.262
		c1.022,0,2.167-0.239,3.066-0.662c0.141-0.06,0.261,0.02,0.301,0.16L202.307,132.997z M199.219,127.646
		c0.001-0.879-0.541-1.463-1.342-1.464c-0.902,0-1.502,0.583-1.503,1.464H199.219z"/>
	<path d="M208.158,119.588c0.157,0,0.3,0.143,0.3,0.28v13.949c-0.002,0.162-0.143,0.3-0.302,0.301l-3.529-0.001
		c-0.16,0-0.299-0.139-0.299-0.299v-13.95c-0.002-0.141,0.139-0.28,0.301-0.28L208.158,119.588z"/>
	<path d="M201.618,121.084c0.02,0.097-0.001,0.191-0.038,0.199l-3.784,0.762c-0.042,0.006-0.1-0.071-0.12-0.168
		c0,0-0.204-0.89-0.161-0.901l3.56-2.208c0.035-0.007,0.092,0.069,0.111,0.167L201.618,121.084z"/>
	<path d="M220.901,123.097c0.182-0.001,0.262,0.138,0.218,0.282l-3.545,10.458c-0.058,0.144-0.24,0.281-0.4,0.283l-4.046-0.001
		c-0.162,0.001-0.323-0.138-0.363-0.281l-3.567-10.458c-0.061-0.143,0.041-0.282,0.2-0.282l3.77-0.001
		c0.179,0.001,0.318,0.122,0.379,0.283l1.604,5.792l1.604-5.792c0.039-0.183,0.221-0.282,0.361-0.282H220.901z"/>
	<path d="M231.14,132.997c0.04,0.14,0.002,0.219-0.139,0.302c-1.063,0.699-2.605,1.118-4.151,1.119c-3.545,0-5.91-2.324-5.909-5.79
		c-0.001-3.487,2.322-5.813,5.81-5.812c3.325,0,5.291,2.143,5.293,5.792c-0.002,0.303-0.022,0.602-0.082,0.901
		c-0.02,0.16-0.119,0.243-0.301,0.241h-6.434c0,0,0,1.261,1.684,1.262c1.022,0,2.167-0.239,3.067-0.662
		c0.143-0.058,0.261,0.02,0.301,0.16L231.14,132.997z M228.052,127.646c0.002-0.879-0.54-1.462-1.341-1.464
		c-0.901,0.001-1.501,0.583-1.502,1.464H228.052z"/>
	<path d="M239.494,123.096c0.181,0.001,0.301,0.122,0.301,0.281l-0.221,1.943c-0.02,0.163-0.141,0.302-0.299,0.302l-1.284,0v8.197
		c0,0.161-0.14,0.299-0.3,0.299h-3.526c-0.16,0-0.303-0.138-0.303-0.298l0.002-8.197h-1.145c-0.139,0-0.277-0.121-0.279-0.282
		v-1.943c0.002-0.178,0.139-0.3,0.28-0.3h1.142v-2.185c0-0.141,0.141-0.261,0.303-0.281l3.526-0.338
		c0.159-0.021,0.3,0.139,0.3,0.278v2.526L239.494,123.096z"/>
	<path d="M250.197,132.994c0.038,0.143-0.002,0.223-0.143,0.304c-1.063,0.7-2.604,1.12-4.147,1.119
		c-3.548,0.001-5.913-2.323-5.912-5.79c-0.001-3.487,2.323-5.812,5.812-5.814c3.327,0.001,5.29,2.146,5.292,5.793
		c0,0.301-0.02,0.601-0.08,0.901c-0.021,0.161-0.12,0.241-0.301,0.241h-6.434c0,0-0.002,1.263,1.683,1.262
		c1.021,0,2.163-0.24,3.066-0.663c0.141-0.058,0.261,0.021,0.301,0.161L250.197,132.994z M247.109,127.646
		c0-0.881-0.54-1.464-1.343-1.463c-0.901,0-1.502,0.582-1.502,1.463H247.109z"/>
	<polyline fill="none" points="197.963,185.416 254.37,129.009 197.571,72.209 141.163,128.617 197.963,185.416 	"/>
	<path fill="#FFFFFF" d="M156.563,119.589c0.156,0.001,0.297,0.143,0.298,0.281l-0.001,13.949c0,0.161-0.14,0.3-0.3,0.3
		l-2.564-0.001c-0.141,0.001-0.241-0.121-0.321-0.298l-0.221-0.521c-0.761,0.682-1.944,1.12-3.165,1.12
		c-3.166,0.001-5.293-2.323-5.293-5.811c0-3.466,2.125-5.792,5.293-5.792c0.94,0.001,1.842,0.282,2.442,0.763l0.002-3.708
		c0.001-0.141,0.139-0.281,0.298-0.281H156.563z M152.992,128.668c0.001-1.442-0.741-2.405-1.844-2.405
		c-1.103,0.001-1.844,0.962-1.845,2.407c0.001,1.402,0.742,2.326,1.845,2.325C152.252,130.993,152.992,130.072,152.992,128.668"/>
	<path fill="#FFFFFF" d="M168.181,132.996c0.041,0.143-0.001,0.222-0.14,0.303c-1.063,0.698-2.606,1.12-4.147,1.119
		c-3.548,0-5.915-2.322-5.915-5.788c0-3.488,2.326-5.814,5.813-5.814c3.326,0,5.29,2.144,5.29,5.792c0,0.303-0.019,0.603-0.08,0.902
		c-0.021,0.161-0.119,0.241-0.301,0.243h-6.434c0,0,0,1.26,1.685,1.26c1.022,0,2.166-0.239,3.065-0.662
		c0.141-0.057,0.261,0.02,0.301,0.16L168.181,132.996z M165.096,127.646c0-0.88-0.543-1.463-1.343-1.463
		c-0.903,0-1.505,0.583-1.504,1.463L165.096,127.646z"/>
	<path fill="#FFFFFF" d="M180.685,123.097c0.179,0,0.259,0.14,0.221,0.282l-3.546,10.46c-0.061,0.142-0.243,0.281-0.403,0.281
		l-4.048-0.001c-0.16,0-0.32-0.137-0.361-0.28l-3.567-10.459c-0.059-0.143,0.041-0.282,0.202-0.282l3.767,0
		c0.181,0,0.321,0.121,0.381,0.281l1.603,5.792l1.604-5.792c0.041-0.183,0.221-0.281,0.359-0.282H180.685z"/>
	<path fill="#FFFFFF" d="M191.765,123.097c0.159,0,0.304,0.14,0.302,0.3l-0.001,10.441c0,0.142-0.141,0.281-0.302,0.281h-2.565
		c-0.159,0-0.258-0.139-0.319-0.301l-0.202-0.5c-0.74,0.663-1.821,1.101-3.004,1.1c-2.605,0-4.149-1.66-4.148-4.386l-0.001-6.634
		c0-0.161,0.139-0.3,0.299-0.3l3.528,0c0.162,0,0.301,0.14,0.303,0.3l-0.002,6.133c0.002,0.682,0.421,1.144,1.063,1.146
		c0.783-0.001,1.222-0.644,1.222-0.644v-6.636c0-0.16,0.144-0.297,0.302-0.298L191.765,123.097z"/>
	<path fill="#FFFFFF" d="M203.389,132.996c0.036,0.142-0.002,0.222-0.144,0.304c-1.062,0.7-2.604,1.119-4.147,1.119
		c-3.548,0.002-5.913-2.323-5.911-5.789c-0.002-3.488,2.321-5.813,5.811-5.814c3.327,0,5.29,2.145,5.291,5.792
		c0.002,0.302-0.02,0.601-0.08,0.901c-0.021,0.162-0.122,0.243-0.301,0.242h-6.434c0,0-0.001,1.263,1.683,1.263
		c1.021,0,2.166-0.238,3.067-0.662c0.14-0.059,0.261,0.02,0.3,0.16L203.389,132.996z M200.299,127.646
		c0.001-0.879-0.54-1.464-1.343-1.463c-0.902,0-1.502,0.582-1.502,1.463H200.299z"/>
	<path fill="#FFFFFF" d="M209.237,119.589c0.158,0,0.298,0.142,0.298,0.281l0.001,13.949c0,0.16-0.142,0.3-0.299,0.3l-3.531-0.001
		c-0.159,0-0.298-0.139-0.298-0.299l-0.002-13.949c0.003-0.139,0.14-0.281,0.301-0.283L209.237,119.589z"/>
	<path fill="#FFFFFF" d="M202.698,121.084c0.019,0.097-0.003,0.193-0.041,0.2l-3.782,0.762c-0.044,0.005-0.099-0.073-0.12-0.168
		c0,0-0.203-0.891-0.161-0.901l3.56-2.209c0.036-0.007,0.092,0.07,0.111,0.167L202.698,121.084z"/>
	<path fill="#FFFFFF" d="M221.981,123.097c0.18,0,0.26,0.139,0.218,0.281l-3.545,10.46c-0.06,0.142-0.24,0.279-0.402,0.281
		l-4.046-0.001c-0.16,0.001-0.323-0.137-0.362-0.28l-3.566-10.459c-0.062-0.142,0.04-0.282,0.2-0.282h3.769
		c0.179,0,0.317,0.122,0.381,0.28l1.602,5.793l1.604-5.792c0.038-0.183,0.22-0.281,0.36-0.281H221.981z"/>
	<path fill="#FFFFFF" d="M232.222,132.997c0.038,0.14-0.002,0.221-0.143,0.303c-1.063,0.699-2.605,1.118-4.149,1.117
		c-3.548,0.001-5.911-2.322-5.911-5.789c0-3.487,2.323-5.813,5.812-5.813c3.327,0,5.291,2.147,5.291,5.793
		c0,0.301-0.02,0.601-0.08,0.9c-0.022,0.161-0.119,0.242-0.301,0.242h-6.434c0,0-0.001,1.263,1.683,1.263
		c1.022,0,2.165-0.239,3.066-0.662c0.143-0.057,0.261,0.02,0.303,0.16L232.222,132.997z M229.132,127.646
		c0.002-0.879-0.54-1.463-1.343-1.463c-0.901,0-1.5,0.583-1.5,1.463L229.132,127.646z"/>
	<path fill="#FFFFFF" d="M240.573,123.097c0.182-0.001,0.301,0.122,0.301,0.282l-0.221,1.943c-0.02,0.162-0.141,0.301-0.3,0.301
		l-1.283,0v8.197c0.001,0.161-0.141,0.3-0.3,0.3h-3.527c-0.16,0-0.302-0.139-0.301-0.3v-8.196h-1.146
		c-0.137,0-0.276-0.121-0.277-0.281l0.001-1.946c-0.001-0.176,0.139-0.299,0.277-0.299h1.145l-0.001-2.183
		c0.001-0.144,0.142-0.263,0.302-0.282l3.527-0.338c0.159-0.022,0.298,0.139,0.3,0.279v2.525H240.573z"/>
	<path fill="#FFFFFF" d="M251.275,132.996c0.04,0.143-0.001,0.222-0.142,0.303c-1.061,0.698-2.604,1.12-4.148,1.12
		c-3.549,0-5.913-2.323-5.911-5.789c-0.002-3.488,2.323-5.812,5.812-5.814c3.327,0.001,5.291,2.146,5.291,5.793
		c0,0.301-0.02,0.602-0.08,0.901c-0.021,0.162-0.119,0.241-0.301,0.242h-6.433c0,0,0,1.261,1.684,1.261
		c1.021,0,2.162-0.239,3.064-0.663c0.141-0.057,0.261,0.022,0.303,0.161L251.275,132.996z M248.189,127.646
		c0-0.881-0.543-1.463-1.345-1.462c-0.899,0-1.502,0.583-1.5,1.462H248.189z"/>
</g>
</svg>
