<?xml version="1.0" encoding="utf-8"?>
<!-- Generator: Adobe Illustrator 16.0.0, SVG Export Plug-In . SVG Version: 6.00 Build 0)  -->
<!DOCTYPE svg PUBLIC "-//W3C//DTD SVG 1.1//EN" "http://www.w3.org/Graphics/SVG/1.1/DTD/svg11.dtd">
<svg version="1.1" id="Capa_1" xmlns="http://www.w3.org/2000/svg" xmlns:xlink="http://www.w3.org/1999/xlink" x="0px" y="0px"
	 width="242.343px" height="178px" viewBox="0 0 242.343 178" enable-background="new 0 0 242.343 178" xml:space="preserve">
<polyline fill="none" points="8.04,168.271 52.68,123.631 3.578,74.529 "/>
<path d="M68.33,17.161c-0.078-1.301-0.34-2.55-0.341-3.825c0.001-0.155,0.027-0.832,0.027-0.962c0.13-0.781,1.171-1.015,1.847-1.015
	c4.111,0,5.126,1.015,5.854,1.847c0.989,1.119,1.248,2.264,1.248,3.694c0,1.666-0.779,2.628-2.158,3.408
	c-0.053,0.026-0.545,0.313-3.045,0.573l0.729,11.629v0.703c-0.494-0.053-2.496,0.546-3.174,0.313
	C68.901,28.087,68.589,22.624,68.33,17.161 M71.867,18.019c1.457,0,1.952-0.78,1.952-2.107c-0.001-0.962-1.38-1.613-2.238-1.613
	c-0.233,0-0.262,0.156-0.261,0.364c0,1.041,0.184,2.315,0.235,3.252C71.581,18.07,71.84,18.019,71.867,18.019"/>
<path d="M74.364,28.244c-0.496-3.512,0.779-8.065,5.332-8.716c4.424-0.624,5.387,0.91,5.907,4.657l0.154,1.041l-7.649,1.743
	c-0.025-0.001-0.18,0.156-0.206,0.232c-0.054,0.157-0.155,0.599,0.13,2.836c0.155,1.067,1.223,1.457,2.236,1.327
	c1.25-0.182,2.655-1.69,3.695-1.69c0.441,0,1.404,1.066,1.456,1.457l0.001,0.13c-1.771,2.393-3.617,2.784-6.478,2.628
	C75.689,33.732,74.729,30.741,74.364,28.244 M78.63,22.806c-0.338,0.312-0.857,1.249-0.857,1.795l-0.001,0.104l0.235-0.051
	c0.025,0,0.076-0.027,0.103-0.027c0.702-0.104,1.432-0.182,4.475-0.857c0,0,0-0.026-0.025-0.105c-0.052-0.312-0.26-1.144-0.261-1.17
	c-0.234-0.781-0.779-0.754-1.508-0.65C80.061,21.948,79.124,22.259,78.63,22.806"/>
<path d="M87.316,19.606c0.001-0.208,0.235-0.364,0.442-0.364h2.342c0.546,0,0.287,2.471,0.416,2.862
	c2.629-2.523,4.554-2.706,5.542-2.706c2.238,0,3.383,2.081,3.538,4.136l0.495,9.132c0.001,0.027-0.054,0.079-0.078,0.078
	l-2.784,0.104c-0.052-0.026-0.156-0.078-0.157-0.104l-0.493-6.79c-0.858-6.556-6.243-1.64-6.243,3.017
	c0,1.458,0.181,2.914,0.181,4.371l0.001,0.26c-0.808,0.079-1.482,0.078-2.289,0.078l-0.729,0l-0.157-0.183
	c0,0-0.026-0.156-0.025-0.234L87.316,19.606z"/>
<path d="M101.648,31.912c0,0,0.469-11.941,0.964-11.942c0.104,0,0.156,0.027,2.68,0.079c0.234,0,0.26,0.234,0.26,0.363
	c0,0.053-0.025,0.234-0.025,0.261c-0.025,0.781-0.235,4.215-0.964,12.202c-0.026,0.338-0.078,0.441-0.39,0.494
	c-0.807-0.052-1.587,0.157-2.42-0.079c-0.025,0.001-0.077-0.051-0.077-0.077C101.648,33.004,101.648,32.094,101.648,31.912
	 M102.3,14.819c-0.001-2.706,3.277-3.902,4.007-1.041c0,0,0.026,0.313,0.026,0.417c0,1.171-0.547,2.575-1.875,2.577
	c-0.779-0.001-1.846-0.365-2.132-1.197C102.327,15.443,102.299,14.923,102.3,14.819"/>
<path d="M108.829,10.968c0.078-0.078,0.155-0.13,3.459-0.025c0.027,0.441,0.131,1.768-0.648,10.77l3.591,0.235
	c0.389,0.025,0.492,0.285,0.492,0.545c0,0.99-0.155,1.406-0.416,2.395c0.001,0.104-0.155,0.078-0.261,0.077l-3.563-0.103
	c-0.858,4.135-0.495,7.206,3.85,6.035c0,0.624,0.13,1.612,0.131,2.367c-0.001,0.392-0.86,0.39-1.223,0.391
	c-3.486,0-6.818-0.728-5.698-9.002c-0.13,0-1.405-0.053-1.511-0.077c-0.05-0.002-0.155-0.08-0.155-0.08v-3.121
	c0,0,0.105-0.052,0.156-0.053l1.326,0.052L108.829,10.968z"/>
<path d="M116.58,28.244c-0.495-3.512,0.78-8.065,5.334-8.716c4.423-0.624,5.386,0.91,5.905,4.657l0.156,1.04l-7.648,1.743
	c-0.026,0-0.183,0.156-0.209,0.233c-0.052,0.157-0.155,0.599,0.131,2.836c0.155,1.067,1.223,1.457,2.236,1.327
	c1.25-0.182,2.655-1.69,3.694-1.69c0.442,0,1.406,1.066,1.458,1.457v0.13c-1.77,2.393-3.616,2.783-6.477,2.628
	C117.906,33.732,116.945,30.741,116.58,28.244 M120.848,22.806c-0.339,0.312-0.858,1.249-0.858,1.795l-0.001,0.104l0.234-0.052
	c0.025,0,0.078-0.026,0.104-0.026c0.701-0.104,1.432-0.182,4.475-0.857c0,0,0-0.026-0.026-0.105c-0.053-0.312-0.26-1.144-0.261-1.17
	c-0.233-0.781-0.779-0.754-1.508-0.65C122.277,21.948,121.341,22.259,120.848,22.806"/>
<path d="M129.533,19.606c0.001-0.208,0.235-0.364,0.443-0.364h2.341c0.547,0,0.287,2.471,0.418,2.862
	c2.626-2.523,4.551-2.706,5.541-2.706c2.236,0,3.382,2.081,3.537,4.136l0.495,9.132c0,0.027-0.053,0.079-0.078,0.078l-2.784,0.104
	c-0.052-0.026-0.156-0.078-0.157-0.104l-0.492-6.789c-0.86-6.557-6.245-1.641-6.245,3.017c0,1.458,0.184,2.914,0.184,4.371v0.26
	c-0.809,0.079-1.484,0.078-2.291,0.078l-0.727,0l-0.158-0.183c0,0-0.026-0.156-0.026-0.234V19.606z"/>
<path d="M149.096,32.926c-4.864,0-6.036-4.293-6.035-6.816l-0.001-0.234c0.129-3.954,2.629-7.544,7.623-7.545
	c0.91,0,2.236,0.599,2.236,1.535c0,0.365-0.728,2.186-1.119,2.185c-0.519,0.001-0.909-0.312-1.481-0.311
	c-1.978-0.001-3.122,1.353-3.799,2.861c-0.441,0.962-0.313,3.018,0.312,3.98c0.471,0.832,1.613,1.3,2.629,1.327h0.234
	c0.729,0,1.717-0.104,2.34-0.442c0.208-0.104,1.067-0.807,1.328-0.808c0.416,0,1.145,1.666,1.146,2.212
	c-0.001,1.25-3.669,2.029-4.659,2.029C149.59,32.926,149.33,32.926,149.096,32.926"/>
<path d="M156.065,31.912c0,0,0.468-11.942,0.963-11.942c0.103,0,0.155,0.026,2.68,0.079c0.234,0,0.261,0.234,0.261,0.363
	c0,0.053-0.026,0.235-0.027,0.261c-0.025,0.781-0.233,4.215-0.962,12.202c-0.027,0.338-0.078,0.441-0.392,0.494
	c-0.805-0.052-1.587,0.156-2.418-0.079c-0.026,0-0.079-0.051-0.079-0.077C156.065,33.004,156.065,32.094,156.065,31.912
	 M156.716,14.819c0-2.706,3.278-3.902,4.006-1.041c0,0,0.026,0.313,0.027,0.417c0,1.171-0.548,2.575-1.875,2.576
	c-0.78,0-1.846-0.364-2.133-1.196C156.742,15.443,156.715,14.922,156.716,14.819"/>
<path d="M161.085,30.663c0-2.498,1.223-4.605,3.798-5.516c1.016-0.364,2.759-0.468,3.434-0.468c0.313,0-0.207-3.226-1.897-3.226
	c-1.406,0-2.289,1.146-3.253,1.873c0,0-1.874-1.509-1.873-1.561c-0.001-0.26,0.391-0.624,0.547-0.858
	c1.69-1.717,3.278-2.289,5.384-2.29c3.487,0,4.344,2.888,4.45,5.646l-0.001,0.234c0.131,2.704,0.131,5.489,0.001,8.194
	c-0.078,0.261-0.494,0.754-2.159,0.937h-0.104c-0.962,0-0.208-1.066-0.779-1.327c-0.392,0.287-0.521,0.599-0.989,0.859
	c-0.989,0.65-2.314,0.728-3.538,0.728c-1.952,0-2.941-1.482-3.018-3.044L161.085,30.663z M168.396,30.09v-0.65
	c0-0.884-0.025-2.264-0.469-2.263c-3.979-0.001-3.797,2.861-3.771,3.408C164.312,31.755,168.395,30.506,168.396,30.09"/>
<polyline fill="none" points="115.301,-35.157 57.968,22.175 120.128,84.335 177.46,27.002 115.301,-35.157 "/>
<path fill="#FFFFFF" d="M67.416,17.161c-0.077-1.301-0.34-2.549-0.34-3.824c0.001-0.157,0.026-0.833,0.026-0.963
	c0.131-0.78,1.172-1.014,1.848-1.014c4.11,0,5.126,1.016,5.854,1.846c0.989,1.12,1.249,2.265,1.248,3.695
	c0.002,1.665-0.779,2.629-2.157,3.408c-0.054,0.026-0.546,0.312-3.045,0.573l0.728,11.629v0.703
	c-0.493-0.054-2.495,0.545-3.174,0.312C67.987,28.087,67.676,22.623,67.416,17.161 M70.953,18.019c1.457,0,1.952-0.781,1.952-2.107
	c0-0.963-1.38-1.613-2.237-1.613c-0.233,0-0.261,0.156-0.262,0.364c0,1.041,0.185,2.315,0.235,3.252
	C70.668,18.07,70.927,18.019,70.953,18.019"/>
<path fill="#FFFFFF" d="M73.45,28.243c-0.495-3.511,0.781-8.064,5.332-8.715c4.425-0.624,5.387,0.911,5.907,4.657l0.154,1.041
	l-7.648,1.743c-0.026,0-0.181,0.156-0.207,0.233c-0.053,0.156-0.155,0.598,0.131,2.835c0.155,1.068,1.223,1.457,2.236,1.327
	c1.249-0.181,2.655-1.69,3.694-1.69c0.442,0,1.404,1.066,1.457,1.457v0.13c-1.771,2.394-3.617,2.783-6.477,2.627
	C74.776,33.732,73.815,30.74,73.45,28.243 M77.716,22.806c-0.337,0.312-0.856,1.248-0.857,1.795v0.104l0.234-0.052
	c0.025,0,0.076-0.025,0.104-0.027c0.702-0.103,1.431-0.181,4.474-0.857c0,0,0.001-0.027-0.023-0.105
	c-0.054-0.312-0.261-1.144-0.262-1.17c-0.235-0.78-0.779-0.755-1.509-0.649C79.147,21.948,78.21,22.259,77.716,22.806"/>
<path fill="#FFFFFF" d="M86.403,19.606c0-0.208,0.235-0.364,0.441-0.364l2.343-0.001c0.546,0.001,0.287,2.471,0.415,2.863
	c2.629-2.524,4.554-2.706,5.542-2.705c2.238,0,3.383,2.081,3.539,4.135l0.495,9.131c0,0.027-0.055,0.079-0.079,0.079l-2.783,0.104
	c-0.053-0.026-0.156-0.079-0.158-0.104l-0.493-6.791c-0.857-6.557-6.242-1.64-6.242,3.018c0,1.458,0.181,2.915,0.181,4.371v0.261
	c-0.807,0.078-1.481,0.077-2.289,0.078h-0.728l-0.157-0.182c0,0-0.026-0.157-0.025-0.235L86.403,19.606z"/>
<path fill="#FFFFFF" d="M100.734,31.912c0,0,0.47-11.941,0.964-11.941c0.104,0,0.157,0.025,2.68,0.078
	c0.234,0,0.261,0.233,0.261,0.363c0,0.053-0.026,0.235-0.025,0.261c-0.026,0.781-0.236,4.215-0.964,12.203
	c-0.027,0.337-0.078,0.441-0.391,0.494c-0.806-0.053-1.586,0.156-2.419-0.079c-0.026,0.001-0.078-0.051-0.077-0.078
	C100.735,33.003,100.734,32.094,100.734,31.912 M101.386,14.819c-0.001-2.706,3.278-3.901,4.007-1.04c0,0,0.026,0.312,0.027,0.415
	c0,1.171-0.548,2.576-1.874,2.577c-0.78-0.001-1.846-0.365-2.133-1.197C101.413,15.443,101.386,14.922,101.386,14.819"/>
<path fill="#FFFFFF" d="M107.915,10.968c0.078-0.078,0.156-0.13,3.46-0.025c0.027,0.442,0.131,1.768-0.648,10.77l3.591,0.235
	c0.389,0.026,0.492,0.287,0.492,0.545c0,0.99-0.156,1.407-0.416,2.396c0,0.104-0.156,0.077-0.262,0.077l-3.562-0.104
	c-0.859,4.136-0.495,7.207,3.85,6.035c-0.001,0.625,0.13,1.614,0.131,2.368c-0.001,0.391-0.86,0.39-1.224,0.391
	c-3.486,0-6.817-0.729-5.698-9.002c-0.13,0-1.404-0.052-1.51-0.077c-0.051-0.001-0.155-0.079-0.155-0.079v-3.121
	c0,0,0.104-0.052,0.155-0.052l1.327,0.051L107.915,10.968z"/>
<path fill="#FFFFFF" d="M115.667,28.243c-0.495-3.511,0.78-8.064,5.333-8.715c4.424-0.624,5.386,0.911,5.905,4.657l0.157,1.04
	l-7.649,1.744c-0.025-0.001-0.182,0.156-0.208,0.233c-0.052,0.156-0.155,0.598,0.13,2.835c0.156,1.068,1.223,1.457,2.236,1.327
	c1.25-0.181,2.656-1.69,3.695-1.69c0.442,0,1.405,1.066,1.456,1.457l0.001,0.13c-1.769,2.394-3.616,2.783-6.477,2.627
	C116.992,33.732,116.031,30.741,115.667,28.243 M119.935,22.806c-0.34,0.313-0.858,1.249-0.859,1.795v0.104l0.234-0.052
	c0.025,0,0.078-0.026,0.104-0.027c0.701-0.103,1.431-0.181,4.474-0.857c0,0,0.001-0.027-0.025-0.104
	c-0.053-0.313-0.261-1.145-0.261-1.171c-0.234-0.781-0.78-0.754-1.509-0.649C121.363,21.948,120.427,22.259,119.935,22.806"/>
<path fill="#FFFFFF" d="M128.62,19.606c0-0.208,0.235-0.364,0.443-0.364l2.341-0.001c0.546,0.001,0.286,2.471,0.417,2.863
	c2.627-2.524,4.551-2.706,5.541-2.705c2.237,0,3.382,2.081,3.537,4.135l0.496,9.131c-0.001,0.027-0.054,0.079-0.079,0.079
	l-2.784,0.103c-0.052-0.025-0.155-0.078-0.157-0.103l-0.491-6.791c-0.86-6.557-6.244-1.64-6.245,3.018
	c0,1.458,0.183,2.915,0.183,4.371v0.261c-0.809,0.078-1.483,0.077-2.29,0.078l-0.728-0.001l-0.158-0.181
	c0,0-0.026-0.157-0.024-0.235L128.62,19.606z"/>
<path fill="#FFFFFF" d="M148.183,32.925c-4.864,0-6.036-4.292-6.036-6.815v-0.234c0.129-3.954,2.628-7.544,7.622-7.544
	c0.911,0,2.237,0.598,2.236,1.536c0.001,0.363-0.727,2.185-1.117,2.184c-0.521,0.001-0.91-0.312-1.482-0.311
	c-1.978-0.001-3.123,1.354-3.8,2.861c-0.441,0.963-0.313,3.019,0.313,3.98c0.47,0.832,1.613,1.301,2.629,1.326h0.234
	c0.728,0.001,1.717-0.104,2.34-0.441c0.207-0.104,1.067-0.808,1.327-0.807c0.416,0,1.145,1.665,1.146,2.211
	c-0.001,1.25-3.669,2.03-4.658,2.029C148.677,32.926,148.416,32.926,148.183,32.925"/>
<path fill="#FFFFFF" d="M155.151,31.912c0,0,0.469-11.942,0.963-11.941c0.104,0,0.156,0.026,2.681,0.079
	c0.233,0,0.261,0.233,0.261,0.363c0,0.053-0.027,0.235-0.027,0.26c-0.026,0.782-0.234,4.215-0.963,12.203
	c-0.026,0.338-0.077,0.441-0.392,0.494c-0.804-0.053-1.586,0.155-2.417-0.079c-0.026,0.001-0.08-0.051-0.079-0.078
	C155.152,33.004,155.151,32.094,155.151,31.912 M155.802,14.819c0-2.706,3.278-3.901,4.007-1.04c0,0,0.025,0.312,0.026,0.416
	c0,1.17-0.547,2.575-1.875,2.576c-0.779-0.001-1.845-0.365-2.133-1.196C155.828,15.443,155.802,14.922,155.802,14.819"/>
<path fill="#FFFFFF" d="M160.172,30.663c0-2.497,1.223-4.605,3.798-5.516c1.015-0.364,2.759-0.468,3.434-0.468
	c0.313,0-0.208-3.227-1.898-3.226c-1.404-0.001-2.289,1.145-3.253,1.873c0,0-1.874-1.51-1.873-1.562
	c0.001-0.26,0.391-0.624,0.548-0.858c1.69-1.718,3.277-2.29,5.383-2.289c3.488-0.001,4.345,2.888,4.451,5.646l-0.001,0.233
	c0.13,2.706,0.13,5.49,0.001,8.195c-0.078,0.261-0.494,0.754-2.16,0.937h-0.104c-0.963,0-0.209-1.066-0.779-1.327
	c-0.393,0.287-0.521,0.599-0.99,0.859c-0.988,0.649-2.313,0.728-3.538,0.728c-1.951,0-2.94-1.482-3.017-3.044L160.172,30.663z
	 M167.482,30.09l-0.001-0.65c0-0.884-0.024-2.264-0.468-2.263c-3.98,0-3.797,2.861-3.771,3.409
	C163.398,31.755,167.48,30.507,167.482,30.09"/>
<path fill="#0E6767" d="M43.322,157.286c-1.583-1.915,1.769-10.349,61.532-9.246c9.436,0.429,35.359-3.623,44.033,1.194"/>
<path fill="#0E6767" d="M148.888,149.234c0,0,45.332-0.736,45.346,1.91c0.015,2.646-40.862,3.358-44.274,2.656
	c-3.409-0.703-5.488,2.194-21.47,3.006c-15.98,0.811-83.582,2.395-85.167,0.48"/>
<path fill="#EED1B9" d="M151.431,104.799l1.13,36.104c0,0,2.013,5.148,2.024,7.263c0.012,2.116-1.567,3.447-2.895,2.661
	c-1.328-0.786-1.349-4.488-1.349-4.488s-0.127,5.259-3.01,5.306c-2.229-0.017-2.152-6.071-2.152-6.071s2.954-15.625,2.657-21.31
	c-0.296-5.686-0.912-20.853-0.912-20.853l4.491-1.285L151.431,104.799z"/>
<path fill="#C7A389" d="M150.813,105.072c0.243,7.799,0.487,15.597,0.732,23.395c0.124,3.956,0.248,7.911,0.371,11.867
	c0.022,0.672,0.08,1.033,0.32,1.674c0.465,1.241,0.863,2.5,1.24,3.768c1.111,2.057,0.331,2.803-2.342,2.242
	c-0.143-0.622-0.158-1.312-0.178-1.95c-0.022-0.881-1.199-0.264-1.231,0.365c-0.016,0.327-1.434,6.849-3.264,3.462
	c-0.595-1.101-0.596-2.728-0.657-3.96c-0.076-1.533,0.488-3.217,0.743-4.713c0.964-5.644,2.06-11.483,1.905-17.228
	c-0.164-6.064-0.552-12.132-0.803-18.194c-0.032-0.776-0.064-1.553-0.097-2.33c0.011,0.228-1.085,0.767,0.706,0.256
	C151.288,102.857,150.796,102.093,150.813,105.072c0.005,0.944,1.236,0.162,1.234-0.545c-0.006-0.89-0.01-1.78-0.016-2.672
	c-0.002-0.25-0.269-0.519-0.531-0.444c-1.495,0.428-2.992,0.856-4.49,1.286c-0.446,0.127-0.722,0.523-0.701,0.987
	c0.231,5.721,0.473,11.438,0.732,17.156c0.318,6.98-0.573,13.685-1.723,20.567c-0.451,2.691-1.903,7.901,0.432,10.169
	c3.15,3.058,5.098-3.107,5.207-5.331c-0.411,0.123-0.822,0.244-1.232,0.365c0.03,1.098,0.129,4.6,1.723,4.934
	c2.503,0.528,3.348-1.275,3.752-3.471c0.473-2.577-1.949-5.064-2.024-7.478c-0.046-1.457-0.092-2.914-0.137-4.371
	c-0.331-10.566-0.661-21.132-0.991-31.698C152.017,103.581,150.791,104.362,150.813,105.072"/>
<path fill="#9F231D" d="M143.767,105.902c0,0,9.648,1.136,9.713-0.055c0.067-1.191-1.594-14.143-1.594-14.143L143.767,105.902z"/>
<path fill="#4F0F1A" d="M143.42,106.845c1.92,0.223,10.788,2.095,10.819-1.397c0.041-4.669-1.003-9.517-1.594-14.145
	c-0.117-0.903-1.01-0.465-1.319,0.076c-2.707,4.733-5.413,9.466-8.12,14.201c-0.623,1.089,0.494,1.738,1.119,0.647
	c2.707-4.734,5.413-9.467,8.12-14.2c-0.439,0.024-0.879,0.052-1.317,0.076c0.509,3.973,1.01,7.949,1.424,11.933
	c0.073,0.688,0.144,1.375,0.172,2.066c-0.043-1.085,0.319-0.724-0.924-0.663c-0.75,0.036-1.505,0-2.252-0.03
	c-1.814-0.068-3.632-0.239-5.438-0.448C143.282,104.863,142.472,106.735,143.42,106.845"/>
<path fill="#109244" d="M157.86,114.856c-4.412,0.353-7.313,0.979-7.313,0.979l-0.009-1.44
	c-0.464-18.216-32.012-14.611-32.012-14.611l-47.258,0.266l-8.765,0.05l-1.967,0.01l-3.399,0.021
	c-3.43,0.59-5.485,3.527-6.714,6.669c-1.608,4.118-1.798,8.591-1.798,8.591l0.013,2.298l0.123,21.671c0,0,0.74,13.885,8.684,15.164
	l14.131-0.081l22.603-0.126l6.839-0.041l4.087-0.022l13.73-0.078c0,0,31.586,3.249,31.844-14.97l-0.009-1.443
	c0,0,6.862,1.405,15.518,0.995c8.658-0.41,12.794-2.417,13.333-2.962c0.537-0.544,0.249,1.562,3.012,1.125
	c1.202-0.247-0.89,2.11,6.267,2.25c7.155,0.141,7.013-25.392-0.143-25.17c-7.152,0.22-5.037,2.554-6.241,2.32
	c-2.768-0.406-2.454,1.696-2.997,1.158c-0.545-0.537-4.706-2.498-13.364-2.811"/>
<path fill="#104724" d="M158.285,113.96c-2.395,0.22-4.776,0.49-7.14,0.944c0.184-0.035-0.214-3.177-0.258-3.492
	c-0.546-3.939-3.371-6.917-6.621-8.908c-6.23-3.813-14.675-4.093-21.772-3.857c-10.537,0.352-21.089,0.34-31.64,0.399
	c-10.258,0.059-20.516,0.111-30.773,0.173c-14.48,0.086-12.002,21.679-11.947,31.468c0.028,4.737-0.22,9.41,0.744,14.069
	c0.811,3.902,2.483,7.812,5.976,9.969c2.02,1.245,5.122,0.676,7.327,0.664c10.724-0.061,21.446-0.12,32.171-0.182
	c9.431-0.055,18.855-0.129,28.277,0.079c12.398,0.271,28.701-2.968,28.616-18.217c-0.361,0.526-0.724,1.052-1.086,1.579
	c5.695,1.123,11.619,1.25,17.393,0.892c3.234-0.201,6.485-0.781,9.549-1.846c0.573-0.2,1.12-0.464,1.657-0.745
	c0.884-0.461,1.074,0.863,2.027,0.865c2.01,0.002,1.732,1.014,3.455,1.732c1.648,0.686,4.146,0.833,5.771,0.066
	c2.495-1.179,3.529-5.098,4.07-7.478c0.981-4.32,0.769-9.053-0.256-13.341c-1.193-4.989-3.832-6.422-8.781-5.135
	c-0.875,0.229-1.686,0.894-2.122,1.677c-0.666,1.191-0.185,0.085-0.081,0.087c-0.935-0.013-1.817-0.073-2.485,0.705
	c-0.754,0.88-1.172-0.053-2.708-0.615c-3.533-1.293-7.446-1.549-11.169-1.741c-0.484-0.026-1.279,1.771-0.85,1.793
	c3.439,0.179,6.801,0.546,10.124,1.45c1.146,0.311,2.3,1.193,3.407,1.399c0.265,0.047,0.503-0.329,0.629-0.507
	c0.755-1.075,2.389-0.209,3.146-1.306c0.907-1.313,1.872-1.352,3.568-1.598c4.927-0.714,6.088,4.139,6.719,8.059
	c0.576,3.584,1.167,14.835-3.998,15.211c-2.063,0.15-4.684-0.108-5.723-2.076c-0.443-0.842-2.4-0.214-3.212-1.342
	c-0.028-0.002-0.058-0.006-0.088-0.009c-0.998,0.195-2.007,0.968-3.002,1.315c-2.816,0.98-5.851,1.313-8.798,1.585
	c-5.661,0.526-11.637,0.226-17.217-0.875c-0.51-0.1-1.09,1.188-1.088,1.579c0.096,17.416-23.338,14.786-35.295,14.852
	c-11.162,0.064-22.322,0.126-33.484,0.19c-5.139,0.028-10.281,0.058-15.42,0.087c-2.902,0.016-6.188,0.48-9.024-0.212
	c-4.826-1.18-6.472-7.877-7.214-12.044c-0.975-5.466-0.372-11.37-0.403-16.887c-0.037-6.459-1.497-23.356,7.71-23.412
	c16.49-0.099,32.98-0.186,49.473-0.279c14.046-0.079,43.422-4.615,43.535,15.781c-0.001,0.098,0.01,0.235,0.148,0.207
	c2.411-0.496,4.863-0.755,7.313-0.979C157.96,115.705,158.644,113.927,158.285,113.96"/>
<path fill="#10833E" d="M131.606,118.137c0,0-7.04-14.32-16.148-6.787c-9.11,7.532-15.396,10.454-19.238,6.987
	c-3.842-3.465,3.148-12.233-7.577-10.213c-10.724,2.018-25.451-7.896-27.315,2.403c-1.866,10.303-3.99,17.743-2.25,27.729
	c1.739,9.985,1.759,13.352,6.784,8.874c5.024-4.478,13.456,3.168,24.398,0.339c10.944-2.824,10.322,6.488,16.05,2.643
	c5.725-3.845,21.948-12.549,26.926-11.759c4.974,0.792,9.271,5.623,10.713-0.061c1.441-5.682,2.959-26.615-1.939-25.144
	C137.11,114.62,140.036,118.934,131.606,118.137"/>
<path fill="#10833E" d="M147.144,108.677c0,0-4.579,2.583-11.639,3.684c-7.059,1.103-12.072-1.979-13.302-2.588
	c-1.232-0.61-15.216-5.742-18.347-6.117c-3.127-0.377-2.639,1.128-10.1,0.055c-7.463-1.07-10.198-0.008-10.198-0.008l0.335,29.015
	c0,0,3.328,6.232,0.94,9.494c-2.387,3.263-4.154,5.516-4.154,5.516l9.606,4.242l-15.025,2.453l-0.044-7.893l-7.241,0.589
	l-3.121-14.292l2.276-28.963c0,0,4.855,2.737-0.625-0.509c-5.48-3.246-3.729-2.041-3.729-2.041l16.896-1.566l41.239,0.053
	C120.912,99.799,147.073,102.793,147.144,108.677"/>
<path fill="#9F231D" d="M101.602,75.051c0.74-0.047,1.603-0.107,2.706-0.142c5.025-0.162,9.962,0.584,12,1.972
	c2.038,1.39,3.649,5.612,3.649,5.612l0.903,19.571c0,0-14.676,0.876-18.651-0.424c-3.977-1.299-2.388-1.309-7.546-1.28
	c-5.158,0.029-5.432-1.688-7.941-0.881c-2.509,0.808-3.966,0.287-3.966,0.287l0.656-24.076c0,0,1.587-2.408,5.052-2.753
	c1.21-0.119,2.647,0.012,4.328,0.584"/>
<path fill="#4F0F1A" d="M101.174,75.947c8.171-0.511,17.876-0.05,18.338,9.939c0.26,5.623,0.521,11.247,0.78,16.87
	c0.332-0.529,0.663-1.059,0.997-1.588c-5.704,0.332-11.634,0.691-17.305-0.126c-2.583-0.372-4.585-1.558-7.251-1.586
	c-2.532-0.024-4.834-0.211-7.244-0.935c-1.583-0.476-3.246,0.354-4.819,0.51c-2.179,0.219-1.295-1.787-1.246-3.542
	c0.082-2.981,0.163-5.963,0.244-8.945c0.079-2.888,0.156-5.773,0.236-8.661c0.021-0.813,0.044-1.627,0.066-2.441
	c0.064-2.424,7.09-1.366,8.309-1.037c0.521,0.141,1.299-1.704,1.025-1.777c-3.778-1.019-7.541-0.629-9.999,2.682
	c-0.897,1.21-0.522,3.271-0.561,4.65c-0.187,6.833-0.373,13.666-0.561,20.497c-0.014,0.076,0.005,0.142,0.059,0.193
	c0.889,0.248,1.767,0.152,2.676,0.06c2.432-0.243,3.752-0.253,6.167,0.296c1.922,0.438,3.997,0.23,5.946,0.251
	c1.854,0.018,3.486,0.946,5.241,1.426c5.601,1.528,12.431,0.606,18.16,0.273c0.45-0.026,1.015-1.208,0.998-1.589
	c-0.278-6.041-0.56-12.08-0.838-18.12c-0.44-9.519-11.426-9.539-18.564-9.093C101.518,74.189,100.821,75.97,101.174,75.947"/>
<path fill="#EED1B9" d="M112.573,114.146c0,0,1.18,21.817,2.247,23.267c1.065,1.448-0.243,3.89,0.035,6.375
	c0.28,2.483-0.237,1.958-1.36,3.552c-1.122,1.593-4.024,3.063-1.505,4.241c2.52,1.175,4.874-3.468,5.66-4.795
	c0.786-1.327-2.865,8.058,0.046,8.32c2.912,0.263,3.004-7.015,2.994-8.734c-0.01-1.72-0.212,9.234,2.694,8.702
	c2.907-0.533,2.611-6.086,1.801-8.992c-0.81-2.904,3.2,4.612,3.974,1.169c0.775-3.444-7.023-11.335-7.446-11.333
	c-0.419,0.001-0.01-20.898-1.875-23.268C117.973,110.28,112.573,114.146,112.573,114.146"/>
<path fill="#C7A389" d="M112.091,114.636c0.377,6.901,0.733,13.854,1.662,20.708c0.113,0.838,0.25,1.676,0.52,2.479
	c0.333,0.991,0.604,7.235-0.361,8.431c-0.289,0.358-4.834,4.28-3.075,5.472c2.5,1.697,4.522-0.558,5.856-2.674
	c0.542-0.859,0.468-1.418,0.555-1.823c-0.18,0.837-0.438,1.663-0.642,2.494c-0.345,1.41-0.551,2.826-0.515,4.276
	c0.066,2.703,2.577,1.678,3.599,0.249c1.607-2.25,1.526-5.928,1.479-8.539c-0.01-0.604-0.945,0.489-0.963,0.836
	c-0.084,1.588-0.092,9.091,2.404,9.198c5.32,0.226,2.661-8.349,2.98-10.678c-0.258,0.346-0.514,0.691-0.772,1.037
	c1.772,0.342,4.43,5.411,4.876,0.188c0.224-2.615-2.506-5.548-3.997-7.375c-0.944-1.16-3.524-2.873-3.627-4.386
	c-0.434-6.444-0.089-12.916-0.92-19.34c-0.694-5.363-4.833-4.189-8.516-1.634c-0.354,0.247-0.81,1.661-0.124,1.184
	c1.581-1.097,5.584-3.609,7.047-1.217c0.955,1.563,0.836,4.306,0.976,6.063c0.394,4.949,0.376,9.921,0.529,14.88
	c0.092,3.019,2.457,4.075,4.373,6.425c0.853,1.045,1.591,2.166,2.277,3.323c0.321,0.539,1.604,3.852,0.132,2.841
	c-0.791-0.541-1.449-2.135-2.441-2.328c-0.403-0.076-0.738,0.763-0.775,1.038c-0.083,0.61,0.189,1.294,0.324,1.863
	c0.579,2.472-1.791,9.054-3.146,4.291c-0.532-1.865-0.74-4.128-0.637-6.073c-0.322,0.28-0.643,0.559-0.966,0.84
	c0.021,1.167-0.057,2.325-0.156,3.489c-0.034,1.692-0.845,3.064-2.438,4.114c-1.006-0.322-0.498-2.774-0.405-3.453
	c0.191-1.404,1.182-3.232,1.027-4.666c-0.052-0.453-0.554-0.002-0.668,0.147c-0.207,0.271-0.355,0.551-0.528,0.851
	c-0.427,0.767-0.902,1.502-1.422,2.209c-1.86,2.461-2.953,2.387-3.287-0.221c1.014-1.029,2.04-2.093,2.791-3.333
	c0.779-1.286,0.24-4.095,0.395-5.286c0.256-2-0.22-3.084-0.603-4.963c-1.443-7.103-1.46-14.692-1.856-21.916
	C113.021,113.06,112.067,114.198,112.091,114.636"/>
<path fill="#9F231D" d="M108.511,116.55c0,0,12.287-2.451,13.744-2.061c1.456,0.389-1.338-2.639-1.338-2.639
	s0.62-19.843-1.701-20.228c-2.324-0.383-11.26-2.978-12.815,2.585C104.845,99.773,108.511,116.55,108.511,116.55"/>
<path fill="#4F0F1A" d="M108.128,117.471c4.688-0.929,9.368-1.791,14.128-2.085c0.654-0.04,1.059-1.016,1.039-1.565
	c-0.07-1.821-1.722-2.069-1.684-3.897c0.061-2.894,0.071-5.795-0.019-8.688c-0.096-3.033-0.104-6.218-0.942-9.158
	c-0.588-2.066-3.294-1.839-5.061-2.112c-15.528-2.386-9.605,18.585-7.735,27.23c0.19,0.872,1.441-0.686,1.311-1.289
	c-0.896-4.142-1.588-8.331-2.093-12.539c-0.431-3.557-1.933-10.624,3.458-11.662c1.641-0.315,7.23-0.361,8.505,1.035
	c1.108,1.209,0.954,4.353,1.069,5.861c0.215,2.842,0.227,5.699,0.229,8.547c0,1.637-0.025,3.271-0.069,4.907
	c-0.032,1.261,1.672,1.756,1.721,3.053c0.345-0.521,0.69-1.042,1.037-1.565c-4.76,0.296-9.441,1.156-14.128,2.086
	C108.225,115.763,107.528,117.591,108.128,117.471"/>
<polygon fill="#EED1B9" points="73.344,143.07 72.337,151.938 72.341,152.863 78.026,152.169 78.498,142.248 "/>
<polygon fill="none" stroke="#C7A389" stroke-width="1.026" stroke-linecap="round" stroke-linejoin="round" stroke-miterlimit="10" points="
	73.344,143.07 72.337,151.938 72.341,152.863 78.026,152.169 78.498,142.248 "/>
<path fill="#1F519A" d="M69.116,120.364l0.078,14l0.046,7.935l12.962-0.074l1.201-66.154c0,0-4.499-2.367-4.749,0.027
	c0,0-2.397-2.921-4.371-1.038c-1.973,1.882-2.918-1.286-5.94,1.904c-3.025,3.191-6.918,16.307,0.651,21.953l0.077,13.531"/>
<path fill="#18224D" d="M68.319,120.742c0.041,7.312,0.082,14.624,0.124,21.934c0.001,0.236,0.193,0.576,0.466,0.573
	c4.32-0.023,8.641-0.048,12.962-0.073c0.707-0.002,1.116-0.678,1.128-1.327c0.399-22.051,0.801-44.103,1.2-66.154
	c0.004-0.185-0.112-0.426-0.284-0.511c-2.218-1.114-4.891-1.936-5.991,0.809c0.463-0.219,0.925-0.437,1.388-0.657
	c-1.124-1.266-2.345-1.918-4.032-1.757c-1.185,0.111-1.201,1.245-2.614,1.118c-0.815-0.071-1.666-0.405-2.469,0.009
	c-4.235,2.196-5.599,7.513-6.23,11.888c-0.407,2.821-0.074,5.667,0.838,8.35c0.603,1.774,3.391,3.664,3.398,5.1
	c0.024,4.261,0.047,8.521,0.072,12.782c0.006,1.247,1.599,0.137,1.594-0.755c-0.016-2.734-0.031-5.469-0.047-8.204
	c-0.005-1.116,0.679-5.002-0.313-5.838c-5.007-4.213-4.705-11.048-2.763-16.742c0.935-2.738,2.688-4.914,5.871-4.632
	c1.904,0.168,3.664-1.729,5.38,0.208c0.507,0.574,1.197-0.185,1.386-0.655c0.482-1.203,3.206,1.204,3.221,0.419
	c-0.008,0.444-0.017,0.891-0.023,1.335c-0.042,2.228-0.081,4.457-0.122,6.686c-0.14,7.633-0.277,15.265-0.416,22.898
	c-0.213,11.686-0.423,23.372-0.636,35.058c0.375-0.441,0.75-0.883,1.127-1.327c-3.103,0.018-6.206,0.036-9.31,0.051
	c-1.186,0.008-2.371,0.014-3.558,0.021c0.561-0.002,0.373,0.666,0.364-0.665c-0.006-1.237-0.013-2.475-0.021-3.712
	c-0.032-5.66-0.063-11.322-0.096-16.981C69.906,118.741,68.313,119.852,68.319,120.742"/>
<path fill="#1F519A" d="M67.352,135.697l16.388-0.093c0,0,0.391,1.188,0.02,3.837c-0.368,2.645,1.355,3.43-2.608,3.98
	c-3.965,0.551-11.898,0.993-12.962,0.073c-1.063-0.92-0.416-3.278-0.154-3.623c0.264-0.346-0.931-1.267-0.672-2.06
	C67.622,137.017,67.352,135.697,67.352,135.697"/>
<path fill="#18224D" d="M66.957,136.612c1.921-0.011,16.098-0.605,16.217-0.055c0.055,0.257,0.24,5.495-0.013,5.617
	c-2.442,1.166-6.54,0.837-9.187,0.922c-2.828,0.09-6.518,0.579-5.354-3.484c0.159-0.553-0.043-0.933-0.325-1.399
	c-0.398-0.665-0.167-2.352-0.31-3.172c-0.143-0.811-1.366,0.752-1.268,1.313c0.127,0.729-0.029,1.385,0.011,2.116
	c0.013,0.25,0.616,1.828,0.652,1.752c-0.39,0.824-0.745,2.717-0.187,3.508c1.662,2.351,7.152,1.18,9.571,1.014
	c2.383-0.163,6.479,0.158,7.539-2.553c0.483-1.235,0.059-2.976,0.199-4.27c0.113-1.017,0.105-2.128-0.171-3.115
	c-0.042-0.083-0.109-0.12-0.199-0.118c-5.464,0.031-10.926,0.063-16.388,0.093C67.122,134.787,66.325,136.615,66.957,136.612"/>
<path fill="#2D2B2B" d="M72.063,150.484c0,0,4.106,1.035,5.82-0.033c1.714-1.069,2.397,2.896,9.279,3.651
	c6.881,0.755,0.685,4.229-1.821,5.433c-2.506,1.206-13.085,1.395-15.217-1.237C70.124,158.298,64.289,155.686,72.063,150.484"/>
<path fill="none" stroke="#2D2B2B" stroke-width="1.19" stroke-linecap="round" stroke-linejoin="round" stroke-miterlimit="10" d="
	M72.063,150.484c0,0,4.106,1.035,5.82-0.033c1.714-1.069,2.397,2.896,9.279,3.651c6.881,0.755,0.685,4.229-1.821,5.433
	c-2.506,1.206-13.085,1.395-15.217-1.237C70.124,158.298,64.289,155.686,72.063,150.484z"/>
<path fill="#6E191C" d="M119.819,111.734c-2.446,0.012-4.894,0-7.341,0.041c-0.149,0.471-0.302,0.944-0.451,1.414
	c2.115-0.479,4.438-1.392,6.402-2.317c0.321-0.151,1.152-1.278,0.45-1.413c-1.554-0.304-3.125-0.09-4.696-0.207
	c-0.105,0.449-0.212,0.899-0.317,1.348c1.377-0.684,3.332-0.783,4.455-1.882c0.18-0.177,0.729-1.014,0.292-1.213
	c-0.748-0.342-1.52-0.245-2.324-0.215c-0.554,0.021-1.159,1.456-0.576,1.433c0.709-0.024,1.437-0.148,2.106,0.157
	c0.1-0.404,0.194-0.807,0.291-1.21c-0.449,0.439-1.328,0.58-1.91,0.775c-0.78,0.265-1.535,0.525-2.275,0.895
	c-0.279,0.139-0.943,1.3-0.317,1.347c1.569,0.116,3.143-0.098,4.696,0.206c0.15-0.472,0.303-0.943,0.453-1.415
	c-1.963,0.926-4.287,1.839-6.402,2.318c-0.4,0.09-1.068,1.424-0.452,1.414c2.447-0.042,4.894-0.03,7.34-0.041
	C119.796,113.166,120.414,111.731,119.819,111.734"/>
<path fill="#1F519A" d="M69.105,99.115c1.858,1.246,6.429,2.277,7.734-0.307"/>
<path fill="#18224D" d="M68.593,100.003c2.664,1.698,6.865,2.134,8.634-0.973c0.603-1.058-0.169-1.504-0.771-0.444
	c-0.615,1.078-2.418,0.959-3.462,0.841c-1.18-0.135-2.374-0.562-3.375-1.2C69.099,97.896,68.046,99.656,68.593,100.003"/>
<path fill="#1F519A" d="M82.415,121.393c-1.257,0.007-2.71,0.279-3.773-0.507"/>
<path fill="#18224D" d="M82.823,120.486c-1.247,0.017-2.578,0.26-3.668-0.491c-0.421-0.287-1.502,1.452-1.026,1.777
	c1.145,0.789,2.571,0.545,3.878,0.527C82.579,122.292,83.358,120.478,82.823,120.486"/>
<path fill="#1F519A" d="M82.556,123.045c-1.254,0.337-2.442,0.676-3.766,0.616"/>
<path fill="#18224D" d="M82.736,122.126c-1.184,0.319-2.354,0.635-3.59,0.599c-0.788-0.023-1.586,1.847-0.712,1.872
	c1.353,0.041,2.644-0.283,3.94-0.632c0.468-0.126,0.802-0.661,0.889-1.108C83.333,122.5,83.204,122,82.736,122.126"/>
<path fill="#1F519A" d="M69.483,138.528c2.052,0.386,5.166,1.492,6.741-0.368"/>
<path fill="#18224D" d="M69.139,139.47c2.582,0.507,5.438,1.461,7.495-0.762c0.738-0.8,0.106-2.094-0.816-1.099
	c-1.361,1.473-4.357,0.296-5.99-0.024C69.01,137.425,68.179,139.283,69.139,139.47"/>
<path fill="#1F519A" d="M73.464,140.753c1.653-0.009,2.646,0.317,3.431-1.274"/>
<path fill="#18224D" d="M73.063,141.665c0.76,0.002,1.576,0.122,2.313-0.12c0.87-0.285,1.46-1.081,1.871-1.862
	c0.104-0.201,0.489-0.903,0.161-1.092c-0.318-0.183-0.761,0.488-0.864,0.685c-0.467,0.89-1.843,0.571-2.68,0.568
	C73.272,139.842,72.476,141.663,73.063,141.665"/>
<path fill="#6E191C" d="M103.709,99.426c-0.167-3.177-0.029-9.702,4.511-9.148c0.445,0.054,1.121-1.35,0.617-1.412
	c-5.616-0.685-6.298,7.766-6.098,11.583C102.771,101.031,103.73,99.851,103.709,99.426"/>
<path fill="#6E191C" d="M88.751,97.89c0.372-2.059,0.262-4.14,0.242-6.22c-0.002-0.356-0.362-0.058-0.467,0.059
	c-0.223,0.252-0.459,0.638-0.457,0.989c0.018,1.988,0.139,3.984-0.215,5.951c-0.054,0.292,0.107,0.392,0.335,0.194
	C88.46,98.627,88.687,98.244,88.751,97.89"/>
<path fill="#6E191C" d="M96.603,98.171c0.038-2.43,0.832-4.781,1.283-7.15c-0.32,0.326-0.64,0.65-0.959,0.978
	c0.886,2.06,0.364,4.548,2.215,6.144c0.334,0.286,1.205-1.023,0.795-1.375c-1.727-1.486-1.246-4.058-2.083-6.001
	c-0.234-0.545-0.927,0.807-0.96,0.978c-0.451,2.372-1.245,4.717-1.283,7.151C95.597,99.763,96.597,98.62,96.603,98.171"/>
<path fill="#EED1B9" d="M117.108,69.678l0.057,10.317c0,0-7.418-2.208-7.667,0.837c-0.247,3.044,0.498,17.545,8.914,9.054
	c0,0-0.687,19.206,9.237,19.81c9.923,0.606,18.226,3.191,24.26-13.892c0,0,2.166-9.85,0.463-35.215c0,0-15.901-5.202-30.557-0.489
	C115.483,63.31,117.108,69.678,117.108,69.678"/>
<path fill="#C7A389" d="M116.821,70.024c0.012,2.352,0.024,4.703,0.039,7.054l0.016,3.148c-0.005-1.048,0.738-0.645-0.618-0.973
	c-0.85-0.205-1.71-0.321-2.576-0.426c-4.636-0.562-4.674,2.424-4.384,6.046c0.4,5.018,2.615,10.529,7.984,6.345
	c1.099-0.854,0.833-1.236,0.833,0.012c0,1.16,0.051,2.327,0.153,3.483c0.33,3.667,0.986,7.244,2.588,10.584
	c2.877,6.001,10.845,5.623,16.563,5.269c6.813-0.426,10.69-5.747,13.356-11.44c1.538-3.285,1.867-6.169,2.156-9.751
	c0.777-9.677,0.349-19.46-0.272-29.132c0.007-0.039-0.003-0.072-0.03-0.1c-8.748-2.804-39.623-6.876-35.803,9.944
	c0.026,0.118,0.626-0.539,0.563-0.817c-3.279-14.435,25.016-10.684,32.492-8.86c1.967,0.481,2.181,0.16,2.328,2.444
	c0.282,4.407,0.44,8.818,0.51,13.233c0.083,5.125-0.029,10.263-0.479,15.37c-0.359,4.074-1.137,6.566-3.186,10.453
	c-3.725,7.07-9.883,8.175-17.041,7.658c-6.7-0.486-10.03-2.156-12.051-8.9c-1.059-3.536-1.375-7.443-1.266-11.125
	c0.006-0.161-0.123-0.091-0.197-0.021c-5.276,4.934-7.792,0.825-8.549-4.602c-0.249-1.784-0.912-4.752,1.432-5.21
	c1.729-0.337,3.841,0.25,5.524,0.73c0.245,0.069,0.546-0.61,0.545-0.791c-0.02-3.439-0.039-6.878-0.058-10.317
	C117.394,69.047,116.819,69.794,116.821,70.024"/>
<path fill="#C5AF9F" d="M133.78,83.196c0.019,3.271-2.618,5.938-5.889,5.956c-3.271,0.019-5.938-2.617-5.957-5.889
	c-0.016-3.271,2.619-5.937,5.889-5.956C131.095,77.289,133.763,79.924,133.78,83.196"/>
<path fill="#C5AF9F" d="M139.319,89.873c0.01,1.756-1.405,3.187-3.161,3.195c-1.756,0.012-3.188-1.403-3.196-3.159
	c-0.009-1.756,1.404-3.188,3.16-3.197C137.877,86.702,139.309,88.118,139.319,89.873"/>
<path fill="#EED1B9" d="M139.315,89.218c0.01,1.755-1.405,3.188-3.161,3.197c-1.755,0.01-3.187-1.406-3.197-3.161
	c-0.01-1.755,1.406-3.187,3.161-3.197C137.874,86.047,139.305,87.462,139.315,89.218"/>
<path fill="#C5AF9F" d="M149.711,81.471c0.019,3.273-2.619,5.939-5.891,5.958c-3.271,0.018-5.938-2.618-5.956-5.89
	c-0.017-3.271,2.619-5.939,5.891-5.957C147.023,75.565,149.691,78.201,149.711,81.471"/>
<path fill="#FFFFFF" d="M122.051,82.764l11.769-1.48c0.02,3.299-2.637,5.988-5.937,6.006
	C125.073,87.305,122.701,85.379,122.051,82.764"/>
<path fill="#C5AF9F" d="M133.82,81.284l-11.769,1.48c-0.111-0.452-0.174-0.923-0.176-1.413c-0.019-3.296,2.64-5.985,5.938-6.003
	C131.115,75.328,133.8,77.989,133.82,81.284"/>
<path fill="#2D2B2B" d="M121.691,83.067c1.014,3.414,4.229,5.274,7.694,4.465c2.94-0.688,4.697-3.605,4.81-6.449
	c0.024-0.605-0.736,0.008-0.751,0.402c-0.262,6.649-9.286,6.853-11.034,0.977C122.259,81.951,121.577,82.689,121.691,83.067"/>
<path fill="#2D2B2B" d="M134.171,81.068c-0.211-4.137-3.778-6.902-7.842-5.951c-3.476,0.813-5.286,4.686-4.621,7.962
	c0.015,0.067,0.075,0.162,0.159,0.152c3.923-0.495,7.847-0.988,11.77-1.481c0.366-0.045,0.736-0.977,0.368-0.93
	c-3.312,0.417-6.623,0.834-9.933,1.25c-0.569,0.071-1.138,0.144-1.706,0.215c-0.188,0.022-0.139-1.145-0.139-1.149
	c-0.073-1.574,0.705-2.976,1.825-4.017c3.647-3.389,9.192-0.046,9.416,4.382C133.499,82.095,134.189,81.42,134.171,81.068"/>
<path fill="#2D2B2B" d="M130.655,82.717c0.002,0.604-0.481,1.093-1.086,1.098c-0.603,0.003-1.093-0.482-1.095-1.086
	c-0.004-0.601,0.481-1.091,1.083-1.096C130.16,81.628,130.651,82.115,130.655,82.717"/>
<path fill="#FFFFFF" d="M137.81,80.234l11.941-0.067c0.021,3.296-2.639,5.986-5.938,6.005c-2.812,0.017-5.18-1.914-5.829-4.526
	C137.874,81.195,137.813,80.722,137.81,80.234"/>
<path fill="#2D2B2B" d="M137.644,80.709c3.359-0.019,6.719-0.037,10.077-0.056c0.577-0.003,1.154-0.006,1.731-0.009
	c0.088-0.001-0.14,0.305-0.186,0.667c-0.18,1.386-1.088,2.539-2.151,3.37c-3.711,2.904-8.709-0.429-8.907-4.635
	c-0.029-0.627-0.819-0.075-0.8,0.377c0.159,3.329,2.807,6.403,6.341,6.224c3.599-0.184,6.26-2.974,6.398-6.55
	c0.007-0.144-0.023-0.406-0.23-0.404c-3.98,0.021-7.963,0.044-11.942,0.067C137.521,79.76,137.146,80.713,137.644,80.709"/>
<path fill="#C5AF9F" d="M137.81,80.234c-0.019-3.296,2.641-5.986,5.938-6.004c3.297-0.018,5.986,2.641,6.004,5.938L137.81,80.234z"
	/>
<path fill="#2D2B2B" d="M138.093,79.888c0.139-3.947,3.814-5.904,7.287-4.922c2.451,0.694,3.976,3.104,4.088,5.547
	c0.166-0.264,0.333-0.529,0.499-0.794c-3.981,0.023-7.962,0.045-11.945,0.068c-0.243,0.001-0.614,0.896-0.427,0.895
	c3.981-0.023,7.962-0.044,11.943-0.067c0.221-0.001,0.506-0.613,0.498-0.795c-0.183-3.96-3.602-6.679-7.51-5.854
	c-2.984,0.627-4.901,3.74-5.003,6.617C137.515,80.85,138.085,80.116,138.093,79.888"/>
<path fill="#2D2B2B" d="M150.076,79.842c-0.175-3.788-3.332-6.47-7.104-5.988c-3.221,0.412-5.381,3.55-5.487,6.612
	c-0.021,0.564,0.64-0.166,0.648-0.462c0.122-3.509,3.034-5.631,6.39-5.242c2.869,0.332,4.78,3.005,4.906,5.729
	C149.446,80.895,150.09,80.138,150.076,79.842"/>
<path fill="#2D2B2B" d="M137.479,80.556c0.183,3.84,3.407,6.515,7.22,5.976c3.19-0.451,5.269-3.56,5.388-6.592
	c0.004-0.095-0.018-0.235-0.145-0.233c-3.979,0.021-7.961,0.044-11.941,0.066c-0.341,0.001-0.742,0.925-0.382,0.923
	c3.36-0.019,6.719-0.037,10.078-0.056c0.576-0.003,1.153-0.007,1.731-0.011c0.174,0-0.2,1.264-0.194,1.244
	c-0.37,1.669-1.733,2.828-3.225,3.469c-3.822,1.641-7.69-1.627-7.87-5.427C138.118,79.495,137.465,80.246,137.479,80.556"/>
<path fill="#2D2B2B" d="M141.257,80.861c0.003,0.601-0.482,1.093-1.084,1.096c-0.602,0.004-1.093-0.481-1.097-1.084
	c-0.002-0.603,0.481-1.093,1.084-1.096C140.764,79.772,141.253,80.259,141.257,80.861"/>
<path fill="#C5AF9F" d="M123.768,73.175c0,0,1.747-1.507,3.633-1.908c1.886-0.4,3.189-0.018,3.189-0.018s-2.228-2.462-3.979-1.605
	C124.856,70.501,123.96,72.783,123.768,73.175"/>
<path fill="#C5AF9F" d="M141.764,69.566c0,0,6.367,0.939,6.634,2.044c0.267,1.106-1.083-3.053-3.025-3.236
	C143.432,68.189,141.764,69.566,141.764,69.566"/>
<path fill="#462F2A" d="M123.764,72.555c0,0,1.748-1.506,3.633-1.907c1.886-0.4,3.189-0.018,3.189-0.018s-2.227-2.461-3.979-1.606
	C124.854,69.882,123.956,72.164,123.764,72.555"/>
<path fill="#462F2A" d="M141.76,68.946c0,0,6.368,0.94,6.634,2.047c0.267,1.104-1.082-3.055-3.023-3.239
	C143.427,67.571,141.76,68.946,141.76,68.946"/>
<path fill="none" stroke="#C5AF9F" stroke-width="0.661" stroke-linecap="round" stroke-linejoin="round" stroke-miterlimit="10" d="
	M124.604,94.411c-0.234-0.002-0.416,0.061-0.557,0.161"/>
<path fill="none" stroke="#C5AF9F" stroke-width="0.661" stroke-linecap="round" stroke-linejoin="round" stroke-miterlimit="10" d="
	M124.049,94.571c-0.57,0.404-0.441,1.449-0.441,1.449"/>
<path fill="none" stroke="#C5AF9F" stroke-width="0.661" stroke-linecap="round" stroke-linejoin="round" stroke-miterlimit="10" d="
	M146.526,93.967c-0.178-0.632-0.428-0.986-0.674-1.184"/>
<path fill="none" stroke="#C5AF9F" stroke-width="0.661" stroke-linecap="round" stroke-linejoin="round" stroke-miterlimit="10" d="
	M145.023,92.575c0,0,0.409-0.126,0.828,0.208"/>
<line fill="none" stroke="#C5AF9F" stroke-width="0.661" stroke-linecap="round" stroke-linejoin="round" stroke-miterlimit="10" x1="124.05" y1="94.569" x2="124.048" y2="94.571"/>
<line fill="none" stroke="#C5AF9F" stroke-width="0.661" stroke-linecap="round" stroke-linejoin="round" stroke-miterlimit="10" x1="145.853" y1="92.783" x2="145.853" y2="92.783"/>
<path fill="none" stroke="#C5AF9F" stroke-width="0.661" stroke-linecap="round" stroke-linejoin="round" stroke-miterlimit="10" d="
	M145.853,92.783c-0.856,3.981-2.377,5.377-3.711,5.204c-1.333-0.174-1.902,0.346-2.783,0.949c-0.883,0.606-2.266,2.486-3.139,2.564
	c-0.871,0.078-2.376-0.371-3.201-1.761c-0.829-1.388-1.251-0.882-2.485-0.595c-1.231,0.285-1.914,0.523-3.358-0.225
	c-1.438-0.747-3.113-4.325-3.127-4.347"/>
<path fill="#2D2B2B" d="M124.575,93.326c-0.245,0.016-0.451,0.069-0.662,0.193c-0.22,0.131-0.388,0.361-0.362,0.629
	c0.02,0.215,0.237,0.379,0.443,0.256c0.153-0.091,0.276-0.115,0.454-0.126C124.902,94.249,125.156,93.291,124.575,93.326"/>
<path fill="#2D2B2B" d="M123.884,93.621c-0.606,0.505-0.795,1.351-0.709,2.106c0.026,0.246,0.306,0.124,0.41,0.024
	c0.176-0.164,0.295-0.413,0.268-0.656c-0.028-0.255-0.033-0.621,0.173-0.793C124.329,94.049,124.399,93.192,123.884,93.621"/>
<path fill="#2D2B2B" d="M146.797,93.058c-0.155-0.517-0.368-0.973-0.783-1.327c-0.322-0.277-0.86,0.591-0.513,0.889
	c0.31,0.265,0.449,0.663,0.564,1.039C146.222,94.179,146.914,93.452,146.797,93.058"/>
<path fill="#2D2B2B" d="M144.717,92.415c0.287-0.078,0.554,0.044,0.784,0.206c0.16,0.111,0.707-0.754,0.512-0.888
	c-0.248-0.175-0.561-0.297-0.869-0.214c-0.188,0.05-0.33,0.339-0.404,0.494C144.724,92.046,144.551,92.458,144.717,92.415"/>
<path fill="#2D2B2B" d="M123.673,94.369l0.002,0.002c0.032,0.168,0.315-0.197,0.332-0.221c0.103-0.149,0.267-0.4,0.229-0.598
	l-0.002-0.001c-0.033-0.168-0.317,0.197-0.332,0.22C123.798,93.922,123.634,94.173,123.673,94.369"/>
<path fill="#2D2B2B" d="M145.501,92.619L145.501,92.619c0.111,0.111,0.711-0.688,0.512-0.887l-0.001-0.001
	C145.901,91.621,145.302,92.42,145.501,92.619"/>
<path fill="#2D2B2B" d="M145.471,92.429c-1.706,6.817-3.033,2.968-6.131,5.524c-0.947,0.783-1.835,2.054-3.005,2.486
	c-1.82,0.673-2.623-1.739-3.613-2.375c-1.259-0.812-3.096,0.47-4.6,0.139c-1.951-0.43-3.093-3.009-3.882-4.647
	c-0.096-0.199-0.692,0.56-0.572,0.811c0.846,1.764,2.285,4.879,4.655,4.879c1.502,0,3.19-1.237,4.312,0.291
	c0.872,1.183,2.257,2.186,3.756,1.632c0.892-0.331,1.671-1.438,2.317-2.07c1.467-1.433,3.021-0.81,4.558-1.681
	c1.745-0.991,2.345-3.765,2.778-5.496C146.165,91.439,145.524,92.216,145.471,92.429"/>
<path fill="#C5AF9F" d="M146.345,64.024c0,0-0.76,6.155,5.793,7.507l-2.926-6.333c0,0,6.873,2.344,5.174-0.028
	c-1.699-2.373,1.422-6.553-1.037-5.15c0,0-1.49-2.971-3.565-1.77c0,0-4.193-4.637-5.269-1.754c0,0-4.676-2.554-6.05-0.065
	c0,0-5.28-3.541-5.262-0.566c0,0-11.304,1.056-10.306,2.142c0,0-5.537,3.206-4.637,4.491c0,0-3.807,10.933-1.823,10.623
	c0,0,0.161,11.11,1.265,13.087c0,0,2.996-13.705,6.26-15.508C127.225,68.894,133.942,63.832,146.345,64.024"/>
<path fill="#AB6A45" d="M159.823,65.426c0,0-4.641-8.302-7.098-6.902c0,0,4.063-3.498,7.043-2.82c0,0-8.533-0.148-10.609,1.053
	c0,0,5.223-6.578,7.998-6.593c0,0-12.19,1.954-13.266,4.837c0,0,1.928-10.129,3.712-10.14c0,0-8.389,7.587-9.763,10.074
	c0,0-0.331-1.023-0.988-2.34c-0.313-0.631-0.7-1.328-1.161-2.011c-0.431-0.634-0.925-1.259-1.482-1.807
	c-0.988-0.968-2.174-1.699-3.557-1.835c0,0,1.91,4.454,1.929,7.429c0,0-15.304-4.377-19.646-0.683c0,0,8.342,1.738,9.341,2.824
	c0,0-12.091,2.35-12.077,4.732c0,0,6.539-1.526,7.44-0.242c0,0-1.606,1.007-3.534,2.415c-1.428,1.042-3.031,2.304-4.293,3.539
	c-1.368,1.344-2.338,2.657-2.238,3.629c0,0,2.863-2.399,5.637-3.008c0,0-4.415,8.455-3.409,10.93c0,0,4.03-6.57,6.012-6.877
	c0,0,0.163,11.107,1.266,13.086c0,0,2.995-13.706,6.261-15.51c3.263-1.805,9.98-6.865,22.381-6.674c0,0-0.76,6.154,5.796,7.506
	l-2.927-6.333c0,0,6.688,4.924,7.298,7.499c0,0-0.425-5.157-2.125-7.526c-0.804-1.123,0.308-1.168,1.798-0.725"/>
<path fill="#462F2A" d="M160.285,64.836c-1.246-2.194-4.189-7.954-7.4-6.989c-0.02,0.396-0.036,0.789-0.057,1.185
	c1.89-1.569,4.146-2.833,6.66-2.632c0.188-0.465,0.373-0.928,0.559-1.391c-3.424-0.047-7.521-0.317-10.729,1.071
	c0.023,0.348,0.047,0.696,0.07,1.044c1.878-2.331,4.518-5.767,7.61-6.287c0.491-0.082,1.044-1.471,0.318-1.352
	c-4.108,0.677-8.504,1.521-12.147,3.609c-1.609,0.923-0.87,2.127-0.596,0.805c0.366-1.771,1.08-7.748,2.872-8.364
	c0.019-0.396,0.037-0.789,0.056-1.185c-2.979,2.704-5.912,5.483-8.593,8.491c-0.919,1.031-0.743,1.098-0.671,1.302
	c-0.382-1.089-0.906-2.111-1.448-3.125c-1.304-2.447-3.176-4.121-5.855-4.774c-0.517-0.125-0.891,0.93-0.743,1.285
	c0.979,2.349,1.694,4.771,1.883,7.313c0.297-0.381,0.595-0.761,0.893-1.142c-5.621-1.581-14.767-4.311-20.002-0.627
	c-0.262,0.183-0.933,1.175-0.309,1.306c2.936,0.621,6.79,0.991,9.234,2.796c0.182-0.449,0.361-0.894,0.544-1.343
	c-3.34,0.661-11.691,1.477-12.727,5.571c-0.065,0.265,0.001,0.586,0.333,0.512c1.861-0.422,5.484-1.558,7.213-0.25
	c0.138-0.426,0.274-0.852,0.415-1.278c-3.532,2.251-9.912,5.742-10.586,10.357c-0.071,0.49,0.204,0.658,0.596,0.343
	c1.568-1.268,4.199-1.796,5.133-3.606c-0.543,1.054-1.038,2.131-1.523,3.211c-1.073,2.385-2.615,5.595-1.993,8.286
	c0.129,0.556,0.722-0.069,0.851-0.276c0.858-1.382,1.801-2.703,2.793-3.991c0.061-0.076,2.349-3.347,2.368-2.327
	c0.018,0.945,0.053,1.889,0.086,2.834c0.12,3.227-0.045,7.066,1.223,10.083c0.227,0.535,0.915-0.574,0.953-0.753
	c0.668-3.009,1.514-5.982,2.521-8.896c1.73-5.01,4.641-6.951,9.216-9.15c2.422-1.164,4.999-1.914,7.607-2.513
	c2.181-0.501,4.396-0.641,6.617-0.753c1.987-0.102,1.634-0.754,1.658,0.606c0.07,3.698,2.595,5.89,5.943,6.859
	c0.552,0.161,1.055-0.809,0.848-1.255c-0.975-2.111-1.95-4.223-2.927-6.333c-0.283,0.419-0.565,0.838-0.849,1.256
	c2.63,1.957,6.018,4.279,7.222,7.422c0.221,0.575,1-0.743,0.968-1.063c-0.087-0.908-1.321-7.124-1.112-7.082
	c0.503,0.099,1.172-1.269,0.56-1.391c-1.487-0.294-0.997-0.358-2.142-0.041c-0.384,0.106-0.775,0.763-0.665,1.149
	c0.8,2.828,2.06,5.303,2.348,8.313c0.325-0.356,0.646-0.71,0.969-1.065c-1.208-3.149-4.761-5.626-7.377-7.574
	c-0.472-0.353-1.009,0.901-0.847,1.255c0.977,2.111,1.952,4.221,2.928,6.333c0.283-0.419,0.563-0.836,0.847-1.255
	c-3.411-0.988-6.013-3.366-5.663-7.172c0.012-0.148-0.051-0.365-0.238-0.364c-7.564,0.047-18.022,1.85-23.646,7.63
	c-3.543,3.641-4.705,10.631-5.768,15.413c0.317-0.25,0.638-0.502,0.956-0.754c-1.587-3.771-1.146-8.797-1.212-12.829
	c-0.004-0.207-0.102-0.439-0.357-0.344c-2.638,0.987-4.368,4.105-5.855,6.325c-0.974,1.455,0.071,0.738,0.063-0.376
	c-0.01-1.439,0.695-2.96,1.189-4.285c0.615-1.654,1.377-3.275,2.187-4.842c0.11-0.217,0.362-1.039-0.188-0.873
	c-2.115,0.64-4.006,1.648-5.731,3.04c3.424-2.763,6.175-5.903,9.974-8.327c0.299-0.19,0.823-0.968,0.413-1.277
	c-1.04-0.783-2.463-0.547-3.685-0.446c-0.65,0.054-1.332,0.166-1.974,0.281c-1.238,0.224-2.241,1.105-0.821,0.207
	c2.966-1.876,7.169-2.516,10.572-3.19c0.401-0.08,0.959-1.034,0.543-1.341c-2.453-1.812-6.531-2.239-9.444-2.854
	c-0.104,0.436-0.207,0.872-0.31,1.308c4.889-3.438,14.006-0.751,19.291,0.737c0.557,0.155,0.923-0.708,0.89-1.141
	c-0.195-2.624-0.964-5.122-1.97-7.543c-0.248,0.428-0.496,0.858-0.742,1.285c3.734,0.908,5.773,4.383,6.961,7.773
	c0.183,0.523,0.691-0.028,0.849-0.274c2.376-3.724,6.269-6.813,9.524-9.768c0.195-0.178,0.74-1.419,0.054-1.183
	c-3.168,1.091-3.841,8.302-4.36,10.979c-0.154,0.795,0.578,0.478,0.835,0.034c1.814-3.139,9.479-3.82,12.762-4.36
	c0.106-0.449,0.21-0.9,0.318-1.352c-3.458,0.582-6.31,4.321-8.387,6.9c-0.134,0.165-0.541,1.309,0.071,1.045
	c3.099-1.341,7.15-1.079,10.487-1.032c0.514,0.005,1.169-1.343,0.559-1.391c-2.821-0.225-5.308,1.251-7.425,3.007
	c-0.223,0.185-0.738,1.389-0.055,1.184c2.75-0.828,5.695,4.881,6.793,6.816C159.644,66.516,160.55,65.303,160.285,64.836"/>
<path fill="#10833E" d="M149.388,121.401c0,0,27.903-2.812,28.365-0.16c0.462,2.654,3.232,11.246-1.098,11.2
	c-4.328-0.045-23.875,0.576-25.86-0.391C148.808,131.083,150.327,122.781,149.388,121.401"/>
<path fill="#C5AF9F" d="M110.704,82.309c1.471,2.439,0.79,5.459,2.162,7.924c0.758,1.364,2.687,1.728,3.407,0.225
	c0.209-0.437-0.266-0.724-0.48-0.277c-0.602,1.256-2.016,0.074-2.417-0.536c-0.66-1-0.752-2.309-0.895-3.464
	c-0.196-1.583-0.431-3.075-1.268-4.46C111.014,81.387,110.522,82.005,110.704,82.309"/>
<path fill="#C5AF9F" d="M150.309,94.286c-0.131,5.054-3.717,10.449-7.948,13.051c-2.674,1.643-6.182,0.837-9.121,0.871
	c-0.258,0.004-0.597,0.789-0.346,0.786c5.87-0.069,9.438,0.065,13.435-4.641c2.459-2.896,4.415-6.797,4.515-10.638
	C150.852,93.412,150.314,94.054,150.309,94.286"/>
<path fill="#064523" d="M178.907,120.2c1.646,4.537-1.115,9.486,0.92,13.944c0.063,0.142,0.486-0.389,0.404-0.57
	c-2.032-4.45,0.728-9.406-0.92-13.944C179.263,119.499,178.838,120.009,178.907,120.2"/>
<path fill="#064523" d="M177.541,120.038c1.648,4.535-1.115,9.486,0.922,13.943c0.063,0.141,0.485-0.39,0.404-0.57
	c-2.034-4.448,0.726-9.403-0.923-13.942C177.896,119.337,177.472,119.847,177.541,120.038"/>
<path fill="#064523" d="M150.643,137.281c-2.199-0.282-1.459-3.609-1.446-5.128c0.005-0.612-0.76-0.012-0.764,0.397
	c-0.015,1.803-0.729,5.342,1.865,5.674C150.716,138.277,151.121,137.342,150.643,137.281"/>
<path fill="#064523" d="M58.683,150.227c-2.184-6.471-1.95-13.177-1.819-19.911c0.154-7.98-0.269-15.97-0.335-23.95
	c-0.007-0.851-1.033,0.051-1.028,0.583c0.068,7.984,0.441,15.969,0.334,23.952c-0.093,6.849-0.36,13.615,1.855,20.192
	C57.923,151.789,58.852,150.727,58.683,150.227"/>
<path fill="#064523" d="M50.877,110.847c0.778,0.005,1.542,0.116,2.285,0.348c0.639,0.198,1.187-1.118,0.453-1.347
	c-0.744-0.229-1.509-0.341-2.287-0.346c-0.366-0.003-0.647,0.238-0.764,0.584C50.484,110.323,50.51,110.846,50.877,110.847"/>
<path fill="#064523" d="M50.886,114.328c0.639-0.003,1.245-0.038,1.837-0.303c0.563-0.251,0.728-1.583-0.078-1.224
	c-0.405,0.181-0.849,0.191-1.286,0.195C50.743,112.999,50.21,114.331,50.886,114.328"/>
<path fill="#064523" d="M50.547,118.978c0.56,0.099,1.127,0.131,1.685,0.23c0.421,0.076,0.923-1.212,0.723-1.25
	c-0.559-0.1-1.127-0.13-1.685-0.229C50.849,117.654,50.347,118.941,50.547,118.978"/>
<path fill="#064523" d="M50.544,117.099c0.4-0.001,0.802-0.006,1.201-0.007c0.361-0.001,0.633-0.26,0.75-0.594
	c0.077-0.224,0.076-0.747-0.284-0.746c-0.401,0.002-0.802,0.005-1.203,0.008c-0.359,0.001-0.631,0.259-0.747,0.593
	C50.183,116.577,50.184,117.102,50.544,117.099"/>
<path fill="#064523" d="M50.772,122.482c0.514-0.001,1,0.002,1.479,0.213c0.425,0.189,1.098-1.083,0.722-1.249
	c-0.529-0.236-1.076-0.253-1.647-0.251C50.886,121.196,50.324,122.484,50.772,122.482"/>
<path fill="#064523" d="M50.306,126.449c0.761-0.003,1.522-0.007,2.285-0.013c0.412-0.002,0.967-1.281,0.566-1.279
	c-0.761,0.004-1.523,0.01-2.285,0.014C50.46,125.172,49.905,126.451,50.306,126.449"/>
<path fill="#064523" d="M50.439,130.051c0.612,0.019,1.173,0.241,1.736,0.462c0.37,0.145,1.005-1.141,0.723-1.25
	c-0.611-0.237-1.216-0.461-1.876-0.481C50.647,128.771,50.086,130.041,50.439,130.051"/>
<path fill="#064523" d="M50.636,133.933c0.402-0.002,0.803-0.006,1.202-0.006c0.627-0.005,1.155-1.34,0.472-1.336
	c-0.401,0.002-0.803,0.005-1.203,0.008C50.48,132.602,49.952,133.937,50.636,133.933"/>
<path fill="#064523" d="M50.546,138.264c0.52-0.003,1.042-0.006,1.562-0.008c0.363-0.002,0.638-0.251,0.753-0.591
	c0.079-0.227,0.071-0.752-0.291-0.75c-0.521,0.001-1.042,0.005-1.564,0.009c-0.361,0.001-0.635,0.251-0.752,0.59
	C50.175,137.741,50.183,138.268,50.546,138.264"/>
<path fill="#064523" d="M50.751,142.198c0.36-0.001,0.721-0.004,1.082-0.006c0.393-0.002,0.941-1.275,0.576-1.272
	c-0.36,0.001-0.723,0.003-1.082,0.004C50.936,140.926,50.384,142.2,50.751,142.198"/>
<path fill="#064523" d="M51.243,144.959c0.36-0.002,0.722-0.005,1.082-0.007c0.378-0.001,0.921-1.271,0.584-1.268
	c-0.361,0.001-0.722,0.005-1.081,0.006C51.448,143.693,50.907,144.962,51.243,144.959"/>
<path fill="#064523" d="M53.008,148.112c0.483-0.004,0.892-0.046,1.273-0.378c0.257-0.224,0.465-0.598,0.331-0.946
	c-0.117-0.317-0.508-0.332-0.738-0.13c-0.133,0.116-0.229,0.11-0.408,0.113c-0.363,0.003-0.639,0.246-0.755,0.587
	C52.633,147.587,52.646,148.116,53.008,148.112"/>
<path fill="#064523" d="M54.369,151.589c1.093-0.05,1.804-0.904,1.847-1.972c0.038-0.944-1.095-0.524-1.123,0.191
	c0,0-0.03,0.35-0.012,0.332c-0.127,0.12-0.376,0.107-0.533,0.115C53.913,150.283,53.552,151.627,54.369,151.589"/>
<path fill="#EECA22" d="M158.588,43.566c1.899,0.058,9.502,0.415,4.742,2.914c-2.624,1.378-5.605,2.162-8.441,2.974
	c-8.499,2.438-17.31,3.907-26.063,5.055c-6.847,0.899-14.233,1.9-21.115,0.786c-4.63-0.748,2.664-3.663,3.636-4.017
	c4.052-1.472,8.296-2.443,12.492-3.391c0.399-0.091,0.687-1.052,0.157-0.932c-5.329,1.202-10.701,2.487-15.728,4.665
	c-1.155,0.499-3.475,1.515-3.4,3.132c0.175,3.883,18.081,1.328,20.288,1.103c12.427-1.272,25.869-3.214,37.449-8.156
	c1.101-0.47,3.32-1.383,3.56-2.819c0.431-2.595-6.122-2.225-7.234-2.258C158.507,42.611,158.117,43.551,158.588,43.566"/>
<path fill="#EECA22" d="M159.788,52.127c1.578,0.566,8.657,3.288,3.637,4.145c-2.957,0.506-6.074,0.327-9.052,0.221
	c-9.431-0.331-18.862-1.79-28.108-3.6c-6.293-1.232-13.539-2.47-19.163-5.788c-3.261-1.924,4.224-2.231,5.349-2.27
	c4.309-0.146,8.646,0.242,12.929,0.641c0.313,0.029,0.742-0.884,0.389-0.919c-5.673-0.526-11.521-1.086-17.198-0.31
	c-1.226,0.167-2.885,0.526-3.258,1.902c-1.027,3.777,16.563,6.813,18.854,7.309c12.289,2.653,26.253,5.309,38.87,3.731
	c1.03-0.128,2.923-0.393,3.379-1.563c0.991-2.558-4.695-3.877-6.115-4.388C159.971,51.12,159.516,52.029,159.788,52.127"/>
<path fill="#EECA22" d="M170.192,50.981c0.002,0.496-0.174,1.013-0.54,1.396c-0.36,0.397-0.899,0.597-1.442,0.581
	c-1.052-0.059-1.998-0.894-2.072-1.955c-0.097-1.098,0.964-2.063,2.065-2.016c0.519-0.006,1.08,0.208,1.437,0.597
	C170.008,49.969,170.192,50.481,170.192,50.981 M170.156,50.98c0.003-0.499-0.291-0.953-0.673-1.217
	c-0.388-0.27-0.822-0.405-1.295-0.406c-0.885,0.002-1.801,0.68-1.854,1.645c-0.032,0.467,0.178,0.96,0.557,1.261
	c0.371,0.316,0.858,0.423,1.331,0.397c0.447-0.021,0.899-0.182,1.278-0.452C169.877,51.938,170.168,51.483,170.156,50.98"/>
<path fill="#EECA22" d="M172.067,50.486c-0.064-1.005,0.305-1.9,0.666-2.817c0.178-0.45-0.285-0.34-0.412-0.018
	c-0.401,1.014-0.812,2.031-0.741,3.143C171.606,51.21,172.083,50.728,172.067,50.486"/>
<path fill="#EECA22" d="M170.364,48.164c0.713,0.606,1.486,1.079,2.353,1.432c0.298,0.121,0.644-0.512,0.361-0.626
	c-0.866-0.352-1.641-0.824-2.354-1.431C170.498,47.344,170.119,47.955,170.364,48.164"/>
<path fill="#EECA22" d="M155.348,44.45c-0.063-1.005,0.306-1.901,0.667-2.818c0.179-0.45-0.283-0.339-0.411-0.017
	c-0.403,1.014-0.813,2.031-0.743,3.143C154.886,45.174,155.363,44.692,155.348,44.45"/>
<path fill="#EECA22" d="M153.646,42.126c0.713,0.607,1.484,1.08,2.351,1.431c0.301,0.12,0.646-0.512,0.363-0.625
	c-0.869-0.35-1.642-0.822-2.354-1.429C153.778,41.309,153.401,41.918,153.646,42.126"/>
</svg>
