<?xml version="1.0" encoding="utf-8"?>
<!-- Generator: Adobe Illustrator 16.0.0, SVG Export Plug-In . SVG Version: 6.00 Build 0)  -->
<!DOCTYPE svg PUBLIC "-//W3C//DTD SVG 1.1//EN" "http://www.w3.org/Graphics/SVG/1.1/DTD/svg11.dtd">
<svg version="1.1" id="Capa_1" xmlns="http://www.w3.org/2000/svg" xmlns:xlink="http://www.w3.org/1999/xlink" x="0px" y="0px"
	 width="242.343px" height="178px" viewBox="0 0 242.343 178" enable-background="new 0 0 242.343 178" xml:space="preserve">
<path d="M137.143,72.609c-0.004-0.492,0.015-2.927,0.013-3.42c-0.001-0.029,0.11-0.263,0.173-0.291
	c0.927-0.149,2.03-0.185,2.986-0.189l0.232,0l0.088,0.174l0.067,16.354c0.001,0.346,0.093,1.246,0.092,1.274l0.09,0.173l0.347-0.003
	c1.334-0.004,2.781-0.329,4.057-0.655l0.146,0c0.809-0.003,0.616,2.435,0.619,2.898l0.001,0.407
	c-0.317,0.435-3.069,0.678-3.506,0.739c-0.259,0.061-2.463,0.331-2.75,0.39l-1.536,0.384c-0.056-0.002-0.404,0.029-0.521,0.031
	c-0.06-0.001-0.292-0.028-0.319-0.028l-0.09-0.204L137.143,72.609z"/>
<path d="M147.815,87.669c-0.011-2.783,1.342-5.137,4.208-6.166c1.128-0.408,3.072-0.532,3.826-0.539
	c0.348,0-0.251-3.592-2.133-3.585c-1.565,0.008-2.546,1.287-3.615,2.104c0,0-2.096-1.671-2.096-1.73
	c-0.001-0.289,0.434-0.698,0.604-0.96c1.878-1.922,3.643-2.568,5.99-2.578c3.885-0.017,4.856,3.2,4.985,6.27l0.002,0.261
	c0.157,3.015,0.17,6.118,0.038,9.136c-0.085,0.288-0.546,0.84-2.401,1.054l-0.115,0.001c-1.073,0.002-0.237-1.188-0.875-1.477
	c-0.437,0.322-0.579,0.668-1.098,0.962c-1.1,0.729-2.579,0.824-3.942,0.83c-2.174,0.008-3.281-1.641-3.378-3.381L147.815,87.669z
	 M155.962,86.995l-0.002-0.725c-0.007-0.985-0.04-2.521-0.535-2.518c-4.434,0.018-4.218,3.205-4.187,3.815
	C151.419,88.872,155.963,87.459,155.962,86.995"/>
<path d="M177.31,68.087c0.637,0,1.304,0.256,1.914,0.516c0.029,0.029,0.146,0.088,0.146,0.088l0.014,2.869l-0.553,0.002
	c-5.711,0.023-6.033,12.897-0.862,14.876c0.984,0.373,2.029,0.283,3.13,0.219l0.012,2.988c0,0-0.201,0.118-0.316,0.146
	c-0.724,0.293-1.445,0.412-2.229,0.416C167.111,90.254,168.031,68.333,177.31,68.087"/>
<path d="M192.013,75.244c3.024,1.872,4.168,5.027,4.18,8.073c0.013,2.784-1.745,5.546-4.754,6.748
	c-1.563,0.613-3.594,0.479-5.25-0.067c-3.309-1.289-4.484-4.852-4.496-7.635C181.672,77.549,186.406,72.688,192.013,75.244
	 M186.459,85.155c0.468,1.13,1.486,1.851,2.851,1.845c2.406-0.012,3.149-2.306,3.143-3.984c-0.025-6.064-6.788-7.221-6.761-0.757
	C185.697,83.244,186.05,84.23,186.459,85.155"/>
<path d="M197.033,76.007c-0.032-0.089-0.032-0.32,0.173-0.321l2.896-0.243c0.029,0,0.175,0.027,0.202,0.056
	c0.032,0,0.12,0.087,0.12,0.087l0.122,1.708c0.806-1.278,3.093-2.159,4.686-2.281c0.145,0.001,0.289-0.03,0.435-0.029
	c3.218-0.013,5.175,2.762,5.447,6.095c0.033,0.23,0.032,0.436,0.032,0.637c0.025,5.421-4.896,7.764-10.213,5.173
	c0.396,3.681,0.426,4.263,0.729,7.973c0.037,0.521,0.128,1.999,0.127,2.086l-0.084,0.117c0,0-1.362,0.15-1.914,0.211l-1.103,0.122
	l-0.116-0.086c0.001-0.03-0.179-1.537-0.362-3.509C197.034,76.297,197.032,76.181,197.033,76.007 M201.879,83.726
	c1.778,2.427,5.338,1.081,5.328-1.908c-0.001-0.116-0.033-0.231-0.033-0.348c-0.152-1.65-0.304-2.812-2.156-2.803
	c-0.116,0-0.263,0.03-0.407,0.032C202.668,78.853,200.127,81.298,201.879,83.726"/>
<path d="M212.217,87.395c-0.011-2.783,1.342-5.139,4.208-6.167c1.126-0.408,3.072-0.532,3.823-0.537
	c0.349-0.002-0.247-3.593-2.13-3.586c-1.565,0.007-2.548,1.286-3.617,2.103c0,0-2.094-1.671-2.095-1.73
	c-0.001-0.289,0.434-0.698,0.604-0.958c1.878-1.925,3.642-2.569,5.991-2.58c3.885-0.017,4.857,3.2,4.985,6.272l0.002,0.261
	c0.157,3.014,0.17,6.115,0.039,9.135c-0.087,0.287-0.548,0.839-2.404,1.052l-0.115,0.001c-1.074,0.003-0.235-1.188-0.876-1.475
	c-0.434,0.32-0.576,0.668-1.096,0.96c-1.099,0.729-2.578,0.824-3.941,0.83c-2.175,0.009-3.283-1.641-3.376-3.379L212.217,87.395z
	 M220.362,86.719l-0.002-0.726c-0.007-0.984-0.042-2.518-0.534-2.517c-4.436,0.018-4.219,3.206-4.188,3.813
	C215.82,88.595,220.362,87.184,220.362,86.719"/>
<path d="M146.953,116.427c-2.055,0.849-2.864,1.433-5.064,1.444c-2.584,0.011-4.532-1.981-4.544-4.504
	c-0.029-0.175-0.03-0.348-0.032-0.549c-0.02-4.67,5.042-7.735,9.392-6.913l0.069-11.656c0.026-0.205,0.199-0.291,3.71-0.133
	c0.118,0.144,0.089,0.291,0.089,0.433c0.021,4.756-0.277,9.482-0.257,14.21c0.012,2.987,0.14,5.973,0.152,9.017l0.002,0.375
	c-0.202,0.321-2.115,0.389-2.608,0.388c-0.057,0.003-0.346-0.026-0.435-0.025c-0.26-0.085-0.262-0.581-0.264-0.724
	C147.163,117.412,147.417,116.514,146.953,116.427 M146.565,113.413l-0.005-0.694c-0.032-0.93-0.16-3.799-0.189-3.799
	c-0.262-0.028-0.551-0.025-0.783-0.025c-4.466,0.021-4.539,2.687-4.532,4.312l-0.001,0.26
	C141.066,115.555,145.347,114,146.565,113.413"/>
<path d="M152.53,111.533c-0.566-3.912,0.832-8.99,5.903-9.738c4.926-0.717,6.004,0.988,6.604,5.162l0.177,1.158l-8.518,1.981
	c-0.025,0-0.198,0.175-0.23,0.263c-0.055,0.171-0.17,0.667,0.159,3.158c0.179,1.188,1.37,1.619,2.502,1.468
	c1.39-0.209,2.948-1.898,4.109-1.903c0.492-0.002,1.568,1.182,1.628,1.617v0.147c-1.957,2.673-4.017,3.118-7.206,2.958
	C154.034,117.644,152.948,114.316,152.53,111.533 M157.261,105.453c-0.377,0.349-0.954,1.396-0.95,2.005l0.001,0.115l0.262-0.058
	c0.027,0.001,0.085-0.03,0.112-0.028c0.785-0.12,1.596-0.211,4.986-0.98c0,0-0.001-0.029-0.03-0.116
	c-0.06-0.346-0.296-1.275-0.294-1.302c-0.267-0.869-0.876-0.836-1.686-0.72C158.85,104.49,157.809,104.842,157.261,105.453"/>
<path d="M175.703,92.645l3.827-0.017c0.005,0.957,0.125,1.856,0.131,2.813v0.291l-0.638,20.415c-0.087,0.29-1.13,0.293-2.319,0.302
	l-0.289-0.001c-0.436-0.056-0.324-1.449-0.383-1.767L175.703,92.645z"/>
<path d="M181.479,114.105c-0.011-2.783,1.344-5.138,4.21-6.167c1.127-0.409,3.069-0.532,3.823-0.536
	c0.349-0.002-0.25-3.594-2.13-3.588c-1.567,0.01-2.549,1.287-3.617,2.105c0,0-2.095-1.673-2.094-1.732
	c-0.004-0.288,0.431-0.697,0.604-0.958c1.877-1.923,3.642-2.567,5.991-2.579c3.884-0.016,4.855,3.2,4.985,6.27l-0.001,0.261
	c0.159,3.016,0.171,6.118,0.038,9.133c-0.084,0.29-0.545,0.843-2.401,1.056l-0.115,0.002c-1.071,0.002-0.235-1.19-0.875-1.477
	c-0.434,0.321-0.579,0.667-1.098,0.961c-1.099,0.73-2.578,0.824-3.941,0.83c-2.174,0.008-3.283-1.64-3.377-3.38L181.479,114.105z
	 M189.626,113.432l-0.004-0.726c-0.005-0.985-0.039-2.521-0.534-2.517c-4.434,0.016-4.219,3.204-4.187,3.813
	C185.082,115.308,189.626,113.896,189.626,113.432"/>
<path d="M137.431,140.876c-0.011-2.784,1.344-5.14,4.21-6.168c1.127-0.409,3.072-0.532,3.824-0.538c0.349,0-0.249-3.592-2.131-3.585
	c-1.566,0.008-2.546,1.286-3.617,2.104c0,0-2.096-1.671-2.095-1.731c-0.001-0.288,0.434-0.699,0.604-0.959
	c1.877-1.922,3.64-2.567,5.991-2.578c3.885-0.017,4.855,3.198,4.985,6.27l-0.001,0.26c0.159,3.015,0.173,6.118,0.041,9.135
	c-0.087,0.29-0.547,0.844-2.404,1.055h-0.113c-1.074,0.004-0.236-1.188-0.876-1.475c-0.435,0.322-0.578,0.669-1.097,0.961
	c-1.101,0.73-2.58,0.823-3.942,0.829c-2.173,0.01-3.283-1.64-3.376-3.377L137.431,140.876z M145.578,140.201l-0.003-0.724
	c-0.007-0.987-0.04-2.523-0.533-2.52c-4.437,0.019-4.219,3.206-4.188,3.815C141.035,142.077,145.58,140.667,145.578,140.201"/>
<path d="M151.084,132.842c-0.015-3.508,2.126-4.212,3.693-4.219l0.203-0.001c1.594,0.051,3.346,2.915,3.906,4.881l0.087-0.085
	l0.231-0.465c1.032-2.267,2.324-5.143,5.138-5.155c3.68-0.018,4.069,2.591,4.485,5.49c0.349,6.289,0.117,6.931,0.131,9.77
	c0.002,0.175,0.002,0.376-0.287,0.38l-2.408,0.01c-0.057-0.001-0.232-0.116-0.232-0.173l-0.466-7.074
	c-0.094-1.362,0.245-3.686-1.755-3.675c-1.941,0.009-2.676,4.738-2.88,5.028l-4.026,0.685c-0.354-1.1-0.512-4.64-1.961-4.63
	c-0.318,0.001-0.462,0.318-0.545,1.482c0.014,2.927,0.518,5.909,0.53,8.665l0.001,0.522c-0.055,0.231-0.172,0.347-0.374,0.378
	c-0.869,0.032-1.882,0.21-2.812,0.214c-0.029,0-0.232,0.03-0.26-0.114L151.084,132.842z"/>
<path d="M170.698,142.123c0,0,0.465-13.31,1.015-13.312c0.117-0.001,0.175,0.027,2.986,0.072c0.262,0,0.291,0.262,0.291,0.406
	c0.003,0.058-0.026,0.262-0.028,0.291c-0.024,0.87-0.239,4.697-1.012,13.603c-0.027,0.376-0.087,0.495-0.434,0.552
	c-0.898-0.052-1.768,0.183-2.698-0.075c-0.029,0-0.087-0.058-0.088-0.084C170.703,143.341,170.697,142.326,170.698,142.123
	 M171.342,123.07c-0.014-3.014,3.633-4.364,4.459-1.178c0,0,0.031,0.349,0.032,0.464c0.005,1.306-0.599,2.873-2.077,2.878
	c-0.869,0.004-2.061-0.395-2.384-1.321C171.372,123.768,171.341,123.188,171.342,123.07"/>
<path d="M178.251,138.959c0.118,0,0.173,0.002,0.291,0.085c1.048,1.215,1.024,2.345,2.967,2.336
	c1.131-0.003,2.288-0.994,2.282-2.183c-0.009-2.177-1.402-2.517-3.288-2.801c-1.654-0.223-4.445-1.834-4.453-3.661
	c-0.014-3.219,2.732-5.378,5.776-5.388c1.393-0.006,2.956,0.072,3.921,1.23l0.03,0.027c0.173,0.204,0.258,0.348,0.262,0.578
	c-0.001,0.03-0.027,0.147-0.027,0.147c-0.289,0.55-1.354,2.558-1.759,2.559l-0.203,0.002l-0.203-0.118
	c-0.73-0.402-1.859-1.034-2.703-1.03c-0.638,0.002-1.157,0.439-1.152,1.107c0.009,2.291,7.335,0.605,7.361,6.374
	c0.014,3.454-2.117,6.244-5.917,6.26c-2.262,0.01-4.496-0.474-5.319-2.79c-0.086-0.232-0.292-0.809-0.294-1.332
	C175.822,140.362,177.901,138.962,178.251,138.959"/>
<path d="M189.59,118.702c0.085-0.085,0.175-0.145,3.854-0.044c0.032,0.492,0.153,1.971-0.673,12.003l4.002,0.246
	c0.436,0.027,0.553,0.318,0.553,0.608c0.007,1.1-0.166,1.564-0.451,2.668c0.001,0.117-0.173,0.087-0.289,0.086l-3.974-0.097
	c-0.937,4.614-0.516,8.033,4.32,6.708c0.004,0.696,0.153,1.796,0.157,2.639c0.002,0.433-0.954,0.438-1.361,0.439
	c-3.887,0.02-7.601-0.778-6.392-10.004c-0.145,0.001-1.566-0.052-1.685-0.079c-0.058-0.001-0.172-0.088-0.172-0.088l-0.018-3.479
	c0,0,0.117-0.056,0.177-0.059l1.478,0.052L189.59,118.702z"/>
<path d="M198.41,140.614c-0.01-2.783,1.343-5.139,4.209-6.167c1.127-0.41,3.072-0.532,3.824-0.538
	c0.35-0.002-0.247-3.594-2.131-3.585c-1.567,0.007-2.547,1.286-3.616,2.104c0,0-2.096-1.671-2.095-1.731
	c-0.002-0.289,0.433-0.699,0.604-0.959c1.877-1.923,3.642-2.567,5.991-2.579c3.887-0.017,4.855,3.2,4.987,6.271l-0.003,0.26
	c0.161,3.014,0.173,6.117,0.041,9.135c-0.085,0.291-0.546,0.842-2.404,1.055l-0.113,0.001c-1.073,0.001-0.235-1.19-0.875-1.478
	c-0.436,0.323-0.58,0.67-1.098,0.961c-1.101,0.731-2.579,0.824-3.942,0.831c-2.174,0.01-3.283-1.64-3.377-3.379L198.41,140.614z
	 M206.557,139.939l-0.004-0.724c-0.006-0.986-0.039-2.522-0.532-2.52c-4.436,0.018-4.219,3.206-4.188,3.814
	C202.014,141.815,206.558,140.404,206.557,139.939"/>
<path d="M221.701,142.689c-2.054,0.847-2.862,1.431-5.066,1.44c-2.58,0.012-4.532-1.979-4.543-4.5
	c-0.028-0.177-0.028-0.35-0.031-0.552c-0.02-4.67,5.043-7.736,9.393-6.913l0.067-11.657c0.031-0.203,0.2-0.29,3.711-0.133
	c0.12,0.146,0.09,0.292,0.089,0.437c0.021,4.754-0.277,9.481-0.256,14.208c0.011,2.987,0.139,5.974,0.152,9.018l0.003,0.375
	c-0.204,0.321-2.115,0.387-2.608,0.388c-0.059,0-0.351-0.027-0.438-0.027c-0.259-0.084-0.26-0.58-0.261-0.722
	C221.911,143.673,222.164,142.773,221.701,142.689 M221.313,139.675l-0.002-0.697c-0.034-0.928-0.161-3.799-0.19-3.799
	c-0.261-0.027-0.552-0.025-0.783-0.024c-4.466,0.02-4.54,2.687-4.533,4.313l-0.001,0.26
	C215.812,141.816,220.096,140.26,221.313,139.675"/>
<polyline fill="none" points="257.467,101.598 165.098,32.019 101.842,115.993 194.211,185.572 257.467,101.598 "/>
<path fill="#FFFFFF" d="M135.719,72.809c-0.004-0.491,0.016-2.926,0.015-3.42c-0.002-0.029,0.111-0.262,0.171-0.292
	c0.928-0.149,2.028-0.183,2.987-0.188l0.23,0.001l0.089,0.173l0.067,16.354c0.001,0.348,0.093,1.248,0.092,1.276l0.089,0.171
	l0.348-0.002c1.334-0.003,2.782-0.33,4.057-0.656l0.146-0.001c0.811-0.002,0.616,2.436,0.619,2.897l0.001,0.409
	c-0.316,0.433-3.069,0.678-3.505,0.738c-0.259,0.061-2.464,0.332-2.751,0.389l-1.536,0.384c-0.056-0.002-0.404,0.031-0.521,0.031
	c-0.059-0.001-0.292-0.027-0.319-0.028l-0.089-0.204L135.719,72.809z"/>
<path fill="#FFFFFF" d="M146.392,87.87c-0.011-2.784,1.345-5.138,4.206-6.165c1.13-0.41,3.074-0.533,3.829-0.54
	c0.348,0-0.251-3.593-2.133-3.585c-1.565,0.007-2.547,1.287-3.616,2.104c0,0-2.096-1.673-2.094-1.731
	c-0.002-0.288,0.432-0.699,0.604-0.959c1.877-1.921,3.642-2.568,5.99-2.577c3.884-0.019,4.858,3.198,4.984,6.27l0.002,0.261
	c0.156,3.016,0.17,6.117,0.038,9.135c-0.085,0.287-0.545,0.841-2.4,1.053l-0.115,0.001c-1.073,0.002-0.238-1.188-0.877-1.474
	c-0.435,0.32-0.577,0.667-1.096,0.96c-1.1,0.729-2.58,0.825-3.941,0.829c-2.177,0.01-3.283-1.64-3.377-3.379L146.392,87.87z
	 M154.537,87.197l-0.002-0.725c-0.006-0.985-0.038-2.522-0.533-2.52c-4.435,0.018-4.218,3.207-4.188,3.815
	C149.995,89.072,154.538,87.661,154.537,87.197"/>
<path fill="#FFFFFF" d="M175.886,68.288c0.637-0.001,1.306,0.255,1.915,0.516c0.029,0.027,0.144,0.087,0.144,0.087l0.014,2.87
	l-0.551,0c-5.712,0.024-6.033,12.898-0.862,14.876c0.984,0.374,2.028,0.283,3.129,0.22l0.012,2.986c0,0-0.2,0.119-0.314,0.147
	c-0.727,0.292-1.446,0.411-2.231,0.414C165.687,90.455,166.607,68.532,175.886,68.288"/>
<path fill="#FFFFFF" d="M190.59,75.446c3.022,1.872,4.167,5.027,4.179,8.072c0.014,2.783-1.745,5.545-4.755,6.747
	c-1.563,0.615-3.593,0.481-5.248-0.065c-3.309-1.291-4.485-4.853-4.496-7.635C180.249,77.75,184.981,72.89,190.59,75.446
	 M185.036,85.354c0.467,1.131,1.485,1.852,2.85,1.845c2.407-0.012,3.151-2.306,3.143-3.985c-0.025-6.062-6.788-7.22-6.76-0.755
	C184.273,83.444,184.627,84.431,185.036,85.354"/>
<path fill="#FFFFFF" d="M195.61,76.208c-0.032-0.089-0.034-0.322,0.172-0.323l2.896-0.243c0.029,0,0.175,0.028,0.201,0.057
	c0.033,0,0.12,0.086,0.12,0.086l0.123,1.708c0.806-1.278,3.092-2.158,4.686-2.28c0.145,0,0.29-0.03,0.435-0.03
	c3.218-0.012,5.175,2.763,5.447,6.095c0.034,0.231,0.033,0.437,0.034,0.638c0.022,5.42-4.897,7.763-10.215,5.173
	c0.396,3.681,0.427,4.263,0.731,7.972c0.033,0.522,0.126,2,0.123,2.088l-0.083,0.116c0,0-1.363,0.148-1.913,0.211l-1.104,0.121
	l-0.115-0.087c0.001-0.03-0.182-1.535-0.362-3.507C195.61,76.497,195.61,76.381,195.61,76.208 M200.455,83.926
	c1.779,2.427,5.338,1.081,5.328-1.907c-0.001-0.115-0.032-0.23-0.033-0.347c-0.151-1.651-0.304-2.812-2.156-2.804
	c-0.117,0-0.263,0.031-0.407,0.031C201.244,79.054,198.704,81.499,200.455,83.926"/>
<path fill="#FFFFFF" d="M210.793,87.594c-0.011-2.782,1.342-5.138,4.208-6.167c1.127-0.409,3.071-0.532,3.824-0.538
	c0.351,0-0.247-3.592-2.131-3.584c-1.565,0.006-2.546,1.286-3.617,2.103c0,0-2.094-1.673-2.094-1.73
	c-0.002-0.289,0.433-0.699,0.603-0.959c1.879-1.923,3.643-2.568,5.992-2.578c3.885-0.019,4.856,3.198,4.985,6.27l0.001,0.262
	c0.158,3.013,0.171,6.114,0.04,9.135c-0.086,0.288-0.547,0.841-2.404,1.053l-0.114,0.001c-1.073,0.003-0.236-1.188-0.875-1.476
	c-0.436,0.321-0.577,0.669-1.097,0.961c-1.101,0.729-2.579,0.824-3.942,0.829c-2.175,0.01-3.283-1.638-3.375-3.379L210.793,87.594z
	 M218.939,86.92l-0.002-0.725c-0.009-0.984-0.043-2.519-0.535-2.518c-4.436,0.019-4.219,3.206-4.188,3.814
	C214.396,88.795,218.939,87.384,218.939,86.92"/>
<path fill="#FFFFFF" d="M145.53,116.628c-2.055,0.849-2.862,1.433-5.066,1.443c-2.583,0.011-4.532-1.98-4.543-4.504
	c-0.029-0.175-0.03-0.349-0.031-0.549c-0.02-4.671,5.041-7.736,9.391-6.914l0.069-11.657c0.027-0.204,0.2-0.291,3.708-0.13
	c0.119,0.143,0.091,0.29,0.092,0.434c0.02,4.753-0.277,9.481-0.259,14.208c0.013,2.986,0.141,5.973,0.153,9.017l0.003,0.375
	c-0.203,0.32-2.115,0.389-2.608,0.388c-0.057,0.004-0.347-0.026-0.436-0.025c-0.259-0.085-0.263-0.58-0.263-0.722
	C145.739,117.613,145.993,116.715,145.53,116.628 M145.142,113.612l-0.005-0.694c-0.031-0.93-0.159-3.8-0.188-3.797
	c-0.261-0.028-0.552-0.026-0.784-0.026c-4.465,0.021-4.539,2.688-4.532,4.312v0.26C139.643,115.755,143.922,114.2,145.142,113.612"
	/>
<path fill="#FFFFFF" d="M151.106,111.734c-0.565-3.913,0.832-8.99,5.903-9.739c4.927-0.717,6.004,0.989,6.604,5.161l0.178,1.158
	l-8.519,1.981c-0.024-0.001-0.198,0.175-0.229,0.263c-0.056,0.171-0.171,0.667,0.158,3.159c0.179,1.187,1.371,1.619,2.503,1.467
	c1.388-0.208,2.947-1.897,4.107-1.901c0.493-0.004,1.569,1.181,1.63,1.615v0.146c-1.958,2.674-4.017,3.119-7.204,2.958
	C152.611,117.844,151.525,114.517,151.106,111.734 M155.836,105.653c-0.376,0.35-0.953,1.396-0.949,2.005l0.002,0.115l0.261-0.058
	c0.027,0.001,0.086-0.031,0.112-0.029c0.785-0.12,1.595-0.21,4.987-0.981c0,0-0.001-0.028-0.031-0.116
	c-0.06-0.346-0.294-1.274-0.295-1.302c-0.266-0.87-0.875-0.837-1.685-0.719C157.427,104.691,156.385,105.042,155.836,105.653"/>
<path fill="#FFFFFF" d="M174.281,92.845l3.826-0.017c0.004,0.958,0.125,1.858,0.131,2.814v0.291l-0.639,20.413
	c-0.086,0.291-1.13,0.295-2.319,0.303l-0.289-0.002c-0.437-0.055-0.325-1.446-0.383-1.765L174.281,92.845z"/>
<path fill="#FFFFFF" d="M180.055,114.306c-0.011-2.783,1.344-5.138,4.21-6.166c1.126-0.409,3.068-0.531,3.823-0.536
	c0.35-0.002-0.25-3.595-2.13-3.588c-1.567,0.009-2.548,1.286-3.617,2.105c0,0-2.094-1.673-2.094-1.732
	c-0.002-0.29,0.431-0.697,0.603-0.959c1.879-1.921,3.643-2.567,5.992-2.579c3.884-0.017,4.855,3.2,4.985,6.27v0.261
	c0.156,3.017,0.17,6.118,0.038,9.134c-0.084,0.29-0.545,0.843-2.402,1.055l-0.113,0.001c-1.074,0.002-0.236-1.189-0.876-1.474
	c-0.435,0.318-0.581,0.666-1.098,0.96c-1.1,0.729-2.579,0.823-3.942,0.829c-2.174,0.009-3.281-1.64-3.377-3.38L180.055,114.306z
	 M188.2,113.634l-0.001-0.728c-0.005-0.984-0.039-2.52-0.535-2.516c-4.434,0.016-4.219,3.205-4.186,3.813
	C183.658,115.509,188.202,114.097,188.2,113.634"/>
<path fill="#FFFFFF" d="M136.008,141.076c-0.01-2.783,1.343-5.14,4.207-6.166c1.13-0.411,3.074-0.534,3.826-0.539
	c0.349-0.002-0.248-3.594-2.129-3.585c-1.568,0.007-2.548,1.286-3.619,2.103c0,0-2.096-1.671-2.094-1.731
	c-0.002-0.289,0.433-0.699,0.603-0.959c1.878-1.923,3.641-2.567,5.992-2.579c3.887-0.017,4.855,3.198,4.986,6.271l-0.001,0.26
	c0.158,3.015,0.172,6.117,0.04,9.134c-0.087,0.291-0.547,0.843-2.404,1.055l-0.112,0c-1.074,0.002-0.237-1.188-0.877-1.475
	c-0.432,0.321-0.578,0.668-1.096,0.959c-1.102,0.731-2.581,0.825-3.942,0.83c-2.174,0.01-3.283-1.639-3.377-3.377L136.008,141.076z
	 M144.154,140.401l-0.003-0.724c-0.007-0.986-0.041-2.52-0.532-2.519c-4.438,0.019-4.22,3.205-4.188,3.813
	C139.611,142.277,144.156,140.866,144.154,140.401"/>
<path fill="#FFFFFF" d="M149.66,133.041c-0.014-3.508,2.127-4.211,3.693-4.218l0.203-0.001c1.593,0.052,3.346,2.916,3.904,4.884
	l0.089-0.087l0.229-0.463c1.033-2.268,2.326-5.145,5.14-5.157c3.68-0.017,4.069,2.591,4.485,5.49c0.35,6.29,0.117,6.93,0.131,9.77
	c0.002,0.174,0.002,0.377-0.287,0.381l-2.408,0.009c-0.057-0.001-0.232-0.116-0.232-0.174l-0.465-7.072
	c-0.094-1.361,0.245-3.685-1.756-3.675c-1.942,0.008-2.677,4.737-2.879,5.027l-4.026,0.685c-0.354-1.1-0.512-4.64-1.963-4.631
	c-0.317,0.001-0.46,0.321-0.544,1.482c0.014,2.927,0.519,5.911,0.531,8.666l0.001,0.523c-0.055,0.231-0.172,0.346-0.375,0.378
	c-0.869,0.03-1.882,0.21-2.811,0.213c-0.029,0.001-0.233,0.031-0.26-0.115L149.66,133.041z"/>
<path fill="#FFFFFF" d="M169.275,142.323c0,0,0.465-13.311,1.014-13.312c0.118-0.001,0.174,0.027,2.986,0.074
	c0.261-0.002,0.291,0.26,0.291,0.406c0.003,0.057-0.025,0.26-0.026,0.289c-0.023,0.87-0.241,4.697-1.014,13.604
	c-0.027,0.377-0.087,0.494-0.435,0.553c-0.897-0.053-1.767,0.182-2.697-0.077c-0.029,0-0.086-0.058-0.087-0.084
	C169.279,143.542,169.273,142.527,169.275,142.323 M169.918,123.271c-0.014-3.016,3.634-4.364,4.459-1.179
	c0,0,0.031,0.348,0.032,0.464c0.005,1.304-0.599,2.872-2.079,2.88c-0.867,0.001-2.059-0.397-2.382-1.322
	C169.95,123.968,169.918,123.389,169.918,123.271"/>
<path fill="#FFFFFF" d="M176.827,139.16c0.118-0.001,0.173,0.001,0.291,0.085c1.048,1.215,1.026,2.345,2.967,2.336
	c1.131-0.004,2.288-0.994,2.283-2.184c-0.01-2.175-1.403-2.516-3.29-2.797c-1.653-0.225-4.443-1.837-4.451-3.664
	c-0.015-3.219,2.731-5.378,5.775-5.388c1.393-0.006,2.959,0.072,3.921,1.23l0.03,0.026c0.172,0.205,0.258,0.349,0.263,0.58
	c-0.002,0.029-0.028,0.145-0.028,0.145c-0.288,0.551-1.354,2.559-1.758,2.56l-0.204,0.001l-0.203-0.117
	c-0.729-0.403-1.861-1.034-2.704-1.031c-0.636,0.004-1.156,0.439-1.152,1.107c0.01,2.291,7.336,0.605,7.363,6.374
	c0.013,3.453-2.119,6.244-5.919,6.261c-2.26,0.01-4.495-0.475-5.317-2.79c-0.089-0.231-0.291-0.809-0.295-1.332
	C174.398,140.563,176.478,139.162,176.827,139.16"/>
<path fill="#FFFFFF" d="M188.167,118.901c0.084-0.084,0.174-0.146,3.854-0.043c0.032,0.492,0.153,1.97-0.674,12.004l4.006,0.245
	c0.434,0.027,0.55,0.317,0.549,0.607c0.006,1.101-0.165,1.564-0.45,2.667c0,0.118-0.172,0.088-0.289,0.087l-3.973-0.098
	c-0.938,4.614-0.516,8.034,4.319,6.708c0.004,0.695,0.152,1.796,0.157,2.638c0.003,0.434-0.954,0.438-1.36,0.44
	c-3.888,0.019-7.601-0.779-6.392-10.005c-0.146,0.003-1.568-0.052-1.686-0.079c-0.057-0.001-0.173-0.088-0.173-0.088l-0.016-3.478
	c0,0,0.117-0.057,0.176-0.06l1.478,0.051L188.167,118.901z"/>
<path fill="#FFFFFF" d="M196.985,140.814c-0.009-2.783,1.344-5.139,4.21-6.165c1.127-0.411,3.072-0.535,3.824-0.541
	c0.351-0.001-0.248-3.592-2.13-3.585c-1.567,0.009-2.547,1.286-3.618,2.104c0,0-2.096-1.672-2.094-1.732
	c-0.001-0.288,0.433-0.698,0.604-0.958c1.878-1.923,3.642-2.567,5.992-2.578c3.886-0.017,4.854,3.198,4.984,6.271v0.26
	c0.158,3.016,0.172,6.117,0.04,9.134c-0.086,0.29-0.546,0.843-2.403,1.054l-0.114,0.003c-1.072,0.002-0.236-1.19-0.874-1.477
	c-0.437,0.321-0.58,0.669-1.099,0.96c-1.101,0.732-2.58,0.824-3.941,0.831c-2.175,0.01-3.283-1.637-3.377-3.378L196.985,140.814z
	 M205.133,140.14l-0.003-0.725c-0.005-0.986-0.039-2.519-0.533-2.519c-4.437,0.02-4.219,3.206-4.188,3.815
	C200.589,142.016,205.134,140.605,205.133,140.14"/>
<path fill="#FFFFFF" d="M220.277,142.889c-2.055,0.848-2.861,1.431-5.066,1.439c-2.58,0.014-4.531-1.979-4.543-4.5
	c-0.027-0.175-0.028-0.349-0.031-0.55c-0.019-4.67,5.043-7.736,9.393-6.912l0.066-11.659c0.03-0.202,0.204-0.289,3.712-0.133
	c0.12,0.146,0.09,0.291,0.09,0.436c0.021,4.755-0.278,9.481-0.259,14.208c0.014,2.988,0.141,5.974,0.154,9.019l0.002,0.375
	c-0.203,0.321-2.115,0.388-2.607,0.389c-0.059,0-0.35-0.027-0.438-0.027c-0.26-0.084-0.26-0.581-0.262-0.724
	C220.487,143.873,220.742,142.973,220.277,142.889 M219.89,139.875l-0.003-0.695c-0.034-0.93-0.161-3.801-0.19-3.8
	c-0.261-0.026-0.552-0.024-0.783-0.023c-4.466,0.018-4.54,2.686-4.533,4.311l-0.001,0.262
	C214.389,142.015,218.672,140.459,219.89,139.875"/>
<path fill-rule="evenodd" clip-rule="evenodd" fill="#8E3A2B" d="M8.544,163.385c0.012,3.785,21.438,6.795,47.857,6.722
	c26.419-0.073,47.827-3.2,47.817-6.986c-0.005-2.121-6.728-3.995-17.274-5.225"/>
<path fill-rule="evenodd" clip-rule="evenodd" fill="#8E3A2B" d="M86.944,157.896c-0.271,0.547-0.596,1.07-0.998,1.548
	c-1.517,1.807-3.747,3.311-6.101,3.71c-1.417,0.241-2.854,0.308-4.283,0.477c-2.014,0.237-3.973,0.702-5.929,1.222
	c-3.364,0.891-6.646,1.686-10.148,1.679c-3.458-0.005-7.084,0.122-10.485-0.561c-3.502-0.703-6.82-1.688-10.406-1.923
	c-4.798-0.312-9.271-2.05-11.711-6.11"/>
<path fill="#FFFFFF" d="M25.642,158.202c1.663,5.198,10.073,6.044,14.571,6.797c12.54,2.101,24.497,1.995,36.976-0.693
	c4.05-0.872,10.052-1.918,11.253-6.514c1-3.831,1.287-8.004,1.916-11.909c2.596-16.131,5.19-32.262,7.788-48.394
	c1.903-11.832,3.808-23.664,5.711-35.496c0.093-0.574-0.617-0.941-1.048-1.077c-18.873-5.978-39.824-7.031-59.412-5.603
	c-2.033,0.149-0.988,2.158,0.657,2.038c19.038-1.388,39.435-0.34,57.781,5.472c-0.351-0.359-0.699-0.719-1.048-1.077
	c-3.872,24.06-7.744,48.118-11.614,72.178c-0.953,5.919-1.905,11.838-2.858,17.757c-0.316,1.972-0.178,5.127-1.246,6.884
	c-1.578,2.596-6.609,3.282-9.287,3.851c-4.277,0.908-8.648,1.415-12.999,1.81c-4.577,0.416-6.492,0.456-10.952,0.096
	c-4.612-0.371-9.251-0.862-13.784-1.808c-2.988-0.623-8.068-1.275-9.37-4.432c-1.143-2.77-1.114-6.687-1.604-9.629
	c-0.485-2.914-0.972-5.827-1.456-8.74c-0.213-1.273-3.256-1.205-3.004,0.306"/>
<path fill="#FFFFFF" d="M22.611,140.019c0.979,5.876,1.217,12.521,3.03,18.183"/>
<path fill="#FFFFFF" d="M10.889,63.516c7.206-2.307,14.775-3.615,22.248-4.679c1.228-0.175,2.182-3.022,0.549-2.79"/>
<path fill="#FFFFFF" d="M10.035,62.985c3.725,22.369,7.451,44.736,11.178,67.106c0.259,1.556,2.458-0.521,2.257-1.729
	c-3.727-22.368-7.452-44.736-11.178-67.105"/>
<path fill="#FFFFFF" d="M33.686,56.047c-7.473,1.065-15.042,2.373-22.248,4.679"/>
<path fill="#70B7E7" d="M82.847,64.887c-6.822-1.17-15.829-2.218-26.103-2.191c-22.993,0.063-39.612,5.491-39.612,5.491
	l13.91,77.435c0.9,5.406,25.948,6.419,25.948,6.419s25.04-1.151,25.914-6.56l13.484-77.513c0,0-1.59-0.51-4.467-1.211"/>
<path fill="#70B7E7" d="M83.268,64.152c-21.383-3.566-44.887-3.413-65.716,3.301c-0.142,0.046-0.869,1.317-0.841,1.468
	c4.318,24.048,8.64,48.096,12.959,72.145c0.505,2.809,0.344,5.914,2.99,7.538c5.901,3.617,14.958,3.599,21.667,4.048
	c4.619,0.308,9.3-0.358,13.866-0.98c4.537-0.617,11.954-1.1,14.497-5.562c1.629-2.859,1.619-7.022,2.17-10.188
	c1.65-9.488,3.302-18.978,4.951-28.464c1.704-9.791,3.406-19.577,5.109-29.368c0.502-2.883,1.004-5.765,1.505-8.648
	c0.564-3.247-0.46-2.503-4.083-3.418c-0.159-0.04-0.706,1.503-0.842,1.469c2.699,0.681,4.663,0.082,4.196,2.763
	c-0.459,2.645-0.92,5.288-1.379,7.932c-1.558,8.945-3.113,17.889-4.669,26.832c-1.632,9.385-3.266,18.772-4.899,28.158
	c-0.707,4.068-0.604,10.104-2.585,13.831c0.276-0.48,0.552-0.96,0.827-1.44c-3.752,4.756-14.19,4.765-19.639,5.297
	c-4.098,0.403-7.785,0.389-11.887,0.035c-5.438-0.472-15.904-0.476-19.668-5.193c-1.334-1.672-1.233-5.816-1.587-7.777
	c-4.219-23.493-8.438-46.985-12.66-70.476c-0.281,0.489-0.562,0.979-0.841,1.468c20.826-6.712,44.332-6.867,65.714-3.3
	C82.63,65.656,83.086,64.123,83.268,64.152"/>
<path fill="#D7C924" d="M89.632,112.422c1.689-9.716,3.381-19.436,5.073-29.155c0.065-0.38-0.045-0.862-0.44-1.036
	c-2.288-1.008-6.444-2.756-8.396-0.09c-2.461,3.361-3.207,7.689-8.266,7.819c-3.021,0.076-6.087-2.051-8.623-3.466
	c-6.377-3.556-11.402-4.045-14.223,3.45c-1.914,5.085-3.543,11.417-10.558,7.996c-3.444-1.682-7.209-7.418-11.376-7.476
	c-6.217-0.087-10.916,9.762-9.947,15.152c2.262,12.592,4.525,25.184,6.787,37.776c0.731,4.078,1.105,5.964,5.371,7.632
	c6.392,2.498,13.993,2.819,20.782,3.217c4.282,0.25,8.723-0.492,12.948-1.069c3.949-0.538,13.447-1.165,14.832-6.073
	c1.559-5.522,2.02-11.603,3.002-17.253c0.363-2.095,3.173-9.962-0.661-10.027c-1.193-0.021-1.186,1.825,0.005,1.846
	c0.012,0-2.587,16.074-2.789,17.236l-1.311,7.53c-0.503,2.887-6.345,3.626-8.606,4.112c-12.111,2.606-25.931,2.774-37.737-1.308
	c-4.832-1.671-4.319-7.813-5.099-12.146c-1.389-7.74-2.778-15.477-4.169-23.214c-1.27-7.067-2.707-12.944,2.309-19.253
	c6.405-8.061,15.377,12.17,23.47,4.821c2.136-1.939,3.033-4.619,3.934-7.284c0.679-2.009,1.304-4.045,2.747-5.652
	c2.173-2.422,6.208-0.098,8.394,1.051c7.04,3.703,14.725,7.385,18.946-2.002c0.56-2.18,2.227-3.059,4.998-2.636
	c1.892,0.419,1.994-0.738,1.822,0.252c-0.155,0.887-0.311,1.774-0.464,2.66c-0.587,3.365-1.171,6.728-1.756,10.091
	c-0.931,5.345-1.859,10.688-2.791,16.033C87.64,113.124,89.426,113.6,89.632,112.422"/>
<path fill="#D7C924" d="M45.374,94.6c-0.019-6.45-4.353-14.402-11.888-12.926c-2.989,0.585-3.14,3.498-1.54,5.515
	c1.419,1.787,3.972,2.842,5.945,3.843c1.094,0.555,2.179,1.114,3.224,1.758c1.206,0.743,1.312,1.681,2.015,2.732
	c0.227,0.338,0.623,0.56,1.038,0.435c0.593-0.178,0.807-0.34,1.088-0.901c0.529-1.061-1.077-1.977-1.611-0.908
	c0.017,0.009,0.033,0.017,0.049,0.022c0.348,0.145,0.693,0.29,1.04,0.435c-0.458-0.688-0.552-1.476-1.124-2.166
	c-0.851-1.032-2.282-1.698-3.43-2.311c-1.276-0.682-9.908-4.557-6.814-6.454c3.389-2.08,7.61,2.177,8.886,4.849
	c0.872,1.824,1.269,4.066,1.274,6.083C43.53,95.797,45.377,95.792,45.374,94.6"/>
<path fill="#CBA921" d="M42.831,93.919c0,0,0.021-3.485-2.296-4.707c-2.324-1.222-4.229,0.176-2.342,1.647
	c1.631,1.272,4.315,1.887,4.339,3.136C42.535,94.215,42.83,94.11,42.831,93.919"/>
<path fill="#D7C924" d="M45.527,97.086c-0.002-0.911,0.189-1.854,0.535-2.695c0.502-1.219,2.146-2.82,3.615-2.177
	c0.394,0.173-0.777,0.921-0.907,1.008c-0.742,0.499-1.569,0.873-2.36,1.286c-0.633,0.329-1.233,0.704-1.749,1.2
	c-0.169,0.163-0.302,0.383-0.422,0.588c-0.052,0.088-0.323,0.76-0.19,0.561l1.037-0.44c-0.054-0.016-0.109-0.031-0.165-0.048
	c0.19,0.146,0.382,0.29,0.571,0.435c-0.028-0.058-0.057-0.114-0.088-0.172c-0.538-1.066-2.14-0.142-1.604,0.917
	c0.19,0.376,0.423,0.539,0.822,0.657c0.415,0.123,0.813-0.102,1.036-0.439c0.228-0.343,0.195-0.642,0.505-0.94
	c0.399-0.383,1.005-0.63,1.492-0.885c1.084-0.566,2.154-1.109,3.091-1.912c1.255-1.075,1.129-3.08-0.57-3.596
	c-3.984-1.21-6.505,3.311-6.496,6.659C43.684,98.285,45.529,98.279,45.527,97.086"/>
<path fill="#CBA921" d="M45.079,95.794c0,0-0.019-1.679,1.094-2.272c1.116-0.596,2.038,0.071,1.133,0.785
	c-0.782,0.619-2.073,0.921-2.083,1.524C45.224,95.936,45.079,95.885,45.079,95.794"/>
<path fill="#CBA921" d="M47.736,142.529c0.009,3.289-2.427,5.96-5.438,5.968c-3.015,0.01-5.464-2.649-5.472-5.936
	c-0.01-3.288,2.424-5.959,5.439-5.969C45.275,136.584,47.727,139.243,47.736,142.529"/>
<path fill="#CBA921" d="M51.386,128.301c0.005,1.506-1.112,2.732-2.493,2.735c-1.381,0.005-2.504-1.214-2.509-2.721
	c-0.005-1.507,1.113-2.733,2.493-2.736C50.259,125.574,51.381,126.794,51.386,128.301"/>
<path fill="#CBA921" d="M65.854,142.479c0.004,1.508-1.112,2.735-2.494,2.737c-1.381,0.005-2.505-1.214-2.508-2.723
	c-0.004-1.506,1.111-2.733,2.492-2.735C64.727,139.753,65.848,140.974,65.854,142.479"/>
<path fill="#CBA921" d="M65.883,124.463c0.001,0.896-0.662,1.622-1.48,1.624c-0.82,0.003-1.486-0.721-1.489-1.614
	c-0.003-0.895,0.661-1.622,1.479-1.624C65.212,122.846,65.879,123.57,65.883,124.463"/>
<path fill="#CBA921" d="M75.035,132.568c0,0.886-0.655,1.606-1.47,1.609c-0.812,0.002-1.471-0.715-1.473-1.601
	c-0.002-0.887,0.653-1.604,1.466-1.608C74.371,130.966,75.032,131.682,75.035,132.568"/>
<path fill="#CBA921" d="M85.867,94.148c0.004,0.885-0.653,1.607-1.466,1.609c-0.813,0.003-1.472-0.716-1.476-1.6
	c-0.001-0.886,0.654-1.606,1.467-1.61C85.206,92.545,85.866,93.262,85.867,94.148"/>
<path fill="#CBA921" d="M78.854,112.217c0,0.848-0.627,1.537-1.403,1.539c-0.777,0.002-1.41-0.682-1.409-1.531
	c-0.004-0.846,0.622-1.534,1.401-1.537C78.22,110.686,78.851,111.372,78.854,112.217"/>
<path fill="#CBA921" d="M67.126,94.199c0.002,0.848-0.624,1.537-1.401,1.54c-0.777,0.002-1.41-0.685-1.41-1.532
	c-0.002-0.846,0.626-1.536,1.4-1.537C66.494,92.667,67.124,93.352,67.126,94.199"/>
<path fill="#CBA921" d="M61.631,108.89c0.003,0.847-0.625,1.535-1.4,1.538c-0.779,0.003-1.41-0.685-1.41-1.529
	c-0.004-0.848,0.623-1.535,1.4-1.538C60.997,107.358,61.629,108.042,61.631,108.89"/>
<path fill="#CBA921" d="M39.541,106.914c0.002,0.848-0.627,1.536-1.402,1.538c-0.777,0.003-1.409-0.684-1.411-1.529
	c-0.003-0.847,0.626-1.536,1.403-1.539C38.907,105.382,39.538,106.067,39.541,106.914"/>
<path fill="#CBA921" d="M36.043,118.447c0.001,0.631-0.468,1.145-1.044,1.147c-0.579,0.002-1.052-0.508-1.052-1.142
	c-0.002-0.629,0.467-1.143,1.047-1.145C35.569,117.306,36.041,117.818,36.043,118.447"/>
<path fill="#FFFFFF" d="M56.773,41.433c0.018,6.464-5.209,11.719-11.672,11.736c-6.463,0.017-11.716-5.208-11.734-11.671
	c-0.018-6.464,5.207-11.719,11.671-11.735C51.5,29.745,56.754,34.97,56.773,41.433"/>
<path fill="#FFFFFF" d="M82.551,41.364c0.019,6.464-5.207,11.717-11.67,11.734s-11.717-5.208-11.735-11.67
	c-0.019-6.464,5.206-11.718,11.671-11.735C77.278,29.676,82.532,34.901,82.551,41.364"/>
<path fill="#71A94B" d="M74.238,39.537c0.007,2.897-2.332,5.25-5.228,5.257c-2.897,0.01-5.251-2.331-5.257-5.228
	c-0.009-2.896,2.331-5.248,5.229-5.257C71.877,34.302,74.23,36.642,74.238,39.537"/>
<path fill="#71A94B" d="M48.941,46.698c0.008,2.896-2.333,5.25-5.229,5.257c-2.896,0.009-5.25-2.332-5.257-5.228
	c-0.009-2.896,2.332-5.249,5.228-5.257C46.579,41.462,48.934,43.803,48.941,46.698"/>
<path fill="#FFFFFF" d="M46.276,47.937c0.003,1.423-1.146,2.578-2.569,2.582c-1.419,0.004-2.575-1.146-2.578-2.567
	c-0.005-1.421,1.144-2.576,2.565-2.582C45.116,45.368,46.273,46.515,46.276,47.937"/>
<path fill="#FFFFFF" d="M70.843,38.821c0.002,1.422-1.146,2.577-2.568,2.582c-1.421,0.004-2.577-1.146-2.581-2.567
	c-0.003-1.421,1.146-2.577,2.565-2.581C69.682,36.251,70.838,37.4,70.843,38.821"/>
<path fill="#71A94B" d="M36.522,26.115c-1.226,1.455-2.284,2.992-2.901,4.805c-0.244,0.717,0.715,1.512,1.353,1.034
	c0.95-0.712,1.943-1.369,2.954-1.996c0.808-0.501,1.646-0.955,2.512-1.352c0.688-0.315,1.498-0.375,2.104-0.854
	c2.086-1.651-1.06-4.755-3.046-4.176c-1.145,0.334-0.67,2.12,0.474,1.786c0.501-0.146,1.416,0.981,1.45,0.937
	c-0.171,0.226-1.06,0.36-1.329,0.462c-0.567,0.218-1.11,0.488-1.649,0.768c-1.537,0.798-3.002,1.783-4.387,2.819
	c0.45,0.347,0.901,0.691,1.354,1.036c0.506-1.489,1.417-2.772,2.423-3.966C38.594,26.513,37.29,25.204,36.522,26.115"/>
<path fill="#71A94B" d="M78.831,28.883c0.512,0.563,0.954,1.137,1.331,1.796l1.257-1.263c-1.412-0.685-2.876-1.276-4.358-1.785
	c-0.918-0.313-1.891-0.591-2.861-0.669c-1.042-0.083,0.142-1.198,0.642-1.154c1.188,0.103,1.173-1.746-0.005-1.849
	c-1.823-0.158-4.365,3.287-2.231,4.472c0.555,0.306,1.091,0.313,1.707,0.397c0.913,0.122,1.809,0.431,2.677,0.726
	c1.201,0.414,2.38,0.917,3.522,1.472c0.798,0.389,1.729-0.435,1.257-1.263c-0.459-0.803-1.014-1.508-1.633-2.19
	C79.332,26.691,78.033,28.003,78.831,28.883"/>
<path fill="#C95842" d="M73.767,72.283c-4.392-0.147-8.617,0.658-12.759,2.082c-1.983,0.682-4.063,1.495-5.687,2.867
	c-1.272,1.076-2.063,2.382-2.919,3.736c9.84,3.768,19.013-1.634,25.022-8.354C76.211,72.445,74.991,72.324,73.767,72.283"/>
<path fill="#FFFFFF" d="M55.904,71.712c5.428-0.16,10.839-0.736,16.175-1.748c2.072-0.394,2.364-0.851,4.407-1.351
	c-0.061-3.685-0.123-6.272-0.154-9.95c-0.297,0.169-0.627,0.321-0.928,0.556C55.261,74.853,33.979,61.82,33.979,61.82
	c1.957,3.629,3.953,6.681,5.962,9.235C45.267,71.275,50.566,71.869,55.904,71.712"/>
<path fill="#FFFFFF" d="M55.906,72.637c7.148-0.274,13.968-1.136,20.817-3.131c0.396-0.114,0.694-0.473,0.688-0.895
	c-0.059-3.316-0.119-6.633-0.153-9.951c-0.009-0.683-0.78-1.16-1.384-0.801c-4.773,2.86-8.802,5.711-14.303,7.161
	c-4.763,1.255-9.816,1.193-14.642,0.392c-4.281-0.711-8.76-2.139-12.497-4.396c-0.802-0.483-1.689,0.483-1.257,1.264
	c1.144,2.068,4.05,9.028,6.533,9.67C44.535,73.195,50.934,72.709,55.906,72.637c1.192-0.018,1.187-1.865-0.006-1.848
	c-4.149,0.06-8.276-0.203-12.414-0.469c-4.834-0.308-6.572-5.102-8.705-8.958l-1.257,1.264c4.409,2.664,9.688,4.13,14.737,4.853
	c4.232,0.607,8.495,0.393,12.684-0.422c6.094-1.181,10.654-4.481,15.847-7.591c-0.462-0.268-0.923-0.533-1.384-0.8
	c0.036,3.504,1.566,8.749-2.291,10.099C67.86,70.605,61.43,70.579,55.9,70.789C54.712,70.833,54.713,72.682,55.906,72.637"/>
<path fill="#165E8C" d="M33.522,62.653c9.614,5.222,22.048,5.029,32.219,1.92c4.386-1.341,8.464-3.5,12.341-5.914
	c1.277-0.796,2.805-1.655,4.357-1.605c2.276,0.076,0.413,4.957,0.037,5.886c-3.092,7.631-9.968,14.655-17.774,17.363
	c-13.749,4.77-24.109-8.339-29.925-18.911c-0.574-1.048-2.175-0.127-1.604,0.916c5.596,10.177,14.948,22.479,28.145,20.659
	c8.958-1.235,16.331-7.986,20.897-15.459c1.515-2.479,6.31-12.568-0.283-12.297c-1.37,0.056-2.702,0.713-3.89,1.339
	c-5.057,2.667-9.646,5.415-15.234,6.951c-8.024,2.21-16.715,1.767-24.574-0.862c-1.297-0.433-2.599-0.94-3.805-1.593
	C33.385,60.477,32.473,62.083,33.522,62.653"/>
<path fill="#60AED1" d="M97.79,34.171c-0.437,0.87-0.852,1.747-1.23,2.642c0.534,0,1.07-0.002,1.605-0.004
	c-0.739-1.676-1.505-3.506-2.731-4.887c-1.156-1.3-3.341-2.026-4.902-2.705c-0.071,0.566-0.145,1.133-0.216,1.698
	c1.791-0.721,3.655-1.521,5.108-2.824c1.38-1.238,2.125-3.436,2.793-5.123c-0.564,0.076-1.129,0.15-1.695,0.226
	c0.719,1.703,1.51,3.484,2.733,4.886c1.21,1.392,3.453,2.127,5.123,2.796c-0.076-0.566-0.151-1.132-0.228-1.697
	c-1.68,0.761-3.461,1.543-4.885,2.732c-0.916,0.764,0.403,2.059,1.31,1.302c1.277-1.065,2.987-1.747,4.493-2.431
	c0.836-0.378,0.428-1.435-0.227-1.696c-1.276-0.511-3.139-1.271-4.284-2.315c-1.161-1.061-1.828-3.07-2.432-4.494
	c-0.358-0.85-1.442-0.414-1.696,0.227c-0.545,1.373-1.27,3.103-2.316,4.284c-0.989,1.113-3.002,1.829-4.271,2.34
	c-0.649,0.262-1.061,1.333-0.219,1.699c1.504,0.654,3.266,1.314,4.508,2.405c1.157,1.016,1.816,3.108,2.43,4.495
	c0.271,0.613,1.343,0.619,1.608-0.005c0.379-0.894,0.795-1.772,1.231-2.642C99.93,34.021,98.325,33.103,97.79,34.171"/>
<path fill="#EEC900" d="M89.23,13.768c0.552,1.306,1.16,2.661,2.1,3.736c0.941,1.08,2.67,1.646,3.967,2.168
	c-0.076-0.565-0.151-1.13-0.226-1.698c-1.289,0.586-2.642,1.188-3.735,2.101c-1.018,0.849-1.576,2.558-2.078,3.745
	c0.535-0.001,1.071-0.003,1.607-0.004c-0.568-1.284-1.158-2.675-2.099-3.734c-0.888-0.998-2.549-1.558-3.747-2.079
	c-0.072,0.567-0.144,1.131-0.217,1.698c1.396-0.564,2.819-1.186,3.956-2.189c0.895-0.789-0.421-2.087-1.31-1.302
	c-0.863,0.762-2.132,1.306-3.12,1.705c-0.649,0.262-1.06,1.333-0.218,1.698c1.113,0.485,2.435,0.972,3.354,1.779
	c0.852,0.751,1.342,2.316,1.796,3.342c0.271,0.611,1.345,0.619,1.608-0.005c0.453-1.076,0.922-2.268,1.636-3.199
	c0.719-0.938,2.429-1.471,3.483-1.948c0.835-0.379,0.428-1.435-0.229-1.697c-0.692-0.278-2.325-0.955-3.127-1.689
	c-0.858-0.785-1.352-2.287-1.799-3.342C90.37,11.754,88.771,12.687,89.23,13.768"/>
<path fill="#EEC900" d="M23.352,14.638c0.415,0.984,0.874,2.003,1.58,2.813c0.711,0.813,2.012,1.242,2.989,1.634
	c-0.056-0.425-0.112-0.852-0.169-1.278c-0.973,0.441-1.99,0.894-2.813,1.581c-0.768,0.639-1.188,1.926-1.565,2.822
	c0.404-0.002,0.807-0.003,1.21-0.005c-0.427-0.967-0.872-2.015-1.58-2.813c-0.669-0.75-1.921-1.171-2.823-1.563
	c-0.054,0.428-0.11,0.854-0.163,1.28c1.051-0.426,2.122-0.893,2.98-1.651c0.673-0.594-0.317-1.572-0.986-0.981
	c-0.65,0.573-1.606,0.983-2.351,1.284c-0.489,0.198-0.8,1.005-0.164,1.281c0.837,0.365,1.833,0.729,2.524,1.337
	c0.644,0.564,1.014,1.745,1.354,2.517c0.204,0.461,1.013,0.467,1.211-0.003c0.343-0.811,0.695-1.708,1.233-2.41
	c0.541-0.707,1.829-1.107,2.623-1.467c0.631-0.285,0.323-1.081-0.171-1.277c-0.521-0.211-1.752-0.722-2.356-1.275
	c-0.646-0.591-1.018-1.721-1.354-2.515C24.21,13.121,23.008,13.822,23.352,14.638"/>
<path fill="#EEC900" d="M19.089,7.589c0.283,0.673,0.596,1.37,1.079,1.923c0.486,0.553,1.373,0.847,2.041,1.114
	c-0.037-0.291-0.078-0.581-0.116-0.874c-0.664,0.303-1.359,0.611-1.922,1.081c-0.522,0.437-0.812,1.318-1.068,1.928
	c0.275,0,0.552-0.001,0.826-0.001c-0.293-0.662-0.597-1.377-1.081-1.922c-0.456-0.515-1.312-0.802-1.928-1.07
	c-0.036,0.293-0.073,0.582-0.11,0.873c0.717-0.288,1.451-0.608,2.036-1.126c0.457-0.406-0.22-1.074-0.675-0.671
	c-0.444,0.394-1.097,0.672-1.604,0.877c-0.334,0.136-0.545,0.687-0.112,0.875c0.571,0.25,1.25,0.501,1.723,0.916
	c0.44,0.385,0.693,1.192,0.927,1.719c0.14,0.315,0.691,0.319,0.827-0.001c0.233-0.554,0.475-1.169,0.841-1.646
	c0.371-0.483,1.25-0.757,1.793-1.004c0.43-0.195,0.221-0.738-0.117-0.872c-0.355-0.146-1.195-0.492-1.607-0.871
	c-0.443-0.403-0.697-1.176-0.927-1.718C19.676,6.554,18.854,7.033,19.089,7.589"/>
</svg>
