<?xml version="1.0" encoding="utf-8"?>
<!-- Generator: Adobe Illustrator 16.0.0, SVG Export Plug-In . SVG Version: 6.00 Build 0)  -->
<!DOCTYPE svg PUBLIC "-//W3C//DTD SVG 1.1//EN" "http://www.w3.org/Graphics/SVG/1.1/DTD/svg11.dtd">
<svg version="1.1" id="Capa_1" xmlns="http://www.w3.org/2000/svg" xmlns:xlink="http://www.w3.org/1999/xlink" x="0px" y="0px"
	 width="242.343px" height="152px" viewBox="0 0 242.343 152" enable-background="new 0 0 242.343 152" xml:space="preserve">
<path fill-rule="evenodd" clip-rule="evenodd" fill="#0C366C" d="M218.111,139.577c0,3.546-15.771,6.421-35.223,6.421
	c-19.453,0-35.224-2.875-35.224-6.421c0-3.543,15.771-6.415,35.224-6.415C202.341,133.162,218.111,136.034,218.111,139.577"/>
<path fill-rule="evenodd" clip-rule="evenodd" fill="#001B42" d="M200.251,139.462c0,0.449-4.922,0.812-10.993,0.812
	s-10.993-0.362-10.993-0.812c0-0.446,4.922-0.811,10.993-0.811S200.251,139.016,200.251,139.462"/>
<path fill="#371C4E" d="M186.305,102.237c6.053,6.435,1.228,20.067-2.205,26.513c-0.385,0.723,0.59,2.287,1.07,1.386
	c3.861-7.25,8.793-21.895,2.007-29.109C186.341,100.139,185.658,101.551,186.305,102.237"/>
<path fill="#371C4E" d="M128.516,96.914c-8.34-2.85-18.576-5.188-24.17,3.524c-0.299,0.466,0.43,2.039,0.651,1.693
	c5.532-8.618,15.573-6.237,23.802-3.427C129.248,98.859,129.032,97.091,128.516,96.914"/>
<polygon fill="#FFFFFF" points="200.251,105.489 193.528,105.489 187.051,105.489 133.774,105.489 133.774,39.013 200.251,39.013 
	"/>
<path fill="#3E1253" d="M200.057,104.766h-66.476c0.177,0.342,0.354,0.684,0.531,1.025V47.552c0-1.448-0.905-6.849,0-8.062
	c-0.141,0.189,0.063,0.324,0.788,0.247c1.449-0.154,3.013,0,4.468,0h33.794h27.282c-0.177-0.342-0.354-0.684-0.53-1.025v66.477
	c0,0.451,0.674,1.567,0.674,0.603V39.314c0-0.275-0.154-1.026-0.531-1.026h-66.476c-0.152,0-0.144,0.347-0.144,0.424v66.477
	c0,0.275,0.155,1.026,0.532,1.026h66.475C200.76,106.215,200.529,104.766,200.057,104.766"/>
<polyline fill="#FFFFFF" points="105.646,82.054 105.646,15.771 133.775,39.014 133.775,105.49 117.485,91.919 115.054,89.893 "/>
<path fill="#3E1253" d="M106.076,82.331V42.764V20.335c0-0.605-0.451-3.759,0-4.238c-0.768,0.816,3.171,3.35,4.082,4.104
	c6.54,5.402,13.079,10.806,19.618,16.209c0.922,0.762,1.848,1.775,2.881,2.38c1.016,0.595,1.004,1.333,0.687,0.026
	c0.32,1.318,0,3.14,0,4.482v49.596v9.678c0,0.506,0.247,1.885,0,2.331c-0.313,0.57,0.494-0.116,0.411-0.129
	c-0.272-0.041-0.851-0.657-1.021-0.852c-2.956-3.375-7.322-6.101-10.77-8.972c-2.295-1.911-4.59-3.823-6.884-5.735
	c-0.504-0.42-0.434,1.038-0.054,1.354c6.24,5.2,12.48,10.399,18.722,15.599c0.271,0.225,0.458-0.195,0.458-0.401v-45.91V47.189
	c0-2.27,0.408-4.97,0-7.211c-0.644-3.532-5.843-6.137-8.507-8.338c-6.675-5.516-13.351-11.032-20.027-16.547
	c-0.271-0.224-0.458,0.193-0.458,0.401v66.282C105.214,82.349,106.076,83.307,106.076,82.331"/>
<polyline fill="#FFFFFF" points="165.443,15.771 172.417,15.771 200.251,39.013 133.774,39.013 105.646,15.771 151.158,15.771 "/>
<path fill="#3E1253" d="M165.529,16.497c2.66,0,5.563-0.596,7.784,0.721c3.303,1.956,6.303,5.263,9.243,7.718
	c5.89,4.918,11.78,9.836,17.67,14.754c-0.021-0.467-0.041-0.935-0.062-1.401h-43.076c-7.178,0-14.361,0.082-21.538,0
	c-4.032-0.047-7.791-4.943-10.922-7.529c-6.319-5.222-12.64-10.443-18.958-15.665c0.02,0.468,0.04,0.935,0.061,1.403h45.513
	c0.623,0,0.327-1.451-0.172-1.451H105.56c-0.679,0-0.215,1.174,0.062,1.402c5.451,4.505,10.903,9.01,16.356,13.515
	c3.18,2.628,6.36,5.255,9.541,7.883c0.964,0.797,1.694,1.591,2.824,1.894c1.85,0.494,4.529,0,6.432,0h11.816h29.467h18.279
	c0.681,0,0.213-1.175-0.062-1.403c-6.133-5.121-12.265-10.241-18.397-15.362c-2.755-2.301-5.649-5.582-8.788-7.338
	c-2.183-1.222-5.189-0.59-7.732-0.59C164.734,15.046,165.03,16.497,165.529,16.497"/>
<path fill="#CDCED3" d="M174.209,29.171c-5.569,0.437-10.097,4.119-11.835,9.021c-2.327-2.675-5.865-4.253-9.698-3.955
	c-6.388,0.5-11.164,6.026-10.672,12.342c0.495,6.317,6.072,11.031,12.459,10.531c4.346-0.339,7.942-3.005,9.646-6.662
	c2.684,3.746,7.236,6.041,12.206,5.653c7.52-0.588,13.144-7.094,12.562-14.53C188.295,34.137,181.729,28.583,174.209,29.171"/>
<path fill="#CDCED3" d="M160.548,25.782c0,2.085-3.229,3.775-7.21,3.775s-7.209-1.69-7.209-3.775c0-2.086,3.228-3.776,7.209-3.776
	S160.548,23.696,160.548,25.782"/>
<path fill="#3B1D52" d="M160.548,25.03c0,2.087-3.229,3.777-7.21,3.777s-7.209-1.69-7.209-3.777c0-2.086,3.228-3.774,7.209-3.774
	S160.548,22.944,160.548,25.03"/>
<path fill="#CDCED3" d="M117.137,33.839c0,2.779-1.839,5.033-4.107,5.033c-2.27,0-4.108-2.254-4.108-5.033
	c0-2.778,1.839-5.03,4.108-5.03C115.298,28.809,117.137,31.061,117.137,33.839"/>
<path fill="#CDCED3" d="M123.3,61.175c0,2.779-1.84,5.031-4.108,5.031s-4.107-2.252-4.107-5.031c0-2.778,1.839-5.032,4.107-5.032
	S123.3,58.396,123.3,61.175"/>
<path fill="#CDCED3" d="M130.078,88.116c0,2.777-1.839,5.031-4.108,5.031s-4.108-2.254-4.108-5.031c0-2.78,1.839-5.032,4.108-5.032
	S130.078,85.336,130.078,88.116"/>
<path fill="#3B1D52" d="M117.349,32.608c0,2.779-1.84,5.033-4.108,5.033c-2.27,0-4.108-2.254-4.108-5.033
	c0-2.778,1.839-5.032,4.108-5.032C115.509,27.576,117.349,29.83,117.349,32.608"/>
<path fill="#3B1D52" d="M123.511,59.944c0,2.779-1.84,5.031-4.108,5.031c-2.27,0-4.107-2.252-4.107-5.031
	c0-2.778,1.838-5.032,4.107-5.032C121.671,54.912,123.511,57.166,123.511,59.944"/>
<path fill="#3B1D52" d="M130.289,86.884c0,2.779-1.839,5.033-4.108,5.033c-2.269,0-4.107-2.254-4.107-5.033
	c0-2.778,1.839-5.03,4.107-5.03C128.45,81.854,130.289,84.105,130.289,86.884"/>
<path fill="#F1F2F3" d="M174.027,26.849c-5.57,0.437-10.097,4.119-11.835,9.021c-2.326-2.675-5.866-4.255-9.699-3.955
	c-6.386,0.5-11.164,6.026-10.67,12.34c0.495,6.317,6.072,11.031,12.459,10.533c4.344-0.339,7.942-3.005,9.644-6.662
	c2.687,3.746,7.237,6.039,12.207,5.653c7.52-0.59,13.145-7.094,12.563-14.53C188.114,31.813,181.547,26.261,174.027,26.849"/>
<path fill="#3E1253" d="M173.833,26.125c-2.285,0.292-4.431,0.903-6.389,2.143c-1.084,0.687-2.093,1.547-2.939,2.511
	c-0.492,0.561-1.813,3.174-2.185,3.32c-1.52,0.6-3.064-1.459-4.496-2.048c-2.365-0.974-5.036-1.154-7.51-0.514
	c-8.346,2.162-11.527,12.389-6.449,19.165c2.329,3.107,6.057,4.922,9.934,4.824c2.575-0.063,5.104-0.948,7.126-2.559
	c0.741-0.59,1.263-1.383,1.963-1.992c1.568-1.363,1.014-1.281,2.778-0.154c4.271,2.729,8.122,4.694,13.383,3.193
	c4.385-1.251,7.948-4.69,9.399-9.003C191.757,35.179,183.769,25.845,173.833,26.125c-0.495,0.014-0.201,1.465,0.388,1.449
	c11.156-0.314,18.846,12.484,10.491,21.309c-5.885,6.216-15.49,5.128-20.646-1.342c-0.142-0.177-0.391-0.196-0.503,0.013
	c-5.053,9.373-21.8,8.427-21.331-4.362c0.38-10.378,13.197-13.524,19.822-6.734c0.138,0.141,0.404,0.227,0.504-0.013
	c2.097-5.115,6.194-8.171,11.663-8.87C174.742,27.507,174.409,26.051,173.833,26.125"/>
<path fill="#2D2B2B" d="M182.472,39.735c0.315,4.037-2.738,7.568-6.82,7.888s-7.646-2.694-7.963-6.733
	c-0.316-4.035,2.738-7.567,6.82-7.886C178.592,32.685,182.156,35.699,182.472,39.735"/>
<path fill="#2D2B2B" d="M157.942,44.181c0.207,2.648-1.797,4.968-4.477,5.177c-2.679,0.209-5.019-1.769-5.227-4.418
	c-0.207-2.649,1.798-4.968,4.477-5.177C155.396,39.554,157.734,41.533,157.942,44.181"/>
<path fill="#FFFFFF" d="M157.746,41.667c0.057,0.736-0.498,1.38-1.243,1.438c-0.743,0.059-1.393-0.49-1.45-1.226
	c-0.058-0.734,0.499-1.38,1.243-1.437C157.039,40.385,157.688,40.934,157.746,41.667"/>
<path fill="#FFFFFF" d="M181.249,33.815c0.089,1.146-0.777,2.148-1.937,2.238c-1.156,0.09-2.17-0.763-2.259-1.91
	c-0.09-1.144,0.777-2.147,1.936-2.237C180.148,31.815,181.16,32.671,181.249,33.815"/>
<path fill="#CDCED3" d="M188.27,62.728c-3.448,0.275-5.428,7.23-9.703,8.609c-4.276,1.379-11.311,3.036-22.484-8.964
	c-11.173-12.002-17.518,6.896-5.654,16.136c1.246,0.978,2.467,2.049,3.683,3.14c-2.086,4.077-4.355,9.963,3.351,14.221
	c9.242,5.103,11.035-0.414,12.548-4.139c0.132-0.324,0.231-0.728,0.307-1.191c5.083-0.358,11.016-4.223,18.544-14.637
	C197.833,64.177,191.719,62.451,188.27,62.728"/>
<path fill="#4F101D" d="M188.183,61.228c-3.449,0.277-5.428,7.232-9.704,8.611c-4.275,1.379-11.31,3.034-22.483-8.966
	c-11.173-12-17.517,6.898-5.654,16.138c10.608,8.306,19.458,23.642,38.432-2.608C197.746,62.679,191.631,60.953,188.183,61.228"/>
<path fill="#3B1D52" d="M187.94,60.325c-5.044,1.156-6.142,7.932-11.669,9.166c-6.775,1.513-12.683-2.279-17.486-6.729
	c-2.878-2.666-7.175-8.611-11.906-6.111c-3.114,1.646-3.684,6.011-3.389,9.131c0.468,4.929,3.126,8.926,6.804,12.077
	c3.38,2.898,6.611,6.104,10.242,8.692c9.696,6.909,18.411,1.205,25.231-6.95c3.114-3.724,9.338-10.074,8.119-15.614
	C193.25,61.092,190.643,60.186,187.94,60.325c-0.657,0.033-0.271,1.846,0.484,1.807c9.875-0.51-0.993,12.929-3.395,15.8
	c-3.688,4.412-8.6,9.605-14.697,10.179c-4.7,0.442-8.721-2.313-12.152-5.182c-3.553-2.968-8.313-6.341-10.978-10.087
	c-2.557-3.595-4.963-16.668,3.5-14.751c3.653,0.827,6.266,4.932,8.951,7.271c2.347,2.043,4.908,3.91,7.804,5.097
	c3.277,1.342,6.772,1.608,10.184,0.612c4.879-1.425,6.213-7.892,10.783-8.939C189.118,61.973,188.654,60.161,187.94,60.325"/>
<path fill="#BA302E" d="M168.961,72.437c0,0,2.473,14.07,0.96,17.796c-1.512,3.723-3.305,9.241-12.547,4.139
	c-9.24-5.106-4.137-12.553-2.207-16.416c1.933-3.862,2.761-10.483,2.761-11.034C157.928,66.369,168.961,72.437,168.961,72.437"/>
<path fill="#943132" d="M157.656,85.849c0.828,1.104,3.311,4.826,2.207,6.482c-0.828,0.965-2.758,0.69-3.726-0.138
	c-2.619-1.931-1.103-9.379,1.104-6.345"/>
<path fill="#943132" d="M166.754,74.552c0,0-1.931,0.396-1.942,1.363c-0.039,2.931-0.193,8.991-0.816,10.131
	c-0.656,1.205,0.251-5.586-0.105-9.887c-0.093-1.117-2.363-3.125-2.677-3.722L166.754,74.552z"/>
<path fill="#F1F2F3" d="M184.548,65.542l-1.241,7.382c0,0-9.793,9.517-28-3.586l-1.38-9.188c0,0,7.862,10.137,17.088,11.284
	C175.452,71.983,179.399,72.786,184.548,65.542"/>
<path fill="none" stroke="#F1F2F3" stroke-width="1.403" stroke-linecap="round" stroke-linejoin="round" stroke-miterlimit="10" d="
	M184.548,65.542l-1.241,7.382c0,0-9.793,9.517-28-3.586l-1.38-9.188c0,0,7.862,10.137,17.088,11.284
	C175.452,71.983,179.399,72.786,184.548,65.542z"/>
<path fill-rule="evenodd" clip-rule="evenodd" fill="#3B1D52" d="M219.023,49.413c0.583-0.883,1.167-1.819,1.764-2.801
	c0.337-0.554,0.595-1.334,1.472-0.92c0.49,0.235,0.549,0.908,0.315,1.594c-0.365,1.08-1.4,2.168-1.729,3.078
	c0.36-0.144,0.687-0.603,1.098-1.045c0.568-0.606,1.142-1.347,2.067-0.603c0.136,0.365,0.117,0.687-0.042,1.133
	c-0.493,1.384-1.762,1.982-2.523,3.154c-0.416,0.639-0.567,1.459-0.902,2.17c-0.317,0.674-0.792,1.142-1.302,1.467
	c-0.88,0.556-2.187,0.919-3.614,0.46c-1.737-0.56-2.518-2.189-3.206-3.546c-0.349-0.688-0.717-1.379-1.151-2.034
	c-0.297-0.445-1.069-1.498-0.757-2.271c0.183-0.455,0.799-0.697,1.394-0.47c1.001,0.388,1.387,1.733,1.947,2.363
	c0.532-0.209,0.774-0.546,0.921-1.423c0.253-1.53-0.489-3.312-0.253-4.743c0.12-0.728,0.539-1.38,1.224-1.148
	c0.703,0.238,0.862,1.492,0.947,2.187c0.107,0.896,0.13,1.761,0.321,2.535c0.57-1.573,0.548-4.172,1.842-4.633
	c0.175-0.063,0.524,0.096,0.676,0.266C220.427,45.209,218.818,47.922,219.023,49.413"/>
<path fill="#371C4E" d="M215.645,56.582c0.438,3.752-0.431,7.748-2.622,10.865c-2.747,3.909-7.484,5.009-12.026,5.118
	c-0.893,0.021-0.576,1.84,0.164,1.822c4.932-0.117,9.907-1.303,12.854-5.533c2.413-3.466,3.34-7.931,2.855-12.086
	C216.757,55.802,215.501,55.345,215.645,56.582"/>
<path fill-rule="evenodd" clip-rule="evenodd" fill="#3B1D52" d="M131.499,83.489c0.196-0.036,0.441-0.235,0.438-0.399
	c-0.021-1.2-2.325-2.342-3.545-3.483c0.742,0.197,1.514,0.569,2.339,0.886c0.638,0.243,1.794,0.682,2.216,0.247
	c0.41-0.422-0.04-1.034-0.648-1.452c-1.195-0.822-2.991-1.045-4.269-1.923c-0.731-0.506-0.957-0.844-0.983-1.346
	c0.725-0.147,2.031,0.157,2.673-0.44c0.38-0.356,0.351-0.937,0.004-1.279c-0.59-0.586-1.753-0.463-2.236-0.435
	c-0.708,0.044-1.43,0.019-2.142-0.021c-1.407-0.079-3.08-0.206-4.097,0.88c-0.834,0.894-0.903,2.06-0.674,2.985
	c0.133,0.535,0.405,1.108,0.905,1.653c0.528,0.576,1.207,1.058,1.649,1.662c0.808,1.11,0.956,2.351,2.031,3.347
	c0.348,0.321,0.626,0.479,0.99,0.539c0.937-0.38,0.452-1.149,0.084-1.857c-0.266-0.514-0.574-0.969-0.594-1.311
	c0.705,0.659,1.356,1.94,2.204,2.702c0.536,0.486,1.148,0.742,1.503,0.47c0.628-0.488,0.015-1.035-0.373-1.541
	c-0.688-0.897-1.342-1.765-1.947-2.606C128.408,81.274,130.324,83.722,131.499,83.489"/>
<path fill="#371C4E" d="M116.704,60.357c-1.955,2.166-3.911,4.636-2.925,7.698c1.117,3.459,5.172,6.921,8.04,8.935
	c0.946,0.664,1.278-1.023,0.57-1.521c-2.096-1.473-3.953-3.311-5.593-5.277c-1.232-1.478-2.418-2.698-1.61-4.952
	c0.472-1.316,1.669-2.481,2.586-3.497C118.333,61.122,117.416,59.568,116.704,60.357"/>
<path fill="#364D18" d="M222.43,61.337c-5.909,0.017-6.343-1.043-6.343-1.043s-4.014-12.187-2.71-16.856
	c1.303-4.672,3.317-4.955,5.315-5.911l-0.173-8.082c0,0-2.521-2.259,2.345-3.043c2.442-0.347,3.35-0.343,3.478,1.479"/>
<path fill="#364D18" d="M224.342,27.88l0.645,10.269c0,0,6.785-0.319,6.873,6.548c0.086,6.866,0.043,13.948,0.043,13.948"/>
<path fill="#5F7F34" d="M223.015,60.469c-2.78-0.174-5.562-0.955-5.562-0.955s-2.346-1.348-3.172-13.905
	c-0.608-5.301,5.563-7.517,6.302-8.472c0.738-0.957,0.043-3.506,0.043-3.506l3.432,0.94l-0.086,1.756c0,0-0.122,2.214,1.095,2.646
	c1.216,0.436,5.596,1.073,5.771,3.68c0.174,2.608,0,15.817,0,15.817"/>
<path fill="#CED443" d="M217.737,40.364c0,0,2.172,2.941,7.474-0.709c0.435-0.26-1.043-0.174-1.043-1.737
	c0-1.565-0.366-9.03-0.521-10.254c-0.155-1.228-3.534-0.363-4.403-0.19c-0.869,0.174-0.55,1.666-0.29,1.754
	c0.262,0.086,0.696,9.313,0.696,9.313S218.258,39.062,217.737,40.364"/>
<path fill="#EAF0CC" d="M229.209,54.429c0,0-9.777,1.392-10.517,0.955c-0.737-0.433-2.824-5.56-1.434-9.037"/>
<path fill="#EAF0CC" d="M217.259,46.347c0,0,9.082,0.652,10.994-0.694c1.912-1.349,0.956,8.776,0.956,8.776"/>
<path fill="#D5D848" d="M217.95,46.837c0,0,8.01,0.574,9.696-0.612c1.687-1.188,0.844,7.742,0.844,7.742s-8.624,1.225-9.275,0.842
	C218.564,54.426,216.724,49.903,217.95,46.837"/>
<path fill="#EAF0CC" d="M227.441,41.485c0,0,2.26-0.049,2.55,3.08c0.289,3.13-0.174,0.115-0.667-0.957
	C228.832,42.539,228.051,41.824,227.441,41.485"/>
<path fill="#EAF0CC" d="M218.111,41.485c0,0-2.26-0.049-2.549,3.08c-0.29,3.13,0.174-0.231,0.666-1.305
	C216.722,42.19,217.503,41.824,218.111,41.485"/>
<path fill="#364D18" d="M219.866,27.923c0,0,2.25-0.606,2.711-0.305C223.038,27.923,219.736,29.923,219.866,27.923"/>
<path fill-rule="evenodd" clip-rule="evenodd" fill="#3B1D52" d="M231.819,45.464c0,0-2.578-0.487-2.676,0
	c-0.098,0.49-0.39,2.197,0.536,2.052c0.927-0.147,2.218-0.196,2.218-0.196"/>
<path fill-rule="evenodd" clip-rule="evenodd" fill="#3B1D52" d="M231.819,48.196c0,0-2.578-0.489-2.676,0
	c-0.098,0.488-0.39,2.195,0.536,2.05c0.927-0.146,2.218-0.194,2.218-0.194"/>
<path fill-rule="evenodd" clip-rule="evenodd" fill="#3B1D52" d="M231.858,51.312c0,0-3.131-0.481-3.229,0.007
	c-0.098,0.489-0.39,2.196,0.537,2.051c0.926-0.147,2.77-0.202,2.77-0.202"/>
<path fill-rule="evenodd" clip-rule="evenodd" fill="#3B1D52" d="M183.928,127.864c1-2.391,1.266-0.715,5.397,1.015
	c4.133,1.728,10.319,5.82,9.319,8.211c-1,2.39-8.808,2.175-12.94,0.447S182.928,130.258,183.928,127.864"/>
<path fill-rule="evenodd" clip-rule="evenodd" fill="#3B1D52" d="M89.492,95.11c1-2.391,7.059-1.68,11.191,0.05
	c4.133,1.728,6.495,3.733,5.494,6.125c-0.999,2.392-4.983,4.264-9.116,2.535C92.93,102.091,88.492,97.504,89.492,95.11"/>
<path fill-rule="evenodd" clip-rule="evenodd" fill="#3B1D52" d="M101.439,105.652c1.079,0.174,2.634-2.313,3.231-3.177"/>
<path fill-rule="evenodd" clip-rule="evenodd" fill="#3B1D52" d="M102.208,102.479c-0.457,0.523-2.928,2.828-0.769,3.173"/>
<path fill-rule="evenodd" clip-rule="evenodd" fill="#3B1D52" d="M183.264,134.095c0,0.695-0.348,6.488,1.506,5.33
	c0.927-0.58,0.464-3.475,0.348-4.518"/>
<path fill="#2D2B2B" d="M142.331,33.173c0,0,3.9-2.92,6.228-3.479c2.325-0.561-0.428-3.073-1.434-2.622
	C146.121,27.521,143.113,30.589,142.331,33.173"/>
<path fill="#2D2B2B" d="M184.849,27.97c0,0-4.189-2.061-6.479-2.178s-0.14-2.97,0.885-2.722
	C180.279,23.316,183.655,25.675,184.849,27.97"/>
<path d="M15.66,125.726l5.402-0.414c0.115,0,0.69-0.069,0.76,0.136c0.045,0.712,0.23,1.38,0.23,2.07v0.321
	c-0.163,0.276-3.104,0.299-3.657,0.461v0.205c0,0.209,0.07,5.68,0.62,5.68l3.221-0.46c0.022,0,0.092-0.023,0.115-0.023l0.505,2.439
	l-3.861,0.483v0.299c0,1.171,0.091,2.437,0.206,3.563c0,0.23,0.046,0.552,0.321,0.552c0.391,0,3.035-0.459,3.701-0.483
	c0.23,0,0.276,0.23,0.299,0.414c0.093,0.46,0.276,1.425,0.276,1.976c0,0.047,0.047,0.23-0.068,0.256
	c-1.195,0.021-2.254,0.298-5.817,0.527c-0.023,0.023-0.528,0.07-0.553,0.07c-0.022,0-0.091,0.021-0.115,0.021
	c-0.412,0-0.412-0.896-0.436-1.101l-1.149-16.533"/>
<path d="M25.29,123.862h3.036c0,0.759,0.091,1.472,0.091,2.232v0.229l-0.575,16.186c-0.068,0.231-0.896,0.231-1.839,0.231h-0.23
	c-0.345-0.047-0.252-1.15-0.299-1.404L25.29,123.862z"/>
<path d="M44.321,142.624c-1.633,0.666-2.276,1.126-4.022,1.126c-2.047,0-3.587-1.585-3.587-3.587
	c-0.022-0.138-0.022-0.276-0.022-0.437c0-3.702,4.022-6.114,7.472-5.45l0.092-9.243c0.023-0.16,0.161-0.23,2.941-0.091
	c0.094,0.116,0.071,0.229,0.071,0.345c0,3.772-0.254,7.518-0.254,11.266c0,2.368,0.093,4.736,0.093,7.15v0.299
	c-0.161,0.255-1.679,0.3-2.07,0.3c-0.045,0-0.275-0.024-0.344-0.024c-0.208-0.067-0.208-0.46-0.208-0.575
	C44.482,143.405,44.69,142.693,44.321,142.624 M44.022,140.232v-0.551c-0.022-0.735-0.113-3.011-0.137-3.011
	c-0.207-0.025-0.437-0.025-0.62-0.025c-3.541,0-3.612,2.117-3.612,3.403v0.209C39.653,141.911,43.058,140.692,44.022,140.232"/>
<path d="M48.662,140.901c0-2.209,1.081-4.069,3.357-4.876c0.896-0.323,2.437-0.414,3.034-0.414c0.276,0-0.184-2.85-1.678-2.85
	c-1.242,0-2.023,1.013-2.874,1.655c0,0-1.655-1.334-1.655-1.38c0-0.23,0.344-0.551,0.482-0.757c1.495-1.52,2.896-2.024,4.76-2.024
	c3.082,0,3.84,2.552,3.932,4.99v0.208c0.115,2.392,0.115,4.852,0,7.242c-0.068,0.23-0.436,0.665-1.909,0.826H56.02
	c-0.851,0-0.185-0.941-0.689-1.172c-0.345,0.254-0.46,0.53-0.874,0.76c-0.872,0.574-2.046,0.643-3.126,0.643
	c-1.726,0-2.599-1.311-2.668-2.69V140.901z M55.123,140.394v-0.574c0-0.781-0.022-2.002-0.413-2.002
	c-3.518,0-3.357,2.529-3.334,3.015C51.514,141.865,55.123,140.762,55.123,140.394"/>
<path d="M67.12,142.624c-1.633,0.666-2.276,1.126-4.022,1.126c-2.047,0-3.587-1.585-3.587-3.587
	c-0.024-0.138-0.024-0.276-0.024-0.437c0-3.702,4.025-6.114,7.473-5.45l0.093-9.243c0.022-0.16,0.161-0.23,2.941-0.091
	c0.094,0.116,0.07,0.229,0.07,0.345c0,3.772-0.253,7.518-0.253,11.266c0,2.368,0.092,4.736,0.092,7.15v0.299
	c-0.16,0.255-1.68,0.3-2.069,0.3c-0.046,0-0.276-0.024-0.345-0.024c-0.206-0.067-0.206-0.46-0.206-0.575
	C67.282,143.405,67.488,142.693,67.12,142.624 M66.821,140.232v-0.551c-0.022-0.735-0.114-3.011-0.137-3.011
	c-0.208-0.025-0.438-0.025-0.622-0.025c-3.54,0-3.61,2.117-3.61,3.403v0.209C62.452,141.911,65.856,140.692,66.821,140.232"/>
<path d="M79.417,131.197c2.392,1.494,3.288,4.001,3.288,6.415c0,2.207-1.404,4.391-3.794,5.335
	c-1.242,0.483-2.851,0.369-4.161-0.069c-2.622-1.036-3.542-3.863-3.542-6.071C71.208,132.99,74.979,129.15,79.417,131.197
	 M74.979,139.037c0.369,0.896,1.173,1.471,2.253,1.471c1.909,0,2.507-1.816,2.507-3.149c0-4.806-5.358-5.749-5.358-0.622
	C74.38,137.519,74.657,138.302,74.979,139.037"/>
<path d="M98.605,142.624c-1.633,0.666-2.276,1.126-4.023,1.126c-2.046,0-3.587-1.585-3.587-3.587
	c-0.022-0.138-0.022-0.276-0.022-0.437c0-3.702,4.023-6.114,7.473-5.45l0.092-9.243c0.023-0.16,0.161-0.23,2.941-0.091
	c0.094,0.116,0.071,0.229,0.071,0.345c0,3.772-0.254,7.518-0.254,11.266c0,2.368,0.093,4.736,0.093,7.15v0.299
	c-0.161,0.255-1.68,0.3-2.07,0.3c-0.045,0-0.275-0.024-0.344-0.024c-0.208-0.067-0.208-0.46-0.208-0.575
	C98.767,143.405,98.975,142.693,98.605,142.624 M98.307,140.232v-0.551c-0.022-0.735-0.113-3.011-0.138-3.011
	c-0.206-0.025-0.437-0.025-0.62-0.025c-3.54,0-3.611,2.117-3.611,3.403v0.209C93.938,141.911,97.342,140.692,98.307,140.232"/>
<path d="M102.947,142.004c0,0,0.413-10.554,0.85-10.554c0.093,0,0.138,0.025,2.369,0.068c0.206,0,0.229,0.208,0.229,0.323
	c0,0.048-0.022,0.207-0.022,0.231c-0.022,0.688-0.206,3.723-0.85,10.782c-0.025,0.299-0.068,0.392-0.347,0.436
	c-0.713-0.044-1.401,0.14-2.138-0.069c-0.022,0-0.068-0.046-0.068-0.068C102.947,142.969,102.947,142.164,102.947,142.004
	 M103.521,126.897c0-2.392,2.898-3.448,3.542-0.92c0,0,0.022,0.278,0.022,0.367c0,1.036-0.482,2.277-1.655,2.277
	c-0.69,0-1.633-0.32-1.885-1.056C103.545,127.45,103.521,126.989,103.521,126.897"/>
<path d="M112.532,142.9c-4.298,0-5.335-3.794-5.335-6.023v-0.208c0.115-3.495,2.323-6.666,6.737-6.666
	c0.806,0,1.978,0.529,1.978,1.355c0,0.321-0.644,1.932-0.988,1.932c-0.46,0-0.806-0.276-1.312-0.276
	c-1.747,0-2.758,1.195-3.357,2.529c-0.39,0.852-0.274,2.667,0.276,3.517c0.416,0.738,1.427,1.15,2.323,1.174h0.206
	c0.645,0,1.518-0.093,2.07-0.392c0.185-0.091,0.943-0.713,1.172-0.713c0.369,0,1.011,1.472,1.011,1.954
	c0,1.104-3.241,1.793-4.114,1.793C112.97,142.9,112.739,142.9,112.532,142.9"/>
<path d="M118.07,138.762c-0.437-3.103,0.688-7.129,4.713-7.704c3.908-0.55,4.758,0.805,5.22,4.117l0.138,0.919l-6.76,1.542
	c-0.022,0-0.16,0.137-0.185,0.206c-0.046,0.138-0.137,0.529,0.115,2.505c0.138,0.943,1.08,1.289,1.977,1.174
	c1.104-0.162,2.346-1.494,3.266-1.494c0.391,0,1.241,0.943,1.288,1.287v0.115c-1.564,2.117-3.195,2.459-5.725,2.322
	C119.243,143.614,118.392,140.97,118.07,138.762 M121.841,133.957c-0.299,0.274-0.759,1.104-0.759,1.586v0.091l0.207-0.044
	c0.022,0,0.069-0.024,0.092-0.024c0.621-0.089,1.264-0.161,3.954-0.759c0,0,0-0.022-0.022-0.091c-0.046-0.276-0.23-1.013-0.23-1.034
	c-0.206-0.691-0.689-0.666-1.332-0.576C123.104,133.199,122.277,133.474,121.841,133.957"/>
<path d="M130.021,141.268c0.804,0,1.379,0.46,1.379,1.15c0,0.713-0.138,1.035-0.942,1.356h-0.368c-0.827,0-1.219-0.369-1.219-1.103
	C128.871,142.074,129.215,141.268,130.021,141.268"/>
<path d="M133.95,141.268c0.806,0,1.379,0.46,1.379,1.15c0,0.713-0.136,1.035-0.942,1.356h-0.367c-0.828,0-1.218-0.369-1.218-1.103
	C132.802,142.074,133.146,141.268,133.95,141.268"/>
<path d="M137.881,141.268c0.804,0,1.379,0.46,1.379,1.15c0,0.713-0.137,1.035-0.942,1.356h-0.367c-0.828,0-1.22-0.369-1.22-1.103
	C136.73,142.074,137.074,141.268,137.881,141.268"/>
<polyline fill="none" points="15.66,144.306 139.259,144.306 139.259,123.866 15.66,123.866 "/>
<path fill="#FFFFFF" d="M15.053,126.333l5.402-0.414c0.115,0,0.688-0.069,0.76,0.136c0.044,0.712,0.229,1.38,0.229,2.07v0.321
	c-0.162,0.276-3.104,0.299-3.657,0.461v0.205c0,0.209,0.071,5.68,0.621,5.68l3.221-0.458c0.022,0,0.092-0.025,0.114-0.025
	l0.506,2.439l-3.863,0.483v0.299c0,1.172,0.093,2.438,0.208,3.563c0,0.23,0.046,0.553,0.321,0.553c0.392,0,3.035-0.46,3.701-0.482
	c0.23,0,0.276,0.23,0.299,0.414c0.093,0.458,0.276,1.424,0.276,1.977c0,0.044,0.045,0.229-0.068,0.254
	c-1.195,0.021-2.254,0.298-5.818,0.528c-0.022,0.022-0.529,0.069-0.552,0.069s-0.091,0.021-0.115,0.021
	c-0.413,0-0.413-0.896-0.436-1.101l-1.149-16.531"/>
<path fill="#FFFFFF" d="M24.683,124.471h3.034c0,0.757,0.093,1.47,0.093,2.23v0.23l-0.576,16.185
	c-0.067,0.231-0.896,0.231-1.838,0.231h-0.23c-0.345-0.047-0.252-1.15-0.298-1.404L24.683,124.471z"/>
<path fill="#FFFFFF" d="M43.714,143.231c-1.633,0.667-2.276,1.126-4.022,1.126c-2.047,0-3.587-1.585-3.587-3.587
	c-0.022-0.138-0.022-0.275-0.022-0.437c0-3.702,4.022-6.114,7.471-5.45l0.093-9.241c0.022-0.162,0.161-0.23,2.941-0.093
	c0.094,0.117,0.07,0.23,0.07,0.345c0,3.772-0.253,7.519-0.253,11.266c0,2.369,0.093,4.735,0.093,7.151v0.299
	c-0.161,0.254-1.679,0.3-2.07,0.3c-0.046,0-0.276-0.025-0.345-0.025c-0.207-0.067-0.207-0.46-0.207-0.573
	C43.875,144.014,44.082,143.301,43.714,143.231 M43.415,140.841v-0.552c-0.022-0.735-0.114-3.011-0.137-3.011
	c-0.208-0.023-0.437-0.023-0.62-0.023c-3.542,0-3.612,2.115-3.612,3.401v0.209C39.046,142.52,42.45,141.3,43.415,140.841"/>
<path fill="#FFFFFF" d="M48.055,141.509c0-2.209,1.08-4.069,3.356-4.875c0.896-0.324,2.438-0.414,3.035-0.414
	c0.276,0-0.184-2.852-1.678-2.852c-1.242,0-2.023,1.013-2.874,1.656c0,0-1.656-1.335-1.656-1.38c0-0.23,0.345-0.553,0.482-0.759
	c1.495-1.518,2.898-2.024,4.761-2.024c3.08,0,3.84,2.553,3.932,4.991v0.206c0.115,2.392,0.115,4.852,0,7.242
	c-0.069,0.23-0.438,0.665-1.909,0.828h-0.092c-0.851,0-0.185-0.942-0.689-1.174c-0.345,0.254-0.46,0.53-0.874,0.76
	c-0.873,0.574-2.046,0.644-3.126,0.644c-1.726,0-2.6-1.31-2.668-2.69V141.509z M54.516,141.001v-0.574
	c0-0.781-0.022-2.002-0.414-2.002c-3.519,0-3.356,2.531-3.333,3.015C50.906,142.472,54.516,141.37,54.516,141.001"/>
<path fill="#FFFFFF" d="M66.513,143.231c-1.634,0.667-2.276,1.126-4.022,1.126c-2.048,0-3.587-1.585-3.587-3.587
	c-0.024-0.138-0.024-0.275-0.024-0.437c0-3.702,4.023-6.114,7.473-5.45l0.093-9.241c0.022-0.162,0.16-0.23,2.941-0.093
	c0.093,0.117,0.07,0.23,0.07,0.345c0,3.772-0.252,7.519-0.252,11.266c0,2.369,0.091,4.735,0.091,7.151v0.299
	c-0.16,0.254-1.68,0.3-2.069,0.3c-0.046,0-0.276-0.025-0.345-0.025c-0.208-0.067-0.208-0.46-0.208-0.573
	C66.673,144.014,66.881,143.301,66.513,143.231 M66.214,140.841v-0.552c-0.023-0.735-0.114-3.011-0.139-3.011
	c-0.206-0.023-0.436-0.023-0.62-0.023c-3.54,0-3.61,2.115-3.61,3.401v0.209C61.845,142.52,65.249,141.3,66.214,140.841"/>
<path fill="#FFFFFF" d="M78.809,131.806c2.392,1.494,3.288,4,3.288,6.415c0,2.207-1.403,4.389-3.793,5.333
	c-1.242,0.483-2.853,0.369-4.162-0.069c-2.621-1.036-3.541-3.863-3.541-6.071C70.601,133.597,74.371,129.758,78.809,131.806
	 M74.371,139.646c0.368,0.895,1.173,1.47,2.253,1.47c1.909,0,2.507-1.815,2.507-3.147c0-4.808-5.358-5.749-5.358-0.623
	C73.772,138.126,74.05,138.91,74.371,139.646"/>
<path fill="#FFFFFF" d="M97.998,143.231c-1.633,0.667-2.276,1.126-4.023,1.126c-2.046,0-3.587-1.585-3.587-3.587
	c-0.022-0.138-0.022-0.275-0.022-0.437c0-3.702,4.023-6.114,7.472-5.45l0.093-9.241c0.022-0.162,0.161-0.23,2.941-0.093
	c0.094,0.117,0.07,0.23,0.07,0.345c0,3.772-0.253,7.519-0.253,11.266c0,2.369,0.093,4.735,0.093,7.151v0.299
	c-0.161,0.254-1.68,0.3-2.07,0.3c-0.047,0-0.276-0.025-0.346-0.025c-0.206-0.067-0.206-0.46-0.206-0.573
	C98.159,144.014,98.365,143.301,97.998,143.231 M97.699,140.841v-0.552c-0.022-0.735-0.115-3.011-0.138-3.011
	c-0.207-0.023-0.437-0.023-0.62-0.023c-3.542,0-3.611,2.115-3.611,3.401v0.209C93.33,142.52,96.734,141.3,97.699,140.841"/>
<path fill="#FFFFFF" d="M102.34,142.611c0,0,0.412-10.553,0.85-10.553c0.092,0,0.138,0.024,2.368,0.069
	c0.207,0,0.229,0.207,0.229,0.321c0,0.048-0.022,0.208-0.022,0.231c-0.023,0.688-0.207,3.723-0.85,10.782
	c-0.025,0.299-0.07,0.393-0.347,0.438c-0.713-0.045-1.402,0.139-2.138-0.07c-0.022,0-0.068-0.045-0.068-0.068
	C102.34,143.577,102.34,142.772,102.34,142.611 M102.913,127.506c0-2.392,2.898-3.449,3.541-0.922c0,0,0.023,0.278,0.023,0.368
	c0,1.037-0.482,2.277-1.655,2.277c-0.69,0-1.633-0.32-1.885-1.056C102.938,128.058,102.913,127.596,102.913,127.506"/>
<path fill="#FFFFFF" d="M111.925,143.509c-4.3,0-5.335-3.796-5.335-6.025v-0.206c0.115-3.496,2.323-6.667,6.737-6.667
	c0.806,0,1.979,0.529,1.979,1.356c0,0.32-0.645,1.93-0.989,1.93c-0.462,0-0.806-0.276-1.312-0.276c-1.747,0-2.758,1.195-3.357,2.531
	c-0.39,0.85-0.274,2.665,0.276,3.515c0.416,0.738,1.427,1.151,2.323,1.174h0.206c0.645,0,1.517-0.092,2.07-0.39
	c0.185-0.093,0.941-0.713,1.172-0.713c0.367,0,1.012,1.47,1.012,1.953c0,1.105-3.242,1.793-4.116,1.793
	C112.36,143.509,112.132,143.509,111.925,143.509"/>
<path fill="#FFFFFF" d="M117.463,139.37c-0.438-3.103,0.688-7.127,4.712-7.704c3.909-0.55,4.759,0.807,5.221,4.117l0.138,0.919
	l-6.76,1.542c-0.022,0-0.161,0.137-0.184,0.208c-0.047,0.138-0.138,0.527,0.114,2.504c0.138,0.942,1.08,1.289,1.977,1.174
	c1.103-0.161,2.346-1.494,3.265-1.494c0.392,0,1.242,0.943,1.289,1.287v0.115c-1.564,2.117-3.195,2.46-5.727,2.322
	C118.634,144.222,117.784,141.578,117.463,139.37 M121.233,134.565c-0.299,0.273-0.759,1.103-0.759,1.585v0.093l0.206-0.046
	c0.023,0,0.07-0.024,0.093-0.024c0.62-0.089,1.264-0.16,3.954-0.757c0,0,0-0.024-0.022-0.092c-0.046-0.275-0.23-1.013-0.23-1.034
	c-0.207-0.691-0.691-0.666-1.332-0.576C122.497,133.806,121.67,134.083,121.233,134.565"/>
<path fill="#FFFFFF" d="M129.414,141.876c0.804,0,1.379,0.458,1.379,1.148c0,0.714-0.139,1.035-0.942,1.356h-0.368
	c-0.827,0-1.22-0.369-1.22-1.103C128.263,142.681,128.607,141.876,129.414,141.876"/>
<path fill="#FFFFFF" d="M133.343,141.876c0.806,0,1.379,0.458,1.379,1.148c0,0.714-0.136,1.035-0.942,1.356h-0.367
	c-0.828,0-1.218-0.369-1.218-1.103C132.194,142.681,132.538,141.876,133.343,141.876"/>
<path fill="#FFFFFF" d="M137.273,141.876c0.804,0,1.379,0.458,1.379,1.148c0,0.714-0.139,1.035-0.942,1.356h-0.367
	c-0.828,0-1.221-0.369-1.221-1.103C136.122,142.681,136.467,141.876,137.273,141.876"/>
</svg>
