<?xml version="1.0" encoding="utf-8"?>
<!-- Generator: Adobe Illustrator 16.0.0, SVG Export Plug-In . SVG Version: 6.00 Build 0)  -->
<!DOCTYPE svg PUBLIC "-//W3C//DTD SVG 1.1//EN" "http://www.w3.org/Graphics/SVG/1.1/DTD/svg11.dtd">
<svg version="1.1" id="Capa_1" xmlns="http://www.w3.org/2000/svg" xmlns:xlink="http://www.w3.org/1999/xlink" x="0px" y="0px"
	 width="306.914px" height="192.5px" viewBox="0 0 306.914 192.5" enable-background="new 0 0 306.914 192.5" xml:space="preserve">
<g opacity="0.75">
	<g>
		<defs>
			
				<rect id="SVGID_213_" x="91.923" y="28.986" transform="matrix(0.7071 -0.7071 0.7071 0.7071 -22.7425 140.2456)" width="131.996" height="137.179"/>
		</defs>
		<clipPath id="SVGID_2_">
			<use xlink:href="#SVGID_213_"  overflow="visible"/>
		</clipPath>
		<path clip-path="url(#SVGID_2_)" d="M87.438,84.101c-0.118-0.409-0.529-0.351-0.881-0.351c-1.293,0-2.527,0.353-3.88,0.351
			c-0.232-0.001-0.588-0.175-0.588-0.527l0.001-7.17l19.159,0.001v7.99h-6.639l-0.178,0.293v3.702
			c0.53,10.697,1.293,21.511,1.292,32.266c-0.002,0.586-0.118,1.06-0.707,1.234h-5.758c-0.415,0-0.59-0.118-0.704-0.528
			C88.497,108.903,87.732,96.501,87.438,84.101"/>
		<path clip-path="url(#SVGID_2_)" d="M118.994,90.746c6.111,3.819,8.403,10.223,8.403,16.395
			c0.001,5.643-3.582,11.224-9.695,13.635c-3.174,1.233-7.288,0.938-10.637-0.179c-6.705-2.643-9.052-9.871-9.052-15.512
			C98.014,95.328,107.65,85.513,118.994,90.746 M107.652,110.783c0.938,2.293,2.996,3.761,5.759,3.76
			c4.88,0,6.407-4.642,6.407-8.051c-0.002-12.282-13.695-14.69-13.694-1.585C106.123,106.906,106.828,108.903,107.652,110.783"/>
		<path clip-path="url(#SVGID_2_)" d="M130.037,99.383c0-7.111,4.35-8.52,7.523-8.521l0.412-0.002
			c3.229,0.118,6.757,5.936,7.874,9.933l0.176-0.176l0.471-0.939c2.115-4.585,4.76-10.404,10.461-10.404
			c7.461,0.002,8.227,5.29,9.049,11.169c0.646,12.752,0.175,14.043,0.177,19.805c0,0.353,0,0.76-0.587,0.763h-4.878
			c-0.118-0.001-0.471-0.236-0.471-0.353l-0.882-14.34c-0.175-2.761,0.529-7.462-3.523-7.465c-3.939,0-5.471,9.58-5.877,10.167
			l-8.173,1.353c-0.703-2.232-0.999-9.402-3.936-9.399c-0.648-0.002-0.939,0.643-1.117,2.993c0,5.937,0.997,11.989,0.997,17.572
			v1.06c-0.113,0.471-0.349,0.705-0.761,0.761c-1.765,0.061-3.823,0.413-5.701,0.413c-0.058,0-0.47,0.058-0.53-0.235L130.037,99.383
			z"/>
		<path clip-path="url(#SVGID_2_)" d="M169.698,115.542c0-5.639,2.764-10.399,8.58-12.457c2.293-0.823,6.229-1.057,7.758-1.057
			c0.705-0.002-0.473-7.288-4.291-7.288c-3.171,0-5.171,2.586-7.345,4.231c0,0-4.229-3.409-4.231-3.527
			c0.002-0.588,0.883-1.41,1.233-1.937c3.821-3.881,7.404-5.174,12.167-5.174c7.875,0,9.813,6.525,10.048,12.754l-0.002,0.526
			c0.298,6.112,0.296,12.399,0.002,18.513c-0.175,0.588-1.115,1.705-4.876,2.113l-0.235,0.003c-2.175,0.001-0.47-2.411-1.763-2.996
			c-0.883,0.646-1.176,1.35-2.235,1.938c-2.231,1.469-5.229,1.647-7.991,1.646c-4.406,0-6.642-3.349-6.816-6.876L169.698,115.542z
			 M186.213,114.252v-1.471c0-1.998-0.062-5.11-1.058-5.112c-8.991-0.001-8.582,6.467-8.521,7.698
			C176.986,118.013,186.213,115.189,186.213,114.252"/>
		<path clip-path="url(#SVGID_2_)" d="M217.292,113.311c1.821,0,3.643,0.471,5.581,0.469c4.76,0.002,11.696-1.88,11.696-7.875
			c-0.002-6.405-5.819-7.992-10.99-7.992c-1.059,0-1.059-4.174-1.703-4.934V92.74c0.001-0.879,6.933-2.291,6.934-5.23
			c0.002-2.586-2.82-3.584-4.938-3.585c-1.998,0-3.585,0.528-5.406,1.354c-1.354-1.353-2.115-3.469-2.938-5.29
			c6.465-5.115,21.215-3.41,21.218,6.698l-0.003,0.236c-0.061,3.056-2.703,4.996-4.996,6.525c5.994,2,9.285,6.462,9.287,12.576
			c0,0.47-0.002,0.88-0.06,1.352c-0.883,10.341-13.165,14.162-22.214,14.163h-0.822c-0.942-0.001-2.94,0-2.938-0.883
			C214.998,119.833,216.878,114.016,217.292,113.311"/>
	</g>
</g>
<path fill="#FFFFFF" d="M88.729,84.102c-0.118-0.412-0.528-0.352-0.881-0.352c-1.293,0-2.526,0.352-3.879,0.352
	c-0.234-0.002-0.589-0.176-0.589-0.53l0.002-7.168h19.158v7.992h-6.638l-0.18,0.293v3.702c0.53,10.696,1.293,21.511,1.293,32.265
	c0,0.587-0.118,1.059-0.706,1.235l-5.759,0c-0.412,0-0.588-0.118-0.703-0.529C89.788,108.903,89.023,96.503,88.729,84.102"/>
<path fill="#FFFFFF" d="M120.285,90.744c6.111,3.819,8.405,10.225,8.405,16.396c-0.002,5.643-3.585,11.224-9.698,13.635
	c-3.173,1.233-7.286,0.938-10.637-0.179c-6.701-2.643-9.05-9.87-9.05-15.512C99.306,95.328,108.943,85.513,120.285,90.744
	 M108.942,110.783c0.94,2.292,2.998,3.76,5.76,3.759c4.879,0.002,6.407-4.64,6.406-8.05c0-12.281-13.693-14.69-13.692-1.585
	C107.415,106.905,108.119,108.903,108.942,110.783"/>
<path fill="#FFFFFF" d="M131.328,99.381c0-7.11,4.35-8.52,7.522-8.521h0.414c3.229,0.118,6.756,5.937,7.873,9.932l0.176-0.176
	l0.469-0.939c2.116-4.585,4.762-10.402,10.465-10.405c7.461,0.003,8.225,5.291,9.048,11.169c0.646,12.752,0.177,14.044,0.177,19.806
	c0,0.351,0,0.76-0.588,0.763l-4.877-0.001c-0.118,0-0.473-0.233-0.471-0.353l-0.883-14.338c-0.175-2.762,0.531-7.463-3.523-7.466
	c-3.939,0-5.468,9.581-5.879,10.167l-8.169,1.353c-0.704-2.231-1-9.402-3.938-9.401c-0.646,0-0.938,0.646-1.117,2.997
	c0,5.935,0.999,11.988,0.999,17.569v1.061c-0.113,0.47-0.35,0.703-0.762,0.761c-1.763,0.06-3.821,0.414-5.7,0.413
	c-0.059,0-0.471,0.06-0.53-0.235L131.328,99.381z"/>
<path fill="#FFFFFF" d="M170.991,115.543c0-5.642,2.763-10.403,8.578-12.459c2.294-0.824,6.229-1.059,7.76-1.059
	c0.705,0-0.473-7.286-4.293-7.286c-3.172,0-5.17,2.586-7.344,4.232c0,0-4.23-3.411-4.23-3.528c0-0.587,0.881-1.411,1.232-1.937
	c3.822-3.88,7.404-5.173,12.167-5.173c7.876,0,9.813,6.525,10.048,12.753v0.528c0.295,6.111,0.294,12.401,0,18.514
	c-0.176,0.585-1.117,1.704-4.877,2.113l-0.234,0.001c-2.176,0-0.471-2.41-1.764-2.995c-0.881,0.646-1.177,1.349-2.236,1.937
	c-2.23,1.471-5.229,1.648-7.99,1.647c-4.406,0-6.642-3.349-6.817-6.876L170.991,115.543z M187.504,114.25v-1.468
	c0-1.998-0.062-5.114-1.056-5.114c-8.993,0-8.584,6.465-8.522,7.699C178.278,118.011,187.504,115.189,187.504,114.25"/>
<path fill="#FFFFFF" d="M218.582,113.311c1.823-0.001,3.645,0.469,5.583,0.471c4.76,0,11.693-1.882,11.693-7.878
	c0-6.404-5.816-7.99-10.989-7.991c-1.056,0-1.057-4.172-1.702-4.935V92.74c0-0.881,6.935-2.291,6.935-5.23
	c0-2.586-2.822-3.584-4.937-3.585c-1.998,0-3.587,0.529-5.408,1.353c-1.352-1.352-2.114-3.469-2.938-5.289
	c6.469-5.114,21.218-3.41,21.218,6.7v0.234c-0.061,3.056-2.706,4.996-4.998,6.524c5.995,2,9.286,6.463,9.286,12.577
	c0.001,0.468,0,0.882-0.059,1.352c-0.882,10.343-13.165,14.163-22.215,14.163l-0.822,0.001c-0.94-0.002-2.938-0.002-2.938-0.884
	C216.29,119.833,218.17,114.014,218.582,113.311"/>
</svg>
