<?xml version="1.0" encoding="utf-8"?>
<!-- Generator: Adobe Illustrator 16.0.0, SVG Export Plug-In . SVG Version: 6.00 Build 0)  -->
<!DOCTYPE svg PUBLIC "-//W3C//DTD SVG 1.1//EN" "http://www.w3.org/Graphics/SVG/1.1/DTD/svg11.dtd">
<svg version="1.1" id="Capa_1" xmlns="http://www.w3.org/2000/svg" xmlns:xlink="http://www.w3.org/1999/xlink" x="0px" y="0px"
	 width="306.914px" height="192.5px" viewBox="0 0 306.914 192.5" enable-background="new 0 0 306.914 192.5" xml:space="preserve">
<path fill="none" d="M72.97,96.833"/>
<path fill="none" d="M46.258,45.835"/>
<line fill="none" x1="-37.189" y1="90.006" x2="46.258" y2="90.006"/>
<path fill="#FFFFFF" d="M47.259,75.25"/>
<path fill="#364D18" d="M68.637,47.611l7.882,32.312c0,0,21.414-4.862,25.588,16.938c4.174,21.801,8.056,44.365,8.056,44.365
	s-8.666,10.345-28.619,13.952c-18.798,3.401-20.781,0.281-20.781,0.281s-19.69-36.515-18.192-52.117
	c1.498-15.604,7.748-17.648,13.563-21.825l-5.138-25.623c0,0-9.303-5.762,5.74-11.011C64.31,42.387,67.196,41.883,68.637,47.611"/>
<path fill="#5F7F34" d="M72.254,74.707c0,0,0.865,7.11,4.986,7.801c4.12,0.693,18.42,0.235,20.454,8.434
	c2.033,8.198,8.976,50.337,8.976,50.337s-14.808,9.777-23.758,10.801c-8.949,1.024-18.242,0.115-18.242,0.115
	s-8.231-2.955-17.987-42.451C41.737,93.215,60.115,82.66,61.927,79.199c1.809-3.462-1.853-11.179-1.853-11.179l11.457,1.048
	L72.254,74.707z"/>
<path fill="#CED443" d="M54.703,91.094c0,0,8.584,8.125,23.384-6.5c1.235-1.076-3.416,0.04-4.306-4.938
	c-0.888-4.979-6.289-28.53-7.481-32.343c-1.188-3.811-11.451,0.854-14.119,1.901c-2.668,1.045-0.807,5.613,0.072,5.741
	c0.881,0.13,7.5,29.245,7.5,29.245S55.624,86.648,54.703,91.094"/>
<path fill="#EAF0CC" d="M56.576,110.403c0,0,29.273-3.082,34.597-8.454c5.317-5.372,8.022,27.394,8.022,27.394
	s-30.325,9.975-32.926,9.011C63.675,137.388,54.126,122.256,56.576,110.403"/>
<path fill="#D5D848" d="M59.055,111.569c0,0,25.82-2.716,30.513-7.453c4.69-4.738,7.078,24.158,7.078,24.158
	s-26.75,8.798-29.039,7.947C65.317,135.372,56.894,122.022,59.055,111.569"/>
<path fill="#EAF0CC" d="M86.223,89.15c0,0,7.166-1.437,9.865,8.356c2.696,9.792-0.487,0.468-2.664-2.665
	C91.246,91.71,88.354,89.878,86.223,89.15"/>
<path fill="#EAF0CC" d="M56.529,94.446c0,0-7.219,1.129-6.362,11.251c0.853,10.12,0.42-0.837,1.381-4.527
	C52.507,97.479,54.788,95.866,56.529,94.446"/>
<path fill="#364D18" d="M54.418,50.287c0,0,6.813-3.212,8.455-2.506C64.513,48.487,55.14,56.724,54.418,50.287"/>
<path fill-rule="evenodd" clip-rule="evenodd" fill="#C64B3A" d="M71.237,42.811c10.719,5.785,21.006,11.885,33.678,16.249
	c0.875-13.224-0.864-24.545-1.713-36.514c-6.377,0.339-9.024,5.81-14.89,6.854C73.15,2.335,29.487,15.591,28.756,45.883
	c4.155-23.988,38.422-30.185,54.919-12.613C79.409,36.284,74.717,38.715,71.237,42.811"/>
<path fill="#3F1100" d="M70.824,43.516c11.06,5.991,21.978,12.126,33.873,16.331c0.527,0.187,1.004-0.292,1.033-0.787
	c0.703-12.244-0.804-24.326-1.713-36.514c-0.029-0.402-0.349-0.87-0.816-0.816c-4.684,0.549-7.731,3.336-11.668,5.652
	c-3.207,1.888-3.379-0.146-5.122-2.319c-1.556-1.938-3.255-3.64-5.205-5.178c-6.242-4.921-14.416-6.516-22.185-5.747
	c-16.563,1.638-30.375,14.95-31.082,31.745c-0.037,0.912,1.426,1.125,1.604,0.217c4.758-24.369,37.846-28.354,53.554-12.253
	c0.055-0.428,0.11-0.854,0.165-1.282c-4.409,3.035-8.961,5.684-12.602,9.669c-0.71,0.775,0.442,1.933,1.153,1.154
	c3.537-3.873,7.991-6.466,12.272-9.413c0.433-0.299,0.553-0.885,0.166-1.282C67.727,15.754,32.96,20.101,27.97,45.667
	c0.535,0.072,1.068,0.145,1.603,0.217C30.79,16.93,72.326,3.648,87.607,29.812c0.19,0.323,0.565,0.462,0.922,0.375
	c3.056-0.741,5.406-2.339,7.955-4.127c0.677-0.474,5.89-3.682,6.027-1.808c0.171,2.258,0.381,4.513,0.585,6.768
	c0.847,9.35,1.541,18.649,1.001,28.04c0.344-0.263,0.69-0.524,1.034-0.787c-11.769-4.159-22.547-10.241-33.483-16.167
	C70.723,41.605,69.898,43.014,70.824,43.516"/>
<path fill-rule="evenodd" clip-rule="evenodd" fill="#A44031" d="M80.574,35.355c-3.334,2.181-6.685,4.336-9.338,7.456
	c0.457,0.246,0.914,0.495,1.369,0.742c2.963-2.511,6.36-4.427,9.524-6.661C81.628,36.357,81.107,35.845,80.574,35.355"/>
<path fill-rule="evenodd" clip-rule="evenodd" fill="#A44031" d="M28.883,43.817c-0.062,0.68-0.108,1.367-0.127,2.065
	c0.236-1.354,0.57-2.647,0.988-3.888C29.435,42.585,29.149,43.193,28.883,43.817"/>
<path fill-rule="evenodd" clip-rule="evenodd" fill="#A44031" d="M88.313,29.4C74.799,5.276,38.641,13.187,30.426,36.642
	c10.465-20.588,43.547-26.456,56.34-3.62c5.865-1.044,8.513-6.515,14.89-6.854c0.761,10.709,2.228,20.906,1.901,32.406
	c0.451,0.162,0.899,0.327,1.358,0.484c0.875-13.222-0.864-24.545-1.713-36.513C96.825,22.885,94.178,28.356,88.313,29.4"/>
<path fill-rule="evenodd" clip-rule="evenodd" fill="#C64B3A" d="M44.479,147.266c-7.899-9.271-15.28-18.68-25.516-27.333
	c-5.601,12.01-8.078,23.193-11.615,34.658c6.069,1.993,10.515-2.15,16.36-1.001c4.339,30.718,49.841,34.159,61.484,6.184
	c-12.554,20.859-46.74,14.236-55.761-8.113C34.501,150.396,39.752,149.825,44.479,147.266"/>
<path fill="#3F1100" d="M45.055,146.689c-8.096-9.534-16-19.149-25.516-27.333c-0.361-0.312-1.048-0.347-1.281,0.165
	c-5.108,11.227-8.114,23.094-11.696,34.854c-0.129,0.42,0.146,0.896,0.569,1.004c2.024,0.514,3.983,0.765,6.072,0.371
	c1.483-0.28,9.563-2.911,9.891-0.844c0.658,4.133,2.369,8.05,4.69,11.507c4.253,6.341,11.195,10.339,18.462,12.203
	c15.76,4.044,33.067-3.349,39.651-18.43c0.412-0.945-0.836-1.734-1.41-0.824c-13.293,21.045-45.56,12.506-54.351-8.113
	c-0.163,0.399-0.325,0.8-0.487,1.199c5.211-1.229,10.397-2.098,15.242-4.477c0.942-0.465,0.116-1.872-0.824-1.41
	c-4.722,2.319-9.783,3.118-14.853,4.313c-0.563,0.133-0.685,0.738-0.487,1.199c9.315,21.847,43.289,30.086,57.17,8.113
	c-0.472-0.274-0.942-0.55-1.41-0.824c-11.635,26.657-55.211,24.085-59.992-5.988c-0.063-0.385-0.454-0.557-0.788-0.6
	c-2.931-0.375-5.476,0.14-8.313,0.847c-1.701,0.424-3.382,0.674-5.134,0.692c-3.069,0.034-0.459-5.104-0.098-6.358
	c2.715-9.388,5.448-18.693,9.506-27.609c-0.427,0.055-0.854,0.11-1.283,0.165c9.517,8.184,17.42,17.799,25.517,27.333
	C44.584,148.647,45.733,147.486,45.055,146.689"/>
<path fill-rule="evenodd" clip-rule="evenodd" fill="#A44031" d="M33.076,150.838c3.896-0.827,7.804-1.623,11.402-3.572
	c-0.338-0.396-0.671-0.79-1.007-1.187c-3.67,1.269-7.53,1.826-11.288,2.765C32.458,149.523,32.757,150.189,33.076,150.838"/>
<path fill-rule="evenodd" clip-rule="evenodd" fill="#A44031" d="M84.326,161.656c0.306-0.612,0.599-1.235,0.865-1.881
	c-0.707,1.177-1.487,2.262-2.326,3.267C83.367,162.603,83.854,162.141,84.326,161.656"/>
<path fill-rule="evenodd" clip-rule="evenodd" fill="#A44031" d="M23.708,153.59c3.868,27.379,40.438,33.088,56.586,14.195
	c-17.207,15.405-50.173,8.905-53.834-17.013c-5.847-1.148-10.291,2.994-16.36,1.003c3.166-10.26,5.489-20.297,9.954-30.899
	c-0.362-0.315-0.719-0.63-1.09-0.943c-5.603,12.012-8.078,23.193-11.615,34.658C13.417,156.584,17.861,152.441,23.708,153.59"/>
<path d="M121.229,62.628c0.041-0.332-0.103-1.01,0.178-1.228l3.153-0.764c4.164-0.86,9.176,0.002,12.857,2.062
	c0.064,0.042,0.316,0.208,0.328,0.258c3.576,1.814,6.382,8.56,7.2,12.516c2.078,10.048,2.846,22.157-9.32,25.539l-6.899,1.536
	l-0.138-0.134L121.229,62.628z M134.379,95.245l0.211-0.044c6.741-2.048,5.922-9.15,4.812-14.51l-0.298-1.458
	c-1.316-6.35-2.964-11.167-8.634-13.903c-0.364-0.194-0.897-0.412-1.366-0.314l-0.312,0.064c0.26,3.098,3.79,23.045,5.147,29.875
	C134.004,95.267,134.119,95.297,134.379,95.245"/>
<path d="M151.135,88.631c-2.443-6.823-1.777-16.459,7.063-19.645c8.59-3.078,11.151-0.406,13.744,6.871l0.741,2.021l-14.581,6.653
	c-0.05,0.01-0.298,0.384-0.317,0.552c-0.041,0.334-0.064,1.262,1.432,5.62c0.754,2.068,3.05,2.408,5.025,1.73
	c2.424-0.882,4.609-4.48,6.693-4.912c0.885-0.182,3.252,1.554,3.517,2.312l0.054,0.26c-2.55,5.52-6.084,7.066-11.873,7.938
	C156.061,99.064,152.896,93.477,151.135,88.631 M157.421,75.985c-0.548,0.765-1.2,2.856-0.975,3.948l0.042,0.208l0.446-0.202
	c0.052-0.01,0.147-0.084,0.2-0.094c1.361-0.5,2.785-0.958,8.598-3.568c0,0-0.012-0.056-0.096-0.2
	c-0.234-0.604-0.996-2.184-1.004-2.234c-0.793-1.468-1.875-1.186-3.29-0.678C159.929,73.676,158.185,74.689,157.421,75.985"/>
<path d="M138.483,149.461c-0.519-2.498-6.088-25.229-3.64-26.007c0.31-0.064,2.996-0.73,4.857-1.17l1.048,4.018
	c2.342-3.904,5.462-6.394,10.565-7.448c0.385,0.3,0.555,0.59,2.002,5.228c-6.295,1.576-11.319,6.686-10.371,12.841l2.012,12.61
	l-0.072,0.178c-0.042,0.06-1.527,0.476-5.102,1.054C139.167,150.677,138.604,150.035,138.483,149.461"/>
<path d="M155.333,137.507c-2.444-6.822-1.778-16.458,7.062-19.643c8.59-3.078,11.151-0.408,13.743,6.872l0.742,2.018l-14.581,6.653
	c-0.051,0.012-0.299,0.386-0.318,0.552c-0.042,0.336-0.064,1.262,1.432,5.62c0.754,2.07,3.05,2.408,5.026,1.73
	c2.426-0.88,4.609-4.48,6.693-4.91c0.884-0.184,3.252,1.552,3.516,2.31l0.054,0.26c-2.547,5.52-6.083,7.068-11.873,7.94
	C160.257,147.943,157.093,142.355,155.333,137.507 M161.616,124.862c-0.548,0.764-1.2,2.856-0.974,3.948l0.042,0.208l0.448-0.2
	c0.05-0.012,0.146-0.084,0.197-0.096c1.36-0.498,2.786-0.956,8.6-3.568c0,0-0.014-0.056-0.098-0.198
	c-0.234-0.606-0.994-2.186-1.004-2.236c-0.792-1.466-1.876-1.184-3.29-0.676C164.126,122.552,162.381,123.564,161.616,124.862"/>
<path d="M175.922,114.794l7.636-1.147c0.05-0.008,0.188,0.397,0.231,0.604c0.435,1.324,6.232,17.277,6.232,17.277
	c0.052-0.01,0.552-4.945,0.662-5.458c0.59-3.978-0.028-7.753,0.611-11.742c1.342-0.334,2.76-0.57,4.07-0.788
	c0.781-0.162,1.16-0.184,2.189-0.182c0.437,0.018,0.368,0.466,0.381,0.792c-0.326,9.184-2.183,18.307-3.429,27.251
	c-2.012,0.25-3.708,0.712-5.708,1.014c-0.312,0.068-0.497,0.214-0.718-0.066c-0.262-0.488-0.298-0.916-0.562-1.404
	C176.906,117.196,176.072,115.521,175.922,114.794"/>
<path d="M201.545,127.95c-2.446-6.824-1.778-16.459,7.062-19.645c8.592-3.078,11.151-0.406,13.743,6.872l0.744,2.02l-14.581,6.651
	c-0.05,0.012-0.3,0.386-0.322,0.552c-0.038,0.336-0.062,1.264,1.435,5.622c0.754,2.068,3.05,2.408,5.025,1.73
	c2.426-0.882,4.611-4.482,6.693-4.912c0.885-0.182,3.252,1.552,3.516,2.312l0.055,0.26c-2.546,5.52-6.084,7.066-11.873,7.938
	C206.469,138.383,203.307,132.795,201.545,127.95 M207.83,115.304c-0.547,0.764-1.201,2.854-0.976,3.946l0.044,0.208l0.448-0.2
	c0.05-0.01,0.144-0.084,0.196-0.096c1.361-0.498,2.787-0.956,8.6-3.568c0,0-0.012-0.056-0.096-0.198
	c-0.236-0.604-0.996-2.185-1.007-2.234c-0.792-1.468-1.874-1.186-3.29-0.678C210.341,112.994,208.593,114.004,207.83,115.304"/>
<path d="M228.202,130.901c-0.517-2.498-6.086-25.229-3.642-26.005c0.313-0.066,2.999-0.73,4.861-1.17l1.046,4.016
	c2.342-3.901,5.464-6.394,10.565-7.445c0.387,0.298,0.557,0.59,2.004,5.226c-6.296,1.578-11.319,6.686-10.371,12.842l2.012,12.609
	l-0.072,0.178c-0.042,0.063-1.527,0.479-5.102,1.056C228.888,132.117,228.322,131.476,228.202,130.901"/>
<path d="M251.601,119.386c0.21-0.044,0.313-0.063,0.555,0.046c2.323,1.8,2.691,3.84,6.18,3.12c2.029-0.42,3.745-2.62,3.304-4.754
	c-0.807-3.905-3.432-4.012-6.924-3.833c-3.056,0.2-8.656-1.686-9.334-4.962c-1.195-5.78,2.954-10.652,8.418-11.784
	c2.5-0.516,5.342-0.942,7.492,0.784l0.062,0.042c0.388,0.3,0.598,0.528,0.685,0.946c0.014,0.05,0.004,0.27,0.004,0.27
	c-0.318,1.098-1.5,5.086-2.23,5.236l-0.364,0.078l-0.407-0.134c-1.452-0.462-3.719-1.184-5.229-0.874
	c-1.144,0.24-1.92,1.212-1.674,2.412c0.85,4.11,13.408-1.58,15.55,8.775c1.282,6.196-1.536,11.99-8.356,13.397
	c-4.06,0.84-8.251,0.788-10.569-3.075c-0.243-0.384-0.821-1.353-1.016-2.288C247.745,122.788,250.975,119.514,251.601,119.386"/>
<path d="M270.096,118.818c-1.033-4.998,0.541-9.72,5.316-12.61c1.88-1.15,5.324-2.078,6.678-2.358
	c0.624-0.128-1.75-6.368-5.136-5.668c-2.81,0.582-4.106,3.238-5.731,5.094c0,0-4.372-2.244-4.395-2.348
	c-0.107-0.52,0.524-1.414,0.738-1.944c2.674-4.134,5.613-5.936,9.828-6.812c6.975-1.439,9.887,3.982,11.237,9.458l0.098,0.468
	c1.378,5.36,2.534,10.93,3.392,16.397c-0.05,0.55-0.678,1.714-3.934,2.766l-0.208,0.044c-1.924,0.396-0.86-2.05-2.11-2.333
	c-0.659,0.738-0.793,1.414-1.623,2.125c-1.711,1.712-4.328,2.42-6.778,2.926c-3.903,0.806-6.495-1.75-7.298-4.842L270.096,118.818z
	 M284.485,114.646l-0.268-1.3c-0.366-1.772-0.99-4.52-1.876-4.337c-7.964,1.647-6.416,7.299-6.138,8.381
	C277.002,119.666,284.658,115.479,284.485,114.646"/>
<line fill="none" x1="292.119" y1="150.765" x2="292.119" y2="60.307"/>
<polyline fill="none" points="292.119,60.307 121.227,60.307 121.227,150.765 "/>
<path fill="#FFFFFF" d="M123.275,64.678c0.043-0.334-0.102-1.012,0.179-1.23l3.153-0.764c4.164-0.86,9.176,0.002,12.857,2.063
	c0.064,0.04,0.318,0.206,0.328,0.258c3.576,1.813,6.384,8.558,7.2,12.514c2.08,10.048,2.848,22.157-9.319,25.541l-6.9,1.536
	l-0.136-0.136L123.275,64.678z M136.43,97.293l0.208-0.042c6.741-2.048,5.921-9.152,4.812-14.512l-0.298-1.458
	c-1.316-6.35-2.964-11.165-8.632-13.903c-0.366-0.194-0.9-0.41-1.366-0.312l-0.313,0.063c0.26,3.096,3.789,23.045,5.147,29.875
	C136.052,97.315,136.17,97.347,136.43,97.293"/>
<path fill="#FFFFFF" d="M153.185,90.679c-2.446-6.824-1.78-16.459,7.063-19.645c8.588-3.078,11.15-0.406,13.744,6.874l0.74,2.018
	l-14.582,6.653c-0.05,0.01-0.298,0.386-0.316,0.554c-0.041,0.334-0.065,1.26,1.431,5.62c0.754,2.068,3.05,2.408,5.025,1.73
	c2.426-0.884,4.61-4.482,6.694-4.914c0.884-0.182,3.252,1.554,3.516,2.312l0.056,0.26c-2.55,5.52-6.086,7.066-11.875,7.938
	C158.108,101.113,154.944,95.525,153.185,90.679 M159.469,78.034c-0.549,0.764-1.2,2.856-0.975,3.948l0.043,0.21l0.447-0.204
	c0.05-0.01,0.146-0.084,0.198-0.094c1.362-0.5,2.788-0.958,8.6-3.568c0,0-0.012-0.054-0.096-0.2
	c-0.236-0.604-0.998-2.183-1.007-2.234c-0.789-1.466-1.873-1.186-3.289-0.678C161.979,75.724,160.232,76.738,159.469,78.034"/>
<path fill="#FFFFFF" d="M140.533,151.509c-0.52-2.498-6.09-25.229-3.642-26.007c0.31-0.063,2.995-0.728,4.859-1.168l1.046,4.018
	c2.344-3.906,5.462-6.394,10.566-7.45c0.384,0.3,0.554,0.59,2.002,5.23c-6.295,1.574-11.318,6.684-10.37,12.839l2.01,12.61
	l-0.069,0.178c-0.045,0.062-1.528,0.478-5.103,1.054C141.217,152.725,140.651,152.083,140.533,151.509"/>
<path fill="#FFFFFF" d="M157.381,139.555c-2.444-6.822-1.778-16.458,7.063-19.643c8.588-3.078,11.149-0.408,13.743,6.874l0.74,2.016
	l-14.579,6.653c-0.052,0.013-0.3,0.389-0.318,0.554c-0.044,0.336-0.065,1.26,1.432,5.618c0.753,2.072,3.048,2.41,5.026,1.732
	c2.424-0.882,4.607-4.482,6.691-4.912c0.884-0.184,3.252,1.552,3.516,2.31l0.057,0.26c-2.55,5.52-6.086,7.068-11.874,7.94
	C162.307,149.991,159.141,144.403,157.381,139.555 M163.664,126.91c-0.548,0.764-1.199,2.856-0.974,3.948l0.044,0.21l0.446-0.202
	c0.05-0.012,0.147-0.084,0.198-0.096c1.359-0.498,2.787-0.956,8.6-3.568c0,0-0.013-0.054-0.097-0.198
	c-0.235-0.606-0.996-2.186-1.006-2.236c-0.79-1.464-1.876-1.184-3.288-0.676C166.174,124.6,164.428,125.614,163.664,126.91"/>
<path fill="#FFFFFF" d="M177.97,116.842l7.636-1.146c0.052-0.01,0.188,0.396,0.234,0.604c0.434,1.322,6.231,17.275,6.231,17.275
	c0.05-0.01,0.55-4.945,0.66-5.458c0.59-3.976-0.028-7.753,0.614-11.74c1.34-0.334,2.758-0.572,4.067-0.79
	c0.782-0.162,1.16-0.184,2.19-0.182c0.436,0.018,0.367,0.468,0.379,0.792c-0.323,9.184-2.182,18.307-3.428,27.251
	c-2.01,0.252-3.705,0.712-5.707,1.016c-0.311,0.068-0.496,0.212-0.719-0.068c-0.262-0.488-0.298-0.916-0.562-1.404
	C178.954,119.244,178.12,117.57,177.97,116.842"/>
<path fill="#FFFFFF" d="M203.593,129.998c-2.446-6.824-1.778-16.459,7.063-19.645c8.59-3.078,11.15-0.406,13.744,6.872l0.742,2.02
	l-14.582,6.651c-0.05,0.012-0.3,0.388-0.32,0.554c-0.04,0.336-0.063,1.262,1.435,5.62c0.752,2.07,3.048,2.41,5.023,1.732
	c2.426-0.884,4.612-4.484,6.694-4.914c0.884-0.182,3.251,1.552,3.516,2.312l0.056,0.26c-2.548,5.52-6.086,7.066-11.874,7.938
	C208.519,140.431,205.354,134.844,203.593,129.998 M209.879,117.352c-0.549,0.764-1.202,2.854-0.977,3.946l0.046,0.21l0.446-0.202
	c0.05-0.01,0.145-0.084,0.196-0.096c1.362-0.498,2.788-0.956,8.6-3.568c0,0-0.011-0.054-0.097-0.198
	c-0.235-0.604-0.995-2.184-1.006-2.234c-0.789-1.466-1.873-1.186-3.289-0.678C212.389,115.042,210.641,116.054,209.879,117.352"/>
<path fill="#FFFFFF" d="M230.25,132.949c-0.516-2.498-6.086-25.229-3.641-26.005c0.313-0.063,2.998-0.728,4.862-1.168l1.044,4.016
	c2.342-3.904,5.464-6.394,10.567-7.448c0.384,0.298,0.554,0.59,2.002,5.228c-6.296,1.576-11.317,6.684-10.369,12.84l2.01,12.609
	l-0.072,0.178c-0.042,0.064-1.525,0.48-5.1,1.056C230.936,134.166,230.372,133.523,230.25,132.949"/>
<path fill="#FFFFFF" d="M253.648,121.434c0.211-0.042,0.313-0.063,0.555,0.048c2.324,1.8,2.693,3.84,6.18,3.118
	c2.029-0.42,3.746-2.62,3.304-4.754c-0.804-3.903-3.432-4.012-6.924-3.833c-3.056,0.2-8.653-1.684-9.331-4.962
	c-1.196-5.778,2.951-10.649,8.415-11.784c2.502-0.516,5.344-0.941,7.491,0.784l0.064,0.042c0.387,0.3,0.598,0.528,0.684,0.946
	c0.013,0.052,0.002,0.27,0.002,0.27c-0.317,1.098-1.499,5.088-2.228,5.238l-0.366,0.076l-0.405-0.134
	c-1.452-0.462-3.72-1.184-5.229-0.872c-1.145,0.238-1.92,1.21-1.673,2.41c0.851,4.11,13.405-1.58,15.548,8.778
	c1.281,6.194-1.536,11.988-8.355,13.397c-4.059,0.84-8.252,0.786-10.57-3.076c-0.244-0.386-0.819-1.354-1.016-2.29
	C249.793,124.836,253.023,121.564,253.648,121.434"/>
<path fill="#FFFFFF" d="M272.146,120.866c-1.034-4.998,0.537-9.72,5.313-12.61c1.88-1.148,5.323-2.078,6.678-2.356
	c0.626-0.13-1.75-6.37-5.136-5.67c-2.811,0.582-4.105,3.238-5.732,5.094c0,0-4.369-2.241-4.394-2.348
	c-0.107-0.52,0.526-1.412,0.738-1.942c2.674-4.136,5.614-5.938,9.827-6.812c6.977-1.441,9.889,3.98,11.238,9.458l0.098,0.466
	c1.378,5.36,2.534,10.93,3.392,16.397c-0.05,0.552-0.678,1.714-3.932,2.768l-0.21,0.042c-1.924,0.398-0.859-2.05-2.107-2.332
	c-0.662,0.736-0.797,1.412-1.624,2.126c-1.71,1.712-4.33,2.417-6.78,2.924c-3.903,0.806-6.496-1.75-7.295-4.842L272.146,120.866z
	 M286.533,116.694l-0.268-1.3c-0.366-1.772-0.988-4.521-1.876-4.338c-7.964,1.647-6.416,7.302-6.138,8.381
	C279.052,121.714,286.705,117.526,286.533,116.694"/>
</svg>
