<?xml version="1.0" encoding="utf-8"?>
<!-- Generator: Adobe Illustrator 16.0.0, SVG Export Plug-In . SVG Version: 6.00 Build 0)  -->
<!DOCTYPE svg PUBLIC "-//W3C//DTD SVG 1.1//EN" "http://www.w3.org/Graphics/SVG/1.1/DTD/svg11.dtd">
<svg version="1.1" id="Capa_1" xmlns="http://www.w3.org/2000/svg" xmlns:xlink="http://www.w3.org/1999/xlink" x="0px" y="0px"
	 width="207.5px" height="128.192px" viewBox="0 0 207.5 128.192" enable-background="new 0 0 207.5 128.192" xml:space="preserve">
<g>
	<path fill="#FFFFFF" d="M21.641,59.472c0.223-0.074,2.951-0.369,3.984-0.443h0.295c0.221,0,0.443-0.074,0.516,0.221
		c0.297,2.14,1.328,6.935,4.429,6.935c2.877,0,6.343-2.803,6.343-5.68c0-14.018-19.033-16.01-19.033-28.921
		c0-6.713,5.238-13.722,13.28-13.722c0.589,0,1.179,0.221,1.771,0.369c4.205,1.18,5.828,1.918,7.746,6.05
		c0.517,1.401,0.737,1.696,0.737,2.655l-4.942,5.46c0,0-0.223,0.074-0.369,0.074c-1.991,0-2.95-6.788-7.305-6.788
		c-1.992,0-2.877,1.402-2.877,3.394c0,10.255,18.075,12.689,19.256,28.773c0.59,8.189-5.828,16.525-14.756,16.525
		c-6.049,0-9.147-3.024-11.139-8.189l-0.148-0.368c-0.516-1.328-1.033-2.804-1.033-4.206C18.395,60.136,20.387,59.619,21.641,59.472
		"/>
	<path fill="#FFFFFF" d="M48.939,76.81c0.367-5.018,0.736-10.403,2.213-40.283c0.738-13.943,4.427-20.067,12.984-20.067
		c0.516,0,1.107,0,1.697,0.074c7.747,0,9.223,8.632,9.443,14.682v0.368c0.074,1.624,0.295,5.386-0.369,43.603l-0.516,0.368h-2.951
		c-1.182,0-2.361,0.074-3.689-0.368c-0.074-0.738-0.148-4.206-1.107-18.519h-0.516c-2.656,0-5.386,0.222-9,0.222
		c-0.296,3.319-0.223,6.714,0.368,20.288c0,0-0.222,0.517-0.368,0.517h-7.968c-0.296,0-0.222-0.443-0.222-0.517V76.81z
		 M58.234,50.25l0.147,0.369c0.074,0.073,2.582,0.147,7.894,0.221c0.223-0.074,0.223-0.369,0.223-0.59l0.885-14.46v-1.254
		c0-9.887-7.895-12.321-8.779-0.738c-0.369,4.722-0.442,7.009-0.442,12.173C58.161,46.855,58.234,49.881,58.234,50.25"/>
	<path fill="#FFFFFF" d="M79.852,28.559c0-1.254,0.074-7.451,0.074-8.706c0-0.073,0.295-0.664,0.442-0.737
		c2.36-0.369,5.165-0.443,7.599-0.443h0.59l0.223,0.443v41.61c0,0.885,0.22,3.172,0.22,3.246l0.222,0.442h0.885
		c3.395,0,7.084-0.811,10.33-1.623h0.369c2.065,0,1.549,6.198,1.549,7.378v1.033c-0.813,1.107-7.82,1.697-8.928,1.844
		c-0.664,0.148-6.27,0.813-7.009,0.959l-3.909,0.959c-0.147,0-1.033,0.074-1.328,0.074c-0.147,0-0.737-0.074-0.812-0.074
		l-0.222-0.516L79.852,28.559z"/>
	<path fill="#FFFFFF" d="M105.158,18.968c0.074-0.738,0.369-2.729,1.623-2.729c2.655,0.885,5.754,0.885,8.559,0.885l0.22,0.295
		c0,0,0.075,0.59,0.075,0.811c0,0.296-0.075,1.107-0.075,1.255c-1.327,9-2.582,23.903-0.737,36.519
		c0.59,3.762,2.36,8.337,7.01,8.337c1.254,0,2.508,0,3.467-0.959c3.025-3.025,3.689-9.739,3.689-13.576
		c0-4.942-0.147-10.328-0.295-15.271c-0.074-4.279-0.664-8.484-0.664-12.69c0-0.369,0.295-1.18,0.736-1.254l6.714-0.885
		c0.074-0.074,0.517-0.221,0.664-0.221c0.517,0,1.107,0.368,1.181,0.885c0-0.148,0.074-0.221,0.074-0.221
		c0.442,0,3.762,27.887-1.992,44.413c-2.213,6.271-6.197,8.779-12.838,8.779h-1.031c-8.56,0-14.314-2.582-15.938-11.804
		c-1.179-6.419-1.623-12.616-1.623-19.108C104.716,21.919,105.011,19.706,105.158,18.968"/>
	<path fill="#FFFFFF" d="M143.744,16.387c0.146-0.443,0.146-1.402,0.591-1.623l4.5-0.148c5.901,0,12.468,2.582,16.894,6.419
		c0.075,0.073,0.369,0.368,0.369,0.442c4.354,3.468,6.271,13.427,6.271,19.034c0,14.239-2.36,30.913-19.846,32.093l-9.812,0.147
		l-0.149-0.221L143.744,16.387z M152.449,64.415h0.295c9.738-0.885,10.625-10.771,10.625-18.371v-2.065
		c0-9.001-0.887-16.009-7.82-21.321c-0.444-0.369-1.107-0.812-1.771-0.812h-0.442c-0.517,4.279-1.328,32.388-1.402,42.052
		C151.933,64.341,152.08,64.415,152.449,64.415"/>
	<path fill="#FFFFFF" d="M181.517,66.333c2.287,0,3.837,1.844,3.837,4.131c0,2.583-1.402,5.976-4.574,5.976
		c-2.435,0-3.983-1.476-3.983-3.984C176.796,69.505,178.197,66.333,181.517,66.333 M179.156,19.485
		c0.073-0.222,0.223-1.107,0.223-1.254c0.515-1.476,6.123-0.959,8.779-1.107c0.072,0,0.516,0.148,0.59,0.221
		c0,0.148,0.074,0.813,0.074,0.959c0,6.124-1.92,12.174-4.723,45.299c-0.443,0.074-2.361,0.221-3.025,0.221
		c-1.105,0-3.172,0-3.172-1.401C177.902,48.036,178.566,33.798,179.156,19.485"/>
	<path fill="#FFFFFF" d="M15.918,107.535c-6.821,0-8.463-6.02-8.463-9.559v-0.328c0.183-5.546,3.685-10.58,10.689-10.58
		c1.275,0,3.137,0.839,3.137,2.152c0,0.511-1.021,3.065-1.568,3.065c-0.73,0-1.276-0.438-2.079-0.438
		c-2.774,0-4.378,1.897-5.326,4.013c-0.621,1.35-0.438,4.233,0.437,5.582c0.656,1.168,2.262,1.824,3.686,1.861h0.329
		c1.021,0,2.407-0.146,3.282-0.62c0.291-0.146,1.496-1.131,1.86-1.131c0.584,0,1.606,2.335,1.606,3.101
		c0,1.751-5.146,2.845-6.53,2.845C16.611,107.535,16.246,107.535,15.918,107.535"/>
	<path fill="#FFFFFF" d="M37.295,88.964c3.795,2.372,5.218,6.348,5.218,10.179c0,3.503-2.226,6.969-6.021,8.465
		c-1.969,0.766-4.523,0.583-6.603-0.11c-4.159-1.642-5.618-6.129-5.618-9.632C24.271,91.811,30.254,85.717,37.295,88.964
		 M30.254,101.405c0.584,1.423,1.86,2.335,3.576,2.335c3.028,0,3.977-2.882,3.977-4.998c0-7.625-8.501-9.121-8.501-0.985
		C29.306,98.997,29.742,100.238,30.254,101.405"/>
	<path fill="#FFFFFF" d="M44.15,94.328c0-4.415,2.699-5.29,4.67-5.29h0.256c2.007,0.073,4.195,3.685,4.889,6.165l0.11-0.109
		l0.291-0.583c1.313-2.847,2.954-6.458,6.493-6.458c4.635,0,5.107,3.283,5.619,6.932c0.401,7.917,0.109,8.719,0.109,12.295
		c0,0.218,0,0.474-0.365,0.474h-3.027c-0.073,0-0.293-0.146-0.293-0.219l-0.547-8.902c-0.108-1.715,0.328-4.634-2.188-4.634
		c-2.444,0-3.394,5.948-3.649,6.312l-5.07,0.839c-0.438-1.386-0.62-5.837-2.444-5.837c-0.401,0-0.584,0.401-0.694,1.861
		c0,3.685,0.621,7.443,0.621,10.908v0.657c-0.072,0.292-0.218,0.438-0.474,0.474c-1.095,0.037-2.371,0.256-3.539,0.256
		c-0.037,0-0.291,0.036-0.329-0.146L44.15,94.328z"/>
	<path fill="#FFFFFF" d="M68.919,100.968c-0.694-4.925,1.093-11.31,7.478-12.222c6.203-0.876,7.554,1.277,8.282,6.531l0.22,1.459
		L74.172,99.18c-0.037,0-0.255,0.219-0.292,0.329c-0.073,0.218-0.219,0.839,0.183,3.976c0.219,1.496,1.715,2.044,3.138,1.861
		c1.752-0.255,3.722-2.372,5.18-2.372c0.621,0,1.972,1.496,2.043,2.044v0.182c-2.479,3.356-5.069,3.904-9.084,3.685
		C70.779,108.666,69.429,104.47,68.919,100.968 M74.9,93.343c-0.474,0.437-1.203,1.751-1.203,2.517v0.146l0.328-0.073
		c0.037,0,0.109-0.036,0.146-0.036c0.984-0.146,2.006-0.256,6.275-1.204c0,0,0-0.037-0.036-0.146
		c-0.073-0.438-0.365-1.605-0.365-1.642c-0.329-1.095-1.094-1.058-2.117-0.912C76.909,92.139,75.594,92.576,74.9,93.343"/>
	<path fill="#FFFFFF" d="M87.084,88.855c0-0.292,0.328-0.511,0.619-0.511h3.283c0.768,0,0.402,3.466,0.584,4.013
		c3.686-3.539,6.385-3.794,7.772-3.794c3.137,0,4.741,2.919,4.961,5.801l0.692,12.806c0,0.037-0.072,0.109-0.108,0.109l-3.904,0.146
		c-0.073-0.036-0.218-0.109-0.218-0.146l-0.694-9.522c-1.204-9.194-8.757-2.298-8.757,4.232c0,2.043,0.256,4.086,0.256,6.13v0.364
		c-1.131,0.11-2.078,0.11-3.211,0.11h-1.021l-0.219-0.256c0,0-0.035-0.218-0.035-0.328V88.855z"/>
	<path fill="#FFFFFF" d="M107.146,104.58c8.646-10.836,9.012-11.419,9.012-12.404c0-0.621-7.407,0.364-9.815,0.437
		c-0.292-1.386-0.474-2.918-0.145-4.305c3.392-0.401,10.579-0.511,15.213-0.583c0.474,1.386,0.474,2.444,0.438,3.575
		c-0.804,3.648-5.145,6.786-7.479,11.237c3.137-0.329,5.216-0.109,7.953-0.109h0.401c0.584,0.911,0.475,2.189,0.219,4.414h-0.438
		c-3.757,0-7.368-0.146-14.63,0.839h-0.145c-0.33,0-0.693-2.372-0.693-2.773C107.037,104.763,107.037,104.726,107.146,104.58"/>
	<path fill="#FFFFFF" d="M124.363,100.968c-0.693-4.925,1.094-11.31,7.479-12.222c6.203-0.876,7.553,1.277,8.281,6.531l0.221,1.459
		l-10.727,2.444c-0.037,0-0.256,0.219-0.292,0.329c-0.074,0.218-0.219,0.839,0.183,3.976c0.219,1.496,1.715,2.044,3.137,1.861
		c1.752-0.255,3.722-2.372,5.181-2.372c0.621,0,1.97,1.496,2.043,2.044v0.182c-2.479,3.356-5.071,3.904-9.085,3.685
		C126.225,108.666,124.873,104.47,124.363,100.968 M130.346,93.343c-0.475,0.437-1.203,1.751-1.203,2.517v0.146l0.328-0.073
		c0.037,0,0.109-0.036,0.146-0.036c0.984-0.146,2.006-0.256,6.275-1.204c0,0,0-0.037-0.037-0.146
		c-0.072-0.438-0.364-1.605-0.364-1.642c-0.329-1.095-1.095-1.058-2.117-0.912C132.354,92.139,131.039,92.576,130.346,93.343"/>
	<path fill="#FFFFFF" d="M141.98,94.328c0-4.415,2.701-5.29,4.67-5.29h0.257c2.006,0.073,4.194,3.685,4.888,6.165l0.11-0.109
		l0.292-0.583c1.313-2.847,2.955-6.458,6.494-6.458c4.633,0,5.106,3.283,5.617,6.932c0.401,7.917,0.109,8.719,0.109,12.295
		c0,0.218,0,0.474-0.363,0.474h-3.029c-0.072,0-0.291-0.146-0.291-0.219l-0.549-8.902c-0.108-1.715,0.33-4.634-2.188-4.634
		c-2.445,0-3.395,5.948-3.648,6.312l-5.071,0.839c-0.438-1.386-0.62-5.837-2.444-5.837c-0.402,0-0.584,0.401-0.693,1.861
		c0,3.685,0.619,7.443,0.619,10.908v0.657c-0.072,0.292-0.218,0.438-0.473,0.474c-1.096,0.037-2.372,0.256-3.539,0.256
		c-0.038,0-0.292,0.036-0.33-0.146L141.98,94.328z"/>
	<path fill="#FFFFFF" d="M179.627,88.964c3.795,2.372,5.218,6.348,5.218,10.179c0,3.503-2.226,6.969-6.021,8.465
		c-1.969,0.766-4.523,0.583-6.603-0.11c-4.159-1.642-5.618-6.129-5.618-9.632C166.604,91.811,172.586,85.717,179.627,88.964
		 M172.586,101.405c0.584,1.423,1.86,2.335,3.576,2.335c3.028,0,3.977-2.882,3.977-4.998c0-7.625-8.501-9.121-8.501-0.985
		C171.638,98.997,172.075,100.238,172.586,101.405"/>
	<path fill="#FFFFFF" d="M188.088,102.172c0.146,0,0.22,0,0.365,0.109c1.314,1.533,1.277,2.955,3.721,2.955
		c1.424,0,2.884-1.24,2.884-2.736c0-2.736-1.752-3.174-4.123-3.539c-2.079-0.292-5.582-2.335-5.582-4.633
		c0-4.05,3.465-6.75,7.297-6.75c1.751,0,3.722,0.11,4.924,1.569l0.037,0.037c0.22,0.255,0.329,0.437,0.329,0.729
		c0,0.037-0.037,0.183-0.037,0.183c-0.365,0.693-1.714,3.21-2.225,3.21h-0.256l-0.256-0.146c-0.912-0.51-2.334-1.313-3.393-1.313
		c-0.803,0-1.459,0.547-1.459,1.386c0,2.882,9.23,0.803,9.23,8.063c0,4.342-2.701,7.844-7.479,7.844
		c-2.847,0-5.656-0.62-6.677-3.539c-0.11-0.292-0.364-1.021-0.364-1.678C185.024,103.923,187.651,102.172,188.088,102.172"/>
</g>
</svg>
