<?xml version="1.0" encoding="utf-8"?>
<!-- Generator: Adobe Illustrator 16.0.0, SVG Export Plug-In . SVG Version: 6.00 Build 0)  -->
<!DOCTYPE svg PUBLIC "-//W3C//DTD SVG 1.1//EN" "http://www.w3.org/Graphics/SVG/1.1/DTD/svg11.dtd">
<svg version="1.1" id="Capa_1" xmlns="http://www.w3.org/2000/svg" xmlns:xlink="http://www.w3.org/1999/xlink" x="0px" y="0px"
	 width="158.5px" height="77.566px" viewBox="0 0 158.5 77.566" enable-background="new 0 0 158.5 77.566" xml:space="preserve">
<g>
	<path fill="#FFFFFF" d="M14.115,25.999c-0.105-0.375-0.483-0.322-0.807-0.322c-1.184,0-2.311,0.322-3.551,0.322
		c-0.214,0-0.535-0.16-0.535-0.483v-6.562h17.534v7.316h-6.079l-0.16,0.268v3.39c0.482,9.789,1.184,19.687,1.184,29.53
		c0,0.538-0.108,0.968-0.646,1.128h-5.272c-0.374,0-0.535-0.107-0.645-0.483C15.085,48.698,14.388,37.349,14.115,25.999"/>
	<path fill="#FFFFFF" d="M42.997,32.077c5.596,3.498,7.691,9.36,7.691,15.008c0,5.165-3.279,10.274-8.875,12.48
		c-2.902,1.129-6.669,0.859-9.735-0.163c-6.131-2.42-8.282-9.037-8.282-14.201C23.796,36.273,32.616,27.29,42.997,32.077
		 M32.616,50.42c0.861,2.098,2.743,3.442,5.271,3.442c4.466,0,5.864-4.249,5.864-7.369c0-11.242-12.535-13.447-12.535-1.452
		C31.217,46.869,31.862,48.699,32.616,50.42"/>
	<path fill="#FFFFFF" d="M53.104,39.985c0-6.509,3.981-7.799,6.887-7.799h0.377c2.958,0.108,6.185,5.433,7.207,9.089l0.162-0.161
		l0.431-0.859c1.935-4.198,4.356-9.521,9.575-9.521c6.83,0,7.528,4.841,8.281,10.22c0.592,11.672,0.161,12.855,0.161,18.127
		c0,0.321,0,0.699-0.537,0.699h-4.463c-0.108,0-0.431-0.216-0.431-0.323l-0.81-13.125c-0.159-2.528,0.485-6.833-3.225-6.833
		c-3.605,0-5.005,8.77-5.381,9.306l-7.476,1.237c-0.646-2.043-0.914-8.605-3.604-8.605c-0.594,0-0.861,0.591-1.023,2.744
		c0,5.432,0.914,10.973,0.914,16.082v0.969c-0.106,0.431-0.321,0.646-0.697,0.699c-1.613,0.055-3.497,0.377-5.219,0.377
		c-0.054,0-0.43,0.053-0.485-0.215L53.104,39.985z"/>
	<path fill="#FFFFFF" d="M89.408,54.778c0-5.165,2.528-9.521,7.851-11.405c2.098-0.753,5.702-0.968,7.103-0.968
		c0.644,0-0.431-6.67-3.928-6.67c-2.903,0-4.732,2.368-6.722,3.873c0,0-3.873-3.12-3.873-3.228c0-0.538,0.806-1.29,1.129-1.775
		c3.497-3.55,6.775-4.732,11.133-4.732c7.208,0,8.983,5.97,9.199,11.672v0.483c0.268,5.595,0.268,11.35,0,16.944
		c-0.162,0.539-1.023,1.562-4.466,1.937h-0.213c-1.993,0-0.431-2.205-1.616-2.743c-0.806,0.591-1.074,1.237-2.044,1.775
		c-2.042,1.345-4.788,1.506-7.315,1.506c-4.033,0-6.078-3.067-6.237-6.294V54.778z M104.522,53.594v-1.345
		c0-1.829-0.055-4.679-0.969-4.679c-8.229,0-7.853,5.917-7.799,7.045C96.075,57.036,104.522,54.453,104.522,53.594"/>
	<path fill="#FFFFFF" d="M131.3,57.951c0-10.058,12.963-28.132,12.963-29.639c0-2.096-2.529-2.312-4.197-2.312
		c-1.074,0-2.958,0.591-3.818,1.237c-0.161,0.053-1.828,1.56-1.883,1.56c-0.376,0-3.549-3.658-3.442-3.82
		c4.089-6.132,21.356-6.992,21.356,0.916c0,4.464-3.39,7.1-5.758,11.08c-0.966,1.667-10.273,18.29-7.691,18.29
		c1.184,0,10.438-2.474,11.029-1.722c0.213,0.43,1.344,4.571,1.344,4.949c0,0.16,0,0.322-0.16,0.375
		c-4.682,0.701-11.136,1.399-15.333,2.368c-0.753,0.161-1.558,0.431-2.365,0.431c-0.698,0-1.184-0.592-1.612-1.076l-0.108-0.162
		C131.353,59.35,131.3,58.919,131.3,57.951"/>
</g>
</svg>
